<?xml version="1.0" encoding="UTF-8"?>
<!-- Created with Inkscape (http://www.inkscape.org/) -->
<svg width="100.04mm" height="149.65mm" version="1.1" viewBox="0 0 100.04 149.65" xml:space="preserve" xmlns="http://www.w3.org/2000/svg"><g transform="translate(-4.7436 -6.2896)"><path d="m53.904 6.3007c-12.717 0.224-25.269 5.4885-34.293 14.459-8.5433 8.3723-13.867 19.918-14.719 31.846-1.0447 13.14 3.4959 26.558 12.122 36.499 3.0982 3.6236 6.7698 6.7206 10.737 9.3532 1.7414 1.2688 3.6592 2.7848 3.9977 5.0608 0.14672 0.79783 0.3247 1.7183 0.07834 2.4743-1.3854 0.54837-2.3903 1.7665-3.3354 2.8752-1.7 2.2221-1.7446 5.4233-0.58465 7.8976 0.21059 0.55649 0.76009 1.0606 0.72386 1.6679-1.5421 2.0454-2.0664 4.8388-1.1971 7.2695 0.25953 0.90571 0.84393 1.6663 1.2937 2.468-1.0779 1.4543-1.7123 3.2462-1.6293 5.0701 0.02937 1.9853 0.81584 3.9483 2.2674 5.3217 0.71147 0.69976 1.4284 1.4684 2.3706 1.8497 0.49952 2.3607 0.01531 4.9837 1.1558 7.2632 1.3054 3.1798 3.7872 5.92 7.0132 7.202 1.4456 0.70627 3.0563 0.82762 4.6381 0.87444 6.8068 0.24727 13.625 0.25272 20.432 3e-3 1.5922-0.0374 3.2038-0.19787 4.6616-0.88903 3.7696-1.4937 6.6211-4.9408 7.5049-8.8832 0.49431-1.7803 0.39027-3.6376 0.53247-5.4582 0.16665-0.25769 0.66174-0.27246 0.89525-0.53947 1.7727-1.3592 3.4747-3.1611 3.7506-5.4791 0.33189-2.047-0.14545-4.1765-1.2577-5.92-0.48638-0.55478 0.21154-1.0433 0.43461-1.525 1.5583-2.6305 1.2994-6.1381-0.5474-8.5592-0.21467-0.50762 0.38072-0.988 0.5358-1.447 1.2705-2.4176 1.3144-5.5898-0.2243-7.8987-0.96167-1.2311-2.0421-2.503-3.494-3.1537-0.30464-0.3101-0.1259-0.97726-0.14089-1.4202 0.09897-1.8879 1.0231-3.6742 2.5064-4.8464 1.9454-1.6056 4.185-2.8197 6.092-4.4787 8.0769-6.6387 14.161-15.768 16.826-25.906 2.5437-9.2417 2.2695-19.207-0.68266-28.321-2.8122-8.9555-8.2964-17.013-15.492-23.025-9.1088-7.7158-21.032-11.964-32.971-11.707zm0.70769 6.1256c3.8723-0.0197 7.6652 0.1566 11.402 1.2825 5.4832 1.5217 10.793 4.0637 15.351 7.5462 3.0368 2.3179 5.8886 5.1324 8.2545 8.21 4.3764 5.6844 7.4033 12.521 8.6567 19.637 0.55568 4.1733 0.52375 8.5105 0.17367 12.703-0.33183 3.8293-1.4666 7.5374-2.8664 11.066-3.2968 8.218-9.2129 15.293-16.556 20.209-1.6898 1.251-3.5478 2.3907-4.8107 4.1079-1.6703 2.3415-2.5539 5.1839-2.6623 8.0488-0.36394 0.25512-1.1669 0.028-1.6929 0.10513h-7.1361c0.03797-5.883-0.0903-11.769 0.10349-17.65 0.06915-1.4561 0.19885-3.1287 1.4599-4.0858 0.7321-0.88378 1.8833-1.1099 2.9729-1.1468 2.856-0.1302 5.7615-1.6834 6.9501-4.3726 1.0061-2.265 1.0132-5.0266-0.12652-7.2437-1.3307-2.337-3.8229-4.0631-6.5529-4.1569-1.1487-0.02914-2.3961-0.22332-3.4708 0.27815-0.26908 0.37398-0.59833 0.61969-1.0963 0.56845-0.80186 0.03685-1.6049 0.02596-2.4074 0.0271-0.07664-1.2825 0.17971-2.6369-0.23956-3.8706-0.32392-0.72746-1.3464-0.3396-1.4136 0.35925-0.32461 1.1219-0.19122 2.3112-0.41185 3.4495-3.0919-1.2165-5.9295-3.0296-9.0801-4.0953-0.84008-0.20728-0.94344 0.87726-0.99088 1.4694-0.09246 0.89259-0.05109 1.7921-0.06098 2.6878-0.62604-0.05746-1.3728 0.13825-1.922-0.20303-0.60292-0.79357-1.7717-0.66718-2.6652-0.72854-1.9036-0.03241-3.9051 0.34204-5.3822 1.6265-1.683 1.2813-3.0118 3.1645-3.1421 5.3287-0.24443 2.2982 0.29027 4.9254 2.2584 6.3629 1.3889 1.1455 3.1799 1.5448 4.912 1.8231 1.6976 0.24158 2.8418 1.6731 3.7519 2.9976 0.68623 0.95639 0.4046 2.2176 0.5386 3.3203 0.16126 5.75 0.08252 11.503 0.1019 17.255h-8.8171c-0.10468-2.5377-0.75816-5.0627-2.08-7.2435-1.1889-2.1842-3.3699-3.5151-5.3174-4.9425-4.1837-2.8857-7.8792-6.4634-11.062-10.418-4.151-5.5018-6.9838-12.035-8.2007-18.85-0.62698-4.2347-0.64776-8.5586-0.29414-12.81 0.30866-3.5817 1.2913-6.9691 2.5011-10.34 2.5844-7.1659 7.3801-13.341 13.163-18.254 4.5454-3.919 9.967-6.8355 15.784-8.4914 2.9902-0.86642 6.0584-1.5304 9.142-1.5342 0.99381-0.02421 1.9878-0.03041 2.9819-0.0332zm-3.5559 3.7898c-0.94579 0.8378-1.9731 1.9524-1.7319 3.3271 0.21166 1.4488 1.5659 2.6652 3.059 2.5749 2.4579 0.06274 4.8861 0.02724 7.2929 0.4131 5.5334 0.8234 10.975 3.1108 15.52 6.4551 6.1793 4.5527 10.691 11.381 12.601 18.86 0.93579 3.445 1.176 7.0265 1.1548 10.582-0.03864 1.0487 0.31815 2.1349 1.2215 2.7419 1.1896 1.0172 3.0668 0.69785 4.0328-0.47264 0.3442-0.42164 1.0161-0.71531 0.8049-1.3536-0.14224-4.5012-0.33173-9.0454-1.5088-13.417-1.6705-6.7073-5.3647-12.813-10.241-17.677-4.8757-5.0068-11.025-8.8471-17.822-10.592-4.306-1.1858-8.7857-1.4351-13.228-1.5617-0.36045 0.06402-0.91039-0.21447-1.1553 0.12127zm10.099 37.417c-0.91696 0.04818-2.2522 0.16865-2.444 1.2878-0.13065 0.91006 0.80624 1.5044 1.5971 1.6203-1.2705 1.2407-2.8448 2.2571-3.7434 3.8246-0.4698 0.77465 0.29018 1.6578 1.1176 1.5778 1.139-0.16608 1.8276-1.2689 2.6568-1.9591 0.55402-0.52979 1.0896-1.0796 1.657-1.5948 0.13649 0.9235 1.3116 1.6285 2.0631 0.89138 0.96472-1.0445 0.85247-2.6145 0.79519-3.9382 4.57e-4 -1.1109-1.1864-1.5288-2.1095-1.6288-0.52603-0.07709-1.0592-0.0952-1.59-0.08101zm7.4327 0.30937c-0.91709 0.04809-2.2549 0.16911-2.444 1.2897-0.13041 0.90904 0.80681 1.5039 1.5971 1.6184-1.2725 1.2418-2.8479 2.261-3.7473 3.8304-0.4594 0.77295 0.28776 1.6449 1.1118 1.5739 1.1443-0.16074 1.8334-1.2695 2.6659-1.9596 0.55559-0.52883 1.0897-1.0808 1.6576-1.5962 0.1361 0.92341 1.3118 1.6285 2.0631 0.89138 0.96218-1.0438 0.85267-2.612 0.79387-3.9344 2.8e-4 -1.1545-1.258-1.5513-2.2062-1.6463-0.49462-0.06472-0.99369-0.08104-1.4919-0.06727zm-21.068 17.145c0.83991-0.2289 0.96294 0.25908 0.84304 0.99 0.06135 1.003-0.16297 2.1601 0.4834 3.0145 0.7014 0.53265 1.5568-0.16628 2.2681-0.36738 2.503-1.0737 4.8916-2.3892 7.3805-3.494 0.28766 1.2815-0.02944 2.7302 0.67676 3.8942 0.49032 0.53928 1.3068 0.03907 1.2955-0.62455 0.14826-1.13 0.06826-2.276 0.09088-3.4128 1.0056 0.04301 2.0371-0.0951 3.0261 0.10055 0.13718 0.64477 0.48605 1.365 1.2452 1.3902 1.1466 0.20648 2.4734-0.24098 3.4785 0.48146 0.92917 0.6637 1.0779 2.1156 0.18949 2.881-0.87312 0.9016-2.2511 0.49061-3.3666 0.6117-1.5622-0.08884-2.9294 0.78528-4.0566 1.7734-2.0891 1.6749-3.2801 4.1286-4.3503 6.519v20.498h-3.9078v-20.498c-1.077-2.4124-2.2862-4.8854-4.4031-6.5639-1.1174-0.97174-2.4763-1.8182-4.0161-1.7326-1.042-0.01934-2.3518 0.14315-2.9831-0.89772-0.85055-1.0948-0.03826-2.9485 1.396-2.9139 1.1078-0.20862 2.3501 0.01202 3.349-0.58201 0.37216-0.2226 0.29695-0.7549 0.51433-1.0209 0.27951-0.05003 0.56419-0.04293 0.84691-0.0464zm7.2509 40.259h20.558c0.64091 0.58372 1.3978 1.3104 1.1698 2.3106-0.15917 0.72651-0.69802 1.1017-1.1698 1.5952h-41.118c-0.7838-0.6384-1.6074-1.7009-1.0134-2.7376 0.2677-0.45419 0.67218-0.93114 1.1124-1.1683h20.461zm0 9.9096h20.558c0.64079 0.58305 1.3967 1.31 1.1698 2.3106-0.15916 0.67241-0.72742 1.2575-1.2669 1.5971h-41.023c-0.78059-0.64158-1.606-1.7022-1.011-2.7393 0.26973-0.45005 0.67015-0.93462 1.112-1.1685h20.461zm0 9.9096h20.558c0.642 0.58676 1.3974 1.3093 1.1698 2.3106-0.157 0.72486-0.69725 1.1035-1.1698 1.5971h-41.118c-0.75975-0.6298-1.5779-1.638-1.048-2.6703 0.26278-0.48444 0.68748-0.9857 1.147-1.2375h20.461zm0 9.9096h16.818c0.0076 1.9919 0.05247 4.2196-1.3248 5.8247-1.1406 1.4797-2.7496 2.8398-4.7153 2.8473-4.2903 0.26588-8.5951 0.12999-12.892 0.14422-3.3573-0.0566-6.7325 0.0241-10.074-0.32579-2.2108-1.048-4.2151-3.0196-4.515-5.5508-0.15538-0.97211-0.108-1.9593-0.11589-2.9396h16.818z" stroke-width=".30969"/></g></svg>
