  0
SECTION
  2
HEADER
  9
$ACADVER
  1
AC1015
  9
$ACADMAINTVER
 70
     6
  9
$DWGCODEPAGE
  3
ANSI_1252
  9
$INSBASE
 10
0.0
 20
0.0
 30
0.0
  9
$EXTMIN
 10
0.0
 20
0.0
 30
0.0
  9
$EXTMAX
 10
297.0
 20
210.0
 30
0.0
  9
$LIMMIN
 10
0.0
 20
0.0
  9
$LIMMAX
 10
297.0
 20
210.0
  9
$ORTHOMODE
 70
     0
  9
$REGENMODE
 70
     1
  9
$FILLMODE
 70
     1
  9
$QTEXTMODE
 70
     0
  9
$MIRRTEXT
 70
     1
  9
$LTSCALE
 40
1.0
  9
$ATTMODE
 70
     1
  9
$TEXTSIZE
 40
3.8805555556
  9
$TRACEWID
 40
1.0
  9
$TEXTSTYLE
  7
Standard
  9
$CLAYER
  8
0
  9
$CELTYPE
  6
ByLayer
  9
$CECOLOR
 62
   256
  9
$CELTSCALE
 40
1.0
  9
$DISPSILH
 70
     0
  9
$DIMSCALE
 40
1.0
  9
$DIMASZ
 40
2.5683186849
  9
$DIMEXO
 40
1.0
  9
$DIMDLI
 40
3.75
  9
$DIMRND
 40
0.0
  9
$DIMDLE
 40
0.0
  9
$DIMEXE
 40
1.0
  9
$DIMTP
 40
0.0
  9
$DIMTM
 40
0.0
  9
$DIMTXT
 40
3.5277777778
  9
$DIMCEN
 40
2.5
  9
$DIMTSZ
 40
0.0
  9
$DIMTOL
 70
     0
  9
$DIMLIM
 70
     0
  9
$DIMTIH
 70
     1
  9
$DIMTOH
 70
     1
  9
$DIMSE1
 70
     0
  9
$DIMSE2
 70
     0
  9
$DIMTAD
 70
     1
  9
$DIMZIN
 70
     1
  9
$DIMBLK
  1

  9
$DIMASO
 70
     1
  9
$DIMSHO
 70
     1
  9
$DIMPOST
  1

  9
$DIMAPOST
  1

  9
$DIMALT
 70
     0
  9
$DIMALTD
 70
     3
  9
$DIMALTF
 40
0.0393700787
  9
$DIMLFAC
 40
1.0
  9
$DIMTOFL
 70
     1
  9
$DIMTVP
 40
0.0
  9
$DIMTIX
 70
     0
  9
$DIMSOXD
 70
     0
  9
$DIMSAH
 70
     0
  9
$DIMBLK1
  1

  9
$DIMBLK2
  1

  9
$DIMSTYLE
  2
ISO-25
  9
$DIMCLRD
 70
     0
  9
$DIMCLRE
 70
     0
  9
$DIMCLRT
 70
     0
  9
$DIMTFAC
 40
1.0
  9
$DIMGAP
 40
1.524
  9
$DIMJUST
 70
     0
  9
$DIMSD1
 70
     0
  9
$DIMSD2
 70
     0
  9
$DIMTOLJ
 70
     0
  9
$DIMTZIN
 70
     1
  9
$DIMALTZ
 70
     0
  9
$DIMALTTZ
 70
     0
  9
$DIMUPT
 70
     0
  9
$DIMDEC
 70
     2
  9
$DIMTDEC
 70
     2
  9
$DIMALTU
 70
     2
  9
$DIMALTTD
 70
     3
  9
$DIMTXSTY
  7
Standard
  9
$DIMAUNIT
 70
     0
  9
$DIMADEC
 70
     2
  9
$DIMALTRND
 40
0.0
  9
$DIMAZIN
 70
     0
  9
$DIMDSEP
 70
    44
  9
$DIMATFIT
 70
     3
  9
$DIMFRAC
 70
     0
  9
$DIMLDRBLK
  1

  9
$DIMLUNIT
 70
     2
  9
$DIMLWD
 70
    -2
  9
$DIMLWE
 70
    -2
  9
$DIMTMOVE
 70
     0
  9
$LUNITS
 70
     2
  9
$LUPREC
 70
     2
  9
$SKETCHINC
 40
1.0
  9
$FILLETRAD
 40
10.0
  9
$AUNITS
 70
     0
  9
$AUPREC
 70
     2
  9
$MENU
  1
.
  9
$ELEVATION
 40
0.0
  9
$PELEVATION
 40
0.0
  9
$THICKNESS
 40
0.0
  9
$LIMCHECK
 70
     0
  9
$CHAMFERA
 40
0.0
  9
$CHAMFERB
 40
0.0
  9
$CHAMFERC
 40
0.0
  9
$CHAMFERD
 40
0.0
  9
$SKPOLY
 70
     0
  9
$TDCREATE
 40
2458800.463489282
  9
$TDUCREATE
 40
2458800.463489282
  9
$TDUPDATE
 40
2458800.463495405
  9
$TDUUPDATE
 40
2458800.463495405
  9
$TDINDWG
 40
0.0000000116
  9
$TDUSRTIMER
 40
0.0000000116
  9
$USRTIMER
 70
     1
  9
$ANGBASE
 50
0.0
  9
$ANGDIR
 70
     0
  9
$PDMODE
 70
     0
  9
$PDSIZE
 40
-1.0
  9
$PLINEWID
 40
0.0
  9
$SPLFRAME
 70
     0
  9
$SPLINETYPE
 70
     6
  9
$SPLINESEGS
 70
     8
  9
$HANDSEED
  5
239
  9
$SURFTAB1
 70
     6
  9
$SURFTAB2
 70
     6
  9
$SURFTYPE
 70
     6
  9
$SURFU
 70
     6
  9
$SURFV
 70
     6
  9
$UCSBASE
  2

  9
$UCSNAME
  2

  9
$UCSORG
 10
0.0
 20
0.0
 30
0.0
  9
$UCSXDIR
 10
1.0
 20
0.0
 30
0.0
  9
$UCSYDIR
 10
0.0
 20
1.0
 30
0.0
  9
$UCSORTHOREF
  2

  9
$UCSORTHOVIEW
 70
     0
  9
$UCSORGTOP
 10
0.0
 20
0.0
 30
0.0
  9
$UCSORGBOTTOM
 10
0.0
 20
0.0
 30
0.0
  9
$UCSORGLEFT
 10
0.0
 20
0.0
 30
0.0
  9
$UCSORGRIGHT
 10
0.0
 20
0.0
 30
0.0
  9
$UCSORGFRONT
 10
0.0
 20
0.0
 30
0.0
  9
$UCSORGBACK
 10
0.0
 20
0.0
 30
0.0
  9
$PUCSBASE
  2

  9
$PUCSNAME
  2

  9
$PUCSORG
 10
0.0
 20
0.0
 30
0.0
  9
$PUCSXDIR
 10
1.0
 20
0.0
 30
0.0
  9
$PUCSYDIR
 10
0.0
 20
1.0
 30
0.0
  9
$PUCSORTHOREF
  2

  9
$PUCSORTHOVIEW
 70
     0
  9
$PUCSORGTOP
 10
0.0
 20
0.0
 30
0.0
  9
$PUCSORGBOTTOM
 10
0.0
 20
0.0
 30
0.0
  9
$PUCSORGLEFT
 10
0.0
 20
0.0
 30
0.0
  9
$PUCSORGRIGHT
 10
0.0
 20
0.0
 30
0.0
  9
$PUCSORGFRONT
 10
0.0
 20
0.0
 30
0.0
  9
$PUCSORGBACK
 10
0.0
 20
0.0
 30
0.0
  9
$USERI1
 70
     0
  9
$USERI2
 70
     0
  9
$USERI3
 70
     0
  9
$USERI4
 70
     0
  9
$USERI5
 70
     0
  9
$USERR1
 40
0.0
  9
$USERR2
 40
0.0
  9
$USERR3
 40
0.0
  9
$USERR4
 40
0.0
  9
$USERR5
 40
0.0
  9
$WORLDVIEW
 70
     1
  9
$SHADEDGE
 70
     3
  9
$SHADEDIF
 70
    70
  9
$TILEMODE
 70
     1
  9
$MAXACTVP
 70
    64
  9
$PINSBASE
 10
0.0
 20
0.0
 30
0.0
  9
$PLIMCHECK
 70
     0
  9
$PEXTMIN
 10
1.0000000000E+20
 20
1.0000000000E+20
 30
1.0000000000E+20
  9
$PEXTMAX
 10
-1.0000000000E+20
 20
-1.0000000000E+20
 30
-1.0000000000E+20
  9
$PLIMMIN
 10
0.0
 20
0.0
  9
$PLIMMAX
 10
420.0
 20
297.0
  9
$UNITMODE
 70
     0
  9
$VISRETAIN
 70
     1
  9
$PLINEGEN
 70
     0
  9
$PSLTSCALE
 70
     1
  9
$TREEDEPTH
 70
  3020
  9
$CMLSTYLE
  2
Standard
  9
$CMLJUST
 70
     0
  9
$CMLSCALE
 40
20.0
  9
$PROXYGRAPHICS
 70
     1
  9
$MEASUREMENT
 70
     1
  9
$CELWEIGHT
370
    -1
  9
$ENDCAPS
280
     0
  9
$JOINSTYLE
280
     0
  9
$LWDISPLAY
290
     1
  9
$INSUNITS
 70
     4
  9
$HYPERLINKBASE
  1

  9
$STYLESHEET
  1

  9
$XEDIT
290
     1
  9
$CEPSNTYPE
380
     0
  9
$PSTYLEMODE
290
     1
  9
$FINGERPRINTGUID
  2
{799F200E-2227-4C9F-B23B-EF72069B146F}
  9
$VERSIONGUID
  2
{FAEB1C32-E019-11D5-929B-00C0DF256EC4}
  9
$EXTNAMES
290
     1
  9
$PSVPSCALE
 40
0.0
  9
$OLESTARTUP
290
     0
  0
ENDSEC
  0
SECTION
  2
CLASSES
  0
CLASS
  1
ACDBDICTIONARYWDFLT
  2
AcDbDictionaryWithDefault
  3
ObjectDBX Classes
 90
        0
280
     0
281
     0
  0
CLASS
  1
VISUALSTYLE
  2
AcDbVisualStyle
  3
ObjectDBX Classes
 90
     4095
280
     0
281
     0
  0
CLASS
  1
MATERIAL
  2
AcDbMaterial
  3
ObjectDBX Classes
 90
     1153
280
     0
281
     0
  0
CLASS
  1
SCALE
  2
AcDbScale
  3
ObjectDBX Classes
 90
     1153
280
     0
281
     0
  0
CLASS
  1
TABLESTYLE
  2
AcDbTableStyle
  3
ObjectDBX Classes
 90
     4095
280
     0
281
     0
  0
CLASS
  1
MLEADERSTYLE
  2
AcDbMLeaderStyle
  3
ACDB_MLEADERSTYLE_CLASS
 90
     4095
280
     0
281
     0
  0
CLASS
  1
SUN
  2
AcDbSun
  3
SCENEOE
 90
     1153
280
     0
281
     0
  0
CLASS
  1
ACDBPLACEHOLDER
  2
AcDbPlaceHolder
  3
ObjectDBX Classes
 90
        0
280
     0
281
     0
  0
CLASS
  1
LAYOUT
  2
AcDbLayout
  3
ObjectDBX Classes
 90
        0
280
     0
281
     0
  0
ENDSEC
  0
SECTION
  2
TABLES
  0
TABLE
  2
VPORT
  5
8
330
0
100
AcDbSymbolTable
 70
     1
  0
VPORT
  5
29
330
8
100
AcDbSymbolTableRecord
100
AcDbViewportTableRecord
  2
*Active
 70
     0
 10
0.0
 20
0.0
 11
1.0
 21
1.0
 12
148.5
 22
105.0
 13
0.0
 23
0.0
 14
10.0
 24
10.0
 15
10.0
 25
10.0
 16
0.0
 26
0.0
 36
1.0
 17
0.0
 27
0.0
 37
0.0
 40
210.0
 41
1.4142857143
 42
50.0
 43
0.0
 44
0.0
 50
0.0
 51
0.0
 71
     0
 72
  2000
 73
     1
 74
     3
 75
     0
 76
     0
 77
     0
 78
     0
281
     0
 65
     1
110
0.0
120
0.0
130
0.0
111
1.0
121
0.0
131
0.0
112
0.0
122
1.0
132
0.0
 79
     0
146
0.0
  0
ENDTAB
  0
TABLE
  2
LTYPE
  5
5
330
0
100
AcDbSymbolTable
 70
     6
  0
LTYPE
  5
14
330
5
100
AcDbSymbolTableRecord
100
AcDbLinetypeTableRecord
  2
ByBlock
 70
     0
  3

 72
    65
 73
     0
 40
0.0
  0
LTYPE
  5
15
330
5
100
AcDbSymbolTableRecord
100
AcDbLinetypeTableRecord
  2
ByLayer
 70
     0
  3

 72
    65
 73
     0
 40
0.0
  0
LTYPE
  5
16
330
5
100
AcDbSymbolTableRecord
100
AcDbLinetypeTableRecord
  2
Continuous
 70
     0
  3
Solid line
 72
    65
 73
     0
 40
0.0
  0
LTYPE
  5
6E
330
5
100
AcDbSymbolTableRecord
100
AcDbLinetypeTableRecord
  2
HIDDEN
 70
     0
  3
Hidden __ __ __ __ __ __ __ __ __ __ __ __ __ __
 72
    65
 73
     2
 40
1.905
 49
1.27
 74
     0
 49
-0.635
 74
     0
  0
LTYPE
  5
6F
330
5
100
AcDbSymbolTableRecord
100
AcDbLinetypeTableRecord
  2
PHANTOM
 70
     0
  3
Phantom ______  __  __  ______  __  __  ______
 72
    65
 73
     6
 40
12.7
 49
6.35
 74
     0
 49
-1.27
 74
     0
 49
1.27
 74
     0
 49
-1.27
 74
     0
 49
1.27
 74
     0
 49
-1.27
 74
     0
  0
LTYPE
  5
70
330
5
100
AcDbSymbolTableRecord
100
AcDbLinetypeTableRecord
  2
CENTER
 70
     0
  3
Center ____ _ ____ _ ____ _ ____ _ ____ _ ____
 72
    65
 73
     4
 40
10.16
 49
6.35
 74
     0
 49
-1.27
 74
     0
 49
1.27
 74
     0
 49
-1.27
 74
     0
  0
LTYPE
  5
71
330
5
100
AcDbSymbolTableRecord
100
AcDbLinetypeTableRecord
  2
CENTERX2
 70
     0
  3
Center (2x) ________  __  ________  __  _____
 72
    65
 73
     4
 40
20.32
 49
12.7
 74
     0
 49
-2.54
 74
     0
 49
2.54
 74
     0
 49
-2.54
 74
     0
  0
LTYPE
  5
72
330
5
100
AcDbSymbolTableRecord
100
AcDbLinetypeTableRecord
  2
DOT2
 70
     0
  3
Dot (.5x) ........................................
 72
    65
 73
     2
 40
0.635
 49
0.0
 74
     0
 49
-0.635
 74
     0
  0
ENDTAB
  0
TABLE
  2
LAYER
  5
2
330
0
100
AcDbSymbolTable
 70
     2
  0
LAYER
  5
10
330
2
100
AcDbSymbolTableRecord
100
AcDbLayerTableRecord
  2
0
 70
     0
 62
     7
  6
Continuous
370
    -3
390
F
  0
LAYER
  5
73
330
2
100
AcDbSymbolTableRecord
100
AcDbLayerTableRecord
  2
FORMAT
 70
     0
 62
     7
  6
Continuous
370
    -3
390
F
  0
ENDTAB
  0
TABLE
  2
STYLE
  5
3
330
0
100
AcDbSymbolTable
 70
     5
  0
STYLE
  5
11
330
3
100
AcDbSymbolTableRecord
100
AcDbTextStyleTableRecord
  2
Standard
 70
     0
 40
0.0
 41
1.0
 50
0.0
 71
     0
 42
3.8805555556
  3
txt
  4

  0
STYLE
  5
A3
330
3
100
AcDbSymbolTableRecord
100
AcDbTextStyleTableRecord
  2
SLDTEXTSTYLE0
 70
     0
 40
0.0
 41
0.7
 50
0.0
 71
     0
 42
3.8805555556
  3
TXT
  4

  0
STYLE
  5
B4
330
3
100
AcDbSymbolTableRecord
100
AcDbTextStyleTableRecord
  2
SLDTEXTSTYLE1
 70
     0
 40
0.0
 41
0.75
 50
0.0
 71
     0
 42
3.8805555556
  3
TXT
  4

  0
STYLE
  5
BC
330
3
100
AcDbSymbolTableRecord
100
AcDbTextStyleTableRecord
  2
SLDTEXTSTYLE2
 70
     0
 40
0.0
 41
0.6384615385
 50
0.0
 71
     0
 42
3.8805555556
  3
TXT
  4

  0
STYLE
  5
1C4
330
3
100
AcDbSymbolTableRecord
100
AcDbTextStyleTableRecord
  2
SLDTEXTSTYLE3
 70
     0
 40
0.0
 41
0.605
 50
0.0
 71
     0
 42
3.8805555556
  3
TXT
  4

  0
ENDTAB
  0
TABLE
  2
VIEW
  5
6
330
0
100
AcDbSymbolTable
 70
     0
  0
ENDTAB
  0
TABLE
  2
UCS
  5
7
330
0
100
AcDbSymbolTable
 70
     0
  0
ENDTAB
  0
TABLE
  2
APPID
  5
9
330
0
100
AcDbSymbolTable
 70
     1
  0
APPID
  5
12
330
9
100
AcDbSymbolTableRecord
100
AcDbRegAppTableRecord
  2
ACAD
 70
     0
  0
ENDTAB
  0
TABLE
  2
DIMSTYLE
  5
A
330
0
100
AcDbSymbolTable
 70
     5
100
AcDbDimStyleTable
  0
DIMSTYLE
105
27
330
A
100
AcDbSymbolTableRecord
100
AcDbDimStyleTableRecord
  2
ISO-25
 70
     0
 41
2.5
 42
0.625
 43
3.75
 44
1.25
 73
     0
 74
     0
 77
     1
 78
     8
140
2.5
141
2.5
143
0.0393700787
147
0.625
171
     3
172
     1
178
     0
271
     2
272
     2
274
     3
278
    44
283
     0
284
     8
340
11
  0
DIMSTYLE
105
1C5
102
{ACAD_REACTORS
330
1C3
330
1CF
330
1D9
330
1E3
330
222
102
}
330
A
100
AcDbSymbolTableRecord
100
AcDbDimStyleTableRecord
  2
SLDDIMSTYLE0
 70
     0
 41
2.5683186849
 44
0.0
 45
0.000000001
 73
     0
 74
     0
 77
     1
 78
     4
 79
     1
140
2.5683186849
147
0.6420796712
173
     1
178
     0
271
     2
272
     2
276
     2
284
    12
340
1C4
  0
DIMSTYLE
105
1EC
102
{ACAD_REACTORS
330
1EB
102
}
330
A
100
AcDbSymbolTableRecord
100
AcDbDimStyleTableRecord
  2
SLDDIMSTYLE1
 70
     0
 41
2.5683186849
 44
0.0
 45
0.000000001
 78
     4
 79
     1
140
2.5683186849
147
0.6420796712
173
     1
178
     0
271
     2
272
     2
276
     2
284
    12
340
1C4
  0
DIMSTYLE
105
1F8
102
{ACAD_REACTORS
330
1F7
330
205
330
22C
102
}
330
A
100
AcDbSymbolTableRecord
100
AcDbDimStyleTableRecord
  2
SLDDIMSTYLE2
 70
     0
 41
2.5683186849
 44
0.0
 45
0.000000001
 78
     4
 79
     1
140
2.5683186849
147
0.6420796712
172
     1
173
     1
178
     0
271
     2
272
     2
276
     2
284
    12
289
     0
340
1C4
  0
DIMSTYLE
105
213
102
{ACAD_REACTORS
330
212
102
}
330
A
100
AcDbSymbolTableRecord
100
AcDbDimStyleTableRecord
  2
SLDDIMSTYLE3
 70
     0
 41
2.5683186849
 44
0.0
 45
0.000000001
 47
0.5
 48
0.4
 71
     1
 73
     0
 74
     0
 77
     1
 78
     4
 79
     1
140
2.5683186849
147
0.6420796712
173
     1
178
     0
271
     2
272
     2
276
     2
340
1C4
  0
ENDTAB
  0
TABLE
  2
BLOCK_RECORD
  5
1
330
0
100
AcDbSymbolTable
 70
    13
  0
BLOCK_RECORD
  5
1F
330
1
100
AcDbSymbolTableRecord
100
AcDbBlockTableRecord
  2
*Model_Space
340
22
  0
BLOCK_RECORD
  5
1B
330
1
100
AcDbSymbolTableRecord
100
AcDbBlockTableRecord
  2
*Paper_Space
340
1E
  0
BLOCK_RECORD
  5
23
330
1
100
AcDbSymbolTableRecord
100
AcDbBlockTableRecord
  2
*Paper_Space0
340
26
  0
BLOCK_RECORD
  5
AE
330
1
100
AcDbSymbolTableRecord
100
AcDbBlockTableRecord
  2
SW_NOTE_0
340
0
102
{BLKREFS
331
B3
102
}
  0
BLOCK_RECORD
  5
C4
330
1
100
AcDbSymbolTableRecord
100
AcDbBlockTableRecord
  2
SW_NOTE_1
340
0
102
{BLKREFS
331
CA
102
}
  0
BLOCK_RECORD
  5
1C6
330
1
100
AcDbSymbolTableRecord
100
AcDbBlockTableRecord
  2
_D
340
0
  0
BLOCK_RECORD
  5
1D0
330
1
100
AcDbSymbolTableRecord
100
AcDbBlockTableRecord
  2
_D_1
340
0
  0
BLOCK_RECORD
  5
1DA
330
1
100
AcDbSymbolTableRecord
100
AcDbBlockTableRecord
  2
_D_2
340
0
  0
BLOCK_RECORD
  5
1E4
330
1
100
AcDbSymbolTableRecord
100
AcDbBlockTableRecord
  2
_D_3
340
0
  0
BLOCK_RECORD
  5
1ED
330
1
100
AcDbSymbolTableRecord
100
AcDbBlockTableRecord
  2
_D_4
340
0
  0
BLOCK_RECORD
  5
1F9
330
1
100
AcDbSymbolTableRecord
100
AcDbBlockTableRecord
  2
_D_5
340
0
  0
BLOCK_RECORD
  5
206
330
1
100
AcDbSymbolTableRecord
100
AcDbBlockTableRecord
  2
_D_6
340
0
  0
BLOCK_RECORD
  5
214
330
1
100
AcDbSymbolTableRecord
100
AcDbBlockTableRecord
  2
_D_7
340
0
  0
BLOCK_RECORD
  5
223
330
1
100
AcDbSymbolTableRecord
100
AcDbBlockTableRecord
  2
_D_8
340
0
  0
BLOCK_RECORD
  5
22D
330
1
100
AcDbSymbolTableRecord
100
AcDbBlockTableRecord
  2
_D_9
340
0
  0
ENDTAB
  0
ENDSEC
  0
SECTION
  2
BLOCKS
  0
BLOCK
  5
20
330
1F
100
AcDbEntity
  8
0
100
AcDbBlockBegin
  2
*Model_Space
 70
     0
 10
0.0
 20
0.0
 30
0.0
  3
*Model_Space
  1

  0
ENDBLK
  5
21
330
1F
100
AcDbEntity
  8
0
100
AcDbBlockEnd
  0
BLOCK
  5
1C
330
1B
100
AcDbEntity
 67
     1
  8
0
100
AcDbBlockBegin
  2
*Paper_Space
 70
     0
 10
0.0
 20
0.0
 30
0.0
  3
*Paper_Space
  1

  0
ENDBLK
  5
1D
330
1B
100
AcDbEntity
 67
     1
  8
0
100
AcDbBlockEnd
  0
BLOCK
  5
24
330
23
100
AcDbEntity
  8
0
100
AcDbBlockBegin
  2
*Paper_Space0
 70
     0
 10
0.0
 20
0.0
 30
0.0
  3
*Paper_Space0
  1

  0
ENDBLK
  5
25
330
23
100
AcDbEntity
  8
0
100
AcDbBlockEnd
  0
BLOCK
  5
AF
330
AE
100
AcDbEntity
  8
0
100
AcDbBlockBegin
  2
SW_NOTE_0
 70
     0
 10
0.0
 20
0.0
 30
0.0
  3
SW_NOTE_0
  1

  0
MTEXT
  5
B1
330
AE
100
AcDbEntity
  8
0
  6
Continuous
 62
     0
370
     0
100
AcDbMText
 10
8.8125
 20
1.9336016097
 30
0.0
 40
1.5
 41
0.0
 71
     2
 72
     1
  1
DIMENSIONS ARE
  7
SLDTEXTSTYLE0
 73
     1
 44
1.0
  0
MTEXT
  5
B2
330
AE
100
AcDbEntity
  8
0
  6
Continuous
 62
     0
370
     0
100
AcDbMText
 10
9.1488274261
 20
-0.5663983345
 30
0.0
 40
1.5
 41
0.0
 71
     2
 72
     1
  1
IN MILLIMETERS
  7
SLDTEXTSTYLE0
 73
     1
 44
1.0
  0
ENDBLK
  5
B0
330
AE
100
AcDbEntity
  8
0
100
AcDbBlockEnd
  0
BLOCK
  5
C5
330
C4
100
AcDbEntity
  8
0
100
AcDbBlockBegin
  2
SW_NOTE_1
 70
     0
 10
0.0
 20
0.0
 30
0.0
  3
SW_NOTE_1
  1

  0
MTEXT
  5
C7
330
C4
100
AcDbEntity
  8
0
  6
Continuous
 62
     0
370
     0
100
AcDbMText
 10
-1.9336016097
 20
0.0
 30
0.0
 40
1.5
 41
0.0
 71
     1
 72
     1
  1
THIS DRAWING IS THE PROPERTY OF LINCOLN BINNS LTD.   IT IS PRIVATE AND CONFIDENTIAL AND
  7
SLDTEXTSTYLE0
 11
-3.269436733918102E-15
 21
1.0
 31
0.0
 73
     1
 44
1.0
  0
MTEXT
  5
C8
330
C4
100
AcDbEntity
  8
0
  6
Continuous
 62
     0
370
     0
100
AcDbMText
 10
0.5663983345
 20
0.65625
 30
0.0
 40
1.5
 41
0.0
 71
     1
 72
     1
  1
IS SUPPLIED ON THE EXPRESS CONDITION THAT IT IS NOT USED FOR ANY PURPOSE OR COPIED OR
  7
SLDTEXTSTYLE0
 11
-3.269436733918102E-15
 21
1.0
 31
0.0
 73
     1
 44
1.0
  0
MTEXT
  5
C9
330
C4
100
AcDbEntity
  8
0
  6
Continuous
 62
     0
370
     0
100
AcDbMText
 10
3.0663982786
 20
0.65625
 30
0.0
 40
1.5
 41
0.0
 71
     1
 72
     1
  1
COMMUNICATED TO ANY OTHER PARTY WITHOUT THE WRITTEN CONSENT OF LINCOLN BINNS LTD.
  7
SLDTEXTSTYLE0
 11
-3.269436733918102E-15
 21
1.0
 31
0.0
 73
     1
 44
1.0
  0
ENDBLK
  5
C6
330
C4
100
AcDbEntity
  8
0
100
AcDbBlockEnd
  0
BLOCK
  5
1C7
330
1C6
100
AcDbEntity
  8
0
100
AcDbBlockBegin
  2
_D
 70
     0
 10
0.0
 20
0.0
 30
0.0
  3
_D
  1

  0
SOLID
  5
1C9
330
1C6
100
AcDbEntity
  8
0
  6
Continuous
 62
     7
370
    18
100
AcDbTrace
 10
102.0125
 20
150.8657592666
 30
0.0
 11
104.5808186849
 21
150.4706333151
 31
0.0
 12
104.5808186849
 22
151.2608852181
 32
0.0
 13
104.5808186849
 23
151.2608852181
 33
0.0
  0
SOLID
  5
1CA
330
1C6
100
AcDbEntity
  8
0
  6
Continuous
 62
     7
370
    18
100
AcDbTrace
 10
165.5125
 20
150.8657592666
 30
0.0
 11
162.9441813151
 21
151.2608852182
 31
0.0
 12
162.9441813151
 22
150.4706333151
 32
0.0
 13
162.9441813151
 23
150.4706333151
 33
0.0
  0
LINE
  5
1CB
330
1C6
100
AcDbEntity
  8
0
  6
Continuous
 62
     7
370
    18
100
AcDbLine
 10
102.0125
 20
134.5757359313
 30
0.0
 11
102.0125
 21
151.8657592666
 31
0.0
  0
LINE
  5
1CC
330
1C6
100
AcDbEntity
  8
0
  6
Continuous
 62
     7
370
    18
100
AcDbLine
 10
165.5125
 20
134.5757359313
 30
0.0
 11
165.5125
 21
151.8657592666
 31
0.0
  0
LINE
  5
1CD
330
1C6
100
AcDbEntity
  8
0
  6
Continuous
 62
     7
370
    18
100
AcDbLine
 10
102.0125
 20
150.8657592666
 30
0.0
 11
165.5125
 21
150.8657592666
 31
0.0
  0
MTEXT
  5
1CE
330
1C6
100
AcDbEntity
  8
0
  6
Continuous
 62
     7
370
    18
100
AcDbMText
 10
130.7572786378
 20
154.2764178361
 30
0.0
 40
2.6458333333
 41
0.0
 71
     1
 72
     1
  1
63.50
  7
SLDTEXTSTYLE3
 73
     1
 44
1.0
  0
ENDBLK
  5
1C8
330
1C6
100
AcDbEntity
  8
0
100
AcDbBlockEnd
  0
BLOCK
  5
1D1
330
1D0
100
AcDbEntity
  8
0
100
AcDbBlockBegin
  2
_D_1
 70
     0
 10
0.0
 20
0.0
 30
0.0
  3
_D_1
  1

  0
SOLID
  5
1D3
330
1D0
100
AcDbEntity
  8
0
  6
Continuous
 62
     7
370
    18
100
AcDbTrace
 10
108.0125
 20
143.559306309
 30
0.0
 11
110.5808186849
 21
143.1641803574
 31
0.0
 12
110.5808186849
 22
143.9544322605
 32
0.0
 13
110.5808186849
 23
143.9544322605
 33
0.0
  0
SOLID
  5
1D4
330
1D0
100
AcDbEntity
  8
0
  6
Continuous
 62
     7
370
    18
100
AcDbTrace
 10
159.5125
 20
143.559306309
 30
0.0
 11
156.9441813151
 21
143.9544322605
 31
0.0
 12
156.9441813151
 22
143.1641803574
 32
0.0
 13
156.9441813151
 23
143.1641803574
 33
0.0
  0
LINE
  5
1D5
330
1D0
100
AcDbEntity
  8
0
  6
Continuous
 62
     7
370
    18
100
AcDbLine
 10
108.0125
 20
134.825
 30
0.0
 11
108.0125
 21
144.559306309
 31
0.0
  0
LINE
  5
1D6
330
1D0
100
AcDbEntity
  8
0
  6
Continuous
 62
     7
370
    18
100
AcDbLine
 10
159.5125
 20
134.825
 30
0.0
 11
159.5125
 21
144.559306309
 31
0.0
  0
LINE
  5
1D7
330
1D0
100
AcDbEntity
  8
0
  6
Continuous
 62
     7
370
    18
100
AcDbLine
 10
108.0125
 20
143.559306309
 30
0.0
 11
159.5125
 21
143.559306309
 31
0.0
  0
MTEXT
  5
1D8
330
1D0
100
AcDbEntity
  8
0
  6
Continuous
 62
     7
370
    18
100
AcDbMText
 10
130.7572786378
 20
146.9699648784
 30
0.0
 40
2.6458333333
 41
0.0
 71
     1
 72
     1
  1
51.50
  7
SLDTEXTSTYLE3
 73
     1
 44
1.0
  0
ENDBLK
  5
1D2
330
1D0
100
AcDbEntity
  8
0
100
AcDbBlockEnd
  0
BLOCK
  5
1DB
330
1DA
100
AcDbEntity
  8
0
100
AcDbBlockBegin
  2
_D_2
 70
     0
 10
0.0
 20
0.0
 30
0.0
  3
_D_2
  1

  0
SOLID
  5
1DD
330
1DA
100
AcDbEntity
  8
0
  6
Continuous
 62
     7
370
    18
100
AcDbTrace
 10
92.0125
 20
137.325
 30
0.0
 11
91.6173740485
 21
134.7566813151
 31
0.0
 12
92.4076259515
 22
134.7566813151
 32
0.0
 13
92.4076259515
 23
134.7566813151
 33
0.0
  0
SOLID
  5
1DE
330
1DA
100
AcDbEntity
  8
0
  6
Continuous
 62
     7
370
    18
100
AcDbTrace
 10
92.0125
 20
107.325
 30
0.0
 11
92.4076259515
 21
109.8933186849
 31
0.0
 12
91.6173740485
 22
109.8933186849
 32
0.0
 13
91.6173740485
 23
109.8933186849
 33
0.0
  0
LINE
  5
1DF
330
1DA
100
AcDbEntity
  8
0
  6
Continuous
 62
     7
370
    18
100
AcDbLine
 10
104.0125
 20
137.325
 30
0.0
 11
91.0125
 21
137.325
 31
0.0
  0
LINE
  5
1E0
330
1DA
100
AcDbEntity
  8
0
  6
Continuous
 62
     7
370
    18
100
AcDbLine
 10
109.4867640687
 20
107.325
 30
0.0
 11
91.0125
 21
107.325
 31
0.0
  0
LINE
  5
1E1
330
1DA
100
AcDbEntity
  8
0
  6
Continuous
 62
     7
370
    18
100
AcDbLine
 10
92.0125
 20
137.325
 30
0.0
 11
92.0125
 21
107.325
 31
0.0
  0
MTEXT
  5
1E2
330
1DA
100
AcDbEntity
  8
0
  6
Continuous
 62
     7
370
    18
100
AcDbMText
 10
88.6018414306
 20
119.5592081251
 30
0.0
 40
2.6458333333
 41
0.0
 71
     1
 72
     1
  1
30.00
  7
SLDTEXTSTYLE3
 11
-7.044195017643634E-15
 21
1.0
 31
0.0
 73
     1
 44
1.0
  0
ENDBLK
  5
1DC
330
1DA
100
AcDbEntity
  8
0
100
AcDbBlockEnd
  0
BLOCK
  5
1E5
330
1E4
100
AcDbEntity
  8
0
100
AcDbBlockBegin
  2
_D_3
 70
     0
 10
0.0
 20
0.0
 30
0.0
  3
_D_3
  1

  0
SOLID
  5
1E7
330
1E4
100
AcDbEntity
  8
0
  6
Continuous
 62
     7
370
    18
100
AcDbTrace
 10
137.1024054524
 20
135.325
 30
0.0
 11
136.7072795009
 21
132.7566813151
 31
0.0
 12
137.4975314039
 22
132.7566813151
 32
0.0
 13
137.4975314039
 23
132.7566813151
 33
0.0
  0
SOLID
  5
1E8
330
1E4
100
AcDbEntity
  8
0
  6
Continuous
 62
     7
370
    18
100
AcDbTrace
 10
137.1024054524
 20
109.025
 30
0.0
 11
137.4975314039
 21
111.5933186849
 31
0.0
 12
136.7072795009
 22
111.5933186849
 32
0.0
 13
136.7072795009
 23
111.5933186849
 33
0.0
  0
LINE
  5
1E9
330
1E4
100
AcDbEntity
  8
0
  6
Continuous
 62
     7
370
    18
100
AcDbLine
 10
137.1024054524
 20
135.325
 30
0.0
 11
137.1024054524
 21
109.025
 31
0.0
  0
MTEXT
  5
1EA
330
1E4
100
AcDbEntity
  8
0
  6
Continuous
 62
     7
370
    18
100
AcDbMText
 10
133.691746883
 20
117.540253566
 30
0.0
 40
2.6458333333
 41
0.0
 71
     1
 72
     1
  1
26.30
  7
SLDTEXTSTYLE3
 11
-7.044195017643634E-15
 21
1.0
 31
0.0
 73
     1
 44
1.0
  0
ENDBLK
  5
1E6
330
1E4
100
AcDbEntity
  8
0
100
AcDbBlockEnd
  0
BLOCK
  5
1EE
330
1ED
100
AcDbEntity
  8
0
100
AcDbBlockBegin
  2
_D_4
 70
     0
 10
0.0
 20
0.0
 30
0.0
  3
_D_4
  1

  0
SOLID
  5
1F0
330
1ED
100
AcDbEntity
  8
0
  6
Continuous
 62
     7
370
    18
100
AcDbTrace
 10
118.0709288796
 20
115.125
 30
0.0
 11
117.675802928
 21
112.5566813151
 31
0.0
 12
118.4660548311
 22
112.5566813151
 32
0.0
 13
118.4660548311
 23
112.5566813151
 33
0.0
  0
SOLID
  5
1F1
330
1ED
100
AcDbEntity
  8
0
  6
Continuous
 62
     7
370
    18
100
AcDbTrace
 10
118.0709288796
 20
109.025
 30
0.0
 11
118.4660548311
 21
111.5933186849
 31
0.0
 12
117.675802928
 22
111.5933186849
 32
0.0
 13
117.675802928
 23
111.5933186849
 33
0.0
  0
LINE
  5
1F2
330
1ED
100
AcDbEntity
  8
0
  6
Continuous
 62
     7
370
    18
100
AcDbLine
 10
108.7125
 20
115.125
 30
0.0
 11
119.0709288796
 21
115.125
 31
0.0
  0
LINE
  5
1F3
330
1ED
100
AcDbEntity
  8
0
  6
Continuous
 62
     7
370
    18
100
AcDbLine
 10
124.9304972929
 20
116.7931008307
 30
0.0
 11
118.0709288796
 21
116.7931008307
 31
0.0
  0
LINE
  5
1F4
330
1ED
100
AcDbEntity
  8
0
  6
Continuous
 62
     7
370
    18
100
AcDbLine
 10
118.0709288796
 20
116.7931008307
 30
0.0
 11
118.0709288796
 21
115.125
 31
0.0
  0
LINE
  5
1F5
330
1ED
100
AcDbEntity
  8
0
  6
Continuous
 62
     7
370
    18
100
AcDbLine
 10
118.0709288796
 20
115.125
 30
0.0
 11
118.0709288796
 21
109.025
 31
0.0
  0
MTEXT
  5
1F6
330
1ED
100
AcDbEntity
  8
0
  6
Continuous
 62
     7
370
    18
100
AcDbMText
 10
118.0709288796
 20
120.2037594002
 30
0.0
 40
2.6458333333
 41
0.0
 71
     1
 72
     1
  1
6.10
  7
SLDTEXTSTYLE3
 73
     1
 44
1.0
  0
ENDBLK
  5
1EF
330
1ED
100
AcDbEntity
  8
0
100
AcDbBlockEnd
  0
BLOCK
  5
1FA
330
1F9
100
AcDbEntity
  8
0
100
AcDbBlockBegin
  2
_D_5
 70
     0
 10
0.0
 20
0.0
 30
0.0
  3
_D_5
  1

  0
SOLID
  5
1FC
330
1F9
100
AcDbEntity
  8
0
  6
Continuous
 62
     7
370
    18
100
AcDbTrace
 10
113.5272425648
 20
115.125
 30
0.0
 11
113.1321166133
 21
112.5566813151
 31
0.0
 12
113.9223685163
 22
112.5566813151
 32
0.0
 13
113.9223685163
 23
112.5566813151
 33
0.0
  0
SOLID
  5
1FD
330
1F9
100
AcDbEntity
  8
0
  6
Continuous
 62
     7
370
    18
100
AcDbTrace
 10
113.5272425648
 20
117.125
 30
0.0
 11
113.9223685163
 21
119.6933186849
 31
0.0
 12
113.1321166133
 22
119.6933186849
 32
0.0
 13
113.1321166133
 23
119.6933186849
 33
0.0
  0
LINE
  5
1FE
330
1F9
100
AcDbEntity
  8
0
  6
Continuous
 62
     7
370
    18
100
AcDbLine
 10
108.7125
 20
115.125
 30
0.0
 11
114.5272425648
 21
115.125
 31
0.0
  0
LINE
  5
1FF
330
1F9
100
AcDbEntity
  8
0
  6
Continuous
 62
     7
370
    18
100
AcDbLine
 10
108.7125
 20
117.125
 30
0.0
 11
114.5272425648
 21
117.125
 31
0.0
  0
LINE
  5
200
330
1F9
100
AcDbEntity
  8
0
  6
Continuous
 62
     7
370
    18
100
AcDbLine
 10
120.3868109781
 20
120.8703600528
 30
0.0
 11
113.5272425648
 21
120.8703600528
 31
0.0
  0
LINE
  5
201
330
1F9
100
AcDbEntity
  8
0
  6
Continuous
 62
     7
370
    18
100
AcDbLine
 10
113.5272425648
 20
120.8703600528
 30
0.0
 11
113.5272425648
 21
117.125
 31
0.0
  0
LINE
  5
202
330
1F9
100
AcDbEntity
  8
0
  6
Continuous
 62
     7
370
    18
100
AcDbLine
 10
113.5272425648
 20
115.125
 30
0.0
 11
113.5272425648
 21
110.185925606
 31
0.0
  0
LINE
  5
203
330
1F9
100
AcDbEntity
  8
0
  6
Continuous
 62
     7
370
    18
100
AcDbLine
 10
113.5272425648
 20
115.125
 30
0.0
 11
113.5272425648
 21
117.125
 31
0.0
  0
MTEXT
  5
204
330
1F9
100
AcDbEntity
  8
0
  6
Continuous
 62
     7
370
    18
100
AcDbMText
 10
113.5272425648
 20
124.2810186223
 30
0.0
 40
2.6458333333
 41
0.0
 71
     1
 72
     1
  1
2.00
  7
SLDTEXTSTYLE3
 73
     1
 44
1.0
  0
ENDBLK
  5
1FB
330
1F9
100
AcDbEntity
  8
0
100
AcDbBlockEnd
  0
BLOCK
  5
207
330
206
100
AcDbEntity
  8
0
100
AcDbBlockBegin
  2
_D_6
 70
     0
 10
0.0
 20
0.0
 30
0.0
  3
_D_6
  1

  0
SOLID
  5
209
330
206
100
AcDbEntity
  8
0
  6
Continuous
 62
     7
370
    18
100
AcDbTrace
 10
152.7976742853
 20
115.125
 30
0.0
 11
152.4025483338
 21
112.5566813151
 31
0.0
 12
153.1928002368
 22
112.5566813151
 32
0.0
 13
153.1928002368
 23
112.5566813151
 33
0.0
  0
SOLID
  5
20A
330
206
100
AcDbEntity
  8
0
  6
Continuous
 62
     7
370
    18
100
AcDbTrace
 10
152.7976742853
 20
118.625
 30
0.0
 11
153.1928002368
 21
121.1933186849
 31
0.0
 12
152.4025483338
 22
121.1933186849
 32
0.0
 13
152.4025483338
 23
121.1933186849
 33
0.0
  0
LINE
  5
20B
330
206
100
AcDbEntity
  8
0
  6
Continuous
 62
     7
370
    18
100
AcDbLine
 10
158.8125
 20
115.125
 30
0.0
 11
151.7976742853
 21
115.125
 31
0.0
  0
LINE
  5
20C
330
206
100
AcDbEntity
  8
0
  6
Continuous
 62
     7
370
    18
100
AcDbLine
 10
158.8125
 20
118.625
 30
0.0
 11
151.7976742853
 21
118.625
 31
0.0
  0
LINE
  5
20D
330
206
100
AcDbEntity
  8
0
  6
Continuous
 62
     7
370
    18
100
AcDbLine
 10
145.9381058719
 20
121.012238123
 30
0.0
 11
152.7976742853
 21
121.012238123
 31
0.0
  0
LINE
  5
20E
330
206
100
AcDbEntity
  8
0
  6
Continuous
 62
     7
370
    18
100
AcDbLine
 10
152.7976742853
 20
121.012238123
 30
0.0
 11
152.7976742853
 21
118.625
 31
0.0
  0
LINE
  5
20F
330
206
100
AcDbEntity
  8
0
  6
Continuous
 62
     7
370
    18
100
AcDbLine
 10
152.7976742853
 20
115.125
 30
0.0
 11
152.7976742853
 21
110.185925606
 31
0.0
  0
LINE
  5
210
330
206
100
AcDbEntity
  8
0
  6
Continuous
 62
     7
370
    18
100
AcDbLine
 10
152.7976742853
 20
115.125
 30
0.0
 11
152.7976742853
 21
118.625
 31
0.0
  0
MTEXT
  5
211
330
206
100
AcDbEntity
  8
0
  6
Continuous
 62
     7
370
    18
100
AcDbMText
 10
145.9381058719
 20
124.4228966924
 30
0.0
 40
2.6458333333
 41
0.0
 71
     1
 72
     1
  1
3.50
  7
SLDTEXTSTYLE3
 73
     1
 44
1.0
  0
ENDBLK
  5
208
330
206
100
AcDbEntity
  8
0
100
AcDbBlockEnd
  0
BLOCK
  5
215
330
214
100
AcDbEntity
  8
0
100
AcDbBlockBegin
  2
_D_7
 70
     0
 10
0.0
 20
0.0
 30
0.0
  3
_D_7
  1

  0
SOLID
  5
217
330
214
100
AcDbEntity
  8
0
  6
Continuous
 62
     7
370
    18
100
AcDbTrace
 10
106.0125
 20
99.8602461142
 30
0.0
 11
108.5808186849
 21
99.4651201627
 31
0.0
 12
108.5808186849
 22
100.2553720658
 32
0.0
 13
108.5808186849
 23
100.2553720658
 33
0.0
  0
SOLID
  5
218
330
214
100
AcDbEntity
  8
0
  6
Continuous
 62
     7
370
    18
100
AcDbTrace
 10
161.5125
 20
99.8602461142
 30
0.0
 11
158.9441813151
 21
100.2553720658
 31
0.0
 12
158.9441813151
 22
99.4651201627
 32
0.0
 13
158.9441813151
 23
99.4651201627
 33
0.0
  0
LINE
  5
219
330
214
100
AcDbEntity
  8
0
  6
Continuous
 62
     7
370
    18
100
AcDbLine
 10
106.0125
 20
114.425
 30
0.0
 11
106.0125
 21
98.8602461142
 31
0.0
  0
LINE
  5
21A
330
214
100
AcDbEntity
  8
0
  6
Continuous
 62
     7
370
    18
100
AcDbLine
 10
161.5125
 20
114.425
 30
0.0
 11
161.5125
 21
98.8602461142
 31
0.0
  0
LINE
  5
21B
330
214
100
AcDbEntity
  8
0
  6
Continuous
 62
     7
370
    18
100
AcDbLine
 10
106.0125
 20
99.8602461142
 30
0.0
 11
161.5125
 21
99.8602461142
 31
0.0
  0
MTEXT
  5
21C
330
214
100
AcDbEntity
  8
0
  6
Continuous
 62
     7
370
    18
100
AcDbMText
 10
125.2645173714
 20
103.2709044508
 30
0.0
 40
2.6458333333
 41
0.0
 71
     1
 72
     1
  1
55.50
  7
SLDTEXTSTYLE3
 73
     1
 44
1.0
  0
MTEXT
  5
21D
330
214
100
AcDbEntity
  8
0
  6
Continuous
 62
     7
370
    18
100
AcDbMText
 10
135.0761499077
 20
103.2709044508
 30
0.0
 40
2.6458333333
 41
0.0
 71
     1
 72
     1
  1

  7
SLDTEXTSTYLE3
 73
     1
 44
1.0
  0
MTEXT
  5
21E
330
214
100
AcDbEntity
  8
0
  6
Continuous
 62
     7
370
    18
100
AcDbMText
 10
135.0639009521
 20
106.798682186
 30
0.0
 40
2.6458333333
 41
0.0
 71
     1
 72
     1
  1
+
  7
SLDTEXTSTYLE3
 73
     1
 44
1.0
  0
MTEXT
  5
21F
330
214
100
AcDbEntity
  8
0
  6
Continuous
 62
     7
370
    18
100
AcDbMText
 10
135.504873169
 20
103.2709044508
 30
0.0
 40
2.6458333333
 41
0.0
 71
     1
 72
     1
  1
-
  7
SLDTEXTSTYLE3
 73
     1
 44
1.0
  0
MTEXT
  5
220
330
214
100
AcDbEntity
  8
0
  6
Continuous
 62
     7
370
    18
100
AcDbMText
 10
137.1217708707
 20
106.798682186
 30
0.0
 40
2.6458333333
 41
0.0
 71
     1
 72
     1
  1
0.50
  7
SLDTEXTSTYLE3
 73
     1
 44
1.0
  0
MTEXT
  5
221
330
214
100
AcDbEntity
  8
0
  6
Continuous
 62
     7
370
    18
100
AcDbMText
 10
137.1217708707
 20
103.2709044508
 30
0.0
 40
2.6458333333
 41
0.0
 71
     1
 72
     1
  1
0.40
  7
SLDTEXTSTYLE3
 73
     1
 44
1.0
  0
ENDBLK
  5
216
330
214
100
AcDbEntity
  8
0
100
AcDbBlockEnd
  0
BLOCK
  5
224
330
223
100
AcDbEntity
  8
0
100
AcDbBlockBegin
  2
_D_8
 70
     0
 10
0.0
 20
0.0
 30
0.0
  3
_D_8
  1

  0
SOLID
  5
226
330
223
100
AcDbEntity
  8
0
  6
Continuous
 62
     7
370
    18
100
AcDbTrace
 10
98.0375407992
 20
133.825
 30
0.0
 11
97.6424148477
 21
131.2566813151
 31
0.0
 12
98.4326667507
 22
131.2566813151
 32
0.0
 13
98.4326667507
 23
131.2566813151
 33
0.0
  0
SOLID
  5
227
330
223
100
AcDbEntity
  8
0
  6
Continuous
 62
     7
370
    18
100
AcDbTrace
 10
98.0375407992
 20
112.325
 30
0.0
 11
98.4326667507
 21
114.8933186849
 31
0.0
 12
97.6424148477
 22
114.8933186849
 32
0.0
 13
97.6424148477
 23
114.8933186849
 33
0.0
  0
LINE
  5
228
330
223
100
AcDbEntity
  8
0
  6
Continuous
 62
     7
370
    18
100
AcDbLine
 10
107.0125
 20
133.825
 30
0.0
 11
97.0375407992
 21
133.825
 31
0.0
  0
LINE
  5
229
330
223
100
AcDbEntity
  8
0
  6
Continuous
 62
     7
370
    18
100
AcDbLine
 10
107.0125
 20
112.325
 30
0.0
 11
97.0375407992
 21
112.325
 31
0.0
  0
LINE
  5
22A
330
223
100
AcDbEntity
  8
0
  6
Continuous
 62
     7
370
    18
100
AcDbLine
 10
98.0375407992
 20
133.825
 30
0.0
 11
98.0375407992
 21
112.325
 31
0.0
  0
MTEXT
  5
22B
330
223
100
AcDbEntity
  8
0
  6
Continuous
 62
     7
370
    18
100
AcDbMText
 10
94.6268822297
 20
116.4606375347
 30
0.0
 40
2.6458333333
 41
0.0
 71
     1
 72
     1
  1
21.50
  7
SLDTEXTSTYLE3
 11
1.332879952949762E-13
 21
1.0
 31
0.0
 73
     1
 44
1.0
  0
ENDBLK
  5
225
330
223
100
AcDbEntity
  8
0
100
AcDbBlockEnd
  0
BLOCK
  5
22E
330
22D
100
AcDbEntity
  8
0
100
AcDbBlockBegin
  2
_D_9
 70
     0
 10
0.0
 20
0.0
 30
0.0
  3
_D_9
  1

  0
SOLID
  5
230
330
22D
100
AcDbEntity
  8
0
  6
Continuous
 62
     7
370
    18
100
AcDbTrace
 10
169.7832161078
 20
107.325
 30
0.0
 11
169.3880901563
 21
104.7566813151
 31
0.0
 12
170.1783420593
 22
104.7566813151
 32
0.0
 13
170.1783420593
 23
104.7566813151
 33
0.0
  0
SOLID
  5
231
330
22D
100
AcDbEntity
  8
0
  6
Continuous
 62
     7
370
    18
100
AcDbTrace
 10
169.7832161078
 20
112.325
 30
0.0
 11
170.1783420593
 21
114.8933186849
 31
0.0
 12
169.3880901563
 22
114.8933186849
 32
0.0
 13
169.3880901563
 23
114.8933186849
 33
0.0
  0
LINE
  5
232
330
22D
100
AcDbEntity
  8
0
  6
Continuous
 62
     7
370
    18
100
AcDbLine
 10
158.0382359313
 20
107.325
 30
0.0
 11
170.7832161078
 21
107.325
 31
0.0
  0
LINE
  5
233
330
22D
100
AcDbEntity
  8
0
  6
Continuous
 62
     7
370
    18
100
AcDbLine
 10
160.5125
 20
112.325
 30
0.0
 11
170.7832161078
 21
112.325
 31
0.0
  0
LINE
  5
234
330
22D
100
AcDbEntity
  8
0
  6
Continuous
 62
     7
370
    18
100
AcDbLine
 10
176.6427845211
 20
116.7931008307
 30
0.0
 11
169.7832161078
 21
116.7931008307
 31
0.0
  0
LINE
  5
235
330
22D
100
AcDbEntity
  8
0
  6
Continuous
 62
     7
370
    18
100
AcDbLine
 10
169.7832161078
 20
116.7931008307
 30
0.0
 11
169.7832161078
 21
112.325
 31
0.0
  0
LINE
  5
236
330
22D
100
AcDbEntity
  8
0
  6
Continuous
 62
     7
370
    18
100
AcDbLine
 10
169.7832161078
 20
107.325
 30
0.0
 11
169.7832161078
 21
102.385925606
 31
0.0
  0
LINE
  5
237
330
22D
100
AcDbEntity
  8
0
  6
Continuous
 62
     7
370
    18
100
AcDbLine
 10
169.7832161078
 20
107.325
 30
0.0
 11
169.7832161078
 21
112.325
 31
0.0
  0
MTEXT
  5
238
330
22D
100
AcDbEntity
  8
0
  6
Continuous
 62
     7
370
    18
100
AcDbMText
 10
169.7832161078
 20
120.2037594002
 30
0.0
 40
2.6458333333
 41
0.0
 71
     1
 72
     1
  1
5.00
  7
SLDTEXTSTYLE3
 73
     1
 44
1.0
  0
ENDBLK
  5
22F
330
22D
100
AcDbEntity
  8
0
100
AcDbBlockEnd
  0
ENDSEC
  0
SECTION
  2
ENTITIES
  0
LINE
  5
74
330
1F
100
AcDbEntity
  8
0
  6
Continuous
 62
     7
370
    18
100
AcDbLine
 10
10.0
 20
26.300148608
 30
0.0
 11
292.0
 21
26.300148608
 31
0.0
  0
LINE
  5
75
330
1F
100
AcDbEntity
  8
0
  6
Continuous
 62
     7
370
    18
100
AcDbLine
 10
46.8049350139
 20
26.300148608
 30
0.0
 11
46.8049350139
 21
11.300148608
 31
0.0
  0
LINE
  5
76
330
1F
100
AcDbEntity
  8
0
  6
Continuous
 62
     7
370
    18
100
AcDbLine
 10
10.0
 20
21.300148608
 30
0.0
 11
46.8049350139
 21
21.300148608
 31
0.0
  0
LINE
  5
77
330
1F
100
AcDbEntity
  8
0
  6
Continuous
 62
     7
370
    18
100
AcDbLine
 10
28.4024675069
 20
21.300148608
 30
0.0
 11
28.4024675069
 21
11.300148608
 31
0.0
  0
LINE
  5
78
330
1F
100
AcDbEntity
  8
0
  6
Continuous
 62
     7
370
    18
100
AcDbLine
 10
130.1188568924
 20
26.300148608
 30
0.0
 11
130.1188568924
 21
11.300148608
 31
0.0
  0
LINE
  5
79
330
1F
100
AcDbEntity
  8
0
  6
Continuous
 62
     7
370
    18
100
AcDbLine
 10
177.1975732502
 20
26.300148608
 30
0.0
 11
177.1975732502
 21
5.0
 31
0.0
  0
LINE
  5
7A
330
1F
100
AcDbEntity
  8
0
  6
Continuous
 62
     7
370
    18
100
AcDbLine
 10
22.477504391
 20
26.300148608
 30
0.0
 11
22.477504391
 21
21.300148608
 31
0.0
  0
LINE
  5
7B
330
1F
100
AcDbEntity
  8
0
  6
Continuous
 62
     7
370
    18
100
AcDbLine
 10
65.3149350139
 20
26.300148608
 30
0.0
 11
65.3149350139
 21
51.585706079
 31
0.0
  0
LINE
  5
7C
330
1F
100
AcDbEntity
  8
0
  6
Continuous
 62
     7
370
    18
100
AcDbLine
 10
238.3270270949
 20
26.300148608
 30
0.0
 11
238.3270270949
 21
11.300148608
 31
0.0
  0
LINE
  5
7D
330
1F
100
AcDbEntity
  8
0
  6
Continuous
 62
     7
370
    18
100
AcDbLine
 10
32.5437303996
 20
26.300148608
 30
0.0
 11
32.5437303996
 21
21.300148608
 31
0.0
  0
LINE
  5
7E
330
1F
100
AcDbEntity
  8
0
  6
Continuous
 62
     7
370
    18
100
AcDbLine
 10
88.5131148285
 20
26.300148608
 30
0.0
 11
88.5131148285
 21
11.300148608
 31
0.0
  0
LINE
  5
7F
330
1F
100
AcDbEntity
  8
0
  6
Continuous
 62
     7
370
    18
100
AcDbLine
 10
88.51
 20
26.300148608
 30
0.0
 11
88.51
 21
51.585706079
 31
0.0
  0
LINE
  5
80
330
1F
100
AcDbEntity
  8
0
  6
Continuous
 62
     7
370
    18
100
AcDbLine
 10
10.0
 20
36.585706079
 30
0.0
 11
88.51
 21
36.585706079
 31
0.0
  0
LINE
  5
81
330
1F
100
AcDbEntity
  8
0
  6
Continuous
 62
     7
370
    18
100
AcDbLine
 10
10.0
 20
41.585706079
 30
0.0
 11
88.51
 21
41.585706079
 31
0.0
  0
LINE
  5
82
330
1F
100
AcDbEntity
  8
0
  6
Continuous
 62
     7
370
    18
100
AcDbLine
 10
10.0
 20
51.585706079
 30
0.0
 11
88.51
 21
51.585706079
 31
0.0
  0
LINE
  5
83
330
1F
100
AcDbEntity
  8
0
  6
Continuous
 62
     7
370
    18
100
AcDbLine
 10
10.0
 20
46.585706079
 30
0.0
 11
88.51
 21
46.585706079
 31
0.0
  0
LINE
  5
84
330
1F
100
AcDbEntity
  8
0
  6
CENTERX2
 62
     7
370
    18
100
AcDbLine
 10
28.8895671809
 20
195.3462120671
 30
0.0
 11
12.0605181517
 21
195.3462120671
 31
0.0
  0
LINE
  5
85
330
1F
100
AcDbEntity
  8
0
  6
CENTERX2
 62
     7
370
    18
100
AcDbLine
 10
16.4428179453
 20
191.7622756726
 30
0.0
 11
16.4428179453
 21
199.2781263281
 31
0.0
  0
LINE
  5
86
330
1F
100
AcDbEntity
  8
0
  6
Continuous
 62
     7
370
    18
100
AcDbLine
 10
10.0
 20
191.0890435765
 30
0.0
 11
30.4665213009
 21
191.0890435765
 31
0.0
  0
LINE
  5
87
330
1F
100
AcDbEntity
  8
0
  6
Continuous
 62
     7
370
    18
100
AcDbLine
 10
30.4665213009
 20
191.0890435765
 30
0.0
 11
30.4665213009
 21
200.0
 31
0.0
  0
LINE
  5
88
330
1F
100
AcDbEntity
  8
0
  6
Continuous
 62
     7
370
    18
100
AcDbLine
 10
10.0
 20
31.585706079
 30
0.0
 11
88.51
 21
31.585706079
 31
0.0
  0
LINE
  5
89
330
1F
100
AcDbEntity
  8
0
  6
Continuous
 62
     7
370
    18
100
AcDbLine
 10
245.5571122877
 20
5.0
 30
0.0
 11
245.5571122877
 21
11.300148608
 31
0.0
  0
LINE
  5
8A
330
1F
100
AcDbEntity
  8
0
  6
Continuous
 62
     7
370
    18
100
AcDbLine
 10
22.477504391
 20
26.300148608
 30
0.0
 11
22.477504391
 21
51.585706079
 31
0.0
  0
LINE
  5
8B
330
1F
100
AcDbEntity
  8
0
  6
Continuous
 62
     7
370
    18
100
AcDbLine
 10
22.1433484112
 20
196.7051814132
 30
0.0
 11
22.1433484112
 21
193.9872427209
 31
0.0
  0
LINE
  5
8C
330
1F
100
AcDbEntity
  8
0
  6
Continuous
 62
     7
370
    18
100
AcDbLine
 10
279.0
 20
5.0
 30
0.0
 11
279.0
 21
200.0
 31
0.0
  0
LINE
  5
8D
330
1F
100
AcDbEntity
  8
0
  6
Continuous
 62
     7
370
    18
100
AcDbLine
 10
22.1433484112
 20
193.9872427209
 30
0.0
 11
26.7342067471
 21
192.5896997902
 31
0.0
  0
LINE
  5
8E
330
1F
100
AcDbEntity
  8
0
  6
Continuous
 62
     7
370
    18
100
AcDbLine
 10
26.7342067471
 20
192.5896997902
 30
0.0
 11
26.7342067471
 21
198.1027243439
 31
0.0
  0
LINE
  5
8F
330
1F
100
AcDbEntity
  8
0
  6
Continuous
 62
     7
370
    18
100
AcDbLine
 10
26.7342067471
 20
198.1027243439
 30
0.0
 11
22.1433484112
 21
196.7051814132
 31
0.0
  0
LINE
  5
90
330
1F
100
AcDbEntity
  8
0
  6
Continuous
 62
     7
370
    18
100
AcDbLine
 10
292.0
 20
5.0
 30
0.0
 11
292.0
 21
77.25
 31
0.0
  0
LINE
  5
91
330
1F
100
AcDbEntity
  8
0
  6
Continuous
 62
     7
370
    18
100
AcDbLine
 10
292.0
 20
200.0
 30
0.0
 11
5.0
 21
200.0
 31
0.0
  0
LINE
  5
92
330
1F
100
AcDbEntity
  8
0
  6
Continuous
 62
     7
370
    18
100
AcDbLine
 10
292.0
 20
205.0
 30
0.0
 11
5.0
 21
205.0
 31
0.0
  0
LINE
  5
93
330
1F
100
AcDbEntity
  8
0
  6
Continuous
 62
     7
370
    18
100
AcDbLine
 10
10.0
 20
200.0
 30
0.0
 11
10.0
 21
11.300148608
 31
0.0
  0
LINE
  5
94
330
1F
100
AcDbEntity
  8
0
  6
Continuous
 62
     7
370
    18
100
AcDbLine
 10
5.0
 20
205.0
 30
0.0
 11
5.0
 21
5.0
 31
0.0
  0
LINE
  5
95
330
1F
100
AcDbEntity
  8
0
  6
Continuous
 62
     7
370
    18
100
AcDbLine
 10
10.0
 20
55.0
 30
0.0
 11
5.0
 21
55.0
 31
0.0
  0
LINE
  5
96
330
1F
100
AcDbEntity
  8
0
  6
Continuous
 62
     7
370
    18
100
AcDbLine
 10
5.0
 20
105.0
 30
0.0
 11
15.0
 21
105.0
 31
0.0
  0
LINE
  5
97
330
1F
100
AcDbEntity
  8
0
  6
Continuous
 62
     7
370
    18
100
AcDbLine
 10
5.0
 20
5.0
 30
0.0
 11
292.0
 21
5.0
 31
0.0
  0
LINE
  5
98
330
1F
100
AcDbEntity
  8
0
  6
Continuous
 62
     7
370
    18
100
AcDbLine
 10
5.0
 20
11.300148608
 30
0.0
 11
279.0
 21
11.300148608
 31
0.0
  0
LINE
  5
99
330
1F
100
AcDbEntity
  8
0
  6
Continuous
 62
     7
370
    18
100
AcDbLine
 10
219.6434213506
 20
11.300148608
 30
0.0
 11
219.6434213506
 21
5.0
 31
0.0
  0
LINE
  5
9A
330
1F
100
AcDbEntity
  8
0
  6
Continuous
 62
     7
370
    18
100
AcDbLine
 10
10.0
 20
155.0
 30
0.0
 11
5.0
 21
155.0
 31
0.0
  0
LINE
  5
9B
330
1F
100
AcDbEntity
  8
0
  6
Continuous
 62
     7
370
    18
100
AcDbLine
 10
48.5
 20
200.0
 30
0.0
 11
48.5
 21
205.0
 31
0.0
  0
LINE
  5
9C
330
1F
100
AcDbEntity
  8
0
  6
Continuous
 62
     7
370
    18
100
AcDbLine
 10
98.5
 20
205.0
 30
0.0
 11
98.5
 21
200.0
 31
0.0
  0
LINE
  5
9D
330
1F
100
AcDbEntity
  8
0
  6
Continuous
 62
     7
370
    18
100
AcDbLine
 10
148.5
 20
205.0
 30
0.0
 11
148.5
 21
195.4830340211
 31
0.0
  0
LINE
  5
9E
330
1F
100
AcDbEntity
  8
0
  6
Continuous
 62
     7
370
    18
100
AcDbLine
 10
292.0
 20
60.25
 30
0.0
 11
292.0
 21
205.0
 31
0.0
  0
LINE
  5
9F
330
1F
100
AcDbEntity
  8
0
  6
Continuous
 62
     7
370
    18
100
AcDbLine
 10
198.5
 20
205.0
 30
0.0
 11
198.5
 21
200.0
 31
0.0
  0
LINE
  5
A0
330
1F
100
AcDbEntity
  8
0
  6
Continuous
 62
     7
370
    18
100
AcDbLine
 10
248.5
 20
200.0
 30
0.0
 11
248.5
 21
205.0
 31
0.0
  0
CIRCLE
  5
A1
330
1F
100
AcDbEntity
  8
0
  6
Continuous
 62
     7
370
    18
100
AcDbCircle
 10
16.4428179453
 20
195.3462120671
 30
0.0
 40
2.756512276840278
  0
CIRCLE
  5
A2
330
1F
100
AcDbEntity
  8
0
  6
Continuous
 62
     7
370
    18
100
AcDbCircle
 10
16.4428179453
 20
195.3462120671
 30
0.0
 40
1.35896934613466
  0
MTEXT
  5
A4
330
1F
100
AcDbEntity
  8
0
  6
Continuous
 62
     7
370
     0
100
AcDbMText
 10
6.6666666667
 20
131.1680164036
 30
0.0
 40
1.8520833333
 41
0.0
 71
     1
 72
     1
  1
B
  7
SLDTEXTSTYLE0
 73
     1
 44
1.0
  0
MTEXT
  5
A5
330
1F
100
AcDbEntity
  8
0
  6
Continuous
 62
     7
370
     0
100
AcDbMText
 10
6.6666666667
 20
81.1680164036
 30
0.0
 40
1.8520833333
 41
0.0
 71
     1
 72
     1
  1
C
  7
SLDTEXTSTYLE0
 73
     1
 44
1.0
  0
MTEXT
  5
A6
330
1F
100
AcDbEntity
  8
0
  6
Continuous
 62
     7
370
     0
100
AcDbMText
 10
6.6666666667
 20
31.1680164036
 30
0.0
 40
1.8520833333
 41
0.0
 71
     1
 72
     1
  1
D
  7
SLDTEXTSTYLE0
 73
     1
 44
1.0
  0
MTEXT
  5
A7
330
1F
100
AcDbEntity
  8
0
  6
Continuous
 62
     7
370
     0
100
AcDbMText
 10
6.6666666667
 20
181.1680164036
 30
0.0
 40
1.8520833333
 41
0.0
 71
     1
 72
     1
  1
A
  7
SLDTEXTSTYLE0
 73
     1
 44
1.0
  0
MTEXT
  5
A8
330
1F
100
AcDbEntity
  8
0
  6
Continuous
 62
     7
370
     0
100
AcDbMText
 10
122.6666706667
 20
203.6680164036
 30
0.0
 40
1.8520833333
 41
0.0
 71
     1
 72
     1
  1
3
  7
SLDTEXTSTYLE0
 73
     1
 44
1.0
  0
MTEXT
  5
A9
330
1F
100
AcDbEntity
  8
0
  6
Continuous
 62
     7
370
     0
100
AcDbMText
 10
72.6666706667
 20
203.6680164036
 30
0.0
 40
1.8520833333
 41
0.0
 71
     1
 72
     1
  1
2
  7
SLDTEXTSTYLE0
 73
     1
 44
1.0
  0
MTEXT
  5
AA
330
1F
100
AcDbEntity
  8
0
  6
Continuous
 62
     7
370
     0
100
AcDbMText
 10
23.0833373333
 20
203.6680164036
 30
0.0
 40
1.8520833333
 41
0.0
 71
     1
 72
     1
  1
1
  7
SLDTEXTSTYLE0
 73
     1
 44
1.0
  0
MTEXT
  5
AB
330
1F
100
AcDbEntity
  8
0
  6
Continuous
 62
     7
370
     0
100
AcDbMText
 10
172.6666706667
 20
203.6680164036
 30
0.0
 40
1.8520833333
 41
0.0
 71
     1
 72
     1
  1
4
  7
SLDTEXTSTYLE0
 73
     1
 44
1.0
  0
MTEXT
  5
AC
330
1F
100
AcDbEntity
  8
0
  6
Continuous
 62
     7
370
     0
100
AcDbMText
 10
222.6666706667
 20
203.6680164036
 30
0.0
 40
1.8520833333
 41
0.0
 71
     1
 72
     1
  1
5
  7
SLDTEXTSTYLE0
 73
     1
 44
1.0
  0
MTEXT
  5
AD
330
1F
100
AcDbEntity
  8
0
  6
Continuous
 62
     7
370
     0
100
AcDbMText
 10
272.6666706667
 20
203.6680164036
 30
0.0
 40
1.8520833333
 41
0.0
 71
     1
 72
     1
  1
6
  7
SLDTEXTSTYLE0
 73
     1
 44
1.0
  0
INSERT
  5
B3
330
1F
100
AcDbEntity
  8
0
  6
Continuous
 62
     7
370
     0
100
AcDbBlockReference
  2
SW_NOTE_0
 10
11.9318221155
 20
187.9632347612
 30
0.0
  0
MTEXT
  5
B5
330
1F
100
AcDbEntity
  8
0
  6
Continuous
 62
     7
370
     0
100
AcDbMText
 10
90.3480203096
 20
25.678162744
 30
0.0
 40
1.5
 41
0.0
 71
     1
 72
     1
  1
FINISH:
  7
SLDTEXTSTYLE1
 73
     1
 44
1.0
  0
MTEXT
  5
B6
330
1F
100
AcDbEntity
  8
0
  6
Continuous
 62
     7
370
     0
100
AcDbMText
 10
48.0366035579
 20
25.6781628022
 30
0.0
 40
1.5
 41
0.0
 71
     1
 72
     1
  1
MATERIAL:
  7
SLDTEXTSTYLE0
 73
     1
 44
1.0
  0
MTEXT
  5
B7
330
1F
100
AcDbEntity
  8
0
  6
Continuous
 62
     7
370
     0
100
AcDbMText
 10
181.7997127063
 20
9.3492806163
 30
0.0
 40
2.1166666667
 41
0.0
 71
     1
 72
     1
  1
DO NOT SCALE DRAWING
  7
SLDTEXTSTYLE0
 73
     1
 44
1.0
  0
MTEXT
  5
B8
330
1F
100
AcDbEntity
  8
0
  6
Continuous
 62
     7
370
     0
100
AcDbMText
 10
36.3389321495
 20
29.8972119143
 30
0.0
 40
1.5
 41
0.0
 71
     1
 72
     1
  1
CHANGE
  7
SLDTEXTSTYLE0
 73
     1
 44
1.0
  0
MTEXT
  5
B9
330
1F
100
AcDbEntity
  8
0
  6
Continuous
 62
     7
370
     0
100
AcDbMText
 10
179.1691437346
 20
25.5806436871
 30
0.0
 40
1.5
 41
0.0
 71
     1
 72
     1
  1
TITLE:
  7
SLDTEXTSTYLE0
 73
     1
 44
1.0
  0
MTEXT
  5
BA
330
1F
100
AcDbEntity
  8
0
  6
Continuous
 62
     7
370
     0
100
AcDbMText
 10
239.8543876267
 20
24.7247267001
 30
0.0
 40
1.5
 41
0.0
 71
     1
 72
     1
  1
DWG NO.
  7
SLDTEXTSTYLE0
 73
     1
 44
1.0
  0
MTEXT
  5
BB
330
1F
100
AcDbEntity
  8
0
  6
Continuous
 62
     7
370
     0
100
AcDbMText
 10
225.2839928154
 20
9.3492806163
 30
0.0
 40
2.1166666667
 41
0.0
 71
     1
 72
     1
  1
SCALE:  1:1
  7
SLDTEXTSTYLE0
 73
     1
 44
1.0
  0
MTEXT
  5
BD
330
1F
100
AcDbEntity
  8
0
  6
Continuous
 62
     7
370
     0
100
AcDbMText
 10
253.890680244
 20
9.3492806163
 30
0.0
 40
2.1166666667
 41
0.0
 71
     1
 72
     1
  1
SHEET  1 OF 1
  7
SLDTEXTSTYLE2
 73
     1
 44
1.0
  0
MTEXT
  5
BE
330
1F
100
AcDbEntity
  8
0
  6
Continuous
 62
     7
370
     0
100
AcDbMText
 10
281.9293394447
 20
17.796931962
 30
0.0
 40
3.7041666667
 41
0.0
 71
     1
 72
     1
  1
A4
  7
SLDTEXTSTYLE0
 73
     1
 44
1.0
  0
MTEXT
  5
BF
330
1F
100
AcDbEntity
  8
0
  6
Continuous
 62
     7
370
     0
100
AcDbMText
 10
275.2962526672
 20
106.7333107547
 30
0.0
 40
1.905
 41
0.0
 71
     2
 72
     1
  1
A
  7
SLDTEXTSTYLE0
 73
     1
 44
1.0
  0
MTEXT
  5
C0
330
1F
100
AcDbEntity
  8
0
  6
Continuous
 62
     7
370
     0
100
AcDbMText
 10
136.2733356362
 20
25.6908166679
 30
0.0
 40
1.5
 41
0.0
 71
     1
 72
     1
  1
GENERAL WORKING TOLERANCE:
  7
SLDTEXTSTYLE0
 73
     1
 44
1.0
  0
MTEXT
  5
C1
330
1F
100
AcDbEntity
  8
0
  6
Continuous
 62
     7
370
     0
100
AcDbMText
 10
11.1106971892
 20
24.3315926512
 30
0.0
 40
1.5
 41
0.0
 71
     1
 72
     1
  1
DRAWN BY
  7
SLDTEXTSTYLE0
 73
     1
 44
1.0
  0
MTEXT
  5
C2
330
1F
100
AcDbEntity
  8
0
  6
Continuous
 62
     7
370
     0
100
AcDbMText
 10
10.8188420844
 20
17.3684055599
 30
0.0
 40
1.5
 41
0.0
 71
     1
 72
     1
  1
MANUFACTURED
  7
SLDTEXTSTYLE0
 73
     1
 44
1.0
  0
MTEXT
  5
C3
330
1F
100
AcDbEntity
  8
0
  6
Continuous
 62
     7
370
     0
100
AcDbMText
 10
283.8770197001
 20
24.7247267001
 30
0.0
 40
1.5
 41
0.0
 71
     1
 72
     1
  1
SIZE
  7
SLDTEXTSTYLE0
 73
     1
 44
1.0
  0
INSERT
  5
CA
330
1F
100
AcDbEntity
  8
0
  6
Continuous
 62
     7
370
     0
100
AcDbBlockReference
  2
SW_NOTE_1
 10
284.5212250772
 20
28.605734218
 30
0.0
  0
MTEXT
  5
CB
330
1F
100
AcDbEntity
  8
0
  6
Continuous
 62
     7
370
     0
100
AcDbMText
 10
281.1044555199
 20
151.0158254935
 30
0.0
 40
4.2333333333
 41
0.0
 71
     1
 72
     1
  1
Lincoln Binns Ltd
  7
SLDTEXTSTYLE0
 11
-3.491481338843133E-15
 21
1.0
 31
0.0
 73
     1
 44
1.0
  0
MTEXT
  5
CC
330
1F
100
AcDbEntity
  8
0
  6
Continuous
 62
     7
370
     0
100
AcDbMText
 10
144.0144753135
 20
19.5043972252
 30
0.0
 40
2.6458333333
 41
0.0
 71
     1
 72
     1
  1
 0.1mm
  7
SLDTEXTSTYLE0
 73
     1
 44
1.0
  0
MTEXT
  5
CD
330
1F
100
AcDbEntity
  8
0
  6
Continuous
 62
     7
370
     0
100
AcDbMText
 10
13.8672075847
 20
29.6833906164
 30
0.0
 40
1.5
 41
0.0
 71
     1
 72
     1
  1
ISSUE
  7
SLDTEXTSTYLE0
 73
     1
 44
1.0
  0
MTEXT
  5
CE
330
1F
100
AcDbEntity
  8
0
  6
Continuous
 62
     7
370
     0
100
AcDbMText
 10
73.1831145694
 20
29.3998851821
 30
0.0
 40
1.5
 41
0.0
 71
     1
 72
     1
  1
DATE
  7
SLDTEXTSTYLE0
 73
     1
 44
1.0
  0
MTEXT
  5
CF
330
1F
100
AcDbEntity
  8
0
  6
Continuous
 62
     7
370
     0
100
AcDbMText
 10
6.2794264326
 20
9.6867295497
 30
0.0
 40
2.35
 41
0.0
 71
     1
 72
     1
  1
LINCOLN BINNS LTD. OAKENDENE INDUSTRIAL ESTATE, COWFOLD, WEST SUSSEX, RH13 8AZ, UK.
  7
SLDTEXTSTYLE0
 73
     1
 44
1.0
  0
MTEXT
  5
D0
330
1F
100
AcDbEntity
  8
0
  6
Continuous
 62
     7
370
     0
100
AcDbMText
 10
287.2723409287
 20
157.7475942565
 30
0.0
 40
2.38125
 41
0.0
 71
     1
 72
     1
  1
TEL:  01403 865486
  7
SLDTEXTSTYLE0
 11
-3.491481338843133E-15
 21
1.0
 31
0.0
 73
     1
 44
1.0
  0
LINE
  5
D1
330
1F
100
AcDbEntity
  8
0
  6
Continuous
 62
     7
370
    25
100
AcDbLine
 10
159.5125000298
 20
131.4249998599
 30
0.0
 11
159.5125000298
 21
132.4999998964
 31
0.0
  0
ARC
  5
D2
330
1F
100
AcDbEntity
  8
0
  6
Continuous
 62
     7
370
    25
100
AcDbCircle
 10
159.5125
 20
133.825
 30
0.0
 40
1.325000000000017
100
AcDbArc
 50
270.0000000006
 51
29.9999999987
  0
LINE
  5
D3
330
1F
100
AcDbEntity
  8
0
  6
Continuous
 62
     7
370
    25
100
AcDbLine
 10
160.6599844366
 20
134.4875000127
 30
0.0
 11
160.8981403828
 21
134.6250000119
 31
0.0
  0
ARC
  5
D4
330
1F
100
AcDbEntity
  8
0
  6
Continuous
 62
     7
370
    25
100
AcDbCircle
 10
159.5125
 20
133.825
 30
0.0
 40
1.600000000025688
100
AcDbArc
 50
29.9999999989
 51
89.9999999995
  0
LINE
  5
D5
330
1F
100
AcDbEntity
  8
0
  6
Continuous
 62
     7
370
    25
100
AcDbLine
 10
159.5125000298
 20
135.4250000499
 30
0.0
 11
159.5125000298
 21
135.1500000514
 31
0.0
  0
ARC
  5
D6
330
1F
100
AcDbEntity
  8
0
  6
Continuous
 62
     7
370
    25
100
AcDbCircle
 10
159.5125
 20
133.825
 30
0.0
 40
1.32499999998754
100
AcDbArc
 50
89.9999999994
 51
210.0000000006
  0
LINE
  5
D7
330
1F
100
AcDbEntity
  8
0
  6
Continuous
 62
     7
370
    25
100
AcDbLine
 10
158.365015623
 20
133.1624999352
 30
0.0
 11
158.2125003755
 21
133.0744445499
 31
0.0
  0
ARC
  5
D8
330
1F
100
AcDbEntity
  8
0
  6
Continuous
 62
     7
370
    25
100
AcDbCircle
 10
157.7125
 20
133.9404700539
 30
0.0
 40
1.000000000000008
100
AcDbArc
 50
180.0000000048
 51
300.0
  0
LINE
  5
D9
330
1F
100
AcDbEntity
  8
0
  6
Continuous
 62
     7
370
    25
100
AcDbLine
 10
156.7124991983
 20
133.9404700033
 30
0.0
 11
156.7124991983
 21
134.3250000559
 31
0.0
  0
ARC
  5
DA
330
1F
100
AcDbEntity
  8
0
  6
Continuous
 62
     7
370
    25
100
AcDbCircle
 10
155.7125
 20
134.325
 30
0.0
 40
1.0
100
AcDbArc
 50
0.0
 51
90.0
  0
LINE
  5
DB
330
1F
100
AcDbEntity
  8
0
  6
Continuous
 62
     7
370
    25
100
AcDbLine
 10
155.712500897
 20
135.324999987
 30
0.0
 11
111.8124991029
 21
135.324999987
 31
0.0
  0
ARC
  5
DC
330
1F
100
AcDbEntity
  8
0
  6
Continuous
 62
     7
370
    25
100
AcDbCircle
 10
111.8125
 20
134.325
 30
0.0
 40
1.0
100
AcDbArc
 50
90.0
 51
180.0
  0
LINE
  5
DD
330
1F
100
AcDbEntity
  8
0
  6
Continuous
 62
     7
370
    25
100
AcDbLine
 10
110.8125008017
 20
134.3250000559
 30
0.0
 11
110.8125008017
 21
133.9404700033
 31
0.0
  0
ARC
  5
DE
330
1F
100
AcDbEntity
  8
0
  6
Continuous
 62
     7
370
    25
100
AcDbCircle
 10
109.8125
 20
133.9404700539
 30
0.0
 40
1.000000000000008
100
AcDbArc
 50
240.0
 51
359.9999999952
  0
LINE
  5
DF
330
1F
100
AcDbEntity
  8
0
  6
Continuous
 62
     7
370
    25
100
AcDbLine
 10
109.3124996245
 20
133.0744445499
 30
0.0
 11
109.159984377
 21
133.1624999352
 31
0.0
  0
ARC
  5
E0
330
1F
100
AcDbEntity
  8
0
  6
Continuous
 62
     7
370
    25
100
AcDbCircle
 10
108.0125
 20
133.825
 30
0.0
 40
1.324999999987546
100
AcDbArc
 50
329.9999999994
 51
90.0000000006
  0
LINE
  5
E1
330
1F
100
AcDbEntity
  8
0
  6
Continuous
 62
     7
370
    25
100
AcDbLine
 10
108.0124999702
 20
135.1500000514
 30
0.0
 11
108.0124999702
 21
135.4250000499
 31
0.0
  0
ARC
  5
E2
330
1F
100
AcDbEntity
  8
0
  6
Continuous
 62
     7
370
    25
100
AcDbCircle
 10
108.0125
 20
133.825
 30
0.0
 40
1.600000000025688
100
AcDbArc
 50
90.0000000005
 51
150.0000000011
  0
LINE
  5
E3
330
1F
100
AcDbEntity
  8
0
  6
Continuous
 62
     7
370
    25
100
AcDbLine
 10
106.6268596172
 20
134.6250000119
 30
0.0
 11
106.8650155634
 21
134.4875000127
 31
0.0
  0
ARC
  5
E4
330
1F
100
AcDbEntity
  8
0
  6
Continuous
 62
     7
370
    25
100
AcDbCircle
 10
108.0125
 20
133.825
 30
0.0
 40
1.325000000000017
100
AcDbArc
 50
150.0000000013
 51
269.9999999994
  0
LINE
  5
E5
330
1F
100
AcDbEntity
  8
0
  6
Continuous
 62
     7
370
    25
100
AcDbLine
 10
108.0124999702
 20
132.4999998964
 30
0.0
 11
108.0124999702
 21
131.4249998599
 31
0.0
  0
ARC
  5
E6
330
1F
100
AcDbEntity
  8
0
  6
Continuous
 62
     7
370
    25
100
AcDbCircle
 10
107.7125
 20
131.425
 30
0.0
 40
0.2999999999999972
100
AcDbArc
 50
270.0
 51
0.0
  0
LINE
  5
E7
330
1F
100
AcDbEntity
  8
0
  6
Continuous
 62
     7
370
    25
100
AcDbLine
 10
107.7125004798
 20
131.1249999039
 30
0.0
 11
106.3124991328
 21
131.1249999039
 31
0.0
  0
ARC
  5
E8
330
1F
100
AcDbEntity
  8
0
  6
Continuous
 62
     7
370
    25
100
AcDbCircle
 10
106.3125
 20
130.825
 30
0.0
 40
0.3000000000000398
100
AcDbArc
 50
90.0
 51
180.0
  0
LINE
  5
E9
330
1F
100
AcDbEntity
  8
0
  6
Continuous
 62
     7
370
    25
100
AcDbLine
 10
106.0124996424
 20
130.8249999479
 30
0.0
 11
106.0124996424
 21
129.4249999978
 31
0.0
  0
ARC
  5
EA
330
1F
100
AcDbEntity
  8
0
  6
Continuous
 62
     7
370
    25
100
AcDbCircle
 10
106.3125
 20
129.425
 30
0.0
 40
0.2999999999999972
100
AcDbArc
 50
180.0
 51
270.0
  0
LINE
  5
EB
330
1F
100
AcDbEntity
  8
0
  6
Continuous
 62
     7
370
    25
100
AcDbLine
 10
106.3124991328
 20
129.1250000417
 30
0.0
 11
107.7125004798
 21
129.1250000417
 31
0.0
  0
ARC
  5
EC
330
1F
100
AcDbEntity
  8
0
  6
Continuous
 62
     7
370
    25
100
AcDbCircle
 10
107.7125
 20
128.825
 30
0.0
 40
0.3000000000000114
100
AcDbArc
 50
0.0
 51
90.0
  0
LINE
  5
ED
330
1F
100
AcDbEntity
  8
0
  6
Continuous
 62
     7
370
    25
100
AcDbLine
 10
108.0124999702
 20
128.82499962
 30
0.0
 11
108.0124999702
 21
127.9250002176
 31
0.0
  0
ARC
  5
EE
330
1F
100
AcDbEntity
  8
0
  6
Continuous
 62
     7
370
    25
100
AcDbCircle
 10
107.7125
 20
127.925
 30
0.0
 40
0.2999999999999972
100
AcDbArc
 50
270.0
 51
0.0
  0
LINE
  5
EF
330
1F
100
AcDbEntity
  8
0
  6
Continuous
 62
     7
370
    25
100
AcDbLine
 10
107.7125004798
 20
127.6249997959
 30
0.0
 11
106.3124991328
 21
127.6249997959
 31
0.0
  0
ARC
  5
F0
330
1F
100
AcDbEntity
  8
0
  6
Continuous
 62
     7
370
    25
100
AcDbCircle
 10
106.3125
 20
127.325
 30
0.0
 40
0.3000000000000256
100
AcDbArc
 50
90.0
 51
180.0
  0
LINE
  5
F1
330
1F
100
AcDbEntity
  8
0
  6
Continuous
 62
     7
370
    25
100
AcDbLine
 10
106.0124996424
 20
127.3250003055
 30
0.0
 11
106.0124996424
 21
125.9249998897
 31
0.0
  0
ARC
  5
F2
330
1F
100
AcDbEntity
  8
0
  6
Continuous
 62
     7
370
    25
100
AcDbCircle
 10
106.3125
 20
125.925
 30
0.0
 40
0.2999999999999972
100
AcDbArc
 50
180.0
 51
270.0
  0
LINE
  5
F3
330
1F
100
AcDbEntity
  8
0
  6
Continuous
 62
     7
370
    25
100
AcDbLine
 10
106.3124991328
 20
125.6250003994
 30
0.0
 11
107.7125004798
 21
125.6250003994
 31
0.0
  0
ARC
  5
F4
330
1F
100
AcDbEntity
  8
0
  6
Continuous
 62
     7
370
    25
100
AcDbCircle
 10
107.7125
 20
125.325
 30
0.0
 40
0.2999999999999972
100
AcDbArc
 50
0.0
 51
90.0
  0
LINE
  5
F5
330
1F
100
AcDbEntity
  8
0
  6
Continuous
 62
     7
370
    25
100
AcDbLine
 10
108.0124999702
 20
125.3249999777
 30
0.0
 11
108.0124999702
 21
124.4249996439
 31
0.0
  0
ARC
  5
F6
330
1F
100
AcDbEntity
  8
0
  6
Continuous
 62
     7
370
    25
100
AcDbCircle
 10
107.7125
 20
124.425
 30
0.0
 40
0.2999999999999972
100
AcDbArc
 50
270.0
 51
0.0
  0
LINE
  5
F7
330
1F
100
AcDbEntity
  8
0
  6
Continuous
 62
     7
370
    25
100
AcDbLine
 10
107.7125004798
 20
124.1250001535
 30
0.0
 11
106.3124991328
 21
124.1250001535
 31
0.0
  0
ARC
  5
F8
330
1F
100
AcDbEntity
  8
0
  6
Continuous
 62
     7
370
    25
100
AcDbCircle
 10
106.3125
 20
123.825
 30
0.0
 40
0.3000000000000114
100
AcDbArc
 50
90.0
 51
180.0
  0
LINE
  5
F9
330
1F
100
AcDbEntity
  8
0
  6
Continuous
 62
     7
370
    25
100
AcDbLine
 10
106.0124996424
 20
123.8249997318
 30
0.0
 11
106.0124996424
 21
122.4250002474
 31
0.0
  0
ARC
  5
FA
330
1F
100
AcDbEntity
  8
0
  6
Continuous
 62
     7
370
    25
100
AcDbCircle
 10
106.3125
 20
122.425
 30
0.0
 40
0.3000000000000114
100
AcDbArc
 50
180.0
 51
270.0
  0
LINE
  5
FB
330
1F
100
AcDbEntity
  8
0
  6
Continuous
 62
     7
370
    25
100
AcDbLine
 10
106.3124991328
 20
122.1249998257
 30
0.0
 11
107.7125004798
 21
122.1249998257
 31
0.0
  0
ARC
  5
FC
330
1F
100
AcDbEntity
  8
0
  6
Continuous
 62
     7
370
    25
100
AcDbCircle
 10
107.7125
 20
121.825
 30
0.0
 40
0.3000000000000114
100
AcDbArc
 50
0.0
 51
90.0
  0
LINE
  5
FD
330
1F
100
AcDbEntity
  8
0
  6
Continuous
 62
     7
370
    25
100
AcDbLine
 10
108.0124999702
 20
121.8250003353
 30
0.0
 11
108.0124999702
 21
120.9249990702
 31
0.0
  0
ARC
  5
FE
330
1F
100
AcDbEntity
  8
0
  6
Continuous
 62
     7
370
    25
100
AcDbCircle
 10
107.7125
 20
120.925
 30
0.0
 40
0.2999999999999829
100
AcDbArc
 50
270.0
 51
0.0
  0
LINE
  5
FF
330
1F
100
AcDbEntity
  8
0
  6
Continuous
 62
     7
370
    25
100
AcDbLine
 10
107.7125004798
 20
120.6249995798
 30
0.0
 11
106.3124991328
 21
120.6249995798
 31
0.0
  0
ARC
  5
100
330
1F
100
AcDbEntity
  8
0
  6
Continuous
 62
     7
370
    25
100
AcDbCircle
 10
106.3125
 20
120.325
 30
0.0
 40
0.3000000000000114
100
AcDbArc
 50
90.0
 51
180.0
  0
LINE
  5
101
330
1F
100
AcDbEntity
  8
0
  6
Continuous
 62
     7
370
    25
100
AcDbLine
 10
106.0124996424
 20
120.3250000894
 30
0.0
 11
106.0124996424
 21
118.925000605
 31
0.0
  0
ARC
  5
102
330
1F
100
AcDbEntity
  8
0
  6
Continuous
 62
     7
370
    25
100
AcDbCircle
 10
106.3125
 20
118.925
 30
0.0
 40
0.2999999999999972
100
AcDbArc
 50
180.0
 51
270.0
  0
LINE
  5
103
330
1F
100
AcDbEntity
  8
0
  6
Continuous
 62
     7
370
    25
100
AcDbLine
 10
106.3124991328
 20
118.624999252
 30
0.0
 11
107.7125004798
 21
118.624999252
 31
0.0
  0
ARC
  5
104
330
1F
100
AcDbEntity
  8
0
  6
Continuous
 62
     7
370
    25
100
AcDbCircle
 10
107.7125
 20
118.325
 30
0.0
 40
0.3000000000000114
100
AcDbArc
 50
0.0
 51
90.0
  0
LINE
  5
105
330
1F
100
AcDbEntity
  8
0
  6
Continuous
 62
     7
370
    25
100
AcDbLine
 10
108.0124999702
 20
118.3249997616
 30
0.0
 11
108.0124999702
 21
117.4249994278
 31
0.0
  0
ARC
  5
106
330
1F
100
AcDbEntity
  8
0
  6
Continuous
 62
     7
370
    25
100
AcDbCircle
 10
107.7125
 20
117.425
 30
0.0
 40
0.2999999999999972
100
AcDbArc
 50
270.0
 51
0.0
  0
LINE
  5
107
330
1F
100
AcDbEntity
  8
0
  6
Continuous
 62
     7
370
    25
100
AcDbLine
 10
107.7125004798
 20
117.1249999374
 30
0.0
 11
106.3124991328
 21
117.1249999374
 31
0.0
  0
ARC
  5
108
330
1F
100
AcDbEntity
  8
0
  6
Continuous
 62
     7
370
    25
100
AcDbCircle
 10
106.3125
 20
116.825
 30
0.0
 40
0.2999999999999972
100
AcDbArc
 50
90.0
 51
180.0
  0
LINE
  5
109
330
1F
100
AcDbEntity
  8
0
  6
Continuous
 62
     7
370
    25
100
AcDbLine
 10
106.0124996424
 20
116.825000447
 30
0.0
 11
106.0124996424
 21
115.4249991
 31
0.0
  0
ARC
  5
10A
330
1F
100
AcDbEntity
  8
0
  6
Continuous
 62
     7
370
    25
100
AcDbCircle
 10
106.3125
 20
115.425
 30
0.0
 40
0.3000000000000114
100
AcDbArc
 50
180.0
 51
270.0
  0
LINE
  5
10B
330
1F
100
AcDbEntity
  8
0
  6
Continuous
 62
     7
370
    25
100
AcDbLine
 10
106.3124991328
 20
115.1249996096
 30
0.0
 11
107.7125004798
 21
115.1249996096
 31
0.0
  0
ARC
  5
10C
330
1F
100
AcDbEntity
  8
0
  6
Continuous
 62
     7
370
    25
100
AcDbCircle
 10
107.7125
 20
114.825
 30
0.0
 40
0.3000000000000114
100
AcDbArc
 50
0.0
 51
90.0
  0
ARC
  5
10D
330
1F
100
AcDbEntity
  8
0
  6
Continuous
 62
     7
370
    25
100
AcDbCircle
 10
108.0125
 20
112.325
 30
0.0
 40
1.324999999987545
100
AcDbArc
 50
90.0000000005
 51
209.9999999993
  0
LINE
  5
10E
330
1F
100
AcDbEntity
  8
0
  6
Continuous
 62
     7
370
    25
100
AcDbLine
 10
106.8650155634
 20
111.662500602
 30
0.0
 11
106.6268596172
 21
111.5250001371
 31
0.0
  0
ARC
  5
10F
330
1F
100
AcDbEntity
  8
0
  6
Continuous
 62
     7
370
    25
100
AcDbCircle
 10
108.0125
 20
112.325
 30
0.0
 40
1.600000000013225
100
AcDbArc
 50
209.9999999995
 51
270.0000000005
  0
LINE
  5
110
330
1F
100
AcDbEntity
  8
0
  6
Continuous
 62
     7
370
    25
100
AcDbLine
 10
108.0124999702
 20
110.7249996334
 30
0.0
 11
108.0124999702
 21
111.0000005633
 31
0.0
  0
ARC
  5
111
330
1F
100
AcDbEntity
  8
0
  6
Continuous
 62
     7
370
    25
100
AcDbCircle
 10
108.0125
 20
112.325
 30
0.0
 40
1.325000000000017
100
AcDbArc
 50
270.0000000006
 51
30.0
  0
LINE
  5
112
330
1F
100
AcDbEntity
  8
0
  6
Continuous
 62
     7
370
    25
100
AcDbLine
 10
109.159984377
 20
112.9875006795
 30
0.0
 11
109.3124996245
 21
113.0755553663
 31
0.0
  0
ARC
  5
113
330
1F
100
AcDbEntity
  8
0
  6
Continuous
 62
     7
370
    25
100
AcDbCircle
 10
109.8125
 20
112.2095299461
 30
0.0
 40
1.000000000000015
100
AcDbArc
 50
0.0
 51
120.0
  0
LINE
  5
114
330
1F
100
AcDbEntity
  8
0
  6
Continuous
 62
     7
370
    25
100
AcDbLine
 10
110.8125008017
 20
112.20952968
 30
0.0
 11
110.8125008017
 21
110.0250008226
 31
0.0
  0
ARC
  5
115
330
1F
100
AcDbEntity
  8
0
  6
Continuous
 62
     7
370
    25
100
AcDbCircle
 10
111.8125
 20
110.025
 30
0.0
 40
1.000000000000014
100
AcDbArc
 50
180.0
 51
270.0
  0
LINE
  5
116
330
1F
100
AcDbEntity
  8
0
  6
Continuous
 62
     7
370
    25
100
AcDbLine
 10
111.8124991029
 20
109.0250006586
 30
0.0
 11
155.712500897
 21
109.0250006586
 31
0.0
  0
ARC
  5
117
330
1F
100
AcDbEntity
  8
0
  6
Continuous
 62
     7
370
    25
100
AcDbCircle
 10
155.7125
 20
110.025
 30
0.0
 40
1.0
100
AcDbArc
 50
270.0
 51
0.0
  0
LINE
  5
118
330
1F
100
AcDbEntity
  8
0
  6
Continuous
 62
     7
370
    25
100
AcDbLine
 10
156.7124991983
 20
110.0250008226
 30
0.0
 11
156.7124991983
 21
112.20952968
 31
0.0
  0
ARC
  5
119
330
1F
100
AcDbEntity
  8
0
  6
Continuous
 62
     7
370
    25
100
AcDbCircle
 10
157.7125
 20
112.2095299461
 30
0.0
 40
1.000000000000028
100
AcDbArc
 50
60.0
 51
180.0
  0
LINE
  5
11A
330
1F
100
AcDbEntity
  8
0
  6
Continuous
 62
     7
370
    25
100
AcDbLine
 10
158.2125003755
 20
113.0755553663
 30
0.0
 11
158.365015623
 21
112.9875006795
 31
0.0
  0
ARC
  5
11B
330
1F
100
AcDbEntity
  8
0
  6
Continuous
 62
     7
370
    25
100
AcDbCircle
 10
159.5125
 20
112.325
 30
0.0
 40
1.325000000000017
100
AcDbArc
 50
150.0
 51
269.9999999994
  0
LINE
  5
11C
330
1F
100
AcDbEntity
  8
0
  6
Continuous
 62
     7
370
    25
100
AcDbLine
 10
159.5125000298
 20
111.0000005633
 30
0.0
 11
159.5125000298
 21
110.7249996334
 31
0.0
  0
ARC
  5
11D
330
1F
100
AcDbEntity
  8
0
  6
Continuous
 62
     7
370
    25
100
AcDbCircle
 10
159.5125
 20
112.325
 30
0.0
 40
1.600000000013236
100
AcDbArc
 50
269.9999999995
 51
330.0000000005
  0
LINE
  5
11E
330
1F
100
AcDbEntity
  8
0
  6
Continuous
 62
     7
370
    25
100
AcDbLine
 10
160.8981403828
 20
111.5250001371
 30
0.0
 11
160.6599844366
 21
111.662500602
 31
0.0
  0
ARC
  5
11F
330
1F
100
AcDbEntity
  8
0
  6
Continuous
 62
     7
370
    25
100
AcDbCircle
 10
159.5125
 20
112.325
 30
0.0
 40
1.324999999987582
100
AcDbArc
 50
330.0000000007
 51
89.9999999995
  0
LINE
  5
120
330
1F
100
AcDbEntity
  8
0
  6
Continuous
 62
     7
370
    25
100
AcDbLine
 10
159.5125000298
 20
113.6500007182
 30
0.0
 11
159.5125000298
 21
114.8250001192
 31
0.0
  0
ARC
  5
121
330
1F
100
AcDbEntity
  8
0
  6
Continuous
 62
     7
370
    25
100
AcDbCircle
 10
159.8125
 20
114.825
 30
0.0
 40
0.3000000000000114
100
AcDbArc
 50
90.0
 51
180.0
  0
LINE
  5
122
330
1F
100
AcDbEntity
  8
0
  6
Continuous
 62
     7
370
    25
100
AcDbLine
 10
159.8124995202
 20
115.1249996096
 30
0.0
 11
161.2125008672
 21
115.1249996096
 31
0.0
  0
ARC
  5
123
330
1F
100
AcDbEntity
  8
0
  6
Continuous
 62
     7
370
    25
100
AcDbCircle
 10
161.2125
 20
115.425
 30
0.0
 40
0.3000000000000114
100
AcDbArc
 50
270.0
 51
0.0
  0
LINE
  5
124
330
1F
100
AcDbEntity
  8
0
  6
Continuous
 62
     7
370
    25
100
AcDbLine
 10
161.5125003576
 20
115.4249991
 30
0.0
 11
161.5125003576
 21
116.825000447
 31
0.0
  0
ARC
  5
125
330
1F
100
AcDbEntity
  8
0
  6
Continuous
 62
     7
370
    25
100
AcDbCircle
 10
161.2125
 20
116.825
 30
0.0
 40
0.3000000000000114
100
AcDbArc
 50
0.0
 51
90.0
  0
LINE
  5
126
330
1F
100
AcDbEntity
  8
0
  6
Continuous
 62
     7
370
    25
100
AcDbLine
 10
161.2125008672
 20
117.1249999374
 30
0.0
 11
159.8124995202
 21
117.1249999374
 31
0.0
  0
ARC
  5
127
330
1F
100
AcDbEntity
  8
0
  6
Continuous
 62
     7
370
    25
100
AcDbCircle
 10
159.8125
 20
117.425
 30
0.0
 40
0.2999999999999972
100
AcDbArc
 50
180.0
 51
270.0
  0
LINE
  5
128
330
1F
100
AcDbEntity
  8
0
  6
Continuous
 62
     7
370
    25
100
AcDbLine
 10
159.5125000298
 20
117.4249994278
 30
0.0
 11
159.5125000298
 21
118.3249997616
 31
0.0
  0
ARC
  5
129
330
1F
100
AcDbEntity
  8
0
  6
Continuous
 62
     7
370
    25
100
AcDbCircle
 10
159.8125
 20
118.325
 30
0.0
 40
0.2999999999999972
100
AcDbArc
 50
90.0
 51
180.0
  0
LINE
  5
12A
330
1F
100
AcDbEntity
  8
0
  6
Continuous
 62
     7
370
    25
100
AcDbLine
 10
159.8124995202
 20
118.624999252
 30
0.0
 11
161.2125008672
 21
118.624999252
 31
0.0
  0
ARC
  5
12B
330
1F
100
AcDbEntity
  8
0
  6
Continuous
 62
     7
370
    25
100
AcDbCircle
 10
161.2125
 20
118.925
 30
0.0
 40
0.3000000000000114
100
AcDbArc
 50
270.0
 51
0.0
  0
LINE
  5
12C
330
1F
100
AcDbEntity
  8
0
  6
Continuous
 62
     7
370
    25
100
AcDbLine
 10
161.5125003576
 20
118.925000605
 30
0.0
 11
161.5125003576
 21
120.3250000894
 31
0.0
  0
ARC
  5
12D
330
1F
100
AcDbEntity
  8
0
  6
Continuous
 62
     7
370
    25
100
AcDbCircle
 10
161.2125
 20
120.325
 30
0.0
 40
0.3000000000000114
100
AcDbArc
 50
0.0
 51
90.0
  0
LINE
  5
12E
330
1F
100
AcDbEntity
  8
0
  6
Continuous
 62
     7
370
    25
100
AcDbLine
 10
161.2125008672
 20
120.6249995798
 30
0.0
 11
159.8124995202
 21
120.6249995798
 31
0.0
  0
ARC
  5
12F
330
1F
100
AcDbEntity
  8
0
  6
Continuous
 62
     7
370
    25
100
AcDbCircle
 10
159.8125
 20
120.925
 30
0.0
 40
0.2999999999999829
100
AcDbArc
 50
180.0
 51
270.0
  0
LINE
  5
130
330
1F
100
AcDbEntity
  8
0
  6
Continuous
 62
     7
370
    25
100
AcDbLine
 10
159.5125000298
 20
120.9249990702
 30
0.0
 11
159.5125000298
 21
121.8250003353
 31
0.0
  0
ARC
  5
131
330
1F
100
AcDbEntity
  8
0
  6
Continuous
 62
     7
370
    25
100
AcDbCircle
 10
159.8125
 20
121.825
 30
0.0
 40
0.3000000000000114
100
AcDbArc
 50
90.0
 51
180.0
  0
LINE
  5
132
330
1F
100
AcDbEntity
  8
0
  6
Continuous
 62
     7
370
    25
100
AcDbLine
 10
159.8124995202
 20
122.1249998257
 30
0.0
 11
161.2125008672
 21
122.1249998257
 31
0.0
  0
ARC
  5
133
330
1F
100
AcDbEntity
  8
0
  6
Continuous
 62
     7
370
    25
100
AcDbCircle
 10
161.2125
 20
122.425
 30
0.0
 40
0.3000000000000114
100
AcDbArc
 50
270.0
 51
0.0
  0
LINE
  5
134
330
1F
100
AcDbEntity
  8
0
  6
Continuous
 62
     7
370
    25
100
AcDbLine
 10
161.5125003576
 20
122.4250002474
 30
0.0
 11
161.5125003576
 21
123.8249997318
 31
0.0
  0
ARC
  5
135
330
1F
100
AcDbEntity
  8
0
  6
Continuous
 62
     7
370
    25
100
AcDbCircle
 10
161.2125
 20
123.825
 30
0.0
 40
0.3000000000000114
100
AcDbArc
 50
0.0
 51
90.0
  0
LINE
  5
136
330
1F
100
AcDbEntity
  8
0
  6
Continuous
 62
     7
370
    25
100
AcDbLine
 10
161.2125008672
 20
124.1250001535
 30
0.0
 11
159.8124995202
 21
124.1250001535
 31
0.0
  0
ARC
  5
137
330
1F
100
AcDbEntity
  8
0
  6
Continuous
 62
     7
370
    25
100
AcDbCircle
 10
159.8125
 20
124.425
 30
0.0
 40
0.3000000000000114
100
AcDbArc
 50
180.0
 51
270.0
  0
LINE
  5
138
330
1F
100
AcDbEntity
  8
0
  6
Continuous
 62
     7
370
    25
100
AcDbLine
 10
159.5125000298
 20
124.4249996439
 30
0.0
 11
159.5125000298
 21
125.3249999777
 31
0.0
  0
ARC
  5
139
330
1F
100
AcDbEntity
  8
0
  6
Continuous
 62
     7
370
    25
100
AcDbCircle
 10
159.8125
 20
125.325
 30
0.0
 40
0.2999999999999972
100
AcDbArc
 50
90.0
 51
180.0
  0
LINE
  5
13A
330
1F
100
AcDbEntity
  8
0
  6
Continuous
 62
     7
370
    25
100
AcDbLine
 10
159.8124995202
 20
125.6250003994
 30
0.0
 11
161.2125008672
 21
125.6250003994
 31
0.0
  0
ARC
  5
13B
330
1F
100
AcDbEntity
  8
0
  6
Continuous
 62
     7
370
    25
100
AcDbCircle
 10
161.2125
 20
125.925
 30
0.0
 40
0.3000000000000114
100
AcDbArc
 50
270.0
 51
0.0
  0
LINE
  5
13C
330
1F
100
AcDbEntity
  8
0
  6
Continuous
 62
     7
370
    25
100
AcDbLine
 10
161.5125003576
 20
125.9249998897
 30
0.0
 11
161.5125003576
 21
127.3250003055
 31
0.0
  0
ARC
  5
13D
330
1F
100
AcDbEntity
  8
0
  6
Continuous
 62
     7
370
    25
100
AcDbCircle
 10
161.2125
 20
127.325
 30
0.0
 40
0.3000000000000256
100
AcDbArc
 50
0.0
 51
90.0
  0
LINE
  5
13E
330
1F
100
AcDbEntity
  8
0
  6
Continuous
 62
     7
370
    25
100
AcDbLine
 10
161.2125008672
 20
127.6249997959
 30
0.0
 11
159.8124995202
 21
127.6249997959
 31
0.0
  0
ARC
  5
13F
330
1F
100
AcDbEntity
  8
0
  6
Continuous
 62
     7
370
    25
100
AcDbCircle
 10
159.8125
 20
127.925
 30
0.0
 40
0.2999999999999972
100
AcDbArc
 50
180.0
 51
270.0
  0
LINE
  5
140
330
1F
100
AcDbEntity
  8
0
  6
Continuous
 62
     7
370
    25
100
AcDbLine
 10
159.5125000298
 20
127.9250002176
 30
0.0
 11
159.5125000298
 21
128.82499962
 31
0.0
  0
ARC
  5
141
330
1F
100
AcDbEntity
  8
0
  6
Continuous
 62
     7
370
    25
100
AcDbCircle
 10
159.8125
 20
128.825
 30
0.0
 40
0.3000000000000114
100
AcDbArc
 50
90.0
 51
180.0
  0
LINE
  5
142
330
1F
100
AcDbEntity
  8
0
  6
Continuous
 62
     7
370
    25
100
AcDbLine
 10
159.8124995202
 20
129.1250000417
 30
0.0
 11
161.2125008672
 21
129.1250000417
 31
0.0
  0
ARC
  5
143
330
1F
100
AcDbEntity
  8
0
  6
Continuous
 62
     7
370
    25
100
AcDbCircle
 10
161.2125
 20
129.425
 30
0.0
 40
0.3000000000000114
100
AcDbArc
 50
270.0
 51
0.0
  0
LINE
  5
144
330
1F
100
AcDbEntity
  8
0
  6
Continuous
 62
     7
370
    25
100
AcDbLine
 10
161.5125003576
 20
129.4249999978
 30
0.0
 11
161.5125003576
 21
130.8249999479
 31
0.0
  0
ARC
  5
145
330
1F
100
AcDbEntity
  8
0
  6
Continuous
 62
     7
370
    25
100
AcDbCircle
 10
161.2125
 20
130.825
 30
0.0
 40
0.3000000000000398
100
AcDbArc
 50
0.0
 51
90.0
  0
LINE
  5
146
330
1F
100
AcDbEntity
  8
0
  6
Continuous
 62
     7
370
    25
100
AcDbLine
 10
161.2125008672
 20
131.1249999039
 30
0.0
 11
159.8124995202
 21
131.1249999039
 31
0.0
  0
ARC
  5
147
330
1F
100
AcDbEntity
  8
0
  6
Continuous
 62
     7
370
    25
100
AcDbCircle
 10
159.8125
 20
131.425
 30
0.0
 40
0.2999999999999829
100
AcDbArc
 50
180.0
 51
270.0
  0
LINE
  5
148
330
1F
100
AcDbEntity
  8
0
  6
Continuous
 62
     7
370
    25
100
AcDbLine
 10
108.0124999702
 20
114.8250001192
 30
0.0
 11
108.0124999702
 21
113.6500007182
 31
0.0
  0
LINE
  5
149
330
1F
100
AcDbEntity
  8
0
  6
Continuous
 62
     7
370
    25
100
AcDbLine
 10
150.0442910314
 20
136.825
 30
0.0
 11
149.5599455506
 21
137.2504034138
 31
0.0
  0
ARC
  5
14A
330
1F
100
AcDbEntity
  8
0
  6
Continuous
 62
     7
370
    25
100
AcDbCircle
 10
149.3619729638
 20
137.025
 30
0.0
 40
0.2999999999999948
100
AcDbArc
 50
48.7069964274
 51
138.7069964131
  0
LINE
  5
14B
330
1F
100
AcDbEntity
  8
0
  6
Continuous
 62
     7
370
    25
100
AcDbLine
 10
149.1365691021
 20
137.2229729663
 30
0.0
 11
148.7870279074
 21
136.825
 31
0.0
  0
LINE
  5
14C
330
1F
100
AcDbEntity
  8
0
  6
Continuous
 62
     7
370
    25
100
AcDbLine
 10
148.7870279074
 20
136.825
 30
0.0
 11
148.3026824266
 21
137.2504034138
 31
0.0
  0
ARC
  5
14D
330
1F
100
AcDbEntity
  8
0
  6
Continuous
 62
     7
370
    25
100
AcDbCircle
 10
148.1047090447
 20
137.025
 30
0.0
 40
0.3000000000000005
100
AcDbArc
 50
48.706996413
 51
138.7069964212
  0
LINE
  5
14E
330
1F
100
AcDbEntity
  8
0
  6
Continuous
 62
     7
370
    25
100
AcDbLine
 10
147.8793059781
 20
137.2229729663
 30
0.0
 11
147.5297638521
 21
136.825
 31
0.0
  0
LINE
  5
14F
330
1F
100
AcDbEntity
  8
0
  6
Continuous
 62
     7
370
    25
100
AcDbLine
 10
147.5297638521
 20
136.825
 30
0.0
 11
147.0454183713
 21
137.2504034138
 31
0.0
  0
ARC
  5
150
330
1F
100
AcDbEntity
  8
0
  6
Continuous
 62
     7
370
    25
100
AcDbCircle
 10
146.8474451257
 20
137.025
 30
0.0
 40
0.2999999999999843
100
AcDbArc
 50
48.706996413
 51
138.7069964212
  0
LINE
  5
151
330
1F
100
AcDbEntity
  8
0
  6
Continuous
 62
     7
370
    25
100
AcDbLine
 10
146.6220419228
 20
137.2229729663
 30
0.0
 11
146.2724997967
 21
136.825
 31
0.0
  0
LINE
  5
152
330
1F
100
AcDbEntity
  8
0
  6
Continuous
 62
     7
370
    25
100
AcDbLine
 10
146.2724997967
 20
136.825
 30
0.0
 11
121.2525002033
 21
136.825
 31
0.0
  0
LINE
  5
153
330
1F
100
AcDbEntity
  8
0
  6
Continuous
 62
     7
370
    25
100
AcDbLine
 10
121.2525002033
 20
136.825
 30
0.0
 11
120.9029580772
 21
137.2229729663
 31
0.0
  0
ARC
  5
154
330
1F
100
AcDbEntity
  8
0
  6
Continuous
 62
     7
370
    25
100
AcDbCircle
 10
120.6775548743
 20
137.025
 30
0.0
 40
0.2999999999999847
100
AcDbArc
 50
41.2930035788
 51
131.293003587
  0
LINE
  5
155
330
1F
100
AcDbEntity
  8
0
  6
Continuous
 62
     7
370
    25
100
AcDbLine
 10
120.4795816287
 20
137.2504034138
 30
0.0
 11
119.9952361479
 21
136.825
 31
0.0
  0
LINE
  5
156
330
1F
100
AcDbEntity
  8
0
  6
Continuous
 62
     7
370
    25
100
AcDbLine
 10
119.9952361479
 20
136.825
 30
0.0
 11
119.6456940219
 21
137.2229729663
 31
0.0
  0
ARC
  5
157
330
1F
100
AcDbEntity
  8
0
  6
Continuous
 62
     7
370
    25
100
AcDbCircle
 10
119.4202909553
 20
137.025
 30
0.0
 40
0.2999999999999912
100
AcDbArc
 50
41.2930035788
 51
131.293003587
  0
LINE
  5
158
330
1F
100
AcDbEntity
  8
0
  6
Continuous
 62
     7
370
    25
100
AcDbLine
 10
119.2223175734
 20
137.2504034138
 30
0.0
 11
118.7379720926
 21
136.825
 31
0.0
  0
LINE
  5
159
330
1F
100
AcDbEntity
  8
0
  6
Continuous
 62
     7
370
    25
100
AcDbLine
 10
118.7379720926
 20
136.825
 30
0.0
 11
118.3884308979
 21
137.2229729663
 31
0.0
  0
ARC
  5
15A
330
1F
100
AcDbEntity
  8
0
  6
Continuous
 62
     7
370
    25
100
AcDbCircle
 10
118.1630270362
 20
137.025
 30
0.0
 40
0.2999999999999948
100
AcDbArc
 50
41.2930035869
 51
131.2930035726
  0
LINE
  5
15B
330
1F
100
AcDbEntity
  8
0
  6
Continuous
 62
     7
370
    25
100
AcDbLine
 10
117.9650544494
 20
137.2504034138
 30
0.0
 11
117.4807089686
 21
136.825
 31
0.0
  0
LINE
  5
15C
330
1F
100
AcDbEntity
  8
0
  6
Continuous
 62
     7
370
    25
100
AcDbLine
 10
117.4807089686
 20
136.825
 30
0.0
 11
117.1311668426
 21
137.2229729663
 31
0.0
  0
ARC
  5
15D
330
1F
100
AcDbEntity
  8
0
  6
Continuous
 62
     7
370
    25
100
AcDbCircle
 10
116.9057631172
 20
137.025
 30
0.0
 40
0.3000000000000034
100
AcDbArc
 50
41.2930035788
 51
131.2930035726
  0
LINE
  5
15E
330
1F
100
AcDbEntity
  8
0
  6
Continuous
 62
     7
370
    25
100
AcDbLine
 10
116.7077894628
 20
137.2504034138
 30
0.0
 11
116.223443982
 21
136.825
 31
0.0
  0
LINE
  5
15F
330
1F
100
AcDbEntity
  8
0
  6
Continuous
 62
     7
370
    25
100
AcDbLine
 10
116.223443982
 20
136.825
 30
0.0
 11
115.8739018559
 21
137.2229729663
 31
0.0
  0
ARC
  5
160
330
1F
100
AcDbEntity
  8
0
  6
Continuous
 62
     7
370
    25
100
AcDbCircle
 10
115.6484991982
 20
137.025
 30
0.0
 40
0.3000000000000034
100
AcDbArc
 50
41.2930035788
 51
131.2930035726
  0
LINE
  5
161
330
1F
100
AcDbEntity
  8
0
  6
Continuous
 62
     7
370
    25
100
AcDbLine
 10
115.4505263388
 20
137.2504034138
 30
0.0
 11
114.966180858
 21
136.825
 31
0.0
  0
LINE
  5
162
330
1F
100
AcDbEntity
  8
0
  6
Continuous
 62
     7
370
    25
100
AcDbLine
 10
114.966180858
 20
136.825
 30
0.0
 11
114.616638732
 21
137.2229729663
 31
0.0
  0
ARC
  5
163
330
1F
100
AcDbEntity
  8
0
  6
Continuous
 62
     7
370
    25
100
AcDbCircle
 10
114.3912352792
 20
137.025
 30
0.0
 40
0.2999999999999847
100
AcDbArc
 50
41.2930035788
 51
131.293003587
  0
LINE
  5
164
330
1F
100
AcDbEntity
  8
0
  6
Continuous
 62
     7
370
    25
100
AcDbLine
 10
114.1932632148
 20
137.2504034138
 30
0.0
 11
113.7089158714
 21
136.825
 31
0.0
  0
LINE
  5
165
330
1F
100
AcDbEntity
  8
0
  6
Continuous
 62
     7
370
    25
100
AcDbLine
 10
113.7089158714
 20
136.825
 30
0.0
 11
113.359375608
 21
137.2229729663
 31
0.0
  0
ARC
  5
166
330
1F
100
AcDbEntity
  8
0
  6
Continuous
 62
     7
370
    25
100
AcDbCircle
 10
113.1339713602
 20
137.025
 30
0.0
 40
0.2999999999999954
100
AcDbArc
 50
41.2930035788
 51
131.2930035818
  0
LINE
  5
167
330
1F
100
AcDbEntity
  8
0
  6
Continuous
 62
     7
370
    25
100
AcDbLine
 10
112.9359982282
 20
137.2504034138
 30
0.0
 11
112.4516527474
 21
136.825
 31
0.0
  0
LINE
  5
168
330
1F
100
AcDbEntity
  8
0
  6
Continuous
 62
     7
370
    25
100
AcDbLine
 10
112.4516527474
 20
136.825
 30
0.0
 11
112.0125006258
 21
137.3250000238
 31
0.0
  0
LINE
  5
169
330
1F
100
AcDbEntity
  8
0
  6
Continuous
 62
     7
370
    25
100
AcDbLine
 10
112.0125006258
 20
137.3250000238
 30
0.0
 11
105.0124994785
 21
137.3250000238
 31
0.0
  0
ARC
  5
16A
330
1F
100
AcDbEntity
  8
0
  6
Continuous
 62
     7
370
    25
100
AcDbCircle
 10
105.0125
 20
134.325
 30
0.0
 40
3.000000000000028
100
AcDbArc
 50
90.0
 51
128.6206297902
  0
ARC
  5
16B
330
1F
100
AcDbEntity
  8
0
  6
Continuous
 62
     7
370
    25
100
AcDbCircle
 10
103.3272654383
 20
136.4344986305
 30
0.0
 40
0.2999999999999944
100
AcDbArc
 50
128.6206297796
 51
225.0000000013
  0
LINE
  5
16C
330
1F
100
AcDbEntity
  8
0
  6
Continuous
 62
     7
370
    25
100
AcDbLine
 10
103.115132761
 20
136.2223665987
 30
0.0
 11
103.6128687978
 21
135.7246320171
 31
0.0
  0
ARC
  5
16D
330
1F
100
AcDbEntity
  8
0
  6
Continuous
 62
     7
370
    25
100
AcDbCircle
 10
103.4007359313
 20
135.5125
 30
0.0
 40
0.3000000000000044
100
AcDbArc
 50
315.0
 51
45.0000000119
  0
LINE
  5
16E
330
1F
100
AcDbEntity
  8
0
  6
Continuous
 62
     7
370
    25
100
AcDbLine
 10
103.6128687978
 20
135.3003680183
 30
0.0
 11
102.100367409
 21
133.78786791
 31
0.0
  0
ARC
  5
16F
330
1F
100
AcDbEntity
  8
0
  6
Continuous
 62
     7
370
    25
100
AcDbCircle
 10
102.3125
 20
133.5757359313
 30
0.0
 40
0.3000000000000547
100
AcDbArc
 50
135.0
 51
179.9999999977
  0
LINE
  5
170
330
1F
100
AcDbEntity
  8
0
  6
Continuous
 62
     7
370
    25
100
AcDbLine
 10
102.0124989867
 20
133.5757359106
 30
0.0
 11
102.0124989867
 21
131.2992638618
 31
0.0
  0
ARC
  5
171
330
1F
100
AcDbEntity
  8
0
  6
Continuous
 62
     7
370
    25
100
AcDbCircle
 10
102.3125
 20
131.2992640687
 30
0.0
 40
0.3000000000000748
100
AcDbArc
 50
180.0
 51
315.0000000119
  0
LINE
  5
172
330
1F
100
AcDbEntity
  8
0
  6
Continuous
 62
     7
370
    25
100
AcDbLine
 10
102.5246314079
 20
131.0871318623
 30
0.0
 11
103.5003687561
 21
132.0628678136
 31
0.0
  0
ARC
  5
173
330
1F
100
AcDbEntity
  8
0
  6
Continuous
 62
     7
370
    25
100
AcDbCircle
 10
103.7125
 20
131.8507359313
 30
0.0
 40
0.2999999999999545
100
AcDbArc
 50
0.0
 51
135.0000000119
  0
LINE
  5
174
330
1F
100
AcDbEntity
  8
0
  6
Continuous
 62
     7
370
    25
100
AcDbLine
 10
104.0124993145
 20
131.8507358141
 30
0.0
 11
104.0124993145
 21
123.7992644951
 31
0.0
  0
ARC
  5
175
330
1F
100
AcDbEntity
  8
0
  6
Continuous
 62
     7
370
    25
100
AcDbCircle
 10
103.7125
 20
123.7992640687
 30
0.0
 40
0.2999999999998839
100
AcDbArc
 50
225.0
 51
359.9999999977
  0
LINE
  5
176
330
1F
100
AcDbEntity
  8
0
  6
Continuous
 62
     7
370
    25
100
AcDbLine
 10
103.5003687561
 20
123.5871324956
 30
0.0
 11
102.5246314079
 21
124.5628679812
 31
0.0
  0
ARC
  5
177
330
1F
100
AcDbEntity
  8
0
  6
Continuous
 62
     7
370
    25
100
AcDbCircle
 10
102.3125
 20
124.3507359313
 30
0.0
 40
0.300000000000115
100
AcDbArc
 50
45.0000000002
 51
180.0
  0
LINE
  5
178
330
1F
100
AcDbEntity
  8
0
  6
Continuous
 62
     7
370
    25
100
AcDbLine
 10
102.0124989867
 20
124.3507359818
 30
0.0
 11
102.0124989867
 21
120.0992642611
 31
0.0
  0
ARC
  5
179
330
1F
100
AcDbEntity
  8
0
  6
Continuous
 62
     7
370
    25
100
AcDbCircle
 10
102.3125
 20
120.0992640687
 30
0.0
 40
0.3000000000000044
100
AcDbArc
 50
180.0
 51
315.0000000119
  0
LINE
  5
17A
330
1F
100
AcDbEntity
  8
0
  6
Continuous
 62
     7
370
    25
100
AcDbLine
 10
102.5246314079
 20
119.8871313304
 30
0.0
 11
103.5003687561
 21
120.8628686786
 31
0.0
  0
ARC
  5
17B
330
1F
100
AcDbEntity
  8
0
  6
Continuous
 62
     7
370
    25
100
AcDbCircle
 10
103.7125
 20
120.6507359313
 30
0.0
 40
0.2999999999999261
100
AcDbArc
 50
0.0
 51
135.0000000119
  0
LINE
  5
17C
330
1F
100
AcDbEntity
  8
0
  6
Continuous
 62
     7
370
    25
100
AcDbLine
 10
104.0124993145
 20
120.6507357478
 30
0.0
 11
104.0124993145
 21
112.9992632836
 31
0.0
  0
ARC
  5
17D
330
1F
100
AcDbEntity
  8
0
  6
Continuous
 62
     7
370
    25
100
AcDbCircle
 10
103.7125
 20
112.9992640687
 30
0.0
 40
0.300000000000054
100
AcDbArc
 50
225.0
 51
0.0000000001
  0
LINE
  5
17E
330
1F
100
AcDbEntity
  8
0
  6
Continuous
 62
     7
370
    25
100
AcDbLine
 10
103.5003687561
 20
112.7871322155
 30
0.0
 11
102.5246314079
 21
113.7628677011
 31
0.0
  0
ARC
  5
17F
330
1F
100
AcDbEntity
  8
0
  6
Continuous
 62
     7
370
    25
100
AcDbCircle
 10
102.3125
 20
113.5507359313
 30
0.0
 40
0.3000000000000256
100
AcDbArc
 50
45.0000000001
 51
180.0
  0
LINE
  5
180
330
1F
100
AcDbEntity
  8
0
  6
Continuous
 62
     7
370
    25
100
AcDbLine
 10
102.0124989867
 20
113.5507366329
 30
0.0
 11
102.0124989867
 21
111.0742642254
 31
0.0
  0
ARC
  5
181
330
1F
100
AcDbEntity
  8
0
  6
Continuous
 62
     7
370
    25
100
AcDbCircle
 10
102.3125
 20
111.0742640687
 30
0.0
 40
0.3000000000000145
100
AcDbArc
 50
180.0
 51
224.9999999881
  0
LINE
  5
182
330
1F
100
AcDbEntity
  8
0
  6
Continuous
 62
     7
370
    25
100
AcDbLine
 10
102.100367409
 20
110.8621312946
 30
0.0
 11
103.6128687978
 21
109.3496317685
 31
0.0
  0
ARC
  5
183
330
1F
100
AcDbEntity
  8
0
  6
Continuous
 62
     7
370
    25
100
AcDbCircle
 10
103.4007359313
 20
109.1375
 30
0.0
 40
0.3000000000000044
100
AcDbArc
 50
315.0
 51
45.0000000119
  0
LINE
  5
184
330
1F
100
AcDbEntity
  8
0
  6
Continuous
 62
     7
370
    25
100
AcDbLine
 10
103.6128687978
 20
108.9253677696
 30
0.0
 11
103.115132761
 21
108.4276335955
 31
0.0
  0
ARC
  5
185
330
1F
100
AcDbEntity
  8
0
  6
Continuous
 62
     7
370
    25
100
AcDbCircle
 10
103.3272654383
 20
108.2155013695
 30
0.0
 40
0.300000000000009
100
AcDbArc
 50
135.0
 51
231.379370208
  0
ARC
  5
186
330
1F
100
AcDbEntity
  8
0
  6
Continuous
 62
     7
370
    25
100
AcDbCircle
 10
105.0125
 20
110.325
 30
0.0
 40
3.000000000000024
100
AcDbArc
 50
231.3793702084
 51
270.0
  0
LINE
  5
187
330
1F
100
AcDbEntity
  8
0
  6
Continuous
 62
     7
370
    25
100
AcDbLine
 10
105.0124994785
 20
107.3249998212
 30
0.0
 11
105.5382366598
 21
107.3249998212
 31
0.0
  0
ARC
  5
188
330
1F
100
AcDbEntity
  8
0
  6
Continuous
 62
     7
370
    25
100
AcDbCircle
 10
105.5382359313
 20
107.625
 30
0.0
 40
0.2999999999999972
100
AcDbArc
 50
270.0
 51
314.9999999881
  0
LINE
  5
189
330
1F
100
AcDbEntity
  8
0
  6
Continuous
 62
     7
370
    25
100
AcDbLine
 10
105.7503677279
 20
107.4128682435
 30
0.0
 11
107.1746318907
 21
108.8371324062
 31
0.0
  0
ARC
  5
18A
330
1F
100
AcDbEntity
  8
0
  6
Continuous
 62
     7
370
    25
100
AcDbCircle
 10
107.3867640687
 20
108.625
 30
0.0
 40
0.2999999999999972
100
AcDbArc
 50
90.0
 51
134.9999999881
  0
LINE
  5
18B
330
1F
100
AcDbEntity
  8
0
  6
Continuous
 62
     7
370
    25
100
AcDbLine
 10
107.3867648214
 20
108.9250008285
 30
0.0
 11
108.638235119
 21
108.9250008285
 31
0.0
  0
ARC
  5
18C
330
1F
100
AcDbEntity
  8
0
  6
Continuous
 62
     7
370
    25
100
AcDbCircle
 10
108.6382359313
 20
108.625
 30
0.0
 40
0.3000000000000114
100
AcDbArc
 50
45.0
 51
89.9999999977
  0
LINE
  5
18D
330
1F
100
AcDbEntity
  8
0
  6
Continuous
 62
     7
370
    25
100
AcDbLine
 10
108.8503680497
 20
108.8371324062
 30
0.0
 11
110.2746322125
 21
107.4128682435
 31
0.0
  0
ARC
  5
18E
330
1F
100
AcDbEntity
  8
0
  6
Continuous
 62
     7
370
    25
100
AcDbCircle
 10
110.4867640687
 20
107.625
 30
0.0
 40
0.3000000000000114
100
AcDbArc
 50
225.0
 51
270.0
  0
LINE
  5
18F
330
1F
100
AcDbEntity
  8
0
  6
Continuous
 62
     7
370
    25
100
AcDbLine
 10
110.4867632806
 20
107.3249998212
 30
0.0
 11
157.0382367194
 21
107.3249998212
 31
0.0
  0
ARC
  5
190
330
1F
100
AcDbEntity
  8
0
  6
Continuous
 62
     7
370
    25
100
AcDbCircle
 10
157.0382359313
 20
107.625
 30
0.0
 40
0.3000000000000114
100
AcDbArc
 50
270.0
 51
315.0
  0
LINE
  5
191
330
1F
100
AcDbEntity
  8
0
  6
Continuous
 62
     7
370
    25
100
AcDbLine
 10
157.2503677875
 20
107.4128682435
 30
0.0
 11
158.6746319503
 21
108.8371324062
 31
0.0
  0
ARC
  5
192
330
1F
100
AcDbEntity
  8
0
  6
Continuous
 62
     7
370
    25
100
AcDbCircle
 10
158.8867640687
 20
108.625
 30
0.0
 40
0.3000000000000114
100
AcDbArc
 50
90.0000000023
 51
135.0
  0
LINE
  5
193
330
1F
100
AcDbEntity
  8
0
  6
Continuous
 62
     7
370
    25
100
AcDbLine
 10
158.886764881
 20
108.9250008285
 30
0.0
 11
160.1382351786
 21
108.9250008285
 31
0.0
  0
ARC
  5
194
330
1F
100
AcDbEntity
  8
0
  6
Continuous
 62
     7
370
    25
100
AcDbCircle
 10
160.1382359313
 20
108.625
 30
0.0
 40
0.3000000000000044
100
AcDbArc
 50
45.0000000119
 51
90.0
  0
LINE
  5
195
330
1F
100
AcDbEntity
  8
0
  6
Continuous
 62
     7
370
    25
100
AcDbLine
 10
160.3503681093
 20
108.8371324062
 30
0.0
 11
161.7746322721
 21
107.4128682435
 31
0.0
  0
ARC
  5
196
330
1F
100
AcDbEntity
  8
0
  6
Continuous
 62
     7
370
    25
100
AcDbCircle
 10
161.9867640687
 20
107.625
 30
0.0
 40
0.2999999999999972
100
AcDbArc
 50
225.0000000119
 51
270.0
  0
LINE
  5
197
330
1F
100
AcDbEntity
  8
0
  6
Continuous
 62
     7
370
    25
100
AcDbLine
 10
161.9867633402
 20
107.3249998212
 30
0.0
 11
162.5125005215
 21
107.3249998212
 31
0.0
  0
ARC
  5
198
330
1F
100
AcDbEntity
  8
0
  6
Continuous
 62
     7
370
    25
100
AcDbCircle
 10
162.5125
 20
110.325
 30
0.0
 40
3.000000000000024
100
AcDbArc
 50
270.0
 51
308.6206297916
  0
ARC
  5
199
330
1F
100
AcDbEntity
  8
0
  6
Continuous
 62
     7
370
    25
100
AcDbCircle
 10
164.1977345617
 20
108.2155013695
 30
0.0
 40
0.3000000000000179
100
AcDbArc
 50
308.620629792
 51
45.0
  0
LINE
  5
19A
330
1F
100
AcDbEntity
  8
0
  6
Continuous
 62
     7
370
    25
100
AcDbLine
 10
164.409867239
 20
108.4276335955
 30
0.0
 11
163.9121312022
 21
108.9253677696
 31
0.0
  0
ARC
  5
19B
330
1F
100
AcDbEntity
  8
0
  6
Continuous
 62
     7
370
    25
100
AcDbCircle
 10
164.1242640687
 20
109.1375
 30
0.0
 40
0.2999999999999944
100
AcDbArc
 50
134.9999999881
 51
225.0
  0
LINE
  5
19C
330
1F
100
AcDbEntity
  8
0
  6
Continuous
 62
     7
370
    25
100
AcDbLine
 10
163.9121312022
 20
109.3496317685
 30
0.0
 11
165.424632591
 21
110.8621312946
 31
0.0
  0
ARC
  5
19D
330
1F
100
AcDbEntity
  8
0
  6
Continuous
 62
     7
370
    25
100
AcDbCircle
 10
165.2125
 20
111.0742640687
 30
0.0
 40
0.3000000000000145
100
AcDbArc
 50
315.0000000119
 51
0.0
  0
LINE
  5
19E
330
1F
100
AcDbEntity
  8
0
  6
Continuous
 62
     7
370
    25
100
AcDbLine
 10
165.5125010133
 20
111.0742642254
 30
0.0
 11
165.5125010133
 21
113.5507366329
 31
0.0
  0
ARC
  5
19F
330
1F
100
AcDbEntity
  8
0
  6
Continuous
 62
     7
370
    25
100
AcDbCircle
 10
165.2125
 20
113.5507359313
 30
0.0
 40
0.3000000000000398
100
AcDbArc
 50
0.0
 51
134.9999999999
  0
LINE
  5
1A0
330
1F
100
AcDbEntity
  8
0
  6
Continuous
 62
     7
370
    25
100
AcDbLine
 10
165.0003685921
 20
113.7628677011
 30
0.0
 11
164.0246312439
 21
112.7871322155
 31
0.0
  0
ARC
  5
1A1
330
1F
100
AcDbEntity
  8
0
  6
Continuous
 62
     7
370
    25
100
AcDbCircle
 10
163.8125
 20
112.9992640687
 30
0.0
 40
0.3000000000000114
100
AcDbArc
 50
179.9999999999
 51
315.0
  0
LINE
  5
1A2
330
1F
100
AcDbEntity
  8
0
  6
Continuous
 62
     7
370
    25
100
AcDbLine
 10
163.5125006855
 20
112.9992632836
 30
0.0
 11
163.5125006855
 21
120.6507357478
 31
0.0
  0
ARC
  5
1A3
330
1F
100
AcDbEntity
  8
0
  6
Continuous
 62
     7
370
    25
100
AcDbCircle
 10
163.8125
 20
120.6507359313
 30
0.0
 40
0.2999999999999829
100
AcDbArc
 50
44.9999999881
 51
180.0
  0
LINE
  5
1A4
330
1F
100
AcDbEntity
  8
0
  6
Continuous
 62
     7
370
    25
100
AcDbLine
 10
164.0246312439
 20
120.8628686786
 30
0.0
 11
165.0003685921
 21
119.8871313304
 31
0.0
  0
ARC
  5
1A5
330
1F
100
AcDbEntity
  8
0
  6
Continuous
 62
     7
370
    25
100
AcDbCircle
 10
165.2125
 20
120.0992640687
 30
0.0
 40
0.3000000000000145
100
AcDbArc
 50
224.9999999881
 51
0.0
  0
LINE
  5
1A6
330
1F
100
AcDbEntity
  8
0
  6
Continuous
 62
     7
370
    25
100
AcDbLine
 10
165.5125010133
 20
120.0992642611
 30
0.0
 11
165.5125010133
 21
124.3507359818
 31
0.0
  0
ARC
  5
1A7
330
1F
100
AcDbEntity
  8
0
  6
Continuous
 62
     7
370
    25
100
AcDbCircle
 10
165.2125
 20
124.3507359313
 30
0.0
 40
0.3000000000000547
100
AcDbArc
 50
0.0
 51
134.9999999998
  0
LINE
  5
1A8
330
1F
100
AcDbEntity
  8
0
  6
Continuous
 62
     7
370
    25
100
AcDbLine
 10
165.0003685921
 20
124.5628679812
 30
0.0
 11
164.0246312439
 21
123.5871324956
 31
0.0
  0
ARC
  5
1A9
330
1F
100
AcDbEntity
  8
0
  6
Continuous
 62
     7
370
    25
100
AcDbCircle
 10
163.8125
 20
123.7992640687
 30
0.0
 40
0.2999999999999944
100
AcDbArc
 50
180.0000000023
 51
315.0
  0
LINE
  5
1AA
330
1F
100
AcDbEntity
  8
0
  6
Continuous
 62
     7
370
    25
100
AcDbLine
 10
163.5125006855
 20
123.7992644951
 30
0.0
 11
163.5125006855
 21
131.8507358141
 31
0.0
  0
ARC
  5
1AB
330
1F
100
AcDbEntity
  8
0
  6
Continuous
 62
     7
370
    25
100
AcDbCircle
 10
163.8125
 20
131.8507359313
 30
0.0
 40
0.3000000000000114
100
AcDbArc
 50
44.9999999881
 51
180.0
  0
LINE
  5
1AC
330
1F
100
AcDbEntity
  8
0
  6
Continuous
 62
     7
370
    25
100
AcDbLine
 10
164.0246312439
 20
132.0628678136
 30
0.0
 11
165.0003685921
 21
131.0871318623
 31
0.0
  0
ARC
  5
1AD
330
1F
100
AcDbEntity
  8
0
  6
Continuous
 62
     7
370
    25
100
AcDbCircle
 10
165.2125
 20
131.2992640687
 30
0.0
 40
0.3000000000001753
100
AcDbArc
 50
224.9999999881
 51
360.0
  0
LINE
  5
1AE
330
1F
100
AcDbEntity
  8
0
  6
Continuous
 62
     7
370
    25
100
AcDbLine
 10
165.5125010133
 20
131.2992638618
 30
0.0
 11
165.5125010133
 21
133.5757359106
 31
0.0
  0
ARC
  5
1AF
330
1F
100
AcDbEntity
  8
0
  6
Continuous
 62
     7
370
    25
100
AcDbCircle
 10
165.2125
 20
133.5757359313
 30
0.0
 40
0.3000000000000547
100
AcDbArc
 50
0.0000000023
 51
45.0
  0
LINE
  5
1B0
330
1F
100
AcDbEntity
  8
0
  6
Continuous
 62
     7
370
    25
100
AcDbLine
 10
165.424632591
 20
133.78786791
 30
0.0
 11
163.9121312022
 21
135.3003680183
 31
0.0
  0
ARC
  5
1B1
330
1F
100
AcDbEntity
  8
0
  6
Continuous
 62
     7
370
    25
100
AcDbCircle
 10
164.1242640687
 20
135.5125
 30
0.0
 40
0.3000000000000145
100
AcDbArc
 50
134.9999999881
 51
225.0
  0
LINE
  5
1B2
330
1F
100
AcDbEntity
  8
0
  6
Continuous
 62
     7
370
    25
100
AcDbLine
 10
163.9121312022
 20
135.7246320171
 30
0.0
 11
164.409867239
 21
136.2223665987
 31
0.0
  0
ARC
  5
1B3
330
1F
100
AcDbEntity
  8
0
  6
Continuous
 62
     7
370
    25
100
AcDbCircle
 10
164.1977345617
 20
136.4344986305
 30
0.0
 40
0.2999999999999944
100
AcDbArc
 50
314.9999999987
 51
51.3793702204
  0
ARC
  5
1B4
330
1F
100
AcDbEntity
  8
0
  6
Continuous
 62
     7
370
    25
100
AcDbCircle
 10
162.5125
 20
134.325
 30
0.0
 40
3.000000000000028
100
AcDbArc
 50
51.3793702098
 51
90.0
  0
LINE
  5
1B5
330
1F
100
AcDbEntity
  8
0
  6
Continuous
 62
     7
370
    25
100
AcDbLine
 10
162.5125005215
 20
137.3250000238
 30
0.0
 11
155.5124993742
 21
137.3250000238
 31
0.0
  0
LINE
  5
1B6
330
1F
100
AcDbEntity
  8
0
  6
Continuous
 62
     7
370
    25
100
AcDbLine
 10
155.5124993742
 20
137.3250000238
 30
0.0
 11
155.0733472526
 21
136.825
 31
0.0
  0
LINE
  5
1B7
330
1F
100
AcDbEntity
  8
0
  6
Continuous
 62
     7
370
    25
100
AcDbLine
 10
155.0733472526
 20
136.825
 30
0.0
 11
154.5890017718
 21
137.2504034138
 31
0.0
  0
ARC
  5
1B8
330
1F
100
AcDbEntity
  8
0
  6
Continuous
 62
     7
370
    25
100
AcDbCircle
 10
154.3910286398
 20
137.025
 30
0.0
 40
0.2999999999999954
100
AcDbArc
 50
48.7069964182
 51
138.7069964212
  0
LINE
  5
1B9
330
1F
100
AcDbEntity
  8
0
  6
Continuous
 62
     7
370
    25
100
AcDbLine
 10
154.165624392
 20
137.2229729663
 30
0.0
 11
153.8160841286
 21
136.825
 31
0.0
  0
LINE
  5
1BA
330
1F
100
AcDbEntity
  8
0
  6
Continuous
 62
     7
370
    25
100
AcDbLine
 10
153.8160841286
 20
136.825
 30
0.0
 11
153.3317367852
 21
137.2504034138
 31
0.0
  0
ARC
  5
1BB
330
1F
100
AcDbEntity
  8
0
  6
Continuous
 62
     7
370
    25
100
AcDbCircle
 10
153.1337647208
 20
137.025
 30
0.0
 40
0.2999999999999954
100
AcDbArc
 50
48.706996413
 51
138.7069964212
  0
LINE
  5
1BC
330
1F
100
AcDbEntity
  8
0
  6
Continuous
 62
     7
370
    25
100
AcDbLine
 10
152.908361268
 20
137.2229729663
 30
0.0
 11
152.558819142
 21
136.825
 31
0.0
  0
LINE
  5
1BD
330
1F
100
AcDbEntity
  8
0
  6
Continuous
 62
     7
370
    25
100
AcDbLine
 10
152.558819142
 20
136.825
 30
0.0
 11
152.0744736612
 21
137.2504034138
 31
0.0
  0
ARC
  5
1BE
330
1F
100
AcDbEntity
  8
0
  6
Continuous
 62
     7
370
    25
100
AcDbCircle
 10
151.8765008018
 20
137.025
 30
0.0
 40
0.3000000000000141
100
AcDbArc
 50
48.7069964274
 51
138.7069964212
  0
LINE
  5
1BF
330
1F
100
AcDbEntity
  8
0
  6
Continuous
 62
     7
370
    25
100
AcDbLine
 10
151.6510981441
 20
137.2229729663
 30
0.0
 11
151.301556018
 21
136.825
 31
0.0
  0
LINE
  5
1C0
330
1F
100
AcDbEntity
  8
0
  6
Continuous
 62
     7
370
    25
100
AcDbLine
 10
151.301556018
 20
136.825
 30
0.0
 11
150.8172105372
 21
137.2504034138
 31
0.0
  0
ARC
  5
1C1
330
1F
100
AcDbEntity
  8
0
  6
Continuous
 62
     7
370
    25
100
AcDbCircle
 10
150.6192368828
 20
137.025
 30
0.0
 40
0.2999999999999938
100
AcDbArc
 50
48.7069964274
 51
138.7069964212
  0
LINE
  5
1C2
330
1F
100
AcDbEntity
  8
0
  6
Continuous
 62
     7
370
    25
100
AcDbLine
 10
150.3938331574
 20
137.2229729663
 30
0.0
 11
150.0442910314
 21
136.825
 31
0.0
  0
DIMENSION
  5
1C3
330
1F
100
AcDbEntity
  8
0
  6
Continuous
 62
     7
370
    18
100
AcDbDimension
  2
_D
 10
165.5125
 20
150.8657592666
 30
0.0
 11
135.1670011559
 21
150.8657592666
 31
0.0
 70
   160
  1
<>
 71
     2
 42
-1.0
  3
SLDDIMSTYLE0
100
AcDbAlignedDimension
 13
102.0125
 23
133.5757359313
 33
0.0
 14
165.5125
 24
133.5757359313
 34
0.0
 50
0.0
100
AcDbRotatedDimension
  0
DIMENSION
  5
1CF
330
1F
100
AcDbEntity
  8
0
  6
Continuous
 62
     7
370
    18
100
AcDbDimension
  2
_D_1
 10
159.5125
 20
143.559306309
 30
0.0
 11
135.1670011559
 21
143.559306309
 31
0.0
 70
   160
  1
<>
 71
     2
 42
-1.0
  3
SLDDIMSTYLE0
100
AcDbAlignedDimension
 13
108.0125
 23
133.825
 33
0.0
 14
159.5125
 24
133.825
 34
0.0
100
AcDbRotatedDimension
  0
DIMENSION
  5
1D9
330
1F
100
AcDbEntity
  8
0
  6
Continuous
 62
     7
370
    18
100
AcDbDimension
  2
_D_2
 10
92.0125
 20
107.325
 30
0.0
 11
92.0125
 21
123.9689306432
 31
0.0
 70
   160
  1
<>
 71
     2
 42
-1.0
  3
SLDDIMSTYLE0
100
AcDbAlignedDimension
 13
105.0125
 23
137.325
 33
0.0
 14
110.4867640687
 24
107.325
 34
0.0
 50
90.0
100
AcDbRotatedDimension
  0
DIMENSION
  5
1E3
330
1F
100
AcDbEntity
  8
0
  6
Continuous
 62
     7
370
    18
100
AcDbDimension
  2
_D_3
 10
137.1024054524
 20
109.025
 30
0.0
 11
137.1024054524
 21
121.9499760842
 31
0.0
 70
   160
  1
<>
 71
     2
 42
-1.0
  3
SLDDIMSTYLE0
100
AcDbAlignedDimension
 13
155.7125
 23
135.325
 33
0.0
 14
155.7125
 24
109.025
 34
0.0
 50
90.0
100
AcDbRotatedDimension
  0
DIMENSION
  5
1EB
330
1F
100
AcDbEntity
  8
0
  6
Continuous
 62
     7
370
    18
100
AcDbDimension
  2
_D_4
 10
118.0709288796
 20
109.025
 30
0.0
 11
118.0709288796
 21
118.7652266739
 31
0.0
 70
   160
  1
<>
 71
     2
 42
-1.0
  3
SLDDIMSTYLE1
100
AcDbAlignedDimension
 13
107.7125
 23
115.125
 33
0.0
 14
111.8125
 24
109.025
 34
0.0
 50
90.0
100
AcDbRotatedDimension
  0
DIMENSION
  5
1F7
330
1F
100
AcDbEntity
  8
0
  6
Continuous
 62
     7
370
    18
100
AcDbDimension
  2
_D_5
 10
113.5272425648
 20
117.125
 30
0.0
 11
113.5272425648
 21
122.842485896
 31
0.0
 70
   160
  1
<>
 71
     2
 42
-1.0
  3
SLDDIMSTYLE2
100
AcDbAlignedDimension
 13
107.7125
 23
115.125
 33
0.0
 14
107.7125
 24
117.125
 34
0.0
 50
90.0
100
AcDbRotatedDimension
  0
DIMENSION
  5
205
330
1F
100
AcDbEntity
  8
0
  6
Continuous
 62
     7
370
    18
100
AcDbDimension
  2
_D_6
 10
152.7976742853
 20
118.625
 30
0.0
 11
152.7976742853
 21
122.9843639662
 31
0.0
 70
   160
  1
<>
 71
     2
 42
-1.0
  3
SLDDIMSTYLE2
100
AcDbAlignedDimension
 13
159.8125
 23
115.125
 33
0.0
 14
159.8125
 24
118.625
 34
0.0
 50
90.0
100
AcDbRotatedDimension
  0
DIMENSION
  5
212
330
1F
100
AcDbEntity
  8
0
  6
Continuous
 62
     7
370
    18
100
AcDbDimension
  2
_D_7
 10
161.5125
 20
99.8602461142
 30
0.0
 11
134.6229290262
 21
99.8602461142
 31
0.0
 70
   160
  1
<>
 71
     2
 42
-1.0
  3
SLDDIMSTYLE3
100
AcDbAlignedDimension
 13
106.0125
 23
115.425
 33
0.0
 14
161.5125
 24
115.425
 34
0.0
 50
0.0
100
AcDbRotatedDimension
  0
DIMENSION
  5
222
330
1F
100
AcDbEntity
  8
0
  6
Continuous
 62
     7
370
    18
100
AcDbDimension
  2
_D_8
 10
98.0375407992
 20
112.325
 30
0.0
 11
98.0375407992
 21
120.8703600528
 31
0.0
 70
   160
  1
<>
 71
     2
 42
-1.0
  3
SLDDIMSTYLE0
100
AcDbAlignedDimension
 13
108.0125
 23
133.825
 33
0.0
 14
108.0125
 24
112.325
 34
0.0
 50
90.0
100
AcDbRotatedDimension
  0
DIMENSION
  5
22C
330
1F
100
AcDbEntity
  8
0
  6
Continuous
 62
     7
370
    18
100
AcDbDimension
  2
_D_9
 10
169.7832161078
 20
112.325
 30
0.0
 11
169.7832161078
 21
118.7652266739
 31
0.0
 70
   160
  1
<>
 71
     2
 42
-1.0
  3
SLDDIMSTYLE2
100
AcDbAlignedDimension
 13
157.0382359313
 23
107.325
 33
0.0
 14
159.5125
 24
112.325
 34
0.0
 50
90.0
100
AcDbRotatedDimension
  0
ENDSEC
  0
SECTION
  2
OBJECTS
  0
DICTIONARY
  5
C
330
0
100
AcDbDictionary
281
     1
  3
ACAD_GROUP
350
D
  3
ACAD_LAYOUT
350
1A
  3
ACAD_MLINESTYLE
350
17
  3
ACAD_PLOTSETTINGS
350
19
  3
ACAD_PLOTSTYLENAME
350
E
  3
ACAD_SCALELIST
350
47
  0
DICTIONARY
  5
D
102
{ACAD_REACTORS
330
C
102
}
330
C
100
AcDbDictionary
281
     1
  0
DICTIONARY
  5
1A
102
{ACAD_REACTORS
330
C
102
}
330
C
100
AcDbDictionary
281
     1
  3
Layout1
350
1E
  3
Layout2
350
26
  3
Model
350
22
  0
DICTIONARY
  5
17
102
{ACAD_REACTORS
330
C
102
}
330
C
100
AcDbDictionary
281
     1
  3
Standard
350
18
  0
DICTIONARY
  5
19
102
{ACAD_REACTORS
330
C
102
}
330
C
100
AcDbDictionary
281
     1
  0
ACDBDICTIONARYWDFLT
  5
E
102
{ACAD_REACTORS
330
C
102
}
330
C
100
AcDbDictionary
281
     1
  3
Normal
350
F
100
AcDbDictionaryWithDefault
340
F
  0
DICTIONARY
  5
47
102
{ACAD_REACTORS
330
C
102
}
330
C
100
AcDbDictionary
281
     1
  3
A0
350
48
  3
A1
350
49
  3
A2
350
4A
  3
A3
350
4B
  3
A4
350
4C
  3
A5
350
4D
  3
A6
350
4E
  3
A7
350
4F
  3
A8
350
50
  3
A9
350
51
  3
B0
350
52
  3
B1
350
53
  3
B2
350
54
  3
B3
350
55
  3
B4
350
56
  3
B5
350
57
  3
B6
350
58
  3
B7
350
59
  3
B8
350
5A
  3
B9
350
5B
  3
C0
350
5C
  3
C1
350
5D
  3
C2
350
5E
  3
C3
350
5F
  3
C4
350
60
  3
C5
350
61
  3
C6
350
62
  3
C7
350
63
  3
C8
350
64
  3
C9
350
65
  3
D0
350
66
  3
D1
350
67
  3
D2
350
68
  0
LAYOUT
  5
1E
102
{ACAD_REACTORS
330
1A
102
}
330
1A
100
AcDbPlotSettings
  1

  2
none_device
  4

  6

 40
0.0
 41
0.0
 42
0.0
 43
0.0
 44
0.0
 45
0.0
 46
0.0
 47
0.0
 48
0.0
 49
0.0
140
0.0
141
0.0
142
1.0
143
1.0
 70
   688
 72
     1
 73
     0
 74
     5
  7

 75
    16
147
1.0
148
0.0
149
0.0
100
AcDbLayout
  1
Layout1
 70
     1
 71
     1
 10
0.0
 20
0.0
 11
420.0
 21
297.0
 12
0.0
 22
0.0
 32
0.0
 14
1.0000000000E+20
 24
1.0000000000E+20
 34
1.0000000000E+20
 15
-1.0000000000E+20
 25
-1.0000000000E+20
 35
-1.0000000000E+20
146
0.0
 13
0.0
 23
0.0
 33
0.0
 16
1.0
 26
0.0
 36
0.0
 17
0.0
 27
1.0
 37
0.0
 76
     0
330
1B
  0
LAYOUT
  5
26
102
{ACAD_REACTORS
330
1A
102
}
330
1A
100
AcDbPlotSettings
  1

  2
none_device
  4

  6

 40
0.0
 41
0.0
 42
0.0
 43
0.0
 44
0.0
 45
0.0
 46
0.0
 47
0.0
 48
0.0
 49
0.0
140
0.0
141
0.0
142
1.0
143
1.0
 70
   688
 72
     1
 73
     0
 74
     5
  7

 75
    16
147
1.0
148
0.0
149
0.0
100
AcDbLayout
  1
Layout2
 70
     1
 71
     2
 10
0.0
 20
0.0
 11
0.0
 21
0.0
 12
0.0
 22
0.0
 32
0.0
 14
0.0
 24
0.0
 34
0.0
 15
0.0
 25
0.0
 35
0.0
146
0.0
 13
0.0
 23
0.0
 33
0.0
 16
1.0
 26
0.0
 36
0.0
 17
0.0
 27
1.0
 37
0.0
 76
     0
330
23
  0
LAYOUT
  5
22
102
{ACAD_REACTORS
330
1A
102
}
330
1A
100
AcDbPlotSettings
  1

  2
none_device
  4
Letter_(8.50_x_11.00_Inches)
  6

 40
6.35
 41
6.35
 42
6.35000508
 43
6.35000508
 44
215.9
 45
279.4
 46
0.0
 47
0.0
 48
0.0
 49
0.0
140
0.0
141
0.0
142
1.0
143
1.0
 70
  1712
 72
     1
 73
     0
 74
     0
  7

 75
     0
147
1.0
148
0.0
149
0.0
100
AcDbLayout
  1
Model
 70
     1
 71
     0
 10
0.0
 20
0.0
 11
297.0
 21
210.0
 12
0.0
 22
0.0
 32
0.0
 14
0.0
 24
0.0
 34
0.0
 15
297.0
 25
210.0
 35
0.0
146
0.0
 13
0.0
 23
0.0
 33
0.0
 16
1.0
 26
0.0
 36
0.0
 17
0.0
 27
1.0
 37
0.0
 76
     0
330
1F
331
29
  0
MLINESTYLE
  5
18
102
{ACAD_REACTORS
330
17
102
}
330
17
100
AcDbMlineStyle
  2
Standard
 70
     0
  3

 62
   256
 51
90.0
 52
90.0
 71
     2
 49
0.5
 62
   256
  6
BYLAYER
 49
-0.5
 62
   256
  6
BYLAYER
  0
ACDBPLACEHOLDER
  5
F
102
{ACAD_REACTORS
330
E
102
}
330
E
  0
SCALE
  5
48
102
{ACAD_REACTORS
330
47
102
}
330
47
100
AcDbScale
 70
     0
300
1:1
140
1.0
141
1.0
290
     1
  0
SCALE
  5
49
102
{ACAD_REACTORS
330
47
102
}
330
47
100
AcDbScale
 70
     0
300
1:2
140
1.0
141
2.0
290
     0
  0
SCALE
  5
4A
102
{ACAD_REACTORS
330
47
102
}
330
47
100
AcDbScale
 70
     0
300
1:4
140
1.0
141
4.0
290
     0
  0
SCALE
  5
4B
102
{ACAD_REACTORS
330
47
102
}
330
47
100
AcDbScale
 70
     0
300
1:5
140
1.0
141
5.0
290
     0
  0
SCALE
  5
4C
102
{ACAD_REACTORS
330
47
102
}
330
47
100
AcDbScale
 70
     0
300
1:8
140
1.0
141
8.0
290
     0
  0
SCALE
  5
4D
102
{ACAD_REACTORS
330
47
102
}
330
47
100
AcDbScale
 70
     0
300
1:10
140
1.0
141
10.0
290
     0
  0
SCALE
  5
4E
102
{ACAD_REACTORS
330
47
102
}
330
47
100
AcDbScale
 70
     0
300
1:16
140
1.0
141
16.0
290
     0
  0
SCALE
  5
4F
102
{ACAD_REACTORS
330
47
102
}
330
47
100
AcDbScale
 70
     0
300
1:20
140
1.0
141
20.0
290
     0
  0
SCALE
  5
50
102
{ACAD_REACTORS
330
47
102
}
330
47
100
AcDbScale
 70
     0
300
1:30
140
1.0
141
30.0
290
     0
  0
SCALE
  5
51
102
{ACAD_REACTORS
330
47
102
}
330
47
100
AcDbScale
 70
     0
300
1:40
140
1.0
141
40.0
290
     0
  0
SCALE
  5
52
102
{ACAD_REACTORS
330
47
102
}
330
47
100
AcDbScale
 70
     0
300
1:50
140
1.0
141
50.0
290
     0
  0
SCALE
  5
53
102
{ACAD_REACTORS
330
47
102
}
330
47
100
AcDbScale
 70
     0
300
1:100
140
1.0
141
100.0
290
     0
  0
SCALE
  5
54
102
{ACAD_REACTORS
330
47
102
}
330
47
100
AcDbScale
 70
     0
300
2:1
140
2.0
141
1.0
290
     0
  0
SCALE
  5
55
102
{ACAD_REACTORS
330
47
102
}
330
47
100
AcDbScale
 70
     0
300
4:1
140
4.0
141
1.0
290
     0
  0
SCALE
  5
56
102
{ACAD_REACTORS
330
47
102
}
330
47
100
AcDbScale
 70
     0
300
8:1
140
8.0
141
1.0
290
     0
  0
SCALE
  5
57
102
{ACAD_REACTORS
330
47
102
}
330
47
100
AcDbScale
 70
     0
300
10:1
140
10.0
141
1.0
290
     0
  0
SCALE
  5
58
102
{ACAD_REACTORS
330
47
102
}
330
47
100
AcDbScale
 70
     0
300
100:1
140
100.0
141
1.0
290
     0
  0
SCALE
  5
59
102
{ACAD_REACTORS
330
47
102
}
330
47
100
AcDbScale
 70
     0
300
1/128" = 1'-0"
140
0.0078125
141
12.0
290
     0
  0
SCALE
  5
5A
102
{ACAD_REACTORS
330
47
102
}
330
47
100
AcDbScale
 70
     0
300
1/64" = 1'-0"
140
0.015625
141
12.0
290
     0
  0
SCALE
  5
5B
102
{ACAD_REACTORS
330
47
102
}
330
47
100
AcDbScale
 70
     0
300
1/32" = 1'-0"
140
0.03125
141
12.0
290
     0
  0
SCALE
  5
5C
102
{ACAD_REACTORS
330
47
102
}
330
47
100
AcDbScale
 70
     0
300
1/16" = 1'-0"
140
0.0625
141
12.0
290
     0
  0
SCALE
  5
5D
102
{ACAD_REACTORS
330
47
102
}
330
47
100
AcDbScale
 70
     0
300
3/32" = 1'-0"
140
0.09375
141
12.0
290
     0
  0
SCALE
  5
5E
102
{ACAD_REACTORS
330
47
102
}
330
47
100
AcDbScale
 70
     0
300
1/8" = 1'-0"
140
0.125
141
12.0
290
     0
  0
SCALE
  5
5F
102
{ACAD_REACTORS
330
47
102
}
330
47
100
AcDbScale
 70
     0
300
3/16" = 1'-0"
140
0.1875
141
12.0
290
     0
  0
SCALE
  5
60
102
{ACAD_REACTORS
330
47
102
}
330
47
100
AcDbScale
 70
     0
300
1/4" = 1'-0"
140
0.25
141
12.0
290
     0
  0
SCALE
  5
61
102
{ACAD_REACTORS
330
47
102
}
330
47
100
AcDbScale
 70
     0
300
3/8" = 1'-0"
140
0.375
141
12.0
290
     0
  0
SCALE
  5
62
102
{ACAD_REACTORS
330
47
102
}
330
47
100
AcDbScale
 70
     0
300
1/2" = 1'-0"
140
0.5
141
12.0
290
     0
  0
SCALE
  5
63
102
{ACAD_REACTORS
330
47
102
}
330
47
100
AcDbScale
 70
     0
300
3/4" = 1'-0"
140
0.75
141
12.0
290
     0
  0
SCALE
  5
64
102
{ACAD_REACTORS
330
47
102
}
330
47
100
AcDbScale
 70
     0
300
1" = 1'-0"
140
1.0
141
12.0
290
     0
  0
SCALE
  5
65
102
{ACAD_REACTORS
330
47
102
}
330
47
100
AcDbScale
 70
     0
300
1-1/2" = 1'-0"
140
1.5
141
12.0
290
     0
  0
SCALE
  5
66
102
{ACAD_REACTORS
330
47
102
}
330
47
100
AcDbScale
 70
     0
300
3" = 1'-0"
140
3.0
141
12.0
290
     0
  0
SCALE
  5
67
102
{ACAD_REACTORS
330
47
102
}
330
47
100
AcDbScale
 70
     0
300
6" = 1'-0"
140
6.0
141
12.0
290
     0
  0
SCALE
  5
68
102
{ACAD_REACTORS
330
47
102
}
330
47
100
AcDbScale
 70
     0
300
1'-0" = 1'-0"
140
12.0
141
12.0
290
     0
  0
ENDSEC
  0
EOF
