%TF.GenerationSoftware,KiCad,Pcbnew,6.0.11-3.fc37*%
%TF.CreationDate,2023-08-14T12:31:01+01:00*%
%TF.ProjectId,kitchen-led-strips,6b697463-6865-46e2-9d6c-65642d737472,1.0*%
%TF.SameCoordinates,Original*%
%TF.FileFunction,Soldermask,Top*%
%TF.FilePolarity,Negative*%
%FSLAX46Y46*%
G04 Gerber Fmt 4.6, Leading zero omitted, Abs format (unit mm)*
G04 Created by KiCad (PCBNEW 6.0.11-3.fc37) date 2023-08-14 12:31:01*
%MOMM*%
%LPD*%
G01*
G04 APERTURE LIST*
G04 Aperture macros list*
%AMRoundRect*
0 Rectangle with rounded corners*
0 $1 Rounding radius*
0 $2 $3 $4 $5 $6 $7 $8 $9 X,Y pos of 4 corners*
0 Add a 4 corners polygon primitive as box body*
4,1,4,$2,$3,$4,$5,$6,$7,$8,$9,$2,$3,0*
0 Add four circle primitives for the rounded corners*
1,1,$1+$1,$2,$3*
1,1,$1+$1,$4,$5*
1,1,$1+$1,$6,$7*
1,1,$1+$1,$8,$9*
0 Add four rect primitives between the rounded corners*
20,1,$1+$1,$2,$3,$4,$5,0*
20,1,$1+$1,$4,$5,$6,$7,0*
20,1,$1+$1,$6,$7,$8,$9,0*
20,1,$1+$1,$8,$9,$2,$3,0*%
G04 Aperture macros list end*
%ADD10RoundRect,0.223000X0.185000X-0.135000X0.185000X0.135000X-0.185000X0.135000X-0.185000X-0.135000X0*%
%ADD11RoundRect,0.138000X-0.362500X-0.050000X0.362500X-0.050000X0.362500X0.050000X-0.362500X0.050000X0*%
%ADD12RoundRect,0.138000X-0.050000X-0.362500X0.050000X-0.362500X0.050000X0.362500X-0.050000X0.362500X0*%
%ADD13RoundRect,0.088000X-1.175000X-1.175000X1.175000X-1.175000X1.175000X1.175000X-1.175000X1.175000X0*%
%ADD14RoundRect,0.088000X-1.800000X1.800000X-1.800000X-1.800000X1.800000X-1.800000X1.800000X1.800000X0*%
%ADD15O,3.776000X3.776000*%
%ADD16RoundRect,0.088000X-0.850000X0.850000X-0.850000X-0.850000X0.850000X-0.850000X0.850000X0.850000X0*%
%ADD17O,1.876000X1.876000*%
%ADD18RoundRect,0.223000X0.135000X0.185000X-0.135000X0.185000X-0.135000X-0.185000X0.135000X-0.185000X0*%
%ADD19RoundRect,0.088000X0.850000X0.850000X-0.850000X0.850000X-0.850000X-0.850000X0.850000X-0.850000X0*%
%ADD20RoundRect,0.338000X-0.650000X0.325000X-0.650000X-0.325000X0.650000X-0.325000X0.650000X0.325000X0*%
%ADD21RoundRect,0.223000X-0.185000X0.135000X-0.185000X-0.135000X0.185000X-0.135000X0.185000X0.135000X0*%
%ADD22RoundRect,0.088000X0.200000X-0.325000X0.200000X0.325000X-0.200000X0.325000X-0.200000X-0.325000X0*%
%ADD23RoundRect,0.088000X-0.300000X-0.210000X0.300000X-0.210000X0.300000X0.210000X-0.300000X0.210000X0*%
%ADD24RoundRect,0.313000X0.225000X0.250000X-0.225000X0.250000X-0.225000X-0.250000X0.225000X-0.250000X0*%
%ADD25RoundRect,0.409250X-0.413750X0.321250X-0.413750X-0.321250X0.413750X-0.321250X0.413750X0.321250X0*%
%ADD26RoundRect,0.088000X0.225000X-0.300000X0.225000X0.300000X-0.225000X0.300000X-0.225000X-0.300000X0*%
%ADD27RoundRect,0.313000X-0.225000X-0.250000X0.225000X-0.250000X0.225000X0.250000X-0.225000X0.250000X0*%
%ADD28RoundRect,0.088000X-0.200000X0.325000X-0.200000X-0.325000X0.200000X-0.325000X0.200000X0.325000X0*%
%ADD29RoundRect,0.223000X-0.135000X-0.185000X0.135000X-0.185000X0.135000X0.185000X-0.135000X0.185000X0*%
%ADD30RoundRect,0.273000X0.740000X2.565000X-0.740000X2.565000X-0.740000X-2.565000X0.740000X-2.565000X0*%
%ADD31RoundRect,0.088000X0.675000X-0.675000X0.675000X0.675000X-0.675000X0.675000X-0.675000X-0.675000X0*%
%ADD32O,1.526000X1.526000*%
%ADD33RoundRect,0.313000X0.250000X-0.225000X0.250000X0.225000X-0.250000X0.225000X-0.250000X-0.225000X0*%
%ADD34RoundRect,0.313000X-0.250000X0.225000X-0.250000X-0.225000X0.250000X-0.225000X0.250000X0.225000X0*%
%ADD35RoundRect,0.288000X-0.200000X-0.275000X0.200000X-0.275000X0.200000X0.275000X-0.200000X0.275000X0*%
%ADD36RoundRect,0.228000X0.170000X-0.140000X0.170000X0.140000X-0.170000X0.140000X-0.170000X-0.140000X0*%
%ADD37RoundRect,0.088000X-0.500000X-0.350000X0.500000X-0.350000X0.500000X0.350000X-0.500000X0.350000X0*%
%ADD38RoundRect,0.338000X1.075000X-0.312500X1.075000X0.312500X-1.075000X0.312500X-1.075000X-0.312500X0*%
%ADD39RoundRect,0.088000X-1.125000X1.125000X-1.125000X-1.125000X1.125000X-1.125000X1.125000X1.125000X0*%
%ADD40O,2.426000X2.426000*%
%ADD41RoundRect,0.338000X0.650000X-0.325000X0.650000X0.325000X-0.650000X0.325000X-0.650000X-0.325000X0*%
%ADD42RoundRect,0.175500X-0.152500X-0.087500X0.152500X-0.087500X0.152500X0.087500X-0.152500X0.087500X0*%
%ADD43RoundRect,0.183000X-0.095000X-0.155000X0.095000X-0.155000X0.095000X0.155000X-0.095000X0.155000X0*%
%ADD44RoundRect,0.088000X-0.510000X-0.830000X0.510000X-0.830000X0.510000X0.830000X-0.510000X0.830000X0*%
G04 APERTURE END LIST*
D10*
%TO.C,R14*%
X199260000Y-151760000D03*
X199260000Y-150740000D03*
%TD*%
%TO.C,R26*%
X199250000Y-159260000D03*
X199250000Y-158240000D03*
%TD*%
D11*
%TO.C,U3*%
X198062500Y-153800000D03*
X198062500Y-154200000D03*
X198062500Y-154600000D03*
X198062500Y-155000000D03*
X198062500Y-155400000D03*
X198062500Y-155800000D03*
X198062500Y-156200000D03*
D12*
X198800000Y-156937500D03*
X199200000Y-156937500D03*
X199600000Y-156937500D03*
X200000000Y-156937500D03*
X200400000Y-156937500D03*
X200800000Y-156937500D03*
X201200000Y-156937500D03*
D11*
X201937500Y-156200000D03*
X201937500Y-155800000D03*
X201937500Y-155400000D03*
X201937500Y-155000000D03*
X201937500Y-154600000D03*
X201937500Y-154200000D03*
X201937500Y-153800000D03*
D12*
X201200000Y-153062500D03*
X200800000Y-153062500D03*
X200400000Y-153062500D03*
X200000000Y-153062500D03*
X199600000Y-153062500D03*
X199200000Y-153062500D03*
X198800000Y-153062500D03*
D13*
X200000000Y-155000000D03*
%TD*%
D14*
%TO.C,CONN1*%
X211040000Y-121750000D03*
D15*
X205960000Y-121750000D03*
%TD*%
D16*
%TO.C,CONN5*%
X215240000Y-168250000D03*
D17*
X215240000Y-170790000D03*
X212700000Y-168250000D03*
X212700000Y-170790000D03*
X210160000Y-168250000D03*
X210160000Y-170790000D03*
X207620000Y-168250000D03*
X207620000Y-170790000D03*
X205080000Y-168250000D03*
X205080000Y-170790000D03*
X202540000Y-168250000D03*
X202540000Y-170790000D03*
X200000000Y-168250000D03*
X200000000Y-170790000D03*
X197460000Y-168250000D03*
X197460000Y-170790000D03*
X194920000Y-168250000D03*
X194920000Y-170790000D03*
X192380000Y-168250000D03*
X192380000Y-170790000D03*
X189840000Y-168250000D03*
X189840000Y-170790000D03*
X187300000Y-168250000D03*
X187300000Y-170790000D03*
X184760000Y-168250000D03*
X184760000Y-170790000D03*
%TD*%
D10*
%TO.C,R1*%
X209500000Y-126010000D03*
X209500000Y-124990000D03*
%TD*%
%TO.C,R28*%
X197250000Y-159260000D03*
X197250000Y-158240000D03*
%TD*%
D18*
%TO.C,R21*%
X204780000Y-155500000D03*
X203760000Y-155500000D03*
%TD*%
D19*
%TO.C,CONN7*%
X219750000Y-159310000D03*
D17*
X219750000Y-156770000D03*
X219750000Y-154230000D03*
X219750000Y-151690000D03*
%TD*%
D20*
%TO.C,C9*%
X209750000Y-138525000D03*
X209750000Y-141475000D03*
%TD*%
D21*
%TO.C,R11*%
X201250000Y-149740000D03*
X201250000Y-150760000D03*
%TD*%
D22*
%TO.C,D5*%
X184100000Y-165700000D03*
X184750000Y-165700000D03*
X185400000Y-165700000D03*
X185400000Y-163800000D03*
X184100000Y-163800000D03*
%TD*%
D23*
%TO.C,Q1*%
X210550000Y-164120000D03*
X210550000Y-164770000D03*
X210550000Y-165420000D03*
X212450000Y-165420000D03*
X212450000Y-164770000D03*
X212450000Y-164120000D03*
%TD*%
D21*
%TO.C,R8*%
X220750000Y-146240000D03*
X220750000Y-147260000D03*
%TD*%
D24*
%TO.C,C17*%
X208525000Y-165500000D03*
X206975000Y-165500000D03*
%TD*%
D25*
%TO.C,FB1*%
X209750000Y-144527500D03*
X209750000Y-146472500D03*
%TD*%
D26*
%TO.C,D3*%
X207000000Y-156050000D03*
X207000000Y-153950000D03*
%TD*%
D27*
%TO.C,C15*%
X191475000Y-165500000D03*
X193025000Y-165500000D03*
%TD*%
D10*
%TO.C,R9*%
X196000000Y-108760000D03*
X196000000Y-107740000D03*
%TD*%
D27*
%TO.C,C16*%
X202975000Y-165500000D03*
X204525000Y-165500000D03*
%TD*%
D18*
%TO.C,R20*%
X204770000Y-154500000D03*
X203750000Y-154500000D03*
%TD*%
D28*
%TO.C,D2*%
X198650000Y-107300000D03*
X198000000Y-107300000D03*
X197350000Y-107300000D03*
X197350000Y-109200000D03*
X198650000Y-109200000D03*
%TD*%
D29*
%TO.C,R22*%
X214740000Y-162000000D03*
X215760000Y-162000000D03*
%TD*%
D10*
%TO.C,R4*%
X216500000Y-148510000D03*
X216500000Y-147490000D03*
%TD*%
D29*
%TO.C,R24*%
X195740000Y-157000000D03*
X196760000Y-157000000D03*
%TD*%
D14*
%TO.C,CONN2*%
X222040000Y-121750000D03*
D15*
X216960000Y-121750000D03*
%TD*%
D30*
%TO.C,L1*%
X218825000Y-140000000D03*
X215175000Y-140000000D03*
%TD*%
D10*
%TO.C,R15*%
X198260000Y-151760000D03*
X198260000Y-150740000D03*
%TD*%
D24*
%TO.C,C5*%
X186775000Y-119000000D03*
X185225000Y-119000000D03*
%TD*%
D31*
%TO.C,CONN4*%
X196000000Y-104750000D03*
D32*
X198000000Y-104750000D03*
X200000000Y-104750000D03*
X202000000Y-104750000D03*
X204000000Y-104750000D03*
%TD*%
D18*
%TO.C,R17*%
X196760000Y-153000000D03*
X195740000Y-153000000D03*
%TD*%
%TO.C,R32*%
X185260000Y-162000000D03*
X184240000Y-162000000D03*
%TD*%
D33*
%TO.C,C20*%
X222500000Y-156275000D03*
X222500000Y-154725000D03*
%TD*%
D10*
%TO.C,R13*%
X207000000Y-149740000D03*
X207000000Y-150760000D03*
%TD*%
D21*
%TO.C,R30*%
X201250000Y-159240000D03*
X201250000Y-160260000D03*
%TD*%
D27*
%TO.C,C13*%
X203485000Y-153000000D03*
X205035000Y-153000000D03*
%TD*%
%TO.C,C14*%
X203485000Y-157000000D03*
X205035000Y-157000000D03*
%TD*%
D20*
%TO.C,C10*%
X192500000Y-153525000D03*
X192500000Y-156475000D03*
%TD*%
%TO.C,C8*%
X212750000Y-138525000D03*
X212750000Y-141475000D03*
%TD*%
D22*
%TO.C,D6*%
X214600000Y-165700000D03*
X215250000Y-165700000D03*
X215900000Y-165700000D03*
X215900000Y-163800000D03*
X214600000Y-163800000D03*
%TD*%
D10*
%TO.C,R7*%
X219750000Y-147260000D03*
X219750000Y-146240000D03*
%TD*%
D34*
%TO.C,C11*%
X203910000Y-107475000D03*
X203910000Y-109025000D03*
%TD*%
%TO.C,C19*%
X212500000Y-154725000D03*
X212500000Y-156275000D03*
%TD*%
D10*
%TO.C,R25*%
X200250000Y-160260000D03*
X200250000Y-159240000D03*
%TD*%
D27*
%TO.C,C4*%
X216225000Y-118250000D03*
X217775000Y-118250000D03*
%TD*%
D34*
%TO.C,C2*%
X209500000Y-127225000D03*
X209500000Y-128775000D03*
%TD*%
D35*
%TO.C,R33*%
X187675000Y-162000000D03*
X189325000Y-162000000D03*
%TD*%
D21*
%TO.C,R3*%
X215500000Y-147490000D03*
X215500000Y-148510000D03*
%TD*%
%TO.C,R5*%
X217500000Y-147490000D03*
X217500000Y-148510000D03*
%TD*%
D33*
%TO.C,C18*%
X182000000Y-170775000D03*
X182000000Y-169225000D03*
%TD*%
D36*
%TO.C,C12*%
X202250000Y-150730000D03*
X202250000Y-149770000D03*
%TD*%
D23*
%TO.C,Q2*%
X187550000Y-164100000D03*
X187550000Y-164750000D03*
X187550000Y-165400000D03*
X189450000Y-165400000D03*
X189450000Y-164750000D03*
X189450000Y-164100000D03*
%TD*%
D22*
%TO.C,D4*%
X199350000Y-165700000D03*
X200000000Y-165700000D03*
X200650000Y-165700000D03*
X200650000Y-163800000D03*
X199350000Y-163800000D03*
%TD*%
D10*
%TO.C,R27*%
X198250000Y-159260000D03*
X198250000Y-158240000D03*
%TD*%
D28*
%TO.C,D1*%
X186650000Y-124300000D03*
X186000000Y-124300000D03*
X185350000Y-124300000D03*
X185350000Y-126200000D03*
X186650000Y-126200000D03*
%TD*%
D20*
%TO.C,C3*%
X216500000Y-125525000D03*
X216500000Y-128475000D03*
%TD*%
D10*
%TO.C,R10*%
X200000000Y-108760000D03*
X200000000Y-107740000D03*
%TD*%
D18*
%TO.C,R19*%
X196760000Y-155000000D03*
X195740000Y-155000000D03*
%TD*%
D37*
%TO.C,U2*%
X215900000Y-144050000D03*
X215900000Y-145000000D03*
X215900000Y-145950000D03*
X218100000Y-145950000D03*
X218100000Y-145000000D03*
X218100000Y-144050000D03*
%TD*%
D20*
%TO.C,C1*%
X211500000Y-125525000D03*
X211500000Y-128475000D03*
%TD*%
D38*
%TO.C,R2*%
X219250000Y-128462500D03*
X219250000Y-125537500D03*
%TD*%
D39*
%TO.C,CONN3*%
X189810000Y-121750000D03*
D40*
X187270000Y-121750000D03*
X184730000Y-121750000D03*
X182190000Y-121750000D03*
%TD*%
D10*
%TO.C,R16*%
X197260000Y-151760000D03*
X197260000Y-150740000D03*
%TD*%
D21*
%TO.C,R29*%
X202250000Y-159240000D03*
X202250000Y-160260000D03*
%TD*%
D41*
%TO.C,C6*%
X213750000Y-146975000D03*
X213750000Y-144025000D03*
%TD*%
D18*
%TO.C,R31*%
X196760000Y-156000000D03*
X195740000Y-156000000D03*
%TD*%
D29*
%TO.C,R23*%
X210990000Y-162000000D03*
X212010000Y-162000000D03*
%TD*%
D36*
%TO.C,C7*%
X220750000Y-143730000D03*
X220750000Y-142770000D03*
%TD*%
D19*
%TO.C,CONN6*%
X215250000Y-158040000D03*
D17*
X215250000Y-155500000D03*
X215250000Y-152960000D03*
%TD*%
D21*
%TO.C,R6*%
X218500000Y-147490000D03*
X218500000Y-148510000D03*
%TD*%
D42*
%TO.C,U1*%
X213090000Y-126250000D03*
X213090000Y-126750000D03*
X213090000Y-127250000D03*
X213090000Y-127750000D03*
X214910000Y-127750000D03*
X214910000Y-127250000D03*
X214910000Y-126750000D03*
D43*
X214860000Y-126500000D03*
D42*
X214910000Y-126250000D03*
D44*
X214000000Y-127000000D03*
%TD*%
D21*
%TO.C,R12*%
X200260000Y-149740000D03*
X200260000Y-150760000D03*
%TD*%
D18*
%TO.C,R18*%
X196770000Y-154000000D03*
X195750000Y-154000000D03*
%TD*%
G36*
X200288549Y-165368289D02*
G01*
X200303979Y-165391382D01*
X200332381Y-165397032D01*
X200356641Y-165380822D01*
X200360874Y-165370605D01*
X200362461Y-165369387D01*
X200364309Y-165370153D01*
X200364684Y-165371760D01*
X200364000Y-165375199D01*
X200364000Y-166024801D01*
X200365076Y-166030210D01*
X200364433Y-166032104D01*
X200362471Y-166032494D01*
X200361451Y-166031711D01*
X200346021Y-166008618D01*
X200317619Y-166002968D01*
X200293359Y-166019178D01*
X200289126Y-166029395D01*
X200287539Y-166030613D01*
X200285691Y-166029847D01*
X200285316Y-166028240D01*
X200286000Y-166024801D01*
X200286000Y-165375199D01*
X200284924Y-165369790D01*
X200285567Y-165367896D01*
X200287529Y-165367506D01*
X200288549Y-165368289D01*
G37*
G36*
X215538549Y-165368289D02*
G01*
X215553979Y-165391382D01*
X215582381Y-165397032D01*
X215606641Y-165380822D01*
X215610874Y-165370605D01*
X215612461Y-165369387D01*
X215614309Y-165370153D01*
X215614684Y-165371760D01*
X215614000Y-165375199D01*
X215614000Y-166024801D01*
X215615076Y-166030210D01*
X215614433Y-166032104D01*
X215612471Y-166032494D01*
X215611451Y-166031711D01*
X215596021Y-166008618D01*
X215567619Y-166002968D01*
X215543359Y-166019178D01*
X215539126Y-166029395D01*
X215537539Y-166030613D01*
X215535691Y-166029847D01*
X215535316Y-166028240D01*
X215536000Y-166024801D01*
X215536000Y-165375199D01*
X215534924Y-165369790D01*
X215535567Y-165367896D01*
X215537529Y-165367506D01*
X215538549Y-165368289D01*
G37*
G36*
X199638549Y-165368289D02*
G01*
X199653979Y-165391382D01*
X199682381Y-165397032D01*
X199706641Y-165380822D01*
X199710874Y-165370605D01*
X199712461Y-165369387D01*
X199714309Y-165370153D01*
X199714684Y-165371760D01*
X199714000Y-165375199D01*
X199714000Y-166024801D01*
X199715076Y-166030210D01*
X199714433Y-166032104D01*
X199712471Y-166032494D01*
X199711451Y-166031711D01*
X199696021Y-166008618D01*
X199667619Y-166002968D01*
X199643359Y-166019178D01*
X199639126Y-166029395D01*
X199637539Y-166030613D01*
X199635691Y-166029847D01*
X199635316Y-166028240D01*
X199636000Y-166024801D01*
X199636000Y-165375199D01*
X199634924Y-165369790D01*
X199635567Y-165367896D01*
X199637529Y-165367506D01*
X199638549Y-165368289D01*
G37*
G36*
X185038549Y-165368289D02*
G01*
X185053979Y-165391382D01*
X185082381Y-165397032D01*
X185106641Y-165380822D01*
X185110874Y-165370605D01*
X185112461Y-165369387D01*
X185114309Y-165370153D01*
X185114684Y-165371760D01*
X185114000Y-165375199D01*
X185114000Y-166024801D01*
X185115076Y-166030210D01*
X185114433Y-166032104D01*
X185112471Y-166032494D01*
X185111451Y-166031711D01*
X185096021Y-166008618D01*
X185067619Y-166002968D01*
X185043359Y-166019178D01*
X185039126Y-166029395D01*
X185037539Y-166030613D01*
X185035691Y-166029847D01*
X185035316Y-166028240D01*
X185036000Y-166024801D01*
X185036000Y-165375199D01*
X185034924Y-165369790D01*
X185035567Y-165367896D01*
X185037529Y-165367506D01*
X185038549Y-165368289D01*
G37*
G36*
X214888549Y-165368289D02*
G01*
X214903979Y-165391382D01*
X214932381Y-165397032D01*
X214956641Y-165380822D01*
X214960874Y-165370605D01*
X214962461Y-165369387D01*
X214964309Y-165370153D01*
X214964684Y-165371760D01*
X214964000Y-165375199D01*
X214964000Y-166024801D01*
X214965076Y-166030210D01*
X214964433Y-166032104D01*
X214962471Y-166032494D01*
X214961451Y-166031711D01*
X214946021Y-166008618D01*
X214917619Y-166002968D01*
X214893359Y-166019178D01*
X214889126Y-166029395D01*
X214887539Y-166030613D01*
X214885691Y-166029847D01*
X214885316Y-166028240D01*
X214886000Y-166024801D01*
X214886000Y-165375199D01*
X214884924Y-165369790D01*
X214885567Y-165367896D01*
X214887529Y-165367506D01*
X214888549Y-165368289D01*
G37*
G36*
X184388549Y-165368289D02*
G01*
X184403979Y-165391382D01*
X184432381Y-165397032D01*
X184456641Y-165380822D01*
X184460874Y-165370605D01*
X184462461Y-165369387D01*
X184464309Y-165370153D01*
X184464684Y-165371760D01*
X184464000Y-165375199D01*
X184464000Y-166024801D01*
X184465076Y-166030210D01*
X184464433Y-166032104D01*
X184462471Y-166032494D01*
X184461451Y-166031711D01*
X184446021Y-166008618D01*
X184417619Y-166002968D01*
X184393359Y-166019178D01*
X184389126Y-166029395D01*
X184387539Y-166030613D01*
X184385691Y-166029847D01*
X184385316Y-166028240D01*
X184386000Y-166024801D01*
X184386000Y-165375199D01*
X184384924Y-165369790D01*
X184385567Y-165367896D01*
X184387529Y-165367506D01*
X184388549Y-165368289D01*
G37*
G36*
X210883212Y-165060373D02*
G01*
X210883602Y-165062335D01*
X210883237Y-165062813D01*
X210883297Y-165062853D01*
X210866749Y-165087619D01*
X210872442Y-165116238D01*
X210883048Y-165126844D01*
X210882963Y-165126929D01*
X210883703Y-165128449D01*
X210882583Y-165130106D01*
X210881318Y-165130270D01*
X210849801Y-165124000D01*
X210250199Y-165124000D01*
X210218682Y-165130270D01*
X210216788Y-165129627D01*
X210216398Y-165127665D01*
X210216763Y-165127187D01*
X210216703Y-165127147D01*
X210233251Y-165102381D01*
X210227558Y-165073762D01*
X210216952Y-165063156D01*
X210217037Y-165063071D01*
X210216297Y-165061551D01*
X210217417Y-165059894D01*
X210218682Y-165059730D01*
X210250199Y-165066000D01*
X210849801Y-165066000D01*
X210881318Y-165059730D01*
X210883212Y-165060373D01*
G37*
G36*
X212783212Y-165060373D02*
G01*
X212783602Y-165062335D01*
X212783237Y-165062813D01*
X212783297Y-165062853D01*
X212766749Y-165087619D01*
X212772442Y-165116238D01*
X212783048Y-165126844D01*
X212782963Y-165126929D01*
X212783703Y-165128449D01*
X212782583Y-165130106D01*
X212781318Y-165130270D01*
X212749801Y-165124000D01*
X212150199Y-165124000D01*
X212118682Y-165130270D01*
X212116788Y-165129627D01*
X212116398Y-165127665D01*
X212116763Y-165127187D01*
X212116703Y-165127147D01*
X212133251Y-165102381D01*
X212127558Y-165073762D01*
X212116952Y-165063156D01*
X212117037Y-165063071D01*
X212116297Y-165061551D01*
X212117417Y-165059894D01*
X212118682Y-165059730D01*
X212150199Y-165066000D01*
X212749801Y-165066000D01*
X212781318Y-165059730D01*
X212783212Y-165060373D01*
G37*
G36*
X189783212Y-165040373D02*
G01*
X189783602Y-165042335D01*
X189783237Y-165042813D01*
X189783297Y-165042853D01*
X189766749Y-165067619D01*
X189772442Y-165096238D01*
X189783048Y-165106844D01*
X189782963Y-165106929D01*
X189783703Y-165108449D01*
X189782583Y-165110106D01*
X189781318Y-165110270D01*
X189749801Y-165104000D01*
X189150199Y-165104000D01*
X189118682Y-165110270D01*
X189116788Y-165109627D01*
X189116398Y-165107665D01*
X189116763Y-165107187D01*
X189116703Y-165107147D01*
X189133251Y-165082381D01*
X189127558Y-165053762D01*
X189116952Y-165043156D01*
X189117037Y-165043071D01*
X189116297Y-165041551D01*
X189117417Y-165039894D01*
X189118682Y-165039730D01*
X189150199Y-165046000D01*
X189749801Y-165046000D01*
X189781318Y-165039730D01*
X189783212Y-165040373D01*
G37*
G36*
X187883212Y-165040373D02*
G01*
X187883602Y-165042335D01*
X187883237Y-165042813D01*
X187883297Y-165042853D01*
X187866749Y-165067619D01*
X187872442Y-165096238D01*
X187883048Y-165106844D01*
X187882963Y-165106929D01*
X187883703Y-165108449D01*
X187882583Y-165110106D01*
X187881318Y-165110270D01*
X187849801Y-165104000D01*
X187250199Y-165104000D01*
X187218682Y-165110270D01*
X187216788Y-165109627D01*
X187216398Y-165107665D01*
X187216763Y-165107187D01*
X187216703Y-165107147D01*
X187233251Y-165082381D01*
X187227558Y-165053762D01*
X187216952Y-165043156D01*
X187217037Y-165043071D01*
X187216297Y-165041551D01*
X187217417Y-165039894D01*
X187218682Y-165039730D01*
X187250199Y-165046000D01*
X187849801Y-165046000D01*
X187881318Y-165039730D01*
X187883212Y-165040373D01*
G37*
G36*
X212783212Y-164410373D02*
G01*
X212783602Y-164412335D01*
X212783237Y-164412813D01*
X212783297Y-164412853D01*
X212766749Y-164437619D01*
X212772442Y-164466238D01*
X212783048Y-164476844D01*
X212782963Y-164476929D01*
X212783703Y-164478449D01*
X212782583Y-164480106D01*
X212781318Y-164480270D01*
X212749801Y-164474000D01*
X212150199Y-164474000D01*
X212118682Y-164480270D01*
X212116788Y-164479627D01*
X212116398Y-164477665D01*
X212116763Y-164477187D01*
X212116703Y-164477147D01*
X212133251Y-164452381D01*
X212127558Y-164423762D01*
X212116952Y-164413156D01*
X212117037Y-164413071D01*
X212116297Y-164411551D01*
X212117417Y-164409894D01*
X212118682Y-164409730D01*
X212150199Y-164416000D01*
X212749801Y-164416000D01*
X212781318Y-164409730D01*
X212783212Y-164410373D01*
G37*
G36*
X210883212Y-164410373D02*
G01*
X210883602Y-164412335D01*
X210883237Y-164412813D01*
X210883297Y-164412853D01*
X210866749Y-164437619D01*
X210872442Y-164466238D01*
X210883048Y-164476844D01*
X210882963Y-164476929D01*
X210883703Y-164478449D01*
X210882583Y-164480106D01*
X210881318Y-164480270D01*
X210849801Y-164474000D01*
X210250199Y-164474000D01*
X210218682Y-164480270D01*
X210216788Y-164479627D01*
X210216398Y-164477665D01*
X210216763Y-164477187D01*
X210216703Y-164477147D01*
X210233251Y-164452381D01*
X210227558Y-164423762D01*
X210216952Y-164413156D01*
X210217037Y-164413071D01*
X210216297Y-164411551D01*
X210217417Y-164409894D01*
X210218682Y-164409730D01*
X210250199Y-164416000D01*
X210849801Y-164416000D01*
X210881318Y-164409730D01*
X210883212Y-164410373D01*
G37*
G36*
X187883212Y-164390373D02*
G01*
X187883602Y-164392335D01*
X187883237Y-164392813D01*
X187883297Y-164392853D01*
X187866749Y-164417619D01*
X187872442Y-164446238D01*
X187883048Y-164456844D01*
X187882963Y-164456929D01*
X187883703Y-164458449D01*
X187882583Y-164460106D01*
X187881318Y-164460270D01*
X187849801Y-164454000D01*
X187250199Y-164454000D01*
X187218682Y-164460270D01*
X187216788Y-164459627D01*
X187216398Y-164457665D01*
X187216763Y-164457187D01*
X187216703Y-164457147D01*
X187233251Y-164432381D01*
X187227558Y-164403762D01*
X187216952Y-164393156D01*
X187217037Y-164393071D01*
X187216297Y-164391551D01*
X187217417Y-164389894D01*
X187218682Y-164389730D01*
X187250199Y-164396000D01*
X187849801Y-164396000D01*
X187881318Y-164389730D01*
X187883212Y-164390373D01*
G37*
G36*
X189783212Y-164390373D02*
G01*
X189783602Y-164392335D01*
X189783237Y-164392813D01*
X189783297Y-164392853D01*
X189766749Y-164417619D01*
X189772442Y-164446238D01*
X189783048Y-164456844D01*
X189782963Y-164456929D01*
X189783703Y-164458449D01*
X189782583Y-164460106D01*
X189781318Y-164460270D01*
X189749801Y-164454000D01*
X189150199Y-164454000D01*
X189118682Y-164460270D01*
X189116788Y-164459627D01*
X189116398Y-164457665D01*
X189116763Y-164457187D01*
X189116703Y-164457147D01*
X189133251Y-164432381D01*
X189127558Y-164403762D01*
X189116952Y-164393156D01*
X189117037Y-164393071D01*
X189116297Y-164391551D01*
X189117417Y-164389894D01*
X189118682Y-164389730D01*
X189150199Y-164396000D01*
X189749801Y-164396000D01*
X189781318Y-164389730D01*
X189783212Y-164390373D01*
G37*
G36*
X198969523Y-156506933D02*
G01*
X198992619Y-156522365D01*
X199021239Y-156516671D01*
X199029058Y-156508852D01*
X199030990Y-156508334D01*
X199032404Y-156509748D01*
X199032135Y-156511377D01*
X199024390Y-156522969D01*
X199014000Y-156575199D01*
X199014000Y-157299801D01*
X199024390Y-157352031D01*
X199033251Y-157365293D01*
X199033382Y-157367289D01*
X199031719Y-157368400D01*
X199030477Y-157368067D01*
X199007381Y-157352635D01*
X198978761Y-157358329D01*
X198970942Y-157366148D01*
X198969010Y-157366666D01*
X198967596Y-157365252D01*
X198967865Y-157363623D01*
X198975610Y-157352031D01*
X198986000Y-157299801D01*
X198986000Y-156575199D01*
X198975610Y-156522969D01*
X198966749Y-156509707D01*
X198966618Y-156507711D01*
X198968281Y-156506600D01*
X198969523Y-156506933D01*
G37*
G36*
X200969523Y-156506933D02*
G01*
X200992619Y-156522365D01*
X201021239Y-156516671D01*
X201029058Y-156508852D01*
X201030990Y-156508334D01*
X201032404Y-156509748D01*
X201032135Y-156511377D01*
X201024390Y-156522969D01*
X201014000Y-156575199D01*
X201014000Y-157299801D01*
X201024390Y-157352031D01*
X201033251Y-157365293D01*
X201033382Y-157367289D01*
X201031719Y-157368400D01*
X201030477Y-157368067D01*
X201007381Y-157352635D01*
X200978761Y-157358329D01*
X200970942Y-157366148D01*
X200969010Y-157366666D01*
X200967596Y-157365252D01*
X200967865Y-157363623D01*
X200975610Y-157352031D01*
X200986000Y-157299801D01*
X200986000Y-156575199D01*
X200975610Y-156522969D01*
X200966749Y-156509707D01*
X200966618Y-156507711D01*
X200968281Y-156506600D01*
X200969523Y-156506933D01*
G37*
G36*
X200569523Y-156506933D02*
G01*
X200592619Y-156522365D01*
X200621239Y-156516671D01*
X200629058Y-156508852D01*
X200630990Y-156508334D01*
X200632404Y-156509748D01*
X200632135Y-156511377D01*
X200624390Y-156522969D01*
X200614000Y-156575199D01*
X200614000Y-157299801D01*
X200624390Y-157352031D01*
X200633251Y-157365293D01*
X200633382Y-157367289D01*
X200631719Y-157368400D01*
X200630477Y-157368067D01*
X200607381Y-157352635D01*
X200578761Y-157358329D01*
X200570942Y-157366148D01*
X200569010Y-157366666D01*
X200567596Y-157365252D01*
X200567865Y-157363623D01*
X200575610Y-157352031D01*
X200586000Y-157299801D01*
X200586000Y-156575199D01*
X200575610Y-156522969D01*
X200566749Y-156509707D01*
X200566618Y-156507711D01*
X200568281Y-156506600D01*
X200569523Y-156506933D01*
G37*
G36*
X199369523Y-156506933D02*
G01*
X199392619Y-156522365D01*
X199421239Y-156516671D01*
X199429058Y-156508852D01*
X199430990Y-156508334D01*
X199432404Y-156509748D01*
X199432135Y-156511377D01*
X199424390Y-156522969D01*
X199414000Y-156575199D01*
X199414000Y-157299801D01*
X199424390Y-157352031D01*
X199433251Y-157365293D01*
X199433382Y-157367289D01*
X199431719Y-157368400D01*
X199430477Y-157368067D01*
X199407381Y-157352635D01*
X199378761Y-157358329D01*
X199370942Y-157366148D01*
X199369010Y-157366666D01*
X199367596Y-157365252D01*
X199367865Y-157363623D01*
X199375610Y-157352031D01*
X199386000Y-157299801D01*
X199386000Y-156575199D01*
X199375610Y-156522969D01*
X199366749Y-156509707D01*
X199366618Y-156507711D01*
X199368281Y-156506600D01*
X199369523Y-156506933D01*
G37*
G36*
X200169523Y-156506933D02*
G01*
X200192619Y-156522365D01*
X200221239Y-156516671D01*
X200229058Y-156508852D01*
X200230990Y-156508334D01*
X200232404Y-156509748D01*
X200232135Y-156511377D01*
X200224390Y-156522969D01*
X200214000Y-156575199D01*
X200214000Y-157299801D01*
X200224390Y-157352031D01*
X200233251Y-157365293D01*
X200233382Y-157367289D01*
X200231719Y-157368400D01*
X200230477Y-157368067D01*
X200207381Y-157352635D01*
X200178761Y-157358329D01*
X200170942Y-157366148D01*
X200169010Y-157366666D01*
X200167596Y-157365252D01*
X200167865Y-157363623D01*
X200175610Y-157352031D01*
X200186000Y-157299801D01*
X200186000Y-156575199D01*
X200175610Y-156522969D01*
X200166749Y-156509707D01*
X200166618Y-156507711D01*
X200168281Y-156506600D01*
X200169523Y-156506933D01*
G37*
G36*
X199769523Y-156506933D02*
G01*
X199792619Y-156522365D01*
X199821239Y-156516671D01*
X199829058Y-156508852D01*
X199830990Y-156508334D01*
X199832404Y-156509748D01*
X199832135Y-156511377D01*
X199824390Y-156522969D01*
X199814000Y-156575199D01*
X199814000Y-157299801D01*
X199824390Y-157352031D01*
X199833251Y-157365293D01*
X199833382Y-157367289D01*
X199831719Y-157368400D01*
X199830477Y-157368067D01*
X199807381Y-157352635D01*
X199778761Y-157358329D01*
X199770942Y-157366148D01*
X199769010Y-157366666D01*
X199767596Y-157365252D01*
X199767865Y-157363623D01*
X199775610Y-157352031D01*
X199786000Y-157299801D01*
X199786000Y-156575199D01*
X199775610Y-156522969D01*
X199766749Y-156509707D01*
X199766618Y-156507711D01*
X199768281Y-156506600D01*
X199769523Y-156506933D01*
G37*
G36*
X202368400Y-155968281D02*
G01*
X202368067Y-155969523D01*
X202352635Y-155992619D01*
X202358329Y-156021239D01*
X202366148Y-156029058D01*
X202366666Y-156030990D01*
X202365252Y-156032404D01*
X202363623Y-156032135D01*
X202352031Y-156024390D01*
X202299801Y-156014000D01*
X201575199Y-156014000D01*
X201522969Y-156024390D01*
X201509707Y-156033251D01*
X201507711Y-156033382D01*
X201506600Y-156031719D01*
X201506933Y-156030477D01*
X201522365Y-156007381D01*
X201516671Y-155978761D01*
X201508852Y-155970942D01*
X201508334Y-155969010D01*
X201509748Y-155967596D01*
X201511377Y-155967865D01*
X201522969Y-155975610D01*
X201575199Y-155986000D01*
X202299801Y-155986000D01*
X202352031Y-155975610D01*
X202365293Y-155966749D01*
X202367289Y-155966618D01*
X202368400Y-155968281D01*
G37*
G36*
X198493400Y-155968281D02*
G01*
X198493067Y-155969523D01*
X198477635Y-155992619D01*
X198483329Y-156021239D01*
X198491148Y-156029058D01*
X198491666Y-156030990D01*
X198490252Y-156032404D01*
X198488623Y-156032135D01*
X198477031Y-156024390D01*
X198424801Y-156014000D01*
X197700199Y-156014000D01*
X197647969Y-156024390D01*
X197634707Y-156033251D01*
X197632711Y-156033382D01*
X197631600Y-156031719D01*
X197631933Y-156030477D01*
X197647365Y-156007381D01*
X197641671Y-155978761D01*
X197633852Y-155970942D01*
X197633334Y-155969010D01*
X197634748Y-155967596D01*
X197636377Y-155967865D01*
X197647969Y-155975610D01*
X197700199Y-155986000D01*
X198424801Y-155986000D01*
X198477031Y-155975610D01*
X198490293Y-155966749D01*
X198492289Y-155966618D01*
X198493400Y-155968281D01*
G37*
G36*
X202368400Y-155568281D02*
G01*
X202368067Y-155569523D01*
X202352635Y-155592619D01*
X202358329Y-155621239D01*
X202366148Y-155629058D01*
X202366666Y-155630990D01*
X202365252Y-155632404D01*
X202363623Y-155632135D01*
X202352031Y-155624390D01*
X202299801Y-155614000D01*
X201575199Y-155614000D01*
X201522969Y-155624390D01*
X201509707Y-155633251D01*
X201507711Y-155633382D01*
X201506600Y-155631719D01*
X201506933Y-155630477D01*
X201522365Y-155607381D01*
X201516671Y-155578761D01*
X201508852Y-155570942D01*
X201508334Y-155569010D01*
X201509748Y-155567596D01*
X201511377Y-155567865D01*
X201522969Y-155575610D01*
X201575199Y-155586000D01*
X202299801Y-155586000D01*
X202352031Y-155575610D01*
X202365293Y-155566749D01*
X202367289Y-155566618D01*
X202368400Y-155568281D01*
G37*
G36*
X198493400Y-155568281D02*
G01*
X198493067Y-155569523D01*
X198477635Y-155592619D01*
X198483329Y-155621239D01*
X198491148Y-155629058D01*
X198491666Y-155630990D01*
X198490252Y-155632404D01*
X198488623Y-155632135D01*
X198477031Y-155624390D01*
X198424801Y-155614000D01*
X197700199Y-155614000D01*
X197647969Y-155624390D01*
X197634707Y-155633251D01*
X197632711Y-155633382D01*
X197631600Y-155631719D01*
X197631933Y-155630477D01*
X197647365Y-155607381D01*
X197641671Y-155578761D01*
X197633852Y-155570942D01*
X197633334Y-155569010D01*
X197634748Y-155567596D01*
X197636377Y-155567865D01*
X197647969Y-155575610D01*
X197700199Y-155586000D01*
X198424801Y-155586000D01*
X198477031Y-155575610D01*
X198490293Y-155566749D01*
X198492289Y-155566618D01*
X198493400Y-155568281D01*
G37*
G36*
X202368400Y-155168281D02*
G01*
X202368067Y-155169523D01*
X202352635Y-155192619D01*
X202358329Y-155221239D01*
X202366148Y-155229058D01*
X202366666Y-155230990D01*
X202365252Y-155232404D01*
X202363623Y-155232135D01*
X202352031Y-155224390D01*
X202299801Y-155214000D01*
X201575199Y-155214000D01*
X201522969Y-155224390D01*
X201509707Y-155233251D01*
X201507711Y-155233382D01*
X201506600Y-155231719D01*
X201506933Y-155230477D01*
X201522365Y-155207381D01*
X201516671Y-155178761D01*
X201508852Y-155170942D01*
X201508334Y-155169010D01*
X201509748Y-155167596D01*
X201511377Y-155167865D01*
X201522969Y-155175610D01*
X201575199Y-155186000D01*
X202299801Y-155186000D01*
X202352031Y-155175610D01*
X202365293Y-155166749D01*
X202367289Y-155166618D01*
X202368400Y-155168281D01*
G37*
G36*
X198493400Y-155168281D02*
G01*
X198493067Y-155169523D01*
X198477635Y-155192619D01*
X198483329Y-155221239D01*
X198491148Y-155229058D01*
X198491666Y-155230990D01*
X198490252Y-155232404D01*
X198488623Y-155232135D01*
X198477031Y-155224390D01*
X198424801Y-155214000D01*
X197700199Y-155214000D01*
X197647969Y-155224390D01*
X197634707Y-155233251D01*
X197632711Y-155233382D01*
X197631600Y-155231719D01*
X197631933Y-155230477D01*
X197647365Y-155207381D01*
X197641671Y-155178761D01*
X197633852Y-155170942D01*
X197633334Y-155169010D01*
X197634748Y-155167596D01*
X197636377Y-155167865D01*
X197647969Y-155175610D01*
X197700199Y-155186000D01*
X198424801Y-155186000D01*
X198477031Y-155175610D01*
X198490293Y-155166749D01*
X198492289Y-155166618D01*
X198493400Y-155168281D01*
G37*
G36*
X202368400Y-154768281D02*
G01*
X202368067Y-154769523D01*
X202352635Y-154792619D01*
X202358329Y-154821239D01*
X202366148Y-154829058D01*
X202366666Y-154830990D01*
X202365252Y-154832404D01*
X202363623Y-154832135D01*
X202352031Y-154824390D01*
X202299801Y-154814000D01*
X201575199Y-154814000D01*
X201522969Y-154824390D01*
X201509707Y-154833251D01*
X201507711Y-154833382D01*
X201506600Y-154831719D01*
X201506933Y-154830477D01*
X201522365Y-154807381D01*
X201516671Y-154778761D01*
X201508852Y-154770942D01*
X201508334Y-154769010D01*
X201509748Y-154767596D01*
X201511377Y-154767865D01*
X201522969Y-154775610D01*
X201575199Y-154786000D01*
X202299801Y-154786000D01*
X202352031Y-154775610D01*
X202365293Y-154766749D01*
X202367289Y-154766618D01*
X202368400Y-154768281D01*
G37*
G36*
X198493400Y-154768281D02*
G01*
X198493067Y-154769523D01*
X198477635Y-154792619D01*
X198483329Y-154821239D01*
X198491148Y-154829058D01*
X198491666Y-154830990D01*
X198490252Y-154832404D01*
X198488623Y-154832135D01*
X198477031Y-154824390D01*
X198424801Y-154814000D01*
X197700199Y-154814000D01*
X197647969Y-154824390D01*
X197634707Y-154833251D01*
X197632711Y-154833382D01*
X197631600Y-154831719D01*
X197631933Y-154830477D01*
X197647365Y-154807381D01*
X197641671Y-154778761D01*
X197633852Y-154770942D01*
X197633334Y-154769010D01*
X197634748Y-154767596D01*
X197636377Y-154767865D01*
X197647969Y-154775610D01*
X197700199Y-154786000D01*
X198424801Y-154786000D01*
X198477031Y-154775610D01*
X198490293Y-154766749D01*
X198492289Y-154766618D01*
X198493400Y-154768281D01*
G37*
G36*
X202368400Y-154368281D02*
G01*
X202368067Y-154369523D01*
X202352635Y-154392619D01*
X202358329Y-154421239D01*
X202366148Y-154429058D01*
X202366666Y-154430990D01*
X202365252Y-154432404D01*
X202363623Y-154432135D01*
X202352031Y-154424390D01*
X202299801Y-154414000D01*
X201575199Y-154414000D01*
X201522969Y-154424390D01*
X201509707Y-154433251D01*
X201507711Y-154433382D01*
X201506600Y-154431719D01*
X201506933Y-154430477D01*
X201522365Y-154407381D01*
X201516671Y-154378761D01*
X201508852Y-154370942D01*
X201508334Y-154369010D01*
X201509748Y-154367596D01*
X201511377Y-154367865D01*
X201522969Y-154375610D01*
X201575199Y-154386000D01*
X202299801Y-154386000D01*
X202352031Y-154375610D01*
X202365293Y-154366749D01*
X202367289Y-154366618D01*
X202368400Y-154368281D01*
G37*
G36*
X198493400Y-154368281D02*
G01*
X198493067Y-154369523D01*
X198477635Y-154392619D01*
X198483329Y-154421239D01*
X198491148Y-154429058D01*
X198491666Y-154430990D01*
X198490252Y-154432404D01*
X198488623Y-154432135D01*
X198477031Y-154424390D01*
X198424801Y-154414000D01*
X197700199Y-154414000D01*
X197647969Y-154424390D01*
X197634707Y-154433251D01*
X197632711Y-154433382D01*
X197631600Y-154431719D01*
X197631933Y-154430477D01*
X197647365Y-154407381D01*
X197641671Y-154378761D01*
X197633852Y-154370942D01*
X197633334Y-154369010D01*
X197634748Y-154367596D01*
X197636377Y-154367865D01*
X197647969Y-154375610D01*
X197700199Y-154386000D01*
X198424801Y-154386000D01*
X198477031Y-154375610D01*
X198490293Y-154366749D01*
X198492289Y-154366618D01*
X198493400Y-154368281D01*
G37*
G36*
X202368400Y-153968281D02*
G01*
X202368067Y-153969523D01*
X202352635Y-153992619D01*
X202358329Y-154021239D01*
X202366148Y-154029058D01*
X202366666Y-154030990D01*
X202365252Y-154032404D01*
X202363623Y-154032135D01*
X202352031Y-154024390D01*
X202299801Y-154014000D01*
X201575199Y-154014000D01*
X201522969Y-154024390D01*
X201509707Y-154033251D01*
X201507711Y-154033382D01*
X201506600Y-154031719D01*
X201506933Y-154030477D01*
X201522365Y-154007381D01*
X201516671Y-153978761D01*
X201508852Y-153970942D01*
X201508334Y-153969010D01*
X201509748Y-153967596D01*
X201511377Y-153967865D01*
X201522969Y-153975610D01*
X201575199Y-153986000D01*
X202299801Y-153986000D01*
X202352031Y-153975610D01*
X202365293Y-153966749D01*
X202367289Y-153966618D01*
X202368400Y-153968281D01*
G37*
G36*
X198493400Y-153968281D02*
G01*
X198493067Y-153969523D01*
X198477635Y-153992619D01*
X198483329Y-154021239D01*
X198491148Y-154029058D01*
X198491666Y-154030990D01*
X198490252Y-154032404D01*
X198488623Y-154032135D01*
X198477031Y-154024390D01*
X198424801Y-154014000D01*
X197700199Y-154014000D01*
X197647969Y-154024390D01*
X197634707Y-154033251D01*
X197632711Y-154033382D01*
X197631600Y-154031719D01*
X197631933Y-154030477D01*
X197647365Y-154007381D01*
X197641671Y-153978761D01*
X197633852Y-153970942D01*
X197633334Y-153969010D01*
X197634748Y-153967596D01*
X197636377Y-153967865D01*
X197647969Y-153975610D01*
X197700199Y-153986000D01*
X198424801Y-153986000D01*
X198477031Y-153975610D01*
X198490293Y-153966749D01*
X198492289Y-153966618D01*
X198493400Y-153968281D01*
G37*
G36*
X200569523Y-152631933D02*
G01*
X200592619Y-152647365D01*
X200621239Y-152641671D01*
X200629058Y-152633852D01*
X200630990Y-152633334D01*
X200632404Y-152634748D01*
X200632135Y-152636377D01*
X200624390Y-152647969D01*
X200614000Y-152700199D01*
X200614000Y-153424801D01*
X200624390Y-153477031D01*
X200633251Y-153490293D01*
X200633382Y-153492289D01*
X200631719Y-153493400D01*
X200630477Y-153493067D01*
X200607381Y-153477635D01*
X200578761Y-153483329D01*
X200570942Y-153491148D01*
X200569010Y-153491666D01*
X200567596Y-153490252D01*
X200567865Y-153488623D01*
X200575610Y-153477031D01*
X200586000Y-153424801D01*
X200586000Y-152700199D01*
X200575610Y-152647969D01*
X200566749Y-152634707D01*
X200566618Y-152632711D01*
X200568281Y-152631600D01*
X200569523Y-152631933D01*
G37*
G36*
X199769523Y-152631933D02*
G01*
X199792619Y-152647365D01*
X199821239Y-152641671D01*
X199829058Y-152633852D01*
X199830990Y-152633334D01*
X199832404Y-152634748D01*
X199832135Y-152636377D01*
X199824390Y-152647969D01*
X199814000Y-152700199D01*
X199814000Y-153424801D01*
X199824390Y-153477031D01*
X199833251Y-153490293D01*
X199833382Y-153492289D01*
X199831719Y-153493400D01*
X199830477Y-153493067D01*
X199807381Y-153477635D01*
X199778761Y-153483329D01*
X199770942Y-153491148D01*
X199769010Y-153491666D01*
X199767596Y-153490252D01*
X199767865Y-153488623D01*
X199775610Y-153477031D01*
X199786000Y-153424801D01*
X199786000Y-152700199D01*
X199775610Y-152647969D01*
X199766749Y-152634707D01*
X199766618Y-152632711D01*
X199768281Y-152631600D01*
X199769523Y-152631933D01*
G37*
G36*
X199369523Y-152631933D02*
G01*
X199392619Y-152647365D01*
X199421239Y-152641671D01*
X199429058Y-152633852D01*
X199430990Y-152633334D01*
X199432404Y-152634748D01*
X199432135Y-152636377D01*
X199424390Y-152647969D01*
X199414000Y-152700199D01*
X199414000Y-153424801D01*
X199424390Y-153477031D01*
X199433251Y-153490293D01*
X199433382Y-153492289D01*
X199431719Y-153493400D01*
X199430477Y-153493067D01*
X199407381Y-153477635D01*
X199378761Y-153483329D01*
X199370942Y-153491148D01*
X199369010Y-153491666D01*
X199367596Y-153490252D01*
X199367865Y-153488623D01*
X199375610Y-153477031D01*
X199386000Y-153424801D01*
X199386000Y-152700199D01*
X199375610Y-152647969D01*
X199366749Y-152634707D01*
X199366618Y-152632711D01*
X199368281Y-152631600D01*
X199369523Y-152631933D01*
G37*
G36*
X198969523Y-152631933D02*
G01*
X198992619Y-152647365D01*
X199021239Y-152641671D01*
X199029058Y-152633852D01*
X199030990Y-152633334D01*
X199032404Y-152634748D01*
X199032135Y-152636377D01*
X199024390Y-152647969D01*
X199014000Y-152700199D01*
X199014000Y-153424801D01*
X199024390Y-153477031D01*
X199033251Y-153490293D01*
X199033382Y-153492289D01*
X199031719Y-153493400D01*
X199030477Y-153493067D01*
X199007381Y-153477635D01*
X198978761Y-153483329D01*
X198970942Y-153491148D01*
X198969010Y-153491666D01*
X198967596Y-153490252D01*
X198967865Y-153488623D01*
X198975610Y-153477031D01*
X198986000Y-153424801D01*
X198986000Y-152700199D01*
X198975610Y-152647969D01*
X198966749Y-152634707D01*
X198966618Y-152632711D01*
X198968281Y-152631600D01*
X198969523Y-152631933D01*
G37*
G36*
X200969523Y-152631933D02*
G01*
X200992619Y-152647365D01*
X201021239Y-152641671D01*
X201029058Y-152633852D01*
X201030990Y-152633334D01*
X201032404Y-152634748D01*
X201032135Y-152636377D01*
X201024390Y-152647969D01*
X201014000Y-152700199D01*
X201014000Y-153424801D01*
X201024390Y-153477031D01*
X201033251Y-153490293D01*
X201033382Y-153492289D01*
X201031719Y-153493400D01*
X201030477Y-153493067D01*
X201007381Y-153477635D01*
X200978761Y-153483329D01*
X200970942Y-153491148D01*
X200969010Y-153491666D01*
X200967596Y-153490252D01*
X200967865Y-153488623D01*
X200975610Y-153477031D01*
X200986000Y-153424801D01*
X200986000Y-152700199D01*
X200975610Y-152647969D01*
X200966749Y-152634707D01*
X200966618Y-152632711D01*
X200968281Y-152631600D01*
X200969523Y-152631933D01*
G37*
G36*
X200169523Y-152631933D02*
G01*
X200192619Y-152647365D01*
X200221239Y-152641671D01*
X200229058Y-152633852D01*
X200230990Y-152633334D01*
X200232404Y-152634748D01*
X200232135Y-152636377D01*
X200224390Y-152647969D01*
X200214000Y-152700199D01*
X200214000Y-153424801D01*
X200224390Y-153477031D01*
X200233251Y-153490293D01*
X200233382Y-153492289D01*
X200231719Y-153493400D01*
X200230477Y-153493067D01*
X200207381Y-153477635D01*
X200178761Y-153483329D01*
X200170942Y-153491148D01*
X200169010Y-153491666D01*
X200167596Y-153490252D01*
X200167865Y-153488623D01*
X200175610Y-153477031D01*
X200186000Y-153424801D01*
X200186000Y-152700199D01*
X200175610Y-152647969D01*
X200166749Y-152634707D01*
X200166618Y-152632711D01*
X200168281Y-152631600D01*
X200169523Y-152631933D01*
G37*
G36*
X216407104Y-145435567D02*
G01*
X216407494Y-145437529D01*
X216406711Y-145438549D01*
X216383618Y-145453979D01*
X216377968Y-145482381D01*
X216394178Y-145506641D01*
X216404395Y-145510874D01*
X216405613Y-145512461D01*
X216404847Y-145514309D01*
X216403240Y-145514684D01*
X216399801Y-145514000D01*
X215400199Y-145514000D01*
X215394790Y-145515076D01*
X215392896Y-145514433D01*
X215392506Y-145512471D01*
X215393289Y-145511451D01*
X215416382Y-145496021D01*
X215422032Y-145467619D01*
X215405822Y-145443359D01*
X215395605Y-145439126D01*
X215394387Y-145437539D01*
X215395153Y-145435691D01*
X215396760Y-145435316D01*
X215400199Y-145436000D01*
X216399801Y-145436000D01*
X216405210Y-145434924D01*
X216407104Y-145435567D01*
G37*
G36*
X218607104Y-145435567D02*
G01*
X218607494Y-145437529D01*
X218606711Y-145438549D01*
X218583618Y-145453979D01*
X218577968Y-145482381D01*
X218594178Y-145506641D01*
X218604395Y-145510874D01*
X218605613Y-145512461D01*
X218604847Y-145514309D01*
X218603240Y-145514684D01*
X218599801Y-145514000D01*
X217600199Y-145514000D01*
X217594790Y-145515076D01*
X217592896Y-145514433D01*
X217592506Y-145512471D01*
X217593289Y-145511451D01*
X217616382Y-145496021D01*
X217622032Y-145467619D01*
X217605822Y-145443359D01*
X217595605Y-145439126D01*
X217594387Y-145437539D01*
X217595153Y-145435691D01*
X217596760Y-145435316D01*
X217600199Y-145436000D01*
X218599801Y-145436000D01*
X218605210Y-145434924D01*
X218607104Y-145435567D01*
G37*
G36*
X218607104Y-144485567D02*
G01*
X218607494Y-144487529D01*
X218606711Y-144488549D01*
X218583618Y-144503979D01*
X218577968Y-144532381D01*
X218594178Y-144556641D01*
X218604395Y-144560874D01*
X218605613Y-144562461D01*
X218604847Y-144564309D01*
X218603240Y-144564684D01*
X218599801Y-144564000D01*
X217600199Y-144564000D01*
X217594790Y-144565076D01*
X217592896Y-144564433D01*
X217592506Y-144562471D01*
X217593289Y-144561451D01*
X217616382Y-144546021D01*
X217622032Y-144517619D01*
X217605822Y-144493359D01*
X217595605Y-144489126D01*
X217594387Y-144487539D01*
X217595153Y-144485691D01*
X217596760Y-144485316D01*
X217600199Y-144486000D01*
X218599801Y-144486000D01*
X218605210Y-144484924D01*
X218607104Y-144485567D01*
G37*
G36*
X216407104Y-144485567D02*
G01*
X216407494Y-144487529D01*
X216406711Y-144488549D01*
X216383618Y-144503979D01*
X216377968Y-144532381D01*
X216394178Y-144556641D01*
X216404395Y-144560874D01*
X216405613Y-144562461D01*
X216404847Y-144564309D01*
X216403240Y-144564684D01*
X216399801Y-144564000D01*
X215400199Y-144564000D01*
X215394790Y-144565076D01*
X215392896Y-144564433D01*
X215392506Y-144562471D01*
X215393289Y-144561451D01*
X215416382Y-144546021D01*
X215422032Y-144517619D01*
X215405822Y-144493359D01*
X215395605Y-144489126D01*
X215394387Y-144487539D01*
X215395153Y-144485691D01*
X215396760Y-144485316D01*
X215400199Y-144486000D01*
X216399801Y-144486000D01*
X216405210Y-144484924D01*
X216407104Y-144485567D01*
G37*
G36*
X186288549Y-123968289D02*
G01*
X186303979Y-123991382D01*
X186332381Y-123997032D01*
X186356641Y-123980822D01*
X186360874Y-123970605D01*
X186362461Y-123969387D01*
X186364309Y-123970153D01*
X186364684Y-123971760D01*
X186364000Y-123975199D01*
X186364000Y-124624801D01*
X186365076Y-124630210D01*
X186364433Y-124632104D01*
X186362471Y-124632494D01*
X186361451Y-124631711D01*
X186346021Y-124608618D01*
X186317619Y-124602968D01*
X186293359Y-124619178D01*
X186289126Y-124629395D01*
X186287539Y-124630613D01*
X186285691Y-124629847D01*
X186285316Y-124628240D01*
X186286000Y-124624801D01*
X186286000Y-123975199D01*
X186284924Y-123969790D01*
X186285567Y-123967896D01*
X186287529Y-123967506D01*
X186288549Y-123968289D01*
G37*
G36*
X185638549Y-123968289D02*
G01*
X185653979Y-123991382D01*
X185682381Y-123997032D01*
X185706641Y-123980822D01*
X185710874Y-123970605D01*
X185712461Y-123969387D01*
X185714309Y-123970153D01*
X185714684Y-123971760D01*
X185714000Y-123975199D01*
X185714000Y-124624801D01*
X185715076Y-124630210D01*
X185714433Y-124632104D01*
X185712471Y-124632494D01*
X185711451Y-124631711D01*
X185696021Y-124608618D01*
X185667619Y-124602968D01*
X185643359Y-124619178D01*
X185639126Y-124629395D01*
X185637539Y-124630613D01*
X185635691Y-124629847D01*
X185635316Y-124628240D01*
X185636000Y-124624801D01*
X185636000Y-123975199D01*
X185634924Y-123969790D01*
X185635567Y-123967896D01*
X185637529Y-123967506D01*
X185638549Y-123968289D01*
G37*
G36*
X198288549Y-106968289D02*
G01*
X198303979Y-106991382D01*
X198332381Y-106997032D01*
X198356641Y-106980822D01*
X198360874Y-106970605D01*
X198362461Y-106969387D01*
X198364309Y-106970153D01*
X198364684Y-106971760D01*
X198364000Y-106975199D01*
X198364000Y-107624801D01*
X198365076Y-107630210D01*
X198364433Y-107632104D01*
X198362471Y-107632494D01*
X198361451Y-107631711D01*
X198346021Y-107608618D01*
X198317619Y-107602968D01*
X198293359Y-107619178D01*
X198289126Y-107629395D01*
X198287539Y-107630613D01*
X198285691Y-107629847D01*
X198285316Y-107628240D01*
X198286000Y-107624801D01*
X198286000Y-106975199D01*
X198284924Y-106969790D01*
X198285567Y-106967896D01*
X198287529Y-106967506D01*
X198288549Y-106968289D01*
G37*
G36*
X197638549Y-106968289D02*
G01*
X197653979Y-106991382D01*
X197682381Y-106997032D01*
X197706641Y-106980822D01*
X197710874Y-106970605D01*
X197712461Y-106969387D01*
X197714309Y-106970153D01*
X197714684Y-106971760D01*
X197714000Y-106975199D01*
X197714000Y-107624801D01*
X197715076Y-107630210D01*
X197714433Y-107632104D01*
X197712471Y-107632494D01*
X197711451Y-107631711D01*
X197696021Y-107608618D01*
X197667619Y-107602968D01*
X197643359Y-107619178D01*
X197639126Y-107629395D01*
X197637539Y-107630613D01*
X197635691Y-107629847D01*
X197635316Y-107628240D01*
X197636000Y-107624801D01*
X197636000Y-106975199D01*
X197634924Y-106969790D01*
X197635567Y-106967896D01*
X197637529Y-106967506D01*
X197638549Y-106968289D01*
G37*
M02*
