M48
; DRILL file {KiCad 6.0.11-3.fc37} date Mon 14 Aug 2023 12:31:05 BST
; FORMAT={-:-/ absolute / metric / decimal}
; #@! TF.CreationDate,2023-08-14T12:31:05+01:00
; #@! TF.GenerationSoftware,Kicad,Pcbnew,6.0.11-3.fc37
; #@! TF.FileFunction,Plated,1,4,PTH
FMAT,2
METRIC
; #@! TA.AperFunction,Plated,PTH,ViaDrill
T1C0.300
; #@! TA.AperFunction,Plated,PTH,ComponentDrill
T2C0.300
; #@! TA.AperFunction,Plated,PTH,ComponentDrill
T3C0.700
; #@! TA.AperFunction,Plated,PTH,ComponentDrill
T4C1.000
; #@! TA.AperFunction,Plated,PTH,ComponentDrill
T5C1.400
; #@! TA.AperFunction,Plated,PTH,ComponentDrill
T6C1.800
%
G90
G05
T1
X175.5Y-102.5
X175.5Y-104.5
X175.5Y-106.5
X175.5Y-108.5
X175.5Y-110.5
X175.5Y-112.5
X175.5Y-114.5
X175.5Y-116.5
X175.5Y-118.5
X175.5Y-120.5
X175.5Y-122.5
X175.5Y-124.5
X175.5Y-126.5
X175.5Y-128.5
X175.5Y-130.5
X175.5Y-132.5
X175.5Y-134.5
X175.5Y-136.5
X175.5Y-138.5
X175.5Y-140.5
X175.5Y-142.5
X175.5Y-144.5
X175.5Y-146.5
X175.5Y-148.5
X175.5Y-150.5
X175.5Y-152.5
X175.5Y-154.5
X175.5Y-156.5
X175.5Y-158.5
X175.5Y-160.5
X175.5Y-162.5
X175.5Y-164.5
X175.5Y-166.5
X175.5Y-168.5
X175.5Y-170.5
X175.5Y-172.5
X175.5Y-174.5
X175.5Y-176.5
X175.5Y-178.5
X176.5Y-109.5
X176.5Y-111.5
X176.5Y-113.5
X176.5Y-115.5
X176.5Y-117.5
X176.5Y-119.5
X176.5Y-121.5
X176.5Y-123.5
X176.5Y-125.5
X176.5Y-127.5
X176.5Y-129.5
X176.5Y-131.5
X176.5Y-133.5
X176.5Y-135.5
X176.5Y-137.5
X176.5Y-139.5
X176.5Y-141.5
X176.5Y-143.5
X176.5Y-145.5
X176.5Y-147.5
X176.5Y-149.5
X176.5Y-151.5
X176.5Y-153.5
X176.5Y-155.5
X176.5Y-157.5
X176.5Y-159.5
X176.5Y-161.5
X176.5Y-163.5
X176.5Y-165.5
X176.5Y-167.5
X176.5Y-169.5
X176.5Y-171.5
X176.5Y-173.5
X176.5Y-175.5
X176.5Y-177.5
X177.5Y-112.5
X177.5Y-178.5
X178.5Y-113.5
X178.5Y-119.0
X178.5Y-177.5
X179.0Y-122.25
X179.25Y-163.25
X179.5Y-112.5
X179.5Y-172.5
X179.5Y-174.5
X179.5Y-176.5
X179.5Y-178.5
X179.75Y-115.75
X180.5Y-113.5
X180.5Y-177.5
X181.0Y-126.75
X181.0Y-166.25
X181.25Y-169.5
X181.25Y-170.5
X181.5Y-112.5
X181.5Y-173.5
X181.5Y-175.5
X181.5Y-178.5
X181.75Y-141.75
X182.0Y-168.5
X182.0Y-171.5
X182.5Y-113.5
X182.5Y-177.5
X182.75Y-169.5
X182.75Y-170.5
X183.5Y-112.5
X183.5Y-148.0
X183.5Y-159.75
X183.5Y-178.5
X183.75Y-144.0
X184.25Y-142.0
X184.25Y-146.0
X184.25Y-163.0
X184.5Y-113.5
X184.5Y-119.0
X184.5Y-135.25
X184.5Y-177.5
X184.75Y-163.85
X184.75Y-165.05
X184.75Y-166.35
X184.85Y-124.25
X185.0Y-147.5
X185.25Y-118.25
X185.25Y-119.75
X185.5Y-112.5
X185.5Y-133.25
X185.5Y-134.5
X185.5Y-145.25
X185.5Y-149.0
X185.5Y-164.5
X185.5Y-178.5
X186.0Y-123.5
X186.0Y-125.0
X186.0Y-135.75
X186.0Y-143.75
X186.0Y-162.0
X186.0Y-163.25
X186.25Y-147.0
X186.5Y-113.5
X186.5Y-133.5
X186.5Y-149.5
X186.5Y-177.5
X187.15Y-124.25
X187.25Y-145.0
X187.25Y-148.0
X187.5Y-112.5
X187.5Y-178.5
X187.55Y-163.45
X187.75Y-115.25
X188.3Y-164.1
X188.5Y-113.5
X188.5Y-177.5
X189.25Y-161.25
X189.25Y-162.75
X189.5Y-112.5
X189.5Y-178.5
X190.0Y-142.25
X190.0Y-162.0
X190.25Y-151.75
X190.5Y-113.5
X190.5Y-177.5
X190.75Y-159.0
X190.75Y-165.5
X191.5Y-112.5
X191.5Y-154.5
X191.5Y-155.5
X191.5Y-178.5
X191.75Y-164.75
X191.75Y-166.25
X192.0Y-140.0
X192.5Y-113.5
X192.5Y-127.0
X192.5Y-154.5
X192.5Y-155.5
X192.5Y-177.5
X192.75Y-164.75
X192.75Y-166.25
X193.0Y-142.0
X193.25Y-123.75
X193.25Y-148.0
X193.5Y-112.5
X193.5Y-154.5
X193.5Y-155.5
X193.5Y-178.5
X193.75Y-165.5
X194.5Y-113.5
X194.5Y-119.75
X194.5Y-177.5
X195.0Y-116.0
X195.25Y-101.25
X195.5Y-106.5
X195.5Y-110.5
X195.5Y-112.5
X195.5Y-123.25
X195.5Y-126.25
X195.5Y-178.5
X196.0Y-102.25
X196.25Y-128.75
X196.5Y-111.5
X196.5Y-113.5
X196.5Y-177.5
X196.75Y-118.25
X196.75Y-132.0
X197.0Y-101.25
X197.1Y-106.1
X197.5Y-112.5
X197.5Y-178.5
X197.75Y-124.0
X197.95Y-106.5
X198.0Y-102.25
X198.0Y-108.75
X198.0Y-109.75
X198.5Y-177.5
X198.75Y-106.0
X198.75Y-131.25
X198.85Y-110.25
X199.0Y-101.25
X199.5Y-109.55
X200.0Y-102.25
X200.0Y-165.05
X200.0Y-166.35
X200.0Y-178.5
X200.5Y-106.5
X200.75Y-122.5
X201.0Y-101.25
X201.25Y-120.0
X201.25Y-125.0
X201.25Y-149.25
X201.5Y-110.5
X201.5Y-112.5
X201.5Y-114.5
X201.5Y-127.0
X201.5Y-177.5
X201.75Y-117.5
X202.0Y-102.25
X202.25Y-149.25
X202.5Y-178.5
X202.75Y-157.25
X203.0Y-101.25
X203.0Y-106.75
X203.0Y-107.75
X203.0Y-108.75
X203.25Y-164.75
X203.25Y-166.25
X203.5Y-177.5
X203.75Y-118.5
X203.76Y-157.75
X203.91Y-106.5
X204.0Y-102.25
X204.0Y-115.0
X204.0Y-125.5
X204.25Y-164.75
X204.25Y-166.25
X204.5Y-110.5
X204.5Y-112.5
X204.5Y-178.5
X204.75Y-101.25
X204.75Y-103.0
X204.75Y-107.75
X204.75Y-108.75
X204.76Y-157.75
X205.0Y-127.5
X205.0Y-131.25
X205.0Y-142.0
X205.5Y-111.5
X205.5Y-113.5
X205.5Y-137.25
X205.5Y-177.5
X205.75Y-152.5
X205.75Y-153.5
X205.75Y-157.75
X206.0Y-127.0
X206.0Y-128.0
X206.0Y-130.75
X206.0Y-131.75
X206.25Y-134.25
X206.25Y-165.5
X206.5Y-112.5
X206.5Y-178.5
X206.75Y-118.0
X207.0Y-156.75
X207.25Y-164.75
X207.5Y-113.5
X207.5Y-177.5
X207.75Y-150.75
X208.25Y-134.5
X208.25Y-164.75
X208.5Y-112.5
X208.5Y-116.25
X208.5Y-178.5
X208.65Y-144.75
X208.75Y-128.5
X208.75Y-139.5
X208.75Y-140.5
X208.75Y-143.75
X208.95Y-125.0
X209.0Y-133.0
X209.25Y-165.5
X209.5Y-113.5
X209.5Y-129.5
X209.5Y-177.5
X209.75Y-139.5
X209.75Y-140.5
X209.75Y-143.5
X210.0Y-131.5
X210.35Y-162.0
X210.5Y-112.5
X210.5Y-178.5
X210.55Y-163.6
X210.75Y-139.5
X210.75Y-140.5
X210.75Y-143.75
X210.85Y-144.75
X211.0Y-127.5
X211.0Y-129.5
X211.5Y-113.5
X211.5Y-177.5
X211.75Y-155.0
X211.75Y-156.0
X211.85Y-165.42
X211.95Y-129.5
X212.25Y-137.5
X212.25Y-139.5
X212.25Y-140.5
X212.25Y-142.4
X212.5Y-112.5
X212.5Y-117.5
X212.5Y-143.75
X212.5Y-144.9
X212.5Y-178.5
X212.75Y-129.0
X213.15Y-128.15
X213.25Y-131.75
X213.25Y-137.5
X213.25Y-139.5
X213.25Y-140.5
X213.25Y-142.4
X213.25Y-155.0
X213.25Y-156.0
X213.5Y-113.5
X213.5Y-177.5
X213.75Y-144.9
X214.0Y-116.25
X214.1Y-162.0
X214.5Y-112.5
X214.5Y-178.5
X214.75Y-134.5
X215.0Y-144.45
X215.05Y-143.5
X215.25Y-124.0
X215.25Y-128.75
X215.25Y-165.05
X215.25Y-166.35
X215.5Y-113.5
X215.5Y-177.5
X216.0Y-143.35
X216.25Y-129.5
X216.5Y-112.5
X216.5Y-126.5
X216.5Y-147.0
X216.5Y-178.5
X217.25Y-124.25
X217.25Y-129.5
X217.25Y-133.75
X217.5Y-113.5
X217.5Y-177.5
X217.75Y-117.5
X217.75Y-119.0
X218.5Y-112.5
X218.5Y-118.25
X218.5Y-126.5
X218.5Y-131.5
X218.5Y-171.5
X218.5Y-173.5
X218.5Y-175.5
X218.5Y-178.5
X219.05Y-148.5
X219.25Y-116.0
X219.25Y-124.0
X219.5Y-113.5
X219.5Y-119.5
X219.5Y-121.75
X219.5Y-177.5
X219.75Y-134.25
X219.75Y-147.75
X219.75Y-163.5
X220.0Y-126.5
X220.5Y-112.5
X220.5Y-172.5
X220.5Y-174.5
X220.5Y-176.5
X220.5Y-178.5
X220.75Y-147.75
X220.75Y-166.5
X221.0Y-135.75
X221.25Y-118.0
X221.5Y-113.5
X221.5Y-177.5
X221.75Y-133.75
X221.75Y-155.0
X221.75Y-156.0
X222.0Y-119.5
X222.0Y-124.5
X222.0Y-126.5
X222.5Y-112.5
X222.5Y-154.0
X222.5Y-157.0
X222.5Y-178.5
X223.0Y-125.5
X223.5Y-109.5
X223.5Y-111.5
X223.5Y-113.5
X223.5Y-115.5
X223.5Y-117.5
X223.5Y-127.5
X223.5Y-129.5
X223.5Y-131.5
X223.5Y-133.5
X223.5Y-135.5
X223.5Y-137.5
X223.5Y-139.5
X223.5Y-141.5
X223.5Y-143.5
X223.5Y-145.5
X223.5Y-147.5
X223.5Y-149.5
X223.5Y-161.5
X223.5Y-163.5
X223.5Y-165.5
X223.5Y-167.5
X223.5Y-169.5
X223.5Y-171.5
X223.5Y-173.5
X223.5Y-175.5
X223.5Y-177.5
X224.0Y-124.5
X224.0Y-126.5
X224.5Y-102.5
X224.5Y-104.5
X224.5Y-106.5
X224.5Y-108.5
X224.5Y-110.5
X224.5Y-112.5
X224.5Y-114.5
X224.5Y-116.5
X224.5Y-119.5
X224.5Y-121.75
X224.5Y-128.5
X224.5Y-130.5
X224.5Y-132.5
X224.5Y-134.5
X224.5Y-136.5
X224.5Y-138.5
X224.5Y-140.5
X224.5Y-142.5
X224.5Y-144.5
X224.5Y-146.5
X224.5Y-148.5
X224.5Y-150.5
X224.5Y-160.5
X224.5Y-162.5
X224.5Y-164.5
X224.5Y-166.5
X224.5Y-168.5
X224.5Y-170.5
X224.5Y-172.5
X224.5Y-174.5
X224.5Y-176.5
X224.5Y-178.5
T2
X199.075Y-154.075
X199.075Y-155.0
X199.075Y-155.925
X200.0Y-154.075
X200.0Y-155.0
X200.0Y-155.925
X200.925Y-154.075
X200.925Y-155.0
X200.925Y-155.925
T3
X196.0Y-104.75
X198.0Y-104.75
X200.0Y-104.75
X202.0Y-104.75
X204.0Y-104.75
T4
X184.76Y-168.25
X184.76Y-170.79
X187.3Y-168.25
X187.3Y-170.79
X189.84Y-168.25
X189.84Y-170.79
X192.38Y-168.25
X192.38Y-170.79
X194.92Y-168.25
X194.92Y-170.79
X197.46Y-168.25
X197.46Y-170.79
X200.0Y-168.25
X200.0Y-170.79
X202.54Y-168.25
X202.54Y-170.79
X205.08Y-168.25
X205.08Y-170.79
X207.62Y-168.25
X207.62Y-170.79
X210.16Y-168.25
X210.16Y-170.79
X212.7Y-168.25
X212.7Y-170.79
X215.24Y-168.25
X215.24Y-170.79
X215.25Y-152.96
X215.25Y-155.5
X215.25Y-158.04
X219.75Y-151.69
X219.75Y-154.23
X219.75Y-156.77
X219.75Y-159.31
T5
X182.19Y-121.75
X184.73Y-121.75
X187.27Y-121.75
X189.81Y-121.75
T6
X205.96Y-121.75
X211.04Y-121.75
X216.96Y-121.75
X222.04Y-121.75
T0
M30
