%TF.GenerationSoftware,KiCad,Pcbnew,6.0.11-3.fc37*%
%TF.CreationDate,2023-08-14T12:31:00+01:00*%
%TF.ProjectId,kitchen-led-strips,6b697463-6865-46e2-9d6c-65642d737472,1.0*%
%TF.SameCoordinates,Original*%
%TF.FileFunction,Copper,L3,Inr*%
%TF.FilePolarity,Positive*%
%FSLAX46Y46*%
G04 Gerber Fmt 4.6, Leading zero omitted, Abs format (unit mm)*
G04 Created by KiCad (PCBNEW 6.0.11-3.fc37) date 2023-08-14 12:31:00*
%MOMM*%
%LPD*%
G01*
G04 APERTURE LIST*
%TA.AperFunction,ComponentPad*%
%ADD10C,0.500000*%
%TD*%
%TA.AperFunction,ComponentPad*%
%ADD11O,3.600000X3.600000*%
%TD*%
%TA.AperFunction,ComponentPad*%
%ADD12O,1.700000X1.700000*%
%TD*%
%TA.AperFunction,ComponentPad*%
%ADD13O,1.350000X1.350000*%
%TD*%
%TA.AperFunction,ComponentPad*%
%ADD14O,2.250000X2.250000*%
%TD*%
%TA.AperFunction,ViaPad*%
%ADD15C,0.450000*%
%TD*%
G04 APERTURE END LIST*
D10*
%TO.N,GND*%
%TO.C,U3*%
X199075000Y-155000000D03*
X200925000Y-155925000D03*
X200925000Y-154075000D03*
X200925000Y-155000000D03*
X199075000Y-155925000D03*
X199075000Y-154075000D03*
X200000000Y-155925000D03*
X200000000Y-154075000D03*
X200000000Y-155000000D03*
%TD*%
D11*
%TO.N,GND*%
%TO.C,CONN1*%
X205960000Y-121750000D03*
%TD*%
D12*
%TO.N,GND*%
%TO.C,CONN5*%
X215240000Y-170790000D03*
X212700000Y-170790000D03*
X210160000Y-170790000D03*
X207620000Y-170790000D03*
X205080000Y-170790000D03*
X202540000Y-170790000D03*
X200000000Y-170790000D03*
X197460000Y-170790000D03*
X194920000Y-170790000D03*
X192380000Y-170790000D03*
X189840000Y-170790000D03*
X187300000Y-170790000D03*
%TD*%
%TO.N,GND*%
%TO.C,CONN7*%
X219750000Y-154230000D03*
%TD*%
D13*
%TO.N,GND*%
%TO.C,CONN4*%
X200000000Y-104750000D03*
%TD*%
D14*
%TO.N,GND*%
%TO.C,CONN3*%
X184730000Y-121750000D03*
%TD*%
D12*
%TO.N,GND*%
%TO.C,CONN6*%
X215250000Y-152960000D03*
%TD*%
D15*
%TO.N,GND*%
X224500000Y-102500000D03*
X224500000Y-104500000D03*
X224500000Y-106500000D03*
X175500000Y-102500000D03*
X175500000Y-104500000D03*
X175500000Y-106500000D03*
X179000000Y-122250000D03*
X196750000Y-132000000D03*
X193000000Y-142000000D03*
X195500000Y-123250000D03*
X196250000Y-128750000D03*
X197750000Y-124000000D03*
X198750000Y-131250000D03*
X201250000Y-125000000D03*
X201250000Y-120000000D03*
X201750000Y-117500000D03*
X200750000Y-122500000D03*
X201500000Y-127000000D03*
X187750000Y-115250000D03*
X195000000Y-116000000D03*
X221000000Y-135750000D03*
X221750000Y-133750000D03*
X217250000Y-133750000D03*
X208250000Y-134500000D03*
X210000000Y-131500000D03*
X204000000Y-125500000D03*
X208500000Y-116250000D03*
X221250000Y-118000000D03*
X219250000Y-116000000D03*
X204000000Y-115000000D03*
X203750000Y-118500000D03*
X206750000Y-118000000D03*
X214000000Y-116250000D03*
X212500000Y-117500000D03*
X181000000Y-126750000D03*
X179750000Y-115750000D03*
X178500000Y-119000000D03*
X194500000Y-119750000D03*
X196750000Y-118250000D03*
X192500000Y-127000000D03*
X195500000Y-126250000D03*
X193250000Y-123750000D03*
X183500000Y-159750000D03*
X190750000Y-159000000D03*
X190250000Y-151750000D03*
X190000000Y-142250000D03*
X192000000Y-140000000D03*
X193250000Y-148000000D03*
X213250000Y-131750000D03*
X218500000Y-131500000D03*
X205000000Y-142000000D03*
X205500000Y-137250000D03*
X209000000Y-133000000D03*
X206250000Y-134250000D03*
X214750000Y-134500000D03*
X219750000Y-134250000D03*
X181500000Y-173500000D03*
X181500000Y-175500000D03*
X179500000Y-172500000D03*
X179500000Y-174500000D03*
X179500000Y-176500000D03*
X220500000Y-176500000D03*
X220500000Y-174500000D03*
X220500000Y-172500000D03*
X218500000Y-171500000D03*
X218500000Y-173500000D03*
X218500000Y-175500000D03*
X220750000Y-166500000D03*
X219750000Y-163500000D03*
X181000000Y-166250000D03*
X179250000Y-163250000D03*
X181750000Y-141750000D03*
X185500000Y-145250000D03*
X184250000Y-142000000D03*
X186000000Y-143750000D03*
X187250000Y-145000000D03*
X185000000Y-147500000D03*
X183500000Y-148000000D03*
X185500000Y-149000000D03*
X186500000Y-149500000D03*
X187250000Y-148000000D03*
X186250000Y-147000000D03*
X184250000Y-146000000D03*
X183750000Y-144000000D03*
X185500000Y-133250000D03*
X184500000Y-135250000D03*
X186000000Y-135750000D03*
X185500000Y-134500000D03*
X186500000Y-133500000D03*
X201500000Y-114500000D03*
X196500000Y-113500000D03*
X205500000Y-113500000D03*
X217500000Y-113500000D03*
X213500000Y-113500000D03*
X207500000Y-113500000D03*
X219500000Y-113500000D03*
X215500000Y-113500000D03*
X221500000Y-113500000D03*
X209500000Y-113500000D03*
X211500000Y-113500000D03*
X178500000Y-113500000D03*
X190500000Y-113500000D03*
X186500000Y-113500000D03*
X180500000Y-113500000D03*
X192500000Y-113500000D03*
X188500000Y-113500000D03*
X194500000Y-113500000D03*
X182500000Y-113500000D03*
X184500000Y-113500000D03*
X205500000Y-111500000D03*
X195500000Y-110500000D03*
X204500000Y-110500000D03*
X201500000Y-110500000D03*
X196500000Y-111500000D03*
X195500000Y-106500000D03*
X200500000Y-106500000D03*
X202000000Y-102250000D03*
X200000000Y-102250000D03*
X198000000Y-102250000D03*
X196000000Y-102250000D03*
X197000000Y-101250000D03*
X199000000Y-101250000D03*
X201000000Y-101250000D03*
X203000000Y-101250000D03*
X204000000Y-102250000D03*
X204750000Y-103000000D03*
X204750000Y-101250000D03*
X195250000Y-101250000D03*
X216500000Y-112500000D03*
X201500000Y-112500000D03*
X220500000Y-112500000D03*
X214500000Y-112500000D03*
X210500000Y-112500000D03*
X212500000Y-112500000D03*
X218500000Y-112500000D03*
X204500000Y-112500000D03*
X206500000Y-112500000D03*
X208500000Y-112500000D03*
X222500000Y-112500000D03*
X191500000Y-112500000D03*
X177500000Y-112500000D03*
X195500000Y-112500000D03*
X189500000Y-112500000D03*
X185500000Y-112500000D03*
X187500000Y-112500000D03*
X193500000Y-112500000D03*
X179500000Y-112500000D03*
X181500000Y-112500000D03*
X183500000Y-112500000D03*
X197500000Y-112500000D03*
X215500000Y-177500000D03*
X201500000Y-177500000D03*
X219500000Y-177500000D03*
X213500000Y-177500000D03*
X209500000Y-177500000D03*
X211500000Y-177500000D03*
X217500000Y-177500000D03*
X203500000Y-177500000D03*
X205500000Y-177500000D03*
X207500000Y-177500000D03*
X221500000Y-177500000D03*
X192500000Y-177500000D03*
X178500000Y-177500000D03*
X196500000Y-177500000D03*
X190500000Y-177500000D03*
X186500000Y-177500000D03*
X188500000Y-177500000D03*
X194500000Y-177500000D03*
X180500000Y-177500000D03*
X182500000Y-177500000D03*
X184500000Y-177500000D03*
X198500000Y-177500000D03*
X223500000Y-161500000D03*
X223500000Y-133500000D03*
X223500000Y-111500000D03*
X223500000Y-113500000D03*
X223500000Y-149500000D03*
X223500000Y-175500000D03*
X223500000Y-171500000D03*
X223500000Y-141500000D03*
X223500000Y-115500000D03*
X223500000Y-139500000D03*
X223500000Y-177500000D03*
X223500000Y-167500000D03*
X223500000Y-165500000D03*
X223500000Y-173500000D03*
X223500000Y-145500000D03*
X223500000Y-169500000D03*
X223500000Y-131500000D03*
X223500000Y-163500000D03*
X223500000Y-147500000D03*
X223500000Y-117500000D03*
X223500000Y-135500000D03*
X223500000Y-127500000D03*
X223500000Y-137500000D03*
X223500000Y-109500000D03*
X223500000Y-143500000D03*
X223500000Y-129500000D03*
X176500000Y-161500000D03*
X176500000Y-153500000D03*
X176500000Y-133500000D03*
X176500000Y-159500000D03*
X176500000Y-111500000D03*
X176500000Y-113500000D03*
X176500000Y-149500000D03*
X176500000Y-175500000D03*
X176500000Y-157500000D03*
X176500000Y-171500000D03*
X176500000Y-141500000D03*
X176500000Y-115500000D03*
X176500000Y-139500000D03*
X176500000Y-123500000D03*
X176500000Y-177500000D03*
X176500000Y-167500000D03*
X176500000Y-151500000D03*
X176500000Y-165500000D03*
X176500000Y-173500000D03*
X176500000Y-145500000D03*
X176500000Y-169500000D03*
X176500000Y-155500000D03*
X176500000Y-121500000D03*
X176500000Y-125500000D03*
X176500000Y-131500000D03*
X176500000Y-163500000D03*
X176500000Y-147500000D03*
X176500000Y-117500000D03*
X176500000Y-135500000D03*
X176500000Y-127500000D03*
X176500000Y-137500000D03*
X176500000Y-119500000D03*
X176500000Y-109500000D03*
X176500000Y-143500000D03*
X176500000Y-129500000D03*
X222500000Y-178500000D03*
X202500000Y-178500000D03*
X179500000Y-178500000D03*
X181500000Y-178500000D03*
X218500000Y-178500000D03*
X210500000Y-178500000D03*
X183500000Y-178500000D03*
X208500000Y-178500000D03*
X191500000Y-178500000D03*
X220500000Y-178500000D03*
X214500000Y-178500000D03*
X189500000Y-178500000D03*
X193500000Y-178500000D03*
X200000000Y-178500000D03*
X216500000Y-178500000D03*
X185500000Y-178500000D03*
X204500000Y-178500000D03*
X195500000Y-178500000D03*
X206500000Y-178500000D03*
X187500000Y-178500000D03*
X177500000Y-178500000D03*
X212500000Y-178500000D03*
X197500000Y-178500000D03*
X224500000Y-160500000D03*
X224500000Y-132500000D03*
X224500000Y-178500000D03*
X224500000Y-110500000D03*
X224500000Y-112500000D03*
X224500000Y-148500000D03*
X224500000Y-174500000D03*
X224500000Y-170500000D03*
X224500000Y-140500000D03*
X224500000Y-114500000D03*
X224500000Y-138500000D03*
X224500000Y-176500000D03*
X224500000Y-166500000D03*
X224500000Y-150500000D03*
X224500000Y-164500000D03*
X224500000Y-172500000D03*
X224500000Y-144500000D03*
X224500000Y-168500000D03*
X224500000Y-130500000D03*
X224500000Y-162500000D03*
X224500000Y-146500000D03*
X224500000Y-116500000D03*
X224500000Y-134500000D03*
X224500000Y-136500000D03*
X224500000Y-108500000D03*
X224500000Y-142500000D03*
X224500000Y-128500000D03*
X175500000Y-168500000D03*
X175500000Y-170500000D03*
X175500000Y-178500000D03*
X175500000Y-176500000D03*
X175500000Y-172500000D03*
X175500000Y-174500000D03*
X175500000Y-160500000D03*
X175500000Y-140500000D03*
X175500000Y-142500000D03*
X175500000Y-166500000D03*
X175500000Y-150500000D03*
X175500000Y-148500000D03*
X175500000Y-152500000D03*
X175500000Y-158500000D03*
X175500000Y-144500000D03*
X175500000Y-162500000D03*
X175500000Y-154500000D03*
X175500000Y-164500000D03*
X175500000Y-146500000D03*
X175500000Y-156500000D03*
X175500000Y-126500000D03*
X175500000Y-128500000D03*
X175500000Y-130500000D03*
X175500000Y-138500000D03*
X175500000Y-136500000D03*
X175500000Y-132500000D03*
X175500000Y-134500000D03*
X175500000Y-124500000D03*
X175500000Y-118500000D03*
X175500000Y-120500000D03*
X175500000Y-122500000D03*
X175500000Y-116500000D03*
X175500000Y-114500000D03*
X175500000Y-112500000D03*
X175500000Y-110500000D03*
X175500000Y-108500000D03*
X208950000Y-125000000D03*
X202250000Y-149250000D03*
X198750000Y-106000000D03*
X191500000Y-155500000D03*
X192750000Y-164750000D03*
X200000000Y-165050000D03*
X206250000Y-165500000D03*
X213250000Y-142400000D03*
X193750000Y-165500000D03*
X192750000Y-166250000D03*
X186000000Y-125000000D03*
X208750000Y-128500000D03*
X213750000Y-144900000D03*
X184500000Y-119000000D03*
X197950000Y-106500000D03*
X212250000Y-142400000D03*
X210750000Y-140500000D03*
X182750000Y-169500000D03*
X212750000Y-129000000D03*
X212500000Y-143750000D03*
X209750000Y-140500000D03*
X205750000Y-153500000D03*
X211950000Y-129500000D03*
X219050000Y-148500000D03*
X217750000Y-117500000D03*
X204250000Y-164750000D03*
X218500000Y-118250000D03*
X215250000Y-166350000D03*
X205750000Y-157750000D03*
X222500000Y-154000000D03*
X189250000Y-162750000D03*
X184750000Y-166350000D03*
X189250000Y-161250000D03*
X221750000Y-155000000D03*
X211000000Y-127500000D03*
X212500000Y-144900000D03*
X216000000Y-143350000D03*
X216250000Y-129500000D03*
X209500000Y-129500000D03*
X205750000Y-152500000D03*
X197100000Y-106100000D03*
X193500000Y-155500000D03*
X192500000Y-155500000D03*
X217250000Y-129500000D03*
X182000000Y-168500000D03*
X211750000Y-156000000D03*
X204250000Y-166250000D03*
X220750000Y-147750000D03*
X211850000Y-165420000D03*
X208750000Y-140500000D03*
X207250000Y-164750000D03*
X204760000Y-157750000D03*
X203000000Y-108750000D03*
X186000000Y-123500000D03*
X185250000Y-118250000D03*
X215050000Y-143500000D03*
X185250000Y-119750000D03*
X216500000Y-147000000D03*
X204750000Y-108750000D03*
X217750000Y-119000000D03*
X210550000Y-163600000D03*
X213250000Y-156000000D03*
X215250000Y-128750000D03*
X181250000Y-169500000D03*
X200000000Y-166350000D03*
X187550000Y-163450000D03*
X212250000Y-140500000D03*
X211000000Y-129500000D03*
X215000000Y-144450000D03*
X215250000Y-165050000D03*
X188300000Y-164100000D03*
X213150000Y-128150000D03*
X184750000Y-165050000D03*
X213250000Y-140500000D03*
X190000000Y-162000000D03*
%TD*%
%TA.AperFunction,Conductor*%
%TO.N,GND*%
G36*
X176981694Y-101018306D02*
G01*
X177000000Y-101062500D01*
X177000000Y-108000000D01*
X195000000Y-108000000D01*
X195000000Y-107750000D01*
X202590458Y-107750000D01*
X202610502Y-107876555D01*
X202668674Y-107990723D01*
X202759277Y-108081326D01*
X202873445Y-108139498D01*
X203000000Y-108159542D01*
X203126555Y-108139498D01*
X203240723Y-108081326D01*
X203331326Y-107990723D01*
X203389498Y-107876555D01*
X203409542Y-107750000D01*
X203389498Y-107623445D01*
X203331326Y-107509277D01*
X203240723Y-107418674D01*
X203185728Y-107390652D01*
X203130936Y-107362734D01*
X203130935Y-107362734D01*
X203126555Y-107360502D01*
X203000000Y-107340458D01*
X202873445Y-107360502D01*
X202869065Y-107362734D01*
X202869064Y-107362734D01*
X202814272Y-107390652D01*
X202759277Y-107418674D01*
X202668674Y-107509277D01*
X202610502Y-107623445D01*
X202590458Y-107750000D01*
X195000000Y-107750000D01*
X195000000Y-106750000D01*
X202590458Y-106750000D01*
X202610502Y-106876555D01*
X202612734Y-106880935D01*
X202612734Y-106880936D01*
X202626918Y-106908773D01*
X202668674Y-106990723D01*
X202759277Y-107081326D01*
X202873445Y-107139498D01*
X203000000Y-107159542D01*
X203126555Y-107139498D01*
X203240723Y-107081326D01*
X203331326Y-106990723D01*
X203373082Y-106908773D01*
X203387266Y-106880936D01*
X203387266Y-106880935D01*
X203389498Y-106876555D01*
X203409542Y-106750000D01*
X203389498Y-106623445D01*
X203331326Y-106509277D01*
X203322049Y-106500000D01*
X203500458Y-106500000D01*
X203520502Y-106626555D01*
X203578674Y-106740723D01*
X203669277Y-106831326D01*
X203783445Y-106889498D01*
X203910000Y-106909542D01*
X204036555Y-106889498D01*
X204150723Y-106831326D01*
X204241326Y-106740723D01*
X204299498Y-106626555D01*
X204319542Y-106500000D01*
X204299498Y-106373445D01*
X204294041Y-106362734D01*
X204243557Y-106263656D01*
X204241326Y-106259277D01*
X204150723Y-106168674D01*
X204036555Y-106110502D01*
X203910000Y-106090458D01*
X203783445Y-106110502D01*
X203669277Y-106168674D01*
X203578674Y-106259277D01*
X203576443Y-106263656D01*
X203525960Y-106362734D01*
X203520502Y-106373445D01*
X203500458Y-106500000D01*
X203322049Y-106500000D01*
X203240723Y-106418674D01*
X203126555Y-106360502D01*
X203000000Y-106340458D01*
X202873445Y-106360502D01*
X202759277Y-106418674D01*
X202668674Y-106509277D01*
X202610502Y-106623445D01*
X202590458Y-106750000D01*
X195000000Y-106750000D01*
X195000000Y-104750000D01*
X195390284Y-104750000D01*
X195411060Y-104907806D01*
X195412626Y-104911588D01*
X195412627Y-104911590D01*
X195470402Y-105051074D01*
X195470404Y-105051078D01*
X195471970Y-105054858D01*
X195568866Y-105181134D01*
X195695142Y-105278030D01*
X195698922Y-105279596D01*
X195698926Y-105279598D01*
X195838410Y-105337373D01*
X195838412Y-105337374D01*
X195842194Y-105338940D01*
X195846256Y-105339475D01*
X195846257Y-105339475D01*
X195958350Y-105354233D01*
X195958356Y-105354233D01*
X195960381Y-105354500D01*
X196039619Y-105354500D01*
X196041644Y-105354233D01*
X196041650Y-105354233D01*
X196153743Y-105339475D01*
X196153744Y-105339475D01*
X196157806Y-105338940D01*
X196161588Y-105337374D01*
X196161590Y-105337373D01*
X196301074Y-105279598D01*
X196301078Y-105279596D01*
X196304858Y-105278030D01*
X196431134Y-105181134D01*
X196528030Y-105054858D01*
X196529596Y-105051078D01*
X196529598Y-105051074D01*
X196587373Y-104911590D01*
X196587374Y-104911588D01*
X196588940Y-104907806D01*
X196609716Y-104750000D01*
X197390284Y-104750000D01*
X197411060Y-104907806D01*
X197412626Y-104911588D01*
X197412627Y-104911590D01*
X197470402Y-105051074D01*
X197470404Y-105051078D01*
X197471970Y-105054858D01*
X197568866Y-105181134D01*
X197695142Y-105278030D01*
X197698922Y-105279596D01*
X197698926Y-105279598D01*
X197838410Y-105337373D01*
X197838412Y-105337374D01*
X197842194Y-105338940D01*
X197846256Y-105339475D01*
X197846257Y-105339475D01*
X197958350Y-105354233D01*
X197958356Y-105354233D01*
X197960381Y-105354500D01*
X198039619Y-105354500D01*
X198041644Y-105354233D01*
X198041650Y-105354233D01*
X198153743Y-105339475D01*
X198153744Y-105339475D01*
X198157806Y-105338940D01*
X198161588Y-105337374D01*
X198161590Y-105337373D01*
X198301074Y-105279598D01*
X198301078Y-105279596D01*
X198304858Y-105278030D01*
X198431134Y-105181134D01*
X198528030Y-105054858D01*
X198529596Y-105051078D01*
X198529598Y-105051074D01*
X198587373Y-104911590D01*
X198587374Y-104911588D01*
X198588940Y-104907806D01*
X198609716Y-104750000D01*
X201390284Y-104750000D01*
X201411060Y-104907806D01*
X201412626Y-104911588D01*
X201412627Y-104911590D01*
X201470402Y-105051074D01*
X201470404Y-105051078D01*
X201471970Y-105054858D01*
X201568866Y-105181134D01*
X201695142Y-105278030D01*
X201698922Y-105279596D01*
X201698926Y-105279598D01*
X201838410Y-105337373D01*
X201838412Y-105337374D01*
X201842194Y-105338940D01*
X201846256Y-105339475D01*
X201846257Y-105339475D01*
X201958350Y-105354233D01*
X201958356Y-105354233D01*
X201960381Y-105354500D01*
X202039619Y-105354500D01*
X202041644Y-105354233D01*
X202041650Y-105354233D01*
X202153743Y-105339475D01*
X202153744Y-105339475D01*
X202157806Y-105338940D01*
X202161588Y-105337374D01*
X202161590Y-105337373D01*
X202301074Y-105279598D01*
X202301078Y-105279596D01*
X202304858Y-105278030D01*
X202431134Y-105181134D01*
X202528030Y-105054858D01*
X202529596Y-105051078D01*
X202529598Y-105051074D01*
X202587373Y-104911590D01*
X202587374Y-104911588D01*
X202588940Y-104907806D01*
X202609716Y-104750000D01*
X203390284Y-104750000D01*
X203411060Y-104907806D01*
X203412626Y-104911588D01*
X203412627Y-104911590D01*
X203470402Y-105051074D01*
X203470404Y-105051078D01*
X203471970Y-105054858D01*
X203568866Y-105181134D01*
X203695142Y-105278030D01*
X203698922Y-105279596D01*
X203698926Y-105279598D01*
X203838410Y-105337373D01*
X203838412Y-105337374D01*
X203842194Y-105338940D01*
X203846256Y-105339475D01*
X203846257Y-105339475D01*
X203958350Y-105354233D01*
X203958356Y-105354233D01*
X203960381Y-105354500D01*
X204039619Y-105354500D01*
X204041644Y-105354233D01*
X204041650Y-105354233D01*
X204153743Y-105339475D01*
X204153744Y-105339475D01*
X204157806Y-105338940D01*
X204161588Y-105337374D01*
X204161590Y-105337373D01*
X204301074Y-105279598D01*
X204301078Y-105279596D01*
X204304858Y-105278030D01*
X204431134Y-105181134D01*
X204528030Y-105054858D01*
X204529596Y-105051078D01*
X204529598Y-105051074D01*
X204587373Y-104911590D01*
X204587374Y-104911588D01*
X204588940Y-104907806D01*
X204609716Y-104750000D01*
X204588940Y-104592194D01*
X204587373Y-104588410D01*
X204529598Y-104448926D01*
X204529596Y-104448922D01*
X204528030Y-104445142D01*
X204431134Y-104318866D01*
X204304858Y-104221970D01*
X204301078Y-104220404D01*
X204301074Y-104220402D01*
X204161590Y-104162627D01*
X204161588Y-104162626D01*
X204157806Y-104161060D01*
X204153744Y-104160525D01*
X204153743Y-104160525D01*
X204041650Y-104145767D01*
X204041644Y-104145767D01*
X204039619Y-104145500D01*
X203960381Y-104145500D01*
X203958356Y-104145767D01*
X203958350Y-104145767D01*
X203846257Y-104160525D01*
X203846256Y-104160525D01*
X203842194Y-104161060D01*
X203838412Y-104162626D01*
X203838410Y-104162627D01*
X203698926Y-104220402D01*
X203698922Y-104220404D01*
X203695142Y-104221970D01*
X203568866Y-104318866D01*
X203471970Y-104445142D01*
X203470404Y-104448922D01*
X203470402Y-104448926D01*
X203412627Y-104588410D01*
X203411060Y-104592194D01*
X203390284Y-104750000D01*
X202609716Y-104750000D01*
X202588940Y-104592194D01*
X202587373Y-104588410D01*
X202529598Y-104448926D01*
X202529596Y-104448922D01*
X202528030Y-104445142D01*
X202431134Y-104318866D01*
X202304858Y-104221970D01*
X202301078Y-104220404D01*
X202301074Y-104220402D01*
X202161590Y-104162627D01*
X202161588Y-104162626D01*
X202157806Y-104161060D01*
X202153744Y-104160525D01*
X202153743Y-104160525D01*
X202041650Y-104145767D01*
X202041644Y-104145767D01*
X202039619Y-104145500D01*
X201960381Y-104145500D01*
X201958356Y-104145767D01*
X201958350Y-104145767D01*
X201846257Y-104160525D01*
X201846256Y-104160525D01*
X201842194Y-104161060D01*
X201838412Y-104162626D01*
X201838410Y-104162627D01*
X201698926Y-104220402D01*
X201698922Y-104220404D01*
X201695142Y-104221970D01*
X201568866Y-104318866D01*
X201471970Y-104445142D01*
X201470404Y-104448922D01*
X201470402Y-104448926D01*
X201412627Y-104588410D01*
X201411060Y-104592194D01*
X201390284Y-104750000D01*
X198609716Y-104750000D01*
X198588940Y-104592194D01*
X198587373Y-104588410D01*
X198529598Y-104448926D01*
X198529596Y-104448922D01*
X198528030Y-104445142D01*
X198431134Y-104318866D01*
X198304858Y-104221970D01*
X198301078Y-104220404D01*
X198301074Y-104220402D01*
X198161590Y-104162627D01*
X198161588Y-104162626D01*
X198157806Y-104161060D01*
X198153744Y-104160525D01*
X198153743Y-104160525D01*
X198041650Y-104145767D01*
X198041644Y-104145767D01*
X198039619Y-104145500D01*
X197960381Y-104145500D01*
X197958356Y-104145767D01*
X197958350Y-104145767D01*
X197846257Y-104160525D01*
X197846256Y-104160525D01*
X197842194Y-104161060D01*
X197838412Y-104162626D01*
X197838410Y-104162627D01*
X197698926Y-104220402D01*
X197698922Y-104220404D01*
X197695142Y-104221970D01*
X197568866Y-104318866D01*
X197471970Y-104445142D01*
X197470404Y-104448922D01*
X197470402Y-104448926D01*
X197412627Y-104588410D01*
X197411060Y-104592194D01*
X197390284Y-104750000D01*
X196609716Y-104750000D01*
X196588940Y-104592194D01*
X196587373Y-104588410D01*
X196529598Y-104448926D01*
X196529596Y-104448922D01*
X196528030Y-104445142D01*
X196431134Y-104318866D01*
X196304858Y-104221970D01*
X196301078Y-104220404D01*
X196301074Y-104220402D01*
X196161590Y-104162627D01*
X196161588Y-104162626D01*
X196157806Y-104161060D01*
X196153744Y-104160525D01*
X196153743Y-104160525D01*
X196041650Y-104145767D01*
X196041644Y-104145767D01*
X196039619Y-104145500D01*
X195960381Y-104145500D01*
X195958356Y-104145767D01*
X195958350Y-104145767D01*
X195846257Y-104160525D01*
X195846256Y-104160525D01*
X195842194Y-104161060D01*
X195838412Y-104162626D01*
X195838410Y-104162627D01*
X195698926Y-104220402D01*
X195698922Y-104220404D01*
X195695142Y-104221970D01*
X195568866Y-104318866D01*
X195471970Y-104445142D01*
X195470404Y-104448922D01*
X195470402Y-104448926D01*
X195412627Y-104588410D01*
X195411060Y-104592194D01*
X195390284Y-104750000D01*
X195000000Y-104750000D01*
X195000000Y-101062500D01*
X195018306Y-101018306D01*
X195062500Y-101000000D01*
X204937500Y-101000000D01*
X204981694Y-101018306D01*
X205000000Y-101062500D01*
X205000000Y-107321409D01*
X204981694Y-107365603D01*
X204937500Y-107383909D01*
X204909126Y-107377097D01*
X204880940Y-107362735D01*
X204880933Y-107362733D01*
X204876555Y-107360502D01*
X204750000Y-107340458D01*
X204623445Y-107360502D01*
X204619065Y-107362734D01*
X204619064Y-107362734D01*
X204564272Y-107390652D01*
X204509277Y-107418674D01*
X204418674Y-107509277D01*
X204360502Y-107623445D01*
X204340458Y-107750000D01*
X204360502Y-107876555D01*
X204418674Y-107990723D01*
X204509277Y-108081326D01*
X204623445Y-108139498D01*
X204750000Y-108159542D01*
X204876555Y-108139498D01*
X204990723Y-108081326D01*
X205053743Y-108018306D01*
X205097937Y-108000000D01*
X223000000Y-108000000D01*
X223000000Y-101062500D01*
X223018306Y-101018306D01*
X223062500Y-101000000D01*
X226437500Y-101000000D01*
X226481694Y-101018306D01*
X226500000Y-101062500D01*
X226500000Y-178937500D01*
X226481694Y-178981694D01*
X226437500Y-179000000D01*
X173562500Y-179000000D01*
X173518306Y-178981694D01*
X173500000Y-178937500D01*
X173500000Y-171500000D01*
X181590458Y-171500000D01*
X181610502Y-171626555D01*
X181668674Y-171740723D01*
X181759277Y-171831326D01*
X181873445Y-171889498D01*
X182000000Y-171909542D01*
X182126555Y-171889498D01*
X182240723Y-171831326D01*
X182331326Y-171740723D01*
X182389498Y-171626555D01*
X182409542Y-171500000D01*
X182389498Y-171373445D01*
X182331326Y-171259277D01*
X182240723Y-171168674D01*
X182126555Y-171110502D01*
X182000000Y-171090458D01*
X181873445Y-171110502D01*
X181759277Y-171168674D01*
X181668674Y-171259277D01*
X181610502Y-171373445D01*
X181590458Y-171500000D01*
X173500000Y-171500000D01*
X173500000Y-170500000D01*
X180840458Y-170500000D01*
X180860502Y-170626555D01*
X180862734Y-170630935D01*
X180862734Y-170630936D01*
X180875240Y-170655480D01*
X180918674Y-170740723D01*
X181009277Y-170831326D01*
X181123445Y-170889498D01*
X181250000Y-170909542D01*
X181376555Y-170889498D01*
X181490723Y-170831326D01*
X181581326Y-170740723D01*
X181624760Y-170655480D01*
X181637266Y-170630936D01*
X181637266Y-170630935D01*
X181639498Y-170626555D01*
X181659542Y-170500000D01*
X182340458Y-170500000D01*
X182360502Y-170626555D01*
X182362734Y-170630935D01*
X182362734Y-170630936D01*
X182375240Y-170655480D01*
X182418674Y-170740723D01*
X182509277Y-170831326D01*
X182623445Y-170889498D01*
X182750000Y-170909542D01*
X182876555Y-170889498D01*
X182990723Y-170831326D01*
X182990969Y-170831080D01*
X184001476Y-170831080D01*
X184031271Y-171004477D01*
X184100156Y-171166368D01*
X184204437Y-171308071D01*
X184338520Y-171421982D01*
X184495212Y-171501993D01*
X184666108Y-171543811D01*
X184673705Y-171544282D01*
X184676245Y-171544440D01*
X184676249Y-171544440D01*
X184677214Y-171544500D01*
X184804053Y-171544500D01*
X184805843Y-171544291D01*
X184805848Y-171544291D01*
X184855824Y-171538464D01*
X184934754Y-171529262D01*
X185100134Y-171469232D01*
X185247268Y-171372766D01*
X185368264Y-171245040D01*
X185456632Y-171092904D01*
X185507630Y-170924520D01*
X185518524Y-170748920D01*
X185488729Y-170575523D01*
X185419844Y-170413632D01*
X185315563Y-170271929D01*
X185181480Y-170158018D01*
X185024788Y-170078007D01*
X184853892Y-170036189D01*
X184846155Y-170035709D01*
X184843755Y-170035560D01*
X184843751Y-170035560D01*
X184842786Y-170035500D01*
X184715947Y-170035500D01*
X184714157Y-170035709D01*
X184714152Y-170035709D01*
X184664176Y-170041536D01*
X184585246Y-170050738D01*
X184419866Y-170110768D01*
X184272732Y-170207234D01*
X184151736Y-170334960D01*
X184063368Y-170487096D01*
X184012370Y-170655480D01*
X184001476Y-170831080D01*
X182990969Y-170831080D01*
X183081326Y-170740723D01*
X183124760Y-170655480D01*
X183137266Y-170630936D01*
X183137266Y-170630935D01*
X183139498Y-170626555D01*
X183159542Y-170500000D01*
X183139498Y-170373445D01*
X183081326Y-170259277D01*
X182990723Y-170168674D01*
X182876555Y-170110502D01*
X182750000Y-170090458D01*
X182623445Y-170110502D01*
X182509277Y-170168674D01*
X182418674Y-170259277D01*
X182360502Y-170373445D01*
X182340458Y-170500000D01*
X181659542Y-170500000D01*
X181639498Y-170373445D01*
X181581326Y-170259277D01*
X181490723Y-170168674D01*
X181376555Y-170110502D01*
X181250000Y-170090458D01*
X181123445Y-170110502D01*
X181009277Y-170168674D01*
X180918674Y-170259277D01*
X180860502Y-170373445D01*
X180840458Y-170500000D01*
X173500000Y-170500000D01*
X173500000Y-168291080D01*
X184001476Y-168291080D01*
X184031271Y-168464477D01*
X184100156Y-168626368D01*
X184204437Y-168768071D01*
X184338520Y-168881982D01*
X184495212Y-168961993D01*
X184666108Y-169003811D01*
X184673705Y-169004282D01*
X184676245Y-169004440D01*
X184676249Y-169004440D01*
X184677214Y-169004500D01*
X184804053Y-169004500D01*
X184805843Y-169004291D01*
X184805848Y-169004291D01*
X184855824Y-168998464D01*
X184934754Y-168989262D01*
X185100134Y-168929232D01*
X185247268Y-168832766D01*
X185368264Y-168705040D01*
X185456632Y-168552904D01*
X185507630Y-168384520D01*
X185513427Y-168291080D01*
X186541476Y-168291080D01*
X186571271Y-168464477D01*
X186640156Y-168626368D01*
X186744437Y-168768071D01*
X186878520Y-168881982D01*
X187035212Y-168961993D01*
X187206108Y-169003811D01*
X187213705Y-169004282D01*
X187216245Y-169004440D01*
X187216249Y-169004440D01*
X187217214Y-169004500D01*
X187344053Y-169004500D01*
X187345843Y-169004291D01*
X187345848Y-169004291D01*
X187395824Y-168998464D01*
X187474754Y-168989262D01*
X187640134Y-168929232D01*
X187787268Y-168832766D01*
X187908264Y-168705040D01*
X187996632Y-168552904D01*
X188047630Y-168384520D01*
X188053427Y-168291080D01*
X189081476Y-168291080D01*
X189111271Y-168464477D01*
X189180156Y-168626368D01*
X189284437Y-168768071D01*
X189418520Y-168881982D01*
X189575212Y-168961993D01*
X189746108Y-169003811D01*
X189753705Y-169004282D01*
X189756245Y-169004440D01*
X189756249Y-169004440D01*
X189757214Y-169004500D01*
X189884053Y-169004500D01*
X189885843Y-169004291D01*
X189885848Y-169004291D01*
X189935824Y-168998464D01*
X190014754Y-168989262D01*
X190180134Y-168929232D01*
X190327268Y-168832766D01*
X190448264Y-168705040D01*
X190536632Y-168552904D01*
X190587630Y-168384520D01*
X190593427Y-168291080D01*
X191621476Y-168291080D01*
X191651271Y-168464477D01*
X191720156Y-168626368D01*
X191824437Y-168768071D01*
X191958520Y-168881982D01*
X192115212Y-168961993D01*
X192286108Y-169003811D01*
X192293705Y-169004282D01*
X192296245Y-169004440D01*
X192296249Y-169004440D01*
X192297214Y-169004500D01*
X192424053Y-169004500D01*
X192425843Y-169004291D01*
X192425848Y-169004291D01*
X192475824Y-168998464D01*
X192554754Y-168989262D01*
X192720134Y-168929232D01*
X192867268Y-168832766D01*
X192988264Y-168705040D01*
X193076632Y-168552904D01*
X193127630Y-168384520D01*
X193133427Y-168291080D01*
X194161476Y-168291080D01*
X194191271Y-168464477D01*
X194260156Y-168626368D01*
X194364437Y-168768071D01*
X194498520Y-168881982D01*
X194655212Y-168961993D01*
X194826108Y-169003811D01*
X194833705Y-169004282D01*
X194836245Y-169004440D01*
X194836249Y-169004440D01*
X194837214Y-169004500D01*
X194964053Y-169004500D01*
X194965843Y-169004291D01*
X194965848Y-169004291D01*
X195015824Y-168998464D01*
X195094754Y-168989262D01*
X195260134Y-168929232D01*
X195407268Y-168832766D01*
X195528264Y-168705040D01*
X195616632Y-168552904D01*
X195667630Y-168384520D01*
X195673427Y-168291080D01*
X196701476Y-168291080D01*
X196731271Y-168464477D01*
X196800156Y-168626368D01*
X196904437Y-168768071D01*
X197038520Y-168881982D01*
X197195212Y-168961993D01*
X197366108Y-169003811D01*
X197373705Y-169004282D01*
X197376245Y-169004440D01*
X197376249Y-169004440D01*
X197377214Y-169004500D01*
X197504053Y-169004500D01*
X197505843Y-169004291D01*
X197505848Y-169004291D01*
X197555824Y-168998464D01*
X197634754Y-168989262D01*
X197800134Y-168929232D01*
X197947268Y-168832766D01*
X198068264Y-168705040D01*
X198156632Y-168552904D01*
X198207630Y-168384520D01*
X198213427Y-168291080D01*
X199241476Y-168291080D01*
X199271271Y-168464477D01*
X199340156Y-168626368D01*
X199444437Y-168768071D01*
X199578520Y-168881982D01*
X199735212Y-168961993D01*
X199906108Y-169003811D01*
X199913705Y-169004282D01*
X199916245Y-169004440D01*
X199916249Y-169004440D01*
X199917214Y-169004500D01*
X200044053Y-169004500D01*
X200045843Y-169004291D01*
X200045848Y-169004291D01*
X200095824Y-168998464D01*
X200174754Y-168989262D01*
X200340134Y-168929232D01*
X200487268Y-168832766D01*
X200608264Y-168705040D01*
X200696632Y-168552904D01*
X200747630Y-168384520D01*
X200753427Y-168291080D01*
X201781476Y-168291080D01*
X201811271Y-168464477D01*
X201880156Y-168626368D01*
X201984437Y-168768071D01*
X202118520Y-168881982D01*
X202275212Y-168961993D01*
X202446108Y-169003811D01*
X202453705Y-169004282D01*
X202456245Y-169004440D01*
X202456249Y-169004440D01*
X202457214Y-169004500D01*
X202584053Y-169004500D01*
X202585843Y-169004291D01*
X202585848Y-169004291D01*
X202635824Y-168998464D01*
X202714754Y-168989262D01*
X202880134Y-168929232D01*
X203027268Y-168832766D01*
X203148264Y-168705040D01*
X203236632Y-168552904D01*
X203287630Y-168384520D01*
X203293427Y-168291080D01*
X204321476Y-168291080D01*
X204351271Y-168464477D01*
X204420156Y-168626368D01*
X204524437Y-168768071D01*
X204658520Y-168881982D01*
X204815212Y-168961993D01*
X204986108Y-169003811D01*
X204993705Y-169004282D01*
X204996245Y-169004440D01*
X204996249Y-169004440D01*
X204997214Y-169004500D01*
X205124053Y-169004500D01*
X205125843Y-169004291D01*
X205125848Y-169004291D01*
X205175824Y-168998464D01*
X205254754Y-168989262D01*
X205420134Y-168929232D01*
X205567268Y-168832766D01*
X205688264Y-168705040D01*
X205776632Y-168552904D01*
X205827630Y-168384520D01*
X205833427Y-168291080D01*
X206861476Y-168291080D01*
X206891271Y-168464477D01*
X206960156Y-168626368D01*
X207064437Y-168768071D01*
X207198520Y-168881982D01*
X207355212Y-168961993D01*
X207526108Y-169003811D01*
X207533705Y-169004282D01*
X207536245Y-169004440D01*
X207536249Y-169004440D01*
X207537214Y-169004500D01*
X207664053Y-169004500D01*
X207665843Y-169004291D01*
X207665848Y-169004291D01*
X207715824Y-168998464D01*
X207794754Y-168989262D01*
X207960134Y-168929232D01*
X208107268Y-168832766D01*
X208228264Y-168705040D01*
X208316632Y-168552904D01*
X208367630Y-168384520D01*
X208373427Y-168291080D01*
X209401476Y-168291080D01*
X209431271Y-168464477D01*
X209500156Y-168626368D01*
X209604437Y-168768071D01*
X209738520Y-168881982D01*
X209895212Y-168961993D01*
X210066108Y-169003811D01*
X210073705Y-169004282D01*
X210076245Y-169004440D01*
X210076249Y-169004440D01*
X210077214Y-169004500D01*
X210204053Y-169004500D01*
X210205843Y-169004291D01*
X210205848Y-169004291D01*
X210255824Y-168998464D01*
X210334754Y-168989262D01*
X210500134Y-168929232D01*
X210647268Y-168832766D01*
X210768264Y-168705040D01*
X210856632Y-168552904D01*
X210907630Y-168384520D01*
X210913427Y-168291080D01*
X211941476Y-168291080D01*
X211971271Y-168464477D01*
X212040156Y-168626368D01*
X212144437Y-168768071D01*
X212278520Y-168881982D01*
X212435212Y-168961993D01*
X212606108Y-169003811D01*
X212613705Y-169004282D01*
X212616245Y-169004440D01*
X212616249Y-169004440D01*
X212617214Y-169004500D01*
X212744053Y-169004500D01*
X212745843Y-169004291D01*
X212745848Y-169004291D01*
X212795824Y-168998464D01*
X212874754Y-168989262D01*
X213040134Y-168929232D01*
X213187268Y-168832766D01*
X213308264Y-168705040D01*
X213396632Y-168552904D01*
X213447630Y-168384520D01*
X213453427Y-168291080D01*
X214481476Y-168291080D01*
X214511271Y-168464477D01*
X214580156Y-168626368D01*
X214684437Y-168768071D01*
X214818520Y-168881982D01*
X214975212Y-168961993D01*
X215146108Y-169003811D01*
X215153705Y-169004282D01*
X215156245Y-169004440D01*
X215156249Y-169004440D01*
X215157214Y-169004500D01*
X215284053Y-169004500D01*
X215285843Y-169004291D01*
X215285848Y-169004291D01*
X215335824Y-168998464D01*
X215414754Y-168989262D01*
X215580134Y-168929232D01*
X215727268Y-168832766D01*
X215848264Y-168705040D01*
X215936632Y-168552904D01*
X215987630Y-168384520D01*
X215998524Y-168208920D01*
X215968729Y-168035523D01*
X215899844Y-167873632D01*
X215795563Y-167731929D01*
X215661480Y-167618018D01*
X215504788Y-167538007D01*
X215333892Y-167496189D01*
X215326155Y-167495709D01*
X215323755Y-167495560D01*
X215323751Y-167495560D01*
X215322786Y-167495500D01*
X215195947Y-167495500D01*
X215194157Y-167495709D01*
X215194152Y-167495709D01*
X215144176Y-167501536D01*
X215065246Y-167510738D01*
X214899866Y-167570768D01*
X214752732Y-167667234D01*
X214631736Y-167794960D01*
X214543368Y-167947096D01*
X214492370Y-168115480D01*
X214481476Y-168291080D01*
X213453427Y-168291080D01*
X213458524Y-168208920D01*
X213428729Y-168035523D01*
X213359844Y-167873632D01*
X213255563Y-167731929D01*
X213121480Y-167618018D01*
X212964788Y-167538007D01*
X212793892Y-167496189D01*
X212786155Y-167495709D01*
X212783755Y-167495560D01*
X212783751Y-167495560D01*
X212782786Y-167495500D01*
X212655947Y-167495500D01*
X212654157Y-167495709D01*
X212654152Y-167495709D01*
X212604176Y-167501536D01*
X212525246Y-167510738D01*
X212359866Y-167570768D01*
X212212732Y-167667234D01*
X212091736Y-167794960D01*
X212003368Y-167947096D01*
X211952370Y-168115480D01*
X211941476Y-168291080D01*
X210913427Y-168291080D01*
X210918524Y-168208920D01*
X210888729Y-168035523D01*
X210819844Y-167873632D01*
X210715563Y-167731929D01*
X210581480Y-167618018D01*
X210424788Y-167538007D01*
X210253892Y-167496189D01*
X210246155Y-167495709D01*
X210243755Y-167495560D01*
X210243751Y-167495560D01*
X210242786Y-167495500D01*
X210115947Y-167495500D01*
X210114157Y-167495709D01*
X210114152Y-167495709D01*
X210064176Y-167501536D01*
X209985246Y-167510738D01*
X209819866Y-167570768D01*
X209672732Y-167667234D01*
X209551736Y-167794960D01*
X209463368Y-167947096D01*
X209412370Y-168115480D01*
X209401476Y-168291080D01*
X208373427Y-168291080D01*
X208378524Y-168208920D01*
X208348729Y-168035523D01*
X208279844Y-167873632D01*
X208175563Y-167731929D01*
X208041480Y-167618018D01*
X207884788Y-167538007D01*
X207713892Y-167496189D01*
X207706155Y-167495709D01*
X207703755Y-167495560D01*
X207703751Y-167495560D01*
X207702786Y-167495500D01*
X207575947Y-167495500D01*
X207574157Y-167495709D01*
X207574152Y-167495709D01*
X207524176Y-167501536D01*
X207445246Y-167510738D01*
X207279866Y-167570768D01*
X207132732Y-167667234D01*
X207011736Y-167794960D01*
X206923368Y-167947096D01*
X206872370Y-168115480D01*
X206861476Y-168291080D01*
X205833427Y-168291080D01*
X205838524Y-168208920D01*
X205808729Y-168035523D01*
X205739844Y-167873632D01*
X205635563Y-167731929D01*
X205501480Y-167618018D01*
X205344788Y-167538007D01*
X205173892Y-167496189D01*
X205166155Y-167495709D01*
X205163755Y-167495560D01*
X205163751Y-167495560D01*
X205162786Y-167495500D01*
X205035947Y-167495500D01*
X205034157Y-167495709D01*
X205034152Y-167495709D01*
X204984176Y-167501536D01*
X204905246Y-167510738D01*
X204739866Y-167570768D01*
X204592732Y-167667234D01*
X204471736Y-167794960D01*
X204383368Y-167947096D01*
X204332370Y-168115480D01*
X204321476Y-168291080D01*
X203293427Y-168291080D01*
X203298524Y-168208920D01*
X203268729Y-168035523D01*
X203199844Y-167873632D01*
X203095563Y-167731929D01*
X202961480Y-167618018D01*
X202804788Y-167538007D01*
X202633892Y-167496189D01*
X202626155Y-167495709D01*
X202623755Y-167495560D01*
X202623751Y-167495560D01*
X202622786Y-167495500D01*
X202495947Y-167495500D01*
X202494157Y-167495709D01*
X202494152Y-167495709D01*
X202444176Y-167501536D01*
X202365246Y-167510738D01*
X202199866Y-167570768D01*
X202052732Y-167667234D01*
X201931736Y-167794960D01*
X201843368Y-167947096D01*
X201792370Y-168115480D01*
X201781476Y-168291080D01*
X200753427Y-168291080D01*
X200758524Y-168208920D01*
X200728729Y-168035523D01*
X200659844Y-167873632D01*
X200555563Y-167731929D01*
X200421480Y-167618018D01*
X200264788Y-167538007D01*
X200093892Y-167496189D01*
X200086155Y-167495709D01*
X200083755Y-167495560D01*
X200083751Y-167495560D01*
X200082786Y-167495500D01*
X199955947Y-167495500D01*
X199954157Y-167495709D01*
X199954152Y-167495709D01*
X199904176Y-167501536D01*
X199825246Y-167510738D01*
X199659866Y-167570768D01*
X199512732Y-167667234D01*
X199391736Y-167794960D01*
X199303368Y-167947096D01*
X199252370Y-168115480D01*
X199241476Y-168291080D01*
X198213427Y-168291080D01*
X198218524Y-168208920D01*
X198188729Y-168035523D01*
X198119844Y-167873632D01*
X198015563Y-167731929D01*
X197881480Y-167618018D01*
X197724788Y-167538007D01*
X197553892Y-167496189D01*
X197546155Y-167495709D01*
X197543755Y-167495560D01*
X197543751Y-167495560D01*
X197542786Y-167495500D01*
X197415947Y-167495500D01*
X197414157Y-167495709D01*
X197414152Y-167495709D01*
X197364176Y-167501536D01*
X197285246Y-167510738D01*
X197119866Y-167570768D01*
X196972732Y-167667234D01*
X196851736Y-167794960D01*
X196763368Y-167947096D01*
X196712370Y-168115480D01*
X196701476Y-168291080D01*
X195673427Y-168291080D01*
X195678524Y-168208920D01*
X195648729Y-168035523D01*
X195579844Y-167873632D01*
X195475563Y-167731929D01*
X195341480Y-167618018D01*
X195184788Y-167538007D01*
X195013892Y-167496189D01*
X195006155Y-167495709D01*
X195003755Y-167495560D01*
X195003751Y-167495560D01*
X195002786Y-167495500D01*
X194875947Y-167495500D01*
X194874157Y-167495709D01*
X194874152Y-167495709D01*
X194824176Y-167501536D01*
X194745246Y-167510738D01*
X194579866Y-167570768D01*
X194432732Y-167667234D01*
X194311736Y-167794960D01*
X194223368Y-167947096D01*
X194172370Y-168115480D01*
X194161476Y-168291080D01*
X193133427Y-168291080D01*
X193138524Y-168208920D01*
X193108729Y-168035523D01*
X193039844Y-167873632D01*
X192935563Y-167731929D01*
X192801480Y-167618018D01*
X192644788Y-167538007D01*
X192473892Y-167496189D01*
X192466155Y-167495709D01*
X192463755Y-167495560D01*
X192463751Y-167495560D01*
X192462786Y-167495500D01*
X192335947Y-167495500D01*
X192334157Y-167495709D01*
X192334152Y-167495709D01*
X192284176Y-167501536D01*
X192205246Y-167510738D01*
X192039866Y-167570768D01*
X191892732Y-167667234D01*
X191771736Y-167794960D01*
X191683368Y-167947096D01*
X191632370Y-168115480D01*
X191621476Y-168291080D01*
X190593427Y-168291080D01*
X190598524Y-168208920D01*
X190568729Y-168035523D01*
X190499844Y-167873632D01*
X190395563Y-167731929D01*
X190261480Y-167618018D01*
X190104788Y-167538007D01*
X189933892Y-167496189D01*
X189926155Y-167495709D01*
X189923755Y-167495560D01*
X189923751Y-167495560D01*
X189922786Y-167495500D01*
X189795947Y-167495500D01*
X189794157Y-167495709D01*
X189794152Y-167495709D01*
X189744176Y-167501536D01*
X189665246Y-167510738D01*
X189499866Y-167570768D01*
X189352732Y-167667234D01*
X189231736Y-167794960D01*
X189143368Y-167947096D01*
X189092370Y-168115480D01*
X189081476Y-168291080D01*
X188053427Y-168291080D01*
X188058524Y-168208920D01*
X188028729Y-168035523D01*
X187959844Y-167873632D01*
X187855563Y-167731929D01*
X187721480Y-167618018D01*
X187564788Y-167538007D01*
X187393892Y-167496189D01*
X187386155Y-167495709D01*
X187383755Y-167495560D01*
X187383751Y-167495560D01*
X187382786Y-167495500D01*
X187255947Y-167495500D01*
X187254157Y-167495709D01*
X187254152Y-167495709D01*
X187204176Y-167501536D01*
X187125246Y-167510738D01*
X186959866Y-167570768D01*
X186812732Y-167667234D01*
X186691736Y-167794960D01*
X186603368Y-167947096D01*
X186552370Y-168115480D01*
X186541476Y-168291080D01*
X185513427Y-168291080D01*
X185518524Y-168208920D01*
X185488729Y-168035523D01*
X185419844Y-167873632D01*
X185315563Y-167731929D01*
X185181480Y-167618018D01*
X185024788Y-167538007D01*
X184853892Y-167496189D01*
X184846155Y-167495709D01*
X184843755Y-167495560D01*
X184843751Y-167495560D01*
X184842786Y-167495500D01*
X184715947Y-167495500D01*
X184714157Y-167495709D01*
X184714152Y-167495709D01*
X184664176Y-167501536D01*
X184585246Y-167510738D01*
X184419866Y-167570768D01*
X184272732Y-167667234D01*
X184151736Y-167794960D01*
X184063368Y-167947096D01*
X184012370Y-168115480D01*
X184001476Y-168291080D01*
X173500000Y-168291080D01*
X173500000Y-166250000D01*
X191340458Y-166250000D01*
X191360502Y-166376555D01*
X191418674Y-166490723D01*
X191509277Y-166581326D01*
X191623445Y-166639498D01*
X191750000Y-166659542D01*
X191876555Y-166639498D01*
X191990723Y-166581326D01*
X192081326Y-166490723D01*
X192139498Y-166376555D01*
X192159542Y-166250000D01*
X202840458Y-166250000D01*
X202860502Y-166376555D01*
X202918674Y-166490723D01*
X203009277Y-166581326D01*
X203123445Y-166639498D01*
X203250000Y-166659542D01*
X203376555Y-166639498D01*
X203490723Y-166581326D01*
X203581326Y-166490723D01*
X203639498Y-166376555D01*
X203659542Y-166250000D01*
X203639498Y-166123445D01*
X203581326Y-166009277D01*
X203490723Y-165918674D01*
X203376555Y-165860502D01*
X203250000Y-165840458D01*
X203123445Y-165860502D01*
X203009277Y-165918674D01*
X202918674Y-166009277D01*
X202860502Y-166123445D01*
X202840458Y-166250000D01*
X192159542Y-166250000D01*
X192139498Y-166123445D01*
X192081326Y-166009277D01*
X191990723Y-165918674D01*
X191876555Y-165860502D01*
X191750000Y-165840458D01*
X191623445Y-165860502D01*
X191509277Y-165918674D01*
X191418674Y-166009277D01*
X191360502Y-166123445D01*
X191340458Y-166250000D01*
X173500000Y-166250000D01*
X173500000Y-165500000D01*
X190340458Y-165500000D01*
X190360502Y-165626555D01*
X190418674Y-165740723D01*
X190509277Y-165831326D01*
X190623445Y-165889498D01*
X190750000Y-165909542D01*
X190876555Y-165889498D01*
X190990723Y-165831326D01*
X191081326Y-165740723D01*
X191139498Y-165626555D01*
X191159542Y-165500000D01*
X208840458Y-165500000D01*
X208860502Y-165626555D01*
X208918674Y-165740723D01*
X209009277Y-165831326D01*
X209123445Y-165889498D01*
X209250000Y-165909542D01*
X209376555Y-165889498D01*
X209490723Y-165831326D01*
X209581326Y-165740723D01*
X209639498Y-165626555D01*
X209659542Y-165500000D01*
X209639498Y-165373445D01*
X209581326Y-165259277D01*
X209490723Y-165168674D01*
X209376555Y-165110502D01*
X209250000Y-165090458D01*
X209123445Y-165110502D01*
X209009277Y-165168674D01*
X208918674Y-165259277D01*
X208860502Y-165373445D01*
X208840458Y-165500000D01*
X191159542Y-165500000D01*
X191139498Y-165373445D01*
X191081326Y-165259277D01*
X190990723Y-165168674D01*
X190876555Y-165110502D01*
X190750000Y-165090458D01*
X190623445Y-165110502D01*
X190509277Y-165168674D01*
X190418674Y-165259277D01*
X190360502Y-165373445D01*
X190340458Y-165500000D01*
X173500000Y-165500000D01*
X173500000Y-164500000D01*
X185090458Y-164500000D01*
X185110502Y-164626555D01*
X185168674Y-164740723D01*
X185259277Y-164831326D01*
X185373445Y-164889498D01*
X185500000Y-164909542D01*
X185626555Y-164889498D01*
X185740723Y-164831326D01*
X185822049Y-164750000D01*
X191340458Y-164750000D01*
X191360502Y-164876555D01*
X191362734Y-164880935D01*
X191362734Y-164880936D01*
X191376918Y-164908773D01*
X191418674Y-164990723D01*
X191509277Y-165081326D01*
X191623445Y-165139498D01*
X191750000Y-165159542D01*
X191876555Y-165139498D01*
X191990723Y-165081326D01*
X192081326Y-164990723D01*
X192123082Y-164908773D01*
X192137266Y-164880936D01*
X192137266Y-164880935D01*
X192139498Y-164876555D01*
X192159542Y-164750000D01*
X202840458Y-164750000D01*
X202860502Y-164876555D01*
X202862734Y-164880935D01*
X202862734Y-164880936D01*
X202876918Y-164908773D01*
X202918674Y-164990723D01*
X203009277Y-165081326D01*
X203123445Y-165139498D01*
X203250000Y-165159542D01*
X203376555Y-165139498D01*
X203490723Y-165081326D01*
X203581326Y-164990723D01*
X203623082Y-164908773D01*
X203637266Y-164880936D01*
X203637266Y-164880935D01*
X203639498Y-164876555D01*
X203659542Y-164750000D01*
X207840458Y-164750000D01*
X207860502Y-164876555D01*
X207862734Y-164880935D01*
X207862734Y-164880936D01*
X207876918Y-164908773D01*
X207918674Y-164990723D01*
X208009277Y-165081326D01*
X208123445Y-165139498D01*
X208250000Y-165159542D01*
X208376555Y-165139498D01*
X208490723Y-165081326D01*
X208581326Y-164990723D01*
X208623082Y-164908773D01*
X208637266Y-164880936D01*
X208637266Y-164880935D01*
X208639498Y-164876555D01*
X208659542Y-164750000D01*
X208639498Y-164623445D01*
X208581326Y-164509277D01*
X208490723Y-164418674D01*
X208376555Y-164360502D01*
X208250000Y-164340458D01*
X208123445Y-164360502D01*
X208009277Y-164418674D01*
X207918674Y-164509277D01*
X207860502Y-164623445D01*
X207840458Y-164750000D01*
X203659542Y-164750000D01*
X203639498Y-164623445D01*
X203581326Y-164509277D01*
X203490723Y-164418674D01*
X203376555Y-164360502D01*
X203250000Y-164340458D01*
X203123445Y-164360502D01*
X203009277Y-164418674D01*
X202918674Y-164509277D01*
X202860502Y-164623445D01*
X202840458Y-164750000D01*
X192159542Y-164750000D01*
X192139498Y-164623445D01*
X192081326Y-164509277D01*
X191990723Y-164418674D01*
X191876555Y-164360502D01*
X191750000Y-164340458D01*
X191623445Y-164360502D01*
X191509277Y-164418674D01*
X191418674Y-164509277D01*
X191360502Y-164623445D01*
X191340458Y-164750000D01*
X185822049Y-164750000D01*
X185831326Y-164740723D01*
X185889498Y-164626555D01*
X185909542Y-164500000D01*
X185889498Y-164373445D01*
X185884041Y-164362734D01*
X185833557Y-164263656D01*
X185831326Y-164259277D01*
X185740723Y-164168674D01*
X185626555Y-164110502D01*
X185500000Y-164090458D01*
X185373445Y-164110502D01*
X185259277Y-164168674D01*
X185168674Y-164259277D01*
X185166443Y-164263656D01*
X185115960Y-164362734D01*
X185110502Y-164373445D01*
X185090458Y-164500000D01*
X173500000Y-164500000D01*
X173500000Y-163850000D01*
X184340458Y-163850000D01*
X184360502Y-163976555D01*
X184418674Y-164090723D01*
X184509277Y-164181326D01*
X184623445Y-164239498D01*
X184750000Y-164259542D01*
X184876555Y-164239498D01*
X184990723Y-164181326D01*
X185081326Y-164090723D01*
X185139498Y-163976555D01*
X185159542Y-163850000D01*
X185139498Y-163723445D01*
X185081326Y-163609277D01*
X184990723Y-163518674D01*
X184876555Y-163460502D01*
X184750000Y-163440458D01*
X184623445Y-163460502D01*
X184509277Y-163518674D01*
X184418674Y-163609277D01*
X184360502Y-163723445D01*
X184340458Y-163850000D01*
X173500000Y-163850000D01*
X173500000Y-163000000D01*
X183840458Y-163000000D01*
X183860502Y-163126555D01*
X183918674Y-163240723D01*
X184009277Y-163331326D01*
X184123445Y-163389498D01*
X184250000Y-163409542D01*
X184376555Y-163389498D01*
X184490723Y-163331326D01*
X184572049Y-163250000D01*
X185590458Y-163250000D01*
X185610502Y-163376555D01*
X185612734Y-163380935D01*
X185612734Y-163380936D01*
X185626918Y-163408773D01*
X185668674Y-163490723D01*
X185759277Y-163581326D01*
X185873445Y-163639498D01*
X186000000Y-163659542D01*
X186126555Y-163639498D01*
X186240723Y-163581326D01*
X186331326Y-163490723D01*
X186373082Y-163408773D01*
X186387266Y-163380936D01*
X186387266Y-163380935D01*
X186389498Y-163376555D01*
X186409542Y-163250000D01*
X186389498Y-163123445D01*
X186331326Y-163009277D01*
X186240723Y-162918674D01*
X186126555Y-162860502D01*
X186000000Y-162840458D01*
X185873445Y-162860502D01*
X185759277Y-162918674D01*
X185668674Y-163009277D01*
X185610502Y-163123445D01*
X185590458Y-163250000D01*
X184572049Y-163250000D01*
X184581326Y-163240723D01*
X184639498Y-163126555D01*
X184659542Y-163000000D01*
X184639498Y-162873445D01*
X184634041Y-162862734D01*
X184583557Y-162763656D01*
X184581326Y-162759277D01*
X184490723Y-162668674D01*
X184376555Y-162610502D01*
X184250000Y-162590458D01*
X184123445Y-162610502D01*
X184009277Y-162668674D01*
X183918674Y-162759277D01*
X183916443Y-162763656D01*
X183865960Y-162862734D01*
X183860502Y-162873445D01*
X183840458Y-163000000D01*
X173500000Y-163000000D01*
X173500000Y-162000000D01*
X185590458Y-162000000D01*
X185610502Y-162126555D01*
X185668674Y-162240723D01*
X185759277Y-162331326D01*
X185873445Y-162389498D01*
X186000000Y-162409542D01*
X186126555Y-162389498D01*
X186240723Y-162331326D01*
X186331326Y-162240723D01*
X186389498Y-162126555D01*
X186409542Y-162000000D01*
X209940458Y-162000000D01*
X209960502Y-162126555D01*
X210018674Y-162240723D01*
X210109277Y-162331326D01*
X210223445Y-162389498D01*
X210350000Y-162409542D01*
X210476555Y-162389498D01*
X210590723Y-162331326D01*
X210681326Y-162240723D01*
X210739498Y-162126555D01*
X210759542Y-162000000D01*
X213690458Y-162000000D01*
X213710502Y-162126555D01*
X213768674Y-162240723D01*
X213859277Y-162331326D01*
X213973445Y-162389498D01*
X214100000Y-162409542D01*
X214226555Y-162389498D01*
X214340723Y-162331326D01*
X214431326Y-162240723D01*
X214489498Y-162126555D01*
X214509542Y-162000000D01*
X214489498Y-161873445D01*
X214431326Y-161759277D01*
X214340723Y-161668674D01*
X214226555Y-161610502D01*
X214100000Y-161590458D01*
X213973445Y-161610502D01*
X213859277Y-161668674D01*
X213768674Y-161759277D01*
X213710502Y-161873445D01*
X213690458Y-162000000D01*
X210759542Y-162000000D01*
X210739498Y-161873445D01*
X210681326Y-161759277D01*
X210590723Y-161668674D01*
X210476555Y-161610502D01*
X210350000Y-161590458D01*
X210223445Y-161610502D01*
X210109277Y-161668674D01*
X210018674Y-161759277D01*
X209960502Y-161873445D01*
X209940458Y-162000000D01*
X186409542Y-162000000D01*
X186389498Y-161873445D01*
X186331326Y-161759277D01*
X186240723Y-161668674D01*
X186126555Y-161610502D01*
X186000000Y-161590458D01*
X185873445Y-161610502D01*
X185759277Y-161668674D01*
X185668674Y-161759277D01*
X185610502Y-161873445D01*
X185590458Y-162000000D01*
X173500000Y-162000000D01*
X173500000Y-159351080D01*
X218991476Y-159351080D01*
X219021271Y-159524477D01*
X219090156Y-159686368D01*
X219194437Y-159828071D01*
X219328520Y-159941982D01*
X219485212Y-160021993D01*
X219656108Y-160063811D01*
X219663705Y-160064282D01*
X219666245Y-160064440D01*
X219666249Y-160064440D01*
X219667214Y-160064500D01*
X219794053Y-160064500D01*
X219795843Y-160064291D01*
X219795848Y-160064291D01*
X219845824Y-160058464D01*
X219924754Y-160049262D01*
X220090134Y-159989232D01*
X220237268Y-159892766D01*
X220358264Y-159765040D01*
X220446632Y-159612904D01*
X220497630Y-159444520D01*
X220508524Y-159268920D01*
X220478729Y-159095523D01*
X220409844Y-158933632D01*
X220305563Y-158791929D01*
X220171480Y-158678018D01*
X220014788Y-158598007D01*
X219843892Y-158556189D01*
X219836155Y-158555709D01*
X219833755Y-158555560D01*
X219833751Y-158555560D01*
X219832786Y-158555500D01*
X219705947Y-158555500D01*
X219704157Y-158555709D01*
X219704152Y-158555709D01*
X219663729Y-158560422D01*
X219575246Y-158570738D01*
X219409866Y-158630768D01*
X219262732Y-158727234D01*
X219141736Y-158854960D01*
X219053368Y-159007096D01*
X219002370Y-159175480D01*
X218991476Y-159351080D01*
X173500000Y-159351080D01*
X173500000Y-157750000D01*
X203350458Y-157750000D01*
X203370502Y-157876555D01*
X203372734Y-157880935D01*
X203372734Y-157880936D01*
X203385240Y-157905480D01*
X203428674Y-157990723D01*
X203519277Y-158081326D01*
X203633445Y-158139498D01*
X203760000Y-158159542D01*
X203886555Y-158139498D01*
X204000723Y-158081326D01*
X204000969Y-158081080D01*
X214491476Y-158081080D01*
X214521271Y-158254477D01*
X214590156Y-158416368D01*
X214694437Y-158558071D01*
X214828520Y-158671982D01*
X214985212Y-158751993D01*
X215156108Y-158793811D01*
X215163705Y-158794282D01*
X215166245Y-158794440D01*
X215166249Y-158794440D01*
X215167214Y-158794500D01*
X215294053Y-158794500D01*
X215295843Y-158794291D01*
X215295848Y-158794291D01*
X215345824Y-158788464D01*
X215424754Y-158779262D01*
X215590134Y-158719232D01*
X215737268Y-158622766D01*
X215858264Y-158495040D01*
X215946632Y-158342904D01*
X215997630Y-158174520D01*
X216008524Y-157998920D01*
X215978729Y-157825523D01*
X215909844Y-157663632D01*
X215805563Y-157521929D01*
X215671480Y-157408018D01*
X215514788Y-157328007D01*
X215343892Y-157286189D01*
X215336155Y-157285709D01*
X215333755Y-157285560D01*
X215333751Y-157285560D01*
X215332786Y-157285500D01*
X215205947Y-157285500D01*
X215204157Y-157285709D01*
X215204152Y-157285709D01*
X215163729Y-157290422D01*
X215075246Y-157300738D01*
X214909866Y-157360768D01*
X214762732Y-157457234D01*
X214760234Y-157459871D01*
X214645179Y-157581326D01*
X214641736Y-157584960D01*
X214553368Y-157737096D01*
X214502370Y-157905480D01*
X214491476Y-158081080D01*
X204000969Y-158081080D01*
X204091326Y-157990723D01*
X204134760Y-157905480D01*
X204147266Y-157880936D01*
X204147266Y-157880935D01*
X204149498Y-157876555D01*
X204169542Y-157750000D01*
X204149498Y-157623445D01*
X204126266Y-157577849D01*
X204099264Y-157524856D01*
X204091326Y-157509277D01*
X204000723Y-157418674D01*
X203918061Y-157376555D01*
X203890936Y-157362734D01*
X203890935Y-157362734D01*
X203886555Y-157360502D01*
X203760000Y-157340458D01*
X203633445Y-157360502D01*
X203629065Y-157362734D01*
X203629064Y-157362734D01*
X203601939Y-157376555D01*
X203519277Y-157418674D01*
X203428674Y-157509277D01*
X203420736Y-157524856D01*
X203393735Y-157577849D01*
X203370502Y-157623445D01*
X203350458Y-157750000D01*
X173500000Y-157750000D01*
X173500000Y-157250000D01*
X202340458Y-157250000D01*
X202360502Y-157376555D01*
X202362734Y-157380935D01*
X202362734Y-157380936D01*
X202390652Y-157435728D01*
X202418674Y-157490723D01*
X202509277Y-157581326D01*
X202513656Y-157583557D01*
X202601472Y-157628302D01*
X202623445Y-157639498D01*
X202750000Y-157659542D01*
X202876555Y-157639498D01*
X202898529Y-157628302D01*
X202986344Y-157583557D01*
X202990723Y-157581326D01*
X203081326Y-157490723D01*
X203109348Y-157435728D01*
X203137266Y-157380936D01*
X203137266Y-157380935D01*
X203139498Y-157376555D01*
X203159542Y-157250000D01*
X203139498Y-157123445D01*
X203116266Y-157077849D01*
X203083557Y-157013656D01*
X203081326Y-157009277D01*
X202990723Y-156918674D01*
X202901957Y-156873445D01*
X202880936Y-156862734D01*
X202880935Y-156862734D01*
X202876555Y-156860502D01*
X202750000Y-156840458D01*
X202623445Y-156860502D01*
X202619065Y-156862734D01*
X202619064Y-156862734D01*
X202598043Y-156873445D01*
X202509277Y-156918674D01*
X202418674Y-157009277D01*
X202416443Y-157013656D01*
X202383735Y-157077849D01*
X202360502Y-157123445D01*
X202340458Y-157250000D01*
X173500000Y-157250000D01*
X173500000Y-156750000D01*
X206590458Y-156750000D01*
X206610502Y-156876555D01*
X206612734Y-156880935D01*
X206612734Y-156880936D01*
X206640652Y-156935728D01*
X206668674Y-156990723D01*
X206759277Y-157081326D01*
X206763656Y-157083557D01*
X206851472Y-157128302D01*
X206873445Y-157139498D01*
X207000000Y-157159542D01*
X207126555Y-157139498D01*
X207148529Y-157128302D01*
X207236344Y-157083557D01*
X207240723Y-157081326D01*
X207331326Y-156990723D01*
X207359348Y-156935728D01*
X207387266Y-156880936D01*
X207387266Y-156880935D01*
X207389498Y-156876555D01*
X207399868Y-156811080D01*
X218991476Y-156811080D01*
X219021271Y-156984477D01*
X219090156Y-157146368D01*
X219194437Y-157288071D01*
X219328520Y-157401982D01*
X219485212Y-157481993D01*
X219656108Y-157523811D01*
X219663705Y-157524282D01*
X219666245Y-157524440D01*
X219666249Y-157524440D01*
X219667214Y-157524500D01*
X219794053Y-157524500D01*
X219795843Y-157524291D01*
X219795848Y-157524291D01*
X219845824Y-157518464D01*
X219924754Y-157509262D01*
X220090134Y-157449232D01*
X220237268Y-157352766D01*
X220358264Y-157225040D01*
X220446632Y-157072904D01*
X220468712Y-157000000D01*
X222090458Y-157000000D01*
X222110502Y-157126555D01*
X222112734Y-157130935D01*
X222112734Y-157130936D01*
X222118893Y-157143023D01*
X222168674Y-157240723D01*
X222259277Y-157331326D01*
X222373445Y-157389498D01*
X222500000Y-157409542D01*
X222626555Y-157389498D01*
X222740723Y-157331326D01*
X222831326Y-157240723D01*
X222881107Y-157143023D01*
X222887266Y-157130936D01*
X222887266Y-157130935D01*
X222889498Y-157126555D01*
X222909542Y-157000000D01*
X222889498Y-156873445D01*
X222884041Y-156862734D01*
X222833557Y-156763656D01*
X222831326Y-156759277D01*
X222740723Y-156668674D01*
X222626555Y-156610502D01*
X222500000Y-156590458D01*
X222373445Y-156610502D01*
X222259277Y-156668674D01*
X222168674Y-156759277D01*
X222166443Y-156763656D01*
X222115960Y-156862734D01*
X222110502Y-156873445D01*
X222090458Y-157000000D01*
X220468712Y-157000000D01*
X220497630Y-156904520D01*
X220508524Y-156728920D01*
X220478729Y-156555523D01*
X220409844Y-156393632D01*
X220305563Y-156251929D01*
X220171480Y-156138018D01*
X220014788Y-156058007D01*
X219843892Y-156016189D01*
X219836155Y-156015709D01*
X219833755Y-156015560D01*
X219833751Y-156015560D01*
X219832786Y-156015500D01*
X219705947Y-156015500D01*
X219704157Y-156015709D01*
X219704152Y-156015709D01*
X219663729Y-156020422D01*
X219575246Y-156030738D01*
X219409866Y-156090768D01*
X219262732Y-156187234D01*
X219141736Y-156314960D01*
X219053368Y-156467096D01*
X219002370Y-156635480D01*
X218991476Y-156811080D01*
X207399868Y-156811080D01*
X207409542Y-156750000D01*
X207389498Y-156623445D01*
X207384041Y-156612734D01*
X207333557Y-156513656D01*
X207331326Y-156509277D01*
X207240723Y-156418674D01*
X207126555Y-156360502D01*
X207000000Y-156340458D01*
X206873445Y-156360502D01*
X206759277Y-156418674D01*
X206668674Y-156509277D01*
X206666443Y-156513656D01*
X206615960Y-156612734D01*
X206610502Y-156623445D01*
X206590458Y-156750000D01*
X173500000Y-156750000D01*
X173500000Y-155541080D01*
X214491476Y-155541080D01*
X214521271Y-155714477D01*
X214590156Y-155876368D01*
X214694437Y-156018071D01*
X214828520Y-156131982D01*
X214985212Y-156211993D01*
X215156108Y-156253811D01*
X215163705Y-156254282D01*
X215166245Y-156254440D01*
X215166249Y-156254440D01*
X215167214Y-156254500D01*
X215294053Y-156254500D01*
X215295843Y-156254291D01*
X215295848Y-156254291D01*
X215345824Y-156248464D01*
X215424754Y-156239262D01*
X215590134Y-156179232D01*
X215737268Y-156082766D01*
X215815673Y-156000000D01*
X221340458Y-156000000D01*
X221360502Y-156126555D01*
X221362734Y-156130935D01*
X221362734Y-156130936D01*
X221387974Y-156180471D01*
X221418674Y-156240723D01*
X221509277Y-156331326D01*
X221623445Y-156389498D01*
X221750000Y-156409542D01*
X221876555Y-156389498D01*
X221990723Y-156331326D01*
X222081326Y-156240723D01*
X222112026Y-156180471D01*
X222137266Y-156130936D01*
X222137266Y-156130935D01*
X222139498Y-156126555D01*
X222159542Y-156000000D01*
X222139498Y-155873445D01*
X222081326Y-155759277D01*
X221990723Y-155668674D01*
X221876555Y-155610502D01*
X221750000Y-155590458D01*
X221623445Y-155610502D01*
X221509277Y-155668674D01*
X221418674Y-155759277D01*
X221360502Y-155873445D01*
X221340458Y-156000000D01*
X215815673Y-156000000D01*
X215858264Y-155955040D01*
X215946632Y-155802904D01*
X215997630Y-155634520D01*
X216008524Y-155458920D01*
X215978729Y-155285523D01*
X215909844Y-155123632D01*
X215805563Y-154981929D01*
X215671480Y-154868018D01*
X215514788Y-154788007D01*
X215343892Y-154746189D01*
X215336155Y-154745709D01*
X215333755Y-154745560D01*
X215333751Y-154745560D01*
X215332786Y-154745500D01*
X215205947Y-154745500D01*
X215204157Y-154745709D01*
X215204152Y-154745709D01*
X215154176Y-154751536D01*
X215075246Y-154760738D01*
X214909866Y-154820768D01*
X214762732Y-154917234D01*
X214641736Y-155044960D01*
X214553368Y-155197096D01*
X214502370Y-155365480D01*
X214491476Y-155541080D01*
X173500000Y-155541080D01*
X173500000Y-155000000D01*
X211340458Y-155000000D01*
X211360502Y-155126555D01*
X211418674Y-155240723D01*
X211509277Y-155331326D01*
X211623445Y-155389498D01*
X211750000Y-155409542D01*
X211876555Y-155389498D01*
X211990723Y-155331326D01*
X212081326Y-155240723D01*
X212139498Y-155126555D01*
X212159542Y-155000000D01*
X212840458Y-155000000D01*
X212860502Y-155126555D01*
X212918674Y-155240723D01*
X213009277Y-155331326D01*
X213123445Y-155389498D01*
X213250000Y-155409542D01*
X213376555Y-155389498D01*
X213490723Y-155331326D01*
X213581326Y-155240723D01*
X213639498Y-155126555D01*
X213659542Y-155000000D01*
X213639498Y-154873445D01*
X213616266Y-154827849D01*
X213609348Y-154814272D01*
X213581326Y-154759277D01*
X213490723Y-154668674D01*
X213408061Y-154626555D01*
X213380936Y-154612734D01*
X213380935Y-154612734D01*
X213376555Y-154610502D01*
X213250000Y-154590458D01*
X213123445Y-154610502D01*
X213119065Y-154612734D01*
X213119064Y-154612734D01*
X213091939Y-154626555D01*
X213009277Y-154668674D01*
X212918674Y-154759277D01*
X212890652Y-154814272D01*
X212883735Y-154827849D01*
X212860502Y-154873445D01*
X212840458Y-155000000D01*
X212159542Y-155000000D01*
X212139498Y-154873445D01*
X212116266Y-154827849D01*
X212109348Y-154814272D01*
X212081326Y-154759277D01*
X211990723Y-154668674D01*
X211908061Y-154626555D01*
X211880936Y-154612734D01*
X211880935Y-154612734D01*
X211876555Y-154610502D01*
X211750000Y-154590458D01*
X211623445Y-154610502D01*
X211619065Y-154612734D01*
X211619064Y-154612734D01*
X211591939Y-154626555D01*
X211509277Y-154668674D01*
X211418674Y-154759277D01*
X211390652Y-154814272D01*
X211383735Y-154827849D01*
X211360502Y-154873445D01*
X211340458Y-155000000D01*
X173500000Y-155000000D01*
X173500000Y-154500000D01*
X191090458Y-154500000D01*
X191110502Y-154626555D01*
X191112734Y-154630935D01*
X191112734Y-154630936D01*
X191140652Y-154685728D01*
X191168674Y-154740723D01*
X191259277Y-154831326D01*
X191263656Y-154833557D01*
X191351472Y-154878302D01*
X191373445Y-154889498D01*
X191500000Y-154909542D01*
X191626555Y-154889498D01*
X191648529Y-154878302D01*
X191736344Y-154833557D01*
X191740723Y-154831326D01*
X191831326Y-154740723D01*
X191859348Y-154685728D01*
X191887266Y-154630936D01*
X191887266Y-154630935D01*
X191889498Y-154626555D01*
X191909542Y-154500000D01*
X192090458Y-154500000D01*
X192110502Y-154626555D01*
X192112734Y-154630935D01*
X192112734Y-154630936D01*
X192140652Y-154685728D01*
X192168674Y-154740723D01*
X192259277Y-154831326D01*
X192263656Y-154833557D01*
X192351472Y-154878302D01*
X192373445Y-154889498D01*
X192500000Y-154909542D01*
X192626555Y-154889498D01*
X192648529Y-154878302D01*
X192736344Y-154833557D01*
X192740723Y-154831326D01*
X192831326Y-154740723D01*
X192859348Y-154685728D01*
X192887266Y-154630936D01*
X192887266Y-154630935D01*
X192889498Y-154626555D01*
X192909542Y-154500000D01*
X193090458Y-154500000D01*
X193110502Y-154626555D01*
X193112734Y-154630935D01*
X193112734Y-154630936D01*
X193140652Y-154685728D01*
X193168674Y-154740723D01*
X193259277Y-154831326D01*
X193263656Y-154833557D01*
X193351472Y-154878302D01*
X193373445Y-154889498D01*
X193500000Y-154909542D01*
X193626555Y-154889498D01*
X193648529Y-154878302D01*
X193736344Y-154833557D01*
X193740723Y-154831326D01*
X193831326Y-154740723D01*
X193859348Y-154685728D01*
X193887266Y-154630936D01*
X193887266Y-154630935D01*
X193889498Y-154626555D01*
X193909542Y-154500000D01*
X193889498Y-154373445D01*
X193831326Y-154259277D01*
X193740723Y-154168674D01*
X193626555Y-154110502D01*
X193500000Y-154090458D01*
X193373445Y-154110502D01*
X193259277Y-154168674D01*
X193168674Y-154259277D01*
X193110502Y-154373445D01*
X193090458Y-154500000D01*
X192909542Y-154500000D01*
X192889498Y-154373445D01*
X192831326Y-154259277D01*
X192740723Y-154168674D01*
X192626555Y-154110502D01*
X192500000Y-154090458D01*
X192373445Y-154110502D01*
X192259277Y-154168674D01*
X192168674Y-154259277D01*
X192110502Y-154373445D01*
X192090458Y-154500000D01*
X191909542Y-154500000D01*
X191889498Y-154373445D01*
X191831326Y-154259277D01*
X191740723Y-154168674D01*
X191626555Y-154110502D01*
X191500000Y-154090458D01*
X191373445Y-154110502D01*
X191259277Y-154168674D01*
X191168674Y-154259277D01*
X191110502Y-154373445D01*
X191090458Y-154500000D01*
X173500000Y-154500000D01*
X173500000Y-151731080D01*
X218991476Y-151731080D01*
X219021271Y-151904477D01*
X219090156Y-152066368D01*
X219194437Y-152208071D01*
X219328520Y-152321982D01*
X219485212Y-152401993D01*
X219656108Y-152443811D01*
X219663705Y-152444282D01*
X219666245Y-152444440D01*
X219666249Y-152444440D01*
X219667214Y-152444500D01*
X219794053Y-152444500D01*
X219795843Y-152444291D01*
X219795848Y-152444291D01*
X219845824Y-152438464D01*
X219924754Y-152429262D01*
X220090134Y-152369232D01*
X220237268Y-152272766D01*
X220358264Y-152145040D01*
X220446632Y-151992904D01*
X220497630Y-151824520D01*
X220508524Y-151648920D01*
X220478729Y-151475523D01*
X220409844Y-151313632D01*
X220305563Y-151171929D01*
X220171480Y-151058018D01*
X220014788Y-150978007D01*
X219843892Y-150936189D01*
X219836155Y-150935709D01*
X219833755Y-150935560D01*
X219833751Y-150935560D01*
X219832786Y-150935500D01*
X219705947Y-150935500D01*
X219704157Y-150935709D01*
X219704152Y-150935709D01*
X219654176Y-150941536D01*
X219575246Y-150950738D01*
X219409866Y-151010768D01*
X219262732Y-151107234D01*
X219141736Y-151234960D01*
X219053368Y-151387096D01*
X219002370Y-151555480D01*
X218991476Y-151731080D01*
X173500000Y-151731080D01*
X173500000Y-150750000D01*
X207340458Y-150750000D01*
X207360502Y-150876555D01*
X207418674Y-150990723D01*
X207509277Y-151081326D01*
X207623445Y-151139498D01*
X207750000Y-151159542D01*
X207876555Y-151139498D01*
X207990723Y-151081326D01*
X208081326Y-150990723D01*
X208139498Y-150876555D01*
X208159542Y-150750000D01*
X208139498Y-150623445D01*
X208081326Y-150509277D01*
X207990723Y-150418674D01*
X207876555Y-150360502D01*
X207750000Y-150340458D01*
X207623445Y-150360502D01*
X207509277Y-150418674D01*
X207418674Y-150509277D01*
X207360502Y-150623445D01*
X207340458Y-150750000D01*
X173500000Y-150750000D01*
X173500000Y-149250000D01*
X200840458Y-149250000D01*
X200860502Y-149376555D01*
X200918674Y-149490723D01*
X201009277Y-149581326D01*
X201123445Y-149639498D01*
X201250000Y-149659542D01*
X201376555Y-149639498D01*
X201490723Y-149581326D01*
X201581326Y-149490723D01*
X201639498Y-149376555D01*
X201659542Y-149250000D01*
X201639498Y-149123445D01*
X201581326Y-149009277D01*
X201490723Y-148918674D01*
X201376555Y-148860502D01*
X201250000Y-148840458D01*
X201123445Y-148860502D01*
X201009277Y-148918674D01*
X200918674Y-149009277D01*
X200860502Y-149123445D01*
X200840458Y-149250000D01*
X173500000Y-149250000D01*
X173500000Y-147750000D01*
X219340458Y-147750000D01*
X219360502Y-147876555D01*
X219418674Y-147990723D01*
X219509277Y-148081326D01*
X219623445Y-148139498D01*
X219750000Y-148159542D01*
X219876555Y-148139498D01*
X219990723Y-148081326D01*
X220081326Y-147990723D01*
X220139498Y-147876555D01*
X220159542Y-147750000D01*
X220139498Y-147623445D01*
X220081326Y-147509277D01*
X219990723Y-147418674D01*
X219876555Y-147360502D01*
X219750000Y-147340458D01*
X219623445Y-147360502D01*
X219509277Y-147418674D01*
X219418674Y-147509277D01*
X219360502Y-147623445D01*
X219340458Y-147750000D01*
X173500000Y-147750000D01*
X173500000Y-144750000D01*
X208240458Y-144750000D01*
X208260502Y-144876555D01*
X208318674Y-144990723D01*
X208409277Y-145081326D01*
X208523445Y-145139498D01*
X208650000Y-145159542D01*
X208776555Y-145139498D01*
X208890723Y-145081326D01*
X208981326Y-144990723D01*
X209039498Y-144876555D01*
X209059542Y-144750000D01*
X210440458Y-144750000D01*
X210460502Y-144876555D01*
X210518674Y-144990723D01*
X210609277Y-145081326D01*
X210723445Y-145139498D01*
X210850000Y-145159542D01*
X210976555Y-145139498D01*
X211090723Y-145081326D01*
X211181326Y-144990723D01*
X211239498Y-144876555D01*
X211259542Y-144750000D01*
X211239498Y-144623445D01*
X211181326Y-144509277D01*
X211090723Y-144418674D01*
X210976555Y-144360502D01*
X210850000Y-144340458D01*
X210723445Y-144360502D01*
X210609277Y-144418674D01*
X210518674Y-144509277D01*
X210460502Y-144623445D01*
X210440458Y-144750000D01*
X209059542Y-144750000D01*
X209039498Y-144623445D01*
X208981326Y-144509277D01*
X208890723Y-144418674D01*
X208776555Y-144360502D01*
X208650000Y-144340458D01*
X208523445Y-144360502D01*
X208409277Y-144418674D01*
X208318674Y-144509277D01*
X208260502Y-144623445D01*
X208240458Y-144750000D01*
X173500000Y-144750000D01*
X173500000Y-143750000D01*
X208340458Y-143750000D01*
X208360502Y-143876555D01*
X208362734Y-143880935D01*
X208362734Y-143880936D01*
X208376918Y-143908773D01*
X208418674Y-143990723D01*
X208509277Y-144081326D01*
X208623445Y-144139498D01*
X208750000Y-144159542D01*
X208876555Y-144139498D01*
X208990723Y-144081326D01*
X209081326Y-143990723D01*
X209123082Y-143908773D01*
X209137266Y-143880936D01*
X209137266Y-143880935D01*
X209139498Y-143876555D01*
X209159542Y-143750000D01*
X209139498Y-143623445D01*
X209081326Y-143509277D01*
X209072049Y-143500000D01*
X209340458Y-143500000D01*
X209360502Y-143626555D01*
X209418674Y-143740723D01*
X209509277Y-143831326D01*
X209623445Y-143889498D01*
X209750000Y-143909542D01*
X209876555Y-143889498D01*
X209990723Y-143831326D01*
X210072049Y-143750000D01*
X210340458Y-143750000D01*
X210360502Y-143876555D01*
X210362734Y-143880935D01*
X210362734Y-143880936D01*
X210376918Y-143908773D01*
X210418674Y-143990723D01*
X210509277Y-144081326D01*
X210623445Y-144139498D01*
X210750000Y-144159542D01*
X210876555Y-144139498D01*
X210990723Y-144081326D01*
X211081326Y-143990723D01*
X211123082Y-143908773D01*
X211137266Y-143880936D01*
X211137266Y-143880935D01*
X211139498Y-143876555D01*
X211159542Y-143750000D01*
X211139498Y-143623445D01*
X211081326Y-143509277D01*
X210990723Y-143418674D01*
X210876555Y-143360502D01*
X210750000Y-143340458D01*
X210623445Y-143360502D01*
X210509277Y-143418674D01*
X210418674Y-143509277D01*
X210360502Y-143623445D01*
X210340458Y-143750000D01*
X210072049Y-143750000D01*
X210081326Y-143740723D01*
X210139498Y-143626555D01*
X210159542Y-143500000D01*
X210139498Y-143373445D01*
X210134041Y-143362734D01*
X210083557Y-143263656D01*
X210081326Y-143259277D01*
X209990723Y-143168674D01*
X209876555Y-143110502D01*
X209750000Y-143090458D01*
X209623445Y-143110502D01*
X209509277Y-143168674D01*
X209418674Y-143259277D01*
X209416443Y-143263656D01*
X209365960Y-143362734D01*
X209360502Y-143373445D01*
X209340458Y-143500000D01*
X209072049Y-143500000D01*
X208990723Y-143418674D01*
X208876555Y-143360502D01*
X208750000Y-143340458D01*
X208623445Y-143360502D01*
X208509277Y-143418674D01*
X208418674Y-143509277D01*
X208360502Y-143623445D01*
X208340458Y-143750000D01*
X173500000Y-143750000D01*
X173500000Y-139500000D01*
X208340458Y-139500000D01*
X208360502Y-139626555D01*
X208418674Y-139740723D01*
X208509277Y-139831326D01*
X208623445Y-139889498D01*
X208750000Y-139909542D01*
X208876555Y-139889498D01*
X208990723Y-139831326D01*
X209081326Y-139740723D01*
X209139498Y-139626555D01*
X209159542Y-139500000D01*
X209340458Y-139500000D01*
X209360502Y-139626555D01*
X209418674Y-139740723D01*
X209509277Y-139831326D01*
X209623445Y-139889498D01*
X209750000Y-139909542D01*
X209876555Y-139889498D01*
X209990723Y-139831326D01*
X210081326Y-139740723D01*
X210139498Y-139626555D01*
X210159542Y-139500000D01*
X210340458Y-139500000D01*
X210360502Y-139626555D01*
X210418674Y-139740723D01*
X210509277Y-139831326D01*
X210623445Y-139889498D01*
X210750000Y-139909542D01*
X210876555Y-139889498D01*
X210990723Y-139831326D01*
X211081326Y-139740723D01*
X211139498Y-139626555D01*
X211159542Y-139500000D01*
X211840458Y-139500000D01*
X211860502Y-139626555D01*
X211918674Y-139740723D01*
X212009277Y-139831326D01*
X212123445Y-139889498D01*
X212250000Y-139909542D01*
X212376555Y-139889498D01*
X212490723Y-139831326D01*
X212581326Y-139740723D01*
X212639498Y-139626555D01*
X212659542Y-139500000D01*
X212840458Y-139500000D01*
X212860502Y-139626555D01*
X212918674Y-139740723D01*
X213009277Y-139831326D01*
X213123445Y-139889498D01*
X213250000Y-139909542D01*
X213376555Y-139889498D01*
X213490723Y-139831326D01*
X213581326Y-139740723D01*
X213639498Y-139626555D01*
X213659542Y-139500000D01*
X213639498Y-139373445D01*
X213581326Y-139259277D01*
X213490723Y-139168674D01*
X213376555Y-139110502D01*
X213250000Y-139090458D01*
X213123445Y-139110502D01*
X213009277Y-139168674D01*
X212918674Y-139259277D01*
X212860502Y-139373445D01*
X212840458Y-139500000D01*
X212659542Y-139500000D01*
X212639498Y-139373445D01*
X212581326Y-139259277D01*
X212490723Y-139168674D01*
X212376555Y-139110502D01*
X212250000Y-139090458D01*
X212123445Y-139110502D01*
X212009277Y-139168674D01*
X211918674Y-139259277D01*
X211860502Y-139373445D01*
X211840458Y-139500000D01*
X211159542Y-139500000D01*
X211139498Y-139373445D01*
X211081326Y-139259277D01*
X210990723Y-139168674D01*
X210876555Y-139110502D01*
X210750000Y-139090458D01*
X210623445Y-139110502D01*
X210509277Y-139168674D01*
X210418674Y-139259277D01*
X210360502Y-139373445D01*
X210340458Y-139500000D01*
X210159542Y-139500000D01*
X210139498Y-139373445D01*
X210081326Y-139259277D01*
X209990723Y-139168674D01*
X209876555Y-139110502D01*
X209750000Y-139090458D01*
X209623445Y-139110502D01*
X209509277Y-139168674D01*
X209418674Y-139259277D01*
X209360502Y-139373445D01*
X209340458Y-139500000D01*
X209159542Y-139500000D01*
X209139498Y-139373445D01*
X209081326Y-139259277D01*
X208990723Y-139168674D01*
X208876555Y-139110502D01*
X208750000Y-139090458D01*
X208623445Y-139110502D01*
X208509277Y-139168674D01*
X208418674Y-139259277D01*
X208360502Y-139373445D01*
X208340458Y-139500000D01*
X173500000Y-139500000D01*
X173500000Y-137500000D01*
X211840458Y-137500000D01*
X211860502Y-137626555D01*
X211918674Y-137740723D01*
X212009277Y-137831326D01*
X212123445Y-137889498D01*
X212250000Y-137909542D01*
X212376555Y-137889498D01*
X212490723Y-137831326D01*
X212581326Y-137740723D01*
X212639498Y-137626555D01*
X212659542Y-137500000D01*
X212840458Y-137500000D01*
X212860502Y-137626555D01*
X212918674Y-137740723D01*
X213009277Y-137831326D01*
X213123445Y-137889498D01*
X213250000Y-137909542D01*
X213376555Y-137889498D01*
X213490723Y-137831326D01*
X213581326Y-137740723D01*
X213639498Y-137626555D01*
X213659542Y-137500000D01*
X213639498Y-137373445D01*
X213581326Y-137259277D01*
X213490723Y-137168674D01*
X213376555Y-137110502D01*
X213250000Y-137090458D01*
X213123445Y-137110502D01*
X213009277Y-137168674D01*
X212918674Y-137259277D01*
X212860502Y-137373445D01*
X212840458Y-137500000D01*
X212659542Y-137500000D01*
X212639498Y-137373445D01*
X212581326Y-137259277D01*
X212490723Y-137168674D01*
X212376555Y-137110502D01*
X212250000Y-137090458D01*
X212123445Y-137110502D01*
X212009277Y-137168674D01*
X211918674Y-137259277D01*
X211860502Y-137373445D01*
X211840458Y-137500000D01*
X173500000Y-137500000D01*
X173500000Y-131750000D01*
X205590458Y-131750000D01*
X205610502Y-131876555D01*
X205668674Y-131990723D01*
X205759277Y-132081326D01*
X205873445Y-132139498D01*
X206000000Y-132159542D01*
X206126555Y-132139498D01*
X206240723Y-132081326D01*
X206331326Y-131990723D01*
X206389498Y-131876555D01*
X206409542Y-131750000D01*
X206389498Y-131623445D01*
X206366266Y-131577849D01*
X206333557Y-131513656D01*
X206331326Y-131509277D01*
X206240723Y-131418674D01*
X206158061Y-131376555D01*
X206130936Y-131362734D01*
X206130935Y-131362734D01*
X206126555Y-131360502D01*
X206000000Y-131340458D01*
X205873445Y-131360502D01*
X205869065Y-131362734D01*
X205869064Y-131362734D01*
X205841939Y-131376555D01*
X205759277Y-131418674D01*
X205668674Y-131509277D01*
X205666443Y-131513656D01*
X205633735Y-131577849D01*
X205610502Y-131623445D01*
X205590458Y-131750000D01*
X173500000Y-131750000D01*
X173500000Y-131250000D01*
X204590458Y-131250000D01*
X204610502Y-131376555D01*
X204612734Y-131380935D01*
X204612734Y-131380936D01*
X204640652Y-131435728D01*
X204668674Y-131490723D01*
X204759277Y-131581326D01*
X204763656Y-131583557D01*
X204851472Y-131628302D01*
X204873445Y-131639498D01*
X205000000Y-131659542D01*
X205126555Y-131639498D01*
X205148529Y-131628302D01*
X205236344Y-131583557D01*
X205240723Y-131581326D01*
X205331326Y-131490723D01*
X205359348Y-131435728D01*
X205387266Y-131380936D01*
X205387266Y-131380935D01*
X205389498Y-131376555D01*
X205409542Y-131250000D01*
X205389498Y-131123445D01*
X205366266Y-131077849D01*
X205333557Y-131013656D01*
X205331326Y-131009277D01*
X205240723Y-130918674D01*
X205158061Y-130876555D01*
X205130936Y-130862734D01*
X205130935Y-130862734D01*
X205126555Y-130860502D01*
X205000000Y-130840458D01*
X204873445Y-130860502D01*
X204869065Y-130862734D01*
X204869064Y-130862734D01*
X204841939Y-130876555D01*
X204759277Y-130918674D01*
X204668674Y-131009277D01*
X204666443Y-131013656D01*
X204633735Y-131077849D01*
X204610502Y-131123445D01*
X204590458Y-131250000D01*
X173500000Y-131250000D01*
X173500000Y-130750000D01*
X205590458Y-130750000D01*
X205610502Y-130876555D01*
X205612734Y-130880935D01*
X205612734Y-130880936D01*
X205640652Y-130935728D01*
X205668674Y-130990723D01*
X205759277Y-131081326D01*
X205763656Y-131083557D01*
X205851472Y-131128302D01*
X205873445Y-131139498D01*
X206000000Y-131159542D01*
X206126555Y-131139498D01*
X206148529Y-131128302D01*
X206236344Y-131083557D01*
X206240723Y-131081326D01*
X206331326Y-130990723D01*
X206359348Y-130935728D01*
X206387266Y-130880936D01*
X206387266Y-130880935D01*
X206389498Y-130876555D01*
X206409542Y-130750000D01*
X206389498Y-130623445D01*
X206331326Y-130509277D01*
X206240723Y-130418674D01*
X206126555Y-130360502D01*
X206000000Y-130340458D01*
X205873445Y-130360502D01*
X205759277Y-130418674D01*
X205668674Y-130509277D01*
X205610502Y-130623445D01*
X205590458Y-130750000D01*
X173500000Y-130750000D01*
X173500000Y-128000000D01*
X205590458Y-128000000D01*
X205610502Y-128126555D01*
X205668674Y-128240723D01*
X205759277Y-128331326D01*
X205873445Y-128389498D01*
X206000000Y-128409542D01*
X206126555Y-128389498D01*
X206240723Y-128331326D01*
X206331326Y-128240723D01*
X206389498Y-128126555D01*
X206409542Y-128000000D01*
X206389498Y-127873445D01*
X206366266Y-127827849D01*
X206333557Y-127763656D01*
X206331326Y-127759277D01*
X206240723Y-127668674D01*
X206158061Y-127626555D01*
X206130936Y-127612734D01*
X206130935Y-127612734D01*
X206126555Y-127610502D01*
X206000000Y-127590458D01*
X205873445Y-127610502D01*
X205869065Y-127612734D01*
X205869064Y-127612734D01*
X205841939Y-127626555D01*
X205759277Y-127668674D01*
X205668674Y-127759277D01*
X205666443Y-127763656D01*
X205633735Y-127827849D01*
X205610502Y-127873445D01*
X205590458Y-128000000D01*
X173500000Y-128000000D01*
X173500000Y-127500000D01*
X204590458Y-127500000D01*
X204610502Y-127626555D01*
X204612734Y-127630935D01*
X204612734Y-127630936D01*
X204640652Y-127685728D01*
X204668674Y-127740723D01*
X204759277Y-127831326D01*
X204763656Y-127833557D01*
X204851472Y-127878302D01*
X204873445Y-127889498D01*
X205000000Y-127909542D01*
X205126555Y-127889498D01*
X205148529Y-127878302D01*
X205236344Y-127833557D01*
X205240723Y-127831326D01*
X205331326Y-127740723D01*
X205359348Y-127685728D01*
X205387266Y-127630936D01*
X205387266Y-127630935D01*
X205389498Y-127626555D01*
X205409542Y-127500000D01*
X205389498Y-127373445D01*
X205366266Y-127327849D01*
X205333557Y-127263656D01*
X205331326Y-127259277D01*
X205240723Y-127168674D01*
X205158061Y-127126555D01*
X205130936Y-127112734D01*
X205130935Y-127112734D01*
X205126555Y-127110502D01*
X205000000Y-127090458D01*
X204873445Y-127110502D01*
X204869065Y-127112734D01*
X204869064Y-127112734D01*
X204841939Y-127126555D01*
X204759277Y-127168674D01*
X204668674Y-127259277D01*
X204666443Y-127263656D01*
X204633735Y-127327849D01*
X204610502Y-127373445D01*
X204590458Y-127500000D01*
X173500000Y-127500000D01*
X173500000Y-127000000D01*
X205590458Y-127000000D01*
X205610502Y-127126555D01*
X205612734Y-127130935D01*
X205612734Y-127130936D01*
X205640652Y-127185728D01*
X205668674Y-127240723D01*
X205759277Y-127331326D01*
X205763656Y-127333557D01*
X205851472Y-127378302D01*
X205873445Y-127389498D01*
X206000000Y-127409542D01*
X206126555Y-127389498D01*
X206148529Y-127378302D01*
X206236344Y-127333557D01*
X206240723Y-127331326D01*
X206331326Y-127240723D01*
X206359348Y-127185728D01*
X206387266Y-127130936D01*
X206387266Y-127130935D01*
X206389498Y-127126555D01*
X206409542Y-127000000D01*
X206389498Y-126873445D01*
X206366266Y-126827849D01*
X206333557Y-126763656D01*
X206331326Y-126759277D01*
X206240723Y-126668674D01*
X206158061Y-126626555D01*
X206130936Y-126612734D01*
X206130935Y-126612734D01*
X206126555Y-126610502D01*
X206000000Y-126590458D01*
X205873445Y-126610502D01*
X205869065Y-126612734D01*
X205869064Y-126612734D01*
X205841939Y-126626555D01*
X205759277Y-126668674D01*
X205668674Y-126759277D01*
X205666443Y-126763656D01*
X205633735Y-126827849D01*
X205610502Y-126873445D01*
X205590458Y-127000000D01*
X173500000Y-127000000D01*
X173500000Y-126500000D01*
X216090458Y-126500000D01*
X216110502Y-126626555D01*
X216112734Y-126630935D01*
X216112734Y-126630936D01*
X216140652Y-126685728D01*
X216168674Y-126740723D01*
X216259277Y-126831326D01*
X216263656Y-126833557D01*
X216351472Y-126878302D01*
X216373445Y-126889498D01*
X216500000Y-126909542D01*
X216626555Y-126889498D01*
X216648529Y-126878302D01*
X216736344Y-126833557D01*
X216740723Y-126831326D01*
X216831326Y-126740723D01*
X216859348Y-126685728D01*
X216887266Y-126630936D01*
X216887266Y-126630935D01*
X216889498Y-126626555D01*
X216909542Y-126500000D01*
X218090458Y-126500000D01*
X218110502Y-126626555D01*
X218112734Y-126630935D01*
X218112734Y-126630936D01*
X218140652Y-126685728D01*
X218168674Y-126740723D01*
X218259277Y-126831326D01*
X218263656Y-126833557D01*
X218351472Y-126878302D01*
X218373445Y-126889498D01*
X218500000Y-126909542D01*
X218626555Y-126889498D01*
X218648529Y-126878302D01*
X218736344Y-126833557D01*
X218740723Y-126831326D01*
X218831326Y-126740723D01*
X218859348Y-126685728D01*
X218887266Y-126630936D01*
X218887266Y-126630935D01*
X218889498Y-126626555D01*
X218909542Y-126500000D01*
X219590458Y-126500000D01*
X219610502Y-126626555D01*
X219612734Y-126630935D01*
X219612734Y-126630936D01*
X219640652Y-126685728D01*
X219668674Y-126740723D01*
X219759277Y-126831326D01*
X219763656Y-126833557D01*
X219851472Y-126878302D01*
X219873445Y-126889498D01*
X220000000Y-126909542D01*
X220126555Y-126889498D01*
X220148529Y-126878302D01*
X220236344Y-126833557D01*
X220240723Y-126831326D01*
X220331326Y-126740723D01*
X220359348Y-126685728D01*
X220387266Y-126630936D01*
X220387266Y-126630935D01*
X220389498Y-126626555D01*
X220409542Y-126500000D01*
X221590458Y-126500000D01*
X221610502Y-126626555D01*
X221612734Y-126630935D01*
X221612734Y-126630936D01*
X221640652Y-126685728D01*
X221668674Y-126740723D01*
X221759277Y-126831326D01*
X221763656Y-126833557D01*
X221851472Y-126878302D01*
X221873445Y-126889498D01*
X222000000Y-126909542D01*
X222126555Y-126889498D01*
X222148529Y-126878302D01*
X222236344Y-126833557D01*
X222240723Y-126831326D01*
X222331326Y-126740723D01*
X222359348Y-126685728D01*
X222387266Y-126630936D01*
X222387266Y-126630935D01*
X222389498Y-126626555D01*
X222409542Y-126500000D01*
X223590458Y-126500000D01*
X223610502Y-126626555D01*
X223612734Y-126630935D01*
X223612734Y-126630936D01*
X223640652Y-126685728D01*
X223668674Y-126740723D01*
X223759277Y-126831326D01*
X223763656Y-126833557D01*
X223851472Y-126878302D01*
X223873445Y-126889498D01*
X224000000Y-126909542D01*
X224126555Y-126889498D01*
X224148529Y-126878302D01*
X224236344Y-126833557D01*
X224240723Y-126831326D01*
X224331326Y-126740723D01*
X224359348Y-126685728D01*
X224387266Y-126630936D01*
X224387266Y-126630935D01*
X224389498Y-126626555D01*
X224409542Y-126500000D01*
X224389498Y-126373445D01*
X224331326Y-126259277D01*
X224240723Y-126168674D01*
X224126555Y-126110502D01*
X224000000Y-126090458D01*
X223873445Y-126110502D01*
X223759277Y-126168674D01*
X223668674Y-126259277D01*
X223610502Y-126373445D01*
X223590458Y-126500000D01*
X222409542Y-126500000D01*
X222389498Y-126373445D01*
X222331326Y-126259277D01*
X222240723Y-126168674D01*
X222126555Y-126110502D01*
X222000000Y-126090458D01*
X221873445Y-126110502D01*
X221759277Y-126168674D01*
X221668674Y-126259277D01*
X221610502Y-126373445D01*
X221590458Y-126500000D01*
X220409542Y-126500000D01*
X220389498Y-126373445D01*
X220331326Y-126259277D01*
X220240723Y-126168674D01*
X220126555Y-126110502D01*
X220000000Y-126090458D01*
X219873445Y-126110502D01*
X219759277Y-126168674D01*
X219668674Y-126259277D01*
X219610502Y-126373445D01*
X219590458Y-126500000D01*
X218909542Y-126500000D01*
X218889498Y-126373445D01*
X218831326Y-126259277D01*
X218740723Y-126168674D01*
X218626555Y-126110502D01*
X218500000Y-126090458D01*
X218373445Y-126110502D01*
X218259277Y-126168674D01*
X218168674Y-126259277D01*
X218110502Y-126373445D01*
X218090458Y-126500000D01*
X216909542Y-126500000D01*
X216889498Y-126373445D01*
X216831326Y-126259277D01*
X216740723Y-126168674D01*
X216626555Y-126110502D01*
X216500000Y-126090458D01*
X216373445Y-126110502D01*
X216259277Y-126168674D01*
X216168674Y-126259277D01*
X216110502Y-126373445D01*
X216090458Y-126500000D01*
X173500000Y-126500000D01*
X173500000Y-125500000D01*
X222590458Y-125500000D01*
X222610502Y-125626555D01*
X222668674Y-125740723D01*
X222759277Y-125831326D01*
X222873445Y-125889498D01*
X223000000Y-125909542D01*
X223126555Y-125889498D01*
X223240723Y-125831326D01*
X223331326Y-125740723D01*
X223389498Y-125626555D01*
X223409542Y-125500000D01*
X223389498Y-125373445D01*
X223331326Y-125259277D01*
X223240723Y-125168674D01*
X223126555Y-125110502D01*
X223000000Y-125090458D01*
X222873445Y-125110502D01*
X222759277Y-125168674D01*
X222668674Y-125259277D01*
X222610502Y-125373445D01*
X222590458Y-125500000D01*
X173500000Y-125500000D01*
X173500000Y-124250000D01*
X184440458Y-124250000D01*
X184460502Y-124376555D01*
X184462734Y-124380935D01*
X184462734Y-124380936D01*
X184476918Y-124408773D01*
X184518674Y-124490723D01*
X184609277Y-124581326D01*
X184723445Y-124639498D01*
X184850000Y-124659542D01*
X184976555Y-124639498D01*
X185090723Y-124581326D01*
X185181326Y-124490723D01*
X185223082Y-124408773D01*
X185237266Y-124380936D01*
X185237266Y-124380935D01*
X185239498Y-124376555D01*
X185259542Y-124250000D01*
X186740458Y-124250000D01*
X186760502Y-124376555D01*
X186762734Y-124380935D01*
X186762734Y-124380936D01*
X186776918Y-124408773D01*
X186818674Y-124490723D01*
X186909277Y-124581326D01*
X187023445Y-124639498D01*
X187150000Y-124659542D01*
X187276555Y-124639498D01*
X187390723Y-124581326D01*
X187481326Y-124490723D01*
X187523082Y-124408773D01*
X187537266Y-124380936D01*
X187537266Y-124380935D01*
X187539498Y-124376555D01*
X187559542Y-124250000D01*
X187539498Y-124123445D01*
X187534041Y-124112734D01*
X187483557Y-124013656D01*
X187481326Y-124009277D01*
X187472049Y-124000000D01*
X214840458Y-124000000D01*
X214860502Y-124126555D01*
X214862734Y-124130935D01*
X214862734Y-124130936D01*
X214890652Y-124185728D01*
X214918674Y-124240723D01*
X215009277Y-124331326D01*
X215013656Y-124333557D01*
X215101472Y-124378302D01*
X215123445Y-124389498D01*
X215250000Y-124409542D01*
X215376555Y-124389498D01*
X215398529Y-124378302D01*
X215486344Y-124333557D01*
X215490723Y-124331326D01*
X215572049Y-124250000D01*
X216840458Y-124250000D01*
X216860502Y-124376555D01*
X216862734Y-124380935D01*
X216862734Y-124380936D01*
X216876918Y-124408773D01*
X216918674Y-124490723D01*
X217009277Y-124581326D01*
X217123445Y-124639498D01*
X217250000Y-124659542D01*
X217376555Y-124639498D01*
X217490723Y-124581326D01*
X217572049Y-124500000D01*
X221590458Y-124500000D01*
X221610502Y-124626555D01*
X221612734Y-124630935D01*
X221612734Y-124630936D01*
X221626918Y-124658773D01*
X221668674Y-124740723D01*
X221759277Y-124831326D01*
X221873445Y-124889498D01*
X222000000Y-124909542D01*
X222126555Y-124889498D01*
X222240723Y-124831326D01*
X222331326Y-124740723D01*
X222373082Y-124658773D01*
X222387266Y-124630936D01*
X222387266Y-124630935D01*
X222389498Y-124626555D01*
X222409542Y-124500000D01*
X223590458Y-124500000D01*
X223610502Y-124626555D01*
X223612734Y-124630935D01*
X223612734Y-124630936D01*
X223626918Y-124658773D01*
X223668674Y-124740723D01*
X223759277Y-124831326D01*
X223873445Y-124889498D01*
X224000000Y-124909542D01*
X224126555Y-124889498D01*
X224240723Y-124831326D01*
X224331326Y-124740723D01*
X224373082Y-124658773D01*
X224387266Y-124630936D01*
X224387266Y-124630935D01*
X224389498Y-124626555D01*
X224409542Y-124500000D01*
X224389498Y-124373445D01*
X224366266Y-124327849D01*
X224333557Y-124263656D01*
X224331326Y-124259277D01*
X224240723Y-124168674D01*
X224151957Y-124123445D01*
X224130936Y-124112734D01*
X224130935Y-124112734D01*
X224126555Y-124110502D01*
X224000000Y-124090458D01*
X223873445Y-124110502D01*
X223869065Y-124112734D01*
X223869064Y-124112734D01*
X223848043Y-124123445D01*
X223759277Y-124168674D01*
X223668674Y-124259277D01*
X223666443Y-124263656D01*
X223633735Y-124327849D01*
X223610502Y-124373445D01*
X223590458Y-124500000D01*
X222409542Y-124500000D01*
X222389498Y-124373445D01*
X222366266Y-124327849D01*
X222333557Y-124263656D01*
X222331326Y-124259277D01*
X222240723Y-124168674D01*
X222151957Y-124123445D01*
X222130936Y-124112734D01*
X222130935Y-124112734D01*
X222126555Y-124110502D01*
X222000000Y-124090458D01*
X221873445Y-124110502D01*
X221869065Y-124112734D01*
X221869064Y-124112734D01*
X221848043Y-124123445D01*
X221759277Y-124168674D01*
X221668674Y-124259277D01*
X221666443Y-124263656D01*
X221633735Y-124327849D01*
X221610502Y-124373445D01*
X221590458Y-124500000D01*
X217572049Y-124500000D01*
X217581326Y-124490723D01*
X217623082Y-124408773D01*
X217637266Y-124380936D01*
X217637266Y-124380935D01*
X217639498Y-124376555D01*
X217659542Y-124250000D01*
X217639498Y-124123445D01*
X217634041Y-124112734D01*
X217583557Y-124013656D01*
X217581326Y-124009277D01*
X217572049Y-124000000D01*
X218840458Y-124000000D01*
X218860502Y-124126555D01*
X218862734Y-124130935D01*
X218862734Y-124130936D01*
X218890652Y-124185728D01*
X218918674Y-124240723D01*
X219009277Y-124331326D01*
X219013656Y-124333557D01*
X219101472Y-124378302D01*
X219123445Y-124389498D01*
X219250000Y-124409542D01*
X219376555Y-124389498D01*
X219398529Y-124378302D01*
X219486344Y-124333557D01*
X219490723Y-124331326D01*
X219581326Y-124240723D01*
X219609348Y-124185728D01*
X219637266Y-124130936D01*
X219637266Y-124130935D01*
X219639498Y-124126555D01*
X219659542Y-124000000D01*
X219639498Y-123873445D01*
X219634041Y-123862734D01*
X219583557Y-123763656D01*
X219581326Y-123759277D01*
X219490723Y-123668674D01*
X219376555Y-123610502D01*
X219250000Y-123590458D01*
X219123445Y-123610502D01*
X219009277Y-123668674D01*
X218918674Y-123759277D01*
X218916443Y-123763656D01*
X218865960Y-123862734D01*
X218860502Y-123873445D01*
X218840458Y-124000000D01*
X217572049Y-124000000D01*
X217490723Y-123918674D01*
X217376555Y-123860502D01*
X217250000Y-123840458D01*
X217123445Y-123860502D01*
X217009277Y-123918674D01*
X216918674Y-124009277D01*
X216916443Y-124013656D01*
X216865960Y-124112734D01*
X216860502Y-124123445D01*
X216840458Y-124250000D01*
X215572049Y-124250000D01*
X215581326Y-124240723D01*
X215609348Y-124185728D01*
X215637266Y-124130936D01*
X215637266Y-124130935D01*
X215639498Y-124126555D01*
X215659542Y-124000000D01*
X215639498Y-123873445D01*
X215634041Y-123862734D01*
X215583557Y-123763656D01*
X215581326Y-123759277D01*
X215490723Y-123668674D01*
X215376555Y-123610502D01*
X215250000Y-123590458D01*
X215123445Y-123610502D01*
X215009277Y-123668674D01*
X214918674Y-123759277D01*
X214916443Y-123763656D01*
X214865960Y-123862734D01*
X214860502Y-123873445D01*
X214840458Y-124000000D01*
X187472049Y-124000000D01*
X187390723Y-123918674D01*
X187276555Y-123860502D01*
X187150000Y-123840458D01*
X187023445Y-123860502D01*
X186909277Y-123918674D01*
X186818674Y-124009277D01*
X186816443Y-124013656D01*
X186765960Y-124112734D01*
X186760502Y-124123445D01*
X186740458Y-124250000D01*
X185259542Y-124250000D01*
X185239498Y-124123445D01*
X185234041Y-124112734D01*
X185183557Y-124013656D01*
X185181326Y-124009277D01*
X185090723Y-123918674D01*
X184976555Y-123860502D01*
X184850000Y-123840458D01*
X184723445Y-123860502D01*
X184609277Y-123918674D01*
X184518674Y-124009277D01*
X184516443Y-124013656D01*
X184465960Y-124112734D01*
X184460502Y-124123445D01*
X184440458Y-124250000D01*
X173500000Y-124250000D01*
X173500000Y-121796868D01*
X181231723Y-121796868D01*
X181232196Y-121799995D01*
X181232196Y-121799997D01*
X181243775Y-121876555D01*
X181260720Y-121988599D01*
X181327677Y-122170583D01*
X181429860Y-122335387D01*
X181563094Y-122476278D01*
X181565685Y-122478092D01*
X181719347Y-122585688D01*
X181719351Y-122585690D01*
X181721937Y-122587501D01*
X181899900Y-122664512D01*
X181902994Y-122665158D01*
X181902996Y-122665159D01*
X182002877Y-122686025D01*
X182089713Y-122704166D01*
X182096086Y-122704500D01*
X182238456Y-122704500D01*
X182240030Y-122704340D01*
X182240032Y-122704340D01*
X182261739Y-122702135D01*
X182382919Y-122689826D01*
X182385932Y-122688882D01*
X182385936Y-122688881D01*
X182564936Y-122632786D01*
X182564938Y-122632785D01*
X182567957Y-122631839D01*
X182651215Y-122585688D01*
X182734790Y-122539362D01*
X182734792Y-122539360D01*
X182737555Y-122537829D01*
X182884786Y-122411636D01*
X183003636Y-122258416D01*
X183006983Y-122251615D01*
X183087850Y-122087272D01*
X183087851Y-122087268D01*
X183089249Y-122084428D01*
X183138128Y-121896778D01*
X183143364Y-121796868D01*
X186311723Y-121796868D01*
X186312196Y-121799995D01*
X186312196Y-121799997D01*
X186323775Y-121876555D01*
X186340720Y-121988599D01*
X186407677Y-122170583D01*
X186509860Y-122335387D01*
X186643094Y-122476278D01*
X186645685Y-122478092D01*
X186799347Y-122585688D01*
X186799351Y-122585690D01*
X186801937Y-122587501D01*
X186979900Y-122664512D01*
X186982994Y-122665158D01*
X186982996Y-122665159D01*
X187082877Y-122686025D01*
X187169713Y-122704166D01*
X187176086Y-122704500D01*
X187318456Y-122704500D01*
X187320030Y-122704340D01*
X187320032Y-122704340D01*
X187341739Y-122702135D01*
X187462919Y-122689826D01*
X187465932Y-122688882D01*
X187465936Y-122688881D01*
X187644936Y-122632786D01*
X187644938Y-122632785D01*
X187647957Y-122631839D01*
X187731215Y-122585688D01*
X187814790Y-122539362D01*
X187814792Y-122539360D01*
X187817555Y-122537829D01*
X187964786Y-122411636D01*
X188083636Y-122258416D01*
X188086983Y-122251615D01*
X188167850Y-122087272D01*
X188167851Y-122087268D01*
X188169249Y-122084428D01*
X188218128Y-121896778D01*
X188223364Y-121796868D01*
X188851723Y-121796868D01*
X188852196Y-121799995D01*
X188852196Y-121799997D01*
X188863775Y-121876555D01*
X188880720Y-121988599D01*
X188947677Y-122170583D01*
X189049860Y-122335387D01*
X189183094Y-122476278D01*
X189185685Y-122478092D01*
X189339347Y-122585688D01*
X189339351Y-122585690D01*
X189341937Y-122587501D01*
X189519900Y-122664512D01*
X189522994Y-122665158D01*
X189522996Y-122665159D01*
X189622877Y-122686025D01*
X189709713Y-122704166D01*
X189716086Y-122704500D01*
X189858456Y-122704500D01*
X189860030Y-122704340D01*
X189860032Y-122704340D01*
X189881739Y-122702135D01*
X190002919Y-122689826D01*
X190005932Y-122688882D01*
X190005936Y-122688881D01*
X190184936Y-122632786D01*
X190184938Y-122632785D01*
X190187957Y-122631839D01*
X190271215Y-122585688D01*
X190354790Y-122539362D01*
X190354792Y-122539360D01*
X190357555Y-122537829D01*
X190504786Y-122411636D01*
X190623636Y-122258416D01*
X190626983Y-122251615D01*
X190707850Y-122087272D01*
X190707851Y-122087268D01*
X190709249Y-122084428D01*
X190758128Y-121896778D01*
X190761053Y-121840969D01*
X209884128Y-121840969D01*
X209884613Y-121843789D01*
X209884613Y-121843794D01*
X209894245Y-121899845D01*
X209920061Y-122050087D01*
X209921053Y-122052775D01*
X209921054Y-122052780D01*
X209965507Y-122173273D01*
X209993501Y-122249154D01*
X210101988Y-122431505D01*
X210241890Y-122591032D01*
X210244143Y-122592809D01*
X210244144Y-122592809D01*
X210335099Y-122664512D01*
X210408520Y-122722393D01*
X210596299Y-122821188D01*
X210599026Y-122822035D01*
X210599029Y-122822036D01*
X210794299Y-122882668D01*
X210798938Y-122884109D01*
X210971216Y-122904500D01*
X211093827Y-122904500D01*
X211251292Y-122890031D01*
X211254052Y-122889252D01*
X211254055Y-122889252D01*
X211452751Y-122833214D01*
X211452755Y-122833212D01*
X211455508Y-122832436D01*
X211645809Y-122738590D01*
X211665713Y-122723727D01*
X211813522Y-122613353D01*
X211813524Y-122613352D01*
X211815821Y-122611636D01*
X211959850Y-122455826D01*
X212073074Y-122276377D01*
X212128574Y-122137266D01*
X212150640Y-122081957D01*
X212151700Y-122079300D01*
X212169151Y-121991570D01*
X212192536Y-121874001D01*
X212192536Y-121874000D01*
X212193094Y-121871195D01*
X212193490Y-121840969D01*
X215804128Y-121840969D01*
X215804613Y-121843789D01*
X215804613Y-121843794D01*
X215814245Y-121899845D01*
X215840061Y-122050087D01*
X215841053Y-122052775D01*
X215841054Y-122052780D01*
X215885507Y-122173273D01*
X215913501Y-122249154D01*
X216021988Y-122431505D01*
X216161890Y-122591032D01*
X216164143Y-122592809D01*
X216164144Y-122592809D01*
X216255099Y-122664512D01*
X216328520Y-122722393D01*
X216516299Y-122821188D01*
X216519026Y-122822035D01*
X216519029Y-122822036D01*
X216714299Y-122882668D01*
X216718938Y-122884109D01*
X216891216Y-122904500D01*
X217013827Y-122904500D01*
X217171292Y-122890031D01*
X217174052Y-122889252D01*
X217174055Y-122889252D01*
X217372751Y-122833214D01*
X217372755Y-122833212D01*
X217375508Y-122832436D01*
X217565809Y-122738590D01*
X217585713Y-122723727D01*
X217733522Y-122613353D01*
X217733524Y-122613352D01*
X217735821Y-122611636D01*
X217879850Y-122455826D01*
X217993074Y-122276377D01*
X218048574Y-122137266D01*
X218070640Y-122081957D01*
X218071700Y-122079300D01*
X218089151Y-121991570D01*
X218112536Y-121874001D01*
X218112536Y-121874000D01*
X218113094Y-121871195D01*
X218114681Y-121750000D01*
X219090458Y-121750000D01*
X219110502Y-121876555D01*
X219112734Y-121880935D01*
X219112734Y-121880936D01*
X219120806Y-121896778D01*
X219168674Y-121990723D01*
X219259277Y-122081326D01*
X219373445Y-122139498D01*
X219500000Y-122159542D01*
X219626555Y-122139498D01*
X219740723Y-122081326D01*
X219831326Y-121990723D01*
X219879194Y-121896778D01*
X219887266Y-121880936D01*
X219887266Y-121880935D01*
X219889498Y-121876555D01*
X219895134Y-121840969D01*
X220884128Y-121840969D01*
X220884613Y-121843789D01*
X220884613Y-121843794D01*
X220894245Y-121899845D01*
X220920061Y-122050087D01*
X220921053Y-122052775D01*
X220921054Y-122052780D01*
X220965507Y-122173273D01*
X220993501Y-122249154D01*
X221101988Y-122431505D01*
X221241890Y-122591032D01*
X221244143Y-122592809D01*
X221244144Y-122592809D01*
X221335099Y-122664512D01*
X221408520Y-122722393D01*
X221596299Y-122821188D01*
X221599026Y-122822035D01*
X221599029Y-122822036D01*
X221794299Y-122882668D01*
X221798938Y-122884109D01*
X221971216Y-122904500D01*
X222093827Y-122904500D01*
X222251292Y-122890031D01*
X222254052Y-122889252D01*
X222254055Y-122889252D01*
X222452751Y-122833214D01*
X222452755Y-122833212D01*
X222455508Y-122832436D01*
X222645809Y-122738590D01*
X222665713Y-122723727D01*
X222813522Y-122613353D01*
X222813524Y-122613352D01*
X222815821Y-122611636D01*
X222959850Y-122455826D01*
X223073074Y-122276377D01*
X223128574Y-122137266D01*
X223150640Y-122081957D01*
X223151700Y-122079300D01*
X223169151Y-121991570D01*
X223192536Y-121874001D01*
X223192536Y-121874000D01*
X223193094Y-121871195D01*
X223194681Y-121750000D01*
X224090458Y-121750000D01*
X224110502Y-121876555D01*
X224112734Y-121880935D01*
X224112734Y-121880936D01*
X224120806Y-121896778D01*
X224168674Y-121990723D01*
X224259277Y-122081326D01*
X224373445Y-122139498D01*
X224500000Y-122159542D01*
X224626555Y-122139498D01*
X224740723Y-122081326D01*
X224831326Y-121990723D01*
X224879194Y-121896778D01*
X224887266Y-121880936D01*
X224887266Y-121880935D01*
X224889498Y-121876555D01*
X224909542Y-121750000D01*
X224889498Y-121623445D01*
X224880808Y-121606389D01*
X224833557Y-121513656D01*
X224831326Y-121509277D01*
X224740723Y-121418674D01*
X224626555Y-121360502D01*
X224500000Y-121340458D01*
X224373445Y-121360502D01*
X224259277Y-121418674D01*
X224168674Y-121509277D01*
X224166443Y-121513656D01*
X224119193Y-121606389D01*
X224110502Y-121623445D01*
X224090458Y-121750000D01*
X223194681Y-121750000D01*
X223195835Y-121661893D01*
X223195835Y-121661888D01*
X223195872Y-121659031D01*
X223191170Y-121631663D01*
X223170892Y-121513656D01*
X223159939Y-121449913D01*
X223158947Y-121447225D01*
X223158946Y-121447220D01*
X223087491Y-121253534D01*
X223087489Y-121253531D01*
X223086499Y-121250846D01*
X222978012Y-121068495D01*
X222838110Y-120908968D01*
X222835856Y-120907191D01*
X222673733Y-120779383D01*
X222673732Y-120779382D01*
X222671480Y-120777607D01*
X222483701Y-120678812D01*
X222480974Y-120677965D01*
X222480971Y-120677964D01*
X222283793Y-120616739D01*
X222281062Y-120615891D01*
X222108784Y-120595500D01*
X221986173Y-120595500D01*
X221828708Y-120609969D01*
X221825948Y-120610748D01*
X221825945Y-120610748D01*
X221627249Y-120666786D01*
X221627245Y-120666788D01*
X221624492Y-120667564D01*
X221434191Y-120761410D01*
X221431892Y-120763127D01*
X221431890Y-120763128D01*
X221289180Y-120869695D01*
X221264179Y-120888364D01*
X221120150Y-121044174D01*
X221006926Y-121223623D01*
X221005866Y-121226280D01*
X220931481Y-121412728D01*
X220928300Y-121420700D01*
X220927742Y-121423506D01*
X220927741Y-121423509D01*
X220887972Y-121623445D01*
X220886906Y-121628805D01*
X220886473Y-121661893D01*
X220885256Y-121754855D01*
X220884128Y-121840969D01*
X219895134Y-121840969D01*
X219909542Y-121750000D01*
X219889498Y-121623445D01*
X219880808Y-121606389D01*
X219833557Y-121513656D01*
X219831326Y-121509277D01*
X219740723Y-121418674D01*
X219626555Y-121360502D01*
X219500000Y-121340458D01*
X219373445Y-121360502D01*
X219259277Y-121418674D01*
X219168674Y-121509277D01*
X219166443Y-121513656D01*
X219119193Y-121606389D01*
X219110502Y-121623445D01*
X219090458Y-121750000D01*
X218114681Y-121750000D01*
X218115835Y-121661893D01*
X218115835Y-121661888D01*
X218115872Y-121659031D01*
X218111170Y-121631663D01*
X218090892Y-121513656D01*
X218079939Y-121449913D01*
X218078947Y-121447225D01*
X218078946Y-121447220D01*
X218007491Y-121253534D01*
X218007489Y-121253531D01*
X218006499Y-121250846D01*
X217898012Y-121068495D01*
X217758110Y-120908968D01*
X217755856Y-120907191D01*
X217593733Y-120779383D01*
X217593732Y-120779382D01*
X217591480Y-120777607D01*
X217403701Y-120678812D01*
X217400974Y-120677965D01*
X217400971Y-120677964D01*
X217203793Y-120616739D01*
X217201062Y-120615891D01*
X217028784Y-120595500D01*
X216906173Y-120595500D01*
X216748708Y-120609969D01*
X216745948Y-120610748D01*
X216745945Y-120610748D01*
X216547249Y-120666786D01*
X216547245Y-120666788D01*
X216544492Y-120667564D01*
X216354191Y-120761410D01*
X216351892Y-120763127D01*
X216351890Y-120763128D01*
X216209180Y-120869695D01*
X216184179Y-120888364D01*
X216040150Y-121044174D01*
X215926926Y-121223623D01*
X215925866Y-121226280D01*
X215851481Y-121412728D01*
X215848300Y-121420700D01*
X215847742Y-121423506D01*
X215847741Y-121423509D01*
X215807972Y-121623445D01*
X215806906Y-121628805D01*
X215806473Y-121661893D01*
X215805256Y-121754855D01*
X215804128Y-121840969D01*
X212193490Y-121840969D01*
X212194681Y-121750000D01*
X212195835Y-121661893D01*
X212195835Y-121661888D01*
X212195872Y-121659031D01*
X212191170Y-121631663D01*
X212170892Y-121513656D01*
X212159939Y-121449913D01*
X212158947Y-121447225D01*
X212158946Y-121447220D01*
X212087491Y-121253534D01*
X212087489Y-121253531D01*
X212086499Y-121250846D01*
X211978012Y-121068495D01*
X211838110Y-120908968D01*
X211835856Y-120907191D01*
X211673733Y-120779383D01*
X211673732Y-120779382D01*
X211671480Y-120777607D01*
X211483701Y-120678812D01*
X211480974Y-120677965D01*
X211480971Y-120677964D01*
X211283793Y-120616739D01*
X211281062Y-120615891D01*
X211108784Y-120595500D01*
X210986173Y-120595500D01*
X210828708Y-120609969D01*
X210825948Y-120610748D01*
X210825945Y-120610748D01*
X210627249Y-120666786D01*
X210627245Y-120666788D01*
X210624492Y-120667564D01*
X210434191Y-120761410D01*
X210431892Y-120763127D01*
X210431890Y-120763128D01*
X210289180Y-120869695D01*
X210264179Y-120888364D01*
X210120150Y-121044174D01*
X210006926Y-121223623D01*
X210005866Y-121226280D01*
X209931481Y-121412728D01*
X209928300Y-121420700D01*
X209927742Y-121423506D01*
X209927741Y-121423509D01*
X209887972Y-121623445D01*
X209886906Y-121628805D01*
X209886473Y-121661893D01*
X209885256Y-121754855D01*
X209884128Y-121840969D01*
X190761053Y-121840969D01*
X190768277Y-121703132D01*
X190762040Y-121661893D01*
X190739754Y-121514533D01*
X190739753Y-121514530D01*
X190739280Y-121511401D01*
X190672323Y-121329417D01*
X190570140Y-121164613D01*
X190436906Y-121023722D01*
X190346813Y-120960638D01*
X190280653Y-120914312D01*
X190280649Y-120914310D01*
X190278063Y-120912499D01*
X190100100Y-120835488D01*
X190097006Y-120834842D01*
X190097004Y-120834841D01*
X189977402Y-120809855D01*
X189910287Y-120795834D01*
X189903914Y-120795500D01*
X189761544Y-120795500D01*
X189759970Y-120795660D01*
X189759968Y-120795660D01*
X189753402Y-120796327D01*
X189617081Y-120810174D01*
X189614068Y-120811118D01*
X189614064Y-120811119D01*
X189435064Y-120867214D01*
X189435062Y-120867215D01*
X189432043Y-120868161D01*
X189395596Y-120888364D01*
X189265210Y-120960638D01*
X189265208Y-120960640D01*
X189262445Y-120962171D01*
X189115214Y-121088364D01*
X188996364Y-121241584D01*
X188994966Y-121244425D01*
X188936751Y-121362734D01*
X188910751Y-121415572D01*
X188861872Y-121603222D01*
X188851723Y-121796868D01*
X188223364Y-121796868D01*
X188228277Y-121703132D01*
X188222040Y-121661893D01*
X188199754Y-121514533D01*
X188199753Y-121514530D01*
X188199280Y-121511401D01*
X188132323Y-121329417D01*
X188030140Y-121164613D01*
X187896906Y-121023722D01*
X187806813Y-120960638D01*
X187740653Y-120914312D01*
X187740649Y-120914310D01*
X187738063Y-120912499D01*
X187560100Y-120835488D01*
X187557006Y-120834842D01*
X187557004Y-120834841D01*
X187437402Y-120809855D01*
X187370287Y-120795834D01*
X187363914Y-120795500D01*
X187221544Y-120795500D01*
X187219970Y-120795660D01*
X187219968Y-120795660D01*
X187213402Y-120796327D01*
X187077081Y-120810174D01*
X187074068Y-120811118D01*
X187074064Y-120811119D01*
X186895064Y-120867214D01*
X186895062Y-120867215D01*
X186892043Y-120868161D01*
X186855596Y-120888364D01*
X186725210Y-120960638D01*
X186725208Y-120960640D01*
X186722445Y-120962171D01*
X186575214Y-121088364D01*
X186456364Y-121241584D01*
X186454966Y-121244425D01*
X186396751Y-121362734D01*
X186370751Y-121415572D01*
X186321872Y-121603222D01*
X186311723Y-121796868D01*
X183143364Y-121796868D01*
X183148277Y-121703132D01*
X183142040Y-121661893D01*
X183119754Y-121514533D01*
X183119753Y-121514530D01*
X183119280Y-121511401D01*
X183052323Y-121329417D01*
X182950140Y-121164613D01*
X182816906Y-121023722D01*
X182726813Y-120960638D01*
X182660653Y-120914312D01*
X182660649Y-120914310D01*
X182658063Y-120912499D01*
X182480100Y-120835488D01*
X182477006Y-120834842D01*
X182477004Y-120834841D01*
X182357402Y-120809855D01*
X182290287Y-120795834D01*
X182283914Y-120795500D01*
X182141544Y-120795500D01*
X182139970Y-120795660D01*
X182139968Y-120795660D01*
X182133402Y-120796327D01*
X181997081Y-120810174D01*
X181994068Y-120811118D01*
X181994064Y-120811119D01*
X181815064Y-120867214D01*
X181815062Y-120867215D01*
X181812043Y-120868161D01*
X181775596Y-120888364D01*
X181645210Y-120960638D01*
X181645208Y-120960640D01*
X181642445Y-120962171D01*
X181495214Y-121088364D01*
X181376364Y-121241584D01*
X181374966Y-121244425D01*
X181316751Y-121362734D01*
X181290751Y-121415572D01*
X181241872Y-121603222D01*
X181231723Y-121796868D01*
X173500000Y-121796868D01*
X173500000Y-119500000D01*
X219090458Y-119500000D01*
X219110502Y-119626555D01*
X219168674Y-119740723D01*
X219259277Y-119831326D01*
X219373445Y-119889498D01*
X219500000Y-119909542D01*
X219626555Y-119889498D01*
X219740723Y-119831326D01*
X219831326Y-119740723D01*
X219889498Y-119626555D01*
X219909542Y-119500000D01*
X221590458Y-119500000D01*
X221610502Y-119626555D01*
X221668674Y-119740723D01*
X221759277Y-119831326D01*
X221873445Y-119889498D01*
X222000000Y-119909542D01*
X222126555Y-119889498D01*
X222240723Y-119831326D01*
X222331326Y-119740723D01*
X222389498Y-119626555D01*
X222409542Y-119500000D01*
X224090458Y-119500000D01*
X224110502Y-119626555D01*
X224168674Y-119740723D01*
X224259277Y-119831326D01*
X224373445Y-119889498D01*
X224500000Y-119909542D01*
X224626555Y-119889498D01*
X224740723Y-119831326D01*
X224831326Y-119740723D01*
X224889498Y-119626555D01*
X224909542Y-119500000D01*
X224889498Y-119373445D01*
X224831326Y-119259277D01*
X224740723Y-119168674D01*
X224626555Y-119110502D01*
X224500000Y-119090458D01*
X224373445Y-119110502D01*
X224259277Y-119168674D01*
X224168674Y-119259277D01*
X224110502Y-119373445D01*
X224090458Y-119500000D01*
X222409542Y-119500000D01*
X222389498Y-119373445D01*
X222331326Y-119259277D01*
X222240723Y-119168674D01*
X222126555Y-119110502D01*
X222000000Y-119090458D01*
X221873445Y-119110502D01*
X221759277Y-119168674D01*
X221668674Y-119259277D01*
X221610502Y-119373445D01*
X221590458Y-119500000D01*
X219909542Y-119500000D01*
X219889498Y-119373445D01*
X219831326Y-119259277D01*
X219740723Y-119168674D01*
X219626555Y-119110502D01*
X219500000Y-119090458D01*
X219373445Y-119110502D01*
X219259277Y-119168674D01*
X219168674Y-119259277D01*
X219110502Y-119373445D01*
X219090458Y-119500000D01*
X173500000Y-119500000D01*
X173500000Y-110250000D01*
X198440458Y-110250000D01*
X198460502Y-110376555D01*
X198518674Y-110490723D01*
X198609277Y-110581326D01*
X198723445Y-110639498D01*
X198850000Y-110659542D01*
X198976555Y-110639498D01*
X199090723Y-110581326D01*
X199181326Y-110490723D01*
X199239498Y-110376555D01*
X199259542Y-110250000D01*
X199239498Y-110123445D01*
X199216266Y-110077849D01*
X199183557Y-110013656D01*
X199181326Y-110009277D01*
X199090723Y-109918674D01*
X199008061Y-109876555D01*
X198980936Y-109862734D01*
X198980935Y-109862734D01*
X198976555Y-109860502D01*
X198850000Y-109840458D01*
X198723445Y-109860502D01*
X198719065Y-109862734D01*
X198719064Y-109862734D01*
X198691939Y-109876555D01*
X198609277Y-109918674D01*
X198518674Y-110009277D01*
X198516443Y-110013656D01*
X198483735Y-110077849D01*
X198460502Y-110123445D01*
X198440458Y-110250000D01*
X173500000Y-110250000D01*
X173500000Y-109750000D01*
X197590458Y-109750000D01*
X197610502Y-109876555D01*
X197612734Y-109880935D01*
X197612734Y-109880936D01*
X197640652Y-109935728D01*
X197668674Y-109990723D01*
X197759277Y-110081326D01*
X197763656Y-110083557D01*
X197851472Y-110128302D01*
X197873445Y-110139498D01*
X198000000Y-110159542D01*
X198126555Y-110139498D01*
X198148529Y-110128302D01*
X198236344Y-110083557D01*
X198240723Y-110081326D01*
X198331326Y-109990723D01*
X198359348Y-109935728D01*
X198387266Y-109880936D01*
X198387266Y-109880935D01*
X198389498Y-109876555D01*
X198409542Y-109750000D01*
X198389498Y-109623445D01*
X198352076Y-109550000D01*
X199090458Y-109550000D01*
X199110502Y-109676555D01*
X199168674Y-109790723D01*
X199259277Y-109881326D01*
X199373445Y-109939498D01*
X199500000Y-109959542D01*
X199626555Y-109939498D01*
X199740723Y-109881326D01*
X199831326Y-109790723D01*
X199889498Y-109676555D01*
X199909542Y-109550000D01*
X199889498Y-109423445D01*
X199885931Y-109416443D01*
X199833557Y-109313656D01*
X199831326Y-109309277D01*
X199740723Y-109218674D01*
X199626555Y-109160502D01*
X199500000Y-109140458D01*
X199373445Y-109160502D01*
X199259277Y-109218674D01*
X199168674Y-109309277D01*
X199166443Y-109313656D01*
X199114070Y-109416443D01*
X199110502Y-109423445D01*
X199090458Y-109550000D01*
X198352076Y-109550000D01*
X198331326Y-109509277D01*
X198240723Y-109418674D01*
X198126555Y-109360502D01*
X198000000Y-109340458D01*
X197873445Y-109360502D01*
X197759277Y-109418674D01*
X197668674Y-109509277D01*
X197610502Y-109623445D01*
X197590458Y-109750000D01*
X173500000Y-109750000D01*
X173500000Y-108750000D01*
X197590458Y-108750000D01*
X197610502Y-108876555D01*
X197668674Y-108990723D01*
X197759277Y-109081326D01*
X197873445Y-109139498D01*
X198000000Y-109159542D01*
X198126555Y-109139498D01*
X198240723Y-109081326D01*
X198331326Y-108990723D01*
X198389498Y-108876555D01*
X198409542Y-108750000D01*
X198389498Y-108623445D01*
X198331326Y-108509277D01*
X198240723Y-108418674D01*
X198126555Y-108360502D01*
X198000000Y-108340458D01*
X197873445Y-108360502D01*
X197759277Y-108418674D01*
X197668674Y-108509277D01*
X197610502Y-108623445D01*
X197590458Y-108750000D01*
X173500000Y-108750000D01*
X173500000Y-101062500D01*
X173518306Y-101018306D01*
X173562500Y-101000000D01*
X176937500Y-101000000D01*
X176981694Y-101018306D01*
G37*
%TD.AperFunction*%
%TD*%
M02*
