%TF.GenerationSoftware,KiCad,Pcbnew,6.0.11-3.fc37*%
%TF.CreationDate,2023-08-14T12:31:00+01:00*%
%TF.ProjectId,kitchen-led-strips,6b697463-6865-46e2-9d6c-65642d737472,1.0*%
%TF.SameCoordinates,Original*%
%TF.FileFunction,Legend,Bot*%
%TF.FilePolarity,Positive*%
%FSLAX46Y46*%
G04 Gerber Fmt 4.6, Leading zero omitted, Abs format (unit mm)*
G04 Created by KiCad (PCBNEW 6.0.11-3.fc37) date 2023-08-14 12:31:00*
%MOMM*%
%LPD*%
G01*
G04 APERTURE LIST*
G04 Aperture macros list*
%AMRoundRect*
0 Rectangle with rounded corners*
0 $1 Rounding radius*
0 $2 $3 $4 $5 $6 $7 $8 $9 X,Y pos of 4 corners*
0 Add a 4 corners polygon primitive as box body*
4,1,4,$2,$3,$4,$5,$6,$7,$8,$9,$2,$3,0*
0 Add four circle primitives for the rounded corners*
1,1,$1+$1,$2,$3*
1,1,$1+$1,$4,$5*
1,1,$1+$1,$6,$7*
1,1,$1+$1,$8,$9*
0 Add four rect primitives between the rounded corners*
20,1,$1+$1,$2,$3,$4,$5,0*
20,1,$1+$1,$4,$5,$6,$7,0*
20,1,$1+$1,$6,$7,$8,$9,0*
20,1,$1+$1,$8,$9,$2,$3,0*%
G04 Aperture macros list end*
%ADD10C,0.150000*%
%ADD11RoundRect,0.088000X-1.800000X1.800000X-1.800000X-1.800000X1.800000X-1.800000X1.800000X1.800000X0*%
%ADD12O,3.776000X3.776000*%
%ADD13RoundRect,0.088000X-0.850000X0.850000X-0.850000X-0.850000X0.850000X-0.850000X0.850000X0.850000X0*%
%ADD14O,1.876000X1.876000*%
%ADD15RoundRect,0.088000X0.850000X0.850000X-0.850000X0.850000X-0.850000X-0.850000X0.850000X-0.850000X0*%
%ADD16RoundRect,0.088000X0.675000X-0.675000X0.675000X0.675000X-0.675000X0.675000X-0.675000X-0.675000X0*%
%ADD17O,1.526000X1.526000*%
%ADD18RoundRect,0.088000X-1.125000X1.125000X-1.125000X-1.125000X1.125000X-1.125000X1.125000X1.125000X0*%
%ADD19O,2.426000X2.426000*%
G04 APERTURE END LIST*
D10*
X221619047Y-109452380D02*
X221619047Y-110166666D01*
X221666666Y-110309523D01*
X221761904Y-110404761D01*
X221904761Y-110452380D01*
X222000000Y-110452380D01*
X220666666Y-110452380D02*
X221142857Y-110452380D01*
X221142857Y-109452380D01*
X219761904Y-110357142D02*
X219809523Y-110404761D01*
X219952380Y-110452380D01*
X220047619Y-110452380D01*
X220190476Y-110404761D01*
X220285714Y-110309523D01*
X220333333Y-110214285D01*
X220380952Y-110023809D01*
X220380952Y-109880952D01*
X220333333Y-109690476D01*
X220285714Y-109595238D01*
X220190476Y-109500000D01*
X220047619Y-109452380D01*
X219952380Y-109452380D01*
X219809523Y-109500000D01*
X219761904Y-109547619D01*
X219047619Y-109452380D02*
X219047619Y-110166666D01*
X219095238Y-110309523D01*
X219190476Y-110404761D01*
X219333333Y-110452380D01*
X219428571Y-110452380D01*
X218095238Y-110452380D02*
X218571428Y-110452380D01*
X218571428Y-109452380D01*
X217190476Y-110357142D02*
X217238095Y-110404761D01*
X217380952Y-110452380D01*
X217476190Y-110452380D01*
X217619047Y-110404761D01*
X217714285Y-110309523D01*
X217761904Y-110214285D01*
X217809523Y-110023809D01*
X217809523Y-109880952D01*
X217761904Y-109690476D01*
X217714285Y-109595238D01*
X217619047Y-109500000D01*
X217476190Y-109452380D01*
X217380952Y-109452380D01*
X217238095Y-109500000D01*
X217190476Y-109547619D01*
X216476190Y-109452380D02*
X216476190Y-110166666D01*
X216523809Y-110309523D01*
X216619047Y-110404761D01*
X216761904Y-110452380D01*
X216857142Y-110452380D01*
X215523809Y-110452380D02*
X216000000Y-110452380D01*
X216000000Y-109452380D01*
X214619047Y-110357142D02*
X214666666Y-110404761D01*
X214809523Y-110452380D01*
X214904761Y-110452380D01*
X215047619Y-110404761D01*
X215142857Y-110309523D01*
X215190476Y-110214285D01*
X215238095Y-110023809D01*
X215238095Y-109880952D01*
X215190476Y-109690476D01*
X215142857Y-109595238D01*
X215047619Y-109500000D01*
X214904761Y-109452380D01*
X214809523Y-109452380D01*
X214666666Y-109500000D01*
X214619047Y-109547619D01*
X213904761Y-109452380D02*
X213904761Y-110166666D01*
X213952380Y-110309523D01*
X214047619Y-110404761D01*
X214190476Y-110452380D01*
X214285714Y-110452380D01*
X212952380Y-110452380D02*
X213428571Y-110452380D01*
X213428571Y-109452380D01*
X212047619Y-110357142D02*
X212095238Y-110404761D01*
X212238095Y-110452380D01*
X212333333Y-110452380D01*
X212476190Y-110404761D01*
X212571428Y-110309523D01*
X212619047Y-110214285D01*
X212666666Y-110023809D01*
X212666666Y-109880952D01*
X212619047Y-109690476D01*
X212571428Y-109595238D01*
X212476190Y-109500000D01*
X212333333Y-109452380D01*
X212238095Y-109452380D01*
X212095238Y-109500000D01*
X212047619Y-109547619D01*
%LPC*%
D11*
%TO.C,CONN1*%
X211040000Y-121750000D03*
D12*
X205960000Y-121750000D03*
%TD*%
D13*
%TO.C,CONN5*%
X215240000Y-168250000D03*
D14*
X215240000Y-170790000D03*
X212700000Y-168250000D03*
X212700000Y-170790000D03*
X210160000Y-168250000D03*
X210160000Y-170790000D03*
X207620000Y-168250000D03*
X207620000Y-170790000D03*
X205080000Y-168250000D03*
X205080000Y-170790000D03*
X202540000Y-168250000D03*
X202540000Y-170790000D03*
X200000000Y-168250000D03*
X200000000Y-170790000D03*
X197460000Y-168250000D03*
X197460000Y-170790000D03*
X194920000Y-168250000D03*
X194920000Y-170790000D03*
X192380000Y-168250000D03*
X192380000Y-170790000D03*
X189840000Y-168250000D03*
X189840000Y-170790000D03*
X187300000Y-168250000D03*
X187300000Y-170790000D03*
X184760000Y-168250000D03*
X184760000Y-170790000D03*
%TD*%
D15*
%TO.C,CONN7*%
X219750000Y-159310000D03*
D14*
X219750000Y-156770000D03*
X219750000Y-154230000D03*
X219750000Y-151690000D03*
%TD*%
D11*
%TO.C,CONN2*%
X222040000Y-121750000D03*
D12*
X216960000Y-121750000D03*
%TD*%
D16*
%TO.C,CONN4*%
X196000000Y-104750000D03*
D17*
X198000000Y-104750000D03*
X200000000Y-104750000D03*
X202000000Y-104750000D03*
X204000000Y-104750000D03*
%TD*%
D18*
%TO.C,CONN3*%
X189810000Y-121750000D03*
D19*
X187270000Y-121750000D03*
X184730000Y-121750000D03*
X182190000Y-121750000D03*
%TD*%
D15*
%TO.C,CONN6*%
X215250000Y-158040000D03*
D14*
X215250000Y-155500000D03*
X215250000Y-152960000D03*
%TD*%
M02*
