%TF.GenerationSoftware,KiCad,Pcbnew,6.0.11-3.fc37*%
%TF.CreationDate,2023-08-14T12:31:00+01:00*%
%TF.ProjectId,kitchen-led-strips,6b697463-6865-46e2-9d6c-65642d737472,1.0*%
%TF.SameCoordinates,Original*%
%TF.FileFunction,Copper,L1,Top*%
%TF.FilePolarity,Positive*%
%FSLAX46Y46*%
G04 Gerber Fmt 4.6, Leading zero omitted, Abs format (unit mm)*
G04 Created by KiCad (PCBNEW 6.0.11-3.fc37) date 2023-08-14 12:31:00*
%MOMM*%
%LPD*%
G01*
G04 APERTURE LIST*
G04 Aperture macros list*
%AMRoundRect*
0 Rectangle with rounded corners*
0 $1 Rounding radius*
0 $2 $3 $4 $5 $6 $7 $8 $9 X,Y pos of 4 corners*
0 Add a 4 corners polygon primitive as box body*
4,1,4,$2,$3,$4,$5,$6,$7,$8,$9,$2,$3,0*
0 Add four circle primitives for the rounded corners*
1,1,$1+$1,$2,$3*
1,1,$1+$1,$4,$5*
1,1,$1+$1,$6,$7*
1,1,$1+$1,$8,$9*
0 Add four rect primitives between the rounded corners*
20,1,$1+$1,$2,$3,$4,$5,0*
20,1,$1+$1,$4,$5,$6,$7,0*
20,1,$1+$1,$6,$7,$8,$9,0*
20,1,$1+$1,$8,$9,$2,$3,0*%
G04 Aperture macros list end*
%TA.AperFunction,SMDPad,CuDef*%
%ADD10RoundRect,0.135000X0.185000X-0.135000X0.185000X0.135000X-0.185000X0.135000X-0.185000X-0.135000X0*%
%TD*%
%TA.AperFunction,SMDPad,CuDef*%
%ADD11RoundRect,0.050000X-0.362500X-0.050000X0.362500X-0.050000X0.362500X0.050000X-0.362500X0.050000X0*%
%TD*%
%TA.AperFunction,SMDPad,CuDef*%
%ADD12RoundRect,0.050000X-0.050000X-0.362500X0.050000X-0.362500X0.050000X0.362500X-0.050000X0.362500X0*%
%TD*%
%TA.AperFunction,ComponentPad*%
%ADD13C,0.500000*%
%TD*%
%TA.AperFunction,SMDPad,CuDef*%
%ADD14R,2.350000X2.350000*%
%TD*%
%TA.AperFunction,ComponentPad*%
%ADD15R,3.600000X3.600000*%
%TD*%
%TA.AperFunction,ComponentPad*%
%ADD16O,3.600000X3.600000*%
%TD*%
%TA.AperFunction,ComponentPad*%
%ADD17R,1.700000X1.700000*%
%TD*%
%TA.AperFunction,ComponentPad*%
%ADD18O,1.700000X1.700000*%
%TD*%
%TA.AperFunction,SMDPad,CuDef*%
%ADD19RoundRect,0.135000X0.135000X0.185000X-0.135000X0.185000X-0.135000X-0.185000X0.135000X-0.185000X0*%
%TD*%
%TA.AperFunction,SMDPad,CuDef*%
%ADD20RoundRect,0.250000X-0.650000X0.325000X-0.650000X-0.325000X0.650000X-0.325000X0.650000X0.325000X0*%
%TD*%
%TA.AperFunction,SMDPad,CuDef*%
%ADD21RoundRect,0.135000X-0.185000X0.135000X-0.185000X-0.135000X0.185000X-0.135000X0.185000X0.135000X0*%
%TD*%
%TA.AperFunction,SMDPad,CuDef*%
%ADD22R,0.400000X0.650000*%
%TD*%
%TA.AperFunction,SMDPad,CuDef*%
%ADD23R,0.600000X0.420000*%
%TD*%
%TA.AperFunction,SMDPad,CuDef*%
%ADD24RoundRect,0.225000X0.225000X0.250000X-0.225000X0.250000X-0.225000X-0.250000X0.225000X-0.250000X0*%
%TD*%
%TA.AperFunction,SMDPad,CuDef*%
%ADD25RoundRect,0.321250X-0.413750X0.321250X-0.413750X-0.321250X0.413750X-0.321250X0.413750X0.321250X0*%
%TD*%
%TA.AperFunction,SMDPad,CuDef*%
%ADD26R,0.450000X0.600000*%
%TD*%
%TA.AperFunction,SMDPad,CuDef*%
%ADD27RoundRect,0.225000X-0.225000X-0.250000X0.225000X-0.250000X0.225000X0.250000X-0.225000X0.250000X0*%
%TD*%
%TA.AperFunction,SMDPad,CuDef*%
%ADD28RoundRect,0.135000X-0.135000X-0.185000X0.135000X-0.185000X0.135000X0.185000X-0.135000X0.185000X0*%
%TD*%
%TA.AperFunction,SMDPad,CuDef*%
%ADD29RoundRect,0.185000X0.740000X2.565000X-0.740000X2.565000X-0.740000X-2.565000X0.740000X-2.565000X0*%
%TD*%
%TA.AperFunction,ComponentPad*%
%ADD30R,1.350000X1.350000*%
%TD*%
%TA.AperFunction,ComponentPad*%
%ADD31O,1.350000X1.350000*%
%TD*%
%TA.AperFunction,SMDPad,CuDef*%
%ADD32RoundRect,0.225000X0.250000X-0.225000X0.250000X0.225000X-0.250000X0.225000X-0.250000X-0.225000X0*%
%TD*%
%TA.AperFunction,SMDPad,CuDef*%
%ADD33RoundRect,0.225000X-0.250000X0.225000X-0.250000X-0.225000X0.250000X-0.225000X0.250000X0.225000X0*%
%TD*%
%TA.AperFunction,SMDPad,CuDef*%
%ADD34RoundRect,0.200000X-0.200000X-0.275000X0.200000X-0.275000X0.200000X0.275000X-0.200000X0.275000X0*%
%TD*%
%TA.AperFunction,SMDPad,CuDef*%
%ADD35RoundRect,0.140000X0.170000X-0.140000X0.170000X0.140000X-0.170000X0.140000X-0.170000X-0.140000X0*%
%TD*%
%TA.AperFunction,SMDPad,CuDef*%
%ADD36R,1.000000X0.700000*%
%TD*%
%TA.AperFunction,SMDPad,CuDef*%
%ADD37RoundRect,0.250000X1.075000X-0.312500X1.075000X0.312500X-1.075000X0.312500X-1.075000X-0.312500X0*%
%TD*%
%TA.AperFunction,ComponentPad*%
%ADD38R,2.250000X2.250000*%
%TD*%
%TA.AperFunction,ComponentPad*%
%ADD39O,2.250000X2.250000*%
%TD*%
%TA.AperFunction,SMDPad,CuDef*%
%ADD40RoundRect,0.250000X0.650000X-0.325000X0.650000X0.325000X-0.650000X0.325000X-0.650000X-0.325000X0*%
%TD*%
%TA.AperFunction,SMDPad,CuDef*%
%ADD41RoundRect,0.087500X-0.152500X-0.087500X0.152500X-0.087500X0.152500X0.087500X-0.152500X0.087500X0*%
%TD*%
%TA.AperFunction,SMDPad,CuDef*%
%ADD42RoundRect,0.095000X-0.095000X-0.155000X0.095000X-0.155000X0.095000X0.155000X-0.095000X0.155000X0*%
%TD*%
%TA.AperFunction,SMDPad,CuDef*%
%ADD43R,1.020000X1.660000*%
%TD*%
%TA.AperFunction,ViaPad*%
%ADD44C,0.450000*%
%TD*%
%TA.AperFunction,Conductor*%
%ADD45C,0.127000*%
%TD*%
%TA.AperFunction,Conductor*%
%ADD46C,0.350000*%
%TD*%
%TA.AperFunction,Conductor*%
%ADD47C,0.300000*%
%TD*%
%TA.AperFunction,Conductor*%
%ADD48C,0.200000*%
%TD*%
%TA.AperFunction,Conductor*%
%ADD49C,0.400000*%
%TD*%
%TA.AperFunction,Conductor*%
%ADD50C,0.450000*%
%TD*%
%TA.AperFunction,Conductor*%
%ADD51C,0.519700*%
%TD*%
G04 APERTURE END LIST*
D10*
%TO.P,R14,1*%
%TO.N,Net-(R14-Pad1)*%
X199260000Y-151760000D03*
%TO.P,R14,2*%
%TO.N,/LED_{D0}*%
X199260000Y-150740000D03*
%TD*%
%TO.P,R26,1*%
%TO.N,/GPIO_{2}*%
X199250000Y-159260000D03*
%TO.P,R26,2*%
%TO.N,Net-(R26-Pad2)*%
X199250000Y-158240000D03*
%TD*%
D11*
%TO.P,U3,1,CLC1OUT*%
%TO.N,Net-(R16-Pad1)*%
X198062500Y-153800000D03*
%TO.P,U3,2,CLC1OUT*%
%TO.N,Net-(R17-Pad1)*%
X198062500Y-154200000D03*
%TO.P,U3,3,CLC1OUT*%
%TO.N,Net-(R18-Pad1)*%
X198062500Y-154600000D03*
%TO.P,U3,4,CLC1OUT*%
%TO.N,Net-(R19-Pad1)*%
X198062500Y-155000000D03*
%TO.P,U3,5,V_{SS}*%
%TO.N,GND*%
X198062500Y-155400000D03*
%TO.P,U3,6,RA7*%
%TO.N,Net-(R31-Pad1)*%
X198062500Y-155800000D03*
%TO.P,U3,7,RA6*%
%TO.N,Net-(R24-Pad2)*%
X198062500Y-156200000D03*
D12*
%TO.P,U3,8,RC0*%
%TO.N,Net-(R28-Pad2)*%
X198800000Y-156937500D03*
%TO.P,U3,9,RC1*%
%TO.N,Net-(R27-Pad2)*%
X199200000Y-156937500D03*
%TO.P,U3,10,RC2*%
%TO.N,Net-(R26-Pad2)*%
X199600000Y-156937500D03*
%TO.P,U3,11,RC3*%
%TO.N,Net-(R25-Pad2)*%
X200000000Y-156937500D03*
%TO.P,U3,12,RC4*%
%TO.N,Net-(R30-Pad1)*%
X200400000Y-156937500D03*
%TO.P,U3,13,RC5*%
%TO.N,Net-(R29-Pad1)*%
X200800000Y-156937500D03*
%TO.P,U3,14,RC6*%
%TO.N,/DEBUG_{1}*%
X201200000Y-156937500D03*
D11*
%TO.P,U3,15,RC7*%
%TO.N,/DEBUG_{2}*%
X201937500Y-156200000D03*
%TO.P,U3,16,V_{SS}*%
%TO.N,GND*%
X201937500Y-155800000D03*
%TO.P,U3,17,V_{DD}*%
%TO.N,+5Vdc*%
X201937500Y-155400000D03*
%TO.P,U3,18,RB0*%
%TO.N,/DEBUG_{0}*%
X201937500Y-155000000D03*
%TO.P,U3,19,SCL2*%
%TO.N,Net-(R21-Pad2)*%
X201937500Y-154600000D03*
%TO.P,U3,20,SDA2*%
%TO.N,Net-(R20-Pad2)*%
X201937500Y-154200000D03*
%TO.P,U3,21,ANB3*%
%TO.N,/VIN_{MON}*%
X201937500Y-153800000D03*
D12*
%TO.P,U3,22,RB4*%
%TO.N,/VLED_{PG}*%
X201200000Y-153062500D03*
%TO.P,U3,23,RB5*%
%TO.N,/VLED_{EN}*%
X200800000Y-153062500D03*
%TO.P,U3,24,ICSPCLK*%
%TO.N,Net-(R9-Pad1)*%
X200400000Y-153062500D03*
%TO.P,U3,25,ICSPDAT*%
%TO.N,Net-(R10-Pad1)*%
X200000000Y-153062500D03*
%TO.P,U3,26,~{MCLR}*%
%TO.N,Net-(R12-Pad2)*%
X199600000Y-153062500D03*
%TO.P,U3,27,CLC1OUT*%
%TO.N,Net-(R14-Pad1)*%
X199200000Y-153062500D03*
%TO.P,U3,28,CLC1OUT*%
%TO.N,Net-(R15-Pad1)*%
X198800000Y-153062500D03*
D13*
%TO.P,U3,29,V_{SS}*%
%TO.N,GND*%
X199075000Y-155000000D03*
X200925000Y-155925000D03*
X200925000Y-154075000D03*
X200925000Y-155000000D03*
X199075000Y-155925000D03*
X199075000Y-154075000D03*
X200000000Y-155925000D03*
X200000000Y-154075000D03*
X200000000Y-155000000D03*
D14*
X200000000Y-155000000D03*
%TD*%
D15*
%TO.P,CONN1,1,P1*%
%TO.N,Net-(C1-Pad1)*%
X211040000Y-121750000D03*
D16*
%TO.P,CONN1,2,P2_PWROUT*%
%TO.N,GND*%
X205960000Y-121750000D03*
%TD*%
D17*
%TO.P,CONN5,1,P1*%
%TO.N,/I^{2}C_SDA*%
X215240000Y-168250000D03*
D18*
%TO.P,CONN5,2,P2*%
%TO.N,GND*%
X215240000Y-170790000D03*
%TO.P,CONN5,3,P3*%
%TO.N,/I^{2}C_SCL*%
X212700000Y-168250000D03*
%TO.P,CONN5,4,P4*%
%TO.N,GND*%
X212700000Y-170790000D03*
%TO.P,CONN5,5,P5*%
%TO.N,+5Vdc*%
X210160000Y-168250000D03*
%TO.P,CONN5,6,P6*%
%TO.N,GND*%
X210160000Y-170790000D03*
%TO.P,CONN5,7,P7*%
%TO.N,/GPOC_{1}*%
X207620000Y-168250000D03*
%TO.P,CONN5,8,P8*%
%TO.N,GND*%
X207620000Y-170790000D03*
%TO.P,CONN5,9,P9*%
%TO.N,/GPOC_{0}*%
X205080000Y-168250000D03*
%TO.P,CONN5,10,P10*%
%TO.N,GND*%
X205080000Y-170790000D03*
%TO.P,CONN5,11,P11*%
%TO.N,+5Vdc*%
X202540000Y-168250000D03*
%TO.P,CONN5,12,P12*%
%TO.N,GND*%
X202540000Y-170790000D03*
%TO.P,CONN5,13,P13*%
%TO.N,/GPIO_{3}*%
X200000000Y-168250000D03*
%TO.P,CONN5,14,P14*%
%TO.N,GND*%
X200000000Y-170790000D03*
%TO.P,CONN5,15,P15*%
%TO.N,/GPIO_{2}*%
X197460000Y-168250000D03*
%TO.P,CONN5,16,P16*%
%TO.N,GND*%
X197460000Y-170790000D03*
%TO.P,CONN5,17,P17*%
%TO.N,/GPIO_{1}*%
X194920000Y-168250000D03*
%TO.P,CONN5,18,P18*%
%TO.N,GND*%
X194920000Y-170790000D03*
%TO.P,CONN5,19,P19*%
%TO.N,/GPIO_{0}*%
X192380000Y-168250000D03*
%TO.P,CONN5,20,P20*%
%TO.N,GND*%
X192380000Y-170790000D03*
%TO.P,CONN5,21,P21*%
%TO.N,+5Vdc*%
X189840000Y-168250000D03*
%TO.P,CONN5,22,P22*%
%TO.N,GND*%
X189840000Y-170790000D03*
%TO.P,CONN5,23,P23*%
%TO.N,/IR_LED*%
X187300000Y-168250000D03*
%TO.P,CONN5,24,P24*%
%TO.N,GND*%
X187300000Y-170790000D03*
%TO.P,CONN5,25,P25*%
%TO.N,/IR_REC*%
X184760000Y-168250000D03*
%TO.P,CONN5,26,P26*%
%TO.N,+5Vdc*%
X184760000Y-170790000D03*
%TD*%
D10*
%TO.P,R1,1*%
%TO.N,/VLED_{EN}*%
X209500000Y-126010000D03*
%TO.P,R1,2*%
%TO.N,GND*%
X209500000Y-124990000D03*
%TD*%
%TO.P,R28,1*%
%TO.N,/GPIO_{0}*%
X197250000Y-159260000D03*
%TO.P,R28,2*%
%TO.N,Net-(R28-Pad2)*%
X197250000Y-158240000D03*
%TD*%
D19*
%TO.P,R21,1*%
%TO.N,/I^{2}C_SCL*%
X204780000Y-155500000D03*
%TO.P,R21,2*%
%TO.N,Net-(R21-Pad2)*%
X203760000Y-155500000D03*
%TD*%
D17*
%TO.P,CONN7,1,P1*%
%TO.N,+5Vdc*%
X219750000Y-159310000D03*
D18*
%TO.P,CONN7,2,P2*%
%TO.N,/DEBUG_{1}*%
X219750000Y-156770000D03*
%TO.P,CONN7,3,P3*%
%TO.N,GND*%
X219750000Y-154230000D03*
%TO.P,CONN7,4,P4*%
%TO.N,/DEBUG_{2}*%
X219750000Y-151690000D03*
%TD*%
D20*
%TO.P,C9,1*%
%TO.N,+5Vdc*%
X209750000Y-138525000D03*
%TO.P,C9,2*%
%TO.N,GND*%
X209750000Y-141475000D03*
%TD*%
D21*
%TO.P,R11,1*%
%TO.N,+5Vdc*%
X201250000Y-149740000D03*
%TO.P,R11,2*%
%TO.N,/~{MCU_MCLR}*%
X201250000Y-150760000D03*
%TD*%
D22*
%TO.P,D5,1,K*%
%TO.N,/IR_REC*%
X184100000Y-165700000D03*
%TO.P,D5,2,A*%
%TO.N,GND*%
X184750000Y-165700000D03*
%TO.P,D5,3,K*%
%TO.N,/IR_LED*%
X185400000Y-165700000D03*
%TO.P,D5,4,K*%
%TO.N,+5Vdc*%
X185400000Y-163800000D03*
%TO.P,D5,5,K*%
X184100000Y-163800000D03*
%TD*%
D23*
%TO.P,Q1,1,E*%
%TO.N,GND*%
X210550000Y-164120000D03*
%TO.P,Q1,2,B*%
%TO.N,Net-(Q1-Pad2)*%
X210550000Y-164770000D03*
%TO.P,Q1,3,C*%
%TO.N,/GPOC_{0}*%
X210550000Y-165420000D03*
%TO.P,Q1,4,E*%
%TO.N,GND*%
X212450000Y-165420000D03*
%TO.P,Q1,5,B*%
%TO.N,Net-(Q1-Pad5)*%
X212450000Y-164770000D03*
%TO.P,Q1,6,C*%
%TO.N,/GPOC_{1}*%
X212450000Y-164120000D03*
%TD*%
D21*
%TO.P,R8,1*%
%TO.N,Net-(R7-Pad2)*%
X220750000Y-146240000D03*
%TO.P,R8,2*%
%TO.N,GND*%
X220750000Y-147260000D03*
%TD*%
D24*
%TO.P,C17,1*%
%TO.N,+5Vdc*%
X208525000Y-165500000D03*
%TO.P,C17,2*%
%TO.N,GND*%
X206975000Y-165500000D03*
%TD*%
D25*
%TO.P,FB1,1,P1_PWRIN*%
%TO.N,Net-(C1-Pad1)*%
X209750000Y-144527500D03*
%TO.P,FB1,2,P2_PWROUT*%
%TO.N,+12V_{dc}*%
X209750000Y-146472500D03*
%TD*%
D26*
%TO.P,D3,1,K*%
%TO.N,+5Vdc*%
X207000000Y-156050000D03*
%TO.P,D3,2,A*%
%TO.N,/VIN_{MON}*%
X207000000Y-153950000D03*
%TD*%
D27*
%TO.P,C15,1*%
%TO.N,+5Vdc*%
X191475000Y-165500000D03*
%TO.P,C15,2*%
%TO.N,GND*%
X193025000Y-165500000D03*
%TD*%
D10*
%TO.P,R9,1*%
%TO.N,Net-(R9-Pad1)*%
X196000000Y-108760000D03*
%TO.P,R9,2*%
%TO.N,/MCU_ICSP_{CLK}*%
X196000000Y-107740000D03*
%TD*%
D27*
%TO.P,C16,1*%
%TO.N,+5Vdc*%
X202975000Y-165500000D03*
%TO.P,C16,2*%
%TO.N,GND*%
X204525000Y-165500000D03*
%TD*%
D19*
%TO.P,R20,1*%
%TO.N,/I^{2}C_SDA*%
X204770000Y-154500000D03*
%TO.P,R20,2*%
%TO.N,Net-(R20-Pad2)*%
X203750000Y-154500000D03*
%TD*%
D22*
%TO.P,D2,1,K*%
%TO.N,/MCU_ICSP_{DAT}*%
X198650000Y-107300000D03*
%TO.P,D2,2,A*%
%TO.N,GND*%
X198000000Y-107300000D03*
%TO.P,D2,3,K*%
%TO.N,/MCU_ICSP_{CLK}*%
X197350000Y-107300000D03*
%TO.P,D2,4,K*%
%TO.N,/~{MCU_MCLR}*%
X197350000Y-109200000D03*
%TO.P,D2,5,K*%
%TO.N,+5Vdc*%
X198650000Y-109200000D03*
%TD*%
D28*
%TO.P,R22,1*%
%TO.N,+5Vdc*%
X214740000Y-162000000D03*
%TO.P,R22,2*%
%TO.N,/I^{2}C_SDA*%
X215760000Y-162000000D03*
%TD*%
D10*
%TO.P,R4,1*%
%TO.N,/VIN_{MON}*%
X216500000Y-148510000D03*
%TO.P,R4,2*%
%TO.N,GND*%
X216500000Y-147490000D03*
%TD*%
D28*
%TO.P,R24,1*%
%TO.N,Net-(Q2-Pad5)*%
X195740000Y-157000000D03*
%TO.P,R24,2*%
%TO.N,Net-(R24-Pad2)*%
X196760000Y-157000000D03*
%TD*%
D15*
%TO.P,CONN2,1,P1*%
%TO.N,/VLED*%
X222040000Y-121750000D03*
D16*
%TO.P,CONN2,2,P2*%
%TO.N,Net-(C4-Pad1)*%
X216960000Y-121750000D03*
%TD*%
D29*
%TO.P,L1,1,P1*%
%TO.N,Net-(C7-Pad2)*%
X218825000Y-140000000D03*
%TO.P,L1,2,P2_PWROUT*%
%TO.N,+5Vdc*%
X215175000Y-140000000D03*
%TD*%
D10*
%TO.P,R15,1*%
%TO.N,Net-(R15-Pad1)*%
X198260000Y-151760000D03*
%TO.P,R15,2*%
%TO.N,/LED_{D0}*%
X198260000Y-150740000D03*
%TD*%
D24*
%TO.P,C5,1*%
%TO.N,Net-(C5-Pad1)*%
X186775000Y-119000000D03*
%TO.P,C5,2*%
%TO.N,GND*%
X185225000Y-119000000D03*
%TD*%
D30*
%TO.P,CONN4,1,P1*%
%TO.N,/MCU_ICSP_{CLK}*%
X196000000Y-104750000D03*
D31*
%TO.P,CONN4,2,P2*%
%TO.N,/MCU_ICSP_{DAT}*%
X198000000Y-104750000D03*
%TO.P,CONN4,3,P3*%
%TO.N,GND*%
X200000000Y-104750000D03*
%TO.P,CONN4,4,P4*%
%TO.N,+5Vdc*%
X202000000Y-104750000D03*
%TO.P,CONN4,5,P5*%
%TO.N,/~{MCU_MCLR}*%
X204000000Y-104750000D03*
%TD*%
D19*
%TO.P,R17,1*%
%TO.N,Net-(R17-Pad1)*%
X196760000Y-153000000D03*
%TO.P,R17,2*%
%TO.N,/LED_{D1}*%
X195740000Y-153000000D03*
%TD*%
%TO.P,R32,1*%
%TO.N,+5Vdc*%
X185260000Y-162000000D03*
%TO.P,R32,2*%
%TO.N,/IR_REC*%
X184240000Y-162000000D03*
%TD*%
D32*
%TO.P,C20,1*%
%TO.N,+5Vdc*%
X222500000Y-156275000D03*
%TO.P,C20,2*%
%TO.N,GND*%
X222500000Y-154725000D03*
%TD*%
D10*
%TO.P,R13,2*%
%TO.N,/VLED_{PG}*%
X207000000Y-149740000D03*
%TO.P,R13,1*%
%TO.N,+5Vdc*%
X207000000Y-150760000D03*
%TD*%
D21*
%TO.P,R30,1*%
%TO.N,Net-(R30-Pad1)*%
X201250000Y-159240000D03*
%TO.P,R30,2*%
%TO.N,Net-(Q1-Pad2)*%
X201250000Y-160260000D03*
%TD*%
D27*
%TO.P,C13,1*%
%TO.N,/VIN_{MON}*%
X203485000Y-153000000D03*
%TO.P,C13,2*%
%TO.N,GND*%
X205035000Y-153000000D03*
%TD*%
%TO.P,C14,1*%
%TO.N,+5Vdc*%
X203485000Y-157000000D03*
%TO.P,C14,2*%
%TO.N,GND*%
X205035000Y-157000000D03*
%TD*%
D20*
%TO.P,C10,1*%
%TO.N,+5Vdc*%
X192500000Y-153525000D03*
%TO.P,C10,2*%
%TO.N,GND*%
X192500000Y-156475000D03*
%TD*%
%TO.P,C8,1*%
%TO.N,+5Vdc*%
X212750000Y-138525000D03*
%TO.P,C8,2*%
%TO.N,GND*%
X212750000Y-141475000D03*
%TD*%
D22*
%TO.P,D6,1,K*%
%TO.N,/GPOC_{1}*%
X214600000Y-165700000D03*
%TO.P,D6,2,A*%
%TO.N,GND*%
X215250000Y-165700000D03*
%TO.P,D6,3,K*%
%TO.N,/I^{2}C_SCL*%
X215900000Y-165700000D03*
%TO.P,D6,4,K*%
%TO.N,/I^{2}C_SDA*%
X215900000Y-163800000D03*
%TO.P,D6,5,K*%
%TO.N,/GPOC_{0}*%
X214600000Y-163800000D03*
%TD*%
D10*
%TO.P,R7,1*%
%TO.N,+5Vdc*%
X219750000Y-147260000D03*
%TO.P,R7,2*%
%TO.N,Net-(R7-Pad2)*%
X219750000Y-146240000D03*
%TD*%
D33*
%TO.P,C11,1*%
%TO.N,+5Vdc*%
X203910000Y-107475000D03*
%TO.P,C11,2*%
%TO.N,GND*%
X203910000Y-109025000D03*
%TD*%
%TO.P,C19,1*%
%TO.N,+5Vdc*%
X212500000Y-154725000D03*
%TO.P,C19,2*%
%TO.N,GND*%
X212500000Y-156275000D03*
%TD*%
D10*
%TO.P,R25,1*%
%TO.N,/GPIO_{3}*%
X200250000Y-160260000D03*
%TO.P,R25,2*%
%TO.N,Net-(R25-Pad2)*%
X200250000Y-159240000D03*
%TD*%
D27*
%TO.P,C4,1*%
%TO.N,Net-(C4-Pad1)*%
X216225000Y-118250000D03*
%TO.P,C4,2*%
%TO.N,GND*%
X217775000Y-118250000D03*
%TD*%
D33*
%TO.P,C2,1*%
%TO.N,+5Vdc*%
X209500000Y-127225000D03*
%TO.P,C2,2*%
%TO.N,GND*%
X209500000Y-128775000D03*
%TD*%
D34*
%TO.P,R33,1*%
%TO.N,Net-(Q2-Pad2)*%
X187675000Y-162000000D03*
%TO.P,R33,2*%
%TO.N,GND*%
X189325000Y-162000000D03*
%TD*%
D21*
%TO.P,R3,1*%
%TO.N,+12V_{dc}*%
X215500000Y-147490000D03*
%TO.P,R3,2*%
%TO.N,/VIN_{MON}*%
X215500000Y-148510000D03*
%TD*%
%TO.P,R5,1*%
%TO.N,+12V_{dc}*%
X217500000Y-147490000D03*
%TO.P,R5,2*%
%TO.N,Net-(R5-Pad2)*%
X217500000Y-148510000D03*
%TD*%
D32*
%TO.P,C18,1*%
%TO.N,+5Vdc*%
X182000000Y-170775000D03*
%TO.P,C18,2*%
%TO.N,GND*%
X182000000Y-169225000D03*
%TD*%
D35*
%TO.P,C12,1*%
%TO.N,/~{MCU_MCLR}*%
X202250000Y-150730000D03*
%TO.P,C12,2*%
%TO.N,GND*%
X202250000Y-149770000D03*
%TD*%
D23*
%TO.P,Q2,1,E*%
%TO.N,GND*%
X187550000Y-164100000D03*
%TO.P,Q2,2,B*%
%TO.N,Net-(Q2-Pad2)*%
X187550000Y-164750000D03*
%TO.P,Q2,3,C*%
%TO.N,/IR_LED*%
X187550000Y-165400000D03*
%TO.P,Q2,4,E*%
%TO.N,Net-(Q2-Pad2)*%
X189450000Y-165400000D03*
%TO.P,Q2,5,B*%
%TO.N,Net-(Q2-Pad5)*%
X189450000Y-164750000D03*
%TO.P,Q2,6,C*%
X189450000Y-164100000D03*
%TD*%
D22*
%TO.P,D4,1,K*%
%TO.N,/GPIO_{1}*%
X199350000Y-165700000D03*
%TO.P,D4,2,A*%
%TO.N,GND*%
X200000000Y-165700000D03*
%TO.P,D4,3,K*%
%TO.N,/GPIO_{2}*%
X200650000Y-165700000D03*
%TO.P,D4,4,K*%
%TO.N,/GPIO_{3}*%
X200650000Y-163800000D03*
%TO.P,D4,5,K*%
%TO.N,/GPIO_{0}*%
X199350000Y-163800000D03*
%TD*%
D10*
%TO.P,R27,1*%
%TO.N,/GPIO_{1}*%
X198250000Y-159260000D03*
%TO.P,R27,2*%
%TO.N,Net-(R27-Pad2)*%
X198250000Y-158240000D03*
%TD*%
D22*
%TO.P,D1,1,K*%
%TO.N,+5Vdc*%
X186650000Y-124300000D03*
%TO.P,D1,2,A*%
%TO.N,GND*%
X186000000Y-124300000D03*
%TO.P,D1,3,K*%
%TO.N,+5Vdc*%
X185350000Y-124300000D03*
%TO.P,D1,4,K*%
%TO.N,/LED_{D1}*%
X185350000Y-126200000D03*
%TO.P,D1,5,K*%
%TO.N,/LED_{D0}*%
X186650000Y-126200000D03*
%TD*%
D20*
%TO.P,C3,1*%
%TO.N,/VLED*%
X216500000Y-125525000D03*
%TO.P,C3,2*%
%TO.N,GND*%
X216500000Y-128475000D03*
%TD*%
D10*
%TO.P,R10,1*%
%TO.N,Net-(R10-Pad1)*%
X200000000Y-108760000D03*
%TO.P,R10,2*%
%TO.N,/MCU_ICSP_{DAT}*%
X200000000Y-107740000D03*
%TD*%
D19*
%TO.P,R19,1*%
%TO.N,Net-(R19-Pad1)*%
X196760000Y-155000000D03*
%TO.P,R19,2*%
%TO.N,/LED_{D1}*%
X195740000Y-155000000D03*
%TD*%
D36*
%TO.P,U2,1,GND*%
%TO.N,GND*%
X215900000Y-144050000D03*
%TO.P,U2,2,SW*%
%TO.N,Net-(C7-Pad2)*%
X215900000Y-145000000D03*
%TO.P,U2,3,VIN*%
%TO.N,+12V_{dc}*%
X215900000Y-145950000D03*
%TO.P,U2,4,FB*%
%TO.N,Net-(R7-Pad2)*%
X218100000Y-145950000D03*
%TO.P,U2,5,EN*%
%TO.N,Net-(R5-Pad2)*%
X218100000Y-145000000D03*
%TO.P,U2,6,BST*%
%TO.N,Net-(C7-Pad1)*%
X218100000Y-144050000D03*
%TD*%
D20*
%TO.P,C1,1*%
%TO.N,Net-(C1-Pad1)*%
X211500000Y-125525000D03*
%TO.P,C1,2*%
%TO.N,GND*%
X211500000Y-128475000D03*
%TD*%
D37*
%TO.P,R2,1*%
%TO.N,Net-(R2-Pad1)*%
X219250000Y-128462500D03*
%TO.P,R2,2*%
%TO.N,/VLED*%
X219250000Y-125537500D03*
%TD*%
D38*
%TO.P,CONN3,1,P1*%
%TO.N,/LED_{D0}*%
X189810000Y-121750000D03*
D39*
%TO.P,CONN3,2,P2*%
%TO.N,Net-(C5-Pad1)*%
X187270000Y-121750000D03*
%TO.P,CONN3,3,P3*%
%TO.N,GND*%
X184730000Y-121750000D03*
%TO.P,CONN3,4,P4*%
%TO.N,/LED_{D1}*%
X182190000Y-121750000D03*
%TD*%
D10*
%TO.P,R16,1*%
%TO.N,Net-(R16-Pad1)*%
X197260000Y-151760000D03*
%TO.P,R16,2*%
%TO.N,/LED_{D0}*%
X197260000Y-150740000D03*
%TD*%
D21*
%TO.P,R29,1*%
%TO.N,Net-(R29-Pad1)*%
X202250000Y-159240000D03*
%TO.P,R29,2*%
%TO.N,Net-(Q1-Pad5)*%
X202250000Y-160260000D03*
%TD*%
D40*
%TO.P,C6,1*%
%TO.N,+12V_{dc}*%
X213750000Y-146975000D03*
%TO.P,C6,2*%
%TO.N,GND*%
X213750000Y-144025000D03*
%TD*%
D19*
%TO.P,R31,1*%
%TO.N,Net-(R31-Pad1)*%
X196760000Y-156000000D03*
%TO.P,R31,2*%
%TO.N,/IR_REC*%
X195740000Y-156000000D03*
%TD*%
D28*
%TO.P,R23,1*%
%TO.N,+5Vdc*%
X210990000Y-162000000D03*
%TO.P,R23,2*%
%TO.N,/I^{2}C_SCL*%
X212010000Y-162000000D03*
%TD*%
D35*
%TO.P,C7,1*%
%TO.N,Net-(C7-Pad1)*%
X220750000Y-143730000D03*
%TO.P,C7,2*%
%TO.N,Net-(C7-Pad2)*%
X220750000Y-142770000D03*
%TD*%
D17*
%TO.P,CONN6,1,P1*%
%TO.N,+5Vdc*%
X215250000Y-158040000D03*
D18*
%TO.P,CONN6,2,P2*%
%TO.N,/DEBUG_{0}*%
X215250000Y-155500000D03*
%TO.P,CONN6,3,P3*%
%TO.N,GND*%
X215250000Y-152960000D03*
%TD*%
D21*
%TO.P,R6,1*%
%TO.N,Net-(R5-Pad2)*%
X218500000Y-147490000D03*
%TO.P,R6,2*%
%TO.N,GND*%
X218500000Y-148510000D03*
%TD*%
D41*
%TO.P,U1,1,V_{IN}*%
%TO.N,Net-(C1-Pad1)*%
X213090000Y-126250000D03*
%TO.P,U1,2,EN*%
%TO.N,/VLED_{EN}*%
X213090000Y-126750000D03*
%TO.P,U1,3,V_{CC}*%
%TO.N,+5Vdc*%
X213090000Y-127250000D03*
%TO.P,U1,4,GND*%
%TO.N,GND*%
X213090000Y-127750000D03*
%TO.P,U1,5,BLEED*%
%TO.N,Net-(R2-Pad1)*%
X214910000Y-127750000D03*
%TO.P,U1,6,PG*%
%TO.N,/VLED_{PG}*%
X214910000Y-127250000D03*
%TO.P,U1,7,V_{OUT}*%
%TO.N,/VLED*%
X214910000Y-126750000D03*
D42*
X214860000Y-126500000D03*
D41*
%TO.P,U1,8,V_{OUT}*%
X214910000Y-126250000D03*
D43*
%TO.P,U1,9,V_{IN}*%
%TO.N,Net-(C1-Pad1)*%
X214000000Y-127000000D03*
%TD*%
D21*
%TO.P,R12,1*%
%TO.N,/~{MCU_MCLR}*%
X200260000Y-149740000D03*
%TO.P,R12,2*%
%TO.N,Net-(R12-Pad2)*%
X200260000Y-150760000D03*
%TD*%
D19*
%TO.P,R18,1*%
%TO.N,Net-(R18-Pad1)*%
X196770000Y-154000000D03*
%TO.P,R18,2*%
%TO.N,/LED_{D1}*%
X195750000Y-154000000D03*
%TD*%
D44*
%TO.N,Net-(C1-Pad1)*%
X208750000Y-143750000D03*
X208650000Y-144750000D03*
X209750000Y-143500000D03*
X210850000Y-144750000D03*
X210750000Y-143750000D03*
%TO.N,GND*%
X208950000Y-125000000D03*
X202250000Y-149250000D03*
X198750000Y-106000000D03*
X191500000Y-155500000D03*
X192750000Y-164750000D03*
X200000000Y-165050000D03*
X206250000Y-165500000D03*
X213250000Y-142400000D03*
X193750000Y-165500000D03*
X192750000Y-166250000D03*
X186000000Y-125000000D03*
X208750000Y-128500000D03*
X213750000Y-144900000D03*
X184500000Y-119000000D03*
X197950000Y-106500000D03*
X212250000Y-142400000D03*
X210750000Y-140500000D03*
X182750000Y-169500000D03*
X212750000Y-129000000D03*
X212500000Y-143750000D03*
X209750000Y-140500000D03*
X205750000Y-153500000D03*
X211950000Y-129500000D03*
X219050000Y-148500000D03*
X217750000Y-117500000D03*
X204250000Y-164750000D03*
X218500000Y-118250000D03*
X215250000Y-166350000D03*
X205750000Y-157750000D03*
X222500000Y-154000000D03*
X189250000Y-162750000D03*
X184750000Y-166350000D03*
X189250000Y-161250000D03*
X221750000Y-155000000D03*
X211000000Y-127500000D03*
X212500000Y-144900000D03*
X216000000Y-143350000D03*
X216250000Y-129500000D03*
X209500000Y-129500000D03*
X205750000Y-152500000D03*
X197100000Y-106100000D03*
X193500000Y-155500000D03*
X192500000Y-155500000D03*
X217250000Y-129500000D03*
X182000000Y-168500000D03*
X211750000Y-156000000D03*
X204250000Y-166250000D03*
X220750000Y-147750000D03*
X211850000Y-165420000D03*
X208750000Y-140500000D03*
X207250000Y-164750000D03*
X204760000Y-157750000D03*
X203000000Y-108750000D03*
X186000000Y-123500000D03*
X185250000Y-118250000D03*
X215050000Y-143500000D03*
X185250000Y-119750000D03*
X216500000Y-147000000D03*
X204750000Y-108750000D03*
X217750000Y-119000000D03*
X210550000Y-163600000D03*
X213250000Y-156000000D03*
X215250000Y-128750000D03*
X181250000Y-169500000D03*
X200000000Y-166350000D03*
X187550000Y-163450000D03*
X212250000Y-140500000D03*
X211000000Y-129500000D03*
X215000000Y-144450000D03*
X215250000Y-165050000D03*
X188300000Y-164100000D03*
X213150000Y-128150000D03*
X184750000Y-165050000D03*
X213250000Y-140500000D03*
X190000000Y-162000000D03*
%TO.N,+5Vdc*%
X212250000Y-139500000D03*
X203760000Y-157750000D03*
X207750000Y-150750000D03*
X203000000Y-107750000D03*
X205000000Y-127500000D03*
X204750000Y-107750000D03*
X203000000Y-106750000D03*
X208250000Y-164750000D03*
X198850000Y-110250000D03*
X186000000Y-162000000D03*
X208750000Y-139500000D03*
X222500000Y-157000000D03*
X221750000Y-156000000D03*
X206000000Y-131750000D03*
X201250000Y-149250000D03*
X213250000Y-139500000D03*
X213250000Y-155000000D03*
X191500000Y-154500000D03*
X187150000Y-124250000D03*
X192500000Y-154500000D03*
X199500000Y-109550000D03*
X219750000Y-147750000D03*
X198000000Y-109750000D03*
X182000000Y-171500000D03*
X184750000Y-163850000D03*
X214100000Y-162000000D03*
X190750000Y-165500000D03*
X210350000Y-162000000D03*
X206000000Y-130750000D03*
X191750000Y-164750000D03*
X181250000Y-170500000D03*
X202750000Y-157250000D03*
X184250000Y-163000000D03*
X186000000Y-163250000D03*
X212250000Y-137500000D03*
X206000000Y-127000000D03*
X209750000Y-139500000D03*
X210750000Y-139500000D03*
X203250000Y-164750000D03*
X207000000Y-156750000D03*
X198000000Y-108750000D03*
X191750000Y-166250000D03*
X184850000Y-124250000D03*
X185500000Y-164500000D03*
X209250000Y-165500000D03*
X211750000Y-155000000D03*
X182750000Y-170500000D03*
X203250000Y-166250000D03*
X205000000Y-131250000D03*
X203910000Y-106500000D03*
X206000000Y-128000000D03*
X213250000Y-137500000D03*
X193500000Y-154500000D03*
%TO.N,/VLED*%
X216500000Y-126500000D03*
X222000000Y-119500000D03*
X222000000Y-126500000D03*
X215250000Y-124000000D03*
X222000000Y-124500000D03*
X217250000Y-124250000D03*
X218500000Y-126500000D03*
X224000000Y-124500000D03*
X220000000Y-126500000D03*
X219250000Y-124000000D03*
X223000000Y-125500000D03*
X224000000Y-126500000D03*
X219500000Y-119500000D03*
X224500000Y-121750000D03*
X219500000Y-121750000D03*
X224500000Y-119500000D03*
%TD*%
D45*
%TO.N,/VLED_{PG}*%
X214910000Y-127250000D02*
X221500000Y-127250000D01*
X221500000Y-127250000D02*
X222500000Y-128250000D01*
X222500000Y-128250000D02*
X222500000Y-131750000D01*
X222500000Y-131750000D02*
X221500000Y-132750000D01*
X211750000Y-132750000D02*
X207000000Y-137500000D01*
X221500000Y-132750000D02*
X211750000Y-132750000D01*
X207000000Y-137500000D02*
X207000000Y-149740000D01*
X207000000Y-149740000D02*
X205260000Y-149740000D01*
X205260000Y-149740000D02*
X204240000Y-150760000D01*
D46*
%TO.N,+5Vdc*%
X213090000Y-127250000D02*
X211568830Y-127250000D01*
D47*
X211568830Y-127250000D02*
X211239830Y-126921000D01*
X211239830Y-126921000D02*
X210760170Y-126921000D01*
X210760170Y-126921000D02*
X210456170Y-127225000D01*
D46*
X210456170Y-127225000D02*
X209500000Y-127225000D01*
D48*
%TO.N,GND*%
X199475000Y-155400000D02*
X200000000Y-155925000D01*
X201937500Y-155800000D02*
X201050000Y-155800000D01*
D49*
X211850000Y-165420000D02*
X212450000Y-165420000D01*
D50*
X189250000Y-162750000D02*
X189250000Y-161250000D01*
D48*
X201050000Y-155800000D02*
X200925000Y-155925000D01*
D49*
X210550000Y-163600000D02*
X210550000Y-164120000D01*
D46*
X213140000Y-127750000D02*
X213140000Y-128140000D01*
D50*
X215250000Y-166350000D02*
X215250000Y-165050000D01*
X220750000Y-147750000D02*
X220750000Y-147260000D01*
X204250000Y-166250000D02*
X204250000Y-164750000D01*
X185250000Y-118250000D02*
X185250000Y-119750000D01*
X207250000Y-164750000D02*
X207250000Y-165225000D01*
X187550000Y-163450000D02*
X187650000Y-163450000D01*
X218510000Y-148500000D02*
X218500000Y-148510000D01*
X211750000Y-156000000D02*
X213250000Y-156000000D01*
X202250000Y-149770000D02*
X202250000Y-149250000D01*
X222500000Y-154000000D02*
X222500000Y-154725000D01*
X217750000Y-117500000D02*
X217750000Y-119000000D01*
X208950000Y-125000000D02*
X209490000Y-125000000D01*
X209490000Y-125000000D02*
X209500000Y-124990000D01*
X206250000Y-165500000D02*
X206975000Y-165500000D01*
X193750000Y-165500000D02*
X193025000Y-165500000D01*
X200000000Y-165050000D02*
X200000000Y-166350000D01*
X192750000Y-166250000D02*
X192750000Y-164750000D01*
X188300000Y-164100000D02*
X187550000Y-164100000D01*
X184500000Y-119000000D02*
X185225000Y-119000000D01*
X187650000Y-163450000D02*
X188300000Y-164100000D01*
X186000000Y-124300000D02*
X186000000Y-123500000D01*
X182000000Y-168500000D02*
X182000000Y-169225000D01*
X207250000Y-165225000D02*
X206975000Y-165500000D01*
D45*
X197950000Y-107300000D02*
X197950000Y-106500000D01*
D50*
X184750000Y-165050000D02*
X184750000Y-166350000D01*
D48*
X198062500Y-155400000D02*
X199475000Y-155400000D01*
D50*
X187550000Y-163450000D02*
X187550000Y-164100000D01*
X190000000Y-162000000D02*
X189325000Y-162000000D01*
X221750000Y-155000000D02*
X222225000Y-155000000D01*
X186000000Y-124300000D02*
X186000000Y-125000000D01*
X216500000Y-147000000D02*
X216500000Y-147490000D01*
X219050000Y-148500000D02*
X218510000Y-148500000D01*
X222225000Y-155000000D02*
X222500000Y-154725000D01*
X182750000Y-169500000D02*
X181250000Y-169500000D01*
X218500000Y-118250000D02*
X217775000Y-118250000D01*
%TO.N,+5Vdc*%
X184850000Y-124250000D02*
X185300000Y-124250000D01*
X210350000Y-162000000D02*
X210990000Y-162000000D01*
X187150000Y-124250000D02*
X186700000Y-124250000D01*
X208250000Y-164750000D02*
X208250000Y-165225000D01*
D48*
X185300000Y-124250000D02*
X185350000Y-124300000D01*
D50*
X186000000Y-162000000D02*
X185260000Y-162000000D01*
X203250000Y-166250000D02*
X203250000Y-164750000D01*
X208250000Y-165225000D02*
X208525000Y-165500000D01*
X207750000Y-150750000D02*
X207010000Y-150750000D01*
D48*
X201937500Y-155400000D02*
X202910000Y-155400000D01*
D50*
X214100000Y-162000000D02*
X214740000Y-162000000D01*
X207000000Y-156750000D02*
X207000000Y-156050000D01*
D48*
X202910000Y-155400000D02*
X203009000Y-155499000D01*
D50*
X190750000Y-165500000D02*
X191475000Y-165500000D01*
X221750000Y-156000000D02*
X222225000Y-156000000D01*
D48*
X186700000Y-124250000D02*
X186650000Y-124300000D01*
D50*
X222225000Y-156000000D02*
X222500000Y-156275000D01*
X213250000Y-155000000D02*
X211750000Y-155000000D01*
X191750000Y-166250000D02*
X191750000Y-164750000D01*
D48*
X203009000Y-155499000D02*
X203009000Y-155940157D01*
D50*
X209250000Y-165500000D02*
X208525000Y-165500000D01*
X181250000Y-170500000D02*
X182750000Y-170500000D01*
X182000000Y-171500000D02*
X182000000Y-170775000D01*
D45*
X198700000Y-109250000D02*
X198650000Y-109200000D01*
D50*
X201250000Y-149250000D02*
X201250000Y-149740000D01*
D48*
X203485000Y-156416157D02*
X203485000Y-157000000D01*
X203009000Y-155940157D02*
X203485000Y-156416157D01*
D50*
X219750000Y-147750000D02*
X219750000Y-147260000D01*
X222500000Y-157000000D02*
X222500000Y-156275000D01*
D45*
%TO.N,/VLED*%
X214910000Y-126730000D02*
X214910000Y-126864500D01*
X214910000Y-126864500D02*
X215615500Y-126864500D01*
X215615500Y-126864500D02*
X215750000Y-126730000D01*
D50*
%TO.N,Net-(C4-Pad1)*%
X216960000Y-119710000D02*
X216960000Y-121750000D01*
X216225000Y-118975000D02*
X216960000Y-119710000D01*
X216225000Y-118250000D02*
X216225000Y-118975000D01*
%TO.N,Net-(C5-Pad1)*%
X187270000Y-120270000D02*
X186775000Y-119775000D01*
X187270000Y-121750000D02*
X187270000Y-120270000D01*
X186775000Y-119775000D02*
X186775000Y-119000000D01*
D45*
%TO.N,/~{MCU_MCLR}*%
X200770500Y-150200500D02*
X200770500Y-150330500D01*
X200770500Y-150330500D02*
X201250000Y-150810000D01*
X197350000Y-109850000D02*
X197350000Y-109200000D01*
X200260000Y-149690000D02*
X200770500Y-150200500D01*
X204000000Y-104750000D02*
X204000000Y-103750000D01*
X195250000Y-103250000D02*
X194750000Y-103750000D01*
X200260000Y-149740000D02*
X200260000Y-146728281D01*
X203500000Y-103250000D02*
X195250000Y-103250000D01*
X200260000Y-146728281D02*
X201000000Y-145988281D01*
X199000000Y-128500000D02*
X199000000Y-111500000D01*
X194750000Y-103750000D02*
X194750000Y-108750000D01*
X201250000Y-150760000D02*
X202220000Y-150760000D01*
X202220000Y-150760000D02*
X202250000Y-150730000D01*
X201000000Y-130500000D02*
X199000000Y-128500000D01*
X194750000Y-108750000D02*
X195250000Y-109250000D01*
X195250000Y-109250000D02*
X197300000Y-109250000D01*
X199000000Y-111500000D02*
X197350000Y-109850000D01*
X201000000Y-145988281D02*
X201000000Y-130500000D01*
X204000000Y-103750000D02*
X203500000Y-103250000D01*
X197300000Y-109250000D02*
X197350000Y-109200000D01*
%TO.N,/VIN_{MON}*%
X207000000Y-152500000D02*
X206250000Y-151750000D01*
X216490000Y-148500000D02*
X213000000Y-148500000D01*
X216500000Y-148510000D02*
X216490000Y-148500000D01*
X207550000Y-153950000D02*
X207000000Y-153950000D01*
X213000000Y-148500000D02*
X207550000Y-153950000D01*
X203485000Y-153000000D02*
X204735000Y-151750000D01*
X201937500Y-153800000D02*
X202685000Y-153800000D01*
X204735000Y-151750000D02*
X206250000Y-151750000D01*
X202685000Y-153800000D02*
X203485000Y-153000000D01*
X207000000Y-153950000D02*
X207000000Y-152500000D01*
D51*
%TO.N,/LED_{D0}*%
X189810000Y-124440000D02*
X189000000Y-125250000D01*
X187000000Y-125250000D02*
X186650000Y-125600000D01*
X186975000Y-127000000D02*
X186650000Y-126675000D01*
X199260000Y-150740000D02*
X197260000Y-150740000D01*
X189000000Y-125250000D02*
X187000000Y-125250000D01*
X198260000Y-150740000D02*
X198260000Y-136510000D01*
X186650000Y-126675000D02*
X186650000Y-126200000D01*
X198260000Y-136510000D02*
X188750000Y-127000000D01*
X186650000Y-125600000D02*
X186650000Y-126200000D01*
X188750000Y-127000000D02*
X186975000Y-127000000D01*
X189810000Y-121750000D02*
X189810000Y-124440000D01*
%TO.N,/LED_{D1}*%
X195740000Y-155000000D02*
X195740000Y-137615000D01*
X182190000Y-124440000D02*
X183000000Y-125250000D01*
X182190000Y-121750000D02*
X182190000Y-124440000D01*
X185350000Y-127225000D02*
X185350000Y-126200000D01*
X183000000Y-125250000D02*
X185000000Y-125250000D01*
X185000000Y-125250000D02*
X185350000Y-125600000D01*
X195740000Y-137615000D02*
X185350000Y-127225000D01*
X185350000Y-125600000D02*
X185350000Y-126200000D01*
D45*
%TO.N,/MCU_ICSP_{CLK}*%
X196950000Y-107300000D02*
X197350000Y-107300000D01*
X196000000Y-106000000D02*
X196000000Y-104750000D01*
X197350000Y-107300000D02*
X197350000Y-106850000D01*
X196000000Y-107740000D02*
X196510000Y-107740000D01*
X197250000Y-106750000D02*
X196750000Y-106750000D01*
X196510000Y-107740000D02*
X196950000Y-107300000D01*
X196750000Y-106750000D02*
X196000000Y-106000000D01*
X197350000Y-106850000D02*
X197250000Y-106750000D01*
%TO.N,/MCU_ICSP_{DAT}*%
X199490000Y-107740000D02*
X199050000Y-107300000D01*
X199250000Y-105750000D02*
X198250000Y-104750000D01*
X199050000Y-107300000D02*
X198650000Y-107300000D01*
X200000000Y-107740000D02*
X199490000Y-107740000D01*
X198650000Y-107300000D02*
X198650000Y-106850000D01*
X198250000Y-104750000D02*
X198000000Y-104750000D01*
X198650000Y-106850000D02*
X199250000Y-106250000D01*
X199250000Y-106250000D02*
X199250000Y-105750000D01*
%TO.N,/IR_REC*%
X183500000Y-164500000D02*
X183500000Y-162250000D01*
X195312500Y-156000000D02*
X194937500Y-156375000D01*
X183500000Y-162250000D02*
X183750000Y-162000000D01*
X184100000Y-165100000D02*
X183500000Y-164500000D01*
X183750000Y-162000000D02*
X184240000Y-162000000D01*
X184100000Y-165700000D02*
X184100000Y-165100000D01*
X194937500Y-156375000D02*
X194937500Y-157562500D01*
X191750000Y-160750000D02*
X185000000Y-160750000D01*
X184100000Y-167600000D02*
X184100000Y-165700000D01*
X194937500Y-157562500D02*
X191750000Y-160750000D01*
X184240000Y-161510000D02*
X184240000Y-162000000D01*
X185000000Y-160750000D02*
X184240000Y-161510000D01*
X184750000Y-168250000D02*
X184100000Y-167600000D01*
X184760000Y-168250000D02*
X184750000Y-168250000D01*
X195740000Y-156000000D02*
X195312500Y-156000000D01*
%TO.N,/IR_LED*%
X187300000Y-168250000D02*
X185400000Y-166350000D01*
X186300000Y-165700000D02*
X186600000Y-165400000D01*
X185400000Y-165700000D02*
X186300000Y-165700000D01*
X186600000Y-165400000D02*
X187550000Y-165400000D01*
X185400000Y-166350000D02*
X185400000Y-165700000D01*
%TO.N,/I^{2}C_SDA*%
X217000000Y-164375000D02*
X217000000Y-167750000D01*
X208125000Y-154750000D02*
X213125000Y-149750000D01*
X213125000Y-149750000D02*
X221250000Y-149750000D01*
X216500000Y-168250000D02*
X215240000Y-168250000D01*
X220750000Y-162000000D02*
X215760000Y-162000000D01*
X204770000Y-154500000D02*
X205750000Y-154500000D01*
X215900000Y-163800000D02*
X216425000Y-163800000D01*
X224250000Y-158500000D02*
X220750000Y-162000000D01*
X206000000Y-154750000D02*
X208125000Y-154750000D01*
X224250000Y-152750000D02*
X224250000Y-158500000D01*
X215760000Y-162000000D02*
X215900000Y-162140000D01*
X205750000Y-154500000D02*
X206000000Y-154750000D01*
X216425000Y-163800000D02*
X217000000Y-164375000D01*
X221250000Y-149750000D02*
X224250000Y-152750000D01*
X217000000Y-167750000D02*
X216500000Y-168250000D01*
X215900000Y-162140000D02*
X215900000Y-163800000D01*
%TO.N,/I^{2}C_SCL*%
X223500000Y-153000000D02*
X220750000Y-150250000D01*
X212000000Y-161990000D02*
X212000000Y-161250000D01*
X214000000Y-150250000D02*
X208985000Y-155265000D01*
X212700000Y-168250000D02*
X213950000Y-167000000D01*
X213950000Y-167000000D02*
X215500000Y-167000000D01*
X220570500Y-161000000D02*
X223500000Y-158070500D01*
X223500000Y-158070500D02*
X223500000Y-153000000D01*
X215900000Y-165700000D02*
X215900000Y-164900000D01*
X205765000Y-155500000D02*
X204780000Y-155500000D01*
X215500000Y-167000000D02*
X215900000Y-166600000D01*
X215900000Y-166600000D02*
X215900000Y-165700000D01*
X212250000Y-161000000D02*
X220570500Y-161000000D01*
X208985000Y-155265000D02*
X206000000Y-155265000D01*
X215010163Y-162510163D02*
X212460163Y-162510163D01*
X212460163Y-162510163D02*
X212010000Y-162060000D01*
X212000000Y-161250000D02*
X212250000Y-161000000D01*
X212010000Y-162060000D02*
X212010000Y-162000000D01*
X212010000Y-162000000D02*
X212000000Y-161990000D01*
X215900000Y-164900000D02*
X215500000Y-164500000D01*
X215500000Y-164500000D02*
X215500000Y-163000000D01*
X220750000Y-150250000D02*
X214000000Y-150250000D01*
X215500000Y-163000000D02*
X215010163Y-162510163D01*
X206000000Y-155265000D02*
X205765000Y-155500000D01*
%TO.N,/GPOC_{1}*%
X214600000Y-164900000D02*
X215000000Y-164500000D01*
X212450000Y-164120000D02*
X212880000Y-164120000D01*
X214000000Y-166500000D02*
X214375000Y-166500000D01*
X214600000Y-166275000D02*
X214600000Y-165700000D01*
X212880000Y-164120000D02*
X214000000Y-163000000D01*
X214000000Y-163000000D02*
X214250000Y-163000000D01*
X214600000Y-165700000D02*
X214600000Y-164900000D01*
X213500000Y-167000000D02*
X214000000Y-166500000D01*
X214375000Y-166500000D02*
X214600000Y-166275000D01*
X208870000Y-167000000D02*
X213500000Y-167000000D01*
X215000000Y-163250000D02*
X214750000Y-163000000D01*
X214750000Y-163000000D02*
X214250000Y-163000000D01*
X207620000Y-168250000D02*
X208870000Y-167000000D01*
X215000000Y-164500000D02*
X215000000Y-163250000D01*
%TO.N,/GPOC_{0}*%
X214000000Y-164900000D02*
X214600000Y-164300000D01*
X214000000Y-166000000D02*
X214000000Y-164900000D01*
X205080000Y-168250000D02*
X206584000Y-166746000D01*
X213000000Y-166000000D02*
X211200000Y-166000000D01*
X206584000Y-166746000D02*
X213254000Y-166746000D01*
X213950000Y-163800000D02*
X213250000Y-164500000D01*
X214600000Y-163800000D02*
X213950000Y-163800000D01*
X213250000Y-165750000D02*
X213000000Y-166000000D01*
X210620000Y-165420000D02*
X210550000Y-165420000D01*
X213250000Y-164500000D02*
X213250000Y-165750000D01*
X211200000Y-166000000D02*
X210620000Y-165420000D01*
X213254000Y-166746000D02*
X214000000Y-166000000D01*
X214600000Y-164300000D02*
X214600000Y-163800000D01*
%TO.N,/GPIO_{3}*%
X201500000Y-164000000D02*
X201500000Y-166750000D01*
X200250000Y-161250000D02*
X200650000Y-161650000D01*
X200250000Y-160260000D02*
X200250000Y-161250000D01*
X200650000Y-163800000D02*
X201300000Y-163800000D01*
X201500000Y-166750000D02*
X200000000Y-168250000D01*
X200650000Y-161650000D02*
X200650000Y-163800000D01*
X201300000Y-163800000D02*
X201500000Y-164000000D01*
%TO.N,/GPIO_{2}*%
X200250000Y-162250000D02*
X200250000Y-164250000D01*
X198710000Y-167000000D02*
X197460000Y-168250000D01*
X199250000Y-161250000D02*
X200250000Y-162250000D01*
X200650000Y-165700000D02*
X200650000Y-166600000D01*
X200250000Y-167000000D02*
X198710000Y-167000000D01*
X200650000Y-166600000D02*
X200250000Y-167000000D01*
X200650000Y-164650000D02*
X200650000Y-165700000D01*
X200250000Y-164250000D02*
X200650000Y-164650000D01*
X199250000Y-159260000D02*
X199250000Y-161250000D01*
%TO.N,/GPIO_{1}*%
X199350000Y-164650000D02*
X199740500Y-164259500D01*
X197470000Y-165700000D02*
X199350000Y-165700000D01*
X198250000Y-161250000D02*
X198250000Y-159260000D01*
X199740500Y-162740500D02*
X198250000Y-161250000D01*
X199350000Y-165700000D02*
X199350000Y-164650000D01*
X194920000Y-168250000D02*
X197470000Y-165700000D01*
X199740500Y-164259500D02*
X199740500Y-162740500D01*
%TO.N,/GPIO_{0}*%
X196830000Y-163800000D02*
X192380000Y-168250000D01*
X199350000Y-163287500D02*
X199350000Y-163800000D01*
X197250000Y-161187500D02*
X199350000Y-163287500D01*
X197250000Y-159260000D02*
X197250000Y-161187500D01*
X199350000Y-163800000D02*
X196830000Y-163800000D01*
%TO.N,/DEBUG_{0}*%
X203299500Y-155819827D02*
X203299500Y-155348710D01*
X215250000Y-155500000D02*
X217000000Y-153750000D01*
X206500000Y-156750000D02*
X205760500Y-156010500D01*
X217000000Y-153750000D02*
X217000000Y-152000000D01*
X205760500Y-156010500D02*
X203490173Y-156010500D01*
X208250000Y-157500000D02*
X206750000Y-157500000D01*
X217000000Y-152000000D02*
X216250000Y-151250000D01*
X202950790Y-155000000D02*
X201937500Y-155000000D01*
X206750000Y-157500000D02*
X206500000Y-157250000D01*
X203490173Y-156010500D02*
X203299500Y-155819827D01*
X206500000Y-157250000D02*
X206500000Y-156750000D01*
X214500000Y-151250000D02*
X208250000Y-157500000D01*
X203299500Y-155348710D02*
X202950790Y-155000000D01*
X216250000Y-151250000D02*
X214500000Y-151250000D01*
%TO.N,/DEBUG_{1}*%
X201605210Y-157496000D02*
X201262500Y-157496000D01*
X216270000Y-160250000D02*
X204359210Y-160250000D01*
X219750000Y-156770000D02*
X216270000Y-160250000D01*
X201200000Y-157433500D02*
X201200000Y-156937500D01*
X201262500Y-157496000D02*
X201200000Y-157433500D01*
X204359210Y-160250000D02*
X201605210Y-157496000D01*
%TO.N,/DEBUG_{2}*%
X201937500Y-156200000D02*
X201937500Y-157469080D01*
X217500000Y-153940000D02*
X219750000Y-151690000D01*
X201937500Y-157469080D02*
X203218420Y-158750000D01*
X213500000Y-158750000D02*
X214250000Y-159500000D01*
X217500000Y-158000000D02*
X217500000Y-153940000D01*
X203218420Y-158750000D02*
X213500000Y-158750000D01*
X214250000Y-159500000D02*
X216000000Y-159500000D01*
X216000000Y-159500000D02*
X217500000Y-158000000D01*
%TO.N,Net-(Q1-Pad2)*%
X203750000Y-163750000D02*
X201250000Y-161250000D01*
X209000000Y-163750000D02*
X203750000Y-163750000D01*
X201250000Y-161250000D02*
X201250000Y-160260000D01*
X210020000Y-164770000D02*
X209000000Y-163750000D01*
X210550000Y-164770000D02*
X210020000Y-164770000D01*
%TO.N,Net-(Q1-Pad5)*%
X204250000Y-162750000D02*
X202250000Y-160750000D01*
X202250000Y-160750000D02*
X202250000Y-160260000D01*
X212450000Y-164770000D02*
X212020000Y-164770000D01*
X212020000Y-164770000D02*
X211750000Y-164500000D01*
X211750000Y-163750000D02*
X210750000Y-162750000D01*
X210750000Y-162750000D02*
X204250000Y-162750000D01*
X211750000Y-164500000D02*
X211750000Y-163750000D01*
%TO.N,Net-(Q2-Pad5)*%
X195740000Y-159510000D02*
X195740000Y-157000000D01*
X189450000Y-164750000D02*
X189450000Y-164100000D01*
X189450000Y-164100000D02*
X191150000Y-164100000D01*
X191150000Y-164100000D02*
X195740000Y-159510000D01*
%TO.N,Net-(Q2-Pad2)*%
X186750000Y-162250000D02*
X187000000Y-162000000D01*
X187550000Y-164750000D02*
X188250000Y-164750000D01*
X188900000Y-165400000D02*
X189450000Y-165400000D01*
X188250000Y-164750000D02*
X188900000Y-165400000D01*
X187000000Y-162000000D02*
X187675000Y-162000000D01*
X186750000Y-164500000D02*
X186750000Y-162250000D01*
X187550000Y-164750000D02*
X187000000Y-164750000D01*
X187000000Y-164750000D02*
X186750000Y-164500000D01*
%TO.N,/VLED_{EN}*%
X205490000Y-126010000D02*
X204000000Y-127500000D01*
X202181290Y-152459500D02*
X200940500Y-152459500D01*
X209500000Y-126010000D02*
X205490000Y-126010000D01*
X200940500Y-152459500D02*
X200800000Y-152600000D01*
X210010000Y-126010000D02*
X209500000Y-126010000D01*
X212750000Y-126750000D02*
X212500000Y-126500000D01*
X210500000Y-126500000D02*
X210010000Y-126010000D01*
X212500000Y-126500000D02*
X210500000Y-126500000D01*
X204000000Y-127500000D02*
X204000000Y-145375000D01*
X205500000Y-149140790D02*
X202181290Y-152459500D01*
X205500000Y-146875000D02*
X205500000Y-149140790D01*
X204000000Y-145375000D02*
X205500000Y-146875000D01*
X200800000Y-152600000D02*
X200800000Y-153062500D01*
X213090000Y-126750000D02*
X212750000Y-126750000D01*
%TO.N,Net-(R5-Pad2)*%
X218010500Y-148039500D02*
X218010500Y-147939500D01*
X218460000Y-147490000D02*
X218500000Y-147490000D01*
X217750000Y-149250000D02*
X221500000Y-149250000D01*
X221750000Y-149000000D02*
X221750000Y-145250000D01*
X221750000Y-145250000D02*
X221500000Y-145000000D01*
X221500000Y-145000000D02*
X218100000Y-145000000D01*
X218010500Y-147939500D02*
X218460000Y-147490000D01*
X217500000Y-148510000D02*
X217540000Y-148510000D01*
X217500000Y-148510000D02*
X217500000Y-149000000D01*
X217500000Y-149000000D02*
X217750000Y-149250000D01*
X217540000Y-148510000D02*
X218010500Y-148039500D01*
X221500000Y-149250000D02*
X221750000Y-149000000D01*
%TO.N,Net-(R9-Pad1)*%
X204463395Y-149818185D02*
X204463395Y-147213395D01*
X200746000Y-108246000D02*
X197254000Y-108246000D01*
X200400000Y-153062500D02*
X200400000Y-152550000D01*
X203000000Y-110500000D02*
X200746000Y-108246000D01*
X196740000Y-108760000D02*
X196000000Y-108760000D01*
X202076080Y-152205500D02*
X204463395Y-149818185D01*
X200744500Y-152205500D02*
X202076080Y-152205500D01*
X200400000Y-152550000D02*
X200744500Y-152205500D01*
X204463395Y-147213395D02*
X203000000Y-145750000D01*
X197254000Y-108246000D02*
X196740000Y-108760000D01*
X203000000Y-145750000D02*
X203000000Y-110500000D01*
%TO.N,Net-(R10-Pad1)*%
X202000000Y-130125000D02*
X200000000Y-128125000D01*
X203500000Y-150422370D02*
X203500000Y-147500000D01*
X200000000Y-153062500D02*
X200000000Y-152550000D01*
X201970870Y-151951500D02*
X203500000Y-150422370D01*
X200598500Y-151951500D02*
X201970870Y-151951500D01*
X200000000Y-128125000D02*
X200000000Y-108760000D01*
X203500000Y-147500000D02*
X202000000Y-146000000D01*
X202000000Y-146000000D02*
X202000000Y-130125000D01*
X200000000Y-152550000D02*
X200598500Y-151951500D01*
%TO.N,Net-(R12-Pad2)*%
X199600000Y-153062500D02*
X199600000Y-152500000D01*
X199600000Y-152500000D02*
X200260000Y-151840000D01*
X200260000Y-151840000D02*
X200260000Y-150760000D01*
%TO.N,/VLED_{PG}*%
X204240000Y-150760000D02*
X201937500Y-153062500D01*
X201937500Y-153062500D02*
X201200000Y-153062500D01*
D48*
%TO.N,Net-(R14-Pad1)*%
X199200000Y-151820000D02*
X199260000Y-151760000D01*
X199200000Y-153062500D02*
X199200000Y-151820000D01*
%TO.N,Net-(R15-Pad1)*%
X198800000Y-153062500D02*
X198800000Y-152250000D01*
X198800000Y-152250000D02*
X198310000Y-151760000D01*
X198310000Y-151760000D02*
X198260000Y-151760000D01*
%TO.N,Net-(R16-Pad1)*%
X198062500Y-152512500D02*
X197310000Y-151760000D01*
X197310000Y-151760000D02*
X197260000Y-151760000D01*
X198062500Y-153800000D02*
X198062500Y-152512500D01*
%TO.N,Net-(R17-Pad1)*%
X197267000Y-153808737D02*
X197267000Y-153557000D01*
X197267000Y-153557000D02*
X196760000Y-153050000D01*
X197658263Y-154200000D02*
X197267000Y-153808737D01*
X198062500Y-154200000D02*
X197658263Y-154200000D01*
%TO.N,Net-(R18-Pad1)*%
X197370000Y-154600000D02*
X196770000Y-154000000D01*
X198062500Y-154600000D02*
X197370000Y-154600000D01*
%TO.N,Net-(R19-Pad1)*%
X198062500Y-155000000D02*
X196760000Y-155000000D01*
D45*
%TO.N,Net-(R20-Pad2)*%
X201937500Y-154200000D02*
X202960000Y-154200000D01*
X203260000Y-154500000D02*
X203750000Y-154500000D01*
X202960000Y-154200000D02*
X203260000Y-154500000D01*
%TO.N,Net-(R21-Pad2)*%
X202910000Y-154600000D02*
X203810000Y-155500000D01*
X201937500Y-154600000D02*
X202910000Y-154600000D01*
%TO.N,Net-(R24-Pad2)*%
X197500000Y-157000000D02*
X196760000Y-157000000D01*
X198062500Y-156437500D02*
X197500000Y-157000000D01*
X198062500Y-156200000D02*
X198062500Y-156437500D01*
%TO.N,Net-(R25-Pad2)*%
X200250000Y-158500000D02*
X200250000Y-159240000D01*
X200000000Y-156937500D02*
X200000000Y-158250000D01*
X200000000Y-158250000D02*
X200250000Y-158500000D01*
%TO.N,Net-(R26-Pad2)*%
X199600000Y-157950000D02*
X199310000Y-158240000D01*
X199600000Y-156937500D02*
X199600000Y-157950000D01*
X199310000Y-158240000D02*
X199250000Y-158240000D01*
%TO.N,Net-(R27-Pad2)*%
X199200000Y-156937500D02*
X199200000Y-157550000D01*
X198970500Y-157779500D02*
X198770500Y-157779500D01*
X198770500Y-157779500D02*
X198310000Y-158240000D01*
X198310000Y-158240000D02*
X198250000Y-158240000D01*
X199200000Y-157550000D02*
X198970500Y-157779500D01*
%TO.N,Net-(R28-Pad2)*%
X198800000Y-156937500D02*
X198612500Y-156937500D01*
X197310000Y-158240000D02*
X197250000Y-158240000D01*
X198612500Y-156937500D02*
X197310000Y-158240000D01*
%TO.N,Net-(R29-Pad1)*%
X201500000Y-157750000D02*
X202250000Y-158500000D01*
X200800000Y-157550000D02*
X201000000Y-157750000D01*
X201000000Y-157750000D02*
X201500000Y-157750000D01*
X200800000Y-156937500D02*
X200800000Y-157550000D01*
X202250000Y-158500000D02*
X202250000Y-159240000D01*
%TO.N,Net-(R30-Pad1)*%
X201250000Y-158359210D02*
X201250000Y-159240000D01*
X200400000Y-156937500D02*
X200400000Y-157509210D01*
X200400000Y-157509210D02*
X201250000Y-158359210D01*
%TO.N,Net-(R31-Pad1)*%
X198062500Y-155800000D02*
X197450000Y-155800000D01*
X197450000Y-155800000D02*
X197250000Y-156000000D01*
X197250000Y-156000000D02*
X196760000Y-156000000D01*
%TD*%
%TA.AperFunction,Conductor*%
%TO.N,GND*%
G36*
X211030872Y-127358082D02*
G01*
X211035587Y-127358828D01*
X211054184Y-127364871D01*
X211074078Y-127375007D01*
X211077476Y-127376739D01*
X211093293Y-127388232D01*
X211111768Y-127406707D01*
X211123261Y-127422525D01*
X211135128Y-127445814D01*
X211141171Y-127464412D01*
X211144887Y-127487872D01*
X211169978Y-127565091D01*
X211187515Y-127599508D01*
X211235234Y-127665187D01*
X211319422Y-127721440D01*
X211322261Y-127722616D01*
X211322263Y-127722617D01*
X211360778Y-127738571D01*
X211360783Y-127738573D01*
X211363616Y-127739746D01*
X211366624Y-127740344D01*
X211366626Y-127740345D01*
X211443037Y-127755544D01*
X211462923Y-127759500D01*
X212437500Y-127759500D01*
X212481694Y-127777806D01*
X212500000Y-127822000D01*
X212500000Y-128500000D01*
X212750000Y-128750000D01*
X212937500Y-128750000D01*
X212981694Y-128768306D01*
X213000000Y-128812500D01*
X213000000Y-129687500D01*
X212981694Y-129731694D01*
X212937500Y-129750000D01*
X210562500Y-129750000D01*
X210518306Y-129731694D01*
X210500000Y-129687500D01*
X210500000Y-128055642D01*
X210518306Y-128011448D01*
X210550307Y-127994343D01*
X210573419Y-127989746D01*
X210617613Y-127971440D01*
X210680679Y-127929301D01*
X210699247Y-127916894D01*
X210699248Y-127916893D01*
X210701800Y-127915188D01*
X210773247Y-127843741D01*
X210787077Y-127828781D01*
X210793446Y-127821324D01*
X210793806Y-127820868D01*
X210793826Y-127820843D01*
X210803778Y-127808218D01*
X210803779Y-127808216D01*
X210806059Y-127805324D01*
X210832337Y-127748327D01*
X210847163Y-127716169D01*
X210847165Y-127716164D01*
X210848451Y-127713374D01*
X210859619Y-127666860D01*
X210863595Y-127565682D01*
X210854741Y-127509777D01*
X210854741Y-127490225D01*
X210858828Y-127464414D01*
X210864871Y-127445816D01*
X210876739Y-127422524D01*
X210888232Y-127406707D01*
X210906707Y-127388232D01*
X210922524Y-127376739D01*
X210925922Y-127375007D01*
X210945816Y-127364871D01*
X210964413Y-127358828D01*
X210969128Y-127358082D01*
X210990225Y-127354741D01*
X211009775Y-127354741D01*
X211030872Y-127358082D01*
G37*
%TD.AperFunction*%
%TD*%
%TA.AperFunction,Conductor*%
%TO.N,GND*%
G36*
X213731694Y-140268306D02*
G01*
X213750000Y-140312500D01*
X213750000Y-142687500D01*
X213731694Y-142731694D01*
X213687500Y-142750000D01*
X211562500Y-142750000D01*
X211518306Y-142731694D01*
X211500000Y-142687500D01*
X211500000Y-140312500D01*
X211518306Y-140268306D01*
X211562500Y-140250000D01*
X213687500Y-140250000D01*
X213731694Y-140268306D01*
G37*
%TD.AperFunction*%
%TD*%
%TA.AperFunction,Conductor*%
%TO.N,+5Vdc*%
G36*
X202835000Y-155338002D02*
G01*
X202855974Y-155354904D01*
X202944595Y-155443524D01*
X202978620Y-155505836D01*
X202981500Y-155532620D01*
X202981500Y-155800435D01*
X202981021Y-155811417D01*
X202977823Y-155847970D01*
X202980677Y-155858621D01*
X202987318Y-155883408D01*
X202989696Y-155894137D01*
X202994152Y-155919406D01*
X202994154Y-155919411D01*
X202996068Y-155930267D01*
X203001581Y-155939814D01*
X203002660Y-155942780D01*
X203003994Y-155945641D01*
X203006848Y-155956293D01*
X203013171Y-155965323D01*
X203027892Y-155986347D01*
X203033797Y-155995617D01*
X203046626Y-156017838D01*
X203046629Y-156017842D01*
X203052140Y-156027387D01*
X203060587Y-156034475D01*
X203080245Y-156050970D01*
X203088349Y-156058396D01*
X203251604Y-156221651D01*
X203259030Y-156229755D01*
X203282613Y-156257860D01*
X203292158Y-156263371D01*
X203292162Y-156263374D01*
X203314391Y-156276207D01*
X203323652Y-156282107D01*
X203353707Y-156303151D01*
X203364352Y-156306004D01*
X203367224Y-156307343D01*
X203370190Y-156308423D01*
X203379733Y-156313932D01*
X203390582Y-156315845D01*
X203390590Y-156315848D01*
X203415867Y-156320305D01*
X203426595Y-156322683D01*
X203451378Y-156329323D01*
X203451379Y-156329323D01*
X203462030Y-156332177D01*
X203498583Y-156328979D01*
X203509565Y-156328500D01*
X203884000Y-156328500D01*
X203952121Y-156348502D01*
X203998614Y-156402158D01*
X204010000Y-156454500D01*
X204010000Y-157874000D01*
X203989998Y-157942121D01*
X203936342Y-157988614D01*
X203884000Y-158000000D01*
X202970330Y-158000000D01*
X202902209Y-157979998D01*
X202881234Y-157963095D01*
X202804606Y-157886466D01*
X202546904Y-157628764D01*
X202512879Y-157566452D01*
X202510000Y-157539669D01*
X202510000Y-156522817D01*
X202530002Y-156454696D01*
X202546828Y-156433798D01*
X202547382Y-156433243D01*
X202555599Y-156425012D01*
X202601466Y-156321263D01*
X202604500Y-156295238D01*
X202604500Y-156104762D01*
X202601341Y-156078211D01*
X202589295Y-156051091D01*
X202579921Y-155980718D01*
X202589205Y-155948997D01*
X202597636Y-155929927D01*
X202597636Y-155929925D01*
X202601466Y-155921263D01*
X202604500Y-155895238D01*
X202604500Y-155704762D01*
X202601341Y-155678211D01*
X202567792Y-155602680D01*
X202560017Y-155585177D01*
X202555293Y-155574542D01*
X202513852Y-155533173D01*
X202479773Y-155470890D01*
X202484776Y-155400070D01*
X202527273Y-155343197D01*
X202593772Y-155318329D01*
X202602870Y-155318000D01*
X202766879Y-155318000D01*
X202835000Y-155338002D01*
G37*
%TD.AperFunction*%
%TD*%
%TA.AperFunction,Conductor*%
%TO.N,+5Vdc*%
G36*
X210981694Y-137768306D02*
G01*
X211000000Y-137812500D01*
X211000000Y-139687500D01*
X210981694Y-139731694D01*
X210937500Y-139750000D01*
X208562500Y-139750000D01*
X208518306Y-139731694D01*
X208500000Y-139687500D01*
X208500000Y-137812500D01*
X208518306Y-137768306D01*
X208562500Y-137750000D01*
X210937500Y-137750000D01*
X210981694Y-137768306D01*
G37*
%TD.AperFunction*%
%TD*%
%TA.AperFunction,Conductor*%
%TO.N,GND*%
G36*
X198818586Y-105768306D02*
G01*
X198913694Y-105863414D01*
X198932000Y-105907608D01*
X198932000Y-106092392D01*
X198913694Y-106136586D01*
X198436891Y-106613389D01*
X198432871Y-106617073D01*
X198402640Y-106642440D01*
X198399907Y-106647173D01*
X198399905Y-106647176D01*
X198382912Y-106676610D01*
X198379986Y-106681204D01*
X198357348Y-106713534D01*
X198355933Y-106718816D01*
X198354547Y-106721788D01*
X198332625Y-106747343D01*
X198266516Y-106791516D01*
X198263097Y-106796633D01*
X198216560Y-106866280D01*
X198210266Y-106875699D01*
X198209065Y-106881737D01*
X198209065Y-106881738D01*
X198199741Y-106928614D01*
X198195500Y-106949933D01*
X198195500Y-107187500D01*
X198177194Y-107231694D01*
X198133000Y-107250000D01*
X197866999Y-107250000D01*
X197822805Y-107231694D01*
X197804499Y-107187500D01*
X197804499Y-106949934D01*
X197789734Y-106875699D01*
X197733484Y-106791516D01*
X197667373Y-106747341D01*
X197645453Y-106721790D01*
X197644067Y-106718817D01*
X197642651Y-106713534D01*
X197620009Y-106681198D01*
X197617090Y-106676615D01*
X197600094Y-106647176D01*
X197597360Y-106642440D01*
X197567129Y-106617073D01*
X197563109Y-106613389D01*
X197486611Y-106536891D01*
X197482927Y-106532871D01*
X197461074Y-106506828D01*
X197461075Y-106506828D01*
X197457560Y-106502640D01*
X197452827Y-106499907D01*
X197452824Y-106499905D01*
X197423390Y-106482912D01*
X197418796Y-106479986D01*
X197386466Y-106457348D01*
X197381190Y-106455934D01*
X197381189Y-106455934D01*
X197380965Y-106455874D01*
X197380694Y-106455801D01*
X197365612Y-106449554D01*
X197360440Y-106446568D01*
X197321580Y-106439716D01*
X197316258Y-106438536D01*
X197278143Y-106428323D01*
X197241380Y-106431539D01*
X197238835Y-106431762D01*
X197233388Y-106432000D01*
X196907608Y-106432000D01*
X196863414Y-106413694D01*
X196768306Y-106318586D01*
X196750000Y-106274392D01*
X196750000Y-105812500D01*
X196768306Y-105768306D01*
X196812500Y-105750000D01*
X198774392Y-105750000D01*
X198818586Y-105768306D01*
G37*
%TD.AperFunction*%
%TD*%
%TA.AperFunction,Conductor*%
%TO.N,GND*%
G36*
X209981694Y-128268306D02*
G01*
X210000000Y-128312500D01*
X210000000Y-129687500D01*
X209981694Y-129731694D01*
X209937500Y-129750000D01*
X208562500Y-129750000D01*
X208518306Y-129731694D01*
X208500000Y-129687500D01*
X208500000Y-128312500D01*
X208518306Y-128268306D01*
X208562500Y-128250000D01*
X209937500Y-128250000D01*
X209981694Y-128268306D01*
G37*
%TD.AperFunction*%
%TD*%
%TA.AperFunction,Conductor*%
%TO.N,GND*%
G36*
X205644711Y-156348502D02*
G01*
X205665685Y-156365405D01*
X205973095Y-156672815D01*
X206007121Y-156735127D01*
X206010000Y-156761910D01*
X206010000Y-157874000D01*
X205989998Y-157942121D01*
X205936342Y-157988614D01*
X205884000Y-158000000D01*
X204636000Y-158000000D01*
X204567879Y-157979998D01*
X204521386Y-157926342D01*
X204510000Y-157874000D01*
X204510000Y-156454500D01*
X204530002Y-156386379D01*
X204583658Y-156339886D01*
X204636000Y-156328500D01*
X205576590Y-156328500D01*
X205644711Y-156348502D01*
G37*
%TD.AperFunction*%
%TD*%
%TA.AperFunction,Conductor*%
%TO.N,+5Vdc*%
G36*
X202731694Y-104768306D02*
G01*
X202750000Y-104812500D01*
X202750000Y-105500000D01*
X203500000Y-106250000D01*
X203974112Y-106250000D01*
X204018306Y-106268306D01*
X204981694Y-107231694D01*
X205000000Y-107275888D01*
X205000000Y-107937500D01*
X204981694Y-107981694D01*
X204937500Y-108000000D01*
X202025888Y-108000000D01*
X201981694Y-107981694D01*
X201268306Y-107268306D01*
X201250000Y-107224112D01*
X201250000Y-104812500D01*
X201268306Y-104768306D01*
X201312500Y-104750000D01*
X202687500Y-104750000D01*
X202731694Y-104768306D01*
G37*
%TD.AperFunction*%
%TD*%
%TA.AperFunction,Conductor*%
%TO.N,+5Vdc*%
G36*
X199407194Y-108582306D02*
G01*
X199425500Y-108626500D01*
X199425501Y-108775699D01*
X199425501Y-108925652D01*
X199439946Y-109016862D01*
X199495960Y-109126796D01*
X199583204Y-109214040D01*
X199587587Y-109216273D01*
X199647874Y-109246991D01*
X199678941Y-109283365D01*
X199682000Y-109302679D01*
X199682000Y-110437500D01*
X199663694Y-110481694D01*
X199619500Y-110500000D01*
X198475608Y-110500000D01*
X198431414Y-110481694D01*
X197768306Y-109818586D01*
X197750000Y-109774392D01*
X197750000Y-109702727D01*
X197760533Y-109668004D01*
X197786314Y-109629420D01*
X197786315Y-109629418D01*
X197789734Y-109624301D01*
X197804500Y-109550067D01*
X197804499Y-108849934D01*
X197789734Y-108775699D01*
X197786316Y-108770584D01*
X197786315Y-108770581D01*
X197760533Y-108731996D01*
X197750000Y-108697273D01*
X197750000Y-108626500D01*
X197768306Y-108582306D01*
X197812500Y-108564000D01*
X199363000Y-108564000D01*
X199407194Y-108582306D01*
G37*
%TD.AperFunction*%
%TD*%
%TA.AperFunction,Conductor*%
%TO.N,GND*%
G36*
X217481694Y-127768306D02*
G01*
X217500000Y-127812500D01*
X217500000Y-129687500D01*
X217481694Y-129731694D01*
X217437500Y-129750000D01*
X216020833Y-129750000D01*
X215983333Y-129737500D01*
X215916667Y-129687500D01*
X215025000Y-129018750D01*
X215000628Y-128977589D01*
X215000000Y-128968750D01*
X215000000Y-128562500D01*
X215018306Y-128518306D01*
X215062500Y-128500000D01*
X215500000Y-128500000D01*
X215500000Y-127812500D01*
X215518306Y-127768306D01*
X215562500Y-127750000D01*
X217437500Y-127750000D01*
X217481694Y-127768306D01*
G37*
%TD.AperFunction*%
%TD*%
%TA.AperFunction,Conductor*%
%TO.N,/VLED*%
G36*
X224981694Y-118768306D02*
G01*
X225000000Y-118812500D01*
X225000000Y-126937500D01*
X224981694Y-126981694D01*
X224937500Y-127000000D01*
X221719734Y-127000000D01*
X221688483Y-126991626D01*
X221673389Y-126982911D01*
X221668792Y-126979982D01*
X221640945Y-126960484D01*
X221640944Y-126960484D01*
X221636466Y-126957348D01*
X221631190Y-126955934D01*
X221631189Y-126955934D01*
X221630965Y-126955874D01*
X221630694Y-126955801D01*
X221615612Y-126949554D01*
X221610440Y-126946568D01*
X221571580Y-126939716D01*
X221566258Y-126938536D01*
X221528143Y-126928323D01*
X221491380Y-126931539D01*
X221488835Y-126931762D01*
X221483388Y-126932000D01*
X215341549Y-126932000D01*
X215297355Y-126913694D01*
X215261689Y-126878028D01*
X215256734Y-126875717D01*
X215256732Y-126875716D01*
X215205583Y-126851865D01*
X215152382Y-126827057D01*
X215135154Y-126824789D01*
X215104607Y-126820767D01*
X215104601Y-126820767D01*
X215102576Y-126820500D01*
X214826999Y-126820500D01*
X214782805Y-126802194D01*
X214764499Y-126758000D01*
X214764499Y-126144934D01*
X214749734Y-126070699D01*
X214743806Y-126061827D01*
X214734474Y-126014910D01*
X214736166Y-126008310D01*
X214744555Y-125981705D01*
X214747490Y-125972395D01*
X214759500Y-125894364D01*
X214759500Y-123562500D01*
X214777806Y-123518306D01*
X214822000Y-123500000D01*
X215865485Y-123500000D01*
X215898698Y-123509555D01*
X215986876Y-123564869D01*
X216242185Y-123680146D01*
X216392265Y-123724601D01*
X216508737Y-123759102D01*
X216508741Y-123759103D01*
X216510777Y-123759706D01*
X216787682Y-123802079D01*
X216932781Y-123804358D01*
X217065648Y-123806446D01*
X217065654Y-123806446D01*
X217067775Y-123806479D01*
X217345875Y-123772825D01*
X217616833Y-123701740D01*
X217875638Y-123594540D01*
X218117499Y-123453208D01*
X218164939Y-123416010D01*
X218336266Y-123281673D01*
X218336271Y-123281668D01*
X218337941Y-123280359D01*
X218532886Y-123079192D01*
X218698725Y-122853429D01*
X218832391Y-122607247D01*
X218931409Y-122345203D01*
X218993948Y-122072146D01*
X219018849Y-121793127D01*
X219019301Y-121750000D01*
X219016416Y-121707675D01*
X219000394Y-121472656D01*
X219000393Y-121472649D01*
X219000248Y-121470521D01*
X218943442Y-121196213D01*
X218936098Y-121175473D01*
X218850642Y-120934154D01*
X218850640Y-120934149D01*
X218849933Y-120932153D01*
X218756961Y-120752023D01*
X218750000Y-120723358D01*
X218750000Y-118812500D01*
X218768306Y-118768306D01*
X218812500Y-118750000D01*
X224937500Y-118750000D01*
X224981694Y-118768306D01*
G37*
%TD.AperFunction*%
%TD*%
%TA.AperFunction,Conductor*%
%TO.N,GND*%
G36*
X204981694Y-108518306D02*
G01*
X205000000Y-108562500D01*
X205000000Y-109437500D01*
X204981694Y-109481694D01*
X204937500Y-109500000D01*
X202812500Y-109500000D01*
X202768306Y-109481694D01*
X202750000Y-109437500D01*
X202750000Y-108562500D01*
X202768306Y-108518306D01*
X202812500Y-108500000D01*
X204937500Y-108500000D01*
X204981694Y-108518306D01*
G37*
%TD.AperFunction*%
%TD*%
%TA.AperFunction,Conductor*%
%TO.N,GND*%
G36*
X205981694Y-152268306D02*
G01*
X206000000Y-152312500D01*
X206000000Y-153687500D01*
X205981694Y-153731694D01*
X205937500Y-153750000D01*
X204562500Y-153750000D01*
X204518306Y-153731694D01*
X204500000Y-153687500D01*
X204500000Y-152460608D01*
X204518306Y-152416414D01*
X204666414Y-152268306D01*
X204710608Y-152250000D01*
X205937500Y-152250000D01*
X205981694Y-152268306D01*
G37*
%TD.AperFunction*%
%TD*%
%TA.AperFunction,Conductor*%
%TO.N,GND*%
G36*
X210981694Y-140268306D02*
G01*
X211000000Y-140312500D01*
X211000000Y-142187500D01*
X210981694Y-142231694D01*
X210937500Y-142250000D01*
X208562500Y-142250000D01*
X208518306Y-142231694D01*
X208500000Y-142187500D01*
X208500000Y-140312500D01*
X208518306Y-140268306D01*
X208562500Y-140250000D01*
X210937500Y-140250000D01*
X210981694Y-140268306D01*
G37*
%TD.AperFunction*%
%TD*%
%TA.AperFunction,Conductor*%
%TO.N,+5Vdc*%
G36*
X215981694Y-137268306D02*
G01*
X216000000Y-137312500D01*
X216000000Y-142687500D01*
X215981694Y-142731694D01*
X215937500Y-142750000D01*
X214072000Y-142750000D01*
X214027806Y-142731694D01*
X214009500Y-142687500D01*
X214009500Y-140312500D01*
X213989746Y-140213193D01*
X213988573Y-140210360D01*
X213988571Y-140210355D01*
X213972617Y-140171840D01*
X213972616Y-140171838D01*
X213971440Y-140168999D01*
X213915189Y-140084813D01*
X213831001Y-140028560D01*
X213828160Y-140027383D01*
X213789645Y-140011429D01*
X213789640Y-140011427D01*
X213786807Y-140010254D01*
X213783799Y-140009656D01*
X213783797Y-140009655D01*
X213690511Y-139991099D01*
X213690512Y-139991099D01*
X213687500Y-139990500D01*
X211562500Y-139990500D01*
X211518306Y-139972194D01*
X211500000Y-139928000D01*
X211500000Y-137312500D01*
X211518306Y-137268306D01*
X211562500Y-137250000D01*
X215937500Y-137250000D01*
X215981694Y-137268306D01*
G37*
%TD.AperFunction*%
%TD*%
%TA.AperFunction,Conductor*%
%TO.N,+5Vdc*%
G36*
X193731694Y-152768306D02*
G01*
X193750000Y-152812500D01*
X193750000Y-154687500D01*
X193731694Y-154731694D01*
X193687500Y-154750000D01*
X191312500Y-154750000D01*
X191268306Y-154731694D01*
X191250000Y-154687500D01*
X191250000Y-152812500D01*
X191268306Y-152768306D01*
X191312500Y-152750000D01*
X193687500Y-152750000D01*
X193731694Y-152768306D01*
G37*
%TD.AperFunction*%
%TD*%
%TA.AperFunction,Conductor*%
%TO.N,Net-(C7-Pad1)*%
G36*
X220410342Y-143266312D02*
G01*
X220456573Y-143289868D01*
X220496346Y-143296167D01*
X220546528Y-143304116D01*
X220546533Y-143304116D01*
X220548955Y-143304500D01*
X220750000Y-143304500D01*
X220951044Y-143304499D01*
X220953465Y-143304116D01*
X220953472Y-143304115D01*
X221038571Y-143290637D01*
X221043427Y-143289868D01*
X221089658Y-143266312D01*
X221118033Y-143259500D01*
X221187500Y-143259500D01*
X221231694Y-143277806D01*
X221250000Y-143322000D01*
X221250000Y-144437500D01*
X221231694Y-144481694D01*
X221187500Y-144500000D01*
X218839264Y-144500000D01*
X218795070Y-144481694D01*
X218787297Y-144472223D01*
X218786902Y-144471632D01*
X218783484Y-144466516D01*
X218740059Y-144437500D01*
X218704420Y-144413686D01*
X218704418Y-144413685D01*
X218699301Y-144410266D01*
X218666247Y-144403691D01*
X218628080Y-144396099D01*
X218628077Y-144396099D01*
X218625067Y-144395500D01*
X218577292Y-144395500D01*
X217667501Y-144395501D01*
X217623307Y-144377195D01*
X217605001Y-144333001D01*
X217605000Y-143734969D01*
X217623306Y-143690775D01*
X217630266Y-143684771D01*
X217636236Y-143680343D01*
X217636247Y-143680335D01*
X217636861Y-143679879D01*
X217646329Y-143672108D01*
X217646887Y-143671602D01*
X217646900Y-143671591D01*
X217662342Y-143657594D01*
X217662343Y-143657593D01*
X217665187Y-143655015D01*
X217721440Y-143570827D01*
X217722617Y-143567986D01*
X217738571Y-143529471D01*
X217738573Y-143529466D01*
X217739746Y-143526633D01*
X217759500Y-143427326D01*
X217759500Y-143383376D01*
X217777806Y-143339182D01*
X217839182Y-143277806D01*
X217883376Y-143259500D01*
X220381967Y-143259500D01*
X220410342Y-143266312D01*
G37*
%TD.AperFunction*%
%TD*%
%TA.AperFunction,Conductor*%
%TO.N,GND*%
G36*
X216472194Y-143028306D02*
G01*
X216490500Y-143072500D01*
X216490500Y-144122963D01*
X216479967Y-144157686D01*
X216433060Y-144227887D01*
X216431884Y-144230726D01*
X216431883Y-144230728D01*
X216415929Y-144269243D01*
X216415927Y-144269248D01*
X216414754Y-144272081D01*
X216414156Y-144275089D01*
X216414155Y-144275091D01*
X216400310Y-144344693D01*
X216373734Y-144384466D01*
X216339011Y-144394999D01*
X215605868Y-144395000D01*
X215562500Y-144395000D01*
X215560822Y-144395334D01*
X215557417Y-144395501D01*
X215374934Y-144395501D01*
X215371925Y-144396100D01*
X215371920Y-144396100D01*
X215306737Y-144409065D01*
X215300699Y-144410266D01*
X215216516Y-144466516D01*
X215213097Y-144471633D01*
X215192572Y-144502351D01*
X215160266Y-144550699D01*
X215159065Y-144556738D01*
X215154273Y-144580830D01*
X215137168Y-144612832D01*
X215000000Y-144750000D01*
X215000000Y-145178000D01*
X214981694Y-145222194D01*
X214937500Y-145240500D01*
X212312500Y-145240500D01*
X212268306Y-145222194D01*
X212250000Y-145178000D01*
X212250000Y-143312500D01*
X212268306Y-143268306D01*
X212312500Y-143250000D01*
X214010000Y-143250000D01*
X214231694Y-143028306D01*
X214275888Y-143010000D01*
X216428000Y-143010000D01*
X216472194Y-143028306D01*
G37*
%TD.AperFunction*%
%TD*%
%TA.AperFunction,Conductor*%
%TO.N,+5Vdc*%
G36*
X209750000Y-127750000D02*
G01*
X208500000Y-127750000D01*
X208000000Y-128250000D01*
X208000000Y-131937500D01*
X207981694Y-131981694D01*
X207937500Y-132000000D01*
X204812500Y-132000000D01*
X204768306Y-131981694D01*
X204750000Y-131937500D01*
X204750000Y-127225608D01*
X204768306Y-127181414D01*
X205181414Y-126768306D01*
X205225608Y-126750000D01*
X209750000Y-126750000D01*
X209750000Y-127750000D01*
G37*
%TD.AperFunction*%
%TD*%
%TA.AperFunction,Conductor*%
%TO.N,GND*%
G36*
X193731694Y-155268306D02*
G01*
X193750000Y-155312500D01*
X193750000Y-157187500D01*
X193731694Y-157231694D01*
X193687500Y-157250000D01*
X191312500Y-157250000D01*
X191268306Y-157231694D01*
X191250000Y-157187500D01*
X191250000Y-155312500D01*
X191268306Y-155268306D01*
X191312500Y-155250000D01*
X193687500Y-155250000D01*
X193731694Y-155268306D01*
G37*
%TD.AperFunction*%
%TD*%
%TA.AperFunction,Conductor*%
%TO.N,+5Vdc*%
G36*
X186231694Y-162768306D02*
G01*
X186250000Y-162812500D01*
X186250000Y-164687500D01*
X186231694Y-164731694D01*
X186187500Y-164750000D01*
X185153151Y-164750000D01*
X185105803Y-164728297D01*
X185071363Y-164688327D01*
X185071359Y-164688323D01*
X185068453Y-164684951D01*
X185064719Y-164682531D01*
X185064716Y-164682528D01*
X184993651Y-164636466D01*
X184953196Y-164610244D01*
X184940918Y-164606572D01*
X184906551Y-164596294D01*
X184821603Y-164570890D01*
X184752929Y-164570471D01*
X184688708Y-164570078D01*
X184688707Y-164570078D01*
X184684255Y-164570051D01*
X184552192Y-164607795D01*
X184436031Y-164681087D01*
X184433088Y-164684419D01*
X184433086Y-164684421D01*
X184412651Y-164707560D01*
X184394337Y-164728297D01*
X184393828Y-164728873D01*
X184346982Y-164750000D01*
X184225608Y-164750000D01*
X184181414Y-164731694D01*
X183836306Y-164386586D01*
X183818000Y-164342392D01*
X183818000Y-162812500D01*
X183836306Y-162768306D01*
X183880500Y-162750000D01*
X186187500Y-162750000D01*
X186231694Y-162768306D01*
G37*
%TD.AperFunction*%
%TD*%
%TA.AperFunction,Conductor*%
%TO.N,Net-(C1-Pad1)*%
G36*
X211231694Y-143018306D02*
G01*
X211250000Y-143062500D01*
X211250000Y-145178000D01*
X211231694Y-145222194D01*
X211187500Y-145240500D01*
X208812500Y-145240500D01*
X208770779Y-145248799D01*
X208758586Y-145250000D01*
X208312500Y-145250000D01*
X208268306Y-145231694D01*
X208250000Y-145187500D01*
X208250000Y-143062500D01*
X208268306Y-143018306D01*
X208312500Y-143000000D01*
X211187500Y-143000000D01*
X211231694Y-143018306D01*
G37*
%TD.AperFunction*%
%TD*%
%TA.AperFunction,Conductor*%
%TO.N,Net-(C7-Pad2)*%
G36*
X221231694Y-137268306D02*
G01*
X221250000Y-137312500D01*
X221250000Y-142937500D01*
X221231694Y-142981694D01*
X221187500Y-143000000D01*
X217750000Y-143000000D01*
X217500000Y-143250000D01*
X217500000Y-143427326D01*
X217481694Y-143471520D01*
X217472226Y-143479291D01*
X217416516Y-143516516D01*
X217360266Y-143600699D01*
X217345500Y-143674933D01*
X217345501Y-144425066D01*
X217360266Y-144499301D01*
X217362304Y-144502351D01*
X217362304Y-144547649D01*
X217360266Y-144550699D01*
X217359064Y-144556740D01*
X217359064Y-144556741D01*
X217353065Y-144586903D01*
X217345500Y-144624933D01*
X217345501Y-145375066D01*
X217346100Y-145378075D01*
X217346100Y-145378080D01*
X217355494Y-145425308D01*
X217346161Y-145472224D01*
X217306387Y-145498799D01*
X217294195Y-145500000D01*
X216672674Y-145500000D01*
X216628480Y-145481694D01*
X216620707Y-145472224D01*
X216583484Y-145416516D01*
X216531409Y-145381720D01*
X216504420Y-145363686D01*
X216504418Y-145363685D01*
X216499301Y-145360266D01*
X216466247Y-145353691D01*
X216428080Y-145346099D01*
X216428077Y-145346099D01*
X216425067Y-145345500D01*
X216408150Y-145345500D01*
X215562500Y-145345501D01*
X215518306Y-145327195D01*
X215500000Y-145283001D01*
X215500000Y-144717000D01*
X215518306Y-144672806D01*
X215562500Y-144654500D01*
X216408149Y-144654499D01*
X216425066Y-144654499D01*
X216428075Y-144653900D01*
X216428080Y-144653900D01*
X216493263Y-144640935D01*
X216499301Y-144639734D01*
X216583484Y-144583484D01*
X216606579Y-144548920D01*
X216636314Y-144504420D01*
X216636315Y-144504418D01*
X216639734Y-144499301D01*
X216654500Y-144425067D01*
X216654500Y-144371388D01*
X216672806Y-144327194D01*
X216750000Y-144250000D01*
X216750000Y-137312500D01*
X216768306Y-137268306D01*
X216812500Y-137250000D01*
X221187500Y-137250000D01*
X221231694Y-137268306D01*
G37*
%TD.AperFunction*%
%TD*%
%TA.AperFunction,Conductor*%
%TO.N,Net-(C1-Pad1)*%
G36*
X214456573Y-118770120D02*
G01*
X214494844Y-118822795D01*
X214500000Y-118855350D01*
X214500000Y-125894364D01*
X214480949Y-125954788D01*
X214479543Y-125956796D01*
X214473028Y-125963311D01*
X214422057Y-126072618D01*
X214415500Y-126122424D01*
X214415500Y-126877576D01*
X214422057Y-126927382D01*
X214434755Y-126954611D01*
X214435158Y-126955476D01*
X214443094Y-127020100D01*
X214435159Y-127044522D01*
X214422057Y-127072618D01*
X214415500Y-127122424D01*
X214415500Y-127377576D01*
X214422057Y-127427382D01*
X214425462Y-127434684D01*
X214425463Y-127434687D01*
X214435158Y-127455476D01*
X214443094Y-127520100D01*
X214435159Y-127544522D01*
X214422057Y-127572618D01*
X214415500Y-127622424D01*
X214415500Y-127644650D01*
X214395380Y-127706573D01*
X214342705Y-127744844D01*
X214310150Y-127750000D01*
X213689850Y-127750000D01*
X213627927Y-127729880D01*
X213589656Y-127677205D01*
X213584500Y-127644650D01*
X213584500Y-127622424D01*
X213577943Y-127572618D01*
X213564842Y-127544523D01*
X213556906Y-127479900D01*
X213564842Y-127455476D01*
X213574537Y-127434687D01*
X213574538Y-127434684D01*
X213577943Y-127427382D01*
X213584500Y-127377576D01*
X213584500Y-127122424D01*
X213577943Y-127072618D01*
X213564842Y-127044523D01*
X213556906Y-126979900D01*
X213564842Y-126955476D01*
X213565246Y-126954611D01*
X213577943Y-126927382D01*
X213584500Y-126877576D01*
X213584500Y-126622424D01*
X213577943Y-126572618D01*
X213526972Y-126463311D01*
X213441689Y-126378028D01*
X213332382Y-126327057D01*
X213324389Y-126326005D01*
X213317001Y-126323851D01*
X213263182Y-126287205D01*
X213250000Y-126262281D01*
X213250000Y-126250000D01*
X213000000Y-126000000D01*
X210493358Y-126000000D01*
X210431435Y-125979880D01*
X210418864Y-125969144D01*
X210247931Y-125798211D01*
X210241722Y-125791435D01*
X210223483Y-125769699D01*
X210217560Y-125762640D01*
X210184999Y-125743841D01*
X210177277Y-125738922D01*
X210146466Y-125717348D01*
X210137564Y-125714963D01*
X210133086Y-125712875D01*
X210128425Y-125711178D01*
X210120440Y-125706568D01*
X210111362Y-125704967D01*
X210111361Y-125704967D01*
X210087055Y-125700681D01*
X210029566Y-125670113D01*
X210001025Y-125611592D01*
X210000000Y-125596932D01*
X210000000Y-125390018D01*
X210011482Y-125342190D01*
X210060054Y-125246862D01*
X210067824Y-125197808D01*
X210073853Y-125159739D01*
X210073853Y-125159737D01*
X210074500Y-125155653D01*
X210074499Y-124824348D01*
X210060054Y-124733138D01*
X210004040Y-124623204D01*
X209916796Y-124535960D01*
X209806862Y-124479946D01*
X209798679Y-124478650D01*
X209798676Y-124478649D01*
X209719739Y-124466147D01*
X209719737Y-124466147D01*
X209715653Y-124465500D01*
X209500027Y-124465500D01*
X209284348Y-124465501D01*
X209280264Y-124466148D01*
X209280261Y-124466148D01*
X209247763Y-124471295D01*
X209193138Y-124479946D01*
X209176315Y-124488518D01*
X209128489Y-124500000D01*
X207605350Y-124500000D01*
X207543427Y-124479880D01*
X207505156Y-124427205D01*
X207500000Y-124394650D01*
X207500000Y-123155799D01*
X207520120Y-123093876D01*
X207529694Y-123082486D01*
X207530389Y-123081769D01*
X207530391Y-123081767D01*
X207532886Y-123079192D01*
X207698725Y-122853429D01*
X207832391Y-122607247D01*
X207931409Y-122345203D01*
X207993948Y-122072146D01*
X208018849Y-121793127D01*
X208019301Y-121750000D01*
X208000248Y-121470521D01*
X207943442Y-121196213D01*
X207942248Y-121192842D01*
X207942246Y-121192834D01*
X207851128Y-120935527D01*
X207851127Y-120935524D01*
X207849933Y-120932153D01*
X207721452Y-120683226D01*
X207689400Y-120637620D01*
X207562434Y-120456966D01*
X207562430Y-120456961D01*
X207560377Y-120454040D01*
X207557946Y-120451424D01*
X207557938Y-120451414D01*
X207528176Y-120419386D01*
X207500763Y-120360329D01*
X207500000Y-120347673D01*
X207500000Y-118855350D01*
X207520120Y-118793427D01*
X207572795Y-118755156D01*
X207605350Y-118750000D01*
X214394650Y-118750000D01*
X214456573Y-118770120D01*
G37*
%TD.AperFunction*%
%TD*%
%TA.AperFunction,Conductor*%
%TO.N,+12V_{dc}*%
G36*
X215204930Y-145518306D02*
G01*
X215212701Y-145527775D01*
X215216516Y-145533484D01*
X215221633Y-145536903D01*
X215295580Y-145586314D01*
X215295582Y-145586315D01*
X215300699Y-145589734D01*
X215333753Y-145596309D01*
X215371920Y-145603901D01*
X215371923Y-145603901D01*
X215374933Y-145604500D01*
X215557412Y-145604500D01*
X215560823Y-145604668D01*
X215562500Y-145605001D01*
X215634925Y-145605001D01*
X216365031Y-145605000D01*
X216409225Y-145623306D01*
X216415230Y-145630267D01*
X216420123Y-145636864D01*
X216427896Y-145646334D01*
X216434399Y-145653509D01*
X216442409Y-145662346D01*
X216442413Y-145662349D01*
X216444985Y-145665187D01*
X216529173Y-145721440D01*
X216532012Y-145722616D01*
X216532014Y-145722617D01*
X216570529Y-145738571D01*
X216570534Y-145738573D01*
X216573367Y-145739746D01*
X216576375Y-145740344D01*
X216576377Y-145740345D01*
X216650157Y-145755021D01*
X216672674Y-145759500D01*
X217187500Y-145759500D01*
X217231694Y-145777806D01*
X217250000Y-145822000D01*
X217250000Y-146250000D01*
X217337168Y-146337168D01*
X217354273Y-146369170D01*
X217360266Y-146399301D01*
X217416516Y-146483484D01*
X217421633Y-146486903D01*
X217495580Y-146536314D01*
X217495582Y-146536315D01*
X217500699Y-146539734D01*
X217530831Y-146545728D01*
X217562832Y-146562832D01*
X217981694Y-146981694D01*
X218000000Y-147025888D01*
X218000000Y-147100270D01*
X217993188Y-147128644D01*
X217939946Y-147233138D01*
X217939177Y-147237995D01*
X217939177Y-147237996D01*
X217925500Y-147324347D01*
X217925500Y-147326807D01*
X217925501Y-147548891D01*
X217907195Y-147593085D01*
X217797391Y-147702889D01*
X217793371Y-147706573D01*
X217763140Y-147731940D01*
X217760407Y-147736673D01*
X217760405Y-147736676D01*
X217743412Y-147766110D01*
X217740486Y-147770704D01*
X217717848Y-147803034D01*
X217716434Y-147808310D01*
X217716434Y-147808311D01*
X217716302Y-147808805D01*
X217710054Y-147823888D01*
X217707068Y-147829060D01*
X217706118Y-147834448D01*
X217700216Y-147867919D01*
X217699042Y-147873219D01*
X217693120Y-147895322D01*
X217676947Y-147923334D01*
X217633085Y-147967196D01*
X217588892Y-147985500D01*
X217313022Y-147985501D01*
X217284348Y-147985501D01*
X217197653Y-147999231D01*
X217187877Y-148000000D01*
X217011724Y-148000000D01*
X216967530Y-147981694D01*
X216949224Y-147937500D01*
X216967530Y-147893306D01*
X217004040Y-147856796D01*
X217060054Y-147746862D01*
X217060823Y-147742005D01*
X217060824Y-147742003D01*
X217074116Y-147658080D01*
X217074116Y-147658075D01*
X217074500Y-147655653D01*
X217074499Y-147324348D01*
X217060054Y-147233138D01*
X217004040Y-147123204D01*
X216997806Y-147116970D01*
X216979500Y-147072776D01*
X216979500Y-147045505D01*
X216980366Y-147035136D01*
X216983886Y-147014212D01*
X216984286Y-147011836D01*
X216984431Y-147000000D01*
X216964959Y-146864036D01*
X216946464Y-146823359D01*
X216909953Y-146743055D01*
X216909951Y-146743051D01*
X216908110Y-146739003D01*
X216818453Y-146634951D01*
X216814719Y-146632531D01*
X216814716Y-146632528D01*
X216744607Y-146587086D01*
X216703196Y-146560244D01*
X216690918Y-146556572D01*
X216623178Y-146536314D01*
X216571603Y-146520890D01*
X216502929Y-146520471D01*
X216438708Y-146520078D01*
X216438707Y-146520078D01*
X216434255Y-146520051D01*
X216302192Y-146557795D01*
X216186031Y-146631087D01*
X216095109Y-146734036D01*
X216036736Y-146858366D01*
X216015605Y-146994082D01*
X216016182Y-146998495D01*
X216016182Y-146998497D01*
X216019972Y-147027478D01*
X216020500Y-147035582D01*
X216020500Y-147072776D01*
X216002194Y-147116970D01*
X215995960Y-147123204D01*
X215939946Y-147233138D01*
X215939177Y-147237995D01*
X215939177Y-147237996D01*
X215925500Y-147324347D01*
X215925501Y-147655652D01*
X215939946Y-147746862D01*
X215995960Y-147856796D01*
X216032470Y-147893306D01*
X216050776Y-147937500D01*
X216032470Y-147981694D01*
X215988276Y-148000000D01*
X215812125Y-148000000D01*
X215802348Y-147999231D01*
X215718080Y-147985884D01*
X215718075Y-147985884D01*
X215715653Y-147985500D01*
X215713193Y-147985500D01*
X215500001Y-147985501D01*
X215284348Y-147985501D01*
X215197653Y-147999231D01*
X215187877Y-148000000D01*
X208812500Y-148000000D01*
X208768306Y-147981694D01*
X208750000Y-147937500D01*
X208750000Y-145562500D01*
X208768306Y-145518306D01*
X208812500Y-145500000D01*
X215160736Y-145500000D01*
X215204930Y-145518306D01*
G37*
%TD.AperFunction*%
%TD*%
%TA.AperFunction,Conductor*%
%TO.N,Net-(R2-Pad1)*%
G36*
X220981694Y-127586306D02*
G01*
X221000000Y-127630500D01*
X221000000Y-130437500D01*
X220981694Y-130481694D01*
X220937500Y-130500000D01*
X213562500Y-130500000D01*
X213518306Y-130481694D01*
X213500000Y-130437500D01*
X213500000Y-128501995D01*
X213516163Y-128460053D01*
X213548625Y-128424190D01*
X213551612Y-128420890D01*
X213611499Y-128297283D01*
X213617830Y-128259655D01*
X213625678Y-128213002D01*
X213634286Y-128161836D01*
X213634431Y-128150000D01*
X213634671Y-128150003D01*
X213649711Y-128105768D01*
X213696681Y-128084500D01*
X214497655Y-128084499D01*
X214535066Y-128084499D01*
X214538075Y-128083900D01*
X214538080Y-128083900D01*
X214603263Y-128070935D01*
X214609301Y-128069734D01*
X214693484Y-128013484D01*
X214749734Y-127929301D01*
X214764500Y-127855067D01*
X214764500Y-127742000D01*
X214782806Y-127697806D01*
X214827000Y-127679500D01*
X215102576Y-127679500D01*
X215104601Y-127679233D01*
X215104607Y-127679233D01*
X215135154Y-127675211D01*
X215152382Y-127672943D01*
X215168335Y-127665504D01*
X215216123Y-127663417D01*
X215251392Y-127695733D01*
X215256047Y-127734341D01*
X215251043Y-127759500D01*
X215240500Y-127812500D01*
X215240500Y-128178000D01*
X215222194Y-128222194D01*
X215178000Y-128240500D01*
X215062500Y-128240500D01*
X215059488Y-128241099D01*
X215059489Y-128241099D01*
X214966203Y-128259655D01*
X214966201Y-128259656D01*
X214963193Y-128260254D01*
X214960360Y-128261427D01*
X214960355Y-128261429D01*
X214921840Y-128277383D01*
X214918999Y-128278560D01*
X214834813Y-128334811D01*
X214778560Y-128418999D01*
X214777384Y-128421838D01*
X214777383Y-128421840D01*
X214761429Y-128460355D01*
X214761427Y-128460360D01*
X214760254Y-128463193D01*
X214759656Y-128466201D01*
X214759655Y-128466203D01*
X214750718Y-128511132D01*
X214740500Y-128562500D01*
X214740500Y-128968750D01*
X214741152Y-128987141D01*
X214741780Y-128995980D01*
X214743736Y-129014289D01*
X214777335Y-129109804D01*
X214801707Y-129150965D01*
X214869300Y-129226350D01*
X215827633Y-129945100D01*
X215901272Y-129983683D01*
X215903649Y-129984475D01*
X215903653Y-129984477D01*
X215921258Y-129990345D01*
X215938772Y-129996183D01*
X216020833Y-130009500D01*
X217437500Y-130009500D01*
X217457386Y-130005544D01*
X217533797Y-129990345D01*
X217533799Y-129990344D01*
X217536807Y-129989746D01*
X217539640Y-129988573D01*
X217539645Y-129988571D01*
X217578160Y-129972617D01*
X217578162Y-129972616D01*
X217581001Y-129971440D01*
X217665187Y-129915189D01*
X217721440Y-129831001D01*
X217722617Y-129828160D01*
X217738571Y-129789645D01*
X217738573Y-129789640D01*
X217739746Y-129786807D01*
X217759500Y-129687500D01*
X217759500Y-127812500D01*
X217743953Y-127734341D01*
X217740345Y-127716203D01*
X217740344Y-127716201D01*
X217739746Y-127713193D01*
X217738573Y-127710360D01*
X217738571Y-127710355D01*
X217722617Y-127671840D01*
X217722616Y-127671838D01*
X217721440Y-127668999D01*
X217718917Y-127665223D01*
X217718820Y-127664737D01*
X217718286Y-127663737D01*
X217718589Y-127663575D01*
X217709585Y-127618306D01*
X217736161Y-127578533D01*
X217770884Y-127568000D01*
X220937500Y-127568000D01*
X220981694Y-127586306D01*
G37*
%TD.AperFunction*%
%TD*%
%TA.AperFunction,Conductor*%
%TO.N,Net-(R7-Pad2)*%
G36*
X221231694Y-145518306D02*
G01*
X221250000Y-145562500D01*
X221250000Y-146687500D01*
X221231694Y-146731694D01*
X221187500Y-146750000D01*
X221062125Y-146750000D01*
X221052348Y-146749231D01*
X220968080Y-146735884D01*
X220968075Y-146735884D01*
X220965653Y-146735500D01*
X220963193Y-146735500D01*
X220750001Y-146735501D01*
X220534348Y-146735501D01*
X220447653Y-146749231D01*
X220437877Y-146750000D01*
X220062125Y-146750000D01*
X220052348Y-146749231D01*
X219968080Y-146735884D01*
X219968075Y-146735884D01*
X219965653Y-146735500D01*
X219963193Y-146735500D01*
X219750001Y-146735501D01*
X219534348Y-146735501D01*
X219447653Y-146749231D01*
X219437877Y-146750000D01*
X218275888Y-146750000D01*
X218231694Y-146731694D01*
X217768306Y-146268306D01*
X217750000Y-146224112D01*
X217750000Y-145667000D01*
X217768306Y-145622806D01*
X217812500Y-145604500D01*
X218611664Y-145604499D01*
X218625066Y-145604499D01*
X218628075Y-145603900D01*
X218628080Y-145603900D01*
X218693263Y-145590935D01*
X218699301Y-145589734D01*
X218783484Y-145533484D01*
X218787298Y-145527777D01*
X218787888Y-145527382D01*
X218791256Y-145524014D01*
X218791926Y-145524684D01*
X218827071Y-145501201D01*
X218839264Y-145500000D01*
X221187500Y-145500000D01*
X221231694Y-145518306D01*
G37*
%TD.AperFunction*%
%TD*%
%TA.AperFunction,Conductor*%
%TO.N,+5Vdc*%
G36*
X212498191Y-126768306D02*
G01*
X212584372Y-126854487D01*
X212588677Y-126860561D01*
X212589250Y-126860105D01*
X212593631Y-126865613D01*
X212596678Y-126871958D01*
X212602175Y-126876354D01*
X212619761Y-126890418D01*
X212624920Y-126895035D01*
X212630168Y-126900283D01*
X212633139Y-126902150D01*
X212633140Y-126902151D01*
X212636169Y-126904055D01*
X212641944Y-126908159D01*
X212659236Y-126921988D01*
X212659240Y-126921990D01*
X212664733Y-126926383D01*
X212671590Y-126927960D01*
X212675352Y-126929778D01*
X212679290Y-126931157D01*
X212685248Y-126934902D01*
X212692239Y-126935692D01*
X212692244Y-126935694D01*
X212714237Y-126938180D01*
X212721218Y-126939372D01*
X212727489Y-126940814D01*
X212765453Y-126967002D01*
X212782494Y-126992506D01*
X212853611Y-127040025D01*
X212916325Y-127052500D01*
X212996220Y-127052500D01*
X213253397Y-127052499D01*
X213297591Y-127070805D01*
X213313476Y-127097771D01*
X213322579Y-127129515D01*
X213325000Y-127146743D01*
X213325000Y-127345759D01*
X213320651Y-127368664D01*
X213318043Y-127375285D01*
X213310107Y-127399709D01*
X213310000Y-127400065D01*
X213309112Y-127403014D01*
X213278845Y-127440057D01*
X213249264Y-127447500D01*
X213191921Y-127447500D01*
X213179067Y-127445677D01*
X213175575Y-127445335D01*
X213170030Y-127443729D01*
X213129173Y-127447267D01*
X213123781Y-127447500D01*
X213028157Y-127447500D01*
X212916326Y-127447501D01*
X212913317Y-127448100D01*
X212913312Y-127448100D01*
X212859649Y-127458774D01*
X212853611Y-127459975D01*
X212809472Y-127489468D01*
X212774751Y-127500000D01*
X211462923Y-127500000D01*
X211418729Y-127481694D01*
X211401192Y-127447277D01*
X211390267Y-127378302D01*
X211389498Y-127373445D01*
X211331326Y-127259277D01*
X211240723Y-127168674D01*
X211126555Y-127110502D01*
X211000000Y-127090458D01*
X210873445Y-127110502D01*
X210759277Y-127168674D01*
X210668674Y-127259277D01*
X210610502Y-127373445D01*
X210590458Y-127500000D01*
X210591227Y-127504855D01*
X210607290Y-127606276D01*
X210596122Y-127652790D01*
X210589753Y-127660247D01*
X210518306Y-127731694D01*
X210474112Y-127750000D01*
X209000000Y-127750000D01*
X209000000Y-126750000D01*
X212453997Y-126750000D01*
X212498191Y-126768306D01*
G37*
%TD.AperFunction*%
%TD*%
M02*
