%TF.GenerationSoftware,KiCad,Pcbnew,6.0.11-3.fc37*%
%TF.CreationDate,2023-08-14T12:31:01+01:00*%
%TF.ProjectId,kitchen-led-strips,6b697463-6865-46e2-9d6c-65642d737472,1.0*%
%TF.SameCoordinates,Original*%
%TF.FileFunction,AssemblyDrawing,Top*%
%FSLAX46Y46*%
G04 Gerber Fmt 4.6, Leading zero omitted, Abs format (unit mm)*
G04 Created by KiCad (PCBNEW 6.0.11-3.fc37) date 2023-08-14 12:31:01*
%MOMM*%
%LPD*%
G01*
G04 APERTURE LIST*
%ADD10C,0.150000*%
%ADD11C,0.040000*%
%ADD12C,0.120000*%
%ADD13C,0.075000*%
%ADD14C,0.060000*%
%ADD15C,0.080000*%
%ADD16C,0.100000*%
G04 APERTURE END LIST*
D10*
X176918928Y-129153571D02*
X176585595Y-129153571D01*
X176585595Y-129677380D02*
X176585595Y-128677380D01*
X177061785Y-128677380D01*
X177871309Y-129677380D02*
X177871309Y-129153571D01*
X177823690Y-129058333D01*
X177728452Y-129010714D01*
X177537976Y-129010714D01*
X177442738Y-129058333D01*
X177871309Y-129629761D02*
X177776071Y-129677380D01*
X177537976Y-129677380D01*
X177442738Y-129629761D01*
X177395119Y-129534523D01*
X177395119Y-129439285D01*
X177442738Y-129344047D01*
X177537976Y-129296428D01*
X177776071Y-129296428D01*
X177871309Y-129248809D01*
X178347500Y-129677380D02*
X178347500Y-128677380D01*
X178347500Y-129058333D02*
X178442738Y-129010714D01*
X178633214Y-129010714D01*
X178728452Y-129058333D01*
X178776071Y-129105952D01*
X178823690Y-129201190D01*
X178823690Y-129486904D01*
X178776071Y-129582142D01*
X178728452Y-129629761D01*
X178633214Y-129677380D01*
X178442738Y-129677380D01*
X178347500Y-129629761D01*
X179252261Y-129677380D02*
X179252261Y-129010714D01*
X179252261Y-129201190D02*
X179299880Y-129105952D01*
X179347500Y-129058333D01*
X179442738Y-129010714D01*
X179537976Y-129010714D01*
X179871309Y-129677380D02*
X179871309Y-129010714D01*
X179871309Y-128677380D02*
X179823690Y-128725000D01*
X179871309Y-128772619D01*
X179918928Y-128725000D01*
X179871309Y-128677380D01*
X179871309Y-128772619D01*
X180776071Y-129629761D02*
X180680833Y-129677380D01*
X180490357Y-129677380D01*
X180395119Y-129629761D01*
X180347500Y-129582142D01*
X180299880Y-129486904D01*
X180299880Y-129201190D01*
X180347500Y-129105952D01*
X180395119Y-129058333D01*
X180490357Y-129010714D01*
X180680833Y-129010714D01*
X180776071Y-129058333D01*
X181633214Y-129677380D02*
X181633214Y-129153571D01*
X181585595Y-129058333D01*
X181490357Y-129010714D01*
X181299880Y-129010714D01*
X181204642Y-129058333D01*
X181633214Y-129629761D02*
X181537976Y-129677380D01*
X181299880Y-129677380D01*
X181204642Y-129629761D01*
X181157023Y-129534523D01*
X181157023Y-129439285D01*
X181204642Y-129344047D01*
X181299880Y-129296428D01*
X181537976Y-129296428D01*
X181633214Y-129248809D01*
X181966547Y-129010714D02*
X182347500Y-129010714D01*
X182109404Y-128677380D02*
X182109404Y-129534523D01*
X182157023Y-129629761D01*
X182252261Y-129677380D01*
X182347500Y-129677380D01*
X182680833Y-129677380D02*
X182680833Y-129010714D01*
X182680833Y-128677380D02*
X182633214Y-128725000D01*
X182680833Y-128772619D01*
X182728452Y-128725000D01*
X182680833Y-128677380D01*
X182680833Y-128772619D01*
X183299880Y-129677380D02*
X183204642Y-129629761D01*
X183157023Y-129582142D01*
X183109404Y-129486904D01*
X183109404Y-129201190D01*
X183157023Y-129105952D01*
X183204642Y-129058333D01*
X183299880Y-129010714D01*
X183442738Y-129010714D01*
X183537976Y-129058333D01*
X183585595Y-129105952D01*
X183633214Y-129201190D01*
X183633214Y-129486904D01*
X183585595Y-129582142D01*
X183537976Y-129629761D01*
X183442738Y-129677380D01*
X183299880Y-129677380D01*
X184061785Y-129010714D02*
X184061785Y-129677380D01*
X184061785Y-129105952D02*
X184109404Y-129058333D01*
X184204642Y-129010714D01*
X184347500Y-129010714D01*
X184442738Y-129058333D01*
X184490357Y-129153571D01*
X184490357Y-129677380D01*
X185728452Y-129677380D02*
X185728452Y-128677380D01*
X185728452Y-129058333D02*
X185823690Y-129010714D01*
X186014166Y-129010714D01*
X186109404Y-129058333D01*
X186157023Y-129105952D01*
X186204642Y-129201190D01*
X186204642Y-129486904D01*
X186157023Y-129582142D01*
X186109404Y-129629761D01*
X186014166Y-129677380D01*
X185823690Y-129677380D01*
X185728452Y-129629761D01*
X186537976Y-129010714D02*
X186776071Y-129677380D01*
X187014166Y-129010714D02*
X186776071Y-129677380D01*
X186680833Y-129915476D01*
X186633214Y-129963095D01*
X186537976Y-130010714D01*
X188442738Y-128677380D02*
X188442738Y-129391666D01*
X188395119Y-129534523D01*
X188299880Y-129629761D01*
X188157023Y-129677380D01*
X188061785Y-129677380D01*
X189395119Y-129677380D02*
X188918928Y-129677380D01*
X188918928Y-128677380D01*
X190299880Y-129582142D02*
X190252261Y-129629761D01*
X190109404Y-129677380D01*
X190014166Y-129677380D01*
X189871309Y-129629761D01*
X189776071Y-129534523D01*
X189728452Y-129439285D01*
X189680833Y-129248809D01*
X189680833Y-129105952D01*
X189728452Y-128915476D01*
X189776071Y-128820238D01*
X189871309Y-128725000D01*
X190014166Y-128677380D01*
X190109404Y-128677380D01*
X190252261Y-128725000D01*
X190299880Y-128772619D01*
X190728452Y-129677380D02*
X190728452Y-128677380D01*
X191109404Y-128677380D01*
X191204642Y-128725000D01*
X191252261Y-128772619D01*
X191299880Y-128867857D01*
X191299880Y-129010714D01*
X191252261Y-129105952D01*
X191204642Y-129153571D01*
X191109404Y-129201190D01*
X190728452Y-129201190D01*
X192299880Y-129582142D02*
X192252261Y-129629761D01*
X192109404Y-129677380D01*
X192014166Y-129677380D01*
X191871309Y-129629761D01*
X191776071Y-129534523D01*
X191728452Y-129439285D01*
X191680833Y-129248809D01*
X191680833Y-129105952D01*
X191728452Y-128915476D01*
X191776071Y-128820238D01*
X191871309Y-128725000D01*
X192014166Y-128677380D01*
X192109404Y-128677380D01*
X192252261Y-128725000D01*
X192299880Y-128772619D01*
X193061785Y-129153571D02*
X193204642Y-129201190D01*
X193252261Y-129248809D01*
X193299880Y-129344047D01*
X193299880Y-129486904D01*
X193252261Y-129582142D01*
X193204642Y-129629761D01*
X193109404Y-129677380D01*
X192728452Y-129677380D01*
X192728452Y-128677380D01*
X193061785Y-128677380D01*
X193157023Y-128725000D01*
X193204642Y-128772619D01*
X193252261Y-128867857D01*
X193252261Y-128963095D01*
X193204642Y-129058333D01*
X193157023Y-129105952D01*
X193061785Y-129153571D01*
X192728452Y-129153571D01*
X193728452Y-129582142D02*
X193776071Y-129629761D01*
X193728452Y-129677380D01*
X193680833Y-129629761D01*
X193728452Y-129582142D01*
X193728452Y-129677380D01*
X176537976Y-131239761D02*
X176680833Y-131287380D01*
X176918928Y-131287380D01*
X177014166Y-131239761D01*
X177061785Y-131192142D01*
X177109404Y-131096904D01*
X177109404Y-131001666D01*
X177061785Y-130906428D01*
X177014166Y-130858809D01*
X176918928Y-130811190D01*
X176728452Y-130763571D01*
X176633214Y-130715952D01*
X176585595Y-130668333D01*
X176537976Y-130573095D01*
X176537976Y-130477857D01*
X176585595Y-130382619D01*
X176633214Y-130335000D01*
X176728452Y-130287380D01*
X176966547Y-130287380D01*
X177109404Y-130335000D01*
X177395119Y-130620714D02*
X177776071Y-130620714D01*
X177537976Y-130287380D02*
X177537976Y-131144523D01*
X177585595Y-131239761D01*
X177680833Y-131287380D01*
X177776071Y-131287380D01*
X178537976Y-131287380D02*
X178537976Y-130763571D01*
X178490357Y-130668333D01*
X178395119Y-130620714D01*
X178204642Y-130620714D01*
X178109404Y-130668333D01*
X178537976Y-131239761D02*
X178442738Y-131287380D01*
X178204642Y-131287380D01*
X178109404Y-131239761D01*
X178061785Y-131144523D01*
X178061785Y-131049285D01*
X178109404Y-130954047D01*
X178204642Y-130906428D01*
X178442738Y-130906428D01*
X178537976Y-130858809D01*
X179442738Y-131239761D02*
X179347500Y-131287380D01*
X179157023Y-131287380D01*
X179061785Y-131239761D01*
X179014166Y-131192142D01*
X178966547Y-131096904D01*
X178966547Y-130811190D01*
X179014166Y-130715952D01*
X179061785Y-130668333D01*
X179157023Y-130620714D01*
X179347500Y-130620714D01*
X179442738Y-130668333D01*
X179871309Y-131287380D02*
X179871309Y-130287380D01*
X179966547Y-130906428D02*
X180252261Y-131287380D01*
X180252261Y-130620714D02*
X179871309Y-131001666D01*
X181109404Y-130620714D02*
X181109404Y-131287380D01*
X180680833Y-130620714D02*
X180680833Y-131144523D01*
X180728452Y-131239761D01*
X180823690Y-131287380D01*
X180966547Y-131287380D01*
X181061785Y-131239761D01*
X181109404Y-131192142D01*
X181585595Y-130620714D02*
X181585595Y-131620714D01*
X181585595Y-130668333D02*
X181680833Y-130620714D01*
X181871309Y-130620714D01*
X181966547Y-130668333D01*
X182014166Y-130715952D01*
X182061785Y-130811190D01*
X182061785Y-131096904D01*
X182014166Y-131192142D01*
X181966547Y-131239761D01*
X181871309Y-131287380D01*
X181680833Y-131287380D01*
X181585595Y-131239761D01*
X182490357Y-131192142D02*
X182537976Y-131239761D01*
X182490357Y-131287380D01*
X182442738Y-131239761D01*
X182490357Y-131192142D01*
X182490357Y-131287380D01*
X182490357Y-130668333D02*
X182537976Y-130715952D01*
X182490357Y-130763571D01*
X182442738Y-130715952D01*
X182490357Y-130668333D01*
X182490357Y-130763571D01*
X184014166Y-130287380D02*
X184014166Y-131001666D01*
X183966547Y-131144523D01*
X183871309Y-131239761D01*
X183728452Y-131287380D01*
X183633214Y-131287380D01*
X184966547Y-131287380D02*
X184490357Y-131287380D01*
X184490357Y-130287380D01*
X185871309Y-131192142D02*
X185823690Y-131239761D01*
X185680833Y-131287380D01*
X185585595Y-131287380D01*
X185442738Y-131239761D01*
X185347500Y-131144523D01*
X185299880Y-131049285D01*
X185252261Y-130858809D01*
X185252261Y-130715952D01*
X185299880Y-130525476D01*
X185347500Y-130430238D01*
X185442738Y-130335000D01*
X185585595Y-130287380D01*
X185680833Y-130287380D01*
X185823690Y-130335000D01*
X185871309Y-130382619D01*
X186490357Y-130287380D02*
X186585595Y-130287380D01*
X186680833Y-130335000D01*
X186728452Y-130382619D01*
X186776071Y-130477857D01*
X186823690Y-130668333D01*
X186823690Y-130906428D01*
X186776071Y-131096904D01*
X186728452Y-131192142D01*
X186680833Y-131239761D01*
X186585595Y-131287380D01*
X186490357Y-131287380D01*
X186395119Y-131239761D01*
X186347500Y-131192142D01*
X186299880Y-131096904D01*
X186252261Y-130906428D01*
X186252261Y-130668333D01*
X186299880Y-130477857D01*
X186347500Y-130382619D01*
X186395119Y-130335000D01*
X186490357Y-130287380D01*
X187680833Y-130620714D02*
X187680833Y-131287380D01*
X187442738Y-130239761D02*
X187204642Y-130954047D01*
X187823690Y-130954047D01*
X188728452Y-131287380D02*
X188157023Y-131287380D01*
X188442738Y-131287380D02*
X188442738Y-130287380D01*
X188347500Y-130430238D01*
X188252261Y-130525476D01*
X188157023Y-130573095D01*
X189585595Y-130287380D02*
X189395119Y-130287380D01*
X189299880Y-130335000D01*
X189252261Y-130382619D01*
X189157023Y-130525476D01*
X189109404Y-130715952D01*
X189109404Y-131096904D01*
X189157023Y-131192142D01*
X189204642Y-131239761D01*
X189299880Y-131287380D01*
X189490357Y-131287380D01*
X189585595Y-131239761D01*
X189633214Y-131192142D01*
X189680833Y-131096904D01*
X189680833Y-130858809D01*
X189633214Y-130763571D01*
X189585595Y-130715952D01*
X189490357Y-130668333D01*
X189299880Y-130668333D01*
X189204642Y-130715952D01*
X189157023Y-130763571D01*
X189109404Y-130858809D01*
X190633214Y-131287380D02*
X190061785Y-131287380D01*
X190347500Y-131287380D02*
X190347500Y-130287380D01*
X190252261Y-130430238D01*
X190157023Y-130525476D01*
X190061785Y-130573095D01*
X191061785Y-131287380D02*
X191061785Y-130287380D01*
X191061785Y-130763571D02*
X191633214Y-130763571D01*
X191633214Y-131287380D02*
X191633214Y-130287380D01*
X192109404Y-130906428D02*
X192871309Y-130906428D01*
X193252261Y-130287380D02*
X193918928Y-130287380D01*
X193490357Y-131287380D01*
X194728452Y-130287380D02*
X194537976Y-130287380D01*
X194442738Y-130335000D01*
X194395119Y-130382619D01*
X194299880Y-130525476D01*
X194252261Y-130715952D01*
X194252261Y-131096904D01*
X194299880Y-131192142D01*
X194347500Y-131239761D01*
X194442738Y-131287380D01*
X194633214Y-131287380D01*
X194728452Y-131239761D01*
X194776071Y-131192142D01*
X194823690Y-131096904D01*
X194823690Y-130858809D01*
X194776071Y-130763571D01*
X194728452Y-130715952D01*
X194633214Y-130668333D01*
X194442738Y-130668333D01*
X194347500Y-130715952D01*
X194299880Y-130763571D01*
X194252261Y-130858809D01*
X195204642Y-130382619D02*
X195252261Y-130335000D01*
X195347500Y-130287380D01*
X195585595Y-130287380D01*
X195680833Y-130335000D01*
X195728452Y-130382619D01*
X195776071Y-130477857D01*
X195776071Y-130573095D01*
X195728452Y-130715952D01*
X195157023Y-131287380D01*
X195776071Y-131287380D01*
X196347500Y-130715952D02*
X196252261Y-130668333D01*
X196204642Y-130620714D01*
X196157023Y-130525476D01*
X196157023Y-130477857D01*
X196204642Y-130382619D01*
X196252261Y-130335000D01*
X196347500Y-130287380D01*
X196537976Y-130287380D01*
X196633214Y-130335000D01*
X196680833Y-130382619D01*
X196728452Y-130477857D01*
X196728452Y-130525476D01*
X196680833Y-130620714D01*
X196633214Y-130668333D01*
X196537976Y-130715952D01*
X196347500Y-130715952D01*
X196252261Y-130763571D01*
X196204642Y-130811190D01*
X196157023Y-130906428D01*
X196157023Y-131096904D01*
X196204642Y-131192142D01*
X196252261Y-131239761D01*
X196347500Y-131287380D01*
X196537976Y-131287380D01*
X196633214Y-131239761D01*
X196680833Y-131192142D01*
X196728452Y-131096904D01*
X196728452Y-130906428D01*
X196680833Y-130811190D01*
X196633214Y-130763571D01*
X196537976Y-130715952D01*
X178585595Y-132897380D02*
X178109404Y-132897380D01*
X178109404Y-131897380D01*
X179442738Y-132897380D02*
X178871309Y-132897380D01*
X179157023Y-132897380D02*
X179157023Y-131897380D01*
X179061785Y-132040238D01*
X178966547Y-132135476D01*
X178871309Y-132183095D01*
X180633214Y-132516428D02*
X181395119Y-132516428D01*
X182585595Y-132849761D02*
X182728452Y-132897380D01*
X182966547Y-132897380D01*
X183061785Y-132849761D01*
X183109404Y-132802142D01*
X183157023Y-132706904D01*
X183157023Y-132611666D01*
X183109404Y-132516428D01*
X183061785Y-132468809D01*
X182966547Y-132421190D01*
X182776071Y-132373571D01*
X182680833Y-132325952D01*
X182633214Y-132278333D01*
X182585595Y-132183095D01*
X182585595Y-132087857D01*
X182633214Y-131992619D01*
X182680833Y-131945000D01*
X182776071Y-131897380D01*
X183014166Y-131897380D01*
X183157023Y-131945000D01*
X183585595Y-132897380D02*
X183585595Y-132230714D01*
X183585595Y-131897380D02*
X183537976Y-131945000D01*
X183585595Y-131992619D01*
X183633214Y-131945000D01*
X183585595Y-131897380D01*
X183585595Y-131992619D01*
X184490357Y-132230714D02*
X184490357Y-133040238D01*
X184442738Y-133135476D01*
X184395119Y-133183095D01*
X184299880Y-133230714D01*
X184157023Y-133230714D01*
X184061785Y-133183095D01*
X184490357Y-132849761D02*
X184395119Y-132897380D01*
X184204642Y-132897380D01*
X184109404Y-132849761D01*
X184061785Y-132802142D01*
X184014166Y-132706904D01*
X184014166Y-132421190D01*
X184061785Y-132325952D01*
X184109404Y-132278333D01*
X184204642Y-132230714D01*
X184395119Y-132230714D01*
X184490357Y-132278333D01*
X184966547Y-132230714D02*
X184966547Y-132897380D01*
X184966547Y-132325952D02*
X185014166Y-132278333D01*
X185109404Y-132230714D01*
X185252261Y-132230714D01*
X185347500Y-132278333D01*
X185395119Y-132373571D01*
X185395119Y-132897380D01*
X186299880Y-132897380D02*
X186299880Y-132373571D01*
X186252261Y-132278333D01*
X186157023Y-132230714D01*
X185966547Y-132230714D01*
X185871309Y-132278333D01*
X186299880Y-132849761D02*
X186204642Y-132897380D01*
X185966547Y-132897380D01*
X185871309Y-132849761D01*
X185823690Y-132754523D01*
X185823690Y-132659285D01*
X185871309Y-132564047D01*
X185966547Y-132516428D01*
X186204642Y-132516428D01*
X186299880Y-132468809D01*
X186918928Y-132897380D02*
X186823690Y-132849761D01*
X186776071Y-132754523D01*
X186776071Y-131897380D01*
X188776071Y-131849761D02*
X187918928Y-133135476D01*
X189871309Y-132897380D02*
X189871309Y-131897380D01*
X190252261Y-131897380D01*
X190347500Y-131945000D01*
X190395119Y-131992619D01*
X190442738Y-132087857D01*
X190442738Y-132230714D01*
X190395119Y-132325952D01*
X190347500Y-132373571D01*
X190252261Y-132421190D01*
X189871309Y-132421190D01*
X191014166Y-132897380D02*
X190918928Y-132849761D01*
X190871309Y-132802142D01*
X190823690Y-132706904D01*
X190823690Y-132421190D01*
X190871309Y-132325952D01*
X190918928Y-132278333D01*
X191014166Y-132230714D01*
X191157023Y-132230714D01*
X191252261Y-132278333D01*
X191299880Y-132325952D01*
X191347500Y-132421190D01*
X191347500Y-132706904D01*
X191299880Y-132802142D01*
X191252261Y-132849761D01*
X191157023Y-132897380D01*
X191014166Y-132897380D01*
X191680833Y-132230714D02*
X191871309Y-132897380D01*
X192061785Y-132421190D01*
X192252261Y-132897380D01*
X192442738Y-132230714D01*
X193204642Y-132849761D02*
X193109404Y-132897380D01*
X192918928Y-132897380D01*
X192823690Y-132849761D01*
X192776071Y-132754523D01*
X192776071Y-132373571D01*
X192823690Y-132278333D01*
X192918928Y-132230714D01*
X193109404Y-132230714D01*
X193204642Y-132278333D01*
X193252261Y-132373571D01*
X193252261Y-132468809D01*
X192776071Y-132564047D01*
X193680833Y-132897380D02*
X193680833Y-132230714D01*
X193680833Y-132421190D02*
X193728452Y-132325952D01*
X193776071Y-132278333D01*
X193871309Y-132230714D01*
X193966547Y-132230714D01*
X178585595Y-134507380D02*
X178109404Y-134507380D01*
X178109404Y-133507380D01*
X178871309Y-133602619D02*
X178918928Y-133555000D01*
X179014166Y-133507380D01*
X179252261Y-133507380D01*
X179347500Y-133555000D01*
X179395119Y-133602619D01*
X179442738Y-133697857D01*
X179442738Y-133793095D01*
X179395119Y-133935952D01*
X178823690Y-134507380D01*
X179442738Y-134507380D01*
X180633214Y-134126428D02*
X181395119Y-134126428D01*
X183157023Y-133555000D02*
X183061785Y-133507380D01*
X182918928Y-133507380D01*
X182776071Y-133555000D01*
X182680833Y-133650238D01*
X182633214Y-133745476D01*
X182585595Y-133935952D01*
X182585595Y-134078809D01*
X182633214Y-134269285D01*
X182680833Y-134364523D01*
X182776071Y-134459761D01*
X182918928Y-134507380D01*
X183014166Y-134507380D01*
X183157023Y-134459761D01*
X183204642Y-134412142D01*
X183204642Y-134078809D01*
X183014166Y-134078809D01*
X183633214Y-134507380D02*
X183633214Y-133507380D01*
X184204642Y-134507380D01*
X184204642Y-133507380D01*
X184680833Y-134507380D02*
X184680833Y-133507380D01*
X184918928Y-133507380D01*
X185061785Y-133555000D01*
X185157023Y-133650238D01*
X185204642Y-133745476D01*
X185252261Y-133935952D01*
X185252261Y-134078809D01*
X185204642Y-134269285D01*
X185157023Y-134364523D01*
X185061785Y-134459761D01*
X184918928Y-134507380D01*
X184680833Y-134507380D01*
X178585595Y-136117380D02*
X178109404Y-136117380D01*
X178109404Y-135117380D01*
X178823690Y-135117380D02*
X179442738Y-135117380D01*
X179109404Y-135498333D01*
X179252261Y-135498333D01*
X179347500Y-135545952D01*
X179395119Y-135593571D01*
X179442738Y-135688809D01*
X179442738Y-135926904D01*
X179395119Y-136022142D01*
X179347500Y-136069761D01*
X179252261Y-136117380D01*
X178966547Y-136117380D01*
X178871309Y-136069761D01*
X178823690Y-136022142D01*
X180633214Y-135736428D02*
X181395119Y-135736428D01*
X183157023Y-135165000D02*
X183061785Y-135117380D01*
X182918928Y-135117380D01*
X182776071Y-135165000D01*
X182680833Y-135260238D01*
X182633214Y-135355476D01*
X182585595Y-135545952D01*
X182585595Y-135688809D01*
X182633214Y-135879285D01*
X182680833Y-135974523D01*
X182776071Y-136069761D01*
X182918928Y-136117380D01*
X183014166Y-136117380D01*
X183157023Y-136069761D01*
X183204642Y-136022142D01*
X183204642Y-135688809D01*
X183014166Y-135688809D01*
X183633214Y-136117380D02*
X183633214Y-135117380D01*
X184204642Y-136117380D01*
X184204642Y-135117380D01*
X184680833Y-136117380D02*
X184680833Y-135117380D01*
X184918928Y-135117380D01*
X185061785Y-135165000D01*
X185157023Y-135260238D01*
X185204642Y-135355476D01*
X185252261Y-135545952D01*
X185252261Y-135688809D01*
X185204642Y-135879285D01*
X185157023Y-135974523D01*
X185061785Y-136069761D01*
X184918928Y-136117380D01*
X184680833Y-136117380D01*
X178585595Y-137727380D02*
X178109404Y-137727380D01*
X178109404Y-136727380D01*
X179347500Y-137060714D02*
X179347500Y-137727380D01*
X179109404Y-136679761D02*
X178871309Y-137394047D01*
X179490357Y-137394047D01*
X180633214Y-137346428D02*
X181395119Y-137346428D01*
X182585595Y-137679761D02*
X182728452Y-137727380D01*
X182966547Y-137727380D01*
X183061785Y-137679761D01*
X183109404Y-137632142D01*
X183157023Y-137536904D01*
X183157023Y-137441666D01*
X183109404Y-137346428D01*
X183061785Y-137298809D01*
X182966547Y-137251190D01*
X182776071Y-137203571D01*
X182680833Y-137155952D01*
X182633214Y-137108333D01*
X182585595Y-137013095D01*
X182585595Y-136917857D01*
X182633214Y-136822619D01*
X182680833Y-136775000D01*
X182776071Y-136727380D01*
X183014166Y-136727380D01*
X183157023Y-136775000D01*
X183585595Y-137727380D02*
X183585595Y-137060714D01*
X183585595Y-136727380D02*
X183537976Y-136775000D01*
X183585595Y-136822619D01*
X183633214Y-136775000D01*
X183585595Y-136727380D01*
X183585595Y-136822619D01*
X184490357Y-137060714D02*
X184490357Y-137870238D01*
X184442738Y-137965476D01*
X184395119Y-138013095D01*
X184299880Y-138060714D01*
X184157023Y-138060714D01*
X184061785Y-138013095D01*
X184490357Y-137679761D02*
X184395119Y-137727380D01*
X184204642Y-137727380D01*
X184109404Y-137679761D01*
X184061785Y-137632142D01*
X184014166Y-137536904D01*
X184014166Y-137251190D01*
X184061785Y-137155952D01*
X184109404Y-137108333D01*
X184204642Y-137060714D01*
X184395119Y-137060714D01*
X184490357Y-137108333D01*
X184966547Y-137060714D02*
X184966547Y-137727380D01*
X184966547Y-137155952D02*
X185014166Y-137108333D01*
X185109404Y-137060714D01*
X185252261Y-137060714D01*
X185347500Y-137108333D01*
X185395119Y-137203571D01*
X185395119Y-137727380D01*
X186299880Y-137727380D02*
X186299880Y-137203571D01*
X186252261Y-137108333D01*
X186157023Y-137060714D01*
X185966547Y-137060714D01*
X185871309Y-137108333D01*
X186299880Y-137679761D02*
X186204642Y-137727380D01*
X185966547Y-137727380D01*
X185871309Y-137679761D01*
X185823690Y-137584523D01*
X185823690Y-137489285D01*
X185871309Y-137394047D01*
X185966547Y-137346428D01*
X186204642Y-137346428D01*
X186299880Y-137298809D01*
X186918928Y-137727380D02*
X186823690Y-137679761D01*
X186776071Y-137584523D01*
X186776071Y-136727380D01*
X188776071Y-136679761D02*
X187918928Y-137965476D01*
X189871309Y-137727380D02*
X189871309Y-136727380D01*
X190252261Y-136727380D01*
X190347500Y-136775000D01*
X190395119Y-136822619D01*
X190442738Y-136917857D01*
X190442738Y-137060714D01*
X190395119Y-137155952D01*
X190347500Y-137203571D01*
X190252261Y-137251190D01*
X189871309Y-137251190D01*
X191014166Y-137727380D02*
X190918928Y-137679761D01*
X190871309Y-137632142D01*
X190823690Y-137536904D01*
X190823690Y-137251190D01*
X190871309Y-137155952D01*
X190918928Y-137108333D01*
X191014166Y-137060714D01*
X191157023Y-137060714D01*
X191252261Y-137108333D01*
X191299880Y-137155952D01*
X191347500Y-137251190D01*
X191347500Y-137536904D01*
X191299880Y-137632142D01*
X191252261Y-137679761D01*
X191157023Y-137727380D01*
X191014166Y-137727380D01*
X191680833Y-137060714D02*
X191871309Y-137727380D01*
X192061785Y-137251190D01*
X192252261Y-137727380D01*
X192442738Y-137060714D01*
X193204642Y-137679761D02*
X193109404Y-137727380D01*
X192918928Y-137727380D01*
X192823690Y-137679761D01*
X192776071Y-137584523D01*
X192776071Y-137203571D01*
X192823690Y-137108333D01*
X192918928Y-137060714D01*
X193109404Y-137060714D01*
X193204642Y-137108333D01*
X193252261Y-137203571D01*
X193252261Y-137298809D01*
X192776071Y-137394047D01*
X193680833Y-137727380D02*
X193680833Y-137060714D01*
X193680833Y-137251190D02*
X193728452Y-137155952D01*
X193776071Y-137108333D01*
X193871309Y-137060714D01*
X193966547Y-137060714D01*
D11*
%TO.C,R14*%
X199377619Y-151417142D02*
X199253809Y-151503809D01*
X199377619Y-151565714D02*
X199117619Y-151565714D01*
X199117619Y-151466666D01*
X199130000Y-151441904D01*
X199142380Y-151429523D01*
X199167142Y-151417142D01*
X199204285Y-151417142D01*
X199229047Y-151429523D01*
X199241428Y-151441904D01*
X199253809Y-151466666D01*
X199253809Y-151565714D01*
X199377619Y-151169523D02*
X199377619Y-151318095D01*
X199377619Y-151243809D02*
X199117619Y-151243809D01*
X199154761Y-151268571D01*
X199179523Y-151293333D01*
X199191904Y-151318095D01*
X199204285Y-150946666D02*
X199377619Y-150946666D01*
X199105238Y-151008571D02*
X199290952Y-151070476D01*
X199290952Y-150909523D01*
%TO.C,R26*%
X199367619Y-158917142D02*
X199243809Y-159003809D01*
X199367619Y-159065714D02*
X199107619Y-159065714D01*
X199107619Y-158966666D01*
X199120000Y-158941904D01*
X199132380Y-158929523D01*
X199157142Y-158917142D01*
X199194285Y-158917142D01*
X199219047Y-158929523D01*
X199231428Y-158941904D01*
X199243809Y-158966666D01*
X199243809Y-159065714D01*
X199132380Y-158818095D02*
X199120000Y-158805714D01*
X199107619Y-158780952D01*
X199107619Y-158719047D01*
X199120000Y-158694285D01*
X199132380Y-158681904D01*
X199157142Y-158669523D01*
X199181904Y-158669523D01*
X199219047Y-158681904D01*
X199367619Y-158830476D01*
X199367619Y-158669523D01*
X199107619Y-158446666D02*
X199107619Y-158496190D01*
X199120000Y-158520952D01*
X199132380Y-158533333D01*
X199169523Y-158558095D01*
X199219047Y-158570476D01*
X199318095Y-158570476D01*
X199342857Y-158558095D01*
X199355238Y-158545714D01*
X199367619Y-158520952D01*
X199367619Y-158471428D01*
X199355238Y-158446666D01*
X199342857Y-158434285D01*
X199318095Y-158421904D01*
X199256190Y-158421904D01*
X199231428Y-158434285D01*
X199219047Y-158446666D01*
X199206666Y-158471428D01*
X199206666Y-158520952D01*
X199219047Y-158545714D01*
X199231428Y-158558095D01*
X199256190Y-158570476D01*
D10*
%TO.C,U3*%
X199238095Y-154452380D02*
X199238095Y-155261904D01*
X199285714Y-155357142D01*
X199333333Y-155404761D01*
X199428571Y-155452380D01*
X199619047Y-155452380D01*
X199714285Y-155404761D01*
X199761904Y-155357142D01*
X199809523Y-155261904D01*
X199809523Y-154452380D01*
X200190476Y-154452380D02*
X200809523Y-154452380D01*
X200476190Y-154833333D01*
X200619047Y-154833333D01*
X200714285Y-154880952D01*
X200761904Y-154928571D01*
X200809523Y-155023809D01*
X200809523Y-155261904D01*
X200761904Y-155357142D01*
X200714285Y-155404761D01*
X200619047Y-155452380D01*
X200333333Y-155452380D01*
X200238095Y-155404761D01*
X200190476Y-155357142D01*
%TO.C,CONN1*%
X206761904Y-122107142D02*
X206714285Y-122154761D01*
X206571428Y-122202380D01*
X206476190Y-122202380D01*
X206333333Y-122154761D01*
X206238095Y-122059523D01*
X206190476Y-121964285D01*
X206142857Y-121773809D01*
X206142857Y-121630952D01*
X206190476Y-121440476D01*
X206238095Y-121345238D01*
X206333333Y-121250000D01*
X206476190Y-121202380D01*
X206571428Y-121202380D01*
X206714285Y-121250000D01*
X206761904Y-121297619D01*
X207380952Y-121202380D02*
X207571428Y-121202380D01*
X207666666Y-121250000D01*
X207761904Y-121345238D01*
X207809523Y-121535714D01*
X207809523Y-121869047D01*
X207761904Y-122059523D01*
X207666666Y-122154761D01*
X207571428Y-122202380D01*
X207380952Y-122202380D01*
X207285714Y-122154761D01*
X207190476Y-122059523D01*
X207142857Y-121869047D01*
X207142857Y-121535714D01*
X207190476Y-121345238D01*
X207285714Y-121250000D01*
X207380952Y-121202380D01*
X208238095Y-122202380D02*
X208238095Y-121202380D01*
X208809523Y-122202380D01*
X208809523Y-121202380D01*
X209285714Y-122202380D02*
X209285714Y-121202380D01*
X209857142Y-122202380D01*
X209857142Y-121202380D01*
X210857142Y-122202380D02*
X210285714Y-122202380D01*
X210571428Y-122202380D02*
X210571428Y-121202380D01*
X210476190Y-121345238D01*
X210380952Y-121440476D01*
X210285714Y-121488095D01*
%TO.C,CONN5*%
X198261904Y-173917142D02*
X198214285Y-173964761D01*
X198071428Y-174012380D01*
X197976190Y-174012380D01*
X197833333Y-173964761D01*
X197738095Y-173869523D01*
X197690476Y-173774285D01*
X197642857Y-173583809D01*
X197642857Y-173440952D01*
X197690476Y-173250476D01*
X197738095Y-173155238D01*
X197833333Y-173060000D01*
X197976190Y-173012380D01*
X198071428Y-173012380D01*
X198214285Y-173060000D01*
X198261904Y-173107619D01*
X198880952Y-173012380D02*
X199071428Y-173012380D01*
X199166666Y-173060000D01*
X199261904Y-173155238D01*
X199309523Y-173345714D01*
X199309523Y-173679047D01*
X199261904Y-173869523D01*
X199166666Y-173964761D01*
X199071428Y-174012380D01*
X198880952Y-174012380D01*
X198785714Y-173964761D01*
X198690476Y-173869523D01*
X198642857Y-173679047D01*
X198642857Y-173345714D01*
X198690476Y-173155238D01*
X198785714Y-173060000D01*
X198880952Y-173012380D01*
X199738095Y-174012380D02*
X199738095Y-173012380D01*
X200309523Y-174012380D01*
X200309523Y-173012380D01*
X200785714Y-174012380D02*
X200785714Y-173012380D01*
X201357142Y-174012380D01*
X201357142Y-173012380D01*
X202309523Y-173012380D02*
X201833333Y-173012380D01*
X201785714Y-173488571D01*
X201833333Y-173440952D01*
X201928571Y-173393333D01*
X202166666Y-173393333D01*
X202261904Y-173440952D01*
X202309523Y-173488571D01*
X202357142Y-173583809D01*
X202357142Y-173821904D01*
X202309523Y-173917142D01*
X202261904Y-173964761D01*
X202166666Y-174012380D01*
X201928571Y-174012380D01*
X201833333Y-173964761D01*
X201785714Y-173917142D01*
D11*
%TO.C,R1*%
X209617619Y-125543333D02*
X209493809Y-125630000D01*
X209617619Y-125691904D02*
X209357619Y-125691904D01*
X209357619Y-125592857D01*
X209370000Y-125568095D01*
X209382380Y-125555714D01*
X209407142Y-125543333D01*
X209444285Y-125543333D01*
X209469047Y-125555714D01*
X209481428Y-125568095D01*
X209493809Y-125592857D01*
X209493809Y-125691904D01*
X209617619Y-125295714D02*
X209617619Y-125444285D01*
X209617619Y-125370000D02*
X209357619Y-125370000D01*
X209394761Y-125394761D01*
X209419523Y-125419523D01*
X209431904Y-125444285D01*
%TO.C,R28*%
X197367619Y-158917142D02*
X197243809Y-159003809D01*
X197367619Y-159065714D02*
X197107619Y-159065714D01*
X197107619Y-158966666D01*
X197120000Y-158941904D01*
X197132380Y-158929523D01*
X197157142Y-158917142D01*
X197194285Y-158917142D01*
X197219047Y-158929523D01*
X197231428Y-158941904D01*
X197243809Y-158966666D01*
X197243809Y-159065714D01*
X197132380Y-158818095D02*
X197120000Y-158805714D01*
X197107619Y-158780952D01*
X197107619Y-158719047D01*
X197120000Y-158694285D01*
X197132380Y-158681904D01*
X197157142Y-158669523D01*
X197181904Y-158669523D01*
X197219047Y-158681904D01*
X197367619Y-158830476D01*
X197367619Y-158669523D01*
X197219047Y-158520952D02*
X197206666Y-158545714D01*
X197194285Y-158558095D01*
X197169523Y-158570476D01*
X197157142Y-158570476D01*
X197132380Y-158558095D01*
X197120000Y-158545714D01*
X197107619Y-158520952D01*
X197107619Y-158471428D01*
X197120000Y-158446666D01*
X197132380Y-158434285D01*
X197157142Y-158421904D01*
X197169523Y-158421904D01*
X197194285Y-158434285D01*
X197206666Y-158446666D01*
X197219047Y-158471428D01*
X197219047Y-158520952D01*
X197231428Y-158545714D01*
X197243809Y-158558095D01*
X197268571Y-158570476D01*
X197318095Y-158570476D01*
X197342857Y-158558095D01*
X197355238Y-158545714D01*
X197367619Y-158520952D01*
X197367619Y-158471428D01*
X197355238Y-158446666D01*
X197342857Y-158434285D01*
X197318095Y-158421904D01*
X197268571Y-158421904D01*
X197243809Y-158434285D01*
X197231428Y-158446666D01*
X197219047Y-158471428D01*
%TO.C,R21*%
X204102857Y-155617619D02*
X204016190Y-155493809D01*
X203954285Y-155617619D02*
X203954285Y-155357619D01*
X204053333Y-155357619D01*
X204078095Y-155370000D01*
X204090476Y-155382380D01*
X204102857Y-155407142D01*
X204102857Y-155444285D01*
X204090476Y-155469047D01*
X204078095Y-155481428D01*
X204053333Y-155493809D01*
X203954285Y-155493809D01*
X204201904Y-155382380D02*
X204214285Y-155370000D01*
X204239047Y-155357619D01*
X204300952Y-155357619D01*
X204325714Y-155370000D01*
X204338095Y-155382380D01*
X204350476Y-155407142D01*
X204350476Y-155431904D01*
X204338095Y-155469047D01*
X204189523Y-155617619D01*
X204350476Y-155617619D01*
X204598095Y-155617619D02*
X204449523Y-155617619D01*
X204523809Y-155617619D02*
X204523809Y-155357619D01*
X204499047Y-155394761D01*
X204474285Y-155419523D01*
X204449523Y-155431904D01*
D10*
%TO.C,CONN7*%
X220107142Y-157238095D02*
X220154761Y-157285714D01*
X220202380Y-157428571D01*
X220202380Y-157523809D01*
X220154761Y-157666666D01*
X220059523Y-157761904D01*
X219964285Y-157809523D01*
X219773809Y-157857142D01*
X219630952Y-157857142D01*
X219440476Y-157809523D01*
X219345238Y-157761904D01*
X219250000Y-157666666D01*
X219202380Y-157523809D01*
X219202380Y-157428571D01*
X219250000Y-157285714D01*
X219297619Y-157238095D01*
X219202380Y-156619047D02*
X219202380Y-156428571D01*
X219250000Y-156333333D01*
X219345238Y-156238095D01*
X219535714Y-156190476D01*
X219869047Y-156190476D01*
X220059523Y-156238095D01*
X220154761Y-156333333D01*
X220202380Y-156428571D01*
X220202380Y-156619047D01*
X220154761Y-156714285D01*
X220059523Y-156809523D01*
X219869047Y-156857142D01*
X219535714Y-156857142D01*
X219345238Y-156809523D01*
X219250000Y-156714285D01*
X219202380Y-156619047D01*
X220202380Y-155761904D02*
X219202380Y-155761904D01*
X220202380Y-155190476D01*
X219202380Y-155190476D01*
X220202380Y-154714285D02*
X219202380Y-154714285D01*
X220202380Y-154142857D01*
X219202380Y-154142857D01*
X219202380Y-153761904D02*
X219202380Y-153095238D01*
X220202380Y-153523809D01*
D12*
%TO.C,C9*%
X210035714Y-140133333D02*
X210073809Y-140171428D01*
X210111904Y-140285714D01*
X210111904Y-140361904D01*
X210073809Y-140476190D01*
X209997619Y-140552380D01*
X209921428Y-140590476D01*
X209769047Y-140628571D01*
X209654761Y-140628571D01*
X209502380Y-140590476D01*
X209426190Y-140552380D01*
X209350000Y-140476190D01*
X209311904Y-140361904D01*
X209311904Y-140285714D01*
X209350000Y-140171428D01*
X209388095Y-140133333D01*
X210111904Y-139752380D02*
X210111904Y-139600000D01*
X210073809Y-139523809D01*
X210035714Y-139485714D01*
X209921428Y-139409523D01*
X209769047Y-139371428D01*
X209464285Y-139371428D01*
X209388095Y-139409523D01*
X209350000Y-139447619D01*
X209311904Y-139523809D01*
X209311904Y-139676190D01*
X209350000Y-139752380D01*
X209388095Y-139790476D01*
X209464285Y-139828571D01*
X209654761Y-139828571D01*
X209730952Y-139790476D01*
X209769047Y-139752380D01*
X209807142Y-139676190D01*
X209807142Y-139523809D01*
X209769047Y-139447619D01*
X209730952Y-139409523D01*
X209654761Y-139371428D01*
D11*
%TO.C,R11*%
X201367619Y-150417142D02*
X201243809Y-150503809D01*
X201367619Y-150565714D02*
X201107619Y-150565714D01*
X201107619Y-150466666D01*
X201120000Y-150441904D01*
X201132380Y-150429523D01*
X201157142Y-150417142D01*
X201194285Y-150417142D01*
X201219047Y-150429523D01*
X201231428Y-150441904D01*
X201243809Y-150466666D01*
X201243809Y-150565714D01*
X201367619Y-150169523D02*
X201367619Y-150318095D01*
X201367619Y-150243809D02*
X201107619Y-150243809D01*
X201144761Y-150268571D01*
X201169523Y-150293333D01*
X201181904Y-150318095D01*
X201367619Y-149921904D02*
X201367619Y-150070476D01*
X201367619Y-149996190D02*
X201107619Y-149996190D01*
X201144761Y-150020952D01*
X201169523Y-150045714D01*
X201181904Y-150070476D01*
D13*
%TO.C,D5*%
X184380952Y-164976190D02*
X184380952Y-164476190D01*
X184500000Y-164476190D01*
X184571428Y-164500000D01*
X184619047Y-164547619D01*
X184642857Y-164595238D01*
X184666666Y-164690476D01*
X184666666Y-164761904D01*
X184642857Y-164857142D01*
X184619047Y-164904761D01*
X184571428Y-164952380D01*
X184500000Y-164976190D01*
X184380952Y-164976190D01*
X185119047Y-164476190D02*
X184880952Y-164476190D01*
X184857142Y-164714285D01*
X184880952Y-164690476D01*
X184928571Y-164666666D01*
X185047619Y-164666666D01*
X185095238Y-164690476D01*
X185119047Y-164714285D01*
X185142857Y-164761904D01*
X185142857Y-164880952D01*
X185119047Y-164928571D01*
X185095238Y-164952380D01*
X185047619Y-164976190D01*
X184928571Y-164976190D01*
X184880952Y-164952380D01*
X184857142Y-164928571D01*
%TO.C,Q1*%
X211773809Y-164817619D02*
X211750000Y-164865238D01*
X211702380Y-164912857D01*
X211630952Y-164984285D01*
X211607142Y-165031904D01*
X211607142Y-165079523D01*
X211726190Y-165055714D02*
X211702380Y-165103333D01*
X211654761Y-165150952D01*
X211559523Y-165174761D01*
X211392857Y-165174761D01*
X211297619Y-165150952D01*
X211250000Y-165103333D01*
X211226190Y-165055714D01*
X211226190Y-164960476D01*
X211250000Y-164912857D01*
X211297619Y-164865238D01*
X211392857Y-164841428D01*
X211559523Y-164841428D01*
X211654761Y-164865238D01*
X211702380Y-164912857D01*
X211726190Y-164960476D01*
X211726190Y-165055714D01*
X211726190Y-164365238D02*
X211726190Y-164650952D01*
X211726190Y-164508095D02*
X211226190Y-164508095D01*
X211297619Y-164555714D01*
X211345238Y-164603333D01*
X211369047Y-164650952D01*
D11*
%TO.C,R8*%
X220867619Y-146793333D02*
X220743809Y-146880000D01*
X220867619Y-146941904D02*
X220607619Y-146941904D01*
X220607619Y-146842857D01*
X220620000Y-146818095D01*
X220632380Y-146805714D01*
X220657142Y-146793333D01*
X220694285Y-146793333D01*
X220719047Y-146805714D01*
X220731428Y-146818095D01*
X220743809Y-146842857D01*
X220743809Y-146941904D01*
X220719047Y-146644761D02*
X220706666Y-146669523D01*
X220694285Y-146681904D01*
X220669523Y-146694285D01*
X220657142Y-146694285D01*
X220632380Y-146681904D01*
X220620000Y-146669523D01*
X220607619Y-146644761D01*
X220607619Y-146595238D01*
X220620000Y-146570476D01*
X220632380Y-146558095D01*
X220657142Y-146545714D01*
X220669523Y-146545714D01*
X220694285Y-146558095D01*
X220706666Y-146570476D01*
X220719047Y-146595238D01*
X220719047Y-146644761D01*
X220731428Y-146669523D01*
X220743809Y-146681904D01*
X220768571Y-146694285D01*
X220818095Y-146694285D01*
X220842857Y-146681904D01*
X220855238Y-146669523D01*
X220867619Y-146644761D01*
X220867619Y-146595238D01*
X220855238Y-146570476D01*
X220842857Y-146558095D01*
X220818095Y-146545714D01*
X220768571Y-146545714D01*
X220743809Y-146558095D01*
X220731428Y-146570476D01*
X220719047Y-146595238D01*
D14*
%TO.C,C17*%
X207492857Y-165642857D02*
X207473809Y-165661904D01*
X207416666Y-165680952D01*
X207378571Y-165680952D01*
X207321428Y-165661904D01*
X207283333Y-165623809D01*
X207264285Y-165585714D01*
X207245238Y-165509523D01*
X207245238Y-165452380D01*
X207264285Y-165376190D01*
X207283333Y-165338095D01*
X207321428Y-165300000D01*
X207378571Y-165280952D01*
X207416666Y-165280952D01*
X207473809Y-165300000D01*
X207492857Y-165319047D01*
X207873809Y-165680952D02*
X207645238Y-165680952D01*
X207759523Y-165680952D02*
X207759523Y-165280952D01*
X207721428Y-165338095D01*
X207683333Y-165376190D01*
X207645238Y-165395238D01*
X208007142Y-165280952D02*
X208273809Y-165280952D01*
X208102380Y-165680952D01*
D15*
%TO.C,FB1*%
X209714285Y-145916666D02*
X209714285Y-146083333D01*
X209976190Y-146083333D02*
X209476190Y-146083333D01*
X209476190Y-145845238D01*
X209714285Y-145488095D02*
X209738095Y-145416666D01*
X209761904Y-145392857D01*
X209809523Y-145369047D01*
X209880952Y-145369047D01*
X209928571Y-145392857D01*
X209952380Y-145416666D01*
X209976190Y-145464285D01*
X209976190Y-145654761D01*
X209476190Y-145654761D01*
X209476190Y-145488095D01*
X209500000Y-145440476D01*
X209523809Y-145416666D01*
X209571428Y-145392857D01*
X209619047Y-145392857D01*
X209666666Y-145416666D01*
X209690476Y-145440476D01*
X209714285Y-145488095D01*
X209714285Y-145654761D01*
X209976190Y-144892857D02*
X209976190Y-145178571D01*
X209976190Y-145035714D02*
X209476190Y-145035714D01*
X209547619Y-145083333D01*
X209595238Y-145130952D01*
X209619047Y-145178571D01*
D10*
%TO.C,D3*%
X208952380Y-155738095D02*
X207952380Y-155738095D01*
X207952380Y-155500000D01*
X208000000Y-155357142D01*
X208095238Y-155261904D01*
X208190476Y-155214285D01*
X208380952Y-155166666D01*
X208523809Y-155166666D01*
X208714285Y-155214285D01*
X208809523Y-155261904D01*
X208904761Y-155357142D01*
X208952380Y-155500000D01*
X208952380Y-155738095D01*
X207952380Y-154833333D02*
X207952380Y-154214285D01*
X208333333Y-154547619D01*
X208333333Y-154404761D01*
X208380952Y-154309523D01*
X208428571Y-154261904D01*
X208523809Y-154214285D01*
X208761904Y-154214285D01*
X208857142Y-154261904D01*
X208904761Y-154309523D01*
X208952380Y-154404761D01*
X208952380Y-154690476D01*
X208904761Y-154785714D01*
X208857142Y-154833333D01*
D14*
%TO.C,C15*%
X191992857Y-165642857D02*
X191973809Y-165661904D01*
X191916666Y-165680952D01*
X191878571Y-165680952D01*
X191821428Y-165661904D01*
X191783333Y-165623809D01*
X191764285Y-165585714D01*
X191745238Y-165509523D01*
X191745238Y-165452380D01*
X191764285Y-165376190D01*
X191783333Y-165338095D01*
X191821428Y-165300000D01*
X191878571Y-165280952D01*
X191916666Y-165280952D01*
X191973809Y-165300000D01*
X191992857Y-165319047D01*
X192373809Y-165680952D02*
X192145238Y-165680952D01*
X192259523Y-165680952D02*
X192259523Y-165280952D01*
X192221428Y-165338095D01*
X192183333Y-165376190D01*
X192145238Y-165395238D01*
X192735714Y-165280952D02*
X192545238Y-165280952D01*
X192526190Y-165471428D01*
X192545238Y-165452380D01*
X192583333Y-165433333D01*
X192678571Y-165433333D01*
X192716666Y-165452380D01*
X192735714Y-165471428D01*
X192754761Y-165509523D01*
X192754761Y-165604761D01*
X192735714Y-165642857D01*
X192716666Y-165661904D01*
X192678571Y-165680952D01*
X192583333Y-165680952D01*
X192545238Y-165661904D01*
X192526190Y-165642857D01*
D11*
%TO.C,R9*%
X196117619Y-108293333D02*
X195993809Y-108380000D01*
X196117619Y-108441904D02*
X195857619Y-108441904D01*
X195857619Y-108342857D01*
X195870000Y-108318095D01*
X195882380Y-108305714D01*
X195907142Y-108293333D01*
X195944285Y-108293333D01*
X195969047Y-108305714D01*
X195981428Y-108318095D01*
X195993809Y-108342857D01*
X195993809Y-108441904D01*
X196117619Y-108169523D02*
X196117619Y-108120000D01*
X196105238Y-108095238D01*
X196092857Y-108082857D01*
X196055714Y-108058095D01*
X196006190Y-108045714D01*
X195907142Y-108045714D01*
X195882380Y-108058095D01*
X195870000Y-108070476D01*
X195857619Y-108095238D01*
X195857619Y-108144761D01*
X195870000Y-108169523D01*
X195882380Y-108181904D01*
X195907142Y-108194285D01*
X195969047Y-108194285D01*
X195993809Y-108181904D01*
X196006190Y-108169523D01*
X196018571Y-108144761D01*
X196018571Y-108095238D01*
X196006190Y-108070476D01*
X195993809Y-108058095D01*
X195969047Y-108045714D01*
D14*
%TO.C,C16*%
X203492857Y-165642857D02*
X203473809Y-165661904D01*
X203416666Y-165680952D01*
X203378571Y-165680952D01*
X203321428Y-165661904D01*
X203283333Y-165623809D01*
X203264285Y-165585714D01*
X203245238Y-165509523D01*
X203245238Y-165452380D01*
X203264285Y-165376190D01*
X203283333Y-165338095D01*
X203321428Y-165300000D01*
X203378571Y-165280952D01*
X203416666Y-165280952D01*
X203473809Y-165300000D01*
X203492857Y-165319047D01*
X203873809Y-165680952D02*
X203645238Y-165680952D01*
X203759523Y-165680952D02*
X203759523Y-165280952D01*
X203721428Y-165338095D01*
X203683333Y-165376190D01*
X203645238Y-165395238D01*
X204216666Y-165280952D02*
X204140476Y-165280952D01*
X204102380Y-165300000D01*
X204083333Y-165319047D01*
X204045238Y-165376190D01*
X204026190Y-165452380D01*
X204026190Y-165604761D01*
X204045238Y-165642857D01*
X204064285Y-165661904D01*
X204102380Y-165680952D01*
X204178571Y-165680952D01*
X204216666Y-165661904D01*
X204235714Y-165642857D01*
X204254761Y-165604761D01*
X204254761Y-165509523D01*
X204235714Y-165471428D01*
X204216666Y-165452380D01*
X204178571Y-165433333D01*
X204102380Y-165433333D01*
X204064285Y-165452380D01*
X204045238Y-165471428D01*
X204026190Y-165509523D01*
D11*
%TO.C,R20*%
X204092857Y-154617619D02*
X204006190Y-154493809D01*
X203944285Y-154617619D02*
X203944285Y-154357619D01*
X204043333Y-154357619D01*
X204068095Y-154370000D01*
X204080476Y-154382380D01*
X204092857Y-154407142D01*
X204092857Y-154444285D01*
X204080476Y-154469047D01*
X204068095Y-154481428D01*
X204043333Y-154493809D01*
X203944285Y-154493809D01*
X204191904Y-154382380D02*
X204204285Y-154370000D01*
X204229047Y-154357619D01*
X204290952Y-154357619D01*
X204315714Y-154370000D01*
X204328095Y-154382380D01*
X204340476Y-154407142D01*
X204340476Y-154431904D01*
X204328095Y-154469047D01*
X204179523Y-154617619D01*
X204340476Y-154617619D01*
X204501428Y-154357619D02*
X204526190Y-154357619D01*
X204550952Y-154370000D01*
X204563333Y-154382380D01*
X204575714Y-154407142D01*
X204588095Y-154456666D01*
X204588095Y-154518571D01*
X204575714Y-154568095D01*
X204563333Y-154592857D01*
X204550952Y-154605238D01*
X204526190Y-154617619D01*
X204501428Y-154617619D01*
X204476666Y-154605238D01*
X204464285Y-154592857D01*
X204451904Y-154568095D01*
X204439523Y-154518571D01*
X204439523Y-154456666D01*
X204451904Y-154407142D01*
X204464285Y-154382380D01*
X204476666Y-154370000D01*
X204501428Y-154357619D01*
D13*
%TO.C,D2*%
X197630952Y-108476190D02*
X197630952Y-107976190D01*
X197750000Y-107976190D01*
X197821428Y-108000000D01*
X197869047Y-108047619D01*
X197892857Y-108095238D01*
X197916666Y-108190476D01*
X197916666Y-108261904D01*
X197892857Y-108357142D01*
X197869047Y-108404761D01*
X197821428Y-108452380D01*
X197750000Y-108476190D01*
X197630952Y-108476190D01*
X198107142Y-108023809D02*
X198130952Y-108000000D01*
X198178571Y-107976190D01*
X198297619Y-107976190D01*
X198345238Y-108000000D01*
X198369047Y-108023809D01*
X198392857Y-108071428D01*
X198392857Y-108119047D01*
X198369047Y-108190476D01*
X198083333Y-108476190D01*
X198392857Y-108476190D01*
D11*
%TO.C,R22*%
X215082857Y-162117619D02*
X214996190Y-161993809D01*
X214934285Y-162117619D02*
X214934285Y-161857619D01*
X215033333Y-161857619D01*
X215058095Y-161870000D01*
X215070476Y-161882380D01*
X215082857Y-161907142D01*
X215082857Y-161944285D01*
X215070476Y-161969047D01*
X215058095Y-161981428D01*
X215033333Y-161993809D01*
X214934285Y-161993809D01*
X215181904Y-161882380D02*
X215194285Y-161870000D01*
X215219047Y-161857619D01*
X215280952Y-161857619D01*
X215305714Y-161870000D01*
X215318095Y-161882380D01*
X215330476Y-161907142D01*
X215330476Y-161931904D01*
X215318095Y-161969047D01*
X215169523Y-162117619D01*
X215330476Y-162117619D01*
X215429523Y-161882380D02*
X215441904Y-161870000D01*
X215466666Y-161857619D01*
X215528571Y-161857619D01*
X215553333Y-161870000D01*
X215565714Y-161882380D01*
X215578095Y-161907142D01*
X215578095Y-161931904D01*
X215565714Y-161969047D01*
X215417142Y-162117619D01*
X215578095Y-162117619D01*
%TO.C,R4*%
X216617619Y-148043333D02*
X216493809Y-148130000D01*
X216617619Y-148191904D02*
X216357619Y-148191904D01*
X216357619Y-148092857D01*
X216370000Y-148068095D01*
X216382380Y-148055714D01*
X216407142Y-148043333D01*
X216444285Y-148043333D01*
X216469047Y-148055714D01*
X216481428Y-148068095D01*
X216493809Y-148092857D01*
X216493809Y-148191904D01*
X216444285Y-147820476D02*
X216617619Y-147820476D01*
X216345238Y-147882380D02*
X216530952Y-147944285D01*
X216530952Y-147783333D01*
%TO.C,R24*%
X196082857Y-157117619D02*
X195996190Y-156993809D01*
X195934285Y-157117619D02*
X195934285Y-156857619D01*
X196033333Y-156857619D01*
X196058095Y-156870000D01*
X196070476Y-156882380D01*
X196082857Y-156907142D01*
X196082857Y-156944285D01*
X196070476Y-156969047D01*
X196058095Y-156981428D01*
X196033333Y-156993809D01*
X195934285Y-156993809D01*
X196181904Y-156882380D02*
X196194285Y-156870000D01*
X196219047Y-156857619D01*
X196280952Y-156857619D01*
X196305714Y-156870000D01*
X196318095Y-156882380D01*
X196330476Y-156907142D01*
X196330476Y-156931904D01*
X196318095Y-156969047D01*
X196169523Y-157117619D01*
X196330476Y-157117619D01*
X196553333Y-156944285D02*
X196553333Y-157117619D01*
X196491428Y-156845238D02*
X196429523Y-157030952D01*
X196590476Y-157030952D01*
D10*
%TO.C,CONN2*%
X217761904Y-122107142D02*
X217714285Y-122154761D01*
X217571428Y-122202380D01*
X217476190Y-122202380D01*
X217333333Y-122154761D01*
X217238095Y-122059523D01*
X217190476Y-121964285D01*
X217142857Y-121773809D01*
X217142857Y-121630952D01*
X217190476Y-121440476D01*
X217238095Y-121345238D01*
X217333333Y-121250000D01*
X217476190Y-121202380D01*
X217571428Y-121202380D01*
X217714285Y-121250000D01*
X217761904Y-121297619D01*
X218380952Y-121202380D02*
X218571428Y-121202380D01*
X218666666Y-121250000D01*
X218761904Y-121345238D01*
X218809523Y-121535714D01*
X218809523Y-121869047D01*
X218761904Y-122059523D01*
X218666666Y-122154761D01*
X218571428Y-122202380D01*
X218380952Y-122202380D01*
X218285714Y-122154761D01*
X218190476Y-122059523D01*
X218142857Y-121869047D01*
X218142857Y-121535714D01*
X218190476Y-121345238D01*
X218285714Y-121250000D01*
X218380952Y-121202380D01*
X219238095Y-122202380D02*
X219238095Y-121202380D01*
X219809523Y-122202380D01*
X219809523Y-121202380D01*
X220285714Y-122202380D02*
X220285714Y-121202380D01*
X220857142Y-122202380D01*
X220857142Y-121202380D01*
X221285714Y-121297619D02*
X221333333Y-121250000D01*
X221428571Y-121202380D01*
X221666666Y-121202380D01*
X221761904Y-121250000D01*
X221809523Y-121297619D01*
X221857142Y-121392857D01*
X221857142Y-121488095D01*
X221809523Y-121630952D01*
X221238095Y-122202380D01*
X221857142Y-122202380D01*
%TO.C,L1*%
X216833333Y-140452380D02*
X216357142Y-140452380D01*
X216357142Y-139452380D01*
X217690476Y-140452380D02*
X217119047Y-140452380D01*
X217404761Y-140452380D02*
X217404761Y-139452380D01*
X217309523Y-139595238D01*
X217214285Y-139690476D01*
X217119047Y-139738095D01*
D11*
%TO.C,R15*%
X198377619Y-151417142D02*
X198253809Y-151503809D01*
X198377619Y-151565714D02*
X198117619Y-151565714D01*
X198117619Y-151466666D01*
X198130000Y-151441904D01*
X198142380Y-151429523D01*
X198167142Y-151417142D01*
X198204285Y-151417142D01*
X198229047Y-151429523D01*
X198241428Y-151441904D01*
X198253809Y-151466666D01*
X198253809Y-151565714D01*
X198377619Y-151169523D02*
X198377619Y-151318095D01*
X198377619Y-151243809D02*
X198117619Y-151243809D01*
X198154761Y-151268571D01*
X198179523Y-151293333D01*
X198191904Y-151318095D01*
X198117619Y-150934285D02*
X198117619Y-151058095D01*
X198241428Y-151070476D01*
X198229047Y-151058095D01*
X198216666Y-151033333D01*
X198216666Y-150971428D01*
X198229047Y-150946666D01*
X198241428Y-150934285D01*
X198266190Y-150921904D01*
X198328095Y-150921904D01*
X198352857Y-150934285D01*
X198365238Y-150946666D01*
X198377619Y-150971428D01*
X198377619Y-151033333D01*
X198365238Y-151058095D01*
X198352857Y-151070476D01*
D14*
%TO.C,C5*%
X185933333Y-119142857D02*
X185914285Y-119161904D01*
X185857142Y-119180952D01*
X185819047Y-119180952D01*
X185761904Y-119161904D01*
X185723809Y-119123809D01*
X185704761Y-119085714D01*
X185685714Y-119009523D01*
X185685714Y-118952380D01*
X185704761Y-118876190D01*
X185723809Y-118838095D01*
X185761904Y-118800000D01*
X185819047Y-118780952D01*
X185857142Y-118780952D01*
X185914285Y-118800000D01*
X185933333Y-118819047D01*
X186295238Y-118780952D02*
X186104761Y-118780952D01*
X186085714Y-118971428D01*
X186104761Y-118952380D01*
X186142857Y-118933333D01*
X186238095Y-118933333D01*
X186276190Y-118952380D01*
X186295238Y-118971428D01*
X186314285Y-119009523D01*
X186314285Y-119104761D01*
X186295238Y-119142857D01*
X186276190Y-119161904D01*
X186238095Y-119180952D01*
X186142857Y-119180952D01*
X186104761Y-119161904D01*
X186085714Y-119142857D01*
D10*
%TO.C,CONN4*%
X198261904Y-99797142D02*
X198214285Y-99844761D01*
X198071428Y-99892380D01*
X197976190Y-99892380D01*
X197833333Y-99844761D01*
X197738095Y-99749523D01*
X197690476Y-99654285D01*
X197642857Y-99463809D01*
X197642857Y-99320952D01*
X197690476Y-99130476D01*
X197738095Y-99035238D01*
X197833333Y-98940000D01*
X197976190Y-98892380D01*
X198071428Y-98892380D01*
X198214285Y-98940000D01*
X198261904Y-98987619D01*
X198880952Y-98892380D02*
X199071428Y-98892380D01*
X199166666Y-98940000D01*
X199261904Y-99035238D01*
X199309523Y-99225714D01*
X199309523Y-99559047D01*
X199261904Y-99749523D01*
X199166666Y-99844761D01*
X199071428Y-99892380D01*
X198880952Y-99892380D01*
X198785714Y-99844761D01*
X198690476Y-99749523D01*
X198642857Y-99559047D01*
X198642857Y-99225714D01*
X198690476Y-99035238D01*
X198785714Y-98940000D01*
X198880952Y-98892380D01*
X199738095Y-99892380D02*
X199738095Y-98892380D01*
X200309523Y-99892380D01*
X200309523Y-98892380D01*
X200785714Y-99892380D02*
X200785714Y-98892380D01*
X201357142Y-99892380D01*
X201357142Y-98892380D01*
X202261904Y-99225714D02*
X202261904Y-99892380D01*
X202023809Y-98844761D02*
X201785714Y-99559047D01*
X202404761Y-99559047D01*
D11*
%TO.C,R17*%
X196082857Y-153117619D02*
X195996190Y-152993809D01*
X195934285Y-153117619D02*
X195934285Y-152857619D01*
X196033333Y-152857619D01*
X196058095Y-152870000D01*
X196070476Y-152882380D01*
X196082857Y-152907142D01*
X196082857Y-152944285D01*
X196070476Y-152969047D01*
X196058095Y-152981428D01*
X196033333Y-152993809D01*
X195934285Y-152993809D01*
X196330476Y-153117619D02*
X196181904Y-153117619D01*
X196256190Y-153117619D02*
X196256190Y-152857619D01*
X196231428Y-152894761D01*
X196206666Y-152919523D01*
X196181904Y-152931904D01*
X196417142Y-152857619D02*
X196590476Y-152857619D01*
X196479047Y-153117619D01*
%TO.C,R32*%
X184582857Y-162117619D02*
X184496190Y-161993809D01*
X184434285Y-162117619D02*
X184434285Y-161857619D01*
X184533333Y-161857619D01*
X184558095Y-161870000D01*
X184570476Y-161882380D01*
X184582857Y-161907142D01*
X184582857Y-161944285D01*
X184570476Y-161969047D01*
X184558095Y-161981428D01*
X184533333Y-161993809D01*
X184434285Y-161993809D01*
X184669523Y-161857619D02*
X184830476Y-161857619D01*
X184743809Y-161956666D01*
X184780952Y-161956666D01*
X184805714Y-161969047D01*
X184818095Y-161981428D01*
X184830476Y-162006190D01*
X184830476Y-162068095D01*
X184818095Y-162092857D01*
X184805714Y-162105238D01*
X184780952Y-162117619D01*
X184706666Y-162117619D01*
X184681904Y-162105238D01*
X184669523Y-162092857D01*
X184929523Y-161882380D02*
X184941904Y-161870000D01*
X184966666Y-161857619D01*
X185028571Y-161857619D01*
X185053333Y-161870000D01*
X185065714Y-161882380D01*
X185078095Y-161907142D01*
X185078095Y-161931904D01*
X185065714Y-161969047D01*
X184917142Y-162117619D01*
X185078095Y-162117619D01*
D14*
%TO.C,C20*%
X222642857Y-155757142D02*
X222661904Y-155776190D01*
X222680952Y-155833333D01*
X222680952Y-155871428D01*
X222661904Y-155928571D01*
X222623809Y-155966666D01*
X222585714Y-155985714D01*
X222509523Y-156004761D01*
X222452380Y-156004761D01*
X222376190Y-155985714D01*
X222338095Y-155966666D01*
X222300000Y-155928571D01*
X222280952Y-155871428D01*
X222280952Y-155833333D01*
X222300000Y-155776190D01*
X222319047Y-155757142D01*
X222319047Y-155604761D02*
X222300000Y-155585714D01*
X222280952Y-155547619D01*
X222280952Y-155452380D01*
X222300000Y-155414285D01*
X222319047Y-155395238D01*
X222357142Y-155376190D01*
X222395238Y-155376190D01*
X222452380Y-155395238D01*
X222680952Y-155623809D01*
X222680952Y-155376190D01*
X222280952Y-155128571D02*
X222280952Y-155090476D01*
X222300000Y-155052380D01*
X222319047Y-155033333D01*
X222357142Y-155014285D01*
X222433333Y-154995238D01*
X222528571Y-154995238D01*
X222604761Y-155014285D01*
X222642857Y-155033333D01*
X222661904Y-155052380D01*
X222680952Y-155090476D01*
X222680952Y-155128571D01*
X222661904Y-155166666D01*
X222642857Y-155185714D01*
X222604761Y-155204761D01*
X222528571Y-155223809D01*
X222433333Y-155223809D01*
X222357142Y-155204761D01*
X222319047Y-155185714D01*
X222300000Y-155166666D01*
X222280952Y-155128571D01*
D11*
%TO.C,R13*%
X207117619Y-150417142D02*
X206993809Y-150503809D01*
X207117619Y-150565714D02*
X206857619Y-150565714D01*
X206857619Y-150466666D01*
X206870000Y-150441904D01*
X206882380Y-150429523D01*
X206907142Y-150417142D01*
X206944285Y-150417142D01*
X206969047Y-150429523D01*
X206981428Y-150441904D01*
X206993809Y-150466666D01*
X206993809Y-150565714D01*
X207117619Y-150169523D02*
X207117619Y-150318095D01*
X207117619Y-150243809D02*
X206857619Y-150243809D01*
X206894761Y-150268571D01*
X206919523Y-150293333D01*
X206931904Y-150318095D01*
X206857619Y-150082857D02*
X206857619Y-149921904D01*
X206956666Y-150008571D01*
X206956666Y-149971428D01*
X206969047Y-149946666D01*
X206981428Y-149934285D01*
X207006190Y-149921904D01*
X207068095Y-149921904D01*
X207092857Y-149934285D01*
X207105238Y-149946666D01*
X207117619Y-149971428D01*
X207117619Y-150045714D01*
X207105238Y-150070476D01*
X207092857Y-150082857D01*
%TO.C,R30*%
X201367619Y-159917142D02*
X201243809Y-160003809D01*
X201367619Y-160065714D02*
X201107619Y-160065714D01*
X201107619Y-159966666D01*
X201120000Y-159941904D01*
X201132380Y-159929523D01*
X201157142Y-159917142D01*
X201194285Y-159917142D01*
X201219047Y-159929523D01*
X201231428Y-159941904D01*
X201243809Y-159966666D01*
X201243809Y-160065714D01*
X201107619Y-159830476D02*
X201107619Y-159669523D01*
X201206666Y-159756190D01*
X201206666Y-159719047D01*
X201219047Y-159694285D01*
X201231428Y-159681904D01*
X201256190Y-159669523D01*
X201318095Y-159669523D01*
X201342857Y-159681904D01*
X201355238Y-159694285D01*
X201367619Y-159719047D01*
X201367619Y-159793333D01*
X201355238Y-159818095D01*
X201342857Y-159830476D01*
X201107619Y-159508571D02*
X201107619Y-159483809D01*
X201120000Y-159459047D01*
X201132380Y-159446666D01*
X201157142Y-159434285D01*
X201206666Y-159421904D01*
X201268571Y-159421904D01*
X201318095Y-159434285D01*
X201342857Y-159446666D01*
X201355238Y-159459047D01*
X201367619Y-159483809D01*
X201367619Y-159508571D01*
X201355238Y-159533333D01*
X201342857Y-159545714D01*
X201318095Y-159558095D01*
X201268571Y-159570476D01*
X201206666Y-159570476D01*
X201157142Y-159558095D01*
X201132380Y-159545714D01*
X201120000Y-159533333D01*
X201107619Y-159508571D01*
D14*
%TO.C,C13*%
X204002857Y-153142857D02*
X203983809Y-153161904D01*
X203926666Y-153180952D01*
X203888571Y-153180952D01*
X203831428Y-153161904D01*
X203793333Y-153123809D01*
X203774285Y-153085714D01*
X203755238Y-153009523D01*
X203755238Y-152952380D01*
X203774285Y-152876190D01*
X203793333Y-152838095D01*
X203831428Y-152800000D01*
X203888571Y-152780952D01*
X203926666Y-152780952D01*
X203983809Y-152800000D01*
X204002857Y-152819047D01*
X204383809Y-153180952D02*
X204155238Y-153180952D01*
X204269523Y-153180952D02*
X204269523Y-152780952D01*
X204231428Y-152838095D01*
X204193333Y-152876190D01*
X204155238Y-152895238D01*
X204517142Y-152780952D02*
X204764761Y-152780952D01*
X204631428Y-152933333D01*
X204688571Y-152933333D01*
X204726666Y-152952380D01*
X204745714Y-152971428D01*
X204764761Y-153009523D01*
X204764761Y-153104761D01*
X204745714Y-153142857D01*
X204726666Y-153161904D01*
X204688571Y-153180952D01*
X204574285Y-153180952D01*
X204536190Y-153161904D01*
X204517142Y-153142857D01*
%TO.C,C14*%
X204002857Y-157142857D02*
X203983809Y-157161904D01*
X203926666Y-157180952D01*
X203888571Y-157180952D01*
X203831428Y-157161904D01*
X203793333Y-157123809D01*
X203774285Y-157085714D01*
X203755238Y-157009523D01*
X203755238Y-156952380D01*
X203774285Y-156876190D01*
X203793333Y-156838095D01*
X203831428Y-156800000D01*
X203888571Y-156780952D01*
X203926666Y-156780952D01*
X203983809Y-156800000D01*
X204002857Y-156819047D01*
X204383809Y-157180952D02*
X204155238Y-157180952D01*
X204269523Y-157180952D02*
X204269523Y-156780952D01*
X204231428Y-156838095D01*
X204193333Y-156876190D01*
X204155238Y-156895238D01*
X204726666Y-156914285D02*
X204726666Y-157180952D01*
X204631428Y-156761904D02*
X204536190Y-157047619D01*
X204783809Y-157047619D01*
D12*
%TO.C,C10*%
X192785714Y-155514285D02*
X192823809Y-155552380D01*
X192861904Y-155666666D01*
X192861904Y-155742857D01*
X192823809Y-155857142D01*
X192747619Y-155933333D01*
X192671428Y-155971428D01*
X192519047Y-156009523D01*
X192404761Y-156009523D01*
X192252380Y-155971428D01*
X192176190Y-155933333D01*
X192100000Y-155857142D01*
X192061904Y-155742857D01*
X192061904Y-155666666D01*
X192100000Y-155552380D01*
X192138095Y-155514285D01*
X192861904Y-154752380D02*
X192861904Y-155209523D01*
X192861904Y-154980952D02*
X192061904Y-154980952D01*
X192176190Y-155057142D01*
X192252380Y-155133333D01*
X192290476Y-155209523D01*
X192061904Y-154257142D02*
X192061904Y-154180952D01*
X192100000Y-154104761D01*
X192138095Y-154066666D01*
X192214285Y-154028571D01*
X192366666Y-153990476D01*
X192557142Y-153990476D01*
X192709523Y-154028571D01*
X192785714Y-154066666D01*
X192823809Y-154104761D01*
X192861904Y-154180952D01*
X192861904Y-154257142D01*
X192823809Y-154333333D01*
X192785714Y-154371428D01*
X192709523Y-154409523D01*
X192557142Y-154447619D01*
X192366666Y-154447619D01*
X192214285Y-154409523D01*
X192138095Y-154371428D01*
X192100000Y-154333333D01*
X192061904Y-154257142D01*
%TO.C,C8*%
X213035714Y-140133333D02*
X213073809Y-140171428D01*
X213111904Y-140285714D01*
X213111904Y-140361904D01*
X213073809Y-140476190D01*
X212997619Y-140552380D01*
X212921428Y-140590476D01*
X212769047Y-140628571D01*
X212654761Y-140628571D01*
X212502380Y-140590476D01*
X212426190Y-140552380D01*
X212350000Y-140476190D01*
X212311904Y-140361904D01*
X212311904Y-140285714D01*
X212350000Y-140171428D01*
X212388095Y-140133333D01*
X212654761Y-139676190D02*
X212616666Y-139752380D01*
X212578571Y-139790476D01*
X212502380Y-139828571D01*
X212464285Y-139828571D01*
X212388095Y-139790476D01*
X212350000Y-139752380D01*
X212311904Y-139676190D01*
X212311904Y-139523809D01*
X212350000Y-139447619D01*
X212388095Y-139409523D01*
X212464285Y-139371428D01*
X212502380Y-139371428D01*
X212578571Y-139409523D01*
X212616666Y-139447619D01*
X212654761Y-139523809D01*
X212654761Y-139676190D01*
X212692857Y-139752380D01*
X212730952Y-139790476D01*
X212807142Y-139828571D01*
X212959523Y-139828571D01*
X213035714Y-139790476D01*
X213073809Y-139752380D01*
X213111904Y-139676190D01*
X213111904Y-139523809D01*
X213073809Y-139447619D01*
X213035714Y-139409523D01*
X212959523Y-139371428D01*
X212807142Y-139371428D01*
X212730952Y-139409523D01*
X212692857Y-139447619D01*
X212654761Y-139523809D01*
D13*
%TO.C,D6*%
X214880952Y-164976190D02*
X214880952Y-164476190D01*
X215000000Y-164476190D01*
X215071428Y-164500000D01*
X215119047Y-164547619D01*
X215142857Y-164595238D01*
X215166666Y-164690476D01*
X215166666Y-164761904D01*
X215142857Y-164857142D01*
X215119047Y-164904761D01*
X215071428Y-164952380D01*
X215000000Y-164976190D01*
X214880952Y-164976190D01*
X215595238Y-164476190D02*
X215500000Y-164476190D01*
X215452380Y-164500000D01*
X215428571Y-164523809D01*
X215380952Y-164595238D01*
X215357142Y-164690476D01*
X215357142Y-164880952D01*
X215380952Y-164928571D01*
X215404761Y-164952380D01*
X215452380Y-164976190D01*
X215547619Y-164976190D01*
X215595238Y-164952380D01*
X215619047Y-164928571D01*
X215642857Y-164880952D01*
X215642857Y-164761904D01*
X215619047Y-164714285D01*
X215595238Y-164690476D01*
X215547619Y-164666666D01*
X215452380Y-164666666D01*
X215404761Y-164690476D01*
X215380952Y-164714285D01*
X215357142Y-164761904D01*
D11*
%TO.C,R7*%
X219867619Y-146793333D02*
X219743809Y-146880000D01*
X219867619Y-146941904D02*
X219607619Y-146941904D01*
X219607619Y-146842857D01*
X219620000Y-146818095D01*
X219632380Y-146805714D01*
X219657142Y-146793333D01*
X219694285Y-146793333D01*
X219719047Y-146805714D01*
X219731428Y-146818095D01*
X219743809Y-146842857D01*
X219743809Y-146941904D01*
X219607619Y-146706666D02*
X219607619Y-146533333D01*
X219867619Y-146644761D01*
D14*
%TO.C,C11*%
X204052857Y-108507142D02*
X204071904Y-108526190D01*
X204090952Y-108583333D01*
X204090952Y-108621428D01*
X204071904Y-108678571D01*
X204033809Y-108716666D01*
X203995714Y-108735714D01*
X203919523Y-108754761D01*
X203862380Y-108754761D01*
X203786190Y-108735714D01*
X203748095Y-108716666D01*
X203710000Y-108678571D01*
X203690952Y-108621428D01*
X203690952Y-108583333D01*
X203710000Y-108526190D01*
X203729047Y-108507142D01*
X204090952Y-108126190D02*
X204090952Y-108354761D01*
X204090952Y-108240476D02*
X203690952Y-108240476D01*
X203748095Y-108278571D01*
X203786190Y-108316666D01*
X203805238Y-108354761D01*
X204090952Y-107745238D02*
X204090952Y-107973809D01*
X204090952Y-107859523D02*
X203690952Y-107859523D01*
X203748095Y-107897619D01*
X203786190Y-107935714D01*
X203805238Y-107973809D01*
%TO.C,C19*%
X212642857Y-155757142D02*
X212661904Y-155776190D01*
X212680952Y-155833333D01*
X212680952Y-155871428D01*
X212661904Y-155928571D01*
X212623809Y-155966666D01*
X212585714Y-155985714D01*
X212509523Y-156004761D01*
X212452380Y-156004761D01*
X212376190Y-155985714D01*
X212338095Y-155966666D01*
X212300000Y-155928571D01*
X212280952Y-155871428D01*
X212280952Y-155833333D01*
X212300000Y-155776190D01*
X212319047Y-155757142D01*
X212680952Y-155376190D02*
X212680952Y-155604761D01*
X212680952Y-155490476D02*
X212280952Y-155490476D01*
X212338095Y-155528571D01*
X212376190Y-155566666D01*
X212395238Y-155604761D01*
X212680952Y-155185714D02*
X212680952Y-155109523D01*
X212661904Y-155071428D01*
X212642857Y-155052380D01*
X212585714Y-155014285D01*
X212509523Y-154995238D01*
X212357142Y-154995238D01*
X212319047Y-155014285D01*
X212300000Y-155033333D01*
X212280952Y-155071428D01*
X212280952Y-155147619D01*
X212300000Y-155185714D01*
X212319047Y-155204761D01*
X212357142Y-155223809D01*
X212452380Y-155223809D01*
X212490476Y-155204761D01*
X212509523Y-155185714D01*
X212528571Y-155147619D01*
X212528571Y-155071428D01*
X212509523Y-155033333D01*
X212490476Y-155014285D01*
X212452380Y-154995238D01*
D11*
%TO.C,R25*%
X200367619Y-159917142D02*
X200243809Y-160003809D01*
X200367619Y-160065714D02*
X200107619Y-160065714D01*
X200107619Y-159966666D01*
X200120000Y-159941904D01*
X200132380Y-159929523D01*
X200157142Y-159917142D01*
X200194285Y-159917142D01*
X200219047Y-159929523D01*
X200231428Y-159941904D01*
X200243809Y-159966666D01*
X200243809Y-160065714D01*
X200132380Y-159818095D02*
X200120000Y-159805714D01*
X200107619Y-159780952D01*
X200107619Y-159719047D01*
X200120000Y-159694285D01*
X200132380Y-159681904D01*
X200157142Y-159669523D01*
X200181904Y-159669523D01*
X200219047Y-159681904D01*
X200367619Y-159830476D01*
X200367619Y-159669523D01*
X200107619Y-159434285D02*
X200107619Y-159558095D01*
X200231428Y-159570476D01*
X200219047Y-159558095D01*
X200206666Y-159533333D01*
X200206666Y-159471428D01*
X200219047Y-159446666D01*
X200231428Y-159434285D01*
X200256190Y-159421904D01*
X200318095Y-159421904D01*
X200342857Y-159434285D01*
X200355238Y-159446666D01*
X200367619Y-159471428D01*
X200367619Y-159533333D01*
X200355238Y-159558095D01*
X200342857Y-159570476D01*
D14*
%TO.C,C4*%
X216933333Y-118392857D02*
X216914285Y-118411904D01*
X216857142Y-118430952D01*
X216819047Y-118430952D01*
X216761904Y-118411904D01*
X216723809Y-118373809D01*
X216704761Y-118335714D01*
X216685714Y-118259523D01*
X216685714Y-118202380D01*
X216704761Y-118126190D01*
X216723809Y-118088095D01*
X216761904Y-118050000D01*
X216819047Y-118030952D01*
X216857142Y-118030952D01*
X216914285Y-118050000D01*
X216933333Y-118069047D01*
X217276190Y-118164285D02*
X217276190Y-118430952D01*
X217180952Y-118011904D02*
X217085714Y-118297619D01*
X217333333Y-118297619D01*
%TO.C,C2*%
X209642857Y-128066666D02*
X209661904Y-128085714D01*
X209680952Y-128142857D01*
X209680952Y-128180952D01*
X209661904Y-128238095D01*
X209623809Y-128276190D01*
X209585714Y-128295238D01*
X209509523Y-128314285D01*
X209452380Y-128314285D01*
X209376190Y-128295238D01*
X209338095Y-128276190D01*
X209300000Y-128238095D01*
X209280952Y-128180952D01*
X209280952Y-128142857D01*
X209300000Y-128085714D01*
X209319047Y-128066666D01*
X209319047Y-127914285D02*
X209300000Y-127895238D01*
X209280952Y-127857142D01*
X209280952Y-127761904D01*
X209300000Y-127723809D01*
X209319047Y-127704761D01*
X209357142Y-127685714D01*
X209395238Y-127685714D01*
X209452380Y-127704761D01*
X209680952Y-127933333D01*
X209680952Y-127685714D01*
%TO.C,R33*%
X188242857Y-162180952D02*
X188109523Y-161990476D01*
X188014285Y-162180952D02*
X188014285Y-161780952D01*
X188166666Y-161780952D01*
X188204761Y-161800000D01*
X188223809Y-161819047D01*
X188242857Y-161857142D01*
X188242857Y-161914285D01*
X188223809Y-161952380D01*
X188204761Y-161971428D01*
X188166666Y-161990476D01*
X188014285Y-161990476D01*
X188376190Y-161780952D02*
X188623809Y-161780952D01*
X188490476Y-161933333D01*
X188547619Y-161933333D01*
X188585714Y-161952380D01*
X188604761Y-161971428D01*
X188623809Y-162009523D01*
X188623809Y-162104761D01*
X188604761Y-162142857D01*
X188585714Y-162161904D01*
X188547619Y-162180952D01*
X188433333Y-162180952D01*
X188395238Y-162161904D01*
X188376190Y-162142857D01*
X188757142Y-161780952D02*
X189004761Y-161780952D01*
X188871428Y-161933333D01*
X188928571Y-161933333D01*
X188966666Y-161952380D01*
X188985714Y-161971428D01*
X189004761Y-162009523D01*
X189004761Y-162104761D01*
X188985714Y-162142857D01*
X188966666Y-162161904D01*
X188928571Y-162180952D01*
X188814285Y-162180952D01*
X188776190Y-162161904D01*
X188757142Y-162142857D01*
D11*
%TO.C,R3*%
X215617619Y-148043333D02*
X215493809Y-148130000D01*
X215617619Y-148191904D02*
X215357619Y-148191904D01*
X215357619Y-148092857D01*
X215370000Y-148068095D01*
X215382380Y-148055714D01*
X215407142Y-148043333D01*
X215444285Y-148043333D01*
X215469047Y-148055714D01*
X215481428Y-148068095D01*
X215493809Y-148092857D01*
X215493809Y-148191904D01*
X215357619Y-147956666D02*
X215357619Y-147795714D01*
X215456666Y-147882380D01*
X215456666Y-147845238D01*
X215469047Y-147820476D01*
X215481428Y-147808095D01*
X215506190Y-147795714D01*
X215568095Y-147795714D01*
X215592857Y-147808095D01*
X215605238Y-147820476D01*
X215617619Y-147845238D01*
X215617619Y-147919523D01*
X215605238Y-147944285D01*
X215592857Y-147956666D01*
%TO.C,R5*%
X217617619Y-148043333D02*
X217493809Y-148130000D01*
X217617619Y-148191904D02*
X217357619Y-148191904D01*
X217357619Y-148092857D01*
X217370000Y-148068095D01*
X217382380Y-148055714D01*
X217407142Y-148043333D01*
X217444285Y-148043333D01*
X217469047Y-148055714D01*
X217481428Y-148068095D01*
X217493809Y-148092857D01*
X217493809Y-148191904D01*
X217357619Y-147808095D02*
X217357619Y-147931904D01*
X217481428Y-147944285D01*
X217469047Y-147931904D01*
X217456666Y-147907142D01*
X217456666Y-147845238D01*
X217469047Y-147820476D01*
X217481428Y-147808095D01*
X217506190Y-147795714D01*
X217568095Y-147795714D01*
X217592857Y-147808095D01*
X217605238Y-147820476D01*
X217617619Y-147845238D01*
X217617619Y-147907142D01*
X217605238Y-147931904D01*
X217592857Y-147944285D01*
D14*
%TO.C,C18*%
X182142857Y-170257142D02*
X182161904Y-170276190D01*
X182180952Y-170333333D01*
X182180952Y-170371428D01*
X182161904Y-170428571D01*
X182123809Y-170466666D01*
X182085714Y-170485714D01*
X182009523Y-170504761D01*
X181952380Y-170504761D01*
X181876190Y-170485714D01*
X181838095Y-170466666D01*
X181800000Y-170428571D01*
X181780952Y-170371428D01*
X181780952Y-170333333D01*
X181800000Y-170276190D01*
X181819047Y-170257142D01*
X182180952Y-169876190D02*
X182180952Y-170104761D01*
X182180952Y-169990476D02*
X181780952Y-169990476D01*
X181838095Y-170028571D01*
X181876190Y-170066666D01*
X181895238Y-170104761D01*
X181952380Y-169647619D02*
X181933333Y-169685714D01*
X181914285Y-169704761D01*
X181876190Y-169723809D01*
X181857142Y-169723809D01*
X181819047Y-169704761D01*
X181800000Y-169685714D01*
X181780952Y-169647619D01*
X181780952Y-169571428D01*
X181800000Y-169533333D01*
X181819047Y-169514285D01*
X181857142Y-169495238D01*
X181876190Y-169495238D01*
X181914285Y-169514285D01*
X181933333Y-169533333D01*
X181952380Y-169571428D01*
X181952380Y-169647619D01*
X181971428Y-169685714D01*
X181990476Y-169704761D01*
X182028571Y-169723809D01*
X182104761Y-169723809D01*
X182142857Y-169704761D01*
X182161904Y-169685714D01*
X182180952Y-169647619D01*
X182180952Y-169571428D01*
X182161904Y-169533333D01*
X182142857Y-169514285D01*
X182104761Y-169495238D01*
X182028571Y-169495238D01*
X181990476Y-169514285D01*
X181971428Y-169533333D01*
X181952380Y-169571428D01*
D11*
%TO.C,C12*%
X202339285Y-150410714D02*
X202351190Y-150422619D01*
X202363095Y-150458333D01*
X202363095Y-150482142D01*
X202351190Y-150517857D01*
X202327380Y-150541666D01*
X202303571Y-150553571D01*
X202255952Y-150565476D01*
X202220238Y-150565476D01*
X202172619Y-150553571D01*
X202148809Y-150541666D01*
X202125000Y-150517857D01*
X202113095Y-150482142D01*
X202113095Y-150458333D01*
X202125000Y-150422619D01*
X202136904Y-150410714D01*
X202363095Y-150172619D02*
X202363095Y-150315476D01*
X202363095Y-150244047D02*
X202113095Y-150244047D01*
X202148809Y-150267857D01*
X202172619Y-150291666D01*
X202184523Y-150315476D01*
X202136904Y-150077380D02*
X202125000Y-150065476D01*
X202113095Y-150041666D01*
X202113095Y-149982142D01*
X202125000Y-149958333D01*
X202136904Y-149946428D01*
X202160714Y-149934523D01*
X202184523Y-149934523D01*
X202220238Y-149946428D01*
X202363095Y-150089285D01*
X202363095Y-149934523D01*
D13*
%TO.C,Q2*%
X188773809Y-164797619D02*
X188750000Y-164845238D01*
X188702380Y-164892857D01*
X188630952Y-164964285D01*
X188607142Y-165011904D01*
X188607142Y-165059523D01*
X188726190Y-165035714D02*
X188702380Y-165083333D01*
X188654761Y-165130952D01*
X188559523Y-165154761D01*
X188392857Y-165154761D01*
X188297619Y-165130952D01*
X188250000Y-165083333D01*
X188226190Y-165035714D01*
X188226190Y-164940476D01*
X188250000Y-164892857D01*
X188297619Y-164845238D01*
X188392857Y-164821428D01*
X188559523Y-164821428D01*
X188654761Y-164845238D01*
X188702380Y-164892857D01*
X188726190Y-164940476D01*
X188726190Y-165035714D01*
X188273809Y-164630952D02*
X188250000Y-164607142D01*
X188226190Y-164559523D01*
X188226190Y-164440476D01*
X188250000Y-164392857D01*
X188273809Y-164369047D01*
X188321428Y-164345238D01*
X188369047Y-164345238D01*
X188440476Y-164369047D01*
X188726190Y-164654761D01*
X188726190Y-164345238D01*
%TO.C,D4*%
X199630952Y-164976190D02*
X199630952Y-164476190D01*
X199750000Y-164476190D01*
X199821428Y-164500000D01*
X199869047Y-164547619D01*
X199892857Y-164595238D01*
X199916666Y-164690476D01*
X199916666Y-164761904D01*
X199892857Y-164857142D01*
X199869047Y-164904761D01*
X199821428Y-164952380D01*
X199750000Y-164976190D01*
X199630952Y-164976190D01*
X200345238Y-164642857D02*
X200345238Y-164976190D01*
X200226190Y-164452380D02*
X200107142Y-164809523D01*
X200416666Y-164809523D01*
D11*
%TO.C,R27*%
X198367619Y-158917142D02*
X198243809Y-159003809D01*
X198367619Y-159065714D02*
X198107619Y-159065714D01*
X198107619Y-158966666D01*
X198120000Y-158941904D01*
X198132380Y-158929523D01*
X198157142Y-158917142D01*
X198194285Y-158917142D01*
X198219047Y-158929523D01*
X198231428Y-158941904D01*
X198243809Y-158966666D01*
X198243809Y-159065714D01*
X198132380Y-158818095D02*
X198120000Y-158805714D01*
X198107619Y-158780952D01*
X198107619Y-158719047D01*
X198120000Y-158694285D01*
X198132380Y-158681904D01*
X198157142Y-158669523D01*
X198181904Y-158669523D01*
X198219047Y-158681904D01*
X198367619Y-158830476D01*
X198367619Y-158669523D01*
X198107619Y-158582857D02*
X198107619Y-158409523D01*
X198367619Y-158520952D01*
D13*
%TO.C,D1*%
X185630952Y-125476190D02*
X185630952Y-124976190D01*
X185750000Y-124976190D01*
X185821428Y-125000000D01*
X185869047Y-125047619D01*
X185892857Y-125095238D01*
X185916666Y-125190476D01*
X185916666Y-125261904D01*
X185892857Y-125357142D01*
X185869047Y-125404761D01*
X185821428Y-125452380D01*
X185750000Y-125476190D01*
X185630952Y-125476190D01*
X186392857Y-125476190D02*
X186107142Y-125476190D01*
X186250000Y-125476190D02*
X186250000Y-124976190D01*
X186202380Y-125047619D01*
X186154761Y-125095238D01*
X186107142Y-125119047D01*
D12*
%TO.C,C3*%
X216785714Y-127133333D02*
X216823809Y-127171428D01*
X216861904Y-127285714D01*
X216861904Y-127361904D01*
X216823809Y-127476190D01*
X216747619Y-127552380D01*
X216671428Y-127590476D01*
X216519047Y-127628571D01*
X216404761Y-127628571D01*
X216252380Y-127590476D01*
X216176190Y-127552380D01*
X216100000Y-127476190D01*
X216061904Y-127361904D01*
X216061904Y-127285714D01*
X216100000Y-127171428D01*
X216138095Y-127133333D01*
X216061904Y-126866666D02*
X216061904Y-126371428D01*
X216366666Y-126638095D01*
X216366666Y-126523809D01*
X216404761Y-126447619D01*
X216442857Y-126409523D01*
X216519047Y-126371428D01*
X216709523Y-126371428D01*
X216785714Y-126409523D01*
X216823809Y-126447619D01*
X216861904Y-126523809D01*
X216861904Y-126752380D01*
X216823809Y-126828571D01*
X216785714Y-126866666D01*
D11*
%TO.C,R10*%
X200117619Y-108417142D02*
X199993809Y-108503809D01*
X200117619Y-108565714D02*
X199857619Y-108565714D01*
X199857619Y-108466666D01*
X199870000Y-108441904D01*
X199882380Y-108429523D01*
X199907142Y-108417142D01*
X199944285Y-108417142D01*
X199969047Y-108429523D01*
X199981428Y-108441904D01*
X199993809Y-108466666D01*
X199993809Y-108565714D01*
X200117619Y-108169523D02*
X200117619Y-108318095D01*
X200117619Y-108243809D02*
X199857619Y-108243809D01*
X199894761Y-108268571D01*
X199919523Y-108293333D01*
X199931904Y-108318095D01*
X199857619Y-108008571D02*
X199857619Y-107983809D01*
X199870000Y-107959047D01*
X199882380Y-107946666D01*
X199907142Y-107934285D01*
X199956666Y-107921904D01*
X200018571Y-107921904D01*
X200068095Y-107934285D01*
X200092857Y-107946666D01*
X200105238Y-107959047D01*
X200117619Y-107983809D01*
X200117619Y-108008571D01*
X200105238Y-108033333D01*
X200092857Y-108045714D01*
X200068095Y-108058095D01*
X200018571Y-108070476D01*
X199956666Y-108070476D01*
X199907142Y-108058095D01*
X199882380Y-108045714D01*
X199870000Y-108033333D01*
X199857619Y-108008571D01*
%TO.C,R19*%
X196082857Y-155117619D02*
X195996190Y-154993809D01*
X195934285Y-155117619D02*
X195934285Y-154857619D01*
X196033333Y-154857619D01*
X196058095Y-154870000D01*
X196070476Y-154882380D01*
X196082857Y-154907142D01*
X196082857Y-154944285D01*
X196070476Y-154969047D01*
X196058095Y-154981428D01*
X196033333Y-154993809D01*
X195934285Y-154993809D01*
X196330476Y-155117619D02*
X196181904Y-155117619D01*
X196256190Y-155117619D02*
X196256190Y-154857619D01*
X196231428Y-154894761D01*
X196206666Y-154919523D01*
X196181904Y-154931904D01*
X196454285Y-155117619D02*
X196503809Y-155117619D01*
X196528571Y-155105238D01*
X196540952Y-155092857D01*
X196565714Y-155055714D01*
X196578095Y-155006190D01*
X196578095Y-154907142D01*
X196565714Y-154882380D01*
X196553333Y-154870000D01*
X196528571Y-154857619D01*
X196479047Y-154857619D01*
X196454285Y-154870000D01*
X196441904Y-154882380D01*
X196429523Y-154907142D01*
X196429523Y-154969047D01*
X196441904Y-154993809D01*
X196454285Y-155006190D01*
X196479047Y-155018571D01*
X196528571Y-155018571D01*
X196553333Y-155006190D01*
X196565714Y-154993809D01*
X196578095Y-154969047D01*
D13*
%TO.C,U2*%
X216726190Y-145380952D02*
X217130952Y-145380952D01*
X217178571Y-145357142D01*
X217202380Y-145333333D01*
X217226190Y-145285714D01*
X217226190Y-145190476D01*
X217202380Y-145142857D01*
X217178571Y-145119047D01*
X217130952Y-145095238D01*
X216726190Y-145095238D01*
X216773809Y-144880952D02*
X216750000Y-144857142D01*
X216726190Y-144809523D01*
X216726190Y-144690476D01*
X216750000Y-144642857D01*
X216773809Y-144619047D01*
X216821428Y-144595238D01*
X216869047Y-144595238D01*
X216940476Y-144619047D01*
X217226190Y-144904761D01*
X217226190Y-144595238D01*
D12*
%TO.C,C1*%
X211785714Y-127133333D02*
X211823809Y-127171428D01*
X211861904Y-127285714D01*
X211861904Y-127361904D01*
X211823809Y-127476190D01*
X211747619Y-127552380D01*
X211671428Y-127590476D01*
X211519047Y-127628571D01*
X211404761Y-127628571D01*
X211252380Y-127590476D01*
X211176190Y-127552380D01*
X211100000Y-127476190D01*
X211061904Y-127361904D01*
X211061904Y-127285714D01*
X211100000Y-127171428D01*
X211138095Y-127133333D01*
X211861904Y-126371428D02*
X211861904Y-126828571D01*
X211861904Y-126600000D02*
X211061904Y-126600000D01*
X211176190Y-126676190D01*
X211252380Y-126752380D01*
X211290476Y-126828571D01*
%TO.C,R2*%
X219611904Y-127133333D02*
X219230952Y-127400000D01*
X219611904Y-127590476D02*
X218811904Y-127590476D01*
X218811904Y-127285714D01*
X218850000Y-127209523D01*
X218888095Y-127171428D01*
X218964285Y-127133333D01*
X219078571Y-127133333D01*
X219154761Y-127171428D01*
X219192857Y-127209523D01*
X219230952Y-127285714D01*
X219230952Y-127590476D01*
X218888095Y-126828571D02*
X218850000Y-126790476D01*
X218811904Y-126714285D01*
X218811904Y-126523809D01*
X218850000Y-126447619D01*
X218888095Y-126409523D01*
X218964285Y-126371428D01*
X219040476Y-126371428D01*
X219154761Y-126409523D01*
X219611904Y-126866666D01*
X219611904Y-126371428D01*
D10*
%TO.C,CONN3*%
X184261904Y-122107142D02*
X184214285Y-122154761D01*
X184071428Y-122202380D01*
X183976190Y-122202380D01*
X183833333Y-122154761D01*
X183738095Y-122059523D01*
X183690476Y-121964285D01*
X183642857Y-121773809D01*
X183642857Y-121630952D01*
X183690476Y-121440476D01*
X183738095Y-121345238D01*
X183833333Y-121250000D01*
X183976190Y-121202380D01*
X184071428Y-121202380D01*
X184214285Y-121250000D01*
X184261904Y-121297619D01*
X184880952Y-121202380D02*
X185071428Y-121202380D01*
X185166666Y-121250000D01*
X185261904Y-121345238D01*
X185309523Y-121535714D01*
X185309523Y-121869047D01*
X185261904Y-122059523D01*
X185166666Y-122154761D01*
X185071428Y-122202380D01*
X184880952Y-122202380D01*
X184785714Y-122154761D01*
X184690476Y-122059523D01*
X184642857Y-121869047D01*
X184642857Y-121535714D01*
X184690476Y-121345238D01*
X184785714Y-121250000D01*
X184880952Y-121202380D01*
X185738095Y-122202380D02*
X185738095Y-121202380D01*
X186309523Y-122202380D01*
X186309523Y-121202380D01*
X186785714Y-122202380D02*
X186785714Y-121202380D01*
X187357142Y-122202380D01*
X187357142Y-121202380D01*
X187738095Y-121202380D02*
X188357142Y-121202380D01*
X188023809Y-121583333D01*
X188166666Y-121583333D01*
X188261904Y-121630952D01*
X188309523Y-121678571D01*
X188357142Y-121773809D01*
X188357142Y-122011904D01*
X188309523Y-122107142D01*
X188261904Y-122154761D01*
X188166666Y-122202380D01*
X187880952Y-122202380D01*
X187785714Y-122154761D01*
X187738095Y-122107142D01*
D11*
%TO.C,R16*%
X197377619Y-151417142D02*
X197253809Y-151503809D01*
X197377619Y-151565714D02*
X197117619Y-151565714D01*
X197117619Y-151466666D01*
X197130000Y-151441904D01*
X197142380Y-151429523D01*
X197167142Y-151417142D01*
X197204285Y-151417142D01*
X197229047Y-151429523D01*
X197241428Y-151441904D01*
X197253809Y-151466666D01*
X197253809Y-151565714D01*
X197377619Y-151169523D02*
X197377619Y-151318095D01*
X197377619Y-151243809D02*
X197117619Y-151243809D01*
X197154761Y-151268571D01*
X197179523Y-151293333D01*
X197191904Y-151318095D01*
X197117619Y-150946666D02*
X197117619Y-150996190D01*
X197130000Y-151020952D01*
X197142380Y-151033333D01*
X197179523Y-151058095D01*
X197229047Y-151070476D01*
X197328095Y-151070476D01*
X197352857Y-151058095D01*
X197365238Y-151045714D01*
X197377619Y-151020952D01*
X197377619Y-150971428D01*
X197365238Y-150946666D01*
X197352857Y-150934285D01*
X197328095Y-150921904D01*
X197266190Y-150921904D01*
X197241428Y-150934285D01*
X197229047Y-150946666D01*
X197216666Y-150971428D01*
X197216666Y-151020952D01*
X197229047Y-151045714D01*
X197241428Y-151058095D01*
X197266190Y-151070476D01*
%TO.C,R29*%
X202367619Y-159917142D02*
X202243809Y-160003809D01*
X202367619Y-160065714D02*
X202107619Y-160065714D01*
X202107619Y-159966666D01*
X202120000Y-159941904D01*
X202132380Y-159929523D01*
X202157142Y-159917142D01*
X202194285Y-159917142D01*
X202219047Y-159929523D01*
X202231428Y-159941904D01*
X202243809Y-159966666D01*
X202243809Y-160065714D01*
X202132380Y-159818095D02*
X202120000Y-159805714D01*
X202107619Y-159780952D01*
X202107619Y-159719047D01*
X202120000Y-159694285D01*
X202132380Y-159681904D01*
X202157142Y-159669523D01*
X202181904Y-159669523D01*
X202219047Y-159681904D01*
X202367619Y-159830476D01*
X202367619Y-159669523D01*
X202367619Y-159545714D02*
X202367619Y-159496190D01*
X202355238Y-159471428D01*
X202342857Y-159459047D01*
X202305714Y-159434285D01*
X202256190Y-159421904D01*
X202157142Y-159421904D01*
X202132380Y-159434285D01*
X202120000Y-159446666D01*
X202107619Y-159471428D01*
X202107619Y-159520952D01*
X202120000Y-159545714D01*
X202132380Y-159558095D01*
X202157142Y-159570476D01*
X202219047Y-159570476D01*
X202243809Y-159558095D01*
X202256190Y-159545714D01*
X202268571Y-159520952D01*
X202268571Y-159471428D01*
X202256190Y-159446666D01*
X202243809Y-159434285D01*
X202219047Y-159421904D01*
D12*
%TO.C,C6*%
X214035714Y-145633333D02*
X214073809Y-145671428D01*
X214111904Y-145785714D01*
X214111904Y-145861904D01*
X214073809Y-145976190D01*
X213997619Y-146052380D01*
X213921428Y-146090476D01*
X213769047Y-146128571D01*
X213654761Y-146128571D01*
X213502380Y-146090476D01*
X213426190Y-146052380D01*
X213350000Y-145976190D01*
X213311904Y-145861904D01*
X213311904Y-145785714D01*
X213350000Y-145671428D01*
X213388095Y-145633333D01*
X213311904Y-144947619D02*
X213311904Y-145100000D01*
X213350000Y-145176190D01*
X213388095Y-145214285D01*
X213502380Y-145290476D01*
X213654761Y-145328571D01*
X213959523Y-145328571D01*
X214035714Y-145290476D01*
X214073809Y-145252380D01*
X214111904Y-145176190D01*
X214111904Y-145023809D01*
X214073809Y-144947619D01*
X214035714Y-144909523D01*
X213959523Y-144871428D01*
X213769047Y-144871428D01*
X213692857Y-144909523D01*
X213654761Y-144947619D01*
X213616666Y-145023809D01*
X213616666Y-145176190D01*
X213654761Y-145252380D01*
X213692857Y-145290476D01*
X213769047Y-145328571D01*
D11*
%TO.C,R31*%
X196082857Y-156117619D02*
X195996190Y-155993809D01*
X195934285Y-156117619D02*
X195934285Y-155857619D01*
X196033333Y-155857619D01*
X196058095Y-155870000D01*
X196070476Y-155882380D01*
X196082857Y-155907142D01*
X196082857Y-155944285D01*
X196070476Y-155969047D01*
X196058095Y-155981428D01*
X196033333Y-155993809D01*
X195934285Y-155993809D01*
X196169523Y-155857619D02*
X196330476Y-155857619D01*
X196243809Y-155956666D01*
X196280952Y-155956666D01*
X196305714Y-155969047D01*
X196318095Y-155981428D01*
X196330476Y-156006190D01*
X196330476Y-156068095D01*
X196318095Y-156092857D01*
X196305714Y-156105238D01*
X196280952Y-156117619D01*
X196206666Y-156117619D01*
X196181904Y-156105238D01*
X196169523Y-156092857D01*
X196578095Y-156117619D02*
X196429523Y-156117619D01*
X196503809Y-156117619D02*
X196503809Y-155857619D01*
X196479047Y-155894761D01*
X196454285Y-155919523D01*
X196429523Y-155931904D01*
%TO.C,R23*%
X211332857Y-162117619D02*
X211246190Y-161993809D01*
X211184285Y-162117619D02*
X211184285Y-161857619D01*
X211283333Y-161857619D01*
X211308095Y-161870000D01*
X211320476Y-161882380D01*
X211332857Y-161907142D01*
X211332857Y-161944285D01*
X211320476Y-161969047D01*
X211308095Y-161981428D01*
X211283333Y-161993809D01*
X211184285Y-161993809D01*
X211431904Y-161882380D02*
X211444285Y-161870000D01*
X211469047Y-161857619D01*
X211530952Y-161857619D01*
X211555714Y-161870000D01*
X211568095Y-161882380D01*
X211580476Y-161907142D01*
X211580476Y-161931904D01*
X211568095Y-161969047D01*
X211419523Y-162117619D01*
X211580476Y-162117619D01*
X211667142Y-161857619D02*
X211828095Y-161857619D01*
X211741428Y-161956666D01*
X211778571Y-161956666D01*
X211803333Y-161969047D01*
X211815714Y-161981428D01*
X211828095Y-162006190D01*
X211828095Y-162068095D01*
X211815714Y-162092857D01*
X211803333Y-162105238D01*
X211778571Y-162117619D01*
X211704285Y-162117619D01*
X211679523Y-162105238D01*
X211667142Y-162092857D01*
%TO.C,C7*%
X220839285Y-143291666D02*
X220851190Y-143303571D01*
X220863095Y-143339285D01*
X220863095Y-143363095D01*
X220851190Y-143398809D01*
X220827380Y-143422619D01*
X220803571Y-143434523D01*
X220755952Y-143446428D01*
X220720238Y-143446428D01*
X220672619Y-143434523D01*
X220648809Y-143422619D01*
X220625000Y-143398809D01*
X220613095Y-143363095D01*
X220613095Y-143339285D01*
X220625000Y-143303571D01*
X220636904Y-143291666D01*
X220613095Y-143208333D02*
X220613095Y-143041666D01*
X220863095Y-143148809D01*
D10*
%TO.C,CONN6*%
X215607142Y-157238095D02*
X215654761Y-157285714D01*
X215702380Y-157428571D01*
X215702380Y-157523809D01*
X215654761Y-157666666D01*
X215559523Y-157761904D01*
X215464285Y-157809523D01*
X215273809Y-157857142D01*
X215130952Y-157857142D01*
X214940476Y-157809523D01*
X214845238Y-157761904D01*
X214750000Y-157666666D01*
X214702380Y-157523809D01*
X214702380Y-157428571D01*
X214750000Y-157285714D01*
X214797619Y-157238095D01*
X214702380Y-156619047D02*
X214702380Y-156428571D01*
X214750000Y-156333333D01*
X214845238Y-156238095D01*
X215035714Y-156190476D01*
X215369047Y-156190476D01*
X215559523Y-156238095D01*
X215654761Y-156333333D01*
X215702380Y-156428571D01*
X215702380Y-156619047D01*
X215654761Y-156714285D01*
X215559523Y-156809523D01*
X215369047Y-156857142D01*
X215035714Y-156857142D01*
X214845238Y-156809523D01*
X214750000Y-156714285D01*
X214702380Y-156619047D01*
X215702380Y-155761904D02*
X214702380Y-155761904D01*
X215702380Y-155190476D01*
X214702380Y-155190476D01*
X215702380Y-154714285D02*
X214702380Y-154714285D01*
X215702380Y-154142857D01*
X214702380Y-154142857D01*
X214702380Y-153238095D02*
X214702380Y-153428571D01*
X214750000Y-153523809D01*
X214797619Y-153571428D01*
X214940476Y-153666666D01*
X215130952Y-153714285D01*
X215511904Y-153714285D01*
X215607142Y-153666666D01*
X215654761Y-153619047D01*
X215702380Y-153523809D01*
X215702380Y-153333333D01*
X215654761Y-153238095D01*
X215607142Y-153190476D01*
X215511904Y-153142857D01*
X215273809Y-153142857D01*
X215178571Y-153190476D01*
X215130952Y-153238095D01*
X215083333Y-153333333D01*
X215083333Y-153523809D01*
X215130952Y-153619047D01*
X215178571Y-153666666D01*
X215273809Y-153714285D01*
D11*
%TO.C,R6*%
X218617619Y-148043333D02*
X218493809Y-148130000D01*
X218617619Y-148191904D02*
X218357619Y-148191904D01*
X218357619Y-148092857D01*
X218370000Y-148068095D01*
X218382380Y-148055714D01*
X218407142Y-148043333D01*
X218444285Y-148043333D01*
X218469047Y-148055714D01*
X218481428Y-148068095D01*
X218493809Y-148092857D01*
X218493809Y-148191904D01*
X218357619Y-147820476D02*
X218357619Y-147870000D01*
X218370000Y-147894761D01*
X218382380Y-147907142D01*
X218419523Y-147931904D01*
X218469047Y-147944285D01*
X218568095Y-147944285D01*
X218592857Y-147931904D01*
X218605238Y-147919523D01*
X218617619Y-147894761D01*
X218617619Y-147845238D01*
X218605238Y-147820476D01*
X218592857Y-147808095D01*
X218568095Y-147795714D01*
X218506190Y-147795714D01*
X218481428Y-147808095D01*
X218469047Y-147820476D01*
X218456666Y-147845238D01*
X218456666Y-147894761D01*
X218469047Y-147919523D01*
X218481428Y-147931904D01*
X218506190Y-147944285D01*
D14*
%TO.C,U1*%
X213695238Y-126780952D02*
X213695238Y-127104761D01*
X213714285Y-127142857D01*
X213733333Y-127161904D01*
X213771428Y-127180952D01*
X213847619Y-127180952D01*
X213885714Y-127161904D01*
X213904761Y-127142857D01*
X213923809Y-127104761D01*
X213923809Y-126780952D01*
X214323809Y-127180952D02*
X214095238Y-127180952D01*
X214209523Y-127180952D02*
X214209523Y-126780952D01*
X214171428Y-126838095D01*
X214133333Y-126876190D01*
X214095238Y-126895238D01*
D11*
%TO.C,R12*%
X200377619Y-150417142D02*
X200253809Y-150503809D01*
X200377619Y-150565714D02*
X200117619Y-150565714D01*
X200117619Y-150466666D01*
X200130000Y-150441904D01*
X200142380Y-150429523D01*
X200167142Y-150417142D01*
X200204285Y-150417142D01*
X200229047Y-150429523D01*
X200241428Y-150441904D01*
X200253809Y-150466666D01*
X200253809Y-150565714D01*
X200377619Y-150169523D02*
X200377619Y-150318095D01*
X200377619Y-150243809D02*
X200117619Y-150243809D01*
X200154761Y-150268571D01*
X200179523Y-150293333D01*
X200191904Y-150318095D01*
X200142380Y-150070476D02*
X200130000Y-150058095D01*
X200117619Y-150033333D01*
X200117619Y-149971428D01*
X200130000Y-149946666D01*
X200142380Y-149934285D01*
X200167142Y-149921904D01*
X200191904Y-149921904D01*
X200229047Y-149934285D01*
X200377619Y-150082857D01*
X200377619Y-149921904D01*
%TO.C,R18*%
X196092857Y-154117619D02*
X196006190Y-153993809D01*
X195944285Y-154117619D02*
X195944285Y-153857619D01*
X196043333Y-153857619D01*
X196068095Y-153870000D01*
X196080476Y-153882380D01*
X196092857Y-153907142D01*
X196092857Y-153944285D01*
X196080476Y-153969047D01*
X196068095Y-153981428D01*
X196043333Y-153993809D01*
X195944285Y-153993809D01*
X196340476Y-154117619D02*
X196191904Y-154117619D01*
X196266190Y-154117619D02*
X196266190Y-153857619D01*
X196241428Y-153894761D01*
X196216666Y-153919523D01*
X196191904Y-153931904D01*
X196489047Y-153969047D02*
X196464285Y-153956666D01*
X196451904Y-153944285D01*
X196439523Y-153919523D01*
X196439523Y-153907142D01*
X196451904Y-153882380D01*
X196464285Y-153870000D01*
X196489047Y-153857619D01*
X196538571Y-153857619D01*
X196563333Y-153870000D01*
X196575714Y-153882380D01*
X196588095Y-153907142D01*
X196588095Y-153919523D01*
X196575714Y-153944285D01*
X196563333Y-153956666D01*
X196538571Y-153969047D01*
X196489047Y-153969047D01*
X196464285Y-153981428D01*
X196451904Y-153993809D01*
X196439523Y-154018571D01*
X196439523Y-154068095D01*
X196451904Y-154092857D01*
X196464285Y-154105238D01*
X196489047Y-154117619D01*
X196538571Y-154117619D01*
X196563333Y-154105238D01*
X196575714Y-154092857D01*
X196588095Y-154068095D01*
X196588095Y-154018571D01*
X196575714Y-153993809D01*
X196563333Y-153981428D01*
X196538571Y-153969047D01*
D16*
%TO.C,R14*%
X199530000Y-150725000D02*
X199530000Y-151775000D01*
X199530000Y-151775000D02*
X198990000Y-151775000D01*
X198990000Y-150725000D02*
X199530000Y-150725000D01*
X198990000Y-151775000D02*
X198990000Y-150725000D01*
%TO.C,R26*%
X199520000Y-159275000D02*
X198980000Y-159275000D01*
X199520000Y-158225000D02*
X199520000Y-159275000D01*
X198980000Y-158225000D02*
X199520000Y-158225000D01*
X198980000Y-159275000D02*
X198980000Y-158225000D01*
%TO.C,U3*%
X199000000Y-153000000D02*
X202000000Y-153000000D01*
X202000000Y-153000000D02*
X202000000Y-157000000D01*
X198000000Y-157000000D02*
X198000000Y-154000000D01*
X198000000Y-154000000D02*
X199000000Y-153000000D01*
X202000000Y-157000000D02*
X198000000Y-157000000D01*
%TO.C,CONN1*%
X212260000Y-119530000D02*
X213260000Y-120530000D01*
X213260000Y-120530000D02*
X213260000Y-123970000D01*
X213260000Y-123970000D02*
X203740000Y-123970000D01*
X203740000Y-119530000D02*
X212260000Y-119530000D01*
X203740000Y-123970000D02*
X203740000Y-119530000D01*
%TO.C,CONN5*%
X220310000Y-181550000D02*
X179690000Y-181550000D01*
X207940000Y-167930000D02*
X207940000Y-172250000D01*
X214920000Y-167930000D02*
X214920000Y-172250000D01*
X205400000Y-167930000D02*
X204760000Y-167930000D01*
X213020000Y-167930000D02*
X212380000Y-167930000D01*
X192700000Y-167930000D02*
X192700000Y-172250000D01*
X186980000Y-167930000D02*
X186980000Y-172250000D01*
X219310000Y-172250000D02*
X220310000Y-173250000D01*
X197140000Y-167930000D02*
X197140000Y-172250000D01*
X209840000Y-167930000D02*
X209840000Y-172250000D01*
X210480000Y-167930000D02*
X210480000Y-172250000D01*
X185080000Y-167930000D02*
X185080000Y-172250000D01*
X207300000Y-167930000D02*
X207300000Y-172250000D01*
X205400000Y-167930000D02*
X205400000Y-172250000D01*
X195240000Y-167930000D02*
X194600000Y-167930000D01*
X187620000Y-167930000D02*
X187620000Y-172250000D01*
X202220000Y-167930000D02*
X202220000Y-172250000D01*
X184440000Y-167930000D02*
X184440000Y-172250000D01*
X192060000Y-167930000D02*
X192060000Y-172250000D01*
X202860000Y-167930000D02*
X202860000Y-172250000D01*
X197780000Y-167930000D02*
X197140000Y-167930000D01*
X200320000Y-167930000D02*
X199680000Y-167930000D01*
X190160000Y-167930000D02*
X189520000Y-167930000D01*
X202860000Y-167930000D02*
X202220000Y-167930000D01*
X204760000Y-167930000D02*
X204760000Y-172250000D01*
X197780000Y-167930000D02*
X197780000Y-172250000D01*
X210480000Y-167930000D02*
X209840000Y-167930000D01*
X195240000Y-167930000D02*
X195240000Y-172250000D01*
X190160000Y-167930000D02*
X190160000Y-172250000D01*
X212380000Y-167930000D02*
X212380000Y-172250000D01*
X215560000Y-167930000D02*
X215560000Y-172250000D01*
X215560000Y-167930000D02*
X214920000Y-167930000D01*
X220310000Y-173250000D02*
X220310000Y-181550000D01*
X179690000Y-172250000D02*
X219310000Y-172250000D01*
X194600000Y-167930000D02*
X194600000Y-172250000D01*
X200320000Y-167930000D02*
X200320000Y-172250000D01*
X187620000Y-167930000D02*
X186980000Y-167930000D01*
X179690000Y-181550000D02*
X179690000Y-172250000D01*
X189520000Y-167930000D02*
X189520000Y-172250000D01*
X185080000Y-167930000D02*
X184440000Y-167930000D01*
X213020000Y-167930000D02*
X213020000Y-172250000D01*
X207940000Y-167930000D02*
X207300000Y-167930000D01*
X192700000Y-167930000D02*
X192060000Y-167930000D01*
X199680000Y-167930000D02*
X199680000Y-172250000D01*
%TO.C,R1*%
X209230000Y-126025000D02*
X209230000Y-124975000D01*
X209770000Y-124975000D02*
X209770000Y-126025000D01*
X209770000Y-126025000D02*
X209230000Y-126025000D01*
X209230000Y-124975000D02*
X209770000Y-124975000D01*
%TO.C,R28*%
X197520000Y-159275000D02*
X196980000Y-159275000D01*
X196980000Y-159275000D02*
X196980000Y-158225000D01*
X196980000Y-158225000D02*
X197520000Y-158225000D01*
X197520000Y-158225000D02*
X197520000Y-159275000D01*
%TO.C,R21*%
X203745000Y-155770000D02*
X203745000Y-155230000D01*
X204795000Y-155770000D02*
X203745000Y-155770000D01*
X204795000Y-155230000D02*
X204795000Y-155770000D01*
X203745000Y-155230000D02*
X204795000Y-155230000D01*
%TO.C,CONN7*%
X221020000Y-150420000D02*
X221020000Y-159945000D01*
X218480000Y-160580000D02*
X218480000Y-150420000D01*
X218480000Y-150420000D02*
X221020000Y-150420000D01*
X220385000Y-160580000D02*
X218480000Y-160580000D01*
X221020000Y-159945000D02*
X220385000Y-160580000D01*
%TO.C,C9*%
X210550000Y-138400000D02*
X210550000Y-141600000D01*
X208950000Y-141600000D02*
X208950000Y-138400000D01*
X210550000Y-141600000D02*
X208950000Y-141600000D01*
X208950000Y-138400000D02*
X210550000Y-138400000D01*
%TO.C,R11*%
X200980000Y-149725000D02*
X201520000Y-149725000D01*
X200980000Y-150775000D02*
X200980000Y-149725000D01*
X201520000Y-150775000D02*
X200980000Y-150775000D01*
X201520000Y-149725000D02*
X201520000Y-150775000D01*
%TO.C,D5*%
X183650000Y-164075000D02*
X185850000Y-164075000D01*
X183650000Y-164075000D02*
X183650000Y-164925000D01*
X185850000Y-164075000D02*
X185850000Y-165425000D01*
X184150000Y-165425000D02*
X185850000Y-165425000D01*
X183650000Y-164925000D02*
X184150000Y-165425000D01*
%TO.C,Q1*%
X211325000Y-163670000D02*
X210825000Y-164170000D01*
X212175000Y-163670000D02*
X212175000Y-165870000D01*
X212175000Y-163670000D02*
X211325000Y-163670000D01*
X210825000Y-164170000D02*
X210825000Y-165870000D01*
X212175000Y-165870000D02*
X210825000Y-165870000D01*
%TO.C,R8*%
X221020000Y-147275000D02*
X220480000Y-147275000D01*
X220480000Y-146225000D02*
X221020000Y-146225000D01*
X220480000Y-147275000D02*
X220480000Y-146225000D01*
X221020000Y-146225000D02*
X221020000Y-147275000D01*
%TO.C,C17*%
X206950000Y-165100000D02*
X208550000Y-165100000D01*
X208550000Y-165900000D02*
X206950000Y-165900000D01*
X208550000Y-165100000D02*
X208550000Y-165900000D01*
X206950000Y-165900000D02*
X206950000Y-165100000D01*
%TO.C,FB1*%
X210375000Y-144500000D02*
X210375000Y-146500000D01*
X209125000Y-144500000D02*
X210375000Y-144500000D01*
X209125000Y-146500000D02*
X209125000Y-144500000D01*
X210375000Y-146500000D02*
X209125000Y-146500000D01*
%TO.C,D3*%
X206650000Y-155300000D02*
X207350000Y-155300000D01*
X207700000Y-155900000D02*
X206300000Y-155900000D01*
X206300000Y-155900000D02*
X206300000Y-154100000D01*
X207700000Y-154100000D02*
X207700000Y-155900000D01*
X206300000Y-154100000D02*
X207700000Y-154100000D01*
X207350000Y-154800000D02*
X207000000Y-155300000D01*
X207000000Y-155300000D02*
X207000000Y-155500000D01*
X207000000Y-154800000D02*
X207000000Y-154550000D01*
X206650000Y-154800000D02*
X207350000Y-154800000D01*
X207000000Y-155300000D02*
X206650000Y-154800000D01*
%TO.C,C15*%
X193050000Y-165100000D02*
X193050000Y-165900000D01*
X193050000Y-165900000D02*
X191450000Y-165900000D01*
X191450000Y-165100000D02*
X193050000Y-165100000D01*
X191450000Y-165900000D02*
X191450000Y-165100000D01*
%TO.C,R9*%
X196270000Y-108775000D02*
X195730000Y-108775000D01*
X195730000Y-107725000D02*
X196270000Y-107725000D01*
X196270000Y-107725000D02*
X196270000Y-108775000D01*
X195730000Y-108775000D02*
X195730000Y-107725000D01*
%TO.C,C16*%
X202950000Y-165100000D02*
X204550000Y-165100000D01*
X204550000Y-165900000D02*
X202950000Y-165900000D01*
X202950000Y-165900000D02*
X202950000Y-165100000D01*
X204550000Y-165100000D02*
X204550000Y-165900000D01*
%TO.C,R20*%
X204785000Y-154230000D02*
X204785000Y-154770000D01*
X203735000Y-154770000D02*
X203735000Y-154230000D01*
X204785000Y-154770000D02*
X203735000Y-154770000D01*
X203735000Y-154230000D02*
X204785000Y-154230000D01*
%TO.C,D2*%
X198600000Y-107575000D02*
X196900000Y-107575000D01*
X199100000Y-108925000D02*
X196900000Y-108925000D01*
X199100000Y-108925000D02*
X199100000Y-108075000D01*
X196900000Y-108925000D02*
X196900000Y-107575000D01*
X199100000Y-108075000D02*
X198600000Y-107575000D01*
%TO.C,R22*%
X214725000Y-161730000D02*
X215775000Y-161730000D01*
X215775000Y-162270000D02*
X214725000Y-162270000D01*
X214725000Y-162270000D02*
X214725000Y-161730000D01*
X215775000Y-161730000D02*
X215775000Y-162270000D01*
%TO.C,R4*%
X216230000Y-147475000D02*
X216770000Y-147475000D01*
X216230000Y-148525000D02*
X216230000Y-147475000D01*
X216770000Y-148525000D02*
X216230000Y-148525000D01*
X216770000Y-147475000D02*
X216770000Y-148525000D01*
%TO.C,R24*%
X195725000Y-157270000D02*
X195725000Y-156730000D01*
X196775000Y-157270000D02*
X195725000Y-157270000D01*
X196775000Y-156730000D02*
X196775000Y-157270000D01*
X195725000Y-156730000D02*
X196775000Y-156730000D01*
%TO.C,CONN2*%
X214740000Y-119530000D02*
X223260000Y-119530000D01*
X224260000Y-120530000D02*
X224260000Y-123970000D01*
X224260000Y-123970000D02*
X214740000Y-123970000D01*
X214740000Y-123970000D02*
X214740000Y-119530000D01*
X223260000Y-119530000D02*
X224260000Y-120530000D01*
%TO.C,L1*%
X214520000Y-137520000D02*
X219480000Y-137520000D01*
X219480000Y-142480000D02*
X214520000Y-142480000D01*
X214520000Y-142480000D02*
X214520000Y-137520000D01*
X219480000Y-137520000D02*
X219480000Y-142480000D01*
%TO.C,R15*%
X197990000Y-151775000D02*
X197990000Y-150725000D01*
X198530000Y-151775000D02*
X197990000Y-151775000D01*
X198530000Y-150725000D02*
X198530000Y-151775000D01*
X197990000Y-150725000D02*
X198530000Y-150725000D01*
%TO.C,C5*%
X185200000Y-119400000D02*
X185200000Y-118600000D01*
X185200000Y-118600000D02*
X186800000Y-118600000D01*
X186800000Y-118600000D02*
X186800000Y-119400000D01*
X186800000Y-119400000D02*
X185200000Y-119400000D01*
%TO.C,CONN4*%
X201680000Y-105070000D02*
X201680000Y-100300000D01*
X195680000Y-99300000D02*
X196320000Y-99300000D01*
X195050000Y-106100000D02*
X194050000Y-105100000D01*
X197680000Y-105070000D02*
X198320000Y-105070000D01*
X199680000Y-105070000D02*
X200320000Y-105070000D01*
X204320000Y-105070000D02*
X204320000Y-99300000D01*
X203680000Y-105070000D02*
X204320000Y-105070000D01*
X201680000Y-105070000D02*
X202320000Y-105070000D01*
X195680000Y-105070000D02*
X195680000Y-99300000D01*
X203680000Y-105070000D02*
X203680000Y-99300000D01*
X194050000Y-105100000D02*
X194050000Y-98500000D01*
X200320000Y-105070000D02*
X200320000Y-100300000D01*
X203680000Y-99300000D02*
X204320000Y-99300000D01*
X199680000Y-100300000D02*
X200320000Y-100300000D01*
X196320000Y-105070000D02*
X196320000Y-99300000D01*
X202320000Y-105070000D02*
X202320000Y-100300000D01*
X198320000Y-105070000D02*
X198320000Y-100300000D01*
X194050000Y-98500000D02*
X205950000Y-98500000D01*
X205950000Y-106100000D02*
X195050000Y-106100000D01*
X195680000Y-105070000D02*
X196320000Y-105070000D01*
X199680000Y-105070000D02*
X199680000Y-100300000D01*
X201680000Y-100300000D02*
X202320000Y-100300000D01*
X197680000Y-100300000D02*
X198320000Y-100300000D01*
X197680000Y-105070000D02*
X197680000Y-100300000D01*
X205950000Y-98500000D02*
X205950000Y-106100000D01*
%TO.C,R17*%
X196775000Y-153270000D02*
X195725000Y-153270000D01*
X195725000Y-152730000D02*
X196775000Y-152730000D01*
X196775000Y-152730000D02*
X196775000Y-153270000D01*
X195725000Y-153270000D02*
X195725000Y-152730000D01*
%TO.C,R32*%
X185275000Y-161730000D02*
X185275000Y-162270000D01*
X184225000Y-161730000D02*
X185275000Y-161730000D01*
X185275000Y-162270000D02*
X184225000Y-162270000D01*
X184225000Y-162270000D02*
X184225000Y-161730000D01*
%TO.C,C20*%
X222900000Y-156300000D02*
X222100000Y-156300000D01*
X222100000Y-156300000D02*
X222100000Y-154700000D01*
X222900000Y-154700000D02*
X222900000Y-156300000D01*
X222100000Y-154700000D02*
X222900000Y-154700000D01*
%TO.C,R13*%
X206730000Y-149725000D02*
X207270000Y-149725000D01*
X206730000Y-150775000D02*
X206730000Y-149725000D01*
X207270000Y-150775000D02*
X206730000Y-150775000D01*
X207270000Y-149725000D02*
X207270000Y-150775000D01*
%TO.C,R30*%
X201520000Y-159225000D02*
X201520000Y-160275000D01*
X201520000Y-160275000D02*
X200980000Y-160275000D01*
X200980000Y-160275000D02*
X200980000Y-159225000D01*
X200980000Y-159225000D02*
X201520000Y-159225000D01*
%TO.C,C13*%
X203460000Y-152600000D02*
X205060000Y-152600000D01*
X203460000Y-153400000D02*
X203460000Y-152600000D01*
X205060000Y-152600000D02*
X205060000Y-153400000D01*
X205060000Y-153400000D02*
X203460000Y-153400000D01*
%TO.C,C14*%
X203460000Y-157400000D02*
X203460000Y-156600000D01*
X203460000Y-156600000D02*
X205060000Y-156600000D01*
X205060000Y-156600000D02*
X205060000Y-157400000D01*
X205060000Y-157400000D02*
X203460000Y-157400000D01*
%TO.C,C10*%
X191700000Y-156600000D02*
X191700000Y-153400000D01*
X193300000Y-156600000D02*
X191700000Y-156600000D01*
X193300000Y-153400000D02*
X193300000Y-156600000D01*
X191700000Y-153400000D02*
X193300000Y-153400000D01*
%TO.C,C8*%
X213550000Y-138400000D02*
X213550000Y-141600000D01*
X211950000Y-141600000D02*
X211950000Y-138400000D01*
X213550000Y-141600000D02*
X211950000Y-141600000D01*
X211950000Y-138400000D02*
X213550000Y-138400000D01*
%TO.C,D6*%
X216350000Y-164075000D02*
X216350000Y-165425000D01*
X214150000Y-164075000D02*
X214150000Y-164925000D01*
X214650000Y-165425000D02*
X216350000Y-165425000D01*
X214150000Y-164925000D02*
X214650000Y-165425000D01*
X214150000Y-164075000D02*
X216350000Y-164075000D01*
%TO.C,R7*%
X219480000Y-146225000D02*
X220020000Y-146225000D01*
X220020000Y-147275000D02*
X219480000Y-147275000D01*
X219480000Y-147275000D02*
X219480000Y-146225000D01*
X220020000Y-146225000D02*
X220020000Y-147275000D01*
%TO.C,C11*%
X203510000Y-107450000D02*
X204310000Y-107450000D01*
X204310000Y-109050000D02*
X203510000Y-109050000D01*
X204310000Y-107450000D02*
X204310000Y-109050000D01*
X203510000Y-109050000D02*
X203510000Y-107450000D01*
%TO.C,C19*%
X212900000Y-154700000D02*
X212900000Y-156300000D01*
X212100000Y-154700000D02*
X212900000Y-154700000D01*
X212100000Y-156300000D02*
X212100000Y-154700000D01*
X212900000Y-156300000D02*
X212100000Y-156300000D01*
%TO.C,R25*%
X199980000Y-159225000D02*
X200520000Y-159225000D01*
X200520000Y-159225000D02*
X200520000Y-160275000D01*
X199980000Y-160275000D02*
X199980000Y-159225000D01*
X200520000Y-160275000D02*
X199980000Y-160275000D01*
%TO.C,C4*%
X217800000Y-117850000D02*
X217800000Y-118650000D01*
X217800000Y-118650000D02*
X216200000Y-118650000D01*
X216200000Y-117850000D02*
X217800000Y-117850000D01*
X216200000Y-118650000D02*
X216200000Y-117850000D01*
%TO.C,C2*%
X209100000Y-128800000D02*
X209100000Y-127200000D01*
X209100000Y-127200000D02*
X209900000Y-127200000D01*
X209900000Y-128800000D02*
X209100000Y-128800000D01*
X209900000Y-127200000D02*
X209900000Y-128800000D01*
%TO.C,R33*%
X187700000Y-161587500D02*
X189300000Y-161587500D01*
X189300000Y-161587500D02*
X189300000Y-162412500D01*
X189300000Y-162412500D02*
X187700000Y-162412500D01*
X187700000Y-162412500D02*
X187700000Y-161587500D01*
%TO.C,R3*%
X215230000Y-148525000D02*
X215230000Y-147475000D01*
X215770000Y-148525000D02*
X215230000Y-148525000D01*
X215770000Y-147475000D02*
X215770000Y-148525000D01*
X215230000Y-147475000D02*
X215770000Y-147475000D01*
%TO.C,R5*%
X217230000Y-148525000D02*
X217230000Y-147475000D01*
X217770000Y-148525000D02*
X217230000Y-148525000D01*
X217230000Y-147475000D02*
X217770000Y-147475000D01*
X217770000Y-147475000D02*
X217770000Y-148525000D01*
%TO.C,C18*%
X182400000Y-169200000D02*
X182400000Y-170800000D01*
X182400000Y-170800000D02*
X181600000Y-170800000D01*
X181600000Y-169200000D02*
X182400000Y-169200000D01*
X181600000Y-170800000D02*
X181600000Y-169200000D01*
%TO.C,C12*%
X202500000Y-149750000D02*
X202500000Y-150750000D01*
X202000000Y-149750000D02*
X202500000Y-149750000D01*
X202000000Y-150750000D02*
X202000000Y-149750000D01*
X202500000Y-150750000D02*
X202000000Y-150750000D01*
%TO.C,Q2*%
X188325000Y-163650000D02*
X187825000Y-164150000D01*
X189175000Y-163650000D02*
X189175000Y-165850000D01*
X189175000Y-163650000D02*
X188325000Y-163650000D01*
X189175000Y-165850000D02*
X187825000Y-165850000D01*
X187825000Y-164150000D02*
X187825000Y-165850000D01*
%TO.C,D4*%
X198900000Y-164925000D02*
X199400000Y-165425000D01*
X199400000Y-165425000D02*
X201100000Y-165425000D01*
X198900000Y-164075000D02*
X198900000Y-164925000D01*
X201100000Y-164075000D02*
X201100000Y-165425000D01*
X198900000Y-164075000D02*
X201100000Y-164075000D01*
%TO.C,R27*%
X198520000Y-158225000D02*
X198520000Y-159275000D01*
X197980000Y-158225000D02*
X198520000Y-158225000D01*
X197980000Y-159275000D02*
X197980000Y-158225000D01*
X198520000Y-159275000D02*
X197980000Y-159275000D01*
%TO.C,D1*%
X187100000Y-125925000D02*
X187100000Y-125075000D01*
X187100000Y-125075000D02*
X186600000Y-124575000D01*
X186600000Y-124575000D02*
X184900000Y-124575000D01*
X187100000Y-125925000D02*
X184900000Y-125925000D01*
X184900000Y-125925000D02*
X184900000Y-124575000D01*
%TO.C,C3*%
X217300000Y-128600000D02*
X215700000Y-128600000D01*
X217300000Y-125400000D02*
X217300000Y-128600000D01*
X215700000Y-125400000D02*
X217300000Y-125400000D01*
X215700000Y-128600000D02*
X215700000Y-125400000D01*
%TO.C,R10*%
X200270000Y-107725000D02*
X200270000Y-108775000D01*
X199730000Y-107725000D02*
X200270000Y-107725000D01*
X200270000Y-108775000D02*
X199730000Y-108775000D01*
X199730000Y-108775000D02*
X199730000Y-107725000D01*
%TO.C,R19*%
X195725000Y-155270000D02*
X195725000Y-154730000D01*
X195725000Y-154730000D02*
X196775000Y-154730000D01*
X196775000Y-155270000D02*
X195725000Y-155270000D01*
X196775000Y-154730000D02*
X196775000Y-155270000D01*
%TO.C,U2*%
X217850000Y-143450000D02*
X216925000Y-143450000D01*
X217850000Y-143450000D02*
X217850000Y-146550000D01*
X217850000Y-146550000D02*
X216150000Y-146550000D01*
X216925000Y-143450000D02*
X216150000Y-144225000D01*
X216150000Y-144225000D02*
X216150000Y-146550000D01*
%TO.C,C1*%
X212300000Y-125400000D02*
X212300000Y-128600000D01*
X210700000Y-128600000D02*
X210700000Y-125400000D01*
X212300000Y-128600000D02*
X210700000Y-128600000D01*
X210700000Y-125400000D02*
X212300000Y-125400000D01*
%TO.C,R2*%
X220495000Y-128600000D02*
X218005000Y-128600000D01*
X218005000Y-125400000D02*
X220495000Y-125400000D01*
X218005000Y-128600000D02*
X218005000Y-125400000D01*
X220495000Y-125400000D02*
X220495000Y-128600000D01*
%TO.C,CONN3*%
X190445000Y-120480000D02*
X191080000Y-121115000D01*
X180920000Y-120480000D02*
X190445000Y-120480000D01*
X191080000Y-121115000D02*
X191080000Y-123020000D01*
X180920000Y-123020000D02*
X180920000Y-120480000D01*
X191080000Y-123020000D02*
X180920000Y-123020000D01*
%TO.C,R16*%
X196990000Y-151775000D02*
X196990000Y-150725000D01*
X196990000Y-150725000D02*
X197530000Y-150725000D01*
X197530000Y-151775000D02*
X196990000Y-151775000D01*
X197530000Y-150725000D02*
X197530000Y-151775000D01*
%TO.C,R29*%
X202520000Y-160275000D02*
X201980000Y-160275000D01*
X201980000Y-159225000D02*
X202520000Y-159225000D01*
X202520000Y-159225000D02*
X202520000Y-160275000D01*
X201980000Y-160275000D02*
X201980000Y-159225000D01*
%TO.C,C6*%
X212950000Y-147100000D02*
X212950000Y-143900000D01*
X214550000Y-143900000D02*
X214550000Y-147100000D01*
X214550000Y-147100000D02*
X212950000Y-147100000D01*
X212950000Y-143900000D02*
X214550000Y-143900000D01*
%TO.C,R31*%
X196775000Y-156270000D02*
X195725000Y-156270000D01*
X195725000Y-155730000D02*
X196775000Y-155730000D01*
X196775000Y-155730000D02*
X196775000Y-156270000D01*
X195725000Y-156270000D02*
X195725000Y-155730000D01*
%TO.C,R23*%
X210975000Y-162270000D02*
X210975000Y-161730000D01*
X212025000Y-162270000D02*
X210975000Y-162270000D01*
X210975000Y-161730000D02*
X212025000Y-161730000D01*
X212025000Y-161730000D02*
X212025000Y-162270000D01*
%TO.C,C7*%
X221000000Y-143750000D02*
X220500000Y-143750000D01*
X220500000Y-143750000D02*
X220500000Y-142750000D01*
X220500000Y-142750000D02*
X221000000Y-142750000D01*
X221000000Y-142750000D02*
X221000000Y-143750000D01*
%TO.C,CONN6*%
X216520000Y-151690000D02*
X216520000Y-158675000D01*
X216520000Y-158675000D02*
X215885000Y-159310000D01*
X213980000Y-151690000D02*
X216520000Y-151690000D01*
X215885000Y-159310000D02*
X213980000Y-159310000D01*
X213980000Y-159310000D02*
X213980000Y-151690000D01*
%TO.C,R6*%
X218230000Y-147475000D02*
X218770000Y-147475000D01*
X218230000Y-148525000D02*
X218230000Y-147475000D01*
X218770000Y-147475000D02*
X218770000Y-148525000D01*
X218770000Y-148525000D02*
X218230000Y-148525000D01*
%TO.C,U1*%
X215030000Y-128030000D02*
X212970000Y-128030000D01*
X215030000Y-125970000D02*
X215030000Y-128030000D01*
X212970000Y-128030000D02*
X212970000Y-126490000D01*
X213490000Y-125970000D02*
X215030000Y-125970000D01*
X212970000Y-126490000D02*
X213490000Y-125970000D01*
%TO.C,R12*%
X199990000Y-150775000D02*
X199990000Y-149725000D01*
X199990000Y-149725000D02*
X200530000Y-149725000D01*
X200530000Y-150775000D02*
X199990000Y-150775000D01*
X200530000Y-149725000D02*
X200530000Y-150775000D01*
%TO.C,R18*%
X196785000Y-153730000D02*
X196785000Y-154270000D01*
X195735000Y-154270000D02*
X195735000Y-153730000D01*
X195735000Y-153730000D02*
X196785000Y-153730000D01*
X196785000Y-154270000D02*
X195735000Y-154270000D01*
%TD*%
M02*
