%TF.GenerationSoftware,KiCad,Pcbnew,6.0.11-3.fc37*%
%TF.CreationDate,2023-08-14T12:31:07+01:00*%
%TF.ProjectId,kitchen-led-strips,6b697463-6865-46e2-9d6c-65642d737472,1.0*%
%TF.SameCoordinates,Original*%
%TF.FileFunction,Drillmap*%
%TF.FilePolarity,Positive*%
%FSLAX45Y45*%
G04 Gerber Fmt 4.5, Leading zero omitted, Abs format (unit mm)*
G04 Created by KiCad (PCBNEW 6.0.11-3.fc37) date 2023-08-14 12:31:07*
%MOMM*%
%LPD*%
G01*
G04 APERTURE LIST*
%ADD10C,0.200000*%
G04 APERTURE END LIST*
D10*
X17800000Y-10700000D02*
X19400000Y-10700000D01*
X19400000Y-10000000D01*
X20600000Y-10000000D01*
X20600000Y-10700000D01*
X22200000Y-10700000D01*
X22200000Y-10000000D01*
X22750000Y-10000000D01*
X22750000Y-18000000D01*
X17250000Y-18000000D01*
X17250000Y-10000000D01*
X17800000Y-10000000D01*
X17800000Y-10700000D01*
X17497619Y-18320476D02*
X17497619Y-18120476D01*
X17545238Y-18120476D01*
X17573810Y-18130000D01*
X17592857Y-18149048D01*
X17602381Y-18168095D01*
X17611905Y-18206190D01*
X17611905Y-18234762D01*
X17602381Y-18272857D01*
X17592857Y-18291905D01*
X17573810Y-18310952D01*
X17545238Y-18320476D01*
X17497619Y-18320476D01*
X17697619Y-18320476D02*
X17697619Y-18187143D01*
X17697619Y-18225238D02*
X17707143Y-18206190D01*
X17716667Y-18196667D01*
X17735714Y-18187143D01*
X17754762Y-18187143D01*
X17821429Y-18320476D02*
X17821429Y-18187143D01*
X17821429Y-18120476D02*
X17811905Y-18130000D01*
X17821429Y-18139524D01*
X17830952Y-18130000D01*
X17821429Y-18120476D01*
X17821429Y-18139524D01*
X17945238Y-18320476D02*
X17926190Y-18310952D01*
X17916667Y-18291905D01*
X17916667Y-18120476D01*
X18050000Y-18320476D02*
X18030952Y-18310952D01*
X18021429Y-18291905D01*
X18021429Y-18120476D01*
X18278571Y-18320476D02*
X18278571Y-18120476D01*
X18345238Y-18263333D01*
X18411905Y-18120476D01*
X18411905Y-18320476D01*
X18592857Y-18320476D02*
X18592857Y-18215714D01*
X18583333Y-18196667D01*
X18564286Y-18187143D01*
X18526190Y-18187143D01*
X18507143Y-18196667D01*
X18592857Y-18310952D02*
X18573810Y-18320476D01*
X18526190Y-18320476D01*
X18507143Y-18310952D01*
X18497619Y-18291905D01*
X18497619Y-18272857D01*
X18507143Y-18253810D01*
X18526190Y-18244286D01*
X18573810Y-18244286D01*
X18592857Y-18234762D01*
X18688095Y-18187143D02*
X18688095Y-18387143D01*
X18688095Y-18196667D02*
X18707143Y-18187143D01*
X18745238Y-18187143D01*
X18764286Y-18196667D01*
X18773810Y-18206190D01*
X18783333Y-18225238D01*
X18783333Y-18282381D01*
X18773810Y-18301429D01*
X18764286Y-18310952D01*
X18745238Y-18320476D01*
X18707143Y-18320476D01*
X18688095Y-18310952D01*
X18869048Y-18301429D02*
X18878571Y-18310952D01*
X18869048Y-18320476D01*
X18859524Y-18310952D01*
X18869048Y-18301429D01*
X18869048Y-18320476D01*
X18869048Y-18196667D02*
X18878571Y-18206190D01*
X18869048Y-18215714D01*
X18859524Y-18206190D01*
X18869048Y-18196667D01*
X18869048Y-18215714D01*
M02*
