%TF.GenerationSoftware,KiCad,Pcbnew,6.0.11-3.fc37*%
%TF.CreationDate,2023-08-14T12:31:07+01:00*%
%TF.ProjectId,kitchen-led-strips,6b697463-6865-46e2-9d6c-65642d737472,1.0*%
%TF.SameCoordinates,Original*%
%TF.FileFunction,Drillmap*%
%TF.FilePolarity,Positive*%
%FSLAX45Y45*%
G04 Gerber Fmt 4.5, Leading zero omitted, Abs format (unit mm)*
G04 Created by KiCad (PCBNEW 6.0.11-3.fc37) date 2023-08-14 12:31:07*
%MOMM*%
%LPD*%
G01*
G04 APERTURE LIST*
%ADD10C,0.200000*%
%ADD11C,0.030000*%
%ADD12C,0.070000*%
%ADD13C,0.100000*%
%ADD14C,0.140000*%
%ADD15C,0.180000*%
G04 APERTURE END LIST*
D10*
X17800000Y-10700000D02*
X19400000Y-10700000D01*
X19400000Y-10000000D01*
X20600000Y-10000000D01*
X20600000Y-10700000D01*
X22200000Y-10700000D01*
X22200000Y-10000000D01*
X22750000Y-10000000D01*
X22750000Y-18000000D01*
X17250000Y-18000000D01*
X17250000Y-10000000D01*
X17800000Y-10000000D01*
X17800000Y-10700000D01*
D11*
X17535000Y-10235000D02*
X17565000Y-10265000D01*
X17565000Y-10235000D02*
X17535000Y-10265000D01*
X17535000Y-10435000D02*
X17565000Y-10465000D01*
X17565000Y-10435000D02*
X17535000Y-10465000D01*
X17535000Y-10635000D02*
X17565000Y-10665000D01*
X17565000Y-10635000D02*
X17535000Y-10665000D01*
X17535000Y-10835000D02*
X17565000Y-10865000D01*
X17565000Y-10835000D02*
X17535000Y-10865000D01*
X17535000Y-11035000D02*
X17565000Y-11065000D01*
X17565000Y-11035000D02*
X17535000Y-11065000D01*
X17535000Y-11235000D02*
X17565000Y-11265000D01*
X17565000Y-11235000D02*
X17535000Y-11265000D01*
X17535000Y-11435000D02*
X17565000Y-11465000D01*
X17565000Y-11435000D02*
X17535000Y-11465000D01*
X17535000Y-11635000D02*
X17565000Y-11665000D01*
X17565000Y-11635000D02*
X17535000Y-11665000D01*
X17535000Y-11835000D02*
X17565000Y-11865000D01*
X17565000Y-11835000D02*
X17535000Y-11865000D01*
X17535000Y-12035000D02*
X17565000Y-12065000D01*
X17565000Y-12035000D02*
X17535000Y-12065000D01*
X17535000Y-12235000D02*
X17565000Y-12265000D01*
X17565000Y-12235000D02*
X17535000Y-12265000D01*
X17535000Y-12435000D02*
X17565000Y-12465000D01*
X17565000Y-12435000D02*
X17535000Y-12465000D01*
X17535000Y-12635000D02*
X17565000Y-12665000D01*
X17565000Y-12635000D02*
X17535000Y-12665000D01*
X17535000Y-12835000D02*
X17565000Y-12865000D01*
X17565000Y-12835000D02*
X17535000Y-12865000D01*
X17535000Y-13035000D02*
X17565000Y-13065000D01*
X17565000Y-13035000D02*
X17535000Y-13065000D01*
X17535000Y-13235000D02*
X17565000Y-13265000D01*
X17565000Y-13235000D02*
X17535000Y-13265000D01*
X17535000Y-13435000D02*
X17565000Y-13465000D01*
X17565000Y-13435000D02*
X17535000Y-13465000D01*
X17535000Y-13635000D02*
X17565000Y-13665000D01*
X17565000Y-13635000D02*
X17535000Y-13665000D01*
X17535000Y-13835000D02*
X17565000Y-13865000D01*
X17565000Y-13835000D02*
X17535000Y-13865000D01*
X17535000Y-14035000D02*
X17565000Y-14065000D01*
X17565000Y-14035000D02*
X17535000Y-14065000D01*
X17535000Y-14235000D02*
X17565000Y-14265000D01*
X17565000Y-14235000D02*
X17535000Y-14265000D01*
X17535000Y-14435000D02*
X17565000Y-14465000D01*
X17565000Y-14435000D02*
X17535000Y-14465000D01*
X17535000Y-14635000D02*
X17565000Y-14665000D01*
X17565000Y-14635000D02*
X17535000Y-14665000D01*
X17535000Y-14835000D02*
X17565000Y-14865000D01*
X17565000Y-14835000D02*
X17535000Y-14865000D01*
X17535000Y-15035000D02*
X17565000Y-15065000D01*
X17565000Y-15035000D02*
X17535000Y-15065000D01*
X17535000Y-15235000D02*
X17565000Y-15265000D01*
X17565000Y-15235000D02*
X17535000Y-15265000D01*
X17535000Y-15435000D02*
X17565000Y-15465000D01*
X17565000Y-15435000D02*
X17535000Y-15465000D01*
X17535000Y-15635000D02*
X17565000Y-15665000D01*
X17565000Y-15635000D02*
X17535000Y-15665000D01*
X17535000Y-15835000D02*
X17565000Y-15865000D01*
X17565000Y-15835000D02*
X17535000Y-15865000D01*
X17535000Y-16035000D02*
X17565000Y-16065000D01*
X17565000Y-16035000D02*
X17535000Y-16065000D01*
X17535000Y-16235000D02*
X17565000Y-16265000D01*
X17565000Y-16235000D02*
X17535000Y-16265000D01*
X17535000Y-16435000D02*
X17565000Y-16465000D01*
X17565000Y-16435000D02*
X17535000Y-16465000D01*
X17535000Y-16635000D02*
X17565000Y-16665000D01*
X17565000Y-16635000D02*
X17535000Y-16665000D01*
X17535000Y-16835000D02*
X17565000Y-16865000D01*
X17565000Y-16835000D02*
X17535000Y-16865000D01*
X17535000Y-17035000D02*
X17565000Y-17065000D01*
X17565000Y-17035000D02*
X17535000Y-17065000D01*
X17535000Y-17235000D02*
X17565000Y-17265000D01*
X17565000Y-17235000D02*
X17535000Y-17265000D01*
X17535000Y-17435000D02*
X17565000Y-17465000D01*
X17565000Y-17435000D02*
X17535000Y-17465000D01*
X17535000Y-17635000D02*
X17565000Y-17665000D01*
X17565000Y-17635000D02*
X17535000Y-17665000D01*
X17535000Y-17835000D02*
X17565000Y-17865000D01*
X17565000Y-17835000D02*
X17535000Y-17865000D01*
X17635000Y-10935000D02*
X17665000Y-10965000D01*
X17665000Y-10935000D02*
X17635000Y-10965000D01*
X17635000Y-11135000D02*
X17665000Y-11165000D01*
X17665000Y-11135000D02*
X17635000Y-11165000D01*
X17635000Y-11335000D02*
X17665000Y-11365000D01*
X17665000Y-11335000D02*
X17635000Y-11365000D01*
X17635000Y-11535000D02*
X17665000Y-11565000D01*
X17665000Y-11535000D02*
X17635000Y-11565000D01*
X17635000Y-11735000D02*
X17665000Y-11765000D01*
X17665000Y-11735000D02*
X17635000Y-11765000D01*
X17635000Y-11935000D02*
X17665000Y-11965000D01*
X17665000Y-11935000D02*
X17635000Y-11965000D01*
X17635000Y-12135000D02*
X17665000Y-12165000D01*
X17665000Y-12135000D02*
X17635000Y-12165000D01*
X17635000Y-12335000D02*
X17665000Y-12365000D01*
X17665000Y-12335000D02*
X17635000Y-12365000D01*
X17635000Y-12535000D02*
X17665000Y-12565000D01*
X17665000Y-12535000D02*
X17635000Y-12565000D01*
X17635000Y-12735000D02*
X17665000Y-12765000D01*
X17665000Y-12735000D02*
X17635000Y-12765000D01*
X17635000Y-12935000D02*
X17665000Y-12965000D01*
X17665000Y-12935000D02*
X17635000Y-12965000D01*
X17635000Y-13135000D02*
X17665000Y-13165000D01*
X17665000Y-13135000D02*
X17635000Y-13165000D01*
X17635000Y-13335000D02*
X17665000Y-13365000D01*
X17665000Y-13335000D02*
X17635000Y-13365000D01*
X17635000Y-13535000D02*
X17665000Y-13565000D01*
X17665000Y-13535000D02*
X17635000Y-13565000D01*
X17635000Y-13735000D02*
X17665000Y-13765000D01*
X17665000Y-13735000D02*
X17635000Y-13765000D01*
X17635000Y-13935000D02*
X17665000Y-13965000D01*
X17665000Y-13935000D02*
X17635000Y-13965000D01*
X17635000Y-14135000D02*
X17665000Y-14165000D01*
X17665000Y-14135000D02*
X17635000Y-14165000D01*
X17635000Y-14335000D02*
X17665000Y-14365000D01*
X17665000Y-14335000D02*
X17635000Y-14365000D01*
X17635000Y-14535000D02*
X17665000Y-14565000D01*
X17665000Y-14535000D02*
X17635000Y-14565000D01*
X17635000Y-14735000D02*
X17665000Y-14765000D01*
X17665000Y-14735000D02*
X17635000Y-14765000D01*
X17635000Y-14935000D02*
X17665000Y-14965000D01*
X17665000Y-14935000D02*
X17635000Y-14965000D01*
X17635000Y-15135000D02*
X17665000Y-15165000D01*
X17665000Y-15135000D02*
X17635000Y-15165000D01*
X17635000Y-15335000D02*
X17665000Y-15365000D01*
X17665000Y-15335000D02*
X17635000Y-15365000D01*
X17635000Y-15535000D02*
X17665000Y-15565000D01*
X17665000Y-15535000D02*
X17635000Y-15565000D01*
X17635000Y-15735000D02*
X17665000Y-15765000D01*
X17665000Y-15735000D02*
X17635000Y-15765000D01*
X17635000Y-15935000D02*
X17665000Y-15965000D01*
X17665000Y-15935000D02*
X17635000Y-15965000D01*
X17635000Y-16135000D02*
X17665000Y-16165000D01*
X17665000Y-16135000D02*
X17635000Y-16165000D01*
X17635000Y-16335000D02*
X17665000Y-16365000D01*
X17665000Y-16335000D02*
X17635000Y-16365000D01*
X17635000Y-16535000D02*
X17665000Y-16565000D01*
X17665000Y-16535000D02*
X17635000Y-16565000D01*
X17635000Y-16735000D02*
X17665000Y-16765000D01*
X17665000Y-16735000D02*
X17635000Y-16765000D01*
X17635000Y-16935000D02*
X17665000Y-16965000D01*
X17665000Y-16935000D02*
X17635000Y-16965000D01*
X17635000Y-17135000D02*
X17665000Y-17165000D01*
X17665000Y-17135000D02*
X17635000Y-17165000D01*
X17635000Y-17335000D02*
X17665000Y-17365000D01*
X17665000Y-17335000D02*
X17635000Y-17365000D01*
X17635000Y-17535000D02*
X17665000Y-17565000D01*
X17665000Y-17535000D02*
X17635000Y-17565000D01*
X17635000Y-17735000D02*
X17665000Y-17765000D01*
X17665000Y-17735000D02*
X17635000Y-17765000D01*
X17735000Y-11235000D02*
X17765000Y-11265000D01*
X17765000Y-11235000D02*
X17735000Y-11265000D01*
X17735000Y-17835000D02*
X17765000Y-17865000D01*
X17765000Y-17835000D02*
X17735000Y-17865000D01*
X17835000Y-11335000D02*
X17865000Y-11365000D01*
X17865000Y-11335000D02*
X17835000Y-11365000D01*
X17835000Y-11885000D02*
X17865000Y-11915000D01*
X17865000Y-11885000D02*
X17835000Y-11915000D01*
X17835000Y-17735000D02*
X17865000Y-17765000D01*
X17865000Y-17735000D02*
X17835000Y-17765000D01*
X17885000Y-12210000D02*
X17915000Y-12240000D01*
X17915000Y-12210000D02*
X17885000Y-12240000D01*
X17910000Y-16310000D02*
X17940000Y-16340000D01*
X17940000Y-16310000D02*
X17910000Y-16340000D01*
X17935000Y-11235000D02*
X17965000Y-11265000D01*
X17965000Y-11235000D02*
X17935000Y-11265000D01*
X17935000Y-17235000D02*
X17965000Y-17265000D01*
X17965000Y-17235000D02*
X17935000Y-17265000D01*
X17935000Y-17435000D02*
X17965000Y-17465000D01*
X17965000Y-17435000D02*
X17935000Y-17465000D01*
X17935000Y-17635000D02*
X17965000Y-17665000D01*
X17965000Y-17635000D02*
X17935000Y-17665000D01*
X17935000Y-17835000D02*
X17965000Y-17865000D01*
X17965000Y-17835000D02*
X17935000Y-17865000D01*
X17960000Y-11560000D02*
X17990000Y-11590000D01*
X17990000Y-11560000D02*
X17960000Y-11590000D01*
X18035000Y-11335000D02*
X18065000Y-11365000D01*
X18065000Y-11335000D02*
X18035000Y-11365000D01*
X18035000Y-17735000D02*
X18065000Y-17765000D01*
X18065000Y-17735000D02*
X18035000Y-17765000D01*
X18085000Y-12660000D02*
X18115000Y-12690000D01*
X18115000Y-12660000D02*
X18085000Y-12690000D01*
X18085000Y-16610000D02*
X18115000Y-16640000D01*
X18115000Y-16610000D02*
X18085000Y-16640000D01*
X18110000Y-16935000D02*
X18140000Y-16965000D01*
X18140000Y-16935000D02*
X18110000Y-16965000D01*
X18110000Y-17035000D02*
X18140000Y-17065000D01*
X18140000Y-17035000D02*
X18110000Y-17065000D01*
X18135000Y-11235000D02*
X18165000Y-11265000D01*
X18165000Y-11235000D02*
X18135000Y-11265000D01*
X18135000Y-17335000D02*
X18165000Y-17365000D01*
X18165000Y-17335000D02*
X18135000Y-17365000D01*
X18135000Y-17535000D02*
X18165000Y-17565000D01*
X18165000Y-17535000D02*
X18135000Y-17565000D01*
X18135000Y-17835000D02*
X18165000Y-17865000D01*
X18165000Y-17835000D02*
X18135000Y-17865000D01*
X18160000Y-14160000D02*
X18190000Y-14190000D01*
X18190000Y-14160000D02*
X18160000Y-14190000D01*
X18185000Y-16835000D02*
X18215000Y-16865000D01*
X18215000Y-16835000D02*
X18185000Y-16865000D01*
X18185000Y-17135000D02*
X18215000Y-17165000D01*
X18215000Y-17135000D02*
X18185000Y-17165000D01*
X18235000Y-11335000D02*
X18265000Y-11365000D01*
X18265000Y-11335000D02*
X18235000Y-11365000D01*
X18235000Y-17735000D02*
X18265000Y-17765000D01*
X18265000Y-17735000D02*
X18235000Y-17765000D01*
X18260000Y-16935000D02*
X18290000Y-16965000D01*
X18290000Y-16935000D02*
X18260000Y-16965000D01*
X18260000Y-17035000D02*
X18290000Y-17065000D01*
X18290000Y-17035000D02*
X18260000Y-17065000D01*
X18335000Y-11235000D02*
X18365000Y-11265000D01*
X18365000Y-11235000D02*
X18335000Y-11265000D01*
X18335000Y-14785000D02*
X18365000Y-14815000D01*
X18365000Y-14785000D02*
X18335000Y-14815000D01*
X18335000Y-15960000D02*
X18365000Y-15990000D01*
X18365000Y-15960000D02*
X18335000Y-15990000D01*
X18335000Y-17835000D02*
X18365000Y-17865000D01*
X18365000Y-17835000D02*
X18335000Y-17865000D01*
X18360000Y-14385000D02*
X18390000Y-14415000D01*
X18390000Y-14385000D02*
X18360000Y-14415000D01*
X18410000Y-14185000D02*
X18440000Y-14215000D01*
X18440000Y-14185000D02*
X18410000Y-14215000D01*
X18410000Y-14585000D02*
X18440000Y-14615000D01*
X18440000Y-14585000D02*
X18410000Y-14615000D01*
X18410000Y-16285000D02*
X18440000Y-16315000D01*
X18440000Y-16285000D02*
X18410000Y-16315000D01*
X18435000Y-11335000D02*
X18465000Y-11365000D01*
X18465000Y-11335000D02*
X18435000Y-11365000D01*
X18435000Y-11885000D02*
X18465000Y-11915000D01*
X18465000Y-11885000D02*
X18435000Y-11915000D01*
X18435000Y-13510000D02*
X18465000Y-13540000D01*
X18465000Y-13510000D02*
X18435000Y-13540000D01*
X18435000Y-17735000D02*
X18465000Y-17765000D01*
X18465000Y-17735000D02*
X18435000Y-17765000D01*
X18460000Y-16370000D02*
X18490000Y-16400000D01*
X18490000Y-16370000D02*
X18460000Y-16400000D01*
X18460000Y-16490000D02*
X18490000Y-16520000D01*
X18490000Y-16490000D02*
X18460000Y-16520000D01*
X18460000Y-16620000D02*
X18490000Y-16650000D01*
X18490000Y-16620000D02*
X18460000Y-16650000D01*
X18470000Y-12410000D02*
X18500000Y-12440000D01*
X18500000Y-12410000D02*
X18470000Y-12440000D01*
X18485000Y-14735000D02*
X18515000Y-14765000D01*
X18515000Y-14735000D02*
X18485000Y-14765000D01*
X18510000Y-11810000D02*
X18540000Y-11840000D01*
X18540000Y-11810000D02*
X18510000Y-11840000D01*
X18510000Y-11960000D02*
X18540000Y-11990000D01*
X18540000Y-11960000D02*
X18510000Y-11990000D01*
X18535000Y-11235000D02*
X18565000Y-11265000D01*
X18565000Y-11235000D02*
X18535000Y-11265000D01*
X18535000Y-13310000D02*
X18565000Y-13340000D01*
X18565000Y-13310000D02*
X18535000Y-13340000D01*
X18535000Y-13435000D02*
X18565000Y-13465000D01*
X18565000Y-13435000D02*
X18535000Y-13465000D01*
X18535000Y-14510000D02*
X18565000Y-14540000D01*
X18565000Y-14510000D02*
X18535000Y-14540000D01*
X18535000Y-14885000D02*
X18565000Y-14915000D01*
X18565000Y-14885000D02*
X18535000Y-14915000D01*
X18535000Y-16435000D02*
X18565000Y-16465000D01*
X18565000Y-16435000D02*
X18535000Y-16465000D01*
X18535000Y-17835000D02*
X18565000Y-17865000D01*
X18565000Y-17835000D02*
X18535000Y-17865000D01*
X18585000Y-12335000D02*
X18615000Y-12365000D01*
X18615000Y-12335000D02*
X18585000Y-12365000D01*
X18585000Y-12485000D02*
X18615000Y-12515000D01*
X18615000Y-12485000D02*
X18585000Y-12515000D01*
X18585000Y-13560000D02*
X18615000Y-13590000D01*
X18615000Y-13560000D02*
X18585000Y-13590000D01*
X18585000Y-14360000D02*
X18615000Y-14390000D01*
X18615000Y-14360000D02*
X18585000Y-14390000D01*
X18585000Y-16185000D02*
X18615000Y-16215000D01*
X18615000Y-16185000D02*
X18585000Y-16215000D01*
X18585000Y-16310000D02*
X18615000Y-16340000D01*
X18615000Y-16310000D02*
X18585000Y-16340000D01*
X18610000Y-14685000D02*
X18640000Y-14715000D01*
X18640000Y-14685000D02*
X18610000Y-14715000D01*
X18635000Y-11335000D02*
X18665000Y-11365000D01*
X18665000Y-11335000D02*
X18635000Y-11365000D01*
X18635000Y-13335000D02*
X18665000Y-13365000D01*
X18665000Y-13335000D02*
X18635000Y-13365000D01*
X18635000Y-14935000D02*
X18665000Y-14965000D01*
X18665000Y-14935000D02*
X18635000Y-14965000D01*
X18635000Y-17735000D02*
X18665000Y-17765000D01*
X18665000Y-17735000D02*
X18635000Y-17765000D01*
X18700000Y-12410000D02*
X18730000Y-12440000D01*
X18730000Y-12410000D02*
X18700000Y-12440000D01*
X18710000Y-14485000D02*
X18740000Y-14515000D01*
X18740000Y-14485000D02*
X18710000Y-14515000D01*
X18710000Y-14785000D02*
X18740000Y-14815000D01*
X18740000Y-14785000D02*
X18710000Y-14815000D01*
X18735000Y-11235000D02*
X18765000Y-11265000D01*
X18765000Y-11235000D02*
X18735000Y-11265000D01*
X18735000Y-17835000D02*
X18765000Y-17865000D01*
X18765000Y-17835000D02*
X18735000Y-17865000D01*
X18740000Y-16330000D02*
X18770000Y-16360000D01*
X18770000Y-16330000D02*
X18740000Y-16360000D01*
X18760000Y-11510000D02*
X18790000Y-11540000D01*
X18790000Y-11510000D02*
X18760000Y-11540000D01*
X18815000Y-16395000D02*
X18845000Y-16425000D01*
X18845000Y-16395000D02*
X18815000Y-16425000D01*
X18835000Y-11335000D02*
X18865000Y-11365000D01*
X18865000Y-11335000D02*
X18835000Y-11365000D01*
X18835000Y-17735000D02*
X18865000Y-17765000D01*
X18865000Y-17735000D02*
X18835000Y-17765000D01*
X18910000Y-16110000D02*
X18940000Y-16140000D01*
X18940000Y-16110000D02*
X18910000Y-16140000D01*
X18910000Y-16260000D02*
X18940000Y-16290000D01*
X18940000Y-16260000D02*
X18910000Y-16290000D01*
X18935000Y-11235000D02*
X18965000Y-11265000D01*
X18965000Y-11235000D02*
X18935000Y-11265000D01*
X18935000Y-17835000D02*
X18965000Y-17865000D01*
X18965000Y-17835000D02*
X18935000Y-17865000D01*
X18985000Y-14210000D02*
X19015000Y-14240000D01*
X19015000Y-14210000D02*
X18985000Y-14240000D01*
X18985000Y-16185000D02*
X19015000Y-16215000D01*
X19015000Y-16185000D02*
X18985000Y-16215000D01*
X19010000Y-15160000D02*
X19040000Y-15190000D01*
X19040000Y-15160000D02*
X19010000Y-15190000D01*
X19035000Y-11335000D02*
X19065000Y-11365000D01*
X19065000Y-11335000D02*
X19035000Y-11365000D01*
X19035000Y-17735000D02*
X19065000Y-17765000D01*
X19065000Y-17735000D02*
X19035000Y-17765000D01*
X19060000Y-15885000D02*
X19090000Y-15915000D01*
X19090000Y-15885000D02*
X19060000Y-15915000D01*
X19060000Y-16535000D02*
X19090000Y-16565000D01*
X19090000Y-16535000D02*
X19060000Y-16565000D01*
X19135000Y-11235000D02*
X19165000Y-11265000D01*
X19165000Y-11235000D02*
X19135000Y-11265000D01*
X19135000Y-15435000D02*
X19165000Y-15465000D01*
X19165000Y-15435000D02*
X19135000Y-15465000D01*
X19135000Y-15535000D02*
X19165000Y-15565000D01*
X19165000Y-15535000D02*
X19135000Y-15565000D01*
X19135000Y-17835000D02*
X19165000Y-17865000D01*
X19165000Y-17835000D02*
X19135000Y-17865000D01*
X19160000Y-16460000D02*
X19190000Y-16490000D01*
X19190000Y-16460000D02*
X19160000Y-16490000D01*
X19160000Y-16610000D02*
X19190000Y-16640000D01*
X19190000Y-16610000D02*
X19160000Y-16640000D01*
X19185000Y-13985000D02*
X19215000Y-14015000D01*
X19215000Y-13985000D02*
X19185000Y-14015000D01*
X19235000Y-11335000D02*
X19265000Y-11365000D01*
X19265000Y-11335000D02*
X19235000Y-11365000D01*
X19235000Y-12685000D02*
X19265000Y-12715000D01*
X19265000Y-12685000D02*
X19235000Y-12715000D01*
X19235000Y-15435000D02*
X19265000Y-15465000D01*
X19265000Y-15435000D02*
X19235000Y-15465000D01*
X19235000Y-15535000D02*
X19265000Y-15565000D01*
X19265000Y-15535000D02*
X19235000Y-15565000D01*
X19235000Y-17735000D02*
X19265000Y-17765000D01*
X19265000Y-17735000D02*
X19235000Y-17765000D01*
X19260000Y-16460000D02*
X19290000Y-16490000D01*
X19290000Y-16460000D02*
X19260000Y-16490000D01*
X19260000Y-16610000D02*
X19290000Y-16640000D01*
X19290000Y-16610000D02*
X19260000Y-16640000D01*
X19285000Y-14185000D02*
X19315000Y-14215000D01*
X19315000Y-14185000D02*
X19285000Y-14215000D01*
X19310000Y-12360000D02*
X19340000Y-12390000D01*
X19340000Y-12360000D02*
X19310000Y-12390000D01*
X19310000Y-14785000D02*
X19340000Y-14815000D01*
X19340000Y-14785000D02*
X19310000Y-14815000D01*
X19335000Y-11235000D02*
X19365000Y-11265000D01*
X19365000Y-11235000D02*
X19335000Y-11265000D01*
X19335000Y-15435000D02*
X19365000Y-15465000D01*
X19365000Y-15435000D02*
X19335000Y-15465000D01*
X19335000Y-15535000D02*
X19365000Y-15565000D01*
X19365000Y-15535000D02*
X19335000Y-15565000D01*
X19335000Y-17835000D02*
X19365000Y-17865000D01*
X19365000Y-17835000D02*
X19335000Y-17865000D01*
X19360000Y-16535000D02*
X19390000Y-16565000D01*
X19390000Y-16535000D02*
X19360000Y-16565000D01*
X19435000Y-11335000D02*
X19465000Y-11365000D01*
X19465000Y-11335000D02*
X19435000Y-11365000D01*
X19435000Y-11960000D02*
X19465000Y-11990000D01*
X19465000Y-11960000D02*
X19435000Y-11990000D01*
X19435000Y-17735000D02*
X19465000Y-17765000D01*
X19465000Y-17735000D02*
X19435000Y-17765000D01*
X19485000Y-11585000D02*
X19515000Y-11615000D01*
X19515000Y-11585000D02*
X19485000Y-11615000D01*
X19510000Y-10110000D02*
X19540000Y-10140000D01*
X19540000Y-10110000D02*
X19510000Y-10140000D01*
X19535000Y-10635000D02*
X19565000Y-10665000D01*
X19565000Y-10635000D02*
X19535000Y-10665000D01*
X19535000Y-11035000D02*
X19565000Y-11065000D01*
X19565000Y-11035000D02*
X19535000Y-11065000D01*
X19535000Y-11235000D02*
X19565000Y-11265000D01*
X19565000Y-11235000D02*
X19535000Y-11265000D01*
X19535000Y-12310000D02*
X19565000Y-12340000D01*
X19565000Y-12310000D02*
X19535000Y-12340000D01*
X19535000Y-12610000D02*
X19565000Y-12640000D01*
X19565000Y-12610000D02*
X19535000Y-12640000D01*
X19535000Y-17835000D02*
X19565000Y-17865000D01*
X19565000Y-17835000D02*
X19535000Y-17865000D01*
X19585000Y-10210000D02*
X19615000Y-10240000D01*
X19615000Y-10210000D02*
X19585000Y-10240000D01*
X19610000Y-12860000D02*
X19640000Y-12890000D01*
X19640000Y-12860000D02*
X19610000Y-12890000D01*
X19635000Y-11135000D02*
X19665000Y-11165000D01*
X19665000Y-11135000D02*
X19635000Y-11165000D01*
X19635000Y-11335000D02*
X19665000Y-11365000D01*
X19665000Y-11335000D02*
X19635000Y-11365000D01*
X19635000Y-17735000D02*
X19665000Y-17765000D01*
X19665000Y-17735000D02*
X19635000Y-17765000D01*
X19660000Y-11810000D02*
X19690000Y-11840000D01*
X19690000Y-11810000D02*
X19660000Y-11840000D01*
X19660000Y-13185000D02*
X19690000Y-13215000D01*
X19690000Y-13185000D02*
X19660000Y-13215000D01*
X19685000Y-10110000D02*
X19715000Y-10140000D01*
X19715000Y-10110000D02*
X19685000Y-10140000D01*
X19695000Y-10595000D02*
X19725000Y-10625000D01*
X19725000Y-10595000D02*
X19695000Y-10625000D01*
X19735000Y-11235000D02*
X19765000Y-11265000D01*
X19765000Y-11235000D02*
X19735000Y-11265000D01*
X19735000Y-17835000D02*
X19765000Y-17865000D01*
X19765000Y-17835000D02*
X19735000Y-17865000D01*
X19760000Y-12385000D02*
X19790000Y-12415000D01*
X19790000Y-12385000D02*
X19760000Y-12415000D01*
X19780000Y-10635000D02*
X19810000Y-10665000D01*
X19810000Y-10635000D02*
X19780000Y-10665000D01*
X19785000Y-10210000D02*
X19815000Y-10240000D01*
X19815000Y-10210000D02*
X19785000Y-10240000D01*
X19785000Y-10860000D02*
X19815000Y-10890000D01*
X19815000Y-10860000D02*
X19785000Y-10890000D01*
X19785000Y-10960000D02*
X19815000Y-10990000D01*
X19815000Y-10960000D02*
X19785000Y-10990000D01*
X19835000Y-17735000D02*
X19865000Y-17765000D01*
X19865000Y-17735000D02*
X19835000Y-17765000D01*
X19860000Y-10585000D02*
X19890000Y-10615000D01*
X19890000Y-10585000D02*
X19860000Y-10615000D01*
X19860000Y-13110000D02*
X19890000Y-13140000D01*
X19890000Y-13110000D02*
X19860000Y-13140000D01*
X19870000Y-11010000D02*
X19900000Y-11040000D01*
X19900000Y-11010000D02*
X19870000Y-11040000D01*
X19885000Y-10110000D02*
X19915000Y-10140000D01*
X19915000Y-10110000D02*
X19885000Y-10140000D01*
X19935000Y-10940000D02*
X19965000Y-10970000D01*
X19965000Y-10940000D02*
X19935000Y-10970000D01*
X19985000Y-10210000D02*
X20015000Y-10240000D01*
X20015000Y-10210000D02*
X19985000Y-10240000D01*
X19985000Y-16490000D02*
X20015000Y-16520000D01*
X20015000Y-16490000D02*
X19985000Y-16520000D01*
X19985000Y-16620000D02*
X20015000Y-16650000D01*
X20015000Y-16620000D02*
X19985000Y-16650000D01*
X19985000Y-17835000D02*
X20015000Y-17865000D01*
X20015000Y-17835000D02*
X19985000Y-17865000D01*
X20035000Y-10635000D02*
X20065000Y-10665000D01*
X20065000Y-10635000D02*
X20035000Y-10665000D01*
X20060000Y-12235000D02*
X20090000Y-12265000D01*
X20090000Y-12235000D02*
X20060000Y-12265000D01*
X20085000Y-10110000D02*
X20115000Y-10140000D01*
X20115000Y-10110000D02*
X20085000Y-10140000D01*
X20110000Y-11985000D02*
X20140000Y-12015000D01*
X20140000Y-11985000D02*
X20110000Y-12015000D01*
X20110000Y-12485000D02*
X20140000Y-12515000D01*
X20140000Y-12485000D02*
X20110000Y-12515000D01*
X20110000Y-14910000D02*
X20140000Y-14940000D01*
X20140000Y-14910000D02*
X20110000Y-14940000D01*
X20135000Y-11035000D02*
X20165000Y-11065000D01*
X20165000Y-11035000D02*
X20135000Y-11065000D01*
X20135000Y-11235000D02*
X20165000Y-11265000D01*
X20165000Y-11235000D02*
X20135000Y-11265000D01*
X20135000Y-11435000D02*
X20165000Y-11465000D01*
X20165000Y-11435000D02*
X20135000Y-11465000D01*
X20135000Y-12685000D02*
X20165000Y-12715000D01*
X20165000Y-12685000D02*
X20135000Y-12715000D01*
X20135000Y-17735000D02*
X20165000Y-17765000D01*
X20165000Y-17735000D02*
X20135000Y-17765000D01*
X20160000Y-11735000D02*
X20190000Y-11765000D01*
X20190000Y-11735000D02*
X20160000Y-11765000D01*
X20185000Y-10210000D02*
X20215000Y-10240000D01*
X20215000Y-10210000D02*
X20185000Y-10240000D01*
X20210000Y-14910000D02*
X20240000Y-14940000D01*
X20240000Y-14910000D02*
X20210000Y-14940000D01*
X20235000Y-17835000D02*
X20265000Y-17865000D01*
X20265000Y-17835000D02*
X20235000Y-17865000D01*
X20260000Y-15710000D02*
X20290000Y-15740000D01*
X20290000Y-15710000D02*
X20260000Y-15740000D01*
X20285000Y-10110000D02*
X20315000Y-10140000D01*
X20315000Y-10110000D02*
X20285000Y-10140000D01*
X20285000Y-10660000D02*
X20315000Y-10690000D01*
X20315000Y-10660000D02*
X20285000Y-10690000D01*
X20285000Y-10760000D02*
X20315000Y-10790000D01*
X20315000Y-10760000D02*
X20285000Y-10790000D01*
X20285000Y-10860000D02*
X20315000Y-10890000D01*
X20315000Y-10860000D02*
X20285000Y-10890000D01*
X20310000Y-16460000D02*
X20340000Y-16490000D01*
X20340000Y-16460000D02*
X20310000Y-16490000D01*
X20310000Y-16610000D02*
X20340000Y-16640000D01*
X20340000Y-16610000D02*
X20310000Y-16640000D01*
X20335000Y-17735000D02*
X20365000Y-17765000D01*
X20365000Y-17735000D02*
X20335000Y-17765000D01*
X20360000Y-11835000D02*
X20390000Y-11865000D01*
X20390000Y-11835000D02*
X20360000Y-11865000D01*
X20361000Y-15760000D02*
X20391000Y-15790000D01*
X20391000Y-15760000D02*
X20361000Y-15790000D01*
X20376000Y-10635000D02*
X20406000Y-10665000D01*
X20406000Y-10635000D02*
X20376000Y-10665000D01*
X20385000Y-10210000D02*
X20415000Y-10240000D01*
X20415000Y-10210000D02*
X20385000Y-10240000D01*
X20385000Y-11485000D02*
X20415000Y-11515000D01*
X20415000Y-11485000D02*
X20385000Y-11515000D01*
X20385000Y-12535000D02*
X20415000Y-12565000D01*
X20415000Y-12535000D02*
X20385000Y-12565000D01*
X20410000Y-16460000D02*
X20440000Y-16490000D01*
X20440000Y-16460000D02*
X20410000Y-16490000D01*
X20410000Y-16610000D02*
X20440000Y-16640000D01*
X20440000Y-16610000D02*
X20410000Y-16640000D01*
X20435000Y-11035000D02*
X20465000Y-11065000D01*
X20465000Y-11035000D02*
X20435000Y-11065000D01*
X20435000Y-11235000D02*
X20465000Y-11265000D01*
X20465000Y-11235000D02*
X20435000Y-11265000D01*
X20435000Y-17835000D02*
X20465000Y-17865000D01*
X20465000Y-17835000D02*
X20435000Y-17865000D01*
X20460000Y-10110000D02*
X20490000Y-10140000D01*
X20490000Y-10110000D02*
X20460000Y-10140000D01*
X20460000Y-10285000D02*
X20490000Y-10315000D01*
X20490000Y-10285000D02*
X20460000Y-10315000D01*
X20460000Y-10760000D02*
X20490000Y-10790000D01*
X20490000Y-10760000D02*
X20460000Y-10790000D01*
X20460000Y-10860000D02*
X20490000Y-10890000D01*
X20490000Y-10860000D02*
X20460000Y-10890000D01*
X20461000Y-15760000D02*
X20491000Y-15790000D01*
X20491000Y-15760000D02*
X20461000Y-15790000D01*
X20485000Y-12735000D02*
X20515000Y-12765000D01*
X20515000Y-12735000D02*
X20485000Y-12765000D01*
X20485000Y-13110000D02*
X20515000Y-13140000D01*
X20515000Y-13110000D02*
X20485000Y-13140000D01*
X20485000Y-14185000D02*
X20515000Y-14215000D01*
X20515000Y-14185000D02*
X20485000Y-14215000D01*
X20535000Y-11135000D02*
X20565000Y-11165000D01*
X20565000Y-11135000D02*
X20535000Y-11165000D01*
X20535000Y-11335000D02*
X20565000Y-11365000D01*
X20565000Y-11335000D02*
X20535000Y-11365000D01*
X20535000Y-13710000D02*
X20565000Y-13740000D01*
X20565000Y-13710000D02*
X20535000Y-13740000D01*
X20535000Y-17735000D02*
X20565000Y-17765000D01*
X20565000Y-17735000D02*
X20535000Y-17765000D01*
X20560000Y-15235000D02*
X20590000Y-15265000D01*
X20590000Y-15235000D02*
X20560000Y-15265000D01*
X20560000Y-15335000D02*
X20590000Y-15365000D01*
X20590000Y-15335000D02*
X20560000Y-15365000D01*
X20560000Y-15760000D02*
X20590000Y-15790000D01*
X20590000Y-15760000D02*
X20560000Y-15790000D01*
X20585000Y-12685000D02*
X20615000Y-12715000D01*
X20615000Y-12685000D02*
X20585000Y-12715000D01*
X20585000Y-12785000D02*
X20615000Y-12815000D01*
X20615000Y-12785000D02*
X20585000Y-12815000D01*
X20585000Y-13060000D02*
X20615000Y-13090000D01*
X20615000Y-13060000D02*
X20585000Y-13090000D01*
X20585000Y-13160000D02*
X20615000Y-13190000D01*
X20615000Y-13160000D02*
X20585000Y-13190000D01*
X20610000Y-13410000D02*
X20640000Y-13440000D01*
X20640000Y-13410000D02*
X20610000Y-13440000D01*
X20610000Y-16535000D02*
X20640000Y-16565000D01*
X20640000Y-16535000D02*
X20610000Y-16565000D01*
X20635000Y-11235000D02*
X20665000Y-11265000D01*
X20665000Y-11235000D02*
X20635000Y-11265000D01*
X20635000Y-17835000D02*
X20665000Y-17865000D01*
X20665000Y-17835000D02*
X20635000Y-17865000D01*
X20660000Y-11785000D02*
X20690000Y-11815000D01*
X20690000Y-11785000D02*
X20660000Y-11815000D01*
X20685000Y-15660000D02*
X20715000Y-15690000D01*
X20715000Y-15660000D02*
X20685000Y-15690000D01*
X20710000Y-16460000D02*
X20740000Y-16490000D01*
X20740000Y-16460000D02*
X20710000Y-16490000D01*
X20735000Y-11335000D02*
X20765000Y-11365000D01*
X20765000Y-11335000D02*
X20735000Y-11365000D01*
X20735000Y-17735000D02*
X20765000Y-17765000D01*
X20765000Y-17735000D02*
X20735000Y-17765000D01*
X20760000Y-15060000D02*
X20790000Y-15090000D01*
X20790000Y-15060000D02*
X20760000Y-15090000D01*
X20810000Y-13435000D02*
X20840000Y-13465000D01*
X20840000Y-13435000D02*
X20810000Y-13465000D01*
X20810000Y-16460000D02*
X20840000Y-16490000D01*
X20840000Y-16460000D02*
X20810000Y-16490000D01*
X20835000Y-11235000D02*
X20865000Y-11265000D01*
X20865000Y-11235000D02*
X20835000Y-11265000D01*
X20835000Y-11610000D02*
X20865000Y-11640000D01*
X20865000Y-11610000D02*
X20835000Y-11640000D01*
X20835000Y-17835000D02*
X20865000Y-17865000D01*
X20865000Y-17835000D02*
X20835000Y-17865000D01*
X20850000Y-14460000D02*
X20880000Y-14490000D01*
X20880000Y-14460000D02*
X20850000Y-14490000D01*
X20860000Y-12835000D02*
X20890000Y-12865000D01*
X20890000Y-12835000D02*
X20860000Y-12865000D01*
X20860000Y-13935000D02*
X20890000Y-13965000D01*
X20890000Y-13935000D02*
X20860000Y-13965000D01*
X20860000Y-14035000D02*
X20890000Y-14065000D01*
X20890000Y-14035000D02*
X20860000Y-14065000D01*
X20860000Y-14360000D02*
X20890000Y-14390000D01*
X20890000Y-14360000D02*
X20860000Y-14390000D01*
X20880000Y-12485000D02*
X20910000Y-12515000D01*
X20910000Y-12485000D02*
X20880000Y-12515000D01*
X20885000Y-13285000D02*
X20915000Y-13315000D01*
X20915000Y-13285000D02*
X20885000Y-13315000D01*
X20910000Y-16535000D02*
X20940000Y-16565000D01*
X20940000Y-16535000D02*
X20910000Y-16565000D01*
X20935000Y-11335000D02*
X20965000Y-11365000D01*
X20965000Y-11335000D02*
X20935000Y-11365000D01*
X20935000Y-12935000D02*
X20965000Y-12965000D01*
X20965000Y-12935000D02*
X20935000Y-12965000D01*
X20935000Y-17735000D02*
X20965000Y-17765000D01*
X20965000Y-17735000D02*
X20935000Y-17765000D01*
X20960000Y-13935000D02*
X20990000Y-13965000D01*
X20990000Y-13935000D02*
X20960000Y-13965000D01*
X20960000Y-14035000D02*
X20990000Y-14065000D01*
X20990000Y-14035000D02*
X20960000Y-14065000D01*
X20960000Y-14335000D02*
X20990000Y-14365000D01*
X20990000Y-14335000D02*
X20960000Y-14365000D01*
X20985000Y-13135000D02*
X21015000Y-13165000D01*
X21015000Y-13135000D02*
X20985000Y-13165000D01*
X21020000Y-16185000D02*
X21050000Y-16215000D01*
X21050000Y-16185000D02*
X21020000Y-16215000D01*
X21035000Y-11235000D02*
X21065000Y-11265000D01*
X21065000Y-11235000D02*
X21035000Y-11265000D01*
X21035000Y-17835000D02*
X21065000Y-17865000D01*
X21065000Y-17835000D02*
X21035000Y-17865000D01*
X21040000Y-16345000D02*
X21070000Y-16375000D01*
X21070000Y-16345000D02*
X21040000Y-16375000D01*
X21060000Y-13935000D02*
X21090000Y-13965000D01*
X21090000Y-13935000D02*
X21060000Y-13965000D01*
X21060000Y-14035000D02*
X21090000Y-14065000D01*
X21090000Y-14035000D02*
X21060000Y-14065000D01*
X21060000Y-14360000D02*
X21090000Y-14390000D01*
X21090000Y-14360000D02*
X21060000Y-14390000D01*
X21070000Y-14460000D02*
X21100000Y-14490000D01*
X21100000Y-14460000D02*
X21070000Y-14490000D01*
X21085000Y-12735000D02*
X21115000Y-12765000D01*
X21115000Y-12735000D02*
X21085000Y-12765000D01*
X21085000Y-12935000D02*
X21115000Y-12965000D01*
X21115000Y-12935000D02*
X21085000Y-12965000D01*
X21135000Y-11335000D02*
X21165000Y-11365000D01*
X21165000Y-11335000D02*
X21135000Y-11365000D01*
X21135000Y-17735000D02*
X21165000Y-17765000D01*
X21165000Y-17735000D02*
X21135000Y-17765000D01*
X21160000Y-15485000D02*
X21190000Y-15515000D01*
X21190000Y-15485000D02*
X21160000Y-15515000D01*
X21160000Y-15585000D02*
X21190000Y-15615000D01*
X21190000Y-15585000D02*
X21160000Y-15615000D01*
X21170000Y-16527000D02*
X21200000Y-16557000D01*
X21200000Y-16527000D02*
X21170000Y-16557000D01*
X21180000Y-12935000D02*
X21210000Y-12965000D01*
X21210000Y-12935000D02*
X21180000Y-12965000D01*
X21210000Y-13735000D02*
X21240000Y-13765000D01*
X21240000Y-13735000D02*
X21210000Y-13765000D01*
X21210000Y-13935000D02*
X21240000Y-13965000D01*
X21240000Y-13935000D02*
X21210000Y-13965000D01*
X21210000Y-14035000D02*
X21240000Y-14065000D01*
X21240000Y-14035000D02*
X21210000Y-14065000D01*
X21210000Y-14225000D02*
X21240000Y-14255000D01*
X21240000Y-14225000D02*
X21210000Y-14255000D01*
X21235000Y-11235000D02*
X21265000Y-11265000D01*
X21265000Y-11235000D02*
X21235000Y-11265000D01*
X21235000Y-11735000D02*
X21265000Y-11765000D01*
X21265000Y-11735000D02*
X21235000Y-11765000D01*
X21235000Y-14360000D02*
X21265000Y-14390000D01*
X21265000Y-14360000D02*
X21235000Y-14390000D01*
X21235000Y-14475000D02*
X21265000Y-14505000D01*
X21265000Y-14475000D02*
X21235000Y-14505000D01*
X21235000Y-17835000D02*
X21265000Y-17865000D01*
X21265000Y-17835000D02*
X21235000Y-17865000D01*
X21260000Y-12885000D02*
X21290000Y-12915000D01*
X21290000Y-12885000D02*
X21260000Y-12915000D01*
X21300000Y-12800000D02*
X21330000Y-12830000D01*
X21330000Y-12800000D02*
X21300000Y-12830000D01*
X21310000Y-13160000D02*
X21340000Y-13190000D01*
X21340000Y-13160000D02*
X21310000Y-13190000D01*
X21310000Y-13735000D02*
X21340000Y-13765000D01*
X21340000Y-13735000D02*
X21310000Y-13765000D01*
X21310000Y-13935000D02*
X21340000Y-13965000D01*
X21340000Y-13935000D02*
X21310000Y-13965000D01*
X21310000Y-14035000D02*
X21340000Y-14065000D01*
X21340000Y-14035000D02*
X21310000Y-14065000D01*
X21310000Y-14225000D02*
X21340000Y-14255000D01*
X21340000Y-14225000D02*
X21310000Y-14255000D01*
X21310000Y-15485000D02*
X21340000Y-15515000D01*
X21340000Y-15485000D02*
X21310000Y-15515000D01*
X21310000Y-15585000D02*
X21340000Y-15615000D01*
X21340000Y-15585000D02*
X21310000Y-15615000D01*
X21335000Y-11335000D02*
X21365000Y-11365000D01*
X21365000Y-11335000D02*
X21335000Y-11365000D01*
X21335000Y-17735000D02*
X21365000Y-17765000D01*
X21365000Y-17735000D02*
X21335000Y-17765000D01*
X21360000Y-14475000D02*
X21390000Y-14505000D01*
X21390000Y-14475000D02*
X21360000Y-14505000D01*
X21385000Y-11610000D02*
X21415000Y-11640000D01*
X21415000Y-11610000D02*
X21385000Y-11640000D01*
X21395000Y-16185000D02*
X21425000Y-16215000D01*
X21425000Y-16185000D02*
X21395000Y-16215000D01*
X21435000Y-11235000D02*
X21465000Y-11265000D01*
X21465000Y-11235000D02*
X21435000Y-11265000D01*
X21435000Y-17835000D02*
X21465000Y-17865000D01*
X21465000Y-17835000D02*
X21435000Y-17865000D01*
X21460000Y-13435000D02*
X21490000Y-13465000D01*
X21490000Y-13435000D02*
X21460000Y-13465000D01*
X21485000Y-14430000D02*
X21515000Y-14460000D01*
X21515000Y-14430000D02*
X21485000Y-14460000D01*
X21490000Y-14335000D02*
X21520000Y-14365000D01*
X21520000Y-14335000D02*
X21490000Y-14365000D01*
X21510000Y-12385000D02*
X21540000Y-12415000D01*
X21540000Y-12385000D02*
X21510000Y-12415000D01*
X21510000Y-12860000D02*
X21540000Y-12890000D01*
X21540000Y-12860000D02*
X21510000Y-12890000D01*
X21510000Y-16490000D02*
X21540000Y-16520000D01*
X21540000Y-16490000D02*
X21510000Y-16520000D01*
X21510000Y-16620000D02*
X21540000Y-16650000D01*
X21540000Y-16620000D02*
X21510000Y-16650000D01*
X21535000Y-11335000D02*
X21565000Y-11365000D01*
X21565000Y-11335000D02*
X21535000Y-11365000D01*
X21535000Y-17735000D02*
X21565000Y-17765000D01*
X21565000Y-17735000D02*
X21535000Y-17765000D01*
X21585000Y-14320000D02*
X21615000Y-14350000D01*
X21615000Y-14320000D02*
X21585000Y-14350000D01*
X21610000Y-12935000D02*
X21640000Y-12965000D01*
X21640000Y-12935000D02*
X21610000Y-12965000D01*
X21635000Y-11235000D02*
X21665000Y-11265000D01*
X21665000Y-11235000D02*
X21635000Y-11265000D01*
X21635000Y-12635000D02*
X21665000Y-12665000D01*
X21665000Y-12635000D02*
X21635000Y-12665000D01*
X21635000Y-14685000D02*
X21665000Y-14715000D01*
X21665000Y-14685000D02*
X21635000Y-14715000D01*
X21635000Y-17835000D02*
X21665000Y-17865000D01*
X21665000Y-17835000D02*
X21635000Y-17865000D01*
X21710000Y-12410000D02*
X21740000Y-12440000D01*
X21740000Y-12410000D02*
X21710000Y-12440000D01*
X21710000Y-12935000D02*
X21740000Y-12965000D01*
X21740000Y-12935000D02*
X21710000Y-12965000D01*
X21710000Y-13360000D02*
X21740000Y-13390000D01*
X21740000Y-13360000D02*
X21710000Y-13390000D01*
X21735000Y-11335000D02*
X21765000Y-11365000D01*
X21765000Y-11335000D02*
X21735000Y-11365000D01*
X21735000Y-17735000D02*
X21765000Y-17765000D01*
X21765000Y-17735000D02*
X21735000Y-17765000D01*
X21760000Y-11735000D02*
X21790000Y-11765000D01*
X21790000Y-11735000D02*
X21760000Y-11765000D01*
X21760000Y-11885000D02*
X21790000Y-11915000D01*
X21790000Y-11885000D02*
X21760000Y-11915000D01*
X21835000Y-11235000D02*
X21865000Y-11265000D01*
X21865000Y-11235000D02*
X21835000Y-11265000D01*
X21835000Y-11810000D02*
X21865000Y-11840000D01*
X21865000Y-11810000D02*
X21835000Y-11840000D01*
X21835000Y-12635000D02*
X21865000Y-12665000D01*
X21865000Y-12635000D02*
X21835000Y-12665000D01*
X21835000Y-13135000D02*
X21865000Y-13165000D01*
X21865000Y-13135000D02*
X21835000Y-13165000D01*
X21835000Y-17135000D02*
X21865000Y-17165000D01*
X21865000Y-17135000D02*
X21835000Y-17165000D01*
X21835000Y-17335000D02*
X21865000Y-17365000D01*
X21865000Y-17335000D02*
X21835000Y-17365000D01*
X21835000Y-17535000D02*
X21865000Y-17565000D01*
X21865000Y-17535000D02*
X21835000Y-17565000D01*
X21835000Y-17835000D02*
X21865000Y-17865000D01*
X21865000Y-17835000D02*
X21835000Y-17865000D01*
X21890000Y-14835000D02*
X21920000Y-14865000D01*
X21920000Y-14835000D02*
X21890000Y-14865000D01*
X21910000Y-11585000D02*
X21940000Y-11615000D01*
X21940000Y-11585000D02*
X21910000Y-11615000D01*
X21910000Y-12385000D02*
X21940000Y-12415000D01*
X21940000Y-12385000D02*
X21910000Y-12415000D01*
X21935000Y-11335000D02*
X21965000Y-11365000D01*
X21965000Y-11335000D02*
X21935000Y-11365000D01*
X21935000Y-11935000D02*
X21965000Y-11965000D01*
X21965000Y-11935000D02*
X21935000Y-11965000D01*
X21935000Y-12160000D02*
X21965000Y-12190000D01*
X21965000Y-12160000D02*
X21935000Y-12190000D01*
X21935000Y-17735000D02*
X21965000Y-17765000D01*
X21965000Y-17735000D02*
X21935000Y-17765000D01*
X21960000Y-13410000D02*
X21990000Y-13440000D01*
X21990000Y-13410000D02*
X21960000Y-13440000D01*
X21960000Y-14760000D02*
X21990000Y-14790000D01*
X21990000Y-14760000D02*
X21960000Y-14790000D01*
X21960000Y-16335000D02*
X21990000Y-16365000D01*
X21990000Y-16335000D02*
X21960000Y-16365000D01*
X21985000Y-12635000D02*
X22015000Y-12665000D01*
X22015000Y-12635000D02*
X21985000Y-12665000D01*
X22035000Y-11235000D02*
X22065000Y-11265000D01*
X22065000Y-11235000D02*
X22035000Y-11265000D01*
X22035000Y-17235000D02*
X22065000Y-17265000D01*
X22065000Y-17235000D02*
X22035000Y-17265000D01*
X22035000Y-17435000D02*
X22065000Y-17465000D01*
X22065000Y-17435000D02*
X22035000Y-17465000D01*
X22035000Y-17635000D02*
X22065000Y-17665000D01*
X22065000Y-17635000D02*
X22035000Y-17665000D01*
X22035000Y-17835000D02*
X22065000Y-17865000D01*
X22065000Y-17835000D02*
X22035000Y-17865000D01*
X22060000Y-14760000D02*
X22090000Y-14790000D01*
X22090000Y-14760000D02*
X22060000Y-14790000D01*
X22060000Y-16635000D02*
X22090000Y-16665000D01*
X22090000Y-16635000D02*
X22060000Y-16665000D01*
X22085000Y-13560000D02*
X22115000Y-13590000D01*
X22115000Y-13560000D02*
X22085000Y-13590000D01*
X22110000Y-11785000D02*
X22140000Y-11815000D01*
X22140000Y-11785000D02*
X22110000Y-11815000D01*
X22135000Y-11335000D02*
X22165000Y-11365000D01*
X22165000Y-11335000D02*
X22135000Y-11365000D01*
X22135000Y-17735000D02*
X22165000Y-17765000D01*
X22165000Y-17735000D02*
X22135000Y-17765000D01*
X22160000Y-13360000D02*
X22190000Y-13390000D01*
X22190000Y-13360000D02*
X22160000Y-13390000D01*
X22160000Y-15485000D02*
X22190000Y-15515000D01*
X22190000Y-15485000D02*
X22160000Y-15515000D01*
X22160000Y-15585000D02*
X22190000Y-15615000D01*
X22190000Y-15585000D02*
X22160000Y-15615000D01*
X22185000Y-11935000D02*
X22215000Y-11965000D01*
X22215000Y-11935000D02*
X22185000Y-11965000D01*
X22185000Y-12435000D02*
X22215000Y-12465000D01*
X22215000Y-12435000D02*
X22185000Y-12465000D01*
X22185000Y-12635000D02*
X22215000Y-12665000D01*
X22215000Y-12635000D02*
X22185000Y-12665000D01*
X22235000Y-11235000D02*
X22265000Y-11265000D01*
X22265000Y-11235000D02*
X22235000Y-11265000D01*
X22235000Y-15385000D02*
X22265000Y-15415000D01*
X22265000Y-15385000D02*
X22235000Y-15415000D01*
X22235000Y-15685000D02*
X22265000Y-15715000D01*
X22265000Y-15685000D02*
X22235000Y-15715000D01*
X22235000Y-17835000D02*
X22265000Y-17865000D01*
X22265000Y-17835000D02*
X22235000Y-17865000D01*
X22285000Y-12535000D02*
X22315000Y-12565000D01*
X22315000Y-12535000D02*
X22285000Y-12565000D01*
X22335000Y-10935000D02*
X22365000Y-10965000D01*
X22365000Y-10935000D02*
X22335000Y-10965000D01*
X22335000Y-11135000D02*
X22365000Y-11165000D01*
X22365000Y-11135000D02*
X22335000Y-11165000D01*
X22335000Y-11335000D02*
X22365000Y-11365000D01*
X22365000Y-11335000D02*
X22335000Y-11365000D01*
X22335000Y-11535000D02*
X22365000Y-11565000D01*
X22365000Y-11535000D02*
X22335000Y-11565000D01*
X22335000Y-11735000D02*
X22365000Y-11765000D01*
X22365000Y-11735000D02*
X22335000Y-11765000D01*
X22335000Y-12735000D02*
X22365000Y-12765000D01*
X22365000Y-12735000D02*
X22335000Y-12765000D01*
X22335000Y-12935000D02*
X22365000Y-12965000D01*
X22365000Y-12935000D02*
X22335000Y-12965000D01*
X22335000Y-13135000D02*
X22365000Y-13165000D01*
X22365000Y-13135000D02*
X22335000Y-13165000D01*
X22335000Y-13335000D02*
X22365000Y-13365000D01*
X22365000Y-13335000D02*
X22335000Y-13365000D01*
X22335000Y-13535000D02*
X22365000Y-13565000D01*
X22365000Y-13535000D02*
X22335000Y-13565000D01*
X22335000Y-13735000D02*
X22365000Y-13765000D01*
X22365000Y-13735000D02*
X22335000Y-13765000D01*
X22335000Y-13935000D02*
X22365000Y-13965000D01*
X22365000Y-13935000D02*
X22335000Y-13965000D01*
X22335000Y-14135000D02*
X22365000Y-14165000D01*
X22365000Y-14135000D02*
X22335000Y-14165000D01*
X22335000Y-14335000D02*
X22365000Y-14365000D01*
X22365000Y-14335000D02*
X22335000Y-14365000D01*
X22335000Y-14535000D02*
X22365000Y-14565000D01*
X22365000Y-14535000D02*
X22335000Y-14565000D01*
X22335000Y-14735000D02*
X22365000Y-14765000D01*
X22365000Y-14735000D02*
X22335000Y-14765000D01*
X22335000Y-14935000D02*
X22365000Y-14965000D01*
X22365000Y-14935000D02*
X22335000Y-14965000D01*
X22335000Y-16135000D02*
X22365000Y-16165000D01*
X22365000Y-16135000D02*
X22335000Y-16165000D01*
X22335000Y-16335000D02*
X22365000Y-16365000D01*
X22365000Y-16335000D02*
X22335000Y-16365000D01*
X22335000Y-16535000D02*
X22365000Y-16565000D01*
X22365000Y-16535000D02*
X22335000Y-16565000D01*
X22335000Y-16735000D02*
X22365000Y-16765000D01*
X22365000Y-16735000D02*
X22335000Y-16765000D01*
X22335000Y-16935000D02*
X22365000Y-16965000D01*
X22365000Y-16935000D02*
X22335000Y-16965000D01*
X22335000Y-17135000D02*
X22365000Y-17165000D01*
X22365000Y-17135000D02*
X22335000Y-17165000D01*
X22335000Y-17335000D02*
X22365000Y-17365000D01*
X22365000Y-17335000D02*
X22335000Y-17365000D01*
X22335000Y-17535000D02*
X22365000Y-17565000D01*
X22365000Y-17535000D02*
X22335000Y-17565000D01*
X22335000Y-17735000D02*
X22365000Y-17765000D01*
X22365000Y-17735000D02*
X22335000Y-17765000D01*
X22385000Y-12435000D02*
X22415000Y-12465000D01*
X22415000Y-12435000D02*
X22385000Y-12465000D01*
X22385000Y-12635000D02*
X22415000Y-12665000D01*
X22415000Y-12635000D02*
X22385000Y-12665000D01*
X22435000Y-10235000D02*
X22465000Y-10265000D01*
X22465000Y-10235000D02*
X22435000Y-10265000D01*
X22435000Y-10435000D02*
X22465000Y-10465000D01*
X22465000Y-10435000D02*
X22435000Y-10465000D01*
X22435000Y-10635000D02*
X22465000Y-10665000D01*
X22465000Y-10635000D02*
X22435000Y-10665000D01*
X22435000Y-10835000D02*
X22465000Y-10865000D01*
X22465000Y-10835000D02*
X22435000Y-10865000D01*
X22435000Y-11035000D02*
X22465000Y-11065000D01*
X22465000Y-11035000D02*
X22435000Y-11065000D01*
X22435000Y-11235000D02*
X22465000Y-11265000D01*
X22465000Y-11235000D02*
X22435000Y-11265000D01*
X22435000Y-11435000D02*
X22465000Y-11465000D01*
X22465000Y-11435000D02*
X22435000Y-11465000D01*
X22435000Y-11635000D02*
X22465000Y-11665000D01*
X22465000Y-11635000D02*
X22435000Y-11665000D01*
X22435000Y-11935000D02*
X22465000Y-11965000D01*
X22465000Y-11935000D02*
X22435000Y-11965000D01*
X22435000Y-12160000D02*
X22465000Y-12190000D01*
X22465000Y-12160000D02*
X22435000Y-12190000D01*
X22435000Y-12835000D02*
X22465000Y-12865000D01*
X22465000Y-12835000D02*
X22435000Y-12865000D01*
X22435000Y-13035000D02*
X22465000Y-13065000D01*
X22465000Y-13035000D02*
X22435000Y-13065000D01*
X22435000Y-13235000D02*
X22465000Y-13265000D01*
X22465000Y-13235000D02*
X22435000Y-13265000D01*
X22435000Y-13435000D02*
X22465000Y-13465000D01*
X22465000Y-13435000D02*
X22435000Y-13465000D01*
X22435000Y-13635000D02*
X22465000Y-13665000D01*
X22465000Y-13635000D02*
X22435000Y-13665000D01*
X22435000Y-13835000D02*
X22465000Y-13865000D01*
X22465000Y-13835000D02*
X22435000Y-13865000D01*
X22435000Y-14035000D02*
X22465000Y-14065000D01*
X22465000Y-14035000D02*
X22435000Y-14065000D01*
X22435000Y-14235000D02*
X22465000Y-14265000D01*
X22465000Y-14235000D02*
X22435000Y-14265000D01*
X22435000Y-14435000D02*
X22465000Y-14465000D01*
X22465000Y-14435000D02*
X22435000Y-14465000D01*
X22435000Y-14635000D02*
X22465000Y-14665000D01*
X22465000Y-14635000D02*
X22435000Y-14665000D01*
X22435000Y-14835000D02*
X22465000Y-14865000D01*
X22465000Y-14835000D02*
X22435000Y-14865000D01*
X22435000Y-15035000D02*
X22465000Y-15065000D01*
X22465000Y-15035000D02*
X22435000Y-15065000D01*
X22435000Y-16035000D02*
X22465000Y-16065000D01*
X22465000Y-16035000D02*
X22435000Y-16065000D01*
X22435000Y-16235000D02*
X22465000Y-16265000D01*
X22465000Y-16235000D02*
X22435000Y-16265000D01*
X22435000Y-16435000D02*
X22465000Y-16465000D01*
X22465000Y-16435000D02*
X22435000Y-16465000D01*
X22435000Y-16635000D02*
X22465000Y-16665000D01*
X22465000Y-16635000D02*
X22435000Y-16665000D01*
X22435000Y-16835000D02*
X22465000Y-16865000D01*
X22465000Y-16835000D02*
X22435000Y-16865000D01*
X22435000Y-17035000D02*
X22465000Y-17065000D01*
X22465000Y-17035000D02*
X22435000Y-17065000D01*
X22435000Y-17235000D02*
X22465000Y-17265000D01*
X22465000Y-17235000D02*
X22435000Y-17265000D01*
X22435000Y-17435000D02*
X22465000Y-17465000D01*
X22465000Y-17435000D02*
X22435000Y-17465000D01*
X22435000Y-17635000D02*
X22465000Y-17665000D01*
X22465000Y-17635000D02*
X22435000Y-17665000D01*
X22435000Y-17835000D02*
X22465000Y-17865000D01*
X22465000Y-17835000D02*
X22435000Y-17865000D01*
X19922500Y-15407500D02*
G75*
G03*
X19922500Y-15407500I-15000J0D01*
G01*
X19922500Y-15500000D02*
G75*
G03*
X19922500Y-15500000I-15000J0D01*
G01*
X19922500Y-15592500D02*
G75*
G03*
X19922500Y-15592500I-15000J0D01*
G01*
X20015000Y-15407500D02*
G75*
G03*
X20015000Y-15407500I-15000J0D01*
G01*
X20015000Y-15500000D02*
G75*
G03*
X20015000Y-15500000I-15000J0D01*
G01*
X20015000Y-15592500D02*
G75*
G03*
X20015000Y-15592500I-15000J0D01*
G01*
X20107500Y-15407500D02*
G75*
G03*
X20107500Y-15407500I-15000J0D01*
G01*
X20107500Y-15500000D02*
G75*
G03*
X20107500Y-15500000I-15000J0D01*
G01*
X20107500Y-15592500D02*
G75*
G03*
X20107500Y-15592500I-15000J0D01*
G01*
D12*
X19600000Y-10440000D02*
X19600000Y-10510000D01*
X19565000Y-10475000D02*
X19635000Y-10475000D01*
X19800000Y-10440000D02*
X19800000Y-10510000D01*
X19765000Y-10475000D02*
X19835000Y-10475000D01*
X20000000Y-10440000D02*
X20000000Y-10510000D01*
X19965000Y-10475000D02*
X20035000Y-10475000D01*
X20200000Y-10440000D02*
X20200000Y-10510000D01*
X20165000Y-10475000D02*
X20235000Y-10475000D01*
X20400000Y-10440000D02*
X20400000Y-10510000D01*
X20365000Y-10475000D02*
X20435000Y-10475000D01*
D13*
X18511356Y-16860356D02*
X18511356Y-16789644D01*
X18440644Y-16789644D01*
X18440644Y-16860356D01*
X18511356Y-16860356D01*
X18511356Y-17114356D02*
X18511356Y-17043644D01*
X18440644Y-17043644D01*
X18440644Y-17114356D01*
X18511356Y-17114356D01*
X18765356Y-16860356D02*
X18765356Y-16789644D01*
X18694644Y-16789644D01*
X18694644Y-16860356D01*
X18765356Y-16860356D01*
X18765356Y-17114356D02*
X18765356Y-17043644D01*
X18694644Y-17043644D01*
X18694644Y-17114356D01*
X18765356Y-17114356D01*
X19019356Y-16860356D02*
X19019356Y-16789644D01*
X18948644Y-16789644D01*
X18948644Y-16860356D01*
X19019356Y-16860356D01*
X19019356Y-17114356D02*
X19019356Y-17043644D01*
X18948644Y-17043644D01*
X18948644Y-17114356D01*
X19019356Y-17114356D01*
X19273356Y-16860356D02*
X19273356Y-16789644D01*
X19202644Y-16789644D01*
X19202644Y-16860356D01*
X19273356Y-16860356D01*
X19273356Y-17114356D02*
X19273356Y-17043644D01*
X19202644Y-17043644D01*
X19202644Y-17114356D01*
X19273356Y-17114356D01*
X19527356Y-16860356D02*
X19527356Y-16789644D01*
X19456644Y-16789644D01*
X19456644Y-16860356D01*
X19527356Y-16860356D01*
X19527356Y-17114356D02*
X19527356Y-17043644D01*
X19456644Y-17043644D01*
X19456644Y-17114356D01*
X19527356Y-17114356D01*
X19781356Y-16860356D02*
X19781356Y-16789644D01*
X19710644Y-16789644D01*
X19710644Y-16860356D01*
X19781356Y-16860356D01*
X19781356Y-17114356D02*
X19781356Y-17043644D01*
X19710644Y-17043644D01*
X19710644Y-17114356D01*
X19781356Y-17114356D01*
X20035356Y-16860356D02*
X20035356Y-16789644D01*
X19964644Y-16789644D01*
X19964644Y-16860356D01*
X20035356Y-16860356D01*
X20035356Y-17114356D02*
X20035356Y-17043644D01*
X19964644Y-17043644D01*
X19964644Y-17114356D01*
X20035356Y-17114356D01*
X20289356Y-16860356D02*
X20289356Y-16789644D01*
X20218644Y-16789644D01*
X20218644Y-16860356D01*
X20289356Y-16860356D01*
X20289356Y-17114356D02*
X20289356Y-17043644D01*
X20218644Y-17043644D01*
X20218644Y-17114356D01*
X20289356Y-17114356D01*
X20543356Y-16860356D02*
X20543356Y-16789644D01*
X20472644Y-16789644D01*
X20472644Y-16860356D01*
X20543356Y-16860356D01*
X20543356Y-17114356D02*
X20543356Y-17043644D01*
X20472644Y-17043644D01*
X20472644Y-17114356D01*
X20543356Y-17114356D01*
X20797356Y-16860356D02*
X20797356Y-16789644D01*
X20726644Y-16789644D01*
X20726644Y-16860356D01*
X20797356Y-16860356D01*
X20797356Y-17114356D02*
X20797356Y-17043644D01*
X20726644Y-17043644D01*
X20726644Y-17114356D01*
X20797356Y-17114356D01*
X21051356Y-16860356D02*
X21051356Y-16789644D01*
X20980644Y-16789644D01*
X20980644Y-16860356D01*
X21051356Y-16860356D01*
X21051356Y-17114356D02*
X21051356Y-17043644D01*
X20980644Y-17043644D01*
X20980644Y-17114356D01*
X21051356Y-17114356D01*
X21305356Y-16860356D02*
X21305356Y-16789644D01*
X21234644Y-16789644D01*
X21234644Y-16860356D01*
X21305356Y-16860356D01*
X21305356Y-17114356D02*
X21305356Y-17043644D01*
X21234644Y-17043644D01*
X21234644Y-17114356D01*
X21305356Y-17114356D01*
X21559356Y-16860356D02*
X21559356Y-16789644D01*
X21488644Y-16789644D01*
X21488644Y-16860356D01*
X21559356Y-16860356D01*
X21559356Y-17114356D02*
X21559356Y-17043644D01*
X21488644Y-17043644D01*
X21488644Y-17114356D01*
X21559356Y-17114356D01*
X21560356Y-15331356D02*
X21560356Y-15260644D01*
X21489644Y-15260644D01*
X21489644Y-15331356D01*
X21560356Y-15331356D01*
X21560356Y-15585356D02*
X21560356Y-15514644D01*
X21489644Y-15514644D01*
X21489644Y-15585356D01*
X21560356Y-15585356D01*
X21560356Y-15839356D02*
X21560356Y-15768644D01*
X21489644Y-15768644D01*
X21489644Y-15839356D01*
X21560356Y-15839356D01*
X22010356Y-15204356D02*
X22010356Y-15133644D01*
X21939644Y-15133644D01*
X21939644Y-15204356D01*
X22010356Y-15204356D01*
X22010356Y-15458356D02*
X22010356Y-15387644D01*
X21939644Y-15387644D01*
X21939644Y-15458356D01*
X22010356Y-15458356D01*
X22010356Y-15712356D02*
X22010356Y-15641644D01*
X21939644Y-15641644D01*
X21939644Y-15712356D01*
X22010356Y-15712356D01*
X22010356Y-15966356D02*
X22010356Y-15895644D01*
X21939644Y-15895644D01*
X21939644Y-15966356D01*
X22010356Y-15966356D01*
D14*
X18219000Y-12245000D02*
X18289000Y-12175000D01*
X18219000Y-12105000D01*
X18149000Y-12175000D01*
X18219000Y-12245000D01*
X18473000Y-12245000D02*
X18543000Y-12175000D01*
X18473000Y-12105000D01*
X18403000Y-12175000D01*
X18473000Y-12245000D01*
X18727000Y-12245000D02*
X18797000Y-12175000D01*
X18727000Y-12105000D01*
X18657000Y-12175000D01*
X18727000Y-12245000D01*
X18981000Y-12245000D02*
X19051000Y-12175000D01*
X18981000Y-12105000D01*
X18911000Y-12175000D01*
X18981000Y-12245000D01*
D15*
X20506000Y-12085000D02*
X20686000Y-12265000D01*
X20686000Y-12085000D02*
X20506000Y-12265000D01*
X20686000Y-12175000D02*
G75*
G03*
X20686000Y-12175000I-90000J0D01*
G01*
X21014000Y-12085000D02*
X21194000Y-12265000D01*
X21194000Y-12085000D02*
X21014000Y-12265000D01*
X21194000Y-12175000D02*
G75*
G03*
X21194000Y-12175000I-90000J0D01*
G01*
X21606000Y-12085000D02*
X21786000Y-12265000D01*
X21786000Y-12085000D02*
X21606000Y-12265000D01*
X21786000Y-12175000D02*
G75*
G03*
X21786000Y-12175000I-90000J0D01*
G01*
X22114000Y-12085000D02*
X22294000Y-12265000D01*
X22294000Y-12085000D02*
X22114000Y-12265000D01*
X22294000Y-12175000D02*
G75*
G03*
X22294000Y-12175000I-90000J0D01*
G01*
D10*
X17497619Y-18320476D02*
X17497619Y-18120476D01*
X17545238Y-18120476D01*
X17573810Y-18130000D01*
X17592857Y-18149048D01*
X17602381Y-18168095D01*
X17611905Y-18206190D01*
X17611905Y-18234762D01*
X17602381Y-18272857D01*
X17592857Y-18291905D01*
X17573810Y-18310952D01*
X17545238Y-18320476D01*
X17497619Y-18320476D01*
X17697619Y-18320476D02*
X17697619Y-18187143D01*
X17697619Y-18225238D02*
X17707143Y-18206190D01*
X17716667Y-18196667D01*
X17735714Y-18187143D01*
X17754762Y-18187143D01*
X17821429Y-18320476D02*
X17821429Y-18187143D01*
X17821429Y-18120476D02*
X17811905Y-18130000D01*
X17821429Y-18139524D01*
X17830952Y-18130000D01*
X17821429Y-18120476D01*
X17821429Y-18139524D01*
X17945238Y-18320476D02*
X17926190Y-18310952D01*
X17916667Y-18291905D01*
X17916667Y-18120476D01*
X18050000Y-18320476D02*
X18030952Y-18310952D01*
X18021429Y-18291905D01*
X18021429Y-18120476D01*
X18278571Y-18320476D02*
X18278571Y-18120476D01*
X18345238Y-18263333D01*
X18411905Y-18120476D01*
X18411905Y-18320476D01*
X18592857Y-18320476D02*
X18592857Y-18215714D01*
X18583333Y-18196667D01*
X18564286Y-18187143D01*
X18526190Y-18187143D01*
X18507143Y-18196667D01*
X18592857Y-18310952D02*
X18573810Y-18320476D01*
X18526190Y-18320476D01*
X18507143Y-18310952D01*
X18497619Y-18291905D01*
X18497619Y-18272857D01*
X18507143Y-18253810D01*
X18526190Y-18244286D01*
X18573810Y-18244286D01*
X18592857Y-18234762D01*
X18688095Y-18187143D02*
X18688095Y-18387143D01*
X18688095Y-18196667D02*
X18707143Y-18187143D01*
X18745238Y-18187143D01*
X18764286Y-18196667D01*
X18773810Y-18206190D01*
X18783333Y-18225238D01*
X18783333Y-18282381D01*
X18773810Y-18301429D01*
X18764286Y-18310952D01*
X18745238Y-18320476D01*
X18707143Y-18320476D01*
X18688095Y-18310952D01*
X18869048Y-18301429D02*
X18878571Y-18310952D01*
X18869048Y-18320476D01*
X18859524Y-18310952D01*
X18869048Y-18301429D01*
X18869048Y-18320476D01*
X18869048Y-18196667D02*
X18878571Y-18206190D01*
X18869048Y-18215714D01*
X18859524Y-18206190D01*
X18869048Y-18196667D01*
X18869048Y-18215714D01*
D11*
X17210000Y-18635000D02*
X17240000Y-18665000D01*
X17240000Y-18635000D02*
X17210000Y-18665000D01*
D10*
X17535714Y-18540476D02*
X17554762Y-18540476D01*
X17573810Y-18550000D01*
X17583333Y-18559524D01*
X17592857Y-18578571D01*
X17602381Y-18616667D01*
X17602381Y-18664286D01*
X17592857Y-18702381D01*
X17583333Y-18721429D01*
X17573810Y-18730952D01*
X17554762Y-18740476D01*
X17535714Y-18740476D01*
X17516667Y-18730952D01*
X17507143Y-18721429D01*
X17497619Y-18702381D01*
X17488095Y-18664286D01*
X17488095Y-18616667D01*
X17497619Y-18578571D01*
X17507143Y-18559524D01*
X17516667Y-18550000D01*
X17535714Y-18540476D01*
X17688095Y-18721429D02*
X17697619Y-18730952D01*
X17688095Y-18740476D01*
X17678571Y-18730952D01*
X17688095Y-18721429D01*
X17688095Y-18740476D01*
X17764286Y-18540476D02*
X17888095Y-18540476D01*
X17821429Y-18616667D01*
X17850000Y-18616667D01*
X17869048Y-18626190D01*
X17878571Y-18635714D01*
X17888095Y-18654762D01*
X17888095Y-18702381D01*
X17878571Y-18721429D01*
X17869048Y-18730952D01*
X17850000Y-18740476D01*
X17792857Y-18740476D01*
X17773810Y-18730952D01*
X17764286Y-18721429D01*
X18011905Y-18540476D02*
X18030952Y-18540476D01*
X18050000Y-18550000D01*
X18059524Y-18559524D01*
X18069048Y-18578571D01*
X18078571Y-18616667D01*
X18078571Y-18664286D01*
X18069048Y-18702381D01*
X18059524Y-18721429D01*
X18050000Y-18730952D01*
X18030952Y-18740476D01*
X18011905Y-18740476D01*
X17992857Y-18730952D01*
X17983333Y-18721429D01*
X17973810Y-18702381D01*
X17964286Y-18664286D01*
X17964286Y-18616667D01*
X17973810Y-18578571D01*
X17983333Y-18559524D01*
X17992857Y-18550000D01*
X18011905Y-18540476D01*
X18202381Y-18540476D02*
X18221429Y-18540476D01*
X18240476Y-18550000D01*
X18250000Y-18559524D01*
X18259524Y-18578571D01*
X18269048Y-18616667D01*
X18269048Y-18664286D01*
X18259524Y-18702381D01*
X18250000Y-18721429D01*
X18240476Y-18730952D01*
X18221429Y-18740476D01*
X18202381Y-18740476D01*
X18183333Y-18730952D01*
X18173810Y-18721429D01*
X18164286Y-18702381D01*
X18154762Y-18664286D01*
X18154762Y-18616667D01*
X18164286Y-18578571D01*
X18173810Y-18559524D01*
X18183333Y-18550000D01*
X18202381Y-18540476D01*
X18354762Y-18740476D02*
X18354762Y-18607143D01*
X18354762Y-18626190D02*
X18364286Y-18616667D01*
X18383333Y-18607143D01*
X18411905Y-18607143D01*
X18430952Y-18616667D01*
X18440476Y-18635714D01*
X18440476Y-18740476D01*
X18440476Y-18635714D02*
X18450000Y-18616667D01*
X18469048Y-18607143D01*
X18497619Y-18607143D01*
X18516667Y-18616667D01*
X18526190Y-18635714D01*
X18526190Y-18740476D01*
X18621429Y-18740476D02*
X18621429Y-18607143D01*
X18621429Y-18626190D02*
X18630952Y-18616667D01*
X18650000Y-18607143D01*
X18678571Y-18607143D01*
X18697619Y-18616667D01*
X18707143Y-18635714D01*
X18707143Y-18740476D01*
X18707143Y-18635714D02*
X18716667Y-18616667D01*
X18735714Y-18607143D01*
X18764286Y-18607143D01*
X18783333Y-18616667D01*
X18792857Y-18635714D01*
X18792857Y-18740476D01*
X19183333Y-18530952D02*
X19011905Y-18788095D01*
X19440476Y-18540476D02*
X19459524Y-18540476D01*
X19478571Y-18550000D01*
X19488095Y-18559524D01*
X19497619Y-18578571D01*
X19507143Y-18616667D01*
X19507143Y-18664286D01*
X19497619Y-18702381D01*
X19488095Y-18721429D01*
X19478571Y-18730952D01*
X19459524Y-18740476D01*
X19440476Y-18740476D01*
X19421429Y-18730952D01*
X19411905Y-18721429D01*
X19402381Y-18702381D01*
X19392857Y-18664286D01*
X19392857Y-18616667D01*
X19402381Y-18578571D01*
X19411905Y-18559524D01*
X19421429Y-18550000D01*
X19440476Y-18540476D01*
X19592857Y-18721429D02*
X19602381Y-18730952D01*
X19592857Y-18740476D01*
X19583333Y-18730952D01*
X19592857Y-18721429D01*
X19592857Y-18740476D01*
X19726190Y-18540476D02*
X19745238Y-18540476D01*
X19764286Y-18550000D01*
X19773810Y-18559524D01*
X19783333Y-18578571D01*
X19792857Y-18616667D01*
X19792857Y-18664286D01*
X19783333Y-18702381D01*
X19773810Y-18721429D01*
X19764286Y-18730952D01*
X19745238Y-18740476D01*
X19726190Y-18740476D01*
X19707143Y-18730952D01*
X19697619Y-18721429D01*
X19688095Y-18702381D01*
X19678571Y-18664286D01*
X19678571Y-18616667D01*
X19688095Y-18578571D01*
X19697619Y-18559524D01*
X19707143Y-18550000D01*
X19726190Y-18540476D01*
X19983333Y-18740476D02*
X19869048Y-18740476D01*
X19926190Y-18740476D02*
X19926190Y-18540476D01*
X19907143Y-18569048D01*
X19888095Y-18588095D01*
X19869048Y-18597619D01*
X20173810Y-18740476D02*
X20059524Y-18740476D01*
X20116667Y-18740476D02*
X20116667Y-18540476D01*
X20097619Y-18569048D01*
X20078571Y-18588095D01*
X20059524Y-18597619D01*
X20288095Y-18626190D02*
X20269048Y-18616667D01*
X20259524Y-18607143D01*
X20250000Y-18588095D01*
X20250000Y-18578571D01*
X20259524Y-18559524D01*
X20269048Y-18550000D01*
X20288095Y-18540476D01*
X20326190Y-18540476D01*
X20345238Y-18550000D01*
X20354762Y-18559524D01*
X20364286Y-18578571D01*
X20364286Y-18588095D01*
X20354762Y-18607143D01*
X20345238Y-18616667D01*
X20326190Y-18626190D01*
X20288095Y-18626190D01*
X20269048Y-18635714D01*
X20259524Y-18645238D01*
X20250000Y-18664286D01*
X20250000Y-18702381D01*
X20259524Y-18721429D01*
X20269048Y-18730952D01*
X20288095Y-18740476D01*
X20326190Y-18740476D01*
X20345238Y-18730952D01*
X20354762Y-18721429D01*
X20364286Y-18702381D01*
X20364286Y-18664286D01*
X20354762Y-18645238D01*
X20345238Y-18635714D01*
X20326190Y-18626190D01*
X20440476Y-18540476D02*
X20440476Y-18578571D01*
X20516667Y-18540476D02*
X20516667Y-18578571D01*
X20811905Y-18816667D02*
X20802381Y-18807143D01*
X20783333Y-18778571D01*
X20773810Y-18759524D01*
X20764286Y-18730952D01*
X20754762Y-18683333D01*
X20754762Y-18645238D01*
X20764286Y-18597619D01*
X20773810Y-18569048D01*
X20783333Y-18550000D01*
X20802381Y-18521429D01*
X20811905Y-18511905D01*
X20973810Y-18607143D02*
X20973810Y-18740476D01*
X20926190Y-18530952D02*
X20878571Y-18673810D01*
X21002381Y-18673810D01*
X21164286Y-18540476D02*
X21126190Y-18540476D01*
X21107143Y-18550000D01*
X21097619Y-18559524D01*
X21078571Y-18588095D01*
X21069048Y-18626190D01*
X21069048Y-18702381D01*
X21078571Y-18721429D01*
X21088095Y-18730952D01*
X21107143Y-18740476D01*
X21145238Y-18740476D01*
X21164286Y-18730952D01*
X21173810Y-18721429D01*
X21183333Y-18702381D01*
X21183333Y-18654762D01*
X21173810Y-18635714D01*
X21164286Y-18626190D01*
X21145238Y-18616667D01*
X21107143Y-18616667D01*
X21088095Y-18626190D01*
X21078571Y-18635714D01*
X21069048Y-18654762D01*
X21297619Y-18626190D02*
X21278571Y-18616667D01*
X21269048Y-18607143D01*
X21259524Y-18588095D01*
X21259524Y-18578571D01*
X21269048Y-18559524D01*
X21278571Y-18550000D01*
X21297619Y-18540476D01*
X21335714Y-18540476D01*
X21354762Y-18550000D01*
X21364286Y-18559524D01*
X21373810Y-18578571D01*
X21373810Y-18588095D01*
X21364286Y-18607143D01*
X21354762Y-18616667D01*
X21335714Y-18626190D01*
X21297619Y-18626190D01*
X21278571Y-18635714D01*
X21269048Y-18645238D01*
X21259524Y-18664286D01*
X21259524Y-18702381D01*
X21269048Y-18721429D01*
X21278571Y-18730952D01*
X21297619Y-18740476D01*
X21335714Y-18740476D01*
X21354762Y-18730952D01*
X21364286Y-18721429D01*
X21373810Y-18702381D01*
X21373810Y-18664286D01*
X21364286Y-18645238D01*
X21354762Y-18635714D01*
X21335714Y-18626190D01*
X21611905Y-18740476D02*
X21611905Y-18540476D01*
X21697619Y-18740476D02*
X21697619Y-18635714D01*
X21688095Y-18616667D01*
X21669048Y-18607143D01*
X21640476Y-18607143D01*
X21621429Y-18616667D01*
X21611905Y-18626190D01*
X21821429Y-18740476D02*
X21802381Y-18730952D01*
X21792857Y-18721429D01*
X21783333Y-18702381D01*
X21783333Y-18645238D01*
X21792857Y-18626190D01*
X21802381Y-18616667D01*
X21821429Y-18607143D01*
X21850000Y-18607143D01*
X21869048Y-18616667D01*
X21878571Y-18626190D01*
X21888095Y-18645238D01*
X21888095Y-18702381D01*
X21878571Y-18721429D01*
X21869048Y-18730952D01*
X21850000Y-18740476D01*
X21821429Y-18740476D01*
X22002381Y-18740476D02*
X21983333Y-18730952D01*
X21973810Y-18711905D01*
X21973810Y-18540476D01*
X22154762Y-18730952D02*
X22135714Y-18740476D01*
X22097619Y-18740476D01*
X22078571Y-18730952D01*
X22069048Y-18711905D01*
X22069048Y-18635714D01*
X22078571Y-18616667D01*
X22097619Y-18607143D01*
X22135714Y-18607143D01*
X22154762Y-18616667D01*
X22164286Y-18635714D01*
X22164286Y-18654762D01*
X22069048Y-18673810D01*
X22240476Y-18730952D02*
X22259524Y-18740476D01*
X22297619Y-18740476D01*
X22316667Y-18730952D01*
X22326190Y-18711905D01*
X22326190Y-18702381D01*
X22316667Y-18683333D01*
X22297619Y-18673810D01*
X22269048Y-18673810D01*
X22250000Y-18664286D01*
X22240476Y-18645238D01*
X22240476Y-18635714D01*
X22250000Y-18616667D01*
X22269048Y-18607143D01*
X22297619Y-18607143D01*
X22316667Y-18616667D01*
X22392857Y-18816667D02*
X22402381Y-18807143D01*
X22421428Y-18778571D01*
X22430952Y-18759524D01*
X22440476Y-18730952D01*
X22450000Y-18683333D01*
X22450000Y-18645238D01*
X22440476Y-18597619D01*
X22430952Y-18569048D01*
X22421428Y-18550000D01*
X22402381Y-18521429D01*
X22392857Y-18511905D01*
D11*
X17240000Y-18914000D02*
G75*
G03*
X17240000Y-18914000I-15000J0D01*
G01*
D10*
X17535714Y-18804476D02*
X17554762Y-18804476D01*
X17573810Y-18814000D01*
X17583333Y-18823524D01*
X17592857Y-18842571D01*
X17602381Y-18880667D01*
X17602381Y-18928286D01*
X17592857Y-18966381D01*
X17583333Y-18985429D01*
X17573810Y-18994952D01*
X17554762Y-19004476D01*
X17535714Y-19004476D01*
X17516667Y-18994952D01*
X17507143Y-18985429D01*
X17497619Y-18966381D01*
X17488095Y-18928286D01*
X17488095Y-18880667D01*
X17497619Y-18842571D01*
X17507143Y-18823524D01*
X17516667Y-18814000D01*
X17535714Y-18804476D01*
X17688095Y-18985429D02*
X17697619Y-18994952D01*
X17688095Y-19004476D01*
X17678571Y-18994952D01*
X17688095Y-18985429D01*
X17688095Y-19004476D01*
X17764286Y-18804476D02*
X17888095Y-18804476D01*
X17821429Y-18880667D01*
X17850000Y-18880667D01*
X17869048Y-18890190D01*
X17878571Y-18899714D01*
X17888095Y-18918762D01*
X17888095Y-18966381D01*
X17878571Y-18985429D01*
X17869048Y-18994952D01*
X17850000Y-19004476D01*
X17792857Y-19004476D01*
X17773810Y-18994952D01*
X17764286Y-18985429D01*
X18011905Y-18804476D02*
X18030952Y-18804476D01*
X18050000Y-18814000D01*
X18059524Y-18823524D01*
X18069048Y-18842571D01*
X18078571Y-18880667D01*
X18078571Y-18928286D01*
X18069048Y-18966381D01*
X18059524Y-18985429D01*
X18050000Y-18994952D01*
X18030952Y-19004476D01*
X18011905Y-19004476D01*
X17992857Y-18994952D01*
X17983333Y-18985429D01*
X17973810Y-18966381D01*
X17964286Y-18928286D01*
X17964286Y-18880667D01*
X17973810Y-18842571D01*
X17983333Y-18823524D01*
X17992857Y-18814000D01*
X18011905Y-18804476D01*
X18202381Y-18804476D02*
X18221429Y-18804476D01*
X18240476Y-18814000D01*
X18250000Y-18823524D01*
X18259524Y-18842571D01*
X18269048Y-18880667D01*
X18269048Y-18928286D01*
X18259524Y-18966381D01*
X18250000Y-18985429D01*
X18240476Y-18994952D01*
X18221429Y-19004476D01*
X18202381Y-19004476D01*
X18183333Y-18994952D01*
X18173810Y-18985429D01*
X18164286Y-18966381D01*
X18154762Y-18928286D01*
X18154762Y-18880667D01*
X18164286Y-18842571D01*
X18173810Y-18823524D01*
X18183333Y-18814000D01*
X18202381Y-18804476D01*
X18354762Y-19004476D02*
X18354762Y-18871143D01*
X18354762Y-18890190D02*
X18364286Y-18880667D01*
X18383333Y-18871143D01*
X18411905Y-18871143D01*
X18430952Y-18880667D01*
X18440476Y-18899714D01*
X18440476Y-19004476D01*
X18440476Y-18899714D02*
X18450000Y-18880667D01*
X18469048Y-18871143D01*
X18497619Y-18871143D01*
X18516667Y-18880667D01*
X18526190Y-18899714D01*
X18526190Y-19004476D01*
X18621429Y-19004476D02*
X18621429Y-18871143D01*
X18621429Y-18890190D02*
X18630952Y-18880667D01*
X18650000Y-18871143D01*
X18678571Y-18871143D01*
X18697619Y-18880667D01*
X18707143Y-18899714D01*
X18707143Y-19004476D01*
X18707143Y-18899714D02*
X18716667Y-18880667D01*
X18735714Y-18871143D01*
X18764286Y-18871143D01*
X18783333Y-18880667D01*
X18792857Y-18899714D01*
X18792857Y-19004476D01*
X19183333Y-18794952D02*
X19011905Y-19052095D01*
X19440476Y-18804476D02*
X19459524Y-18804476D01*
X19478571Y-18814000D01*
X19488095Y-18823524D01*
X19497619Y-18842571D01*
X19507143Y-18880667D01*
X19507143Y-18928286D01*
X19497619Y-18966381D01*
X19488095Y-18985429D01*
X19478571Y-18994952D01*
X19459524Y-19004476D01*
X19440476Y-19004476D01*
X19421429Y-18994952D01*
X19411905Y-18985429D01*
X19402381Y-18966381D01*
X19392857Y-18928286D01*
X19392857Y-18880667D01*
X19402381Y-18842571D01*
X19411905Y-18823524D01*
X19421429Y-18814000D01*
X19440476Y-18804476D01*
X19592857Y-18985429D02*
X19602381Y-18994952D01*
X19592857Y-19004476D01*
X19583333Y-18994952D01*
X19592857Y-18985429D01*
X19592857Y-19004476D01*
X19726190Y-18804476D02*
X19745238Y-18804476D01*
X19764286Y-18814000D01*
X19773810Y-18823524D01*
X19783333Y-18842571D01*
X19792857Y-18880667D01*
X19792857Y-18928286D01*
X19783333Y-18966381D01*
X19773810Y-18985429D01*
X19764286Y-18994952D01*
X19745238Y-19004476D01*
X19726190Y-19004476D01*
X19707143Y-18994952D01*
X19697619Y-18985429D01*
X19688095Y-18966381D01*
X19678571Y-18928286D01*
X19678571Y-18880667D01*
X19688095Y-18842571D01*
X19697619Y-18823524D01*
X19707143Y-18814000D01*
X19726190Y-18804476D01*
X19983333Y-19004476D02*
X19869048Y-19004476D01*
X19926190Y-19004476D02*
X19926190Y-18804476D01*
X19907143Y-18833048D01*
X19888095Y-18852095D01*
X19869048Y-18861619D01*
X20173810Y-19004476D02*
X20059524Y-19004476D01*
X20116667Y-19004476D02*
X20116667Y-18804476D01*
X20097619Y-18833048D01*
X20078571Y-18852095D01*
X20059524Y-18861619D01*
X20288095Y-18890190D02*
X20269048Y-18880667D01*
X20259524Y-18871143D01*
X20250000Y-18852095D01*
X20250000Y-18842571D01*
X20259524Y-18823524D01*
X20269048Y-18814000D01*
X20288095Y-18804476D01*
X20326190Y-18804476D01*
X20345238Y-18814000D01*
X20354762Y-18823524D01*
X20364286Y-18842571D01*
X20364286Y-18852095D01*
X20354762Y-18871143D01*
X20345238Y-18880667D01*
X20326190Y-18890190D01*
X20288095Y-18890190D01*
X20269048Y-18899714D01*
X20259524Y-18909238D01*
X20250000Y-18928286D01*
X20250000Y-18966381D01*
X20259524Y-18985429D01*
X20269048Y-18994952D01*
X20288095Y-19004476D01*
X20326190Y-19004476D01*
X20345238Y-18994952D01*
X20354762Y-18985429D01*
X20364286Y-18966381D01*
X20364286Y-18928286D01*
X20354762Y-18909238D01*
X20345238Y-18899714D01*
X20326190Y-18890190D01*
X20440476Y-18804476D02*
X20440476Y-18842571D01*
X20516667Y-18804476D02*
X20516667Y-18842571D01*
X20811905Y-19080667D02*
X20802381Y-19071143D01*
X20783333Y-19042571D01*
X20773810Y-19023524D01*
X20764286Y-18994952D01*
X20754762Y-18947333D01*
X20754762Y-18909238D01*
X20764286Y-18861619D01*
X20773810Y-18833048D01*
X20783333Y-18814000D01*
X20802381Y-18785429D01*
X20811905Y-18775905D01*
X20897619Y-19004476D02*
X20935714Y-19004476D01*
X20954762Y-18994952D01*
X20964286Y-18985429D01*
X20983333Y-18956857D01*
X20992857Y-18918762D01*
X20992857Y-18842571D01*
X20983333Y-18823524D01*
X20973810Y-18814000D01*
X20954762Y-18804476D01*
X20916667Y-18804476D01*
X20897619Y-18814000D01*
X20888095Y-18823524D01*
X20878571Y-18842571D01*
X20878571Y-18890190D01*
X20888095Y-18909238D01*
X20897619Y-18918762D01*
X20916667Y-18928286D01*
X20954762Y-18928286D01*
X20973810Y-18918762D01*
X20983333Y-18909238D01*
X20992857Y-18890190D01*
X21230952Y-19004476D02*
X21230952Y-18804476D01*
X21316667Y-19004476D02*
X21316667Y-18899714D01*
X21307143Y-18880667D01*
X21288095Y-18871143D01*
X21259524Y-18871143D01*
X21240476Y-18880667D01*
X21230952Y-18890190D01*
X21440476Y-19004476D02*
X21421429Y-18994952D01*
X21411905Y-18985429D01*
X21402381Y-18966381D01*
X21402381Y-18909238D01*
X21411905Y-18890190D01*
X21421429Y-18880667D01*
X21440476Y-18871143D01*
X21469048Y-18871143D01*
X21488095Y-18880667D01*
X21497619Y-18890190D01*
X21507143Y-18909238D01*
X21507143Y-18966381D01*
X21497619Y-18985429D01*
X21488095Y-18994952D01*
X21469048Y-19004476D01*
X21440476Y-19004476D01*
X21621429Y-19004476D02*
X21602381Y-18994952D01*
X21592857Y-18975905D01*
X21592857Y-18804476D01*
X21773810Y-18994952D02*
X21754762Y-19004476D01*
X21716667Y-19004476D01*
X21697619Y-18994952D01*
X21688095Y-18975905D01*
X21688095Y-18899714D01*
X21697619Y-18880667D01*
X21716667Y-18871143D01*
X21754762Y-18871143D01*
X21773810Y-18880667D01*
X21783333Y-18899714D01*
X21783333Y-18918762D01*
X21688095Y-18937810D01*
X21859524Y-18994952D02*
X21878571Y-19004476D01*
X21916667Y-19004476D01*
X21935714Y-18994952D01*
X21945238Y-18975905D01*
X21945238Y-18966381D01*
X21935714Y-18947333D01*
X21916667Y-18937810D01*
X21888095Y-18937810D01*
X21869048Y-18928286D01*
X21859524Y-18909238D01*
X21859524Y-18899714D01*
X21869048Y-18880667D01*
X21888095Y-18871143D01*
X21916667Y-18871143D01*
X21935714Y-18880667D01*
X22011905Y-19080667D02*
X22021429Y-19071143D01*
X22040476Y-19042571D01*
X22050000Y-19023524D01*
X22059524Y-18994952D01*
X22069048Y-18947333D01*
X22069048Y-18909238D01*
X22059524Y-18861619D01*
X22050000Y-18833048D01*
X22040476Y-18814000D01*
X22021429Y-18785429D01*
X22011905Y-18775905D01*
D12*
X17205000Y-19143000D02*
X17205000Y-19213000D01*
X17170000Y-19178000D02*
X17240000Y-19178000D01*
D10*
X17535714Y-19068476D02*
X17554762Y-19068476D01*
X17573810Y-19078000D01*
X17583333Y-19087524D01*
X17592857Y-19106571D01*
X17602381Y-19144667D01*
X17602381Y-19192286D01*
X17592857Y-19230381D01*
X17583333Y-19249429D01*
X17573810Y-19258952D01*
X17554762Y-19268476D01*
X17535714Y-19268476D01*
X17516667Y-19258952D01*
X17507143Y-19249429D01*
X17497619Y-19230381D01*
X17488095Y-19192286D01*
X17488095Y-19144667D01*
X17497619Y-19106571D01*
X17507143Y-19087524D01*
X17516667Y-19078000D01*
X17535714Y-19068476D01*
X17688095Y-19249429D02*
X17697619Y-19258952D01*
X17688095Y-19268476D01*
X17678571Y-19258952D01*
X17688095Y-19249429D01*
X17688095Y-19268476D01*
X17764286Y-19068476D02*
X17897619Y-19068476D01*
X17811905Y-19268476D01*
X18011905Y-19068476D02*
X18030952Y-19068476D01*
X18050000Y-19078000D01*
X18059524Y-19087524D01*
X18069048Y-19106571D01*
X18078571Y-19144667D01*
X18078571Y-19192286D01*
X18069048Y-19230381D01*
X18059524Y-19249429D01*
X18050000Y-19258952D01*
X18030952Y-19268476D01*
X18011905Y-19268476D01*
X17992857Y-19258952D01*
X17983333Y-19249429D01*
X17973810Y-19230381D01*
X17964286Y-19192286D01*
X17964286Y-19144667D01*
X17973810Y-19106571D01*
X17983333Y-19087524D01*
X17992857Y-19078000D01*
X18011905Y-19068476D01*
X18202381Y-19068476D02*
X18221429Y-19068476D01*
X18240476Y-19078000D01*
X18250000Y-19087524D01*
X18259524Y-19106571D01*
X18269048Y-19144667D01*
X18269048Y-19192286D01*
X18259524Y-19230381D01*
X18250000Y-19249429D01*
X18240476Y-19258952D01*
X18221429Y-19268476D01*
X18202381Y-19268476D01*
X18183333Y-19258952D01*
X18173810Y-19249429D01*
X18164286Y-19230381D01*
X18154762Y-19192286D01*
X18154762Y-19144667D01*
X18164286Y-19106571D01*
X18173810Y-19087524D01*
X18183333Y-19078000D01*
X18202381Y-19068476D01*
X18354762Y-19268476D02*
X18354762Y-19135143D01*
X18354762Y-19154190D02*
X18364286Y-19144667D01*
X18383333Y-19135143D01*
X18411905Y-19135143D01*
X18430952Y-19144667D01*
X18440476Y-19163714D01*
X18440476Y-19268476D01*
X18440476Y-19163714D02*
X18450000Y-19144667D01*
X18469048Y-19135143D01*
X18497619Y-19135143D01*
X18516667Y-19144667D01*
X18526190Y-19163714D01*
X18526190Y-19268476D01*
X18621429Y-19268476D02*
X18621429Y-19135143D01*
X18621429Y-19154190D02*
X18630952Y-19144667D01*
X18650000Y-19135143D01*
X18678571Y-19135143D01*
X18697619Y-19144667D01*
X18707143Y-19163714D01*
X18707143Y-19268476D01*
X18707143Y-19163714D02*
X18716667Y-19144667D01*
X18735714Y-19135143D01*
X18764286Y-19135143D01*
X18783333Y-19144667D01*
X18792857Y-19163714D01*
X18792857Y-19268476D01*
X19183333Y-19058952D02*
X19011905Y-19316095D01*
X19440476Y-19068476D02*
X19459524Y-19068476D01*
X19478571Y-19078000D01*
X19488095Y-19087524D01*
X19497619Y-19106571D01*
X19507143Y-19144667D01*
X19507143Y-19192286D01*
X19497619Y-19230381D01*
X19488095Y-19249429D01*
X19478571Y-19258952D01*
X19459524Y-19268476D01*
X19440476Y-19268476D01*
X19421429Y-19258952D01*
X19411905Y-19249429D01*
X19402381Y-19230381D01*
X19392857Y-19192286D01*
X19392857Y-19144667D01*
X19402381Y-19106571D01*
X19411905Y-19087524D01*
X19421429Y-19078000D01*
X19440476Y-19068476D01*
X19592857Y-19249429D02*
X19602381Y-19258952D01*
X19592857Y-19268476D01*
X19583333Y-19258952D01*
X19592857Y-19249429D01*
X19592857Y-19268476D01*
X19726190Y-19068476D02*
X19745238Y-19068476D01*
X19764286Y-19078000D01*
X19773810Y-19087524D01*
X19783333Y-19106571D01*
X19792857Y-19144667D01*
X19792857Y-19192286D01*
X19783333Y-19230381D01*
X19773810Y-19249429D01*
X19764286Y-19258952D01*
X19745238Y-19268476D01*
X19726190Y-19268476D01*
X19707143Y-19258952D01*
X19697619Y-19249429D01*
X19688095Y-19230381D01*
X19678571Y-19192286D01*
X19678571Y-19144667D01*
X19688095Y-19106571D01*
X19697619Y-19087524D01*
X19707143Y-19078000D01*
X19726190Y-19068476D01*
X19869048Y-19087524D02*
X19878571Y-19078000D01*
X19897619Y-19068476D01*
X19945238Y-19068476D01*
X19964286Y-19078000D01*
X19973810Y-19087524D01*
X19983333Y-19106571D01*
X19983333Y-19125619D01*
X19973810Y-19154190D01*
X19859524Y-19268476D01*
X19983333Y-19268476D01*
X20050000Y-19068476D02*
X20183333Y-19068476D01*
X20097619Y-19268476D01*
X20345238Y-19068476D02*
X20307143Y-19068476D01*
X20288095Y-19078000D01*
X20278571Y-19087524D01*
X20259524Y-19116095D01*
X20250000Y-19154190D01*
X20250000Y-19230381D01*
X20259524Y-19249429D01*
X20269048Y-19258952D01*
X20288095Y-19268476D01*
X20326190Y-19268476D01*
X20345238Y-19258952D01*
X20354762Y-19249429D01*
X20364286Y-19230381D01*
X20364286Y-19182762D01*
X20354762Y-19163714D01*
X20345238Y-19154190D01*
X20326190Y-19144667D01*
X20288095Y-19144667D01*
X20269048Y-19154190D01*
X20259524Y-19163714D01*
X20250000Y-19182762D01*
X20440476Y-19068476D02*
X20440476Y-19106571D01*
X20516667Y-19068476D02*
X20516667Y-19106571D01*
X20811905Y-19344667D02*
X20802381Y-19335143D01*
X20783333Y-19306571D01*
X20773810Y-19287524D01*
X20764286Y-19258952D01*
X20754762Y-19211333D01*
X20754762Y-19173238D01*
X20764286Y-19125619D01*
X20773810Y-19097048D01*
X20783333Y-19078000D01*
X20802381Y-19049429D01*
X20811905Y-19039905D01*
X20983333Y-19068476D02*
X20888095Y-19068476D01*
X20878571Y-19163714D01*
X20888095Y-19154190D01*
X20907143Y-19144667D01*
X20954762Y-19144667D01*
X20973810Y-19154190D01*
X20983333Y-19163714D01*
X20992857Y-19182762D01*
X20992857Y-19230381D01*
X20983333Y-19249429D01*
X20973810Y-19258952D01*
X20954762Y-19268476D01*
X20907143Y-19268476D01*
X20888095Y-19258952D01*
X20878571Y-19249429D01*
X21230952Y-19268476D02*
X21230952Y-19068476D01*
X21316667Y-19268476D02*
X21316667Y-19163714D01*
X21307143Y-19144667D01*
X21288095Y-19135143D01*
X21259524Y-19135143D01*
X21240476Y-19144667D01*
X21230952Y-19154190D01*
X21440476Y-19268476D02*
X21421429Y-19258952D01*
X21411905Y-19249429D01*
X21402381Y-19230381D01*
X21402381Y-19173238D01*
X21411905Y-19154190D01*
X21421429Y-19144667D01*
X21440476Y-19135143D01*
X21469048Y-19135143D01*
X21488095Y-19144667D01*
X21497619Y-19154190D01*
X21507143Y-19173238D01*
X21507143Y-19230381D01*
X21497619Y-19249429D01*
X21488095Y-19258952D01*
X21469048Y-19268476D01*
X21440476Y-19268476D01*
X21621429Y-19268476D02*
X21602381Y-19258952D01*
X21592857Y-19239905D01*
X21592857Y-19068476D01*
X21773810Y-19258952D02*
X21754762Y-19268476D01*
X21716667Y-19268476D01*
X21697619Y-19258952D01*
X21688095Y-19239905D01*
X21688095Y-19163714D01*
X21697619Y-19144667D01*
X21716667Y-19135143D01*
X21754762Y-19135143D01*
X21773810Y-19144667D01*
X21783333Y-19163714D01*
X21783333Y-19182762D01*
X21688095Y-19201810D01*
X21859524Y-19258952D02*
X21878571Y-19268476D01*
X21916667Y-19268476D01*
X21935714Y-19258952D01*
X21945238Y-19239905D01*
X21945238Y-19230381D01*
X21935714Y-19211333D01*
X21916667Y-19201810D01*
X21888095Y-19201810D01*
X21869048Y-19192286D01*
X21859524Y-19173238D01*
X21859524Y-19163714D01*
X21869048Y-19144667D01*
X21888095Y-19135143D01*
X21916667Y-19135143D01*
X21935714Y-19144667D01*
X22011905Y-19344667D02*
X22021429Y-19335143D01*
X22040476Y-19306571D01*
X22050000Y-19287524D01*
X22059524Y-19258952D01*
X22069048Y-19211333D01*
X22069048Y-19173238D01*
X22059524Y-19125619D01*
X22050000Y-19097048D01*
X22040476Y-19078000D01*
X22021429Y-19049429D01*
X22011905Y-19039905D01*
D13*
X17225356Y-19477356D02*
X17225356Y-19406644D01*
X17154644Y-19406644D01*
X17154644Y-19477356D01*
X17225356Y-19477356D01*
D10*
X17602381Y-19532476D02*
X17488095Y-19532476D01*
X17545238Y-19532476D02*
X17545238Y-19332476D01*
X17526190Y-19361048D01*
X17507143Y-19380095D01*
X17488095Y-19389619D01*
X17688095Y-19513429D02*
X17697619Y-19522952D01*
X17688095Y-19532476D01*
X17678571Y-19522952D01*
X17688095Y-19513429D01*
X17688095Y-19532476D01*
X17821429Y-19332476D02*
X17840476Y-19332476D01*
X17859524Y-19342000D01*
X17869048Y-19351524D01*
X17878571Y-19370571D01*
X17888095Y-19408667D01*
X17888095Y-19456286D01*
X17878571Y-19494381D01*
X17869048Y-19513429D01*
X17859524Y-19522952D01*
X17840476Y-19532476D01*
X17821429Y-19532476D01*
X17802381Y-19522952D01*
X17792857Y-19513429D01*
X17783333Y-19494381D01*
X17773810Y-19456286D01*
X17773810Y-19408667D01*
X17783333Y-19370571D01*
X17792857Y-19351524D01*
X17802381Y-19342000D01*
X17821429Y-19332476D01*
X18011905Y-19332476D02*
X18030952Y-19332476D01*
X18050000Y-19342000D01*
X18059524Y-19351524D01*
X18069048Y-19370571D01*
X18078571Y-19408667D01*
X18078571Y-19456286D01*
X18069048Y-19494381D01*
X18059524Y-19513429D01*
X18050000Y-19522952D01*
X18030952Y-19532476D01*
X18011905Y-19532476D01*
X17992857Y-19522952D01*
X17983333Y-19513429D01*
X17973810Y-19494381D01*
X17964286Y-19456286D01*
X17964286Y-19408667D01*
X17973810Y-19370571D01*
X17983333Y-19351524D01*
X17992857Y-19342000D01*
X18011905Y-19332476D01*
X18202381Y-19332476D02*
X18221429Y-19332476D01*
X18240476Y-19342000D01*
X18250000Y-19351524D01*
X18259524Y-19370571D01*
X18269048Y-19408667D01*
X18269048Y-19456286D01*
X18259524Y-19494381D01*
X18250000Y-19513429D01*
X18240476Y-19522952D01*
X18221429Y-19532476D01*
X18202381Y-19532476D01*
X18183333Y-19522952D01*
X18173810Y-19513429D01*
X18164286Y-19494381D01*
X18154762Y-19456286D01*
X18154762Y-19408667D01*
X18164286Y-19370571D01*
X18173810Y-19351524D01*
X18183333Y-19342000D01*
X18202381Y-19332476D01*
X18354762Y-19532476D02*
X18354762Y-19399143D01*
X18354762Y-19418190D02*
X18364286Y-19408667D01*
X18383333Y-19399143D01*
X18411905Y-19399143D01*
X18430952Y-19408667D01*
X18440476Y-19427714D01*
X18440476Y-19532476D01*
X18440476Y-19427714D02*
X18450000Y-19408667D01*
X18469048Y-19399143D01*
X18497619Y-19399143D01*
X18516667Y-19408667D01*
X18526190Y-19427714D01*
X18526190Y-19532476D01*
X18621429Y-19532476D02*
X18621429Y-19399143D01*
X18621429Y-19418190D02*
X18630952Y-19408667D01*
X18650000Y-19399143D01*
X18678571Y-19399143D01*
X18697619Y-19408667D01*
X18707143Y-19427714D01*
X18707143Y-19532476D01*
X18707143Y-19427714D02*
X18716667Y-19408667D01*
X18735714Y-19399143D01*
X18764286Y-19399143D01*
X18783333Y-19408667D01*
X18792857Y-19427714D01*
X18792857Y-19532476D01*
X19183333Y-19322952D02*
X19011905Y-19580095D01*
X19440476Y-19332476D02*
X19459524Y-19332476D01*
X19478571Y-19342000D01*
X19488095Y-19351524D01*
X19497619Y-19370571D01*
X19507143Y-19408667D01*
X19507143Y-19456286D01*
X19497619Y-19494381D01*
X19488095Y-19513429D01*
X19478571Y-19522952D01*
X19459524Y-19532476D01*
X19440476Y-19532476D01*
X19421429Y-19522952D01*
X19411905Y-19513429D01*
X19402381Y-19494381D01*
X19392857Y-19456286D01*
X19392857Y-19408667D01*
X19402381Y-19370571D01*
X19411905Y-19351524D01*
X19421429Y-19342000D01*
X19440476Y-19332476D01*
X19592857Y-19513429D02*
X19602381Y-19522952D01*
X19592857Y-19532476D01*
X19583333Y-19522952D01*
X19592857Y-19513429D01*
X19592857Y-19532476D01*
X19726190Y-19332476D02*
X19745238Y-19332476D01*
X19764286Y-19342000D01*
X19773810Y-19351524D01*
X19783333Y-19370571D01*
X19792857Y-19408667D01*
X19792857Y-19456286D01*
X19783333Y-19494381D01*
X19773810Y-19513429D01*
X19764286Y-19522952D01*
X19745238Y-19532476D01*
X19726190Y-19532476D01*
X19707143Y-19522952D01*
X19697619Y-19513429D01*
X19688095Y-19494381D01*
X19678571Y-19456286D01*
X19678571Y-19408667D01*
X19688095Y-19370571D01*
X19697619Y-19351524D01*
X19707143Y-19342000D01*
X19726190Y-19332476D01*
X19859524Y-19332476D02*
X19983333Y-19332476D01*
X19916667Y-19408667D01*
X19945238Y-19408667D01*
X19964286Y-19418190D01*
X19973810Y-19427714D01*
X19983333Y-19446762D01*
X19983333Y-19494381D01*
X19973810Y-19513429D01*
X19964286Y-19522952D01*
X19945238Y-19532476D01*
X19888095Y-19532476D01*
X19869048Y-19522952D01*
X19859524Y-19513429D01*
X20078571Y-19532476D02*
X20116667Y-19532476D01*
X20135714Y-19522952D01*
X20145238Y-19513429D01*
X20164286Y-19484857D01*
X20173810Y-19446762D01*
X20173810Y-19370571D01*
X20164286Y-19351524D01*
X20154762Y-19342000D01*
X20135714Y-19332476D01*
X20097619Y-19332476D01*
X20078571Y-19342000D01*
X20069048Y-19351524D01*
X20059524Y-19370571D01*
X20059524Y-19418190D01*
X20069048Y-19437238D01*
X20078571Y-19446762D01*
X20097619Y-19456286D01*
X20135714Y-19456286D01*
X20154762Y-19446762D01*
X20164286Y-19437238D01*
X20173810Y-19418190D01*
X20345238Y-19399143D02*
X20345238Y-19532476D01*
X20297619Y-19322952D02*
X20250000Y-19465810D01*
X20373810Y-19465810D01*
X20440476Y-19332476D02*
X20440476Y-19370571D01*
X20516667Y-19332476D02*
X20516667Y-19370571D01*
X20811905Y-19608667D02*
X20802381Y-19599143D01*
X20783333Y-19570571D01*
X20773810Y-19551524D01*
X20764286Y-19522952D01*
X20754762Y-19475333D01*
X20754762Y-19437238D01*
X20764286Y-19389619D01*
X20773810Y-19361048D01*
X20783333Y-19342000D01*
X20802381Y-19313429D01*
X20811905Y-19303905D01*
X20869048Y-19332476D02*
X20992857Y-19332476D01*
X20926190Y-19408667D01*
X20954762Y-19408667D01*
X20973810Y-19418190D01*
X20983333Y-19427714D01*
X20992857Y-19446762D01*
X20992857Y-19494381D01*
X20983333Y-19513429D01*
X20973810Y-19522952D01*
X20954762Y-19532476D01*
X20897619Y-19532476D01*
X20878571Y-19522952D01*
X20869048Y-19513429D01*
X21059524Y-19332476D02*
X21183333Y-19332476D01*
X21116667Y-19408667D01*
X21145238Y-19408667D01*
X21164286Y-19418190D01*
X21173810Y-19427714D01*
X21183333Y-19446762D01*
X21183333Y-19494381D01*
X21173810Y-19513429D01*
X21164286Y-19522952D01*
X21145238Y-19532476D01*
X21088095Y-19532476D01*
X21069048Y-19522952D01*
X21059524Y-19513429D01*
X21421429Y-19532476D02*
X21421429Y-19332476D01*
X21507143Y-19532476D02*
X21507143Y-19427714D01*
X21497619Y-19408667D01*
X21478571Y-19399143D01*
X21450000Y-19399143D01*
X21430952Y-19408667D01*
X21421429Y-19418190D01*
X21630952Y-19532476D02*
X21611905Y-19522952D01*
X21602381Y-19513429D01*
X21592857Y-19494381D01*
X21592857Y-19437238D01*
X21602381Y-19418190D01*
X21611905Y-19408667D01*
X21630952Y-19399143D01*
X21659524Y-19399143D01*
X21678571Y-19408667D01*
X21688095Y-19418190D01*
X21697619Y-19437238D01*
X21697619Y-19494381D01*
X21688095Y-19513429D01*
X21678571Y-19522952D01*
X21659524Y-19532476D01*
X21630952Y-19532476D01*
X21811905Y-19532476D02*
X21792857Y-19522952D01*
X21783333Y-19503905D01*
X21783333Y-19332476D01*
X21964286Y-19522952D02*
X21945238Y-19532476D01*
X21907143Y-19532476D01*
X21888095Y-19522952D01*
X21878571Y-19503905D01*
X21878571Y-19427714D01*
X21888095Y-19408667D01*
X21907143Y-19399143D01*
X21945238Y-19399143D01*
X21964286Y-19408667D01*
X21973810Y-19427714D01*
X21973810Y-19446762D01*
X21878571Y-19465810D01*
X22050000Y-19522952D02*
X22069048Y-19532476D01*
X22107143Y-19532476D01*
X22126190Y-19522952D01*
X22135714Y-19503905D01*
X22135714Y-19494381D01*
X22126190Y-19475333D01*
X22107143Y-19465810D01*
X22078571Y-19465810D01*
X22059524Y-19456286D01*
X22050000Y-19437238D01*
X22050000Y-19427714D01*
X22059524Y-19408667D01*
X22078571Y-19399143D01*
X22107143Y-19399143D01*
X22126190Y-19408667D01*
X22202381Y-19608667D02*
X22211905Y-19599143D01*
X22230952Y-19570571D01*
X22240476Y-19551524D01*
X22250000Y-19522952D01*
X22259524Y-19475333D01*
X22259524Y-19437238D01*
X22250000Y-19389619D01*
X22240476Y-19361048D01*
X22230952Y-19342000D01*
X22211905Y-19313429D01*
X22202381Y-19303905D01*
D14*
X17170000Y-19776000D02*
X17240000Y-19706000D01*
X17170000Y-19636000D01*
X17100000Y-19706000D01*
X17170000Y-19776000D01*
D10*
X17602381Y-19796476D02*
X17488095Y-19796476D01*
X17545238Y-19796476D02*
X17545238Y-19596476D01*
X17526190Y-19625048D01*
X17507143Y-19644095D01*
X17488095Y-19653619D01*
X17688095Y-19777429D02*
X17697619Y-19786952D01*
X17688095Y-19796476D01*
X17678571Y-19786952D01*
X17688095Y-19777429D01*
X17688095Y-19796476D01*
X17869048Y-19663143D02*
X17869048Y-19796476D01*
X17821429Y-19586952D02*
X17773810Y-19729810D01*
X17897619Y-19729810D01*
X18011905Y-19596476D02*
X18030952Y-19596476D01*
X18050000Y-19606000D01*
X18059524Y-19615524D01*
X18069048Y-19634571D01*
X18078571Y-19672667D01*
X18078571Y-19720286D01*
X18069048Y-19758381D01*
X18059524Y-19777429D01*
X18050000Y-19786952D01*
X18030952Y-19796476D01*
X18011905Y-19796476D01*
X17992857Y-19786952D01*
X17983333Y-19777429D01*
X17973810Y-19758381D01*
X17964286Y-19720286D01*
X17964286Y-19672667D01*
X17973810Y-19634571D01*
X17983333Y-19615524D01*
X17992857Y-19606000D01*
X18011905Y-19596476D01*
X18202381Y-19596476D02*
X18221429Y-19596476D01*
X18240476Y-19606000D01*
X18250000Y-19615524D01*
X18259524Y-19634571D01*
X18269048Y-19672667D01*
X18269048Y-19720286D01*
X18259524Y-19758381D01*
X18250000Y-19777429D01*
X18240476Y-19786952D01*
X18221429Y-19796476D01*
X18202381Y-19796476D01*
X18183333Y-19786952D01*
X18173810Y-19777429D01*
X18164286Y-19758381D01*
X18154762Y-19720286D01*
X18154762Y-19672667D01*
X18164286Y-19634571D01*
X18173810Y-19615524D01*
X18183333Y-19606000D01*
X18202381Y-19596476D01*
X18354762Y-19796476D02*
X18354762Y-19663143D01*
X18354762Y-19682190D02*
X18364286Y-19672667D01*
X18383333Y-19663143D01*
X18411905Y-19663143D01*
X18430952Y-19672667D01*
X18440476Y-19691714D01*
X18440476Y-19796476D01*
X18440476Y-19691714D02*
X18450000Y-19672667D01*
X18469048Y-19663143D01*
X18497619Y-19663143D01*
X18516667Y-19672667D01*
X18526190Y-19691714D01*
X18526190Y-19796476D01*
X18621429Y-19796476D02*
X18621429Y-19663143D01*
X18621429Y-19682190D02*
X18630952Y-19672667D01*
X18650000Y-19663143D01*
X18678571Y-19663143D01*
X18697619Y-19672667D01*
X18707143Y-19691714D01*
X18707143Y-19796476D01*
X18707143Y-19691714D02*
X18716667Y-19672667D01*
X18735714Y-19663143D01*
X18764286Y-19663143D01*
X18783333Y-19672667D01*
X18792857Y-19691714D01*
X18792857Y-19796476D01*
X19183333Y-19586952D02*
X19011905Y-19844095D01*
X19440476Y-19596476D02*
X19459524Y-19596476D01*
X19478571Y-19606000D01*
X19488095Y-19615524D01*
X19497619Y-19634571D01*
X19507143Y-19672667D01*
X19507143Y-19720286D01*
X19497619Y-19758381D01*
X19488095Y-19777429D01*
X19478571Y-19786952D01*
X19459524Y-19796476D01*
X19440476Y-19796476D01*
X19421429Y-19786952D01*
X19411905Y-19777429D01*
X19402381Y-19758381D01*
X19392857Y-19720286D01*
X19392857Y-19672667D01*
X19402381Y-19634571D01*
X19411905Y-19615524D01*
X19421429Y-19606000D01*
X19440476Y-19596476D01*
X19592857Y-19777429D02*
X19602381Y-19786952D01*
X19592857Y-19796476D01*
X19583333Y-19786952D01*
X19592857Y-19777429D01*
X19592857Y-19796476D01*
X19726190Y-19596476D02*
X19745238Y-19596476D01*
X19764286Y-19606000D01*
X19773810Y-19615524D01*
X19783333Y-19634571D01*
X19792857Y-19672667D01*
X19792857Y-19720286D01*
X19783333Y-19758381D01*
X19773810Y-19777429D01*
X19764286Y-19786952D01*
X19745238Y-19796476D01*
X19726190Y-19796476D01*
X19707143Y-19786952D01*
X19697619Y-19777429D01*
X19688095Y-19758381D01*
X19678571Y-19720286D01*
X19678571Y-19672667D01*
X19688095Y-19634571D01*
X19697619Y-19615524D01*
X19707143Y-19606000D01*
X19726190Y-19596476D01*
X19973810Y-19596476D02*
X19878571Y-19596476D01*
X19869048Y-19691714D01*
X19878571Y-19682190D01*
X19897619Y-19672667D01*
X19945238Y-19672667D01*
X19964286Y-19682190D01*
X19973810Y-19691714D01*
X19983333Y-19710762D01*
X19983333Y-19758381D01*
X19973810Y-19777429D01*
X19964286Y-19786952D01*
X19945238Y-19796476D01*
X19897619Y-19796476D01*
X19878571Y-19786952D01*
X19869048Y-19777429D01*
X20164286Y-19596476D02*
X20069048Y-19596476D01*
X20059524Y-19691714D01*
X20069048Y-19682190D01*
X20088095Y-19672667D01*
X20135714Y-19672667D01*
X20154762Y-19682190D01*
X20164286Y-19691714D01*
X20173810Y-19710762D01*
X20173810Y-19758381D01*
X20164286Y-19777429D01*
X20154762Y-19786952D01*
X20135714Y-19796476D01*
X20088095Y-19796476D01*
X20069048Y-19786952D01*
X20059524Y-19777429D01*
X20364286Y-19796476D02*
X20250000Y-19796476D01*
X20307143Y-19796476D02*
X20307143Y-19596476D01*
X20288095Y-19625048D01*
X20269048Y-19644095D01*
X20250000Y-19653619D01*
X20440476Y-19596476D02*
X20440476Y-19634571D01*
X20516667Y-19596476D02*
X20516667Y-19634571D01*
X20811905Y-19872667D02*
X20802381Y-19863143D01*
X20783333Y-19834571D01*
X20773810Y-19815524D01*
X20764286Y-19786952D01*
X20754762Y-19739333D01*
X20754762Y-19701238D01*
X20764286Y-19653619D01*
X20773810Y-19625048D01*
X20783333Y-19606000D01*
X20802381Y-19577429D01*
X20811905Y-19567905D01*
X20973810Y-19663143D02*
X20973810Y-19796476D01*
X20926190Y-19586952D02*
X20878571Y-19729810D01*
X21002381Y-19729810D01*
X21230952Y-19796476D02*
X21230952Y-19596476D01*
X21316667Y-19796476D02*
X21316667Y-19691714D01*
X21307143Y-19672667D01*
X21288095Y-19663143D01*
X21259524Y-19663143D01*
X21240476Y-19672667D01*
X21230952Y-19682190D01*
X21440476Y-19796476D02*
X21421429Y-19786952D01*
X21411905Y-19777429D01*
X21402381Y-19758381D01*
X21402381Y-19701238D01*
X21411905Y-19682190D01*
X21421429Y-19672667D01*
X21440476Y-19663143D01*
X21469048Y-19663143D01*
X21488095Y-19672667D01*
X21497619Y-19682190D01*
X21507143Y-19701238D01*
X21507143Y-19758381D01*
X21497619Y-19777429D01*
X21488095Y-19786952D01*
X21469048Y-19796476D01*
X21440476Y-19796476D01*
X21621429Y-19796476D02*
X21602381Y-19786952D01*
X21592857Y-19767905D01*
X21592857Y-19596476D01*
X21773810Y-19786952D02*
X21754762Y-19796476D01*
X21716667Y-19796476D01*
X21697619Y-19786952D01*
X21688095Y-19767905D01*
X21688095Y-19691714D01*
X21697619Y-19672667D01*
X21716667Y-19663143D01*
X21754762Y-19663143D01*
X21773810Y-19672667D01*
X21783333Y-19691714D01*
X21783333Y-19710762D01*
X21688095Y-19729810D01*
X21859524Y-19786952D02*
X21878571Y-19796476D01*
X21916667Y-19796476D01*
X21935714Y-19786952D01*
X21945238Y-19767905D01*
X21945238Y-19758381D01*
X21935714Y-19739333D01*
X21916667Y-19729810D01*
X21888095Y-19729810D01*
X21869048Y-19720286D01*
X21859524Y-19701238D01*
X21859524Y-19691714D01*
X21869048Y-19672667D01*
X21888095Y-19663143D01*
X21916667Y-19663143D01*
X21935714Y-19672667D01*
X22011905Y-19872667D02*
X22021429Y-19863143D01*
X22040476Y-19834571D01*
X22050000Y-19815524D01*
X22059524Y-19786952D01*
X22069048Y-19739333D01*
X22069048Y-19701238D01*
X22059524Y-19653619D01*
X22050000Y-19625048D01*
X22040476Y-19606000D01*
X22021429Y-19577429D01*
X22011905Y-19567905D01*
D15*
X17060000Y-19880000D02*
X17240000Y-20060000D01*
X17240000Y-19880000D02*
X17060000Y-20060000D01*
X17240000Y-19970000D02*
G75*
G03*
X17240000Y-19970000I-90000J0D01*
G01*
D10*
X17602381Y-20060476D02*
X17488095Y-20060476D01*
X17545238Y-20060476D02*
X17545238Y-19860476D01*
X17526190Y-19889048D01*
X17507143Y-19908095D01*
X17488095Y-19917619D01*
X17688095Y-20041429D02*
X17697619Y-20050952D01*
X17688095Y-20060476D01*
X17678571Y-20050952D01*
X17688095Y-20041429D01*
X17688095Y-20060476D01*
X17811905Y-19946190D02*
X17792857Y-19936667D01*
X17783333Y-19927143D01*
X17773810Y-19908095D01*
X17773810Y-19898571D01*
X17783333Y-19879524D01*
X17792857Y-19870000D01*
X17811905Y-19860476D01*
X17850000Y-19860476D01*
X17869048Y-19870000D01*
X17878571Y-19879524D01*
X17888095Y-19898571D01*
X17888095Y-19908095D01*
X17878571Y-19927143D01*
X17869048Y-19936667D01*
X17850000Y-19946190D01*
X17811905Y-19946190D01*
X17792857Y-19955714D01*
X17783333Y-19965238D01*
X17773810Y-19984286D01*
X17773810Y-20022381D01*
X17783333Y-20041429D01*
X17792857Y-20050952D01*
X17811905Y-20060476D01*
X17850000Y-20060476D01*
X17869048Y-20050952D01*
X17878571Y-20041429D01*
X17888095Y-20022381D01*
X17888095Y-19984286D01*
X17878571Y-19965238D01*
X17869048Y-19955714D01*
X17850000Y-19946190D01*
X18011905Y-19860476D02*
X18030952Y-19860476D01*
X18050000Y-19870000D01*
X18059524Y-19879524D01*
X18069048Y-19898571D01*
X18078571Y-19936667D01*
X18078571Y-19984286D01*
X18069048Y-20022381D01*
X18059524Y-20041429D01*
X18050000Y-20050952D01*
X18030952Y-20060476D01*
X18011905Y-20060476D01*
X17992857Y-20050952D01*
X17983333Y-20041429D01*
X17973810Y-20022381D01*
X17964286Y-19984286D01*
X17964286Y-19936667D01*
X17973810Y-19898571D01*
X17983333Y-19879524D01*
X17992857Y-19870000D01*
X18011905Y-19860476D01*
X18202381Y-19860476D02*
X18221429Y-19860476D01*
X18240476Y-19870000D01*
X18250000Y-19879524D01*
X18259524Y-19898571D01*
X18269048Y-19936667D01*
X18269048Y-19984286D01*
X18259524Y-20022381D01*
X18250000Y-20041429D01*
X18240476Y-20050952D01*
X18221429Y-20060476D01*
X18202381Y-20060476D01*
X18183333Y-20050952D01*
X18173810Y-20041429D01*
X18164286Y-20022381D01*
X18154762Y-19984286D01*
X18154762Y-19936667D01*
X18164286Y-19898571D01*
X18173810Y-19879524D01*
X18183333Y-19870000D01*
X18202381Y-19860476D01*
X18354762Y-20060476D02*
X18354762Y-19927143D01*
X18354762Y-19946190D02*
X18364286Y-19936667D01*
X18383333Y-19927143D01*
X18411905Y-19927143D01*
X18430952Y-19936667D01*
X18440476Y-19955714D01*
X18440476Y-20060476D01*
X18440476Y-19955714D02*
X18450000Y-19936667D01*
X18469048Y-19927143D01*
X18497619Y-19927143D01*
X18516667Y-19936667D01*
X18526190Y-19955714D01*
X18526190Y-20060476D01*
X18621429Y-20060476D02*
X18621429Y-19927143D01*
X18621429Y-19946190D02*
X18630952Y-19936667D01*
X18650000Y-19927143D01*
X18678571Y-19927143D01*
X18697619Y-19936667D01*
X18707143Y-19955714D01*
X18707143Y-20060476D01*
X18707143Y-19955714D02*
X18716667Y-19936667D01*
X18735714Y-19927143D01*
X18764286Y-19927143D01*
X18783333Y-19936667D01*
X18792857Y-19955714D01*
X18792857Y-20060476D01*
X19183333Y-19850952D02*
X19011905Y-20108095D01*
X19440476Y-19860476D02*
X19459524Y-19860476D01*
X19478571Y-19870000D01*
X19488095Y-19879524D01*
X19497619Y-19898571D01*
X19507143Y-19936667D01*
X19507143Y-19984286D01*
X19497619Y-20022381D01*
X19488095Y-20041429D01*
X19478571Y-20050952D01*
X19459524Y-20060476D01*
X19440476Y-20060476D01*
X19421429Y-20050952D01*
X19411905Y-20041429D01*
X19402381Y-20022381D01*
X19392857Y-19984286D01*
X19392857Y-19936667D01*
X19402381Y-19898571D01*
X19411905Y-19879524D01*
X19421429Y-19870000D01*
X19440476Y-19860476D01*
X19592857Y-20041429D02*
X19602381Y-20050952D01*
X19592857Y-20060476D01*
X19583333Y-20050952D01*
X19592857Y-20041429D01*
X19592857Y-20060476D01*
X19726190Y-19860476D02*
X19745238Y-19860476D01*
X19764286Y-19870000D01*
X19773810Y-19879524D01*
X19783333Y-19898571D01*
X19792857Y-19936667D01*
X19792857Y-19984286D01*
X19783333Y-20022381D01*
X19773810Y-20041429D01*
X19764286Y-20050952D01*
X19745238Y-20060476D01*
X19726190Y-20060476D01*
X19707143Y-20050952D01*
X19697619Y-20041429D01*
X19688095Y-20022381D01*
X19678571Y-19984286D01*
X19678571Y-19936667D01*
X19688095Y-19898571D01*
X19697619Y-19879524D01*
X19707143Y-19870000D01*
X19726190Y-19860476D01*
X19859524Y-19860476D02*
X19992857Y-19860476D01*
X19907143Y-20060476D01*
X20107143Y-19860476D02*
X20126190Y-19860476D01*
X20145238Y-19870000D01*
X20154762Y-19879524D01*
X20164286Y-19898571D01*
X20173810Y-19936667D01*
X20173810Y-19984286D01*
X20164286Y-20022381D01*
X20154762Y-20041429D01*
X20145238Y-20050952D01*
X20126190Y-20060476D01*
X20107143Y-20060476D01*
X20088095Y-20050952D01*
X20078571Y-20041429D01*
X20069048Y-20022381D01*
X20059524Y-19984286D01*
X20059524Y-19936667D01*
X20069048Y-19898571D01*
X20078571Y-19879524D01*
X20088095Y-19870000D01*
X20107143Y-19860476D01*
X20269048Y-20060476D02*
X20307143Y-20060476D01*
X20326190Y-20050952D01*
X20335714Y-20041429D01*
X20354762Y-20012857D01*
X20364286Y-19974762D01*
X20364286Y-19898571D01*
X20354762Y-19879524D01*
X20345238Y-19870000D01*
X20326190Y-19860476D01*
X20288095Y-19860476D01*
X20269048Y-19870000D01*
X20259524Y-19879524D01*
X20250000Y-19898571D01*
X20250000Y-19946190D01*
X20259524Y-19965238D01*
X20269048Y-19974762D01*
X20288095Y-19984286D01*
X20326190Y-19984286D01*
X20345238Y-19974762D01*
X20354762Y-19965238D01*
X20364286Y-19946190D01*
X20440476Y-19860476D02*
X20440476Y-19898571D01*
X20516667Y-19860476D02*
X20516667Y-19898571D01*
X20811905Y-20136667D02*
X20802381Y-20127143D01*
X20783333Y-20098571D01*
X20773810Y-20079524D01*
X20764286Y-20050952D01*
X20754762Y-20003333D01*
X20754762Y-19965238D01*
X20764286Y-19917619D01*
X20773810Y-19889048D01*
X20783333Y-19870000D01*
X20802381Y-19841429D01*
X20811905Y-19831905D01*
X20973810Y-19927143D02*
X20973810Y-20060476D01*
X20926190Y-19850952D02*
X20878571Y-19993810D01*
X21002381Y-19993810D01*
X21230952Y-20060476D02*
X21230952Y-19860476D01*
X21316667Y-20060476D02*
X21316667Y-19955714D01*
X21307143Y-19936667D01*
X21288095Y-19927143D01*
X21259524Y-19927143D01*
X21240476Y-19936667D01*
X21230952Y-19946190D01*
X21440476Y-20060476D02*
X21421429Y-20050952D01*
X21411905Y-20041429D01*
X21402381Y-20022381D01*
X21402381Y-19965238D01*
X21411905Y-19946190D01*
X21421429Y-19936667D01*
X21440476Y-19927143D01*
X21469048Y-19927143D01*
X21488095Y-19936667D01*
X21497619Y-19946190D01*
X21507143Y-19965238D01*
X21507143Y-20022381D01*
X21497619Y-20041429D01*
X21488095Y-20050952D01*
X21469048Y-20060476D01*
X21440476Y-20060476D01*
X21621429Y-20060476D02*
X21602381Y-20050952D01*
X21592857Y-20031905D01*
X21592857Y-19860476D01*
X21773810Y-20050952D02*
X21754762Y-20060476D01*
X21716667Y-20060476D01*
X21697619Y-20050952D01*
X21688095Y-20031905D01*
X21688095Y-19955714D01*
X21697619Y-19936667D01*
X21716667Y-19927143D01*
X21754762Y-19927143D01*
X21773810Y-19936667D01*
X21783333Y-19955714D01*
X21783333Y-19974762D01*
X21688095Y-19993810D01*
X21859524Y-20050952D02*
X21878571Y-20060476D01*
X21916667Y-20060476D01*
X21935714Y-20050952D01*
X21945238Y-20031905D01*
X21945238Y-20022381D01*
X21935714Y-20003333D01*
X21916667Y-19993810D01*
X21888095Y-19993810D01*
X21869048Y-19984286D01*
X21859524Y-19965238D01*
X21859524Y-19955714D01*
X21869048Y-19936667D01*
X21888095Y-19927143D01*
X21916667Y-19927143D01*
X21935714Y-19936667D01*
X22011905Y-20136667D02*
X22021429Y-20127143D01*
X22040476Y-20098571D01*
X22050000Y-20079524D01*
X22059524Y-20050952D01*
X22069048Y-20003333D01*
X22069048Y-19965238D01*
X22059524Y-19917619D01*
X22050000Y-19889048D01*
X22040476Y-19870000D01*
X22021429Y-19841429D01*
X22011905Y-19831905D01*
M02*
