  0
SECTION
  2
BLOCKS
  0
ENDSEC
  0
SECTION
  2
ENTITIES
  0
LINE
  8
0
 10
31.75
 20
15
 11
-31.75
 21
15
  0
LINE
  8
0
 10
-31.75
 20
15
 11
-31.75
 21
-15
  0
LINE
  8
0
 10
-31.75
 20
-15
 11
31.75
 21
-15
  0
LINE
  8
0
 10
31.75
 20
-15
 11
31.75
 21
15
  0
LINE
  8
0
 10
10.8626
 20
-5.66879
 11
10.7253
 21
-5.66519
  0
LINE
  8
0
 10
10.7253
 20
-5.66519
 11
10.5881
 21
-5.65921
  0
LINE
  8
0
 10
10.5881
 20
-5.65921
 11
10.451
 21
-5.65082
  0
LINE
  8
0
 10
10.451
 20
-5.65082
 11
10.3141
 21
-5.64005
  0
LINE
  8
0
 10
10.3141
 20
-5.64005
 11
10.1774
 21
-5.62688
  0
LINE
  8
0
 10
10.1774
 20
-5.62688
 11
10.0409
 21
-5.61133
  0
LINE
  8
0
 10
10.0409
 20
-5.61133
 11
9.90469
 21
-5.5934
  0
LINE
  8
0
 10
9.90469
 20
-5.5934
 11
9.76886
 21
-5.5731
  0
LINE
  8
0
 10
9.76886
 20
-5.5731
 11
9.63338
 21
-5.55043
  0
LINE
  8
0
 10
9.63338
 20
-5.55043
 11
9.49832
 21
-5.52541
  0
LINE
  8
0
 10
9.49832
 20
-5.52541
 11
9.36372
 21
-5.49802
  0
LINE
  8
0
 10
9.36372
 20
-5.49802
 11
9.22963
 21
-5.46829
  0
LINE
  8
0
 10
9.22963
 20
-5.46829
 11
9.09607
 21
-5.43622
  0
LINE
  8
0
 10
9.09607
 20
-5.43622
 11
8.96309
 21
-5.40182
  0
LINE
  8
0
 10
8.96309
 20
-5.40182
 11
8.83072
 21
-5.36513
  0
LINE
  8
0
 10
8.83072
 20
-5.36513
 11
8.69902
 21
-5.32611
  0
LINE
  8
0
 10
8.69902
 20
-5.32611
 11
8.56802
 21
-5.28481
  0
LINE
  8
0
 10
8.56802
 20
-5.28481
 11
8.43777
 21
-5.24123
  0
LINE
  8
0
 10
8.43777
 20
-5.24123
 11
8.30829
 21
-5.19537
  0
LINE
  8
0
 10
8.30829
 20
-5.19537
 11
8.17964
 21
-5.14728
  0
LINE
  8
0
 10
8.17964
 20
-5.14728
 11
8.05183
 21
-5.09692
  0
LINE
  8
0
 10
8.05183
 20
-5.09692
 11
7.92494
 21
-5.04437
  0
LINE
  8
0
 10
7.92494
 20
-5.04437
 11
7.79898
 21
-4.98959
  0
LINE
  8
0
 10
7.79898
 20
-4.98959
 11
7.67398
 21
-4.93263
  0
LINE
  8
0
 10
7.67398
 20
-4.93263
 11
7.55002
 21
-4.8735
  0
LINE
  8
0
 10
7.55002
 20
-4.8735
 11
7.42709
 21
-4.81221
  0
LINE
  8
0
 10
7.42709
 20
-4.81221
 11
7.30525
 21
-4.74879
  0
LINE
  8
0
 10
7.30525
 20
-4.74879
 11
7.18454
 21
-4.68324
  0
LINE
  8
0
 10
7.18454
 20
-4.68324
 11
7.06499
 21
-4.61562
  0
LINE
  8
0
 10
7.06499
 20
-4.61562
 11
6.94664
 21
-4.5459
  0
LINE
  8
0
 10
6.94664
 20
-4.5459
 11
6.82953
 21
-4.47414
  0
LINE
  8
0
 10
6.82953
 20
-4.47414
 11
6.71368
 21
-4.40033
  0
LINE
  8
0
 10
6.71368
 20
-4.40033
 11
6.59915
 21
-4.32452
  0
LINE
  8
0
 10
6.59915
 20
-4.32452
 11
6.48595
 21
-4.24672
  0
LINE
  8
0
 10
6.48595
 20
-4.24672
 11
6.37411
 21
-4.16696
  0
LINE
  8
0
 10
6.37411
 20
-4.16696
 11
6.2637
 21
-4.08525
  0
LINE
  8
0
 10
6.2637
 20
-4.08525
 11
6.15474
 21
-4.00163
  0
LINE
  8
0
 10
6.15474
 20
-4.00163
 11
6.04724
 21
-3.91614
  0
LINE
  8
0
 10
6.04724
 20
-3.91614
 11
5.94125
 21
-3.82877
  0
LINE
  8
0
 10
5.94125
 20
-3.82877
 11
5.83681
 21
-3.73956
  0
LINE
  8
0
 10
5.83681
 20
-3.73956
 11
5.73393
 21
-3.64854
  0
LINE
  8
0
 10
5.73393
 20
-3.64854
 11
5.63266
 21
-3.55574
  0
LINE
  8
0
 10
5.63266
 20
-3.55574
 11
5.53304
 21
-3.4612
  0
LINE
  8
0
 10
5.53304
 20
-3.4612
 11
5.43506
 21
-3.36493
  0
LINE
  8
0
 10
5.43506
 20
-3.36493
 11
5.33879
 21
-3.26695
  0
LINE
  8
0
 10
5.33879
 20
-3.26695
 11
5.24423
 21
-3.16731
  0
LINE
  8
0
 10
5.24423
 20
-3.16731
 11
5.15144
 21
-3.06606
  0
LINE
  8
0
 10
5.15144
 20
-3.06606
 11
5.06042
 21
-2.96318
  0
LINE
  8
0
 10
5.06042
 20
-2.96318
 11
4.97122
 21
-2.85873
  0
LINE
  8
0
 10
4.97122
 20
-2.85873
 11
4.88385
 21
-2.75275
  0
LINE
  8
0
 10
4.88385
 20
-2.75275
 11
4.79836
 21
-2.64525
  0
LINE
  8
0
 10
4.79836
 20
-2.64525
 11
4.71474
 21
-2.53627
  0
LINE
  8
0
 10
4.71474
 20
-2.53627
 11
4.63303
 21
-2.42586
  0
LINE
  8
0
 10
4.63303
 20
-2.42586
 11
4.55327
 21
-2.31404
  0
LINE
  8
0
 10
4.55327
 20
-2.31404
 11
4.47546
 21
-2.20084
  0
LINE
  8
0
 10
4.47546
 20
-2.20084
 11
4.39966
 21
-2.0863
  0
LINE
  8
0
 10
4.39966
 20
-2.0863
 11
4.32585
 21
-1.97046
  0
LINE
  8
0
 10
4.32585
 20
-1.97046
 11
4.25409
 21
-1.85335
  0
LINE
  8
0
 10
4.25409
 20
-1.85335
 11
4.18437
 21
-1.73499
  0
LINE
  8
0
 10
4.18437
 20
-1.73499
 11
4.11673
 21
-1.61545
  0
LINE
  8
0
 10
4.11673
 20
-1.61545
 11
4.05119
 21
-1.49474
  0
LINE
  8
0
 10
4.05119
 20
-1.49474
 11
3.98778
 21
-1.37289
  0
LINE
  8
0
 10
3.98778
 20
-1.37289
 11
3.92648
 21
-1.24997
  0
LINE
  8
0
 10
3.92648
 20
-1.24997
 11
3.86736
 21
-1.12599
  0
LINE
  8
0
 10
3.86736
 20
-1.12599
 11
3.81039
 21
-1.00101
  0
LINE
  8
0
 10
3.81039
 20
-1.00101
 11
3.75562
 21
-0.875046
  0
LINE
  8
0
 10
3.75562
 20
-0.875046
 11
3.70305
 21
-0.748154
  0
LINE
  8
0
 10
3.70305
 20
-0.748154
 11
3.65271
 21
-0.620346
  0
LINE
  8
0
 10
3.65271
 20
-0.620346
 11
3.60461
 21
-0.491684
  0
LINE
  8
0
 10
3.60461
 20
-0.491684
 11
3.55876
 21
-0.362213
  0
LINE
  8
0
 10
3.55876
 20
-0.362213
 11
3.51518
 21
-0.231949
  0
LINE
  8
0
 10
3.51518
 20
-0.231949
 11
3.47388
 21
-0.100952
  0
LINE
  8
0
 10
3.47388
 20
-0.100952
 11
3.43486
 21
0.0307312
  0
LINE
  8
0
 10
3.43486
 20
0.0307312
 11
3.39816
 21
0.163086
  0
LINE
  8
0
 10
3.39816
 20
0.163086
 11
3.36377
 21
0.296066
  0
LINE
  8
0
 10
3.36377
 20
0.296066
 11
3.3317
 21
0.429626
  0
LINE
  8
0
 10
3.3317
 20
0.429626
 11
3.30197
 21
0.563721
  0
LINE
  8
0
 10
3.30197
 20
0.563721
 11
3.27458
 21
0.698318
  0
LINE
  8
0
 10
3.27458
 20
0.698318
 11
3.24956
 21
0.833374
  0
LINE
  8
0
 10
3.24956
 20
0.833374
 11
3.22688
 21
0.968857
  0
LINE
  8
0
 10
3.22688
 20
0.968857
 11
3.20659
 21
1.10471
  0
LINE
  8
0
 10
3.20659
 20
1.10471
 11
3.18866
 21
1.24088
  0
LINE
  8
0
 10
3.18866
 20
1.24088
 11
3.17311
 21
1.37735
  0
LINE
  8
0
 10
3.17311
 20
1.37735
 11
3.15994
 21
1.51408
  0
LINE
  8
0
 10
3.15994
 20
1.51408
 11
3.14917
 21
1.65102
  0
LINE
  8
0
 10
3.14917
 20
1.65102
 11
3.14078
 21
1.7881
  0
LINE
  8
0
 10
3.14078
 20
1.7881
 11
3.13478
 21
1.92534
  0
LINE
  8
0
 10
3.13478
 20
1.92534
 11
3.1312
 21
2.06264
  0
LINE
  8
0
 10
3.1312
 20
2.06264
 11
3.12999
 21
2.2
  0
LINE
  8
0
 10
3.12999
 20
2.2
 11
3.1312
 21
2.33734
  0
LINE
  8
0
 10
3.1312
 20
2.33734
 11
3.13478
 21
2.47466
  0
LINE
  8
0
 10
3.13478
 20
2.47466
 11
3.14078
 21
2.61188
  0
LINE
  8
0
 10
3.14078
 20
2.61188
 11
3.14917
 21
2.74898
  0
LINE
  8
0
 10
3.14917
 20
2.74898
 11
3.15994
 21
2.88591
  0
LINE
  8
0
 10
3.15994
 20
2.88591
 11
3.17311
 21
3.02263
  0
LINE
  8
0
 10
3.17311
 20
3.02263
 11
3.18866
 21
3.1591
  0
LINE
  8
0
 10
3.18866
 20
3.1591
 11
3.20659
 21
3.29529
  0
LINE
  8
0
 10
3.20659
 20
3.29529
 11
3.22688
 21
3.43114
  0
LINE
  8
0
 10
3.22688
 20
3.43114
 11
3.24956
 21
3.5666
  0
LINE
  8
0
 10
3.24956
 20
3.5666
 11
3.27458
 21
3.70166
  0
LINE
  8
0
 10
3.27458
 20
3.70166
 11
3.30197
 21
3.83626
  0
LINE
  8
0
 10
3.30197
 20
3.83626
 11
3.3317
 21
3.97035
  0
LINE
  8
0
 10
3.3317
 20
3.97035
 11
3.36377
 21
4.10391
  0
LINE
  8
0
 10
3.36377
 20
4.10391
 11
3.39816
 21
4.23689
  0
LINE
  8
0
 10
3.39816
 20
4.23689
 11
3.43486
 21
4.36926
  0
LINE
  8
0
 10
3.43486
 20
4.36926
 11
3.47388
 21
4.50096
  0
LINE
  8
0
 10
3.47388
 20
4.50096
 11
3.51518
 21
4.63196
  0
LINE
  8
0
 10
3.51518
 20
4.63196
 11
3.55876
 21
4.76221
  0
LINE
  8
0
 10
3.55876
 20
4.76221
 11
3.60461
 21
4.89169
  0
LINE
  8
0
 10
3.60461
 20
4.89169
 11
3.65271
 21
5.02036
  0
LINE
  8
0
 10
3.65271
 20
5.02036
 11
3.70305
 21
5.14815
  0
LINE
  8
0
 10
3.70305
 20
5.14815
 11
3.75562
 21
5.27504
  0
LINE
  8
0
 10
3.75562
 20
5.27504
 11
3.81039
 21
5.40102
  0
LINE
  8
0
 10
3.81039
 20
5.40102
 11
3.86736
 21
5.526
  0
LINE
  8
0
 10
3.86736
 20
5.526
 11
3.92648
 21
5.64998
  0
LINE
  8
0
 10
3.92648
 20
5.64998
 11
3.98778
 21
5.7729
  0
LINE
  8
0
 10
3.98778
 20
5.7729
 11
4.05119
 21
5.89473
  0
LINE
  8
0
 10
4.05119
 20
5.89473
 11
4.11673
 21
6.01544
  0
LINE
  8
0
 10
4.11673
 20
6.01544
 11
4.18437
 21
6.13499
  0
LINE
  8
0
 10
4.18437
 20
6.13499
 11
4.25409
 21
6.25334
  0
LINE
  8
0
 10
4.25409
 20
6.25334
 11
4.32585
 21
6.37045
  0
LINE
  8
0
 10
4.32585
 20
6.37045
 11
4.39966
 21
6.4863
  0
LINE
  8
0
 10
4.39966
 20
6.4863
 11
4.47546
 21
6.60085
  0
LINE
  8
0
 10
4.47546
 20
6.60085
 11
4.55327
 21
6.71404
  0
LINE
  8
0
 10
4.55327
 20
6.71404
 11
4.63303
 21
6.82587
  0
LINE
  8
0
 10
4.63303
 20
6.82587
 11
4.71474
 21
6.93628
  0
LINE
  8
0
 10
4.71474
 20
6.93628
 11
4.79836
 21
7.04524
  0
LINE
  8
0
 10
4.79836
 20
7.04524
 11
4.88385
 21
7.15274
  0
LINE
  8
0
 10
4.88385
 20
7.15274
 11
4.97122
 21
7.25873
  0
LINE
  8
0
 10
4.97122
 20
7.25873
 11
5.06042
 21
7.36317
  0
LINE
  8
0
 10
5.06042
 20
7.36317
 11
5.15144
 21
7.46605
  0
LINE
  8
0
 10
5.15144
 20
7.46605
 11
5.24423
 21
7.56732
  0
LINE
  8
0
 10
5.24423
 20
7.56732
 11
5.33879
 21
7.66695
  0
LINE
  8
0
 10
5.33879
 20
7.66695
 11
5.43506
 21
7.76492
  0
LINE
  8
0
 10
5.43506
 20
7.76492
 11
5.53304
 21
7.86119
  0
LINE
  8
0
 10
5.53304
 20
7.86119
 11
5.63266
 21
7.95575
  0
LINE
  8
0
 10
5.63266
 20
7.95575
 11
5.73393
 21
8.04854
  0
LINE
  8
0
 10
5.73393
 20
8.04854
 11
5.83681
 21
8.13956
  0
LINE
  8
0
 10
5.83681
 20
8.13956
 11
5.94125
 21
8.22876
  0
LINE
  8
0
 10
5.94125
 20
8.22876
 11
6.04724
 21
8.31613
  0
LINE
  8
0
 10
6.04724
 20
8.31613
 11
6.15474
 21
8.40164
  0
LINE
  8
0
 10
6.15474
 20
8.40164
 11
6.2637
 21
8.48526
  0
LINE
  8
0
 10
6.2637
 20
8.48526
 11
6.37411
 21
8.56696
  0
LINE
  8
0
 10
6.37411
 20
8.56696
 11
6.48595
 21
8.64671
  0
LINE
  8
0
 10
6.48595
 20
8.64671
 11
6.59915
 21
8.72452
  0
LINE
  8
0
 10
6.59915
 20
8.72452
 11
6.71368
 21
8.80032
  0
LINE
  8
0
 10
6.71368
 20
8.80032
 11
6.82953
 21
8.87413
  0
LINE
  8
0
 10
6.82953
 20
8.87413
 11
6.94664
 21
8.94589
  0
LINE
  8
0
 10
6.94664
 20
8.94589
 11
7.06499
 21
9.01561
  0
LINE
  8
0
 10
7.06499
 20
9.01561
 11
7.18454
 21
9.08325
  0
LINE
  8
0
 10
7.18454
 20
9.08325
 11
7.30525
 21
9.14879
  0
LINE
  8
0
 10
7.30525
 20
9.14879
 11
7.42709
 21
9.21222
  0
LINE
  8
0
 10
7.42709
 20
9.21222
 11
7.55002
 21
9.2735
  0
LINE
  8
0
 10
7.55002
 20
9.2735
 11
7.67398
 21
9.33264
  0
LINE
  8
0
 10
7.67398
 20
9.33264
 11
7.79898
 21
9.3896
  0
LINE
  8
0
 10
7.79898
 20
9.3896
 11
7.92494
 21
9.44437
  0
LINE
  8
0
 10
7.92494
 20
9.44437
 11
8.05183
 21
9.49693
  0
LINE
  8
0
 10
8.05183
 20
9.49693
 11
8.17964
 21
9.54727
  0
LINE
  8
0
 10
8.17964
 20
9.54727
 11
8.30829
 21
9.59537
  0
LINE
  8
0
 10
8.30829
 20
9.59537
 11
8.43777
 21
9.64122
  0
LINE
  8
0
 10
8.43777
 20
9.64122
 11
8.56802
 21
9.68481
  0
LINE
  8
0
 10
8.56802
 20
9.68481
 11
8.69902
 21
9.7261
  0
LINE
  8
0
 10
8.69902
 20
9.7261
 11
8.83072
 21
9.76512
  0
LINE
  8
0
 10
8.83072
 20
9.76512
 11
8.96309
 21
9.80183
  0
LINE
  8
0
 10
8.96309
 20
9.80183
 11
9.09607
 21
9.83621
  0
LINE
  8
0
 10
9.09607
 20
9.83621
 11
9.22963
 21
9.86829
  0
LINE
  8
0
 10
9.22963
 20
9.86829
 11
9.36372
 21
9.89801
  0
LINE
  8
0
 10
9.36372
 20
9.89801
 11
9.49832
 21
9.9254
  0
LINE
  8
0
 10
9.49832
 20
9.9254
 11
9.63338
 21
9.95042
  0
LINE
  8
0
 10
9.63338
 20
9.95042
 11
9.76886
 21
9.9731
  0
LINE
  8
0
 10
9.76886
 20
9.9731
 11
9.90469
 21
9.99341
  0
LINE
  8
0
 10
9.90469
 20
9.99341
 11
10.0409
 21
10.0113
  0
LINE
  8
0
 10
10.0409
 20
10.0113
 11
10.1774
 21
10.0269
  0
LINE
  8
0
 10
10.1774
 20
10.0269
 11
10.3141
 21
10.04
  0
LINE
  8
0
 10
10.3141
 20
10.04
 11
10.451
 21
10.0508
  0
LINE
  8
0
 10
10.451
 20
10.0508
 11
10.5881
 21
10.0592
  0
LINE
  8
0
 10
10.5881
 20
10.0592
 11
10.7253
 21
10.0652
  0
LINE
  8
0
 10
10.7253
 20
10.0652
 11
10.8626
 21
10.0688
  0
LINE
  8
0
 10
10.8626
 20
10.0688
 11
11
 21
10.07
  0
LINE
  8
0
 10
11
 20
10.07
 11
11.1373
 21
10.0688
  0
LINE
  8
0
 10
11.1373
 20
10.0688
 11
11.2747
 21
10.0652
  0
LINE
  8
0
 10
11.2747
 20
10.0652
 11
11.4119
 21
10.0592
  0
LINE
  8
0
 10
11.4119
 20
10.0592
 11
11.549
 21
10.0508
  0
LINE
  8
0
 10
11.549
 20
10.0508
 11
11.6859
 21
10.04
  0
LINE
  8
0
 10
11.6859
 20
10.04
 11
11.8226
 21
10.0269
  0
LINE
  8
0
 10
11.8226
 20
10.0269
 11
11.9591
 21
10.0113
  0
LINE
  8
0
 10
11.9591
 20
10.0113
 11
12.0953
 21
9.99341
  0
LINE
  8
0
 10
12.0953
 20
9.99341
 11
12.2311
 21
9.9731
  0
LINE
  8
0
 10
12.2311
 20
9.9731
 11
12.3666
 21
9.95042
  0
LINE
  8
0
 10
12.3666
 20
9.95042
 11
12.5017
 21
9.9254
  0
LINE
  8
0
 10
12.5017
 20
9.9254
 11
12.6363
 21
9.89801
  0
LINE
  8
0
 10
12.6363
 20
9.89801
 11
12.7704
 21
9.86829
  0
LINE
  8
0
 10
12.7704
 20
9.86829
 11
12.9039
 21
9.83621
  0
LINE
  8
0
 10
12.9039
 20
9.83621
 11
13.0369
 21
9.80183
  0
LINE
  8
0
 10
13.0369
 20
9.80183
 11
13.1693
 21
9.76512
  0
LINE
  8
0
 10
13.1693
 20
9.76512
 11
13.301
 21
9.7261
  0
LINE
  8
0
 10
13.301
 20
9.7261
 11
13.432
 21
9.68481
  0
LINE
  8
0
 10
13.432
 20
9.68481
 11
13.5622
 21
9.64122
  0
LINE
  8
0
 10
13.5622
 20
9.64122
 11
13.6917
 21
9.59537
  0
LINE
  8
0
 10
13.6917
 20
9.59537
 11
13.8203
 21
9.54727
  0
LINE
  8
0
 10
13.8203
 20
9.54727
 11
13.9482
 21
9.49693
  0
LINE
  8
0
 10
13.9482
 20
9.49693
 11
14.075
 21
9.44437
  0
LINE
  8
0
 10
14.075
 20
9.44437
 11
14.201
 21
9.3896
  0
LINE
  8
0
 10
14.201
 20
9.3896
 11
14.326
 21
9.33264
  0
LINE
  8
0
 10
14.326
 20
9.33264
 11
14.45
 21
9.2735
  0
LINE
  8
0
 10
14.45
 20
9.2735
 11
14.5729
 21
9.21222
  0
LINE
  8
0
 10
14.5729
 20
9.21222
 11
14.6947
 21
9.14879
  0
LINE
  8
0
 10
14.6947
 20
9.14879
 11
14.8154
 21
9.08325
  0
LINE
  8
0
 10
14.8154
 20
9.08325
 11
14.935
 21
9.01561
  0
LINE
  8
0
 10
14.935
 20
9.01561
 11
15.0533
 21
8.94589
  0
LINE
  8
0
 10
15.0533
 20
8.94589
 11
15.1705
 21
8.87413
  0
LINE
  8
0
 10
15.1705
 20
8.87413
 11
15.2863
 21
8.80032
  0
LINE
  8
0
 10
15.2863
 20
8.80032
 11
15.4008
 21
8.72452
  0
LINE
  8
0
 10
15.4008
 20
8.72452
 11
15.514
 21
8.64671
  0
LINE
  8
0
 10
15.514
 20
8.64671
 11
15.6259
 21
8.56696
  0
LINE
  8
0
 10
15.6259
 20
8.56696
 11
15.7363
 21
8.48526
  0
LINE
  8
0
 10
15.7363
 20
8.48526
 11
15.8452
 21
8.40164
  0
LINE
  8
0
 10
15.8452
 20
8.40164
 11
15.9527
 21
8.31613
  0
LINE
  8
0
 10
15.9527
 20
8.31613
 11
16.0587
 21
8.22876
  0
LINE
  8
0
 10
16.0587
 20
8.22876
 11
16.1632
 21
8.13956
  0
LINE
  8
0
 10
16.1632
 20
8.13956
 11
16.2661
 21
8.04854
  0
LINE
  8
0
 10
16.2661
 20
8.04854
 11
16.3673
 21
7.95575
  0
LINE
  8
0
 10
16.3673
 20
7.95575
 11
16.4669
 21
7.86119
  0
LINE
  8
0
 10
16.4669
 20
7.86119
 11
16.5649
 21
7.76492
  0
LINE
  8
0
 10
16.5649
 20
7.76492
 11
16.6612
 21
7.66695
  0
LINE
  8
0
 10
16.6612
 20
7.66695
 11
16.7558
 21
7.56732
  0
LINE
  8
0
 10
16.7558
 20
7.56732
 11
16.8485
 21
7.46605
  0
LINE
  8
0
 10
16.8485
 20
7.46605
 11
16.9396
 21
7.36317
  0
LINE
  8
0
 10
16.9396
 20
7.36317
 11
17.0288
 21
7.25873
  0
LINE
  8
0
 10
17.0288
 20
7.25873
 11
17.1161
 21
7.15274
  0
LINE
  8
0
 10
17.1161
 20
7.15274
 11
17.2016
 21
7.04524
  0
LINE
  8
0
 10
17.2016
 20
7.04524
 11
17.2852
 21
6.93628
  0
LINE
  8
0
 10
17.2852
 20
6.93628
 11
17.367
 21
6.82587
  0
LINE
  8
0
 10
17.367
 20
6.82587
 11
17.4467
 21
6.71404
  0
LINE
  8
0
 10
17.4467
 20
6.71404
 11
17.5245
 21
6.60085
  0
LINE
  8
0
 10
17.5245
 20
6.60085
 11
17.6003
 21
6.4863
  0
LINE
  8
0
 10
17.6003
 20
6.4863
 11
17.6741
 21
6.37045
  0
LINE
  8
0
 10
17.6741
 20
6.37045
 11
17.7459
 21
6.25334
  0
LINE
  8
0
 10
17.7459
 20
6.25334
 11
17.8156
 21
6.13499
  0
LINE
  8
0
 10
17.8156
 20
6.13499
 11
17.8833
 21
6.01544
  0
LINE
  8
0
 10
17.8833
 20
6.01544
 11
17.9488
 21
5.89473
  0
LINE
  8
0
 10
17.9488
 20
5.89473
 11
18.0122
 21
5.7729
  0
LINE
  8
0
 10
18.0122
 20
5.7729
 11
18.0735
 21
5.64998
  0
LINE
  8
0
 10
18.0735
 20
5.64998
 11
18.1326
 21
5.526
  0
LINE
  8
0
 10
18.1326
 20
5.526
 11
18.1896
 21
5.40102
  0
LINE
  8
0
 10
18.1896
 20
5.40102
 11
18.2444
 21
5.27504
  0
LINE
  8
0
 10
18.2444
 20
5.27504
 11
18.2969
 21
5.14815
  0
LINE
  8
0
 10
18.2969
 20
5.14815
 11
18.3473
 21
5.02036
  0
LINE
  8
0
 10
18.3473
 20
5.02036
 11
18.3954
 21
4.89169
  0
LINE
  8
0
 10
18.3954
 20
4.89169
 11
18.4412
 21
4.76221
  0
LINE
  8
0
 10
18.4412
 20
4.76221
 11
18.4848
 21
4.63196
  0
LINE
  8
0
 10
18.4848
 20
4.63196
 11
18.5261
 21
4.50096
  0
LINE
  8
0
 10
18.5261
 20
4.50096
 11
18.5651
 21
4.36926
  0
LINE
  8
0
 10
18.5651
 20
4.36926
 11
18.6018
 21
4.23689
  0
LINE
  8
0
 10
18.6018
 20
4.23689
 11
18.6362
 21
4.10391
  0
LINE
  8
0
 10
18.6362
 20
4.10391
 11
18.6683
 21
3.97035
  0
LINE
  8
0
 10
18.6683
 20
3.97035
 11
18.698
 21
3.83626
  0
LINE
  8
0
 10
18.698
 20
3.83626
 11
18.7254
 21
3.70166
  0
LINE
  8
0
 10
18.7254
 20
3.70166
 11
18.7504
 21
3.5666
  0
LINE
  8
0
 10
18.7504
 20
3.5666
 11
18.7731
 21
3.43114
  0
LINE
  8
0
 10
18.7731
 20
3.43114
 11
18.7934
 21
3.29529
  0
LINE
  8
0
 10
18.7934
 20
3.29529
 11
18.8113
 21
3.1591
  0
LINE
  8
0
 10
18.8113
 20
3.1591
 11
18.8269
 21
3.02263
  0
LINE
  8
0
 10
18.8269
 20
3.02263
 11
18.84
 21
2.88591
  0
LINE
  8
0
 10
18.84
 20
2.88591
 11
18.8508
 21
2.74898
  0
LINE
  8
0
 10
18.8508
 20
2.74898
 11
18.8592
 21
2.61188
  0
LINE
  8
0
 10
18.8592
 20
2.61188
 11
18.8652
 21
2.47466
  0
LINE
  8
0
 10
18.8652
 20
2.47466
 11
18.8688
 21
2.33734
  0
LINE
  8
0
 10
18.8688
 20
2.33734
 11
18.87
 21
2.2
  0
LINE
  8
0
 10
18.87
 20
2.2
 11
18.8688
 21
2.06264
  0
LINE
  8
0
 10
18.8688
 20
2.06264
 11
18.8652
 21
1.92534
  0
LINE
  8
0
 10
18.8652
 20
1.92534
 11
18.8592
 21
1.7881
  0
LINE
  8
0
 10
18.8592
 20
1.7881
 11
18.8508
 21
1.65102
  0
LINE
  8
0
 10
18.8508
 20
1.65102
 11
18.84
 21
1.51408
  0
LINE
  8
0
 10
18.84
 20
1.51408
 11
18.8269
 21
1.37735
  0
LINE
  8
0
 10
18.8269
 20
1.37735
 11
18.8113
 21
1.24088
  0
LINE
  8
0
 10
18.8113
 20
1.24088
 11
18.7934
 21
1.10471
  0
LINE
  8
0
 10
18.7934
 20
1.10471
 11
18.7731
 21
0.968857
  0
LINE
  8
0
 10
18.7731
 20
0.968857
 11
18.7504
 21
0.833374
  0
LINE
  8
0
 10
18.7504
 20
0.833374
 11
18.7254
 21
0.698318
  0
LINE
  8
0
 10
18.7254
 20
0.698318
 11
18.698
 21
0.563721
  0
LINE
  8
0
 10
18.698
 20
0.563721
 11
18.6683
 21
0.429626
  0
LINE
  8
0
 10
18.6683
 20
0.429626
 11
18.6362
 21
0.296066
  0
LINE
  8
0
 10
18.6362
 20
0.296066
 11
18.6018
 21
0.163086
  0
LINE
  8
0
 10
18.6018
 20
0.163086
 11
18.5651
 21
0.0307312
  0
LINE
  8
0
 10
18.5651
 20
0.0307312
 11
18.5261
 21
-0.100952
  0
LINE
  8
0
 10
18.5261
 20
-0.100952
 11
18.4848
 21
-0.231949
  0
LINE
  8
0
 10
18.4848
 20
-0.231949
 11
18.4412
 21
-0.362213
  0
LINE
  8
0
 10
18.4412
 20
-0.362213
 11
18.3954
 21
-0.491684
  0
LINE
  8
0
 10
18.3954
 20
-0.491684
 11
18.3473
 21
-0.620346
  0
LINE
  8
0
 10
18.3473
 20
-0.620346
 11
18.2969
 21
-0.748154
  0
LINE
  8
0
 10
18.2969
 20
-0.748154
 11
18.2444
 21
-0.875046
  0
LINE
  8
0
 10
18.2444
 20
-0.875046
 11
18.1896
 21
-1.00101
  0
LINE
  8
0
 10
18.1896
 20
-1.00101
 11
18.1326
 21
-1.12599
  0
LINE
  8
0
 10
18.1326
 20
-1.12599
 11
18.0735
 21
-1.24997
  0
LINE
  8
0
 10
18.0735
 20
-1.24997
 11
18.0122
 21
-1.37289
  0
LINE
  8
0
 10
18.0122
 20
-1.37289
 11
17.9488
 21
-1.49474
  0
LINE
  8
0
 10
17.9488
 20
-1.49474
 11
17.8833
 21
-1.61545
  0
LINE
  8
0
 10
17.8833
 20
-1.61545
 11
17.8156
 21
-1.73499
  0
LINE
  8
0
 10
17.8156
 20
-1.73499
 11
17.7459
 21
-1.85335
  0
LINE
  8
0
 10
17.7459
 20
-1.85335
 11
17.6741
 21
-1.97046
  0
LINE
  8
0
 10
17.6741
 20
-1.97046
 11
17.6003
 21
-2.0863
  0
LINE
  8
0
 10
17.6003
 20
-2.0863
 11
17.5245
 21
-2.20084
  0
LINE
  8
0
 10
17.5245
 20
-2.20084
 11
17.4467
 21
-2.31404
  0
LINE
  8
0
 10
17.4467
 20
-2.31404
 11
17.367
 21
-2.42586
  0
LINE
  8
0
 10
17.367
 20
-2.42586
 11
17.2852
 21
-2.53627
  0
LINE
  8
0
 10
17.2852
 20
-2.53627
 11
17.2016
 21
-2.64525
  0
LINE
  8
0
 10
17.2016
 20
-2.64525
 11
17.1161
 21
-2.75275
  0
LINE
  8
0
 10
17.1161
 20
-2.75275
 11
17.0288
 21
-2.85873
  0
LINE
  8
0
 10
17.0288
 20
-2.85873
 11
16.9396
 21
-2.96318
  0
LINE
  8
0
 10
16.9396
 20
-2.96318
 11
16.8485
 21
-3.06606
  0
LINE
  8
0
 10
16.8485
 20
-3.06606
 11
16.7558
 21
-3.16731
  0
LINE
  8
0
 10
16.7558
 20
-3.16731
 11
16.6612
 21
-3.26695
  0
LINE
  8
0
 10
16.6612
 20
-3.26695
 11
16.5649
 21
-3.36493
  0
LINE
  8
0
 10
16.5649
 20
-3.36493
 11
16.4669
 21
-3.4612
  0
LINE
  8
0
 10
16.4669
 20
-3.4612
 11
16.3673
 21
-3.55574
  0
LINE
  8
0
 10
16.3673
 20
-3.55574
 11
16.2661
 21
-3.64854
  0
LINE
  8
0
 10
16.2661
 20
-3.64854
 11
16.1632
 21
-3.73956
  0
LINE
  8
0
 10
16.1632
 20
-3.73956
 11
16.0587
 21
-3.82877
  0
LINE
  8
0
 10
16.0587
 20
-3.82877
 11
15.9527
 21
-3.91614
  0
LINE
  8
0
 10
15.9527
 20
-3.91614
 11
15.8452
 21
-4.00163
  0
LINE
  8
0
 10
15.8452
 20
-4.00163
 11
15.7363
 21
-4.08525
  0
LINE
  8
0
 10
15.7363
 20
-4.08525
 11
15.6259
 21
-4.16696
  0
LINE
  8
0
 10
15.6259
 20
-4.16696
 11
15.514
 21
-4.24672
  0
LINE
  8
0
 10
15.514
 20
-4.24672
 11
15.4008
 21
-4.32452
  0
LINE
  8
0
 10
15.4008
 20
-4.32452
 11
15.2863
 21
-4.40033
  0
LINE
  8
0
 10
15.2863
 20
-4.40033
 11
15.1705
 21
-4.47414
  0
LINE
  8
0
 10
15.1705
 20
-4.47414
 11
15.0533
 21
-4.5459
  0
LINE
  8
0
 10
15.0533
 20
-4.5459
 11
14.935
 21
-4.61562
  0
LINE
  8
0
 10
14.935
 20
-4.61562
 11
14.8154
 21
-4.68324
  0
LINE
  8
0
 10
14.8154
 20
-4.68324
 11
14.6947
 21
-4.74879
  0
LINE
  8
0
 10
14.6947
 20
-4.74879
 11
14.5729
 21
-4.81221
  0
LINE
  8
0
 10
14.5729
 20
-4.81221
 11
14.45
 21
-4.8735
  0
LINE
  8
0
 10
14.45
 20
-4.8735
 11
14.326
 21
-4.93263
  0
LINE
  8
0
 10
14.326
 20
-4.93263
 11
14.201
 21
-4.98959
  0
LINE
  8
0
 10
14.201
 20
-4.98959
 11
14.075
 21
-5.04437
  0
LINE
  8
0
 10
14.075
 20
-5.04437
 11
13.9482
 21
-5.09692
  0
LINE
  8
0
 10
13.9482
 20
-5.09692
 11
13.8203
 21
-5.14728
  0
LINE
  8
0
 10
13.8203
 20
-5.14728
 11
13.6917
 21
-5.19537
  0
LINE
  8
0
 10
13.6917
 20
-5.19537
 11
13.5622
 21
-5.24123
  0
LINE
  8
0
 10
13.5622
 20
-5.24123
 11
13.432
 21
-5.28481
  0
LINE
  8
0
 10
13.432
 20
-5.28481
 11
13.301
 21
-5.32611
  0
LINE
  8
0
 10
13.301
 20
-5.32611
 11
13.1693
 21
-5.36513
  0
LINE
  8
0
 10
13.1693
 20
-5.36513
 11
13.0369
 21
-5.40182
  0
LINE
  8
0
 10
13.0369
 20
-5.40182
 11
12.9039
 21
-5.43622
  0
LINE
  8
0
 10
12.9039
 20
-5.43622
 11
12.7704
 21
-5.46829
  0
LINE
  8
0
 10
12.7704
 20
-5.46829
 11
12.6363
 21
-5.49802
  0
LINE
  8
0
 10
12.6363
 20
-5.49802
 11
12.5017
 21
-5.52541
  0
LINE
  8
0
 10
12.5017
 20
-5.52541
 11
12.3666
 21
-5.55043
  0
LINE
  8
0
 10
12.3666
 20
-5.55043
 11
12.2311
 21
-5.5731
  0
LINE
  8
0
 10
12.2311
 20
-5.5731
 11
12.0953
 21
-5.5934
  0
LINE
  8
0
 10
12.0953
 20
-5.5934
 11
11.9591
 21
-5.61133
  0
LINE
  8
0
 10
11.9591
 20
-5.61133
 11
11.8226
 21
-5.62688
  0
LINE
  8
0
 10
11.8226
 20
-5.62688
 11
11.6859
 21
-5.64005
  0
LINE
  8
0
 10
11.6859
 20
-5.64005
 11
11.549
 21
-5.65082
  0
LINE
  8
0
 10
11.549
 20
-5.65082
 11
11.4119
 21
-5.65921
  0
LINE
  8
0
 10
11.4119
 20
-5.65921
 11
11.2747
 21
-5.66519
  0
LINE
  8
0
 10
11.2747
 20
-5.66519
 11
11.1373
 21
-5.66879
  0
LINE
  8
0
 10
11.1373
 20
-5.66879
 11
11
 21
-5.67
  0
LINE
  8
0
 10
11
 20
-5.67
 11
10.8626
 21
-5.66879
  0
LINE
  8
0
 10
-12.4747
 20
-5.53059
 11
-14.3509
 21
-4.92097
  0
LINE
  8
0
 10
-14.3509
 20
-4.92097
 11
-16.0165
 21
-3.86394
  0
LINE
  8
0
 10
-16.0165
 20
-3.86394
 11
-17.367
 21
-2.42586
  0
LINE
  8
0
 10
-17.367
 20
-2.42586
 11
-18.3173
 21
-0.697128
  0
LINE
  8
0
 10
-18.3173
 20
-0.697128
 11
-18.8079
 21
1.21362
  0
LINE
  8
0
 10
-18.8079
 20
1.21362
 11
-18.8079
 21
3.18637
  0
LINE
  8
0
 10
-18.8079
 20
3.18637
 11
-18.3173
 21
5.09714
  0
LINE
  8
0
 10
-18.3173
 20
5.09714
 11
-17.367
 21
6.82587
  0
LINE
  8
0
 10
-17.367
 20
6.82587
 11
-16.0165
 21
8.26393
  0
LINE
  8
0
 10
-16.0165
 20
8.26393
 11
-14.3509
 21
9.32098
  0
LINE
  8
0
 10
-14.3509
 20
9.32098
 11
-12.4747
 21
9.93059
  0
LINE
  8
0
 10
-12.4747
 20
9.93059
 11
-10.5058
 21
10.0545
  0
LINE
  8
0
 10
-10.5058
 20
10.0545
 11
-8.56802
 21
9.68481
  0
LINE
  8
0
 10
-8.56802
 20
9.68481
 11
-6.78304
 21
8.84485
  0
LINE
  8
0
 10
-6.78304
 20
8.84485
 11
-5.26302
 21
7.58737
  0
LINE
  8
0
 10
-5.26302
 20
7.58737
 11
-4.10345
 21
5.99139
  0
LINE
  8
0
 10
-4.10345
 20
5.99139
 11
-3.37724
 21
4.15718
  0
LINE
  8
0
 10
-3.37724
 20
4.15718
 11
-3.12999
 21
2.2
  0
LINE
  8
0
 10
-3.12999
 20
2.2
 11
-3.37724
 21
0.242798
  0
LINE
  8
0
 10
-3.37724
 20
0.242798
 11
-4.10345
 21
-1.5914
  0
LINE
  8
0
 10
-4.10345
 20
-1.5914
 11
-5.26302
 21
-3.18738
  0
LINE
  8
0
 10
-5.26302
 20
-3.18738
 11
-6.78304
 21
-4.44485
  0
LINE
  8
0
 10
-6.78304
 20
-4.44485
 11
-8.56802
 21
-5.28481
  0
LINE
  8
0
 10
-8.56802
 20
-5.28481
 11
-10.5058
 21
-5.65446
  0
LINE
  8
0
 10
-10.5058
 20
-5.65446
 11
-12.4747
 21
-5.53059
  0
LINE
  8
0
 10
-5.95
 20
-11.45
 11
-5.95
 21
-6.64999
  0
LINE
  8
0
 10
-5.95
 20
-6.64999
 11
5.95
 21
-6.64999
  0
LINE
  8
0
 10
5.95
 20
-6.64999
 11
5.95
 21
-11.45
  0
LINE
  8
0
 10
5.95
 20
-11.45
 11
-5.95
 21
-11.45
  0
LINE
  8
0
 10
17.0917
 20
-10.8887
 11
17.0917
 21
-7.06682
  0
LINE
  8
0
 10
17.0917
 20
-7.06682
 11
18.3557
 21
-7.06682
  0
LINE
  8
0
 10
18.3557
 20
-7.06682
 11
19.2159
 21
-7.18855
  0
LINE
  8
0
 10
19.2159
 20
-7.18855
 11
19.8543
 21
-7.55374
  0
LINE
  8
0
 10
19.8543
 20
-7.55374
 11
20.25
 21
-8.14337
  0
LINE
  8
0
 10
20.25
 20
-8.14337
 11
20.3819
 21
-8.93846
  0
LINE
  8
0
 10
20.3819
 20
-8.93846
 11
20.3243
 21
-9.49281
  0
LINE
  8
0
 10
20.3243
 20
-9.49281
 11
20.1514
 21
-9.9733
  0
LINE
  8
0
 10
20.1514
 20
-9.9733
 11
19.8727
 21
-10.3649
  0
LINE
  8
0
 10
19.8727
 20
-10.3649
 11
19.4977
 21
-10.6528
  0
LINE
  8
0
 10
19.4977
 20
-10.6528
 11
19.0419
 21
-10.8297
  0
LINE
  8
0
 10
19.0419
 20
-10.8297
 11
18.5212
 21
-10.8887
  0
LINE
  8
0
 10
18.5212
 20
-10.8887
 11
17.0917
 21
-10.8887
  0
LINE
  8
0
 10
18.8565
 20
-10.4276
 11
19.2007
 21
-10.2893
  0
LINE
  8
0
 10
19.2007
 20
-10.2893
 11
19.4824
 21
-10.0641
  0
LINE
  8
0
 10
19.4824
 20
-10.0641
 11
19.6902
 21
-9.75761
  0
LINE
  8
0
 10
19.6902
 20
-9.75761
 11
19.8184
 21
-9.37923
  0
LINE
  8
0
 10
19.8184
 20
-9.37923
 11
19.8611
 21
-8.93846
  0
LINE
  8
0
 10
19.8611
 20
-8.93846
 11
19.7638
 21
-8.31221
  0
LINE
  8
0
 10
19.7638
 20
-8.31221
 11
19.4719
 21
-7.85483
  0
LINE
  8
0
 10
19.4719
 20
-7.85483
 11
18.9955
 21
-7.57507
  0
LINE
  8
0
 10
18.9955
 20
-7.57507
 11
18.3448
 21
-7.48183
  0
LINE
  8
0
 10
18.3448
 20
-7.48183
 11
17.6098
 21
-7.48183
  0
LINE
  8
0
 10
17.6098
 20
-7.48183
 11
17.6098
 21
-10.4737
  0
LINE
  8
0
 10
17.6098
 20
-10.4737
 11
18.4615
 21
-10.4737
  0
LINE
  8
0
 10
18.4615
 20
-10.4737
 11
18.8565
 21
-10.4276
  0
LINE
  8
0
 10
13.473
 20
-10.8887
 11
13.473
 21
-7.06682
  0
LINE
  8
0
 10
13.473
 20
-7.06682
 11
16.3727
 21
-7.06682
  0
LINE
  8
0
 10
16.3727
 20
-7.06682
 11
16.3727
 21
-7.48999
  0
LINE
  8
0
 10
16.3727
 20
-7.48999
 11
13.9911
 21
-7.48999
  0
LINE
  8
0
 10
13.9911
 20
-7.48999
 11
13.9911
 21
-8.71602
  0
LINE
  8
0
 10
13.9911
 20
-8.71602
 11
16.2099
 21
-8.71602
  0
LINE
  8
0
 10
16.2099
 20
-8.71602
 11
16.2099
 21
-9.13373
  0
LINE
  8
0
 10
16.2099
 20
-9.13373
 11
13.9911
 21
-9.13373
  0
LINE
  8
0
 10
13.9911
 20
-9.13373
 11
13.9911
 21
-10.4656
  0
LINE
  8
0
 10
13.9911
 20
-10.4656
 11
16.4839
 21
-10.4656
  0
LINE
  8
0
 10
16.4839
 20
-10.4656
 11
16.4839
 21
-10.8887
  0
LINE
  8
0
 10
16.4839
 20
-10.8887
 11
13.473
 21
-10.8887
  0
LINE
  8
0
 10
10.4557
 20
-10.8887
 11
10.4557
 21
-7.06682
  0
LINE
  8
0
 10
10.4557
 20
-7.06682
 11
10.9738
 21
-7.06682
  0
LINE
  8
0
 10
10.9738
 20
-7.06682
 11
10.9738
 21
-10.4656
  0
LINE
  8
0
 10
10.9738
 20
-10.4656
 11
12.9051
 21
-10.4656
  0
LINE
  8
0
 10
12.9051
 20
-10.4656
 11
12.9051
 21
-10.8887
  0
LINE
  8
0
 10
12.9051
 20
-10.8887
 11
10.4557
 21
-10.8887
  0
LINE
  8
0
 10
-13.4623
 20
-10.9162
 11
-13.4623
 21
-7.09433
  0
LINE
  8
0
 10
-13.4623
 20
-7.09433
 11
-11.6639
 21
-7.09433
  0
LINE
  8
0
 10
-11.6639
 20
-7.09433
 11
-11.0919
 21
-7.16655
  0
LINE
  8
0
 10
-11.0919
 20
-7.16655
 11
-10.6671
 21
-7.38321
  0
LINE
  8
0
 10
-10.6671
 20
-7.38321
 11
-10.4036
 21
-7.72871
  0
LINE
  8
0
 10
-10.4036
 20
-7.72871
 11
-10.3158
 21
-8.18748
  0
LINE
  8
0
 10
-10.3158
 20
-8.18748
 11
-10.3779
 21
-8.57942
  0
LINE
  8
0
 10
-10.3779
 20
-8.57942
 11
-10.564
 21
-8.90356
  0
LINE
  8
0
 10
-10.564
 20
-8.90356
 11
-10.8593
 21
-9.14021
  0
LINE
  8
0
 10
-10.8593
 20
-9.14021
 11
-11.2489
 21
-9.26974
  0
LINE
  8
0
 10
-11.2489
 20
-9.26974
 11
-10.1639
 21
-10.9162
  0
LINE
  8
0
 10
-10.1639
 20
-10.9162
 11
-10.7606
 21
-10.9162
  0
LINE
  8
0
 10
-10.7606
 20
-10.9162
 11
-11.7534
 21
-9.32944
  0
LINE
  8
0
 10
-11.7534
 20
-9.32944
 11
-12.9442
 21
-9.32944
  0
LINE
  8
0
 10
-12.9442
 20
-9.32944
 11
-12.9442
 21
-10.9162
  0
LINE
  8
0
 10
-12.9442
 20
-10.9162
 11
-13.4623
 21
-10.9162
  0
LINE
  8
0
 10
-11.3306
 20
-8.87204
 11
-11.0604
 21
-8.72861
  0
LINE
  8
0
 10
-11.0604
 20
-8.72861
 11
-10.8925
 21
-8.49905
  0
LINE
  8
0
 10
-10.8925
 20
-8.49905
 11
-10.8366
 21
-8.19289
  0
LINE
  8
0
 10
-10.8366
 20
-8.19289
 11
-10.8932
 21
-7.89891
  0
LINE
  8
0
 10
-10.8932
 20
-7.89891
 11
-11.0631
 21
-7.68428
  0
LINE
  8
0
 10
-11.0631
 20
-7.68428
 11
-11.3394
 21
-7.55307
  0
LINE
  8
0
 10
-11.3394
 20
-7.55307
 11
-11.7154
 21
-7.50932
  0
LINE
  8
0
 10
-11.7154
 20
-7.50932
 11
-12.9442
 21
-7.50932
  0
LINE
  8
0
 10
-12.9442
 20
-7.50932
 11
-12.9442
 21
-8.91985
  0
LINE
  8
0
 10
-12.9442
 20
-8.91985
 11
-11.6938
 21
-8.91985
  0
LINE
  8
0
 10
-11.6938
 20
-8.91985
 11
-11.3306
 21
-8.87204
  0
LINE
  8
0
 10
-17.8886
 20
-10.9162
 11
-19.0143
 21
-7.09433
  0
LINE
  8
0
 10
-19.0143
 20
-7.09433
 11
-18.4745
 21
-7.09433
  0
LINE
  8
0
 10
-18.4745
 20
-7.09433
 11
-17.7882
 21
-9.52199
  0
LINE
  8
0
 10
-17.7882
 20
-9.52199
 11
-17.6709
 21
-9.98448
  0
LINE
  8
0
 10
-17.6709
 20
-9.98448
 11
-17.5631
 21
-10.4605
  0
LINE
  8
0
 10
-17.5631
 20
-10.4605
 11
-17.4929
 21
-10.1486
  0
LINE
  8
0
 10
-17.4929
 20
-10.1486
 11
-17.4125
 21
-9.80956
  0
LINE
  8
0
 10
-17.4125
 20
-9.80956
 11
-17.1816
 21
-8.95444
  0
LINE
  8
0
 10
-17.1816
 20
-8.95444
 11
-16.6598
 21
-7.09433
  0
LINE
  8
0
 10
-16.6598
 20
-7.09433
 11
-16.1635
 21
-7.09433
  0
LINE
  8
0
 10
-16.1635
 20
-7.09433
 11
-15.4989
 21
-9.47319
  0
LINE
  8
0
 10
-15.4989
 20
-9.47319
 11
-15.3633
 21
-10.0116
  0
LINE
  8
0
 10
-15.3633
 20
-10.0116
 11
-15.2602
 21
-10.4605
  0
LINE
  8
0
 10
-15.2602
 20
-10.4605
 11
-15.2358
 21
-10.3656
  0
LINE
  8
0
 10
-15.2358
 20
-10.3656
 11
-15.1164
 21
-9.85703
  0
LINE
  8
0
 10
-15.1164
 20
-9.85703
 11
-14.9028
 21
-9.06801
  0
LINE
  8
0
 10
-14.9028
 20
-9.06801
 11
-14.3542
 21
-7.09433
  0
LINE
  8
0
 10
-14.3542
 20
-7.09433
 11
-13.8144
 21
-7.09433
  0
LINE
  8
0
 10
-13.8144
 20
-7.09433
 11
-14.9401
 21
-10.9162
  0
LINE
  8
0
 10
-14.9401
 20
-10.9162
 11
-15.5586
 21
-10.9162
  0
LINE
  8
0
 10
-15.5586
 20
-10.9162
 11
-16.2204
 21
-8.48857
  0
LINE
  8
0
 10
-16.2204
 20
-8.48857
 11
-16.3004
 21
-8.17053
  0
LINE
  8
0
 10
-16.3004
 20
-8.17053
 11
-16.4103
 21
-7.67209
  0
LINE
  8
0
 10
-16.4103
 20
-7.67209
 11
-16.4754
 21
-7.96097
  0
LINE
  8
0
 10
-16.4754
 20
-7.96097
 11
-16.5297
 21
-8.19832
  0
LINE
  8
0
 10
-16.5297
 20
-8.19832
 11
-16.7392
 21
-8.98358
  0
LINE
  8
0
 10
-16.7392
 20
-8.98358
 11
-17.2701
 21
-10.9162
  0
LINE
  8
0
 10
-17.2701
 20
-10.9162
 11
-17.8886
 21
-10.9162
  0
LINE
  8
0
 10
-22.2017
 20
-10.9162
 11
-22.2017
 21
-7.09433
  0
LINE
  8
0
 10
-22.2017
 20
-7.09433
 11
-20.5932
 21
-7.09433
  0
LINE
  8
0
 10
-20.5932
 20
-7.09433
 11
-20.0229
 21
-7.1696
  0
LINE
  8
0
 10
-20.0229
 20
-7.1696
 11
-19.5977
 21
-7.39545
  0
LINE
  8
0
 10
-19.5977
 20
-7.39545
 11
-19.3332
 21
-7.75824
  0
LINE
  8
0
 10
-19.3332
 20
-7.75824
 11
-19.2451
 21
-8.24445
  0
LINE
  8
0
 10
-19.2451
 20
-8.24445
 11
-19.3336
 21
-8.73132
  0
LINE
  8
0
 10
-19.3336
 20
-8.73132
 11
-19.5991
 21
-9.10699
  0
LINE
  8
0
 10
-19.5991
 20
-9.10699
 11
-20.0164
 21
-9.34705
  0
LINE
  8
0
 10
-20.0164
 20
-9.34705
 11
-20.5606
 21
-9.42706
  0
LINE
  8
0
 10
-20.5606
 20
-9.42706
 11
-21.6836
 21
-9.42706
  0
LINE
  8
0
 10
-21.6836
 20
-9.42706
 11
-21.6836
 21
-10.9162
  0
LINE
  8
0
 10
-21.6836
 20
-10.9162
 11
-22.2017
 21
-10.9162
  0
LINE
  8
0
 10
-19.9828
 20
-8.82558
 11
-19.7659
 21
-8.24985
  0
LINE
  8
0
 10
-19.7659
 20
-8.24985
 11
-19.9883
 21
-7.69446
  0
LINE
  8
0
 10
-19.9883
 20
-7.69446
 11
-20.6555
 21
-7.50932
  0
LINE
  8
0
 10
-20.6555
 20
-7.50932
 11
-21.6836
 21
-7.50932
  0
LINE
  8
0
 10
-21.6836
 20
-7.50932
 11
-21.6836
 21
-9.01749
  0
LINE
  8
0
 10
-21.6836
 20
-9.01749
 11
-20.6339
 21
-9.01749
  0
LINE
  8
0
 10
-20.6339
 20
-9.01749
 11
-19.9828
 21
-8.82558
  0
LINE
  8
0
 10
21.4548
 20
-10.8979
 11
21.0951
 21
-10.7626
  0
LINE
  8
0
 10
21.0951
 20
-10.7626
 11
20.85
 21
-10.5317
  0
LINE
  8
0
 10
20.85
 20
-10.5317
 11
20.7086
 21
-10.1998
  0
LINE
  8
0
 10
20.7086
 20
-10.1998
 11
21.1399
 21
-10.1156
  0
LINE
  8
0
 10
21.1399
 20
-10.1156
 11
21.2355
 21
-10.3201
  0
LINE
  8
0
 10
21.2355
 20
-10.3201
 11
21.3975
 21
-10.4615
  0
LINE
  8
0
 10
21.3975
 20
-10.4615
 11
21.6308
 21
-10.5439
  0
LINE
  8
0
 10
21.6308
 20
-10.5439
 11
21.9401
 21
-10.5714
  0
LINE
  8
0
 10
21.9401
 20
-10.5714
 11
22.2618
 21
-10.5429
  0
LINE
  8
0
 10
22.2618
 20
-10.5429
 11
22.4839
 21
-10.4574
  0
LINE
  8
0
 10
22.4839
 20
-10.4574
 11
22.6131
 21
-10.315
  0
LINE
  8
0
 10
22.6131
 20
-10.315
 11
22.6562
 21
-10.1156
  0
LINE
  8
0
 10
22.6562
 20
-10.1156
 11
22.6263
 21
-9.95833
  0
LINE
  8
0
 10
22.6263
 20
-9.95833
 11
22.5368
 21
-9.83357
  0
LINE
  8
0
 10
22.5368
 20
-9.83357
 11
22.3808
 21
-9.73454
  0
LINE
  8
0
 10
22.3808
 20
-9.73454
 11
22.1517
 21
-9.65453
  0
LINE
  8
0
 10
22.1517
 20
-9.65453
 11
21.8017
 21
-9.56233
  0
LINE
  8
0
 10
21.8017
 20
-9.56233
 11
21.442
 21
-9.45483
  0
LINE
  8
0
 10
21.442
 20
-9.45483
 11
21.2036
 21
-9.34941
  0
LINE
  8
0
 10
21.2036
 20
-9.34941
 11
21.0453
 21
-9.23378
  0
LINE
  8
0
 10
21.0453
 20
-9.23378
 11
20.9256
 21
-9.09576
  0
LINE
  8
0
 10
20.9256
 20
-9.09576
 11
20.8503
 21
-8.92964
  0
LINE
  8
0
 10
20.8503
 20
-8.92964
 11
20.8252
 21
-8.72958
  0
LINE
  8
0
 10
20.8252
 20
-8.72958
 11
20.8968
 21
-8.37596
  0
LINE
  8
0
 10
20.8968
 20
-8.37596
 11
21.1114
 21
-8.11795
  0
LINE
  8
0
 10
21.1114
 20
-8.11795
 11
21.463
 21
-7.96027
  0
LINE
  8
0
 10
21.463
 20
-7.96027
 11
21.9455
 21
-7.9077
  0
LINE
  8
0
 10
21.9455
 20
-7.9077
 11
22.3812
 21
-7.95042
  0
LINE
  8
0
 10
22.3812
 20
-7.95042
 11
22.7172
 21
-8.07858
  0
LINE
  8
0
 10
22.7172
 20
-8.07858
 11
22.9508
 21
-8.30101
  0
LINE
  8
0
 10
22.9508
 20
-8.30101
 11
23.0793
 21
-8.62651
  0
LINE
  8
0
 10
23.0793
 20
-8.62651
 11
22.6399
 21
-8.68079
  0
LINE
  8
0
 10
22.6399
 20
-8.68079
 11
22.565
 21
-8.50819
  0
LINE
  8
0
 10
22.565
 20
-8.50819
 11
22.4215
 21
-8.38107
  0
LINE
  8
0
 10
22.4215
 20
-8.38107
 11
22.2137
 21
-8.30273
  0
LINE
  8
0
 10
22.2137
 20
-8.30273
 11
21.9455
 21
-8.27663
  0
LINE
  8
0
 10
21.9455
 20
-8.27663
 11
21.658
 21
-8.30171
  0
LINE
  8
0
 10
21.658
 20
-8.30171
 11
21.4572
 21
-8.37698
  0
LINE
  8
0
 10
21.4572
 20
-8.37698
 11
21.3392
 21
-8.50311
  0
LINE
  8
0
 10
21.3392
 20
-8.50311
 11
21.2999
 21
-8.68079
  0
LINE
  8
0
 10
21.2999
 20
-8.68079
 11
21.3162
 21
-8.79471
  0
LINE
  8
0
 10
21.3162
 20
-8.79471
 11
21.365
 21
-8.88695
  0
LINE
  8
0
 10
21.365
 20
-8.88695
 11
21.4457
 21
-8.9622
  0
LINE
  8
0
 10
21.4457
 20
-8.9622
 11
21.5576
 21
-9.02527
  0
LINE
  8
0
 10
21.5576
 20
-9.02527
 11
21.7556
 21
-9.09306
  0
LINE
  8
0
 10
21.7556
 20
-9.09306
 11
22.0947
 21
-9.18257
  0
LINE
  8
0
 10
22.0947
 20
-9.18257
 11
22.4283
 21
-9.27649
  0
LINE
  8
0
 10
22.4283
 20
-9.27649
 11
22.6535
 21
-9.36298
  0
LINE
  8
0
 10
22.6535
 20
-9.36298
 11
22.8064
 21
-9.4501
  0
LINE
  8
0
 10
22.8064
 20
-9.4501
 11
22.9233
 21
-9.54605
  0
LINE
  8
0
 10
22.9233
 20
-9.54605
 11
23.0112
 21
-9.65421
  0
LINE
  8
0
 10
23.0112
 20
-9.65421
 11
23.0766
 21
-9.77797
  0
LINE
  8
0
 10
23.0766
 20
-9.77797
 11
23.1173
 21
-9.91869
  0
LINE
  8
0
 10
23.1173
 20
-9.91869
 11
23.1309
 21
-10.0777
  0
LINE
  8
0
 10
23.1309
 20
-10.0777
 11
23.0525
 21
-10.4452
  0
LINE
  8
0
 10
23.0525
 20
-10.4452
 11
22.8175
 21
-10.7178
  0
LINE
  8
0
 10
22.8175
 20
-10.7178
 11
22.4415
 21
-10.8867
  0
LINE
  8
0
 10
22.4415
 20
-10.8867
 11
21.9401
 21
-10.943
  0
LINE
  8
0
 10
21.9401
 20
-10.943
 11
21.4548
 21
-10.8979
  0
ENDSEC
  0
SECTION
  2
OBJECTS
  0
DICTIONARY
  0
ENDSEC
  0
EOF
