  0
SECTION
  2
BLOCKS
  0
ENDSEC
  0
SECTION
  2
ENTITIES
  0
LINE
  8
0
 10
31.75
 20
15
 11
-31.75
 21
15
  0
LINE
  8
0
 10
-31.75
 20
15
 11
-31.75
 21
-15
  0
LINE
  8
0
 10
-31.75
 20
-15
 11
31.75
 21
-15
  0
LINE
  8
0
 10
31.75
 20
-15
 11
31.75
 21
15
  0
LINE
  8
0
 10
-5.13583
 20
5.61041
 11
-5.61121
 21
5.78941
  0
LINE
  8
0
 10
-5.61121
 20
5.78941
 11
-5.994
 21
6.08069
  0
LINE
  8
0
 10
-5.994
 20
6.08069
 11
-6.2744
 21
6.47707
  0
LINE
  8
0
 10
-6.2744
 20
6.47707
 11
-6.4463
 21
6.96565
  0
LINE
  8
0
 10
-6.4463
 20
6.96565
 11
-6.5036
 21
7.53358
  0
LINE
  8
0
 10
-6.5036
 20
7.53358
 11
-6.37883
 21
8.35884
  0
LINE
  8
0
 10
-6.37883
 20
8.35884
 11
-6.00452
 21
8.97391
  0
LINE
  8
0
 10
-6.00452
 20
8.97391
 11
-5.40437
 21
9.35637
  0
LINE
  8
0
 10
-5.40437
 20
9.35637
 11
-4.60216
 21
9.48386
  0
LINE
  8
0
 10
-4.60216
 20
9.48386
 11
-4.02711
 21
9.43028
  0
LINE
  8
0
 10
-4.02711
 20
9.43028
 11
-3.5714
 21
9.26958
  0
LINE
  8
0
 10
-3.5714
 20
9.26958
 11
-3.22079
 21
8.99088
  0
LINE
  8
0
 10
-3.22079
 20
8.99088
 11
-2.96107
 21
8.5833
  0
LINE
  8
0
 10
-2.96107
 20
8.5833
 11
-3.45476
 21
8.43681
  0
LINE
  8
0
 10
-3.45476
 20
8.43681
 11
-3.64838
 21
8.71825
  0
LINE
  8
0
 10
-3.64838
 20
8.71825
 11
-3.90369
 21
8.9115
  0
LINE
  8
0
 10
-3.90369
 20
8.9115
 11
-4.22478
 21
9.02341
  0
LINE
  8
0
 10
-4.22478
 20
9.02341
 11
-4.61572
 21
9.0607
  0
LINE
  8
0
 10
-4.61572
 20
9.0607
 11
-5.19958
 21
8.96066
  0
LINE
  8
0
 10
-5.19958
 20
8.96066
 11
-5.62749
 21
8.66058
  0
LINE
  8
0
 10
-5.62749
 20
8.66058
 11
-5.88992
 21
8.17879
  0
LINE
  8
0
 10
-5.88992
 20
8.17879
 11
-5.9774
 21
7.53358
  0
LINE
  8
0
 10
-5.9774
 20
7.53358
 11
-5.88451
 21
6.88564
  0
LINE
  8
0
 10
-5.88451
 20
6.88564
 11
-5.6058
 21
6.39026
  0
LINE
  8
0
 10
-5.6058
 20
6.39026
 11
-5.16296
 21
6.07594
  0
LINE
  8
0
 10
-5.16296
 20
6.07594
 11
-4.57771
 21
5.97118
  0
LINE
  8
0
 10
-4.57771
 20
5.97118
 11
-4.21596
 21
5.99966
  0
LINE
  8
0
 10
-4.21596
 20
5.99966
 11
-3.87929
 21
6.0851
  0
LINE
  8
0
 10
-3.87929
 20
6.0851
 11
-3.58598
 21
6.21936
  0
LINE
  8
0
 10
-3.58598
 20
6.21936
 11
-3.3544
 21
6.3943
  0
LINE
  8
0
 10
-3.3544
 20
6.3943
 11
-3.3544
 21
7.0833
  0
LINE
  8
0
 10
-3.3544
 20
7.0833
 11
-4.49635
 21
7.0833
  0
LINE
  8
0
 10
-4.49635
 20
7.0833
 11
-4.49635
 21
7.5173
  0
LINE
  8
0
 10
-4.49635
 20
7.5173
 11
-2.877
 21
7.5173
  0
LINE
  8
0
 10
-2.877
 20
7.5173
 11
-2.877
 21
6.19902
  0
LINE
  8
0
 10
-2.877
 20
6.19902
 11
-3.21506
 21
5.92471
  0
LINE
  8
0
 10
-3.21506
 20
5.92471
 11
-3.6216
 21
5.72026
  0
LINE
  8
0
 10
-3.6216
 20
5.72026
 11
-4.08101
 21
5.59312
  0
LINE
  8
0
 10
-4.08101
 20
5.59312
 11
-4.57771
 21
5.55074
  0
LINE
  8
0
 10
-4.57771
 20
5.55074
 11
-5.13583
 21
5.61041
  0
LINE
  8
0
 10
4.17117
 20
5.61041
 11
3.7036
 21
5.78941
  0
LINE
  8
0
 10
3.7036
 20
5.78941
 11
3.3269
 21
6.08136
  0
LINE
  8
0
 10
3.3269
 20
6.08136
 11
3.05124
 21
6.47974
  0
LINE
  8
0
 10
3.05124
 20
6.47974
 11
2.8824
 21
6.96902
  0
LINE
  8
0
 10
2.8824
 20
6.96902
 11
2.82613
 21
7.53358
  0
LINE
  8
0
 10
2.82613
 20
7.53358
 11
2.95157
 21
8.35036
  0
LINE
  8
0
 10
2.95157
 20
8.35036
 11
3.32793
 21
8.9671
  0
LINE
  8
0
 10
3.32793
 20
8.9671
 11
3.92805
 21
9.35468
  0
LINE
  8
0
 10
3.92805
 20
9.35468
 11
4.72488
 21
9.48386
  0
LINE
  8
0
 10
4.72488
 20
9.48386
 11
5.26939
 21
9.42587
  0
LINE
  8
0
 10
5.26939
 20
9.42587
 11
5.7366
 21
9.25194
  0
LINE
  8
0
 10
5.7366
 20
9.25194
 11
6.11467
 21
8.96745
  0
LINE
  8
0
 10
6.11467
 20
8.96745
 11
6.39168
 21
8.57787
  0
LINE
  8
0
 10
6.39168
 20
8.57787
 11
6.56157
 21
8.09573
  0
LINE
  8
0
 10
6.56157
 20
8.09573
 11
6.61819
 21
7.53358
  0
LINE
  8
0
 10
6.61819
 20
7.53358
 11
6.56088
 21
6.97141
  0
LINE
  8
0
 10
6.56088
 20
6.97141
 11
6.38896
 21
6.48383
  0
LINE
  8
0
 10
6.38896
 20
6.48383
 11
6.10992
 21
6.08575
  0
LINE
  8
0
 10
6.10992
 20
6.08575
 11
5.7312
 21
5.79214
  0
LINE
  8
0
 10
5.7312
 20
5.79214
 11
5.26398
 21
5.61108
  0
LINE
  8
0
 10
5.26398
 20
5.61108
 11
4.71944
 21
5.55074
  0
LINE
  8
0
 10
4.71944
 20
5.55074
 11
4.17117
 21
5.61041
  0
LINE
  8
0
 10
5.30431
 20
6.07323
 11
5.73524
 21
6.37938
  0
LINE
  8
0
 10
5.73524
 20
6.37938
 11
6.00075
 21
6.87206
  0
LINE
  8
0
 10
6.00075
 20
6.87206
 11
6.08923
 21
7.53358
  0
LINE
  8
0
 10
6.08923
 20
7.53358
 11
6.00008
 21
8.17032
  0
LINE
  8
0
 10
6.00008
 20
8.17032
 11
5.73256
 21
8.65382
  0
LINE
  8
0
 10
5.73256
 20
8.65382
 11
5.30231
 21
8.95898
  0
LINE
  8
0
 10
5.30231
 20
8.95898
 11
4.72488
 21
9.0607
  0
LINE
  8
0
 10
4.72488
 20
9.0607
 11
4.14304
 21
8.96034
  0
LINE
  8
0
 10
4.14304
 20
8.96034
 11
3.71036
 21
8.65926
  0
LINE
  8
0
 10
3.71036
 20
8.65926
 11
3.44183
 21
8.17712
  0
LINE
  8
0
 10
3.44183
 20
8.17712
 11
3.35233
 21
7.53358
  0
LINE
  8
0
 10
3.35233
 20
7.53358
 11
3.44286
 21
6.88901
  0
LINE
  8
0
 10
3.44286
 20
6.88901
 11
3.71445
 21
6.39294
  0
LINE
  8
0
 10
3.71445
 20
6.39294
 11
4.14674
 21
6.07661
  0
LINE
  8
0
 10
4.14674
 20
6.07661
 11
4.71944
 21
5.97118
  0
LINE
  8
0
 10
4.71944
 20
5.97118
 11
5.30431
 21
6.07323
  0
LINE
  8
0
 10
1.56833
 20
5.60498
 11
1.56833
 21
9.4269
  0
LINE
  8
0
 10
1.56833
 20
9.4269
 11
2.08641
 21
9.4269
  0
LINE
  8
0
 10
2.08641
 20
9.4269
 11
2.08641
 21
5.60498
  0
LINE
  8
0
 10
2.08641
 20
5.60498
 11
1.56833
 21
5.60498
  0
LINE
  8
0
 10
-2.10728
 20
5.60498
 11
-2.10728
 21
9.4269
  0
LINE
  8
0
 10
-2.10728
 20
9.4269
 11
-0.498795
 21
9.4269
  0
LINE
  8
0
 10
-0.498795
 20
9.4269
 11
0.0714874
 21
9.35162
  0
LINE
  8
0
 10
0.0714874
 20
9.35162
 11
0.496658
 21
9.12578
  0
LINE
  8
0
 10
0.496658
 20
9.12578
 11
0.761139
 21
8.76299
  0
LINE
  8
0
 10
0.761139
 20
8.76299
 11
0.849304
 21
8.27678
  0
LINE
  8
0
 10
0.849304
 20
8.27678
 11
0.760803
 21
7.7899
  0
LINE
  8
0
 10
0.760803
 20
7.7899
 11
0.4953
 21
7.41422
  0
LINE
  8
0
 10
0.4953
 20
7.41422
 11
0.0779419
 21
7.17416
  0
LINE
  8
0
 10
0.0779419
 20
7.17416
 11
-0.466248
 21
7.09415
  0
LINE
  8
0
 10
-0.466248
 20
7.09415
 11
-1.5892
 21
7.09415
  0
LINE
  8
0
 10
-1.5892
 20
7.09415
 11
-1.5892
 21
5.60498
  0
LINE
  8
0
 10
-1.5892
 20
5.60498
 11
-2.10728
 21
5.60498
  0
LINE
  8
0
 10
0.111511
 20
7.69565
 11
0.328506
 21
8.27138
  0
LINE
  8
0
 10
0.328506
 20
8.27138
 11
0.106079
 21
8.82677
  0
LINE
  8
0
 10
0.106079
 20
8.82677
 11
-0.561157
 21
9.0119
  0
LINE
  8
0
 10
-0.561157
 20
9.0119
 11
-1.5892
 21
9.0119
  0
LINE
  8
0
 10
-1.5892
 20
9.0119
 11
-1.5892
 21
7.50374
  0
LINE
  8
0
 10
-1.5892
 20
7.50374
 11
-0.539474
 21
7.50374
  0
LINE
  8
0
 10
-0.539474
 20
7.50374
 11
0.111511
 21
7.69565
  0
LINE
  8
0
 10
-20.31
 20
-5.04999
 11
-20.31
 21
4.04999
  0
LINE
  8
0
 10
-20.31
 20
4.04999
 11
20.31
 21
4.04999
  0
LINE
  8
0
 10
20.31
 20
4.04999
 11
20.31
 21
-5.04999
  0
LINE
  8
0
 10
20.31
 20
-5.04999
 11
-20.31
 21
-5.04999
  0
LINE
  8
0
 10
-7.25974
 20
-10.9354
 11
-7.79036
 21
-10.7411
  0
LINE
  8
0
 10
-7.79036
 20
-10.7411
 11
-8.22232
 21
-10.4271
  0
LINE
  8
0
 10
-8.22232
 20
-10.4271
 11
-8.539
 21
-10.0033
  0
LINE
  8
0
 10
-8.539
 20
-10.0033
 11
-8.73328
 21
-9.48824
  0
LINE
  8
0
 10
-8.73328
 20
-9.48824
 11
-8.79803
 21
-8.90063
  0
LINE
  8
0
 10
-8.79803
 20
-8.90063
 11
-8.71362
 21
-8.17574
  0
LINE
  8
0
 10
-8.71362
 20
-8.17574
 11
-8.46036
 21
-7.52
  0
LINE
  8
0
 10
-8.46036
 20
-7.52
 11
-8.05721
 21
-6.96764
  0
LINE
  8
0
 10
-8.05721
 20
-6.96764
 11
-7.52319
 21
-6.55296
  0
LINE
  8
0
 10
-7.52319
 20
-6.55296
 11
-6.88777
 21
-6.29359
  0
LINE
  8
0
 10
-6.88777
 20
-6.29359
 11
-6.18048
 21
-6.20714
  0
LINE
  8
0
 10
-6.18048
 20
-6.20714
 11
-5.57152
 21
-6.26851
  0
LINE
  8
0
 10
-5.57152
 20
-6.26851
 11
-5.05208
 21
-6.45261
  0
LINE
  8
0
 10
-5.05208
 20
-6.45261
 11
-4.63335
 21
-6.7486
  0
LINE
  8
0
 10
-4.63335
 20
-6.7486
 11
-4.32652
 21
-7.14565
  0
LINE
  8
0
 10
-4.32652
 20
-7.14565
 11
-4.13832
 21
-7.62915
  0
LINE
  8
0
 10
-4.13832
 20
-7.62915
 11
-4.07559
 21
-8.18456
  0
LINE
  8
0
 10
-4.07559
 20
-8.18456
 11
-4.11459
 21
-8.66501
  0
LINE
  8
0
 10
-4.11459
 20
-8.66501
 11
-4.23155
 21
-9.09732
  0
LINE
  8
0
 10
-4.23155
 20
-9.09732
 11
-4.41805
 21
-9.45908
  0
LINE
  8
0
 10
-4.41805
 20
-9.45908
 11
-4.66556
 21
-9.72797
  0
LINE
  8
0
 10
-4.66556
 20
-9.72797
 11
-4.96021
 21
-9.89476
  0
LINE
  8
0
 10
-4.96021
 20
-9.89476
 11
-5.28807
 21
-9.95036
  0
LINE
  8
0
 10
-5.28807
 20
-9.95036
 11
-5.52609
 21
-9.92053
  0
LINE
  8
0
 10
-5.52609
 20
-9.92053
 11
-5.70308
 21
-9.83104
  0
LINE
  8
0
 10
-5.70308
 20
-9.83104
 11
-5.81294
 21
-9.68184
  0
LINE
  8
0
 10
-5.81294
 20
-9.68184
 11
-5.84956
 21
-9.47296
  0
LINE
  8
0
 10
-5.84956
 20
-9.47296
 11
-5.84143
 21
-9.28313
  0
LINE
  8
0
 10
-5.84143
 20
-9.28313
 11
-5.85768
 21
-9.28313
  0
LINE
  8
0
 10
-5.85768
 20
-9.28313
 11
-6.05807
 21
-9.57504
  0
LINE
  8
0
 10
-6.05807
 20
-9.57504
 11
-6.30119
 21
-9.78355
  0
LINE
  8
0
 10
-6.30119
 20
-9.78355
 11
-6.57616
 21
-9.90866
  0
LINE
  8
0
 10
-6.57616
 20
-9.90866
 11
-6.87216
 21
-9.95036
  0
LINE
  8
0
 10
-6.87216
 20
-9.95036
 11
-7.25023
 21
-9.8812
  0
LINE
  8
0
 10
-7.25023
 20
-9.8812
 11
-7.53268
 21
-9.67372
  0
LINE
  8
0
 10
-7.53268
 20
-9.67372
 11
-7.70863
 21
-9.34348
  0
LINE
  8
0
 10
-7.70863
 20
-9.34348
 11
-7.76727
 21
-8.90608
  0
LINE
  8
0
 10
-7.76727
 20
-8.90608
 11
-7.72354
 21
-8.47681
  0
LINE
  8
0
 10
-7.72354
 20
-8.47681
 11
-7.59236
 21
-8.07877
  0
LINE
  8
0
 10
-7.59236
 20
-8.07877
 11
-7.38248
 21
-7.73563
  0
LINE
  8
0
 10
-7.38248
 20
-7.73563
 11
-7.10275
 21
-7.47116
  0
LINE
  8
0
 10
-7.10275
 20
-7.47116
 11
-6.77113
 21
-7.30229
  0
LINE
  8
0
 10
-6.77113
 20
-7.30229
 11
-6.40564
 21
-7.246
  0
LINE
  8
0
 10
-6.40564
 20
-7.246
 11
-5.9045
 21
-7.36942
  0
LINE
  8
0
 10
-5.9045
 20
-7.36942
 11
-5.58916
 21
-7.73969
  0
LINE
  8
0
 10
-5.58916
 20
-7.73969
 11
-5.57288
 21
-7.73969
  0
LINE
  8
0
 10
-5.57288
 20
-7.73969
 11
-5.46707
 21
-7.30568
  0
LINE
  8
0
 10
-5.46707
 20
-7.30568
 11
-5.04396
 21
-7.30568
  0
LINE
  8
0
 10
-5.04396
 20
-7.30568
 11
-5.3586
 21
-8.67821
  0
LINE
  8
0
 10
-5.3586
 20
-8.67821
 11
-5.43387
 21
-9.0722
  0
LINE
  8
0
 10
-5.43387
 20
-9.0722
 11
-5.45895
 21
-9.36449
  0
LINE
  8
0
 10
-5.45895
 20
-9.36449
 11
-5.40402
 21
-9.55569
  0
LINE
  8
0
 10
-5.40402
 20
-9.55569
 11
-5.23924
 21
-9.61945
  0
LINE
  8
0
 10
-5.23924
 20
-9.61945
 11
-5.03072
 21
-9.57265
  0
LINE
  8
0
 10
-5.03072
 20
-9.57265
 11
-4.83916
 21
-9.43228
  0
LINE
  8
0
 10
-4.83916
 20
-9.43228
 11
-4.67538
 21
-9.20985
  0
LINE
  8
0
 10
-4.67538
 20
-9.20985
 11
-4.55028
 21
-8.91692
  0
LINE
  8
0
 10
-4.55028
 20
-8.91692
 11
-4.47093
 21
-8.57108
  0
LINE
  8
0
 10
-4.47093
 20
-8.57108
 11
-4.44447
 21
-8.18996
  0
LINE
  8
0
 10
-4.44447
 20
-8.18996
 11
-4.4967
 21
-7.7319
  0
LINE
  8
0
 10
-4.4967
 20
-7.7319
 11
-4.65335
 21
-7.32877
  0
LINE
  8
0
 10
-4.65335
 20
-7.32877
 11
-4.90833
 21
-6.99648
  0
LINE
  8
0
 10
-4.90833
 20
-6.99648
 11
-5.25552
 21
-6.75101
  0
LINE
  8
0
 10
-5.25552
 20
-6.75101
 11
-5.68205
 21
-6.59944
  0
LINE
  8
0
 10
-5.68205
 20
-6.59944
 11
-6.17503
 21
-6.54892
  0
LINE
  8
0
 10
-6.17503
 20
-6.54892
 11
-6.7935
 21
-6.62148
  0
LINE
  8
0
 10
-6.7935
 20
-6.62148
 11
-7.336
 21
-6.83916
  0
LINE
  8
0
 10
-7.336
 20
-6.83916
 11
-7.78629
 21
-7.19347
  0
LINE
  8
0
 10
-7.78629
 20
-7.19347
 11
-8.12808
 21
-7.67596
  0
LINE
  8
0
 10
-8.12808
 20
-7.67596
 11
-8.34372
 21
-8.25542
  0
LINE
  8
0
 10
-8.34372
 20
-8.25542
 11
-8.4156
 21
-8.90063
  0
LINE
  8
0
 10
-8.4156
 20
-8.90063
 11
-8.36237
 21
-9.39331
  0
LINE
  8
0
 10
-8.36237
 20
-9.39331
 11
-8.20268
 21
-9.82428
  0
LINE
  8
0
 10
-8.20268
 20
-9.82428
 11
-7.94226
 21
-10.1779
  0
LINE
  8
0
 10
-7.94226
 20
-10.1779
 11
-7.58691
 21
-10.4386
  0
LINE
  8
0
 10
-7.58691
 20
-10.4386
 11
-7.15054
 21
-10.5993
  0
LINE
  8
0
 10
-7.15054
 20
-10.5993
 11
-6.64703
 21
-10.6529
  0
LINE
  8
0
 10
-6.64703
 20
-10.6529
 11
-6.25101
 21
-10.6275
  0
LINE
  8
0
 10
-6.25101
 20
-10.6275
 11
-5.84956
 21
-10.5512
  0
LINE
  8
0
 10
-5.84956
 20
-10.5512
 11
-5.43794
 21
-10.4159
  0
LINE
  8
0
 10
-5.43794
 20
-10.4159
 11
-5.0114
 21
-10.2135
  0
LINE
  8
0
 10
-5.0114
 20
-10.2135
 11
-4.8622
 21
-10.5173
  0
LINE
  8
0
 10
-4.8622
 20
-10.5173
 11
-5.27213
 21
-10.7251
  0
LINE
  8
0
 10
-5.27213
 20
-10.7251
 11
-5.71527
 21
-10.8767
  0
LINE
  8
0
 10
-5.71527
 20
-10.8767
 11
-6.1781
 21
-10.9693
  0
LINE
  8
0
 10
-6.1781
 20
-10.9693
 11
-6.64703
 21
-11.0001
  0
LINE
  8
0
 10
-6.64703
 20
-11.0001
 11
-7.25974
 21
-10.9354
  0
LINE
  8
0
 10
-6.46869
 20
-9.52383
 11
-6.17236
 21
-9.31024
  0
LINE
  8
0
 10
-6.17236
 20
-9.31024
 11
-5.93365
 21
-8.99014
  0
LINE
  8
0
 10
-5.93365
 20
-8.99014
 11
-5.78175
 21
-8.59956
  0
LINE
  8
0
 10
-5.78175
 20
-8.59956
 11
-5.73495
 21
-8.37645
  0
LINE
  8
0
 10
-5.73495
 20
-8.37645
 11
-5.71936
 21
-8.20624
  0
LINE
  8
0
 10
-5.71936
 20
-8.20624
 11
-5.76411
 21
-7.95634
  0
LINE
  8
0
 10
-5.76411
 20
-7.95634
 11
-5.89839
 21
-7.76004
  0
LINE
  8
0
 10
-5.89839
 20
-7.76004
 11
-6.10725
 21
-7.6329
  0
LINE
  8
0
 10
-6.10725
 20
-7.6329
 11
-6.37579
 21
-7.59052
  0
LINE
  8
0
 10
-6.37579
 20
-7.59052
 11
-6.63449
 21
-7.63358
  0
LINE
  8
0
 10
-6.63449
 20
-7.63358
 11
-6.86267
 21
-7.76276
  0
LINE
  8
0
 10
-6.86267
 20
-7.76276
 11
-7.05289
 21
-7.96823
  0
LINE
  8
0
 10
-7.05289
 20
-7.96823
 11
-7.19768
 21
-8.24016
  0
LINE
  8
0
 10
-7.19768
 20
-8.24016
 11
-7.28922
 21
-8.55786
  0
LINE
  8
0
 10
-7.28922
 20
-8.55786
 11
-7.31972
 21
-8.90063
  0
LINE
  8
0
 10
-7.31972
 20
-8.90063
 11
-7.28751
 21
-9.19089
  0
LINE
  8
0
 10
-7.28751
 20
-9.19089
 11
-7.19087
 21
-9.4106
  0
LINE
  8
0
 10
-7.19087
 20
-9.4106
 11
-7.02711
 21
-9.54893
  0
LINE
  8
0
 10
-7.02711
 20
-9.54893
 11
-6.79352
 21
-9.59505
  0
LINE
  8
0
 10
-6.79352
 20
-9.59505
 11
-6.46869
 21
-9.52383
  0
LINE
  8
0
 10
8.70833
 20
-10.2325
 11
8.70833
 21
-6.20714
  0
LINE
  8
0
 10
8.70833
 20
-6.20714
 11
9.19658
 21
-6.20714
  0
LINE
  8
0
 10
9.19658
 20
-6.20714
 11
9.19658
 21
-10.2325
  0
LINE
  8
0
 10
9.19658
 20
-10.2325
 11
8.70833
 21
-10.2325
  0
LINE
  8
0
 10
9.91368
 20
-10.2325
 11
9.91368
 21
-6.20714
  0
LINE
  8
0
 10
9.91368
 20
-6.20714
 11
10.4019
 21
-6.20714
  0
LINE
  8
0
 10
10.4019
 20
-6.20714
 11
10.4019
 21
-10.2325
  0
LINE
  8
0
 10
10.4019
 20
-10.2325
 11
9.91368
 21
-10.2325
  0
LINE
  8
0
 10
18.8563
 20
-10.1097
 11
18.7098
 21
-9.61131
  0
LINE
  8
0
 10
18.7098
 20
-9.61131
 11
18.7098
 21
-7.65288
  0
LINE
  8
0
 10
18.7098
 20
-7.65288
 11
18.3708
 21
-7.65288
  0
LINE
  8
0
 10
18.3708
 20
-7.65288
 11
18.3708
 21
-7.29756
  0
LINE
  8
0
 10
18.3708
 20
-7.29756
 11
18.7288
 21
-7.29756
  0
LINE
  8
0
 10
18.7288
 20
-7.29756
 11
18.8726
 21
-6.64111
  0
LINE
  8
0
 10
18.8726
 20
-6.64111
 11
19.1981
 21
-6.64111
  0
LINE
  8
0
 10
19.1981
 20
-6.64111
 11
19.1981
 21
-7.29756
  0
LINE
  8
0
 10
19.1981
 20
-7.29756
 11
19.7406
 21
-7.29756
  0
LINE
  8
0
 10
19.7406
 20
-7.29756
 11
19.7406
 21
-7.65288
  0
LINE
  8
0
 10
19.7406
 20
-7.65288
 11
19.1981
 21
-7.65288
  0
LINE
  8
0
 10
19.1981
 20
-7.65288
 11
19.1981
 21
-9.50552
  0
LINE
  8
0
 10
19.1981
 20
-9.50552
 11
19.2154
 21
-9.68558
  0
LINE
  8
0
 10
19.2154
 20
-9.68558
 11
19.2672
 21
-9.80257
  0
LINE
  8
0
 10
19.2672
 20
-9.80257
 11
19.3618
 21
-9.86664
  0
LINE
  8
0
 10
19.3618
 20
-9.86664
 11
19.5073
 21
-9.888
  0
LINE
  8
0
 10
19.5073
 20
-9.888
 11
19.6266
 21
-9.87849
  0
LINE
  8
0
 10
19.6266
 20
-9.87849
 11
19.7894
 21
-9.85001
  0
LINE
  8
0
 10
19.7894
 20
-9.85001
 11
19.7894
 21
-10.2108
  0
LINE
  8
0
 10
19.7894
 20
-10.2108
 11
19.5453
 21
-10.2596
  0
LINE
  8
0
 10
19.5453
 20
-10.2596
 11
19.2957
 21
-10.2759
  0
LINE
  8
0
 10
19.2957
 20
-10.2759
 11
18.8563
 21
-10.1097
  0
LINE
  8
0
 10
4.379
 20
-10.1097
 11
4.23253
 21
-9.61131
  0
LINE
  8
0
 10
4.23253
 20
-9.61131
 11
4.23253
 21
-7.65288
  0
LINE
  8
0
 10
4.23253
 20
-7.65288
 11
3.89345
 21
-7.65288
  0
LINE
  8
0
 10
3.89345
 20
-7.65288
 11
3.89345
 21
-7.29756
  0
LINE
  8
0
 10
3.89345
 20
-7.29756
 11
4.25148
 21
-7.29756
  0
LINE
  8
0
 10
4.25148
 20
-7.29756
 11
4.39529
 21
-6.64111
  0
LINE
  8
0
 10
4.39529
 20
-6.64111
 11
4.72076
 21
-6.64111
  0
LINE
  8
0
 10
4.72076
 20
-6.64111
 11
4.72076
 21
-7.29756
  0
LINE
  8
0
 10
4.72076
 20
-7.29756
 11
5.26329
 21
-7.29756
  0
LINE
  8
0
 10
5.26329
 20
-7.29756
 11
5.26329
 21
-7.65288
  0
LINE
  8
0
 10
5.26329
 20
-7.65288
 11
4.72076
 21
-7.65288
  0
LINE
  8
0
 10
4.72076
 20
-7.65288
 11
4.72076
 21
-9.50552
  0
LINE
  8
0
 10
4.72076
 20
-9.50552
 11
4.73805
 21
-9.68558
  0
LINE
  8
0
 10
4.73805
 20
-9.68558
 11
4.78993
 21
-9.80257
  0
LINE
  8
0
 10
4.78993
 20
-9.80257
 11
4.88452
 21
-9.86664
  0
LINE
  8
0
 10
4.88452
 20
-9.86664
 11
5.03001
 21
-9.888
  0
LINE
  8
0
 10
5.03001
 20
-9.888
 11
5.14935
 21
-9.87849
  0
LINE
  8
0
 10
5.14935
 20
-9.87849
 11
5.31209
 21
-9.85001
  0
LINE
  8
0
 10
5.31209
 20
-9.85001
 11
5.31209
 21
-10.2108
  0
LINE
  8
0
 10
5.31209
 20
-10.2108
 11
5.06796
 21
-10.2596
  0
LINE
  8
0
 10
5.06796
 20
-10.2596
 11
4.81841
 21
-10.2759
  0
LINE
  8
0
 10
4.81841
 20
-10.2759
 11
4.379
 21
-10.1097
  0
LINE
  8
0
 10
-13.1898
 20
-10.1097
 11
-13.3362
 21
-9.61131
  0
LINE
  8
0
 10
-13.3362
 20
-9.61131
 11
-13.3362
 21
-7.65288
  0
LINE
  8
0
 10
-13.3362
 20
-7.65288
 11
-13.6753
 21
-7.65288
  0
LINE
  8
0
 10
-13.6753
 20
-7.65288
 11
-13.6753
 21
-7.29756
  0
LINE
  8
0
 10
-13.6753
 20
-7.29756
 11
-13.3173
 21
-7.29756
  0
LINE
  8
0
 10
-13.3173
 20
-7.29756
 11
-13.1735
 21
-6.64111
  0
LINE
  8
0
 10
-13.1735
 20
-6.64111
 11
-12.848
 21
-6.64111
  0
LINE
  8
0
 10
-12.848
 20
-6.64111
 11
-12.848
 21
-7.29756
  0
LINE
  8
0
 10
-12.848
 20
-7.29756
 11
-12.3055
 21
-7.29756
  0
LINE
  8
0
 10
-12.3055
 20
-7.29756
 11
-12.3055
 21
-7.65288
  0
LINE
  8
0
 10
-12.3055
 20
-7.65288
 11
-12.848
 21
-7.65288
  0
LINE
  8
0
 10
-12.848
 20
-7.65288
 11
-12.848
 21
-9.50552
  0
LINE
  8
0
 10
-12.848
 20
-9.50552
 11
-12.8307
 21
-9.68558
  0
LINE
  8
0
 10
-12.8307
 20
-9.68558
 11
-12.7788
 21
-9.80257
  0
LINE
  8
0
 10
-12.7788
 20
-9.80257
 11
-12.6842
 21
-9.86664
  0
LINE
  8
0
 10
-12.6842
 20
-9.86664
 11
-12.5388
 21
-9.888
  0
LINE
  8
0
 10
-12.5388
 20
-9.888
 11
-12.4194
 21
-9.87849
  0
LINE
  8
0
 10
-12.4194
 20
-9.87849
 11
-12.2567
 21
-9.85001
  0
LINE
  8
0
 10
-12.2567
 20
-9.85001
 11
-12.2567
 21
-10.2108
  0
LINE
  8
0
 10
-12.2567
 20
-10.2108
 11
-12.5008
 21
-10.2596
  0
LINE
  8
0
 10
-12.5008
 20
-10.2596
 11
-12.7504
 21
-10.2759
  0
LINE
  8
0
 10
-12.7504
 20
-10.2759
 11
-13.1898
 21
-10.1097
  0
LINE
  8
0
 10
12.6372
 20
-10.2325
 11
12.6372
 21
-7.92416
  0
LINE
  8
0
 10
12.6372
 20
-7.92416
 11
12.6332
 21
-7.51117
  0
LINE
  8
0
 10
12.6332
 20
-7.51117
 11
12.621
 21
-7.29756
  0
LINE
  8
0
 10
12.621
 20
-7.29756
 11
13.0821
 21
-7.29756
  0
LINE
  8
0
 10
13.0821
 20
-7.29756
 11
13.0848
 21
-7.32265
  0
LINE
  8
0
 10
13.0848
 20
-7.32265
 11
13.0875
 21
-7.3708
  0
LINE
  8
0
 10
13.0875
 20
-7.3708
 11
13.0906
 21
-7.43489
  0
LINE
  8
0
 10
13.0906
 20
-7.43489
 11
13.0943
 21
-7.5078
  0
LINE
  8
0
 10
13.0943
 20
-7.5078
 11
13.0987
 21
-7.61932
  0
LINE
  8
0
 10
13.0987
 20
-7.61932
 11
13.1038
 21
-7.79936
  0
LINE
  8
0
 10
13.1038
 20
-7.79936
 11
13.1119
 21
-7.79936
  0
LINE
  8
0
 10
13.1119
 20
-7.79936
 11
13.2933
 21
-7.53998
  0
LINE
  8
0
 10
13.2933
 20
-7.53998
 11
13.5011
 21
-7.36945
  0
LINE
  8
0
 10
13.5011
 20
-7.36945
 11
13.749
 21
-7.27486
  0
LINE
  8
0
 10
13.749
 20
-7.27486
 11
14.0505
 21
-7.24332
  0
LINE
  8
0
 10
14.0505
 20
-7.24332
 11
14.4685
 21
-7.30333
  0
LINE
  8
0
 10
14.4685
 20
-7.30333
 11
14.757
 21
-7.48335
  0
LINE
  8
0
 10
14.757
 20
-7.48335
 11
14.9249
 21
-7.80173
  0
LINE
  8
0
 10
14.9249
 20
-7.80173
 11
14.9808
 21
-8.27676
  0
LINE
  8
0
 10
14.9808
 20
-8.27676
 11
14.9808
 21
-10.2325
  0
LINE
  8
0
 10
14.9808
 20
-10.2325
 11
14.4899
 21
-10.2325
  0
LINE
  8
0
 10
14.4899
 20
-10.2325
 11
14.4899
 21
-8.37172
  0
LINE
  8
0
 10
14.4899
 20
-8.37172
 11
14.4756
 21
-8.11403
  0
LINE
  8
0
 10
14.4756
 20
-8.11403
 11
14.4329
 21
-7.92145
  0
LINE
  8
0
 10
14.4329
 20
-7.92145
 11
14.359
 21
-7.78378
  0
LINE
  8
0
 10
14.359
 20
-7.78378
 11
14.2511
 21
-7.69089
  0
LINE
  8
0
 10
14.2511
 20
-7.69089
 11
14.0972
 21
-7.63799
  0
LINE
  8
0
 10
14.0972
 20
-7.63799
 11
13.885
 21
-7.62036
  0
LINE
  8
0
 10
13.885
 20
-7.62036
 11
13.5697
 21
-7.68071
  0
LINE
  8
0
 10
13.5697
 20
-7.68071
 11
13.3289
 21
-7.86176
  0
LINE
  8
0
 10
13.3289
 20
-7.86176
 11
13.1764
 21
-8.14996
  0
LINE
  8
0
 10
13.1764
 20
-8.14996
 11
13.1255
 21
-8.53175
  0
LINE
  8
0
 10
13.1255
 20
-8.53175
 11
13.1255
 21
-10.2325
  0
LINE
  8
0
 10
13.1255
 20
-10.2325
 11
12.6372
 21
-10.2325
  0
LINE
  8
0
 10
-11.2576
 20
-10.1897
 11
-11.6757
 21
-9.89883
  0
LINE
  8
0
 10
-11.6757
 20
-9.89883
 11
-11.931
 21
-9.4167
  0
LINE
  8
0
 10
-11.931
 20
-9.4167
 11
-12.0161
 21
-8.74603
  0
LINE
  8
0
 10
-12.0161
 20
-8.74603
 11
-11.931
 21
-8.10385
  0
LINE
  8
0
 10
-11.931
 20
-8.10385
 11
-11.6757
 21
-7.6312
  0
LINE
  8
0
 10
-11.6757
 20
-7.6312
 11
-11.2623
 21
-7.34029
  0
LINE
  8
0
 10
-11.2623
 20
-7.34029
 11
-10.7032
 21
-7.24332
  0
LINE
  8
0
 10
-10.7032
 20
-7.24332
 11
-9.73282
 21
-7.63324
  0
LINE
  8
0
 10
-9.73282
 20
-7.63324
 11
-9.40935
 21
-8.80299
  0
LINE
  8
0
 10
-9.40935
 20
-8.80299
 11
-9.40935
 21
-8.86809
  0
LINE
  8
0
 10
-9.40935
 20
-8.86809
 11
-11.5034
 21
-8.86809
  0
LINE
  8
0
 10
-11.5034
 20
-8.86809
 11
-11.4512
 21
-9.31497
  0
LINE
  8
0
 10
-11.4512
 20
-9.31497
 11
-11.2946
 21
-9.64661
  0
LINE
  8
0
 10
-11.2946
 20
-9.64661
 11
-11.0376
 21
-9.85207
  0
LINE
  8
0
 10
-11.0376
 20
-9.85207
 11
-10.6842
 21
-9.92056
  0
LINE
  8
0
 10
-10.6842
 20
-9.92056
 11
-10.3984
 21
-9.88869
  0
LINE
  8
0
 10
-10.3984
 20
-9.88869
 11
-10.1757
 21
-9.79308
  0
LINE
  8
0
 10
-10.1757
 20
-9.79308
 11
-10.0153
 21
-9.64862
  0
LINE
  8
0
 10
-10.0153
 20
-9.64862
 11
-9.91658
 21
-9.47028
  0
LINE
  8
0
 10
-9.91658
 20
-9.47028
 11
-9.48802
 21
-9.59232
  0
LINE
  8
0
 10
-9.48802
 20
-9.59232
 11
-9.91864
 21
-10.1131
  0
LINE
  8
0
 10
-9.91864
 20
-10.1131
 11
-10.6842
 21
-10.2867
  0
LINE
  8
0
 10
-10.6842
 20
-10.2867
 11
-11.2576
 21
-10.1897
  0
LINE
  8
0
 10
-9.99324
 20
-8.09265
 11
-10.1499
 21
-7.817
  0
LINE
  8
0
 10
-10.1499
 20
-7.817
 11
-10.3879
 21
-7.6573
  0
LINE
  8
0
 10
-10.3879
 20
-7.6573
 11
-10.7113
 21
-7.60408
  0
LINE
  8
0
 10
-10.7113
 20
-7.60408
 11
-11.0297
 21
-7.66342
  0
LINE
  8
0
 10
-11.0297
 20
-7.66342
 11
-11.2742
 21
-7.84145
  0
LINE
  8
0
 10
-11.2742
 20
-7.84145
 11
-11.4339
 21
-8.12318
  0
LINE
  8
0
 10
-11.4339
 20
-8.12318
 11
-11.498
 21
-8.49376
  0
LINE
  8
0
 10
-11.498
 20
-8.49376
 11
-9.91391
 21
-8.49376
  0
LINE
  8
0
 10
-9.91391
 20
-8.49376
 11
-9.99324
 21
-8.09265
  0
LINE
  8
0
 10
-0.926132
 20
-10.1897
 11
-1.34422
 21
-9.89883
  0
LINE
  8
0
 10
-1.34422
 20
-9.89883
 11
-1.59952
 21
-9.4167
  0
LINE
  8
0
 10
-1.59952
 20
-9.4167
 11
-1.68462
 21
-8.74603
  0
LINE
  8
0
 10
-1.68462
 20
-8.74603
 11
-1.59952
 21
-8.10385
  0
LINE
  8
0
 10
-1.59952
 20
-8.10385
 11
-1.34422
 21
-7.6312
  0
LINE
  8
0
 10
-1.34422
 20
-7.6312
 11
-0.930893
 21
-7.34029
  0
LINE
  8
0
 10
-0.930893
 20
-7.34029
 11
-0.37178
 21
-7.24332
  0
LINE
  8
0
 10
-0.37178
 20
-7.24332
 11
0.598618
 21
-7.63324
  0
LINE
  8
0
 10
0.598618
 20
-7.63324
 11
0.922089
 21
-8.80299
  0
LINE
  8
0
 10
0.922089
 20
-8.80299
 11
0.922089
 21
-8.86809
  0
LINE
  8
0
 10
0.922089
 20
-8.86809
 11
-1.17198
 21
-8.86809
  0
LINE
  8
0
 10
-1.17198
 20
-8.86809
 11
-1.11977
 21
-9.31497
  0
LINE
  8
0
 10
-1.11977
 20
-9.31497
 11
-0.963135
 21
-9.64661
  0
LINE
  8
0
 10
-0.963135
 20
-9.64661
 11
-0.7061
 21
-9.85207
  0
LINE
  8
0
 10
-0.7061
 20
-9.85207
 11
-0.352783
 21
-9.92056
  0
LINE
  8
0
 10
-0.352783
 20
-9.92056
 11
-0.0669556
 21
-9.88869
  0
LINE
  8
0
 10
-0.0669556
 20
-9.88869
 11
0.155762
 21
-9.79308
  0
LINE
  8
0
 10
0.155762
 20
-9.79308
 11
0.316162
 21
-9.64862
  0
LINE
  8
0
 10
0.316162
 20
-9.64862
 11
0.414841
 21
-9.47028
  0
LINE
  8
0
 10
0.414841
 20
-9.47028
 11
0.843414
 21
-9.59232
  0
LINE
  8
0
 10
0.843414
 20
-9.59232
 11
0.412796
 21
-10.1131
  0
LINE
  8
0
 10
0.412796
 20
-10.1131
 11
-0.352783
 21
-10.2867
  0
LINE
  8
0
 10
-0.352783
 20
-10.2867
 11
-0.926132
 21
-10.1897
  0
LINE
  8
0
 10
0.338181
 20
-8.09265
 11
0.181534
 21
-7.817
  0
LINE
  8
0
 10
0.181534
 20
-7.817
 11
-0.0564575
 21
-7.6573
  0
LINE
  8
0
 10
-0.0564575
 20
-7.6573
 11
-0.379898
 21
-7.60408
  0
LINE
  8
0
 10
-0.379898
 20
-7.60408
 11
-0.698303
 21
-7.66342
  0
LINE
  8
0
 10
-0.698303
 20
-7.66342
 11
-0.94278
 21
-7.84145
  0
LINE
  8
0
 10
-0.94278
 20
-7.84145
 11
-1.10246
 21
-8.12318
  0
LINE
  8
0
 10
-1.10246
 20
-8.12318
 11
-1.16653
 21
-8.49376
  0
LINE
  8
0
 10
-1.16653
 20
-8.49376
 11
0.417526
 21
-8.49376
  0
LINE
  8
0
 10
0.417526
 20
-8.49376
 11
0.338181
 21
-8.09265
  0
LINE
  8
0
 10
-3.34213
 20
-10.2325
 11
-3.34213
 21
-7.98112
  0
LINE
  8
0
 10
-3.34213
 20
-7.98112
 11
-3.34619
 21
-7.65561
  0
LINE
  8
0
 10
-3.34619
 20
-7.65561
 11
-3.35838
 21
-7.29756
  0
LINE
  8
0
 10
-3.35838
 20
-7.29756
 11
-2.89726
 21
-7.29756
  0
LINE
  8
0
 10
-2.89726
 20
-7.29756
 11
-2.881
 21
-7.69696
  0
LINE
  8
0
 10
-2.881
 20
-7.69696
 11
-2.87558
 21
-7.897
  0
LINE
  8
0
 10
-2.87558
 20
-7.897
 11
-2.86473
 21
-7.897
  0
LINE
  8
0
 10
-2.86473
 20
-7.897
 11
-2.73929
 21
-7.57964
  0
LINE
  8
0
 10
-2.73929
 20
-7.57964
 11
-2.59622
 21
-7.38164
  0
LINE
  8
0
 10
-2.59622
 20
-7.38164
 11
-2.4131
 21
-7.27789
  0
LINE
  8
0
 10
-2.4131
 20
-7.27789
 11
-2.16762
 21
-7.24332
  0
LINE
  8
0
 10
-2.16762
 20
-7.24332
 11
-2.06929
 21
-7.25011
  0
LINE
  8
0
 10
-2.06929
 20
-7.25011
 11
-1.96957
 21
-7.27045
  0
LINE
  8
0
 10
-1.96957
 20
-7.27045
 11
-1.96957
 21
-7.718
  0
LINE
  8
0
 10
-1.96957
 20
-7.718
 11
-2.08351
 21
-7.69766
  0
LINE
  8
0
 10
-2.08351
 20
-7.69766
 11
-2.22998
 21
-7.69089
  0
LINE
  8
0
 10
-2.22998
 20
-7.69089
 11
-2.49783
 21
-7.75632
  0
LINE
  8
0
 10
-2.49783
 20
-7.75632
 11
-2.69382
 21
-7.95264
  0
LINE
  8
0
 10
-2.69382
 20
-7.95264
 11
-2.81384
 21
-8.271
  0
LINE
  8
0
 10
-2.81384
 20
-8.271
 11
-2.85385
 21
-8.70264
  0
LINE
  8
0
 10
-2.85385
 20
-8.70264
 11
-2.85385
 21
-10.2325
  0
LINE
  8
0
 10
-2.85385
 20
-10.2325
 11
-3.34213
 21
-10.2325
  0
LINE
  8
0
 10
16.2639
 20
-10.1897
 11
15.8458
 21
-9.89883
  0
LINE
  8
0
 10
15.8458
 20
-9.89883
 11
15.5905
 21
-9.4167
  0
LINE
  8
0
 10
15.5905
 20
-9.4167
 11
15.5054
 21
-8.74603
  0
LINE
  8
0
 10
15.5054
 20
-8.74603
 11
15.5905
 21
-8.10385
  0
LINE
  8
0
 10
15.5905
 20
-8.10385
 11
15.8458
 21
-7.6312
  0
LINE
  8
0
 10
15.8458
 20
-7.6312
 11
16.2591
 21
-7.34029
  0
LINE
  8
0
 10
16.2591
 20
-7.34029
 11
16.8182
 21
-7.24332
  0
LINE
  8
0
 10
16.8182
 20
-7.24332
 11
17.7886
 21
-7.63324
  0
LINE
  8
0
 10
17.7886
 20
-7.63324
 11
18.1121
 21
-8.80299
  0
LINE
  8
0
 10
18.1121
 20
-8.80299
 11
18.1121
 21
-8.86809
  0
LINE
  8
0
 10
18.1121
 20
-8.86809
 11
16.018
 21
-8.86809
  0
LINE
  8
0
 10
16.018
 20
-8.86809
 11
16.0702
 21
-9.31497
  0
LINE
  8
0
 10
16.0702
 20
-9.31497
 11
16.2269
 21
-9.64661
  0
LINE
  8
0
 10
16.2269
 20
-9.64661
 11
16.4839
 21
-9.85207
  0
LINE
  8
0
 10
16.4839
 20
-9.85207
 11
16.8372
 21
-9.92056
  0
LINE
  8
0
 10
16.8372
 20
-9.92056
 11
17.123
 21
-9.88869
  0
LINE
  8
0
 10
17.123
 20
-9.88869
 11
17.3458
 21
-9.79308
  0
LINE
  8
0
 10
17.3458
 20
-9.79308
 11
17.5062
 21
-9.64862
  0
LINE
  8
0
 10
17.5062
 20
-9.64862
 11
17.6048
 21
-9.47028
  0
LINE
  8
0
 10
17.6048
 20
-9.47028
 11
18.0334
 21
-9.59232
  0
LINE
  8
0
 10
18.0334
 20
-9.59232
 11
17.6028
 21
-10.1131
  0
LINE
  8
0
 10
17.6028
 20
-10.1131
 11
16.8372
 21
-10.2867
  0
LINE
  8
0
 10
16.8372
 20
-10.2867
 11
16.2639
 21
-10.1897
  0
LINE
  8
0
 10
17.5282
 20
-8.09265
 11
17.3715
 21
-7.817
  0
LINE
  8
0
 10
17.3715
 20
-7.817
 11
17.1335
 21
-7.6573
  0
LINE
  8
0
 10
17.1335
 20
-7.6573
 11
16.8101
 21
-7.60408
  0
LINE
  8
0
 10
16.8101
 20
-7.60408
 11
16.4917
 21
-7.66342
  0
LINE
  8
0
 10
16.4917
 20
-7.66342
 11
16.2472
 21
-7.84145
  0
LINE
  8
0
 10
16.2472
 20
-7.84145
 11
16.0875
 21
-8.12318
  0
LINE
  8
0
 10
16.0875
 20
-8.12318
 11
16.0235
 21
-8.49376
  0
LINE
  8
0
 10
16.0235
 20
-8.49376
 11
17.6075
 21
-8.49376
  0
LINE
  8
0
 10
17.6075
 20
-8.49376
 11
17.5282
 21
-8.09265
  0
LINE
  8
0
 10
6.05247
 20
-10.2284
 11
5.77512
 21
-10.0534
  0
LINE
  8
0
 10
5.77512
 20
-10.0534
 11
5.60831
 21
-9.77676
  0
LINE
  8
0
 10
5.60831
 20
-9.77676
 11
5.5527
 21
-9.41331
  0
LINE
  8
0
 10
5.5527
 20
-9.41331
 11
5.62764
 21
-9.0105
  0
LINE
  8
0
 10
5.62764
 20
-9.0105
 11
5.85243
 21
-8.71349
  0
LINE
  8
0
 10
5.85243
 20
-8.71349
 11
6.24403
 21
-8.52632
  0
LINE
  8
0
 10
6.24403
 20
-8.52632
 11
6.81943
 21
-8.45308
  0
LINE
  8
0
 10
6.81943
 20
-8.45308
 11
7.47859
 21
-8.44225
  0
LINE
  8
0
 10
7.47859
 20
-8.44225
 11
7.47859
 21
-8.2822
  0
LINE
  8
0
 10
7.47859
 20
-8.2822
 11
7.44061
 21
-7.97502
  0
LINE
  8
0
 10
7.44061
 20
-7.97502
 11
7.32668
 21
-7.76956
  0
LINE
  8
0
 10
7.32668
 20
-7.76956
 11
7.13138
 21
-7.65358
  0
LINE
  8
0
 10
7.13138
 20
-7.65358
 11
6.84927
 21
-7.61491
  0
LINE
  8
0
 10
6.84927
 20
-7.61491
 11
6.56583
 21
-7.64273
  0
LINE
  8
0
 10
6.56583
 20
-7.64273
 11
6.37187
 21
-7.72617
  0
LINE
  8
0
 10
6.37187
 20
-7.72617
 11
6.25252
 21
-7.87059
  0
LINE
  8
0
 10
6.25252
 20
-7.87059
 11
6.19283
 21
-8.08148
  0
LINE
  8
0
 10
6.19283
 20
-8.08148
 11
5.68291
 21
-8.03535
  0
LINE
  8
0
 10
5.68291
 20
-8.03535
 11
6.0396
 21
-7.44133
  0
LINE
  8
0
 10
6.0396
 20
-7.44133
 11
6.86011
 21
-7.24332
  0
LINE
  8
0
 10
6.86011
 20
-7.24332
 11
7.34497
 21
-7.30673
  0
LINE
  8
0
 10
7.34497
 20
-7.30673
 11
7.69283
 21
-7.49696
  0
LINE
  8
0
 10
7.69283
 20
-7.49696
 11
7.90237
 21
-7.80717
  0
LINE
  8
0
 10
7.90237
 20
-7.80717
 11
7.97223
 21
-8.23064
  0
LINE
  8
0
 10
7.97223
 20
-8.23064
 11
7.97223
 21
-9.49467
  0
LINE
  8
0
 10
7.97223
 20
-9.49467
 11
7.98647
 21
-9.68491
  0
LINE
  8
0
 10
7.98647
 20
-9.68491
 11
8.02919
 21
-9.82156
  0
LINE
  8
0
 10
8.02919
 20
-9.82156
 11
8.11195
 21
-9.90395
  0
LINE
  8
0
 10
8.11195
 20
-9.90395
 11
8.24623
 21
-9.9314
  0
LINE
  8
0
 10
8.24623
 20
-9.9314
 11
8.32149
 21
-9.92665
  0
LINE
  8
0
 10
8.32149
 20
-9.92665
 11
8.40623
 21
-9.9124
  0
LINE
  8
0
 10
8.40623
 20
-9.9124
 11
8.40623
 21
-10.2162
  0
LINE
  8
0
 10
8.40623
 20
-10.2162
 11
8.21976
 21
-10.2487
  0
LINE
  8
0
 10
8.21976
 20
-10.2487
 11
8.02924
 21
-10.2596
  0
LINE
  8
0
 10
8.02924
 20
-10.2596
 11
7.79491
 21
-10.224
  0
LINE
  8
0
 10
7.79491
 20
-10.224
 11
7.63451
 21
-10.1172
  0
LINE
  8
0
 10
7.63451
 20
-10.1172
 11
7.53789
 21
-9.93445
  0
LINE
  8
0
 10
7.53789
 20
-9.93445
 11
7.49483
 21
-9.67101
  0
LINE
  8
0
 10
7.49483
 20
-9.67101
 11
7.47859
 21
-9.67101
  0
LINE
  8
0
 10
7.47859
 20
-9.67101
 11
7.27617
 21
-9.95819
  0
LINE
  8
0
 10
7.27617
 20
-9.95819
 11
7.04323
 21
-10.147
  0
LINE
  8
0
 10
7.04323
 20
-10.147
 11
6.76823
 21
-10.2518
  0
LINE
  8
0
 10
6.76823
 20
-10.2518
 11
6.43967
 21
-10.2867
  0
LINE
  8
0
 10
6.43967
 20
-10.2867
 11
6.05247
 21
-10.2284
  0
LINE
  8
0
 10
6.8045
 20
-9.89005
 11
7.02827
 21
-9.79848
  0
LINE
  8
0
 10
7.02827
 20
-9.79848
 11
7.21512
 21
-9.65369
  0
LINE
  8
0
 10
7.21512
 20
-9.65369
 11
7.35786
 21
-9.46349
  0
LINE
  8
0
 10
7.35786
 20
-9.46349
 11
7.44841
 21
-9.2475
  0
LINE
  8
0
 10
7.44841
 20
-9.2475
 11
7.47859
 21
-9.02541
  0
LINE
  8
0
 10
7.47859
 20
-9.02541
 11
7.47859
 21
-8.784
  0
LINE
  8
0
 10
7.47859
 20
-8.784
 11
6.94423
 21
-8.79485
  0
LINE
  8
0
 10
6.94423
 20
-8.79485
 11
6.64142
 21
-8.8152
  0
LINE
  8
0
 10
6.64142
 20
-8.8152
 11
6.42203
 21
-8.8654
  0
LINE
  8
0
 10
6.42203
 20
-8.8654
 11
6.26506
 21
-8.94812
  0
LINE
  8
0
 10
6.26506
 20
-8.94812
 11
6.14943
 21
-9.06612
  0
LINE
  8
0
 10
6.14943
 20
-9.06612
 11
6.07825
 21
-9.22275
  0
LINE
  8
0
 10
6.07825
 20
-9.22275
 11
6.0545
 21
-9.42145
  0
LINE
  8
0
 10
6.0545
 20
-9.42145
 11
6.08672
 21
-9.63303
  0
LINE
  8
0
 10
6.08672
 20
-9.63303
 11
6.18335
 21
-9.79036
  0
LINE
  8
0
 10
6.18335
 20
-9.79036
 11
6.33966
 21
-9.88802
  0
LINE
  8
0
 10
6.33966
 20
-9.88802
 11
6.55092
 21
-9.92056
  0
LINE
  8
0
 10
6.55092
 20
-9.92056
 11
6.8045
 21
-9.89005
  0
LINE
  8
0
 10
-15.7822
 20
-10.1897
 11
-16.2003
 21
-9.89883
  0
LINE
  8
0
 10
-16.2003
 20
-9.89883
 11
-16.4556
 21
-9.4167
  0
LINE
  8
0
 10
-16.4556
 20
-9.4167
 11
-16.5407
 21
-8.74603
  0
LINE
  8
0
 10
-16.5407
 20
-8.74603
 11
-16.4556
 21
-8.10385
  0
LINE
  8
0
 10
-16.4556
 20
-8.10385
 11
-16.2003
 21
-7.6312
  0
LINE
  8
0
 10
-16.2003
 20
-7.6312
 11
-15.787
 21
-7.34029
  0
LINE
  8
0
 10
-15.787
 20
-7.34029
 11
-15.2279
 21
-7.24332
  0
LINE
  8
0
 10
-15.2279
 20
-7.24332
 11
-14.2575
 21
-7.63324
  0
LINE
  8
0
 10
-14.2575
 20
-7.63324
 11
-13.934
 21
-8.80299
  0
LINE
  8
0
 10
-13.934
 20
-8.80299
 11
-13.934
 21
-8.86809
  0
LINE
  8
0
 10
-13.934
 20
-8.86809
 11
-16.0281
 21
-8.86809
  0
LINE
  8
0
 10
-16.0281
 20
-8.86809
 11
-15.9759
 21
-9.31497
  0
LINE
  8
0
 10
-15.9759
 20
-9.31497
 11
-15.8192
 21
-9.64661
  0
LINE
  8
0
 10
-15.8192
 20
-9.64661
 11
-15.5622
 21
-9.85207
  0
LINE
  8
0
 10
-15.5622
 20
-9.85207
 11
-15.2089
 21
-9.92056
  0
LINE
  8
0
 10
-15.2089
 20
-9.92056
 11
-14.923
 21
-9.88869
  0
LINE
  8
0
 10
-14.923
 20
-9.88869
 11
-14.7003
 21
-9.79308
  0
LINE
  8
0
 10
-14.7003
 20
-9.79308
 11
-14.5399
 21
-9.64862
  0
LINE
  8
0
 10
-14.5399
 20
-9.64862
 11
-14.4412
 21
-9.47028
  0
LINE
  8
0
 10
-14.4412
 20
-9.47028
 11
-14.0127
 21
-9.59232
  0
LINE
  8
0
 10
-14.0127
 20
-9.59232
 11
-14.4433
 21
-10.1131
  0
LINE
  8
0
 10
-14.4433
 20
-10.1131
 11
-15.2089
 21
-10.2867
  0
LINE
  8
0
 10
-15.2089
 20
-10.2867
 11
-15.7822
 21
-10.1897
  0
LINE
  8
0
 10
-14.5179
 20
-8.09265
 11
-14.6745
 21
-7.817
  0
LINE
  8
0
 10
-14.6745
 20
-7.817
 11
-14.9126
 21
-7.6573
  0
LINE
  8
0
 10
-14.9126
 20
-7.6573
 11
-15.236
 21
-7.60408
  0
LINE
  8
0
 10
-15.236
 20
-7.60408
 11
-15.5544
 21
-7.66342
  0
LINE
  8
0
 10
-15.5544
 20
-7.66342
 11
-15.7989
 21
-7.84145
  0
LINE
  8
0
 10
-15.7989
 20
-7.84145
 11
-15.9586
 21
-8.12318
  0
LINE
  8
0
 10
-15.9586
 20
-8.12318
 11
-16.0226
 21
-8.49376
  0
LINE
  8
0
 10
-16.0226
 20
-8.49376
 11
-14.4386
 21
-8.49376
  0
LINE
  8
0
 10
-14.4386
 20
-8.49376
 11
-14.5179
 21
-8.09265
  0
LINE
  8
0
 10
-19.4197
 20
-11.3853
 11
-19.4197
 21
-7.897
  0
LINE
  8
0
 10
-19.4197
 20
-7.897
 11
-19.4238
 21
-7.52066
  0
LINE
  8
0
 10
-19.4238
 20
-7.52066
 11
-19.436
 21
-7.29756
  0
LINE
  8
0
 10
-19.436
 20
-7.29756
 11
-18.964
 21
-7.29756
  0
LINE
  8
0
 10
-18.964
 20
-7.29756
 11
-18.9606
 21
-7.32231
  0
LINE
  8
0
 10
-18.9606
 20
-7.32231
 11
-18.9559
 21
-7.37488
  0
LINE
  8
0
 10
-18.9559
 20
-7.37488
 11
-18.9501
 21
-7.4593
  0
LINE
  8
0
 10
-18.9501
 20
-7.4593
 11
-18.9436
 21
-7.57968
  0
LINE
  8
0
 10
-18.9436
 20
-7.57968
 11
-18.9386
 21
-7.6963
  0
LINE
  8
0
 10
-18.9386
 20
-7.6963
 11
-18.9369
 21
-7.76952
  0
LINE
  8
0
 10
-18.9369
 20
-7.76952
 11
-18.926
 21
-7.76952
  0
LINE
  8
0
 10
-18.926
 20
-7.76952
 11
-18.7748
 21
-7.53456
  0
LINE
  8
0
 10
-18.7748
 20
-7.53456
 11
-18.5815
 21
-7.37216
  0
LINE
  8
0
 10
-18.5815
 20
-7.37216
 11
-18.3333
 21
-7.27754
  0
LINE
  8
0
 10
-18.3333
 20
-7.27754
 11
-18.0173
 21
-7.246
  0
LINE
  8
0
 10
-18.0173
 20
-7.246
 11
-17.5433
 21
-7.33687
  0
LINE
  8
0
 10
-17.5433
 20
-7.33687
 11
-17.2063
 21
-7.60948
  0
LINE
  8
0
 10
-17.2063
 20
-7.60948
 11
-17.0049
 21
-8.07671
  0
LINE
  8
0
 10
-17.0049
 20
-8.07671
 11
-16.9377
 21
-8.75143
  0
LINE
  8
0
 10
-16.9377
 20
-8.75143
 11
-17.2076
 21
-9.90289
  0
LINE
  8
0
 10
-17.2076
 20
-9.90289
 11
-18.0173
 21
-10.2867
  0
LINE
  8
0
 10
-18.0173
 20
-10.2867
 11
-18.5842
 21
-10.1592
  0
LINE
  8
0
 10
-18.5842
 20
-10.1592
 11
-18.9287
 21
-9.77676
  0
LINE
  8
0
 10
-18.9287
 20
-9.77676
 11
-18.9423
 21
-9.77676
  0
LINE
  8
0
 10
-18.9423
 20
-9.77676
 11
-18.9342
 21
-9.90291
  0
LINE
  8
0
 10
-18.9342
 20
-9.90291
 11
-18.9315
 21
-10.2379
  0
LINE
  8
0
 10
-18.9315
 20
-10.2379
 11
-18.9315
 21
-11.3853
  0
LINE
  8
0
 10
-18.9315
 20
-11.3853
 11
-19.4197
 21
-11.3853
  0
LINE
  8
0
 10
-17.8332
 20
-9.85918
 11
-17.6172
 21
-9.6588
  0
LINE
  8
0
 10
-17.6172
 20
-9.6588
 11
-17.4921
 21
-9.30109
  0
LINE
  8
0
 10
-17.4921
 20
-9.30109
 11
-17.4504
 21
-8.76231
  0
LINE
  8
0
 10
-17.4504
 20
-8.76231
 11
-17.4918
 21
-8.23676
  0
LINE
  8
0
 10
-17.4918
 20
-8.23676
 11
-17.6159
 21
-7.88615
  0
LINE
  8
0
 10
-17.6159
 20
-7.88615
 11
-17.8302
 21
-7.68883
  0
LINE
  8
0
 10
-17.8302
 20
-7.68883
 11
-18.1421
 21
-7.62305
  0
LINE
  8
0
 10
-18.1421
 20
-7.62305
 11
-18.4008
 21
-7.65356
  0
LINE
  8
0
 10
-18.4008
 20
-7.65356
 11
-18.5965
 21
-7.74512
  0
LINE
  8
0
 10
-18.5965
 20
-7.74512
 11
-18.7409
 21
-7.90141
  0
LINE
  8
0
 10
-18.7409
 20
-7.90141
 11
-18.846
 21
-8.12624
  0
LINE
  8
0
 10
-18.846
 20
-8.12624
 11
-18.9101
 21
-8.42427
  0
LINE
  8
0
 10
-18.9101
 20
-8.42427
 11
-18.9315
 21
-8.80028
  0
LINE
  8
0
 10
-18.9315
 20
-8.80028
 11
-18.8853
 21
-9.30209
  0
LINE
  8
0
 10
-18.8853
 20
-9.30209
 11
-18.747
 21
-9.65199
  0
LINE
  8
0
 10
-18.747
 20
-9.65199
 11
-18.5049
 21
-9.85747
  0
LINE
  8
0
 10
-18.5049
 20
-9.85747
 11
-18.1475
 21
-9.92596
  0
LINE
  8
0
 10
-18.1475
 20
-9.92596
 11
-17.8332
 21
-9.85918
  0
LINE
  8
0
 10
1.99756
 20
-10.2416
 11
1.63779
 21
-10.1064
  0
LINE
  8
0
 10
1.63779
 20
-10.1064
 11
1.39267
 21
-9.87546
  0
LINE
  8
0
 10
1.39267
 20
-9.87546
 11
1.25127
 21
-9.54352
  0
LINE
  8
0
 10
1.25127
 20
-9.54352
 11
1.68259
 21
-9.4594
  0
LINE
  8
0
 10
1.68259
 20
-9.4594
 11
1.77818
 21
-9.66386
  0
LINE
  8
0
 10
1.77818
 20
-9.66386
 11
1.94023
 21
-9.80528
  0
LINE
  8
0
 10
1.94023
 20
-9.80528
 11
2.17352
 21
-9.88766
  0
LINE
  8
0
 10
2.17352
 20
-9.88766
 11
2.48276
 21
-9.91512
  0
LINE
  8
0
 10
2.48276
 20
-9.91512
 11
2.80453
 21
-9.88664
  0
LINE
  8
0
 10
2.80453
 20
-9.88664
 11
3.02663
 21
-9.80119
  0
LINE
  8
0
 10
3.02663
 20
-9.80119
 11
3.15581
 21
-9.65878
  0
LINE
  8
0
 10
3.15581
 20
-9.65878
 11
3.19887
 21
-9.4594
  0
LINE
  8
0
 10
3.19887
 20
-9.4594
 11
3.16904
 21
-9.30208
  0
LINE
  8
0
 10
3.16904
 20
-9.30208
 11
3.07951
 21
-9.17732
  0
LINE
  8
0
 10
3.07951
 20
-9.17732
 11
2.92354
 21
-9.07829
  0
LINE
  8
0
 10
2.92354
 20
-9.07829
 11
2.69435
 21
-8.99828
  0
LINE
  8
0
 10
2.69435
 20
-8.99828
 11
2.34444
 21
-8.90608
  0
LINE
  8
0
 10
2.34444
 20
-8.90608
 11
1.98468
 21
-8.79858
  0
LINE
  8
0
 10
1.98468
 20
-8.79858
 11
1.74631
 21
-8.69316
  0
LINE
  8
0
 10
1.74631
 20
-8.69316
 11
1.58797
 21
-8.57753
  0
LINE
  8
0
 10
1.58797
 20
-8.57753
 11
1.46828
 21
-8.43951
  0
LINE
  8
0
 10
1.46828
 20
-8.43951
 11
1.39301
 21
-8.27338
  0
LINE
  8
0
 10
1.39301
 20
-8.27338
 11
1.3679
 21
-8.07332
  0
LINE
  8
0
 10
1.3679
 20
-8.07332
 11
1.43945
 21
-7.7197
  0
LINE
  8
0
 10
1.43945
 20
-7.7197
 11
1.65407
 21
-7.46169
  0
LINE
  8
0
 10
1.65407
 20
-7.46169
 11
2.00571
 21
-7.304
  0
LINE
  8
0
 10
2.00571
 20
-7.304
 11
2.48819
 21
-7.25143
  0
LINE
  8
0
 10
2.48819
 20
-7.25143
 11
2.92387
 21
-7.29416
  0
LINE
  8
0
 10
2.92387
 20
-7.29416
 11
3.25987
 21
-7.42232
  0
LINE
  8
0
 10
3.25987
 20
-7.42232
 11
3.4935
 21
-7.64474
  0
LINE
  8
0
 10
3.4935
 20
-7.64474
 11
3.62199
 21
-7.97025
  0
LINE
  8
0
 10
3.62199
 20
-7.97025
 11
3.18259
 21
-8.02452
  0
LINE
  8
0
 10
3.18259
 20
-8.02452
 11
3.10767
 21
-7.85193
  0
LINE
  8
0
 10
3.10767
 20
-7.85193
 11
2.96423
 21
-7.72481
  0
LINE
  8
0
 10
2.96423
 20
-7.72481
 11
2.75638
 21
-7.64647
  0
LINE
  8
0
 10
2.75638
 20
-7.64647
 11
2.48819
 21
-7.62036
  0
LINE
  8
0
 10
2.48819
 20
-7.62036
 11
2.20067
 21
-7.64545
  0
LINE
  8
0
 10
2.20067
 20
-7.64545
 11
1.99991
 21
-7.72072
  0
LINE
  8
0
 10
1.99991
 20
-7.72072
 11
1.88193
 21
-7.84685
  0
LINE
  8
0
 10
1.88193
 20
-7.84685
 11
1.84259
 21
-8.02452
  0
LINE
  8
0
 10
1.84259
 20
-8.02452
 11
1.85886
 21
-8.13844
  0
LINE
  8
0
 10
1.85886
 20
-8.13844
 11
1.90767
 21
-8.23068
  0
LINE
  8
0
 10
1.90767
 20
-8.23068
 11
1.98839
 21
-8.30594
  0
LINE
  8
0
 10
1.98839
 20
-8.30594
 11
2.10027
 21
-8.369
  0
LINE
  8
0
 10
2.10027
 20
-8.369
 11
2.29831
 21
-8.43681
  0
LINE
  8
0
 10
2.29831
 20
-8.43681
 11
2.63739
 21
-8.52632
  0
LINE
  8
0
 10
2.63739
 20
-8.52632
 11
2.97102
 21
-8.62024
  0
LINE
  8
0
 10
2.97102
 20
-8.62024
 11
3.19615
 21
-8.70673
  0
LINE
  8
0
 10
3.19615
 20
-8.70673
 11
3.34906
 21
-8.79385
  0
LINE
  8
0
 10
3.34906
 20
-8.79385
 11
3.46603
 21
-8.8898
  0
LINE
  8
0
 10
3.46603
 20
-8.8898
 11
3.55385
 21
-8.99796
  0
LINE
  8
0
 10
3.55385
 20
-8.99796
 11
3.61928
 21
-9.12172
  0
LINE
  8
0
 10
3.61928
 20
-9.12172
 11
3.65999
 21
-9.26244
  0
LINE
  8
0
 10
3.65999
 20
-9.26244
 11
3.67355
 21
-9.42145
  0
LINE
  8
0
 10
3.67355
 20
-9.42145
 11
3.59521
 21
-9.78899
  0
LINE
  8
0
 10
3.59521
 20
-9.78899
 11
3.36023
 21
-10.0616
  0
LINE
  8
0
 10
3.36023
 20
-10.0616
 11
2.98422
 21
-10.2304
  0
LINE
  8
0
 10
2.98422
 20
-10.2304
 11
2.48276
 21
-10.2867
  0
LINE
  8
0
 10
2.48276
 20
-10.2867
 11
1.99756
 21
-10.2416
  0
LINE
  8
0
 10
11.252
 20
-10.2325
 11
11.252
 21
-9.63844
  0
LINE
  8
0
 10
11.252
 20
-9.63844
 11
11.7809
 21
-9.63844
  0
LINE
  8
0
 10
11.7809
 20
-9.63844
 11
11.7809
 21
-10.2325
  0
LINE
  8
0
 10
11.7809
 20
-10.2325
 11
11.252
 21
-10.2325
  0
ENDSEC
  0
SECTION
  2
OBJECTS
  0
DICTIONARY
  0
ENDSEC
  0
EOF
