  0
SECTION
  2
BLOCKS
  0
ENDSEC
  0
SECTION
  2
ENTITIES
  0
LINE
  8
0
 10
31.75
 20
15
 11
-31.75
 21
15
  0
LINE
  8
0
 10
-31.75
 20
15
 11
-31.75
 21
-15
  0
LINE
  8
0
 10
-31.75
 20
-15
 11
31.75
 21
-15
  0
LINE
  8
0
 10
31.75
 20
-15
 11
31.75
 21
15
  0
LINE
  8
0
 10
4.17117
 20
4.61041
 11
3.7036
 21
4.78941
  0
LINE
  8
0
 10
3.7036
 20
4.78941
 11
3.3269
 21
5.08136
  0
LINE
  8
0
 10
3.3269
 20
5.08136
 11
3.05124
 21
5.47974
  0
LINE
  8
0
 10
3.05124
 20
5.47974
 11
2.8824
 21
5.96902
  0
LINE
  8
0
 10
2.8824
 20
5.96902
 11
2.82613
 21
6.53358
  0
LINE
  8
0
 10
2.82613
 20
6.53358
 11
2.95157
 21
7.35036
  0
LINE
  8
0
 10
2.95157
 20
7.35036
 11
3.32793
 21
7.9671
  0
LINE
  8
0
 10
3.32793
 20
7.9671
 11
3.92805
 21
8.35468
  0
LINE
  8
0
 10
3.92805
 20
8.35468
 11
4.72488
 21
8.48386
  0
LINE
  8
0
 10
4.72488
 20
8.48386
 11
5.26939
 21
8.42587
  0
LINE
  8
0
 10
5.26939
 20
8.42587
 11
5.7366
 21
8.25194
  0
LINE
  8
0
 10
5.7366
 20
8.25194
 11
6.11467
 21
7.96745
  0
LINE
  8
0
 10
6.11467
 20
7.96745
 11
6.39168
 21
7.57787
  0
LINE
  8
0
 10
6.39168
 20
7.57787
 11
6.56157
 21
7.09573
  0
LINE
  8
0
 10
6.56157
 20
7.09573
 11
6.61819
 21
6.53358
  0
LINE
  8
0
 10
6.61819
 20
6.53358
 11
6.56088
 21
5.97141
  0
LINE
  8
0
 10
6.56088
 20
5.97141
 11
6.38896
 21
5.48383
  0
LINE
  8
0
 10
6.38896
 20
5.48383
 11
6.10992
 21
5.08575
  0
LINE
  8
0
 10
6.10992
 20
5.08575
 11
5.7312
 21
4.79214
  0
LINE
  8
0
 10
5.7312
 20
4.79214
 11
5.26398
 21
4.61108
  0
LINE
  8
0
 10
5.26398
 20
4.61108
 11
4.71944
 21
4.55074
  0
LINE
  8
0
 10
4.71944
 20
4.55074
 11
4.17117
 21
4.61041
  0
LINE
  8
0
 10
5.30431
 20
5.07323
 11
5.73524
 21
5.37938
  0
LINE
  8
0
 10
5.73524
 20
5.37938
 11
6.00075
 21
5.87206
  0
LINE
  8
0
 10
6.00075
 20
5.87206
 11
6.08923
 21
6.53358
  0
LINE
  8
0
 10
6.08923
 20
6.53358
 11
6.00008
 21
7.17032
  0
LINE
  8
0
 10
6.00008
 20
7.17032
 11
5.73256
 21
7.65382
  0
LINE
  8
0
 10
5.73256
 20
7.65382
 11
5.30231
 21
7.95898
  0
LINE
  8
0
 10
5.30231
 20
7.95898
 11
4.72488
 21
8.0607
  0
LINE
  8
0
 10
4.72488
 20
8.0607
 11
4.14304
 21
7.96034
  0
LINE
  8
0
 10
4.14304
 20
7.96034
 11
3.71036
 21
7.65926
  0
LINE
  8
0
 10
3.71036
 20
7.65926
 11
3.44183
 21
7.17712
  0
LINE
  8
0
 10
3.44183
 20
7.17712
 11
3.35233
 21
6.53358
  0
LINE
  8
0
 10
3.35233
 20
6.53358
 11
3.44286
 21
5.88901
  0
LINE
  8
0
 10
3.44286
 20
5.88901
 11
3.71445
 21
5.39294
  0
LINE
  8
0
 10
3.71445
 20
5.39294
 11
4.14674
 21
5.07661
  0
LINE
  8
0
 10
4.14674
 20
5.07661
 11
4.71944
 21
4.97118
  0
LINE
  8
0
 10
4.71944
 20
4.97118
 11
5.30431
 21
5.07323
  0
LINE
  8
0
 10
-5.13583
 20
4.61041
 11
-5.61121
 21
4.78941
  0
LINE
  8
0
 10
-5.61121
 20
4.78941
 11
-5.994
 21
5.08069
  0
LINE
  8
0
 10
-5.994
 20
5.08069
 11
-6.2744
 21
5.47707
  0
LINE
  8
0
 10
-6.2744
 20
5.47707
 11
-6.4463
 21
5.96565
  0
LINE
  8
0
 10
-6.4463
 20
5.96565
 11
-6.5036
 21
6.53358
  0
LINE
  8
0
 10
-6.5036
 20
6.53358
 11
-6.37883
 21
7.35884
  0
LINE
  8
0
 10
-6.37883
 20
7.35884
 11
-6.00452
 21
7.97391
  0
LINE
  8
0
 10
-6.00452
 20
7.97391
 11
-5.40437
 21
8.35637
  0
LINE
  8
0
 10
-5.40437
 20
8.35637
 11
-4.60216
 21
8.48386
  0
LINE
  8
0
 10
-4.60216
 20
8.48386
 11
-4.02711
 21
8.43028
  0
LINE
  8
0
 10
-4.02711
 20
8.43028
 11
-3.5714
 21
8.26958
  0
LINE
  8
0
 10
-3.5714
 20
8.26958
 11
-3.22079
 21
7.99088
  0
LINE
  8
0
 10
-3.22079
 20
7.99088
 11
-2.96107
 21
7.5833
  0
LINE
  8
0
 10
-2.96107
 20
7.5833
 11
-3.45476
 21
7.43681
  0
LINE
  8
0
 10
-3.45476
 20
7.43681
 11
-3.64838
 21
7.71825
  0
LINE
  8
0
 10
-3.64838
 20
7.71825
 11
-3.90369
 21
7.9115
  0
LINE
  8
0
 10
-3.90369
 20
7.9115
 11
-4.22478
 21
8.02341
  0
LINE
  8
0
 10
-4.22478
 20
8.02341
 11
-4.61572
 21
8.0607
  0
LINE
  8
0
 10
-4.61572
 20
8.0607
 11
-5.19958
 21
7.96066
  0
LINE
  8
0
 10
-5.19958
 20
7.96066
 11
-5.62749
 21
7.66058
  0
LINE
  8
0
 10
-5.62749
 20
7.66058
 11
-5.88992
 21
7.17879
  0
LINE
  8
0
 10
-5.88992
 20
7.17879
 11
-5.9774
 21
6.53358
  0
LINE
  8
0
 10
-5.9774
 20
6.53358
 11
-5.88451
 21
5.88564
  0
LINE
  8
0
 10
-5.88451
 20
5.88564
 11
-5.6058
 21
5.39026
  0
LINE
  8
0
 10
-5.6058
 20
5.39026
 11
-5.16296
 21
5.07594
  0
LINE
  8
0
 10
-5.16296
 20
5.07594
 11
-4.57771
 21
4.97118
  0
LINE
  8
0
 10
-4.57771
 20
4.97118
 11
-4.21596
 21
4.99966
  0
LINE
  8
0
 10
-4.21596
 20
4.99966
 11
-3.87929
 21
5.0851
  0
LINE
  8
0
 10
-3.87929
 20
5.0851
 11
-3.58598
 21
5.21936
  0
LINE
  8
0
 10
-3.58598
 20
5.21936
 11
-3.3544
 21
5.3943
  0
LINE
  8
0
 10
-3.3544
 20
5.3943
 11
-3.3544
 21
6.0833
  0
LINE
  8
0
 10
-3.3544
 20
6.0833
 11
-4.49635
 21
6.0833
  0
LINE
  8
0
 10
-4.49635
 20
6.0833
 11
-4.49635
 21
6.5173
  0
LINE
  8
0
 10
-4.49635
 20
6.5173
 11
-2.877
 21
6.5173
  0
LINE
  8
0
 10
-2.877
 20
6.5173
 11
-2.877
 21
5.19902
  0
LINE
  8
0
 10
-2.877
 20
5.19902
 11
-3.21506
 21
4.92471
  0
LINE
  8
0
 10
-3.21506
 20
4.92471
 11
-3.6216
 21
4.72026
  0
LINE
  8
0
 10
-3.6216
 20
4.72026
 11
-4.08101
 21
4.59312
  0
LINE
  8
0
 10
-4.08101
 20
4.59312
 11
-4.57771
 21
4.55074
  0
LINE
  8
0
 10
-4.57771
 20
4.55074
 11
-5.13583
 21
4.61041
  0
LINE
  8
0
 10
1.56833
 20
4.60498
 11
1.56833
 21
8.4269
  0
LINE
  8
0
 10
1.56833
 20
8.4269
 11
2.08641
 21
8.4269
  0
LINE
  8
0
 10
2.08641
 20
8.4269
 11
2.08641
 21
4.60498
  0
LINE
  8
0
 10
2.08641
 20
4.60498
 11
1.56833
 21
4.60498
  0
LINE
  8
0
 10
-2.10728
 20
4.60498
 11
-2.10728
 21
8.4269
  0
LINE
  8
0
 10
-2.10728
 20
8.4269
 11
-0.498795
 21
8.4269
  0
LINE
  8
0
 10
-0.498795
 20
8.4269
 11
0.0714874
 21
8.35162
  0
LINE
  8
0
 10
0.0714874
 20
8.35162
 11
0.496658
 21
8.12578
  0
LINE
  8
0
 10
0.496658
 20
8.12578
 11
0.761139
 21
7.76299
  0
LINE
  8
0
 10
0.761139
 20
7.76299
 11
0.849304
 21
7.27678
  0
LINE
  8
0
 10
0.849304
 20
7.27678
 11
0.760803
 21
6.7899
  0
LINE
  8
0
 10
0.760803
 20
6.7899
 11
0.4953
 21
6.41422
  0
LINE
  8
0
 10
0.4953
 20
6.41422
 11
0.0779419
 21
6.17416
  0
LINE
  8
0
 10
0.0779419
 20
6.17416
 11
-0.466248
 21
6.09415
  0
LINE
  8
0
 10
-0.466248
 20
6.09415
 11
-1.5892
 21
6.09415
  0
LINE
  8
0
 10
-1.5892
 20
6.09415
 11
-1.5892
 21
4.60498
  0
LINE
  8
0
 10
-1.5892
 20
4.60498
 11
-2.10728
 21
4.60498
  0
LINE
  8
0
 10
0.111511
 20
6.69565
 11
0.328506
 21
7.27138
  0
LINE
  8
0
 10
0.328506
 20
7.27138
 11
0.106079
 21
7.82677
  0
LINE
  8
0
 10
0.106079
 20
7.82677
 11
-0.561157
 21
8.0119
  0
LINE
  8
0
 10
-0.561157
 20
8.0119
 11
-1.5892
 21
8.0119
  0
LINE
  8
0
 10
-1.5892
 20
8.0119
 11
-1.5892
 21
6.50374
  0
LINE
  8
0
 10
-1.5892
 20
6.50374
 11
-0.539474
 21
6.50374
  0
LINE
  8
0
 10
-0.539474
 20
6.50374
 11
0.111511
 21
6.69565
  0
LINE
  8
0
 10
-20.31
 20
-7.2
 11
-20.31
 21
1.89999
  0
LINE
  8
0
 10
-20.31
 20
1.89999
 11
20.31
 21
1.89999
  0
LINE
  8
0
 10
20.31
 20
1.89999
 11
20.31
 21
-7.2
  0
LINE
  8
0
 10
20.31
 20
-7.2
 11
-20.31
 21
-7.2
  0
LINE
  8
0
 10
-7.25974
 20
-13.1854
 11
-7.79036
 21
-12.9911
  0
LINE
  8
0
 10
-7.79036
 20
-12.9911
 11
-8.22232
 21
-12.6771
  0
LINE
  8
0
 10
-8.22232
 20
-12.6771
 11
-8.539
 21
-12.2533
  0
LINE
  8
0
 10
-8.539
 20
-12.2533
 11
-8.73328
 21
-11.7382
  0
LINE
  8
0
 10
-8.73328
 20
-11.7382
 11
-8.79803
 21
-11.1506
  0
LINE
  8
0
 10
-8.79803
 20
-11.1506
 11
-8.71362
 21
-10.4257
  0
LINE
  8
0
 10
-8.71362
 20
-10.4257
 11
-8.46036
 21
-9.77
  0
LINE
  8
0
 10
-8.46036
 20
-9.77
 11
-8.05721
 21
-9.21764
  0
LINE
  8
0
 10
-8.05721
 20
-9.21764
 11
-7.52319
 21
-8.80296
  0
LINE
  8
0
 10
-7.52319
 20
-8.80296
 11
-6.88777
 21
-8.54359
  0
LINE
  8
0
 10
-6.88777
 20
-8.54359
 11
-6.18048
 21
-8.45714
  0
LINE
  8
0
 10
-6.18048
 20
-8.45714
 11
-5.57152
 21
-8.51851
  0
LINE
  8
0
 10
-5.57152
 20
-8.51851
 11
-5.05208
 21
-8.70261
  0
LINE
  8
0
 10
-5.05208
 20
-8.70261
 11
-4.63335
 21
-8.9986
  0
LINE
  8
0
 10
-4.63335
 20
-8.9986
 11
-4.32652
 21
-9.39565
  0
LINE
  8
0
 10
-4.32652
 20
-9.39565
 11
-4.13832
 21
-9.87915
  0
LINE
  8
0
 10
-4.13832
 20
-9.87915
 11
-4.07559
 21
-10.4346
  0
LINE
  8
0
 10
-4.07559
 20
-10.4346
 11
-4.11459
 21
-10.915
  0
LINE
  8
0
 10
-4.11459
 20
-10.915
 11
-4.23155
 21
-11.3473
  0
LINE
  8
0
 10
-4.23155
 20
-11.3473
 11
-4.41805
 21
-11.7091
  0
LINE
  8
0
 10
-4.41805
 20
-11.7091
 11
-4.66556
 21
-11.978
  0
LINE
  8
0
 10
-4.66556
 20
-11.978
 11
-4.96021
 21
-12.1448
  0
LINE
  8
0
 10
-4.96021
 20
-12.1448
 11
-5.28807
 21
-12.2004
  0
LINE
  8
0
 10
-5.28807
 20
-12.2004
 11
-5.52609
 21
-12.1705
  0
LINE
  8
0
 10
-5.52609
 20
-12.1705
 11
-5.70308
 21
-12.081
  0
LINE
  8
0
 10
-5.70308
 20
-12.081
 11
-5.81294
 21
-11.9318
  0
LINE
  8
0
 10
-5.81294
 20
-11.9318
 11
-5.84956
 21
-11.723
  0
LINE
  8
0
 10
-5.84956
 20
-11.723
 11
-5.84143
 21
-11.5331
  0
LINE
  8
0
 10
-5.84143
 20
-11.5331
 11
-5.85768
 21
-11.5331
  0
LINE
  8
0
 10
-5.85768
 20
-11.5331
 11
-6.05807
 21
-11.825
  0
LINE
  8
0
 10
-6.05807
 20
-11.825
 11
-6.30119
 21
-12.0336
  0
LINE
  8
0
 10
-6.30119
 20
-12.0336
 11
-6.57616
 21
-12.1587
  0
LINE
  8
0
 10
-6.57616
 20
-12.1587
 11
-6.87216
 21
-12.2004
  0
LINE
  8
0
 10
-6.87216
 20
-12.2004
 11
-7.25023
 21
-12.1312
  0
LINE
  8
0
 10
-7.25023
 20
-12.1312
 11
-7.53268
 21
-11.9237
  0
LINE
  8
0
 10
-7.53268
 20
-11.9237
 11
-7.70863
 21
-11.5935
  0
LINE
  8
0
 10
-7.70863
 20
-11.5935
 11
-7.76727
 21
-11.1561
  0
LINE
  8
0
 10
-7.76727
 20
-11.1561
 11
-7.72354
 21
-10.7268
  0
LINE
  8
0
 10
-7.72354
 20
-10.7268
 11
-7.59236
 21
-10.3288
  0
LINE
  8
0
 10
-7.59236
 20
-10.3288
 11
-7.38248
 21
-9.98563
  0
LINE
  8
0
 10
-7.38248
 20
-9.98563
 11
-7.10275
 21
-9.72116
  0
LINE
  8
0
 10
-7.10275
 20
-9.72116
 11
-6.77113
 21
-9.55229
  0
LINE
  8
0
 10
-6.77113
 20
-9.55229
 11
-6.40564
 21
-9.496
  0
LINE
  8
0
 10
-6.40564
 20
-9.496
 11
-5.9045
 21
-9.61942
  0
LINE
  8
0
 10
-5.9045
 20
-9.61942
 11
-5.58916
 21
-9.98969
  0
LINE
  8
0
 10
-5.58916
 20
-9.98969
 11
-5.57288
 21
-9.98969
  0
LINE
  8
0
 10
-5.57288
 20
-9.98969
 11
-5.46707
 21
-9.55568
  0
LINE
  8
0
 10
-5.46707
 20
-9.55568
 11
-5.04396
 21
-9.55568
  0
LINE
  8
0
 10
-5.04396
 20
-9.55568
 11
-5.3586
 21
-10.9282
  0
LINE
  8
0
 10
-5.3586
 20
-10.9282
 11
-5.43387
 21
-11.3222
  0
LINE
  8
0
 10
-5.43387
 20
-11.3222
 11
-5.45895
 21
-11.6145
  0
LINE
  8
0
 10
-5.45895
 20
-11.6145
 11
-5.40402
 21
-11.8057
  0
LINE
  8
0
 10
-5.40402
 20
-11.8057
 11
-5.23924
 21
-11.8694
  0
LINE
  8
0
 10
-5.23924
 20
-11.8694
 11
-5.03072
 21
-11.8226
  0
LINE
  8
0
 10
-5.03072
 20
-11.8226
 11
-4.83916
 21
-11.6823
  0
LINE
  8
0
 10
-4.83916
 20
-11.6823
 11
-4.67538
 21
-11.4599
  0
LINE
  8
0
 10
-4.67538
 20
-11.4599
 11
-4.55028
 21
-11.1669
  0
LINE
  8
0
 10
-4.55028
 20
-11.1669
 11
-4.47093
 21
-10.8211
  0
LINE
  8
0
 10
-4.47093
 20
-10.8211
 11
-4.44447
 21
-10.44
  0
LINE
  8
0
 10
-4.44447
 20
-10.44
 11
-4.4967
 21
-9.9819
  0
LINE
  8
0
 10
-4.4967
 20
-9.9819
 11
-4.65335
 21
-9.57877
  0
LINE
  8
0
 10
-4.65335
 20
-9.57877
 11
-4.90833
 21
-9.24648
  0
LINE
  8
0
 10
-4.90833
 20
-9.24648
 11
-5.25552
 21
-9.00101
  0
LINE
  8
0
 10
-5.25552
 20
-9.00101
 11
-5.68205
 21
-8.84944
  0
LINE
  8
0
 10
-5.68205
 20
-8.84944
 11
-6.17503
 21
-8.79892
  0
LINE
  8
0
 10
-6.17503
 20
-8.79892
 11
-6.7935
 21
-8.87148
  0
LINE
  8
0
 10
-6.7935
 20
-8.87148
 11
-7.336
 21
-9.08916
  0
LINE
  8
0
 10
-7.336
 20
-9.08916
 11
-7.78629
 21
-9.44347
  0
LINE
  8
0
 10
-7.78629
 20
-9.44347
 11
-8.12808
 21
-9.92596
  0
LINE
  8
0
 10
-8.12808
 20
-9.92596
 11
-8.34372
 21
-10.5054
  0
LINE
  8
0
 10
-8.34372
 20
-10.5054
 11
-8.4156
 21
-11.1506
  0
LINE
  8
0
 10
-8.4156
 20
-11.1506
 11
-8.36237
 21
-11.6433
  0
LINE
  8
0
 10
-8.36237
 20
-11.6433
 11
-8.20268
 21
-12.0743
  0
LINE
  8
0
 10
-8.20268
 20
-12.0743
 11
-7.94226
 21
-12.4279
  0
LINE
  8
0
 10
-7.94226
 20
-12.4279
 11
-7.58691
 21
-12.6886
  0
LINE
  8
0
 10
-7.58691
 20
-12.6886
 11
-7.15054
 21
-12.8493
  0
LINE
  8
0
 10
-7.15054
 20
-12.8493
 11
-6.64703
 21
-12.9029
  0
LINE
  8
0
 10
-6.64703
 20
-12.9029
 11
-6.25101
 21
-12.8775
  0
LINE
  8
0
 10
-6.25101
 20
-12.8775
 11
-5.84956
 21
-12.8012
  0
LINE
  8
0
 10
-5.84956
 20
-12.8012
 11
-5.43794
 21
-12.6659
  0
LINE
  8
0
 10
-5.43794
 20
-12.6659
 11
-5.0114
 21
-12.4635
  0
LINE
  8
0
 10
-5.0114
 20
-12.4635
 11
-4.8622
 21
-12.7673
  0
LINE
  8
0
 10
-4.8622
 20
-12.7673
 11
-5.27213
 21
-12.9751
  0
LINE
  8
0
 10
-5.27213
 20
-12.9751
 11
-5.71527
 21
-13.1267
  0
LINE
  8
0
 10
-5.71527
 20
-13.1267
 11
-6.1781
 21
-13.2193
  0
LINE
  8
0
 10
-6.1781
 20
-13.2193
 11
-6.64703
 21
-13.2501
  0
LINE
  8
0
 10
-6.64703
 20
-13.2501
 11
-7.25974
 21
-13.1854
  0
LINE
  8
0
 10
-6.46869
 20
-11.7738
 11
-6.17236
 21
-11.5602
  0
LINE
  8
0
 10
-6.17236
 20
-11.5602
 11
-5.93365
 21
-11.2401
  0
LINE
  8
0
 10
-5.93365
 20
-11.2401
 11
-5.78175
 21
-10.8496
  0
LINE
  8
0
 10
-5.78175
 20
-10.8496
 11
-5.73495
 21
-10.6264
  0
LINE
  8
0
 10
-5.73495
 20
-10.6264
 11
-5.71936
 21
-10.4562
  0
LINE
  8
0
 10
-5.71936
 20
-10.4562
 11
-5.76411
 21
-10.2063
  0
LINE
  8
0
 10
-5.76411
 20
-10.2063
 11
-5.89839
 21
-10.01
  0
LINE
  8
0
 10
-5.89839
 20
-10.01
 11
-6.10725
 21
-9.8829
  0
LINE
  8
0
 10
-6.10725
 20
-9.8829
 11
-6.37579
 21
-9.84052
  0
LINE
  8
0
 10
-6.37579
 20
-9.84052
 11
-6.63449
 21
-9.88358
  0
LINE
  8
0
 10
-6.63449
 20
-9.88358
 11
-6.86267
 21
-10.0128
  0
LINE
  8
0
 10
-6.86267
 20
-10.0128
 11
-7.05289
 21
-10.2182
  0
LINE
  8
0
 10
-7.05289
 20
-10.2182
 11
-7.19768
 21
-10.4902
  0
LINE
  8
0
 10
-7.19768
 20
-10.4902
 11
-7.28922
 21
-10.8079
  0
LINE
  8
0
 10
-7.28922
 20
-10.8079
 11
-7.31972
 21
-11.1506
  0
LINE
  8
0
 10
-7.31972
 20
-11.1506
 11
-7.28751
 21
-11.4409
  0
LINE
  8
0
 10
-7.28751
 20
-11.4409
 11
-7.19087
 21
-11.6606
  0
LINE
  8
0
 10
-7.19087
 20
-11.6606
 11
-7.02711
 21
-11.7989
  0
LINE
  8
0
 10
-7.02711
 20
-11.7989
 11
-6.79352
 21
-11.845
  0
LINE
  8
0
 10
-6.79352
 20
-11.845
 11
-6.46869
 21
-11.7738
  0
LINE
  8
0
 10
8.70833
 20
-12.4825
 11
8.70833
 21
-8.45714
  0
LINE
  8
0
 10
8.70833
 20
-8.45714
 11
9.19658
 21
-8.45714
  0
LINE
  8
0
 10
9.19658
 20
-8.45714
 11
9.19658
 21
-12.4825
  0
LINE
  8
0
 10
9.19658
 20
-12.4825
 11
8.70833
 21
-12.4825
  0
LINE
  8
0
 10
9.91368
 20
-12.4825
 11
9.91368
 21
-8.45714
  0
LINE
  8
0
 10
9.91368
 20
-8.45714
 11
10.4019
 21
-8.45714
  0
LINE
  8
0
 10
10.4019
 20
-8.45714
 11
10.4019
 21
-12.4825
  0
LINE
  8
0
 10
10.4019
 20
-12.4825
 11
9.91368
 21
-12.4825
  0
LINE
  8
0
 10
18.8563
 20
-12.3597
 11
18.7098
 21
-11.8613
  0
LINE
  8
0
 10
18.7098
 20
-11.8613
 11
18.7098
 21
-9.90288
  0
LINE
  8
0
 10
18.7098
 20
-9.90288
 11
18.3708
 21
-9.90288
  0
LINE
  8
0
 10
18.3708
 20
-9.90288
 11
18.3708
 21
-9.54756
  0
LINE
  8
0
 10
18.3708
 20
-9.54756
 11
18.7288
 21
-9.54756
  0
LINE
  8
0
 10
18.7288
 20
-9.54756
 11
18.8726
 21
-8.89111
  0
LINE
  8
0
 10
18.8726
 20
-8.89111
 11
19.1981
 21
-8.89111
  0
LINE
  8
0
 10
19.1981
 20
-8.89111
 11
19.1981
 21
-9.54756
  0
LINE
  8
0
 10
19.1981
 20
-9.54756
 11
19.7406
 21
-9.54756
  0
LINE
  8
0
 10
19.7406
 20
-9.54756
 11
19.7406
 21
-9.90288
  0
LINE
  8
0
 10
19.7406
 20
-9.90288
 11
19.1981
 21
-9.90288
  0
LINE
  8
0
 10
19.1981
 20
-9.90288
 11
19.1981
 21
-11.7555
  0
LINE
  8
0
 10
19.1981
 20
-11.7555
 11
19.2154
 21
-11.9356
  0
LINE
  8
0
 10
19.2154
 20
-11.9356
 11
19.2672
 21
-12.0526
  0
LINE
  8
0
 10
19.2672
 20
-12.0526
 11
19.3618
 21
-12.1166
  0
LINE
  8
0
 10
19.3618
 20
-12.1166
 11
19.5073
 21
-12.138
  0
LINE
  8
0
 10
19.5073
 20
-12.138
 11
19.6266
 21
-12.1285
  0
LINE
  8
0
 10
19.6266
 20
-12.1285
 11
19.7894
 21
-12.1
  0
LINE
  8
0
 10
19.7894
 20
-12.1
 11
19.7894
 21
-12.4608
  0
LINE
  8
0
 10
19.7894
 20
-12.4608
 11
19.5453
 21
-12.5096
  0
LINE
  8
0
 10
19.5453
 20
-12.5096
 11
19.2957
 21
-12.5259
  0
LINE
  8
0
 10
19.2957
 20
-12.5259
 11
18.8563
 21
-12.3597
  0
LINE
  8
0
 10
-13.1898
 20
-12.3597
 11
-13.3362
 21
-11.8613
  0
LINE
  8
0
 10
-13.3362
 20
-11.8613
 11
-13.3362
 21
-9.90288
  0
LINE
  8
0
 10
-13.3362
 20
-9.90288
 11
-13.6753
 21
-9.90288
  0
LINE
  8
0
 10
-13.6753
 20
-9.90288
 11
-13.6753
 21
-9.54756
  0
LINE
  8
0
 10
-13.6753
 20
-9.54756
 11
-13.3173
 21
-9.54756
  0
LINE
  8
0
 10
-13.3173
 20
-9.54756
 11
-13.1735
 21
-8.89111
  0
LINE
  8
0
 10
-13.1735
 20
-8.89111
 11
-12.848
 21
-8.89111
  0
LINE
  8
0
 10
-12.848
 20
-8.89111
 11
-12.848
 21
-9.54756
  0
LINE
  8
0
 10
-12.848
 20
-9.54756
 11
-12.3055
 21
-9.54756
  0
LINE
  8
0
 10
-12.3055
 20
-9.54756
 11
-12.3055
 21
-9.90288
  0
LINE
  8
0
 10
-12.3055
 20
-9.90288
 11
-12.848
 21
-9.90288
  0
LINE
  8
0
 10
-12.848
 20
-9.90288
 11
-12.848
 21
-11.7555
  0
LINE
  8
0
 10
-12.848
 20
-11.7555
 11
-12.8307
 21
-11.9356
  0
LINE
  8
0
 10
-12.8307
 20
-11.9356
 11
-12.7788
 21
-12.0526
  0
LINE
  8
0
 10
-12.7788
 20
-12.0526
 11
-12.6842
 21
-12.1166
  0
LINE
  8
0
 10
-12.6842
 20
-12.1166
 11
-12.5388
 21
-12.138
  0
LINE
  8
0
 10
-12.5388
 20
-12.138
 11
-12.4194
 21
-12.1285
  0
LINE
  8
0
 10
-12.4194
 20
-12.1285
 11
-12.2567
 21
-12.1
  0
LINE
  8
0
 10
-12.2567
 20
-12.1
 11
-12.2567
 21
-12.4608
  0
LINE
  8
0
 10
-12.2567
 20
-12.4608
 11
-12.5008
 21
-12.5096
  0
LINE
  8
0
 10
-12.5008
 20
-12.5096
 11
-12.7504
 21
-12.5259
  0
LINE
  8
0
 10
-12.7504
 20
-12.5259
 11
-13.1898
 21
-12.3597
  0
LINE
  8
0
 10
4.379
 20
-12.3597
 11
4.23253
 21
-11.8613
  0
LINE
  8
0
 10
4.23253
 20
-11.8613
 11
4.23253
 21
-9.90288
  0
LINE
  8
0
 10
4.23253
 20
-9.90288
 11
3.89345
 21
-9.90288
  0
LINE
  8
0
 10
3.89345
 20
-9.90288
 11
3.89345
 21
-9.54756
  0
LINE
  8
0
 10
3.89345
 20
-9.54756
 11
4.25148
 21
-9.54756
  0
LINE
  8
0
 10
4.25148
 20
-9.54756
 11
4.39529
 21
-8.89111
  0
LINE
  8
0
 10
4.39529
 20
-8.89111
 11
4.72076
 21
-8.89111
  0
LINE
  8
0
 10
4.72076
 20
-8.89111
 11
4.72076
 21
-9.54756
  0
LINE
  8
0
 10
4.72076
 20
-9.54756
 11
5.26329
 21
-9.54756
  0
LINE
  8
0
 10
5.26329
 20
-9.54756
 11
5.26329
 21
-9.90288
  0
LINE
  8
0
 10
5.26329
 20
-9.90288
 11
4.72076
 21
-9.90288
  0
LINE
  8
0
 10
4.72076
 20
-9.90288
 11
4.72076
 21
-11.7555
  0
LINE
  8
0
 10
4.72076
 20
-11.7555
 11
4.73805
 21
-11.9356
  0
LINE
  8
0
 10
4.73805
 20
-11.9356
 11
4.78993
 21
-12.0526
  0
LINE
  8
0
 10
4.78993
 20
-12.0526
 11
4.88452
 21
-12.1166
  0
LINE
  8
0
 10
4.88452
 20
-12.1166
 11
5.03001
 21
-12.138
  0
LINE
  8
0
 10
5.03001
 20
-12.138
 11
5.14935
 21
-12.1285
  0
LINE
  8
0
 10
5.14935
 20
-12.1285
 11
5.31209
 21
-12.1
  0
LINE
  8
0
 10
5.31209
 20
-12.1
 11
5.31209
 21
-12.4608
  0
LINE
  8
0
 10
5.31209
 20
-12.4608
 11
5.06796
 21
-12.5096
  0
LINE
  8
0
 10
5.06796
 20
-12.5096
 11
4.81841
 21
-12.5259
  0
LINE
  8
0
 10
4.81841
 20
-12.5259
 11
4.379
 21
-12.3597
  0
LINE
  8
0
 10
-3.34213
 20
-12.4825
 11
-3.34213
 21
-10.2311
  0
LINE
  8
0
 10
-3.34213
 20
-10.2311
 11
-3.34619
 21
-9.90561
  0
LINE
  8
0
 10
-3.34619
 20
-9.90561
 11
-3.35838
 21
-9.54756
  0
LINE
  8
0
 10
-3.35838
 20
-9.54756
 11
-2.89726
 21
-9.54756
  0
LINE
  8
0
 10
-2.89726
 20
-9.54756
 11
-2.881
 21
-9.94696
  0
LINE
  8
0
 10
-2.881
 20
-9.94696
 11
-2.87558
 21
-10.147
  0
LINE
  8
0
 10
-2.87558
 20
-10.147
 11
-2.86473
 21
-10.147
  0
LINE
  8
0
 10
-2.86473
 20
-10.147
 11
-2.73929
 21
-9.82964
  0
LINE
  8
0
 10
-2.73929
 20
-9.82964
 11
-2.59622
 21
-9.63164
  0
LINE
  8
0
 10
-2.59622
 20
-9.63164
 11
-2.4131
 21
-9.52789
  0
LINE
  8
0
 10
-2.4131
 20
-9.52789
 11
-2.16762
 21
-9.49332
  0
LINE
  8
0
 10
-2.16762
 20
-9.49332
 11
-2.06929
 21
-9.50011
  0
LINE
  8
0
 10
-2.06929
 20
-9.50011
 11
-1.96957
 21
-9.52045
  0
LINE
  8
0
 10
-1.96957
 20
-9.52045
 11
-1.96957
 21
-9.968
  0
LINE
  8
0
 10
-1.96957
 20
-9.968
 11
-2.08351
 21
-9.94766
  0
LINE
  8
0
 10
-2.08351
 20
-9.94766
 11
-2.22998
 21
-9.94089
  0
LINE
  8
0
 10
-2.22998
 20
-9.94089
 11
-2.49783
 21
-10.0063
  0
LINE
  8
0
 10
-2.49783
 20
-10.0063
 11
-2.69382
 21
-10.2026
  0
LINE
  8
0
 10
-2.69382
 20
-10.2026
 11
-2.81384
 21
-10.521
  0
LINE
  8
0
 10
-2.81384
 20
-10.521
 11
-2.85385
 21
-10.9526
  0
LINE
  8
0
 10
-2.85385
 20
-10.9526
 11
-2.85385
 21
-12.4825
  0
LINE
  8
0
 10
-2.85385
 20
-12.4825
 11
-3.34213
 21
-12.4825
  0
LINE
  8
0
 10
-0.926132
 20
-12.4397
 11
-1.34422
 21
-12.1488
  0
LINE
  8
0
 10
-1.34422
 20
-12.1488
 11
-1.59952
 21
-11.6667
  0
LINE
  8
0
 10
-1.59952
 20
-11.6667
 11
-1.68462
 21
-10.996
  0
LINE
  8
0
 10
-1.68462
 20
-10.996
 11
-1.59952
 21
-10.3539
  0
LINE
  8
0
 10
-1.59952
 20
-10.3539
 11
-1.34422
 21
-9.8812
  0
LINE
  8
0
 10
-1.34422
 20
-9.8812
 11
-0.930893
 21
-9.59029
  0
LINE
  8
0
 10
-0.930893
 20
-9.59029
 11
-0.37178
 21
-9.49332
  0
LINE
  8
0
 10
-0.37178
 20
-9.49332
 11
0.598618
 21
-9.88324
  0
LINE
  8
0
 10
0.598618
 20
-9.88324
 11
0.922089
 21
-11.053
  0
LINE
  8
0
 10
0.922089
 20
-11.053
 11
0.922089
 21
-11.1181
  0
LINE
  8
0
 10
0.922089
 20
-11.1181
 11
-1.17198
 21
-11.1181
  0
LINE
  8
0
 10
-1.17198
 20
-11.1181
 11
-1.11977
 21
-11.565
  0
LINE
  8
0
 10
-1.11977
 20
-11.565
 11
-0.963135
 21
-11.8966
  0
LINE
  8
0
 10
-0.963135
 20
-11.8966
 11
-0.7061
 21
-12.1021
  0
LINE
  8
0
 10
-0.7061
 20
-12.1021
 11
-0.352783
 21
-12.1706
  0
LINE
  8
0
 10
-0.352783
 20
-12.1706
 11
-0.0669556
 21
-12.1387
  0
LINE
  8
0
 10
-0.0669556
 20
-12.1387
 11
0.155762
 21
-12.0431
  0
LINE
  8
0
 10
0.155762
 20
-12.0431
 11
0.316162
 21
-11.8986
  0
LINE
  8
0
 10
0.316162
 20
-11.8986
 11
0.414841
 21
-11.7203
  0
LINE
  8
0
 10
0.414841
 20
-11.7203
 11
0.843414
 21
-11.8423
  0
LINE
  8
0
 10
0.843414
 20
-11.8423
 11
0.412796
 21
-12.3631
  0
LINE
  8
0
 10
0.412796
 20
-12.3631
 11
-0.352783
 21
-12.5367
  0
LINE
  8
0
 10
-0.352783
 20
-12.5367
 11
-0.926132
 21
-12.4397
  0
LINE
  8
0
 10
0.338181
 20
-10.3427
 11
0.181534
 21
-10.067
  0
LINE
  8
0
 10
0.181534
 20
-10.067
 11
-0.0564575
 21
-9.9073
  0
LINE
  8
0
 10
-0.0564575
 20
-9.9073
 11
-0.379898
 21
-9.85408
  0
LINE
  8
0
 10
-0.379898
 20
-9.85408
 11
-0.698303
 21
-9.91342
  0
LINE
  8
0
 10
-0.698303
 20
-9.91342
 11
-0.94278
 21
-10.0914
  0
LINE
  8
0
 10
-0.94278
 20
-10.0914
 11
-1.10246
 21
-10.3732
  0
LINE
  8
0
 10
-1.10246
 20
-10.3732
 11
-1.16653
 21
-10.7438
  0
LINE
  8
0
 10
-1.16653
 20
-10.7438
 11
0.417526
 21
-10.7438
  0
LINE
  8
0
 10
0.417526
 20
-10.7438
 11
0.338181
 21
-10.3427
  0
LINE
  8
0
 10
-11.2576
 20
-12.4397
 11
-11.6757
 21
-12.1488
  0
LINE
  8
0
 10
-11.6757
 20
-12.1488
 11
-11.931
 21
-11.6667
  0
LINE
  8
0
 10
-11.931
 20
-11.6667
 11
-12.0161
 21
-10.996
  0
LINE
  8
0
 10
-12.0161
 20
-10.996
 11
-11.931
 21
-10.3539
  0
LINE
  8
0
 10
-11.931
 20
-10.3539
 11
-11.6757
 21
-9.8812
  0
LINE
  8
0
 10
-11.6757
 20
-9.8812
 11
-11.2623
 21
-9.59029
  0
LINE
  8
0
 10
-11.2623
 20
-9.59029
 11
-10.7032
 21
-9.49332
  0
LINE
  8
0
 10
-10.7032
 20
-9.49332
 11
-9.73282
 21
-9.88324
  0
LINE
  8
0
 10
-9.73282
 20
-9.88324
 11
-9.40935
 21
-11.053
  0
LINE
  8
0
 10
-9.40935
 20
-11.053
 11
-9.40935
 21
-11.1181
  0
LINE
  8
0
 10
-9.40935
 20
-11.1181
 11
-11.5034
 21
-11.1181
  0
LINE
  8
0
 10
-11.5034
 20
-11.1181
 11
-11.4512
 21
-11.565
  0
LINE
  8
0
 10
-11.4512
 20
-11.565
 11
-11.2946
 21
-11.8966
  0
LINE
  8
0
 10
-11.2946
 20
-11.8966
 11
-11.0376
 21
-12.1021
  0
LINE
  8
0
 10
-11.0376
 20
-12.1021
 11
-10.6842
 21
-12.1706
  0
LINE
  8
0
 10
-10.6842
 20
-12.1706
 11
-10.3984
 21
-12.1387
  0
LINE
  8
0
 10
-10.3984
 20
-12.1387
 11
-10.1757
 21
-12.0431
  0
LINE
  8
0
 10
-10.1757
 20
-12.0431
 11
-10.0153
 21
-11.8986
  0
LINE
  8
0
 10
-10.0153
 20
-11.8986
 11
-9.91658
 21
-11.7203
  0
LINE
  8
0
 10
-9.91658
 20
-11.7203
 11
-9.48802
 21
-11.8423
  0
LINE
  8
0
 10
-9.48802
 20
-11.8423
 11
-9.91864
 21
-12.3631
  0
LINE
  8
0
 10
-9.91864
 20
-12.3631
 11
-10.6842
 21
-12.5367
  0
LINE
  8
0
 10
-10.6842
 20
-12.5367
 11
-11.2576
 21
-12.4397
  0
LINE
  8
0
 10
-9.99324
 20
-10.3427
 11
-10.1499
 21
-10.067
  0
LINE
  8
0
 10
-10.1499
 20
-10.067
 11
-10.3879
 21
-9.9073
  0
LINE
  8
0
 10
-10.3879
 20
-9.9073
 11
-10.7113
 21
-9.85408
  0
LINE
  8
0
 10
-10.7113
 20
-9.85408
 11
-11.0297
 21
-9.91342
  0
LINE
  8
0
 10
-11.0297
 20
-9.91342
 11
-11.2742
 21
-10.0914
  0
LINE
  8
0
 10
-11.2742
 20
-10.0914
 11
-11.4339
 21
-10.3732
  0
LINE
  8
0
 10
-11.4339
 20
-10.3732
 11
-11.498
 21
-10.7438
  0
LINE
  8
0
 10
-11.498
 20
-10.7438
 11
-9.91391
 21
-10.7438
  0
LINE
  8
0
 10
-9.91391
 20
-10.7438
 11
-9.99324
 21
-10.3427
  0
LINE
  8
0
 10
6.05247
 20
-12.4784
 11
5.77512
 21
-12.3034
  0
LINE
  8
0
 10
5.77512
 20
-12.3034
 11
5.60831
 21
-12.0268
  0
LINE
  8
0
 10
5.60831
 20
-12.0268
 11
5.5527
 21
-11.6633
  0
LINE
  8
0
 10
5.5527
 20
-11.6633
 11
5.62764
 21
-11.2605
  0
LINE
  8
0
 10
5.62764
 20
-11.2605
 11
5.85243
 21
-10.9635
  0
LINE
  8
0
 10
5.85243
 20
-10.9635
 11
6.24403
 21
-10.7763
  0
LINE
  8
0
 10
6.24403
 20
-10.7763
 11
6.81943
 21
-10.7031
  0
LINE
  8
0
 10
6.81943
 20
-10.7031
 11
7.47859
 21
-10.6922
  0
LINE
  8
0
 10
7.47859
 20
-10.6922
 11
7.47859
 21
-10.5322
  0
LINE
  8
0
 10
7.47859
 20
-10.5322
 11
7.44061
 21
-10.225
  0
LINE
  8
0
 10
7.44061
 20
-10.225
 11
7.32668
 21
-10.0196
  0
LINE
  8
0
 10
7.32668
 20
-10.0196
 11
7.13138
 21
-9.90358
  0
LINE
  8
0
 10
7.13138
 20
-9.90358
 11
6.84927
 21
-9.86491
  0
LINE
  8
0
 10
6.84927
 20
-9.86491
 11
6.56583
 21
-9.89273
  0
LINE
  8
0
 10
6.56583
 20
-9.89273
 11
6.37187
 21
-9.97617
  0
LINE
  8
0
 10
6.37187
 20
-9.97617
 11
6.25252
 21
-10.1206
  0
LINE
  8
0
 10
6.25252
 20
-10.1206
 11
6.19283
 21
-10.3315
  0
LINE
  8
0
 10
6.19283
 20
-10.3315
 11
5.68291
 21
-10.2854
  0
LINE
  8
0
 10
5.68291
 20
-10.2854
 11
6.0396
 21
-9.69133
  0
LINE
  8
0
 10
6.0396
 20
-9.69133
 11
6.86011
 21
-9.49332
  0
LINE
  8
0
 10
6.86011
 20
-9.49332
 11
7.34497
 21
-9.55673
  0
LINE
  8
0
 10
7.34497
 20
-9.55673
 11
7.69283
 21
-9.74696
  0
LINE
  8
0
 10
7.69283
 20
-9.74696
 11
7.90237
 21
-10.0572
  0
LINE
  8
0
 10
7.90237
 20
-10.0572
 11
7.97223
 21
-10.4806
  0
LINE
  8
0
 10
7.97223
 20
-10.4806
 11
7.97223
 21
-11.7447
  0
LINE
  8
0
 10
7.97223
 20
-11.7447
 11
7.98647
 21
-11.9349
  0
LINE
  8
0
 10
7.98647
 20
-11.9349
 11
8.02919
 21
-12.0716
  0
LINE
  8
0
 10
8.02919
 20
-12.0716
 11
8.11195
 21
-12.1539
  0
LINE
  8
0
 10
8.11195
 20
-12.1539
 11
8.24623
 21
-12.1814
  0
LINE
  8
0
 10
8.24623
 20
-12.1814
 11
8.32149
 21
-12.1767
  0
LINE
  8
0
 10
8.32149
 20
-12.1767
 11
8.40623
 21
-12.1624
  0
LINE
  8
0
 10
8.40623
 20
-12.1624
 11
8.40623
 21
-12.4662
  0
LINE
  8
0
 10
8.40623
 20
-12.4662
 11
8.21976
 21
-12.4987
  0
LINE
  8
0
 10
8.21976
 20
-12.4987
 11
8.02924
 21
-12.5096
  0
LINE
  8
0
 10
8.02924
 20
-12.5096
 11
7.79491
 21
-12.474
  0
LINE
  8
0
 10
7.79491
 20
-12.474
 11
7.63451
 21
-12.3672
  0
LINE
  8
0
 10
7.63451
 20
-12.3672
 11
7.53789
 21
-12.1844
  0
LINE
  8
0
 10
7.53789
 20
-12.1844
 11
7.49483
 21
-11.921
  0
LINE
  8
0
 10
7.49483
 20
-11.921
 11
7.47859
 21
-11.921
  0
LINE
  8
0
 10
7.47859
 20
-11.921
 11
7.27617
 21
-12.2082
  0
LINE
  8
0
 10
7.27617
 20
-12.2082
 11
7.04323
 21
-12.397
  0
LINE
  8
0
 10
7.04323
 20
-12.397
 11
6.76823
 21
-12.5018
  0
LINE
  8
0
 10
6.76823
 20
-12.5018
 11
6.43967
 21
-12.5367
  0
LINE
  8
0
 10
6.43967
 20
-12.5367
 11
6.05247
 21
-12.4784
  0
LINE
  8
0
 10
6.8045
 20
-12.14
 11
7.02827
 21
-12.0485
  0
LINE
  8
0
 10
7.02827
 20
-12.0485
 11
7.21512
 21
-11.9037
  0
LINE
  8
0
 10
7.21512
 20
-11.9037
 11
7.35786
 21
-11.7135
  0
LINE
  8
0
 10
7.35786
 20
-11.7135
 11
7.44841
 21
-11.4975
  0
LINE
  8
0
 10
7.44841
 20
-11.4975
 11
7.47859
 21
-11.2754
  0
LINE
  8
0
 10
7.47859
 20
-11.2754
 11
7.47859
 21
-11.034
  0
LINE
  8
0
 10
7.47859
 20
-11.034
 11
6.94423
 21
-11.0448
  0
LINE
  8
0
 10
6.94423
 20
-11.0448
 11
6.64142
 21
-11.0652
  0
LINE
  8
0
 10
6.64142
 20
-11.0652
 11
6.42203
 21
-11.1154
  0
LINE
  8
0
 10
6.42203
 20
-11.1154
 11
6.26506
 21
-11.1981
  0
LINE
  8
0
 10
6.26506
 20
-11.1981
 11
6.14943
 21
-11.3161
  0
LINE
  8
0
 10
6.14943
 20
-11.3161
 11
6.07825
 21
-11.4727
  0
LINE
  8
0
 10
6.07825
 20
-11.4727
 11
6.0545
 21
-11.6714
  0
LINE
  8
0
 10
6.0545
 20
-11.6714
 11
6.08672
 21
-11.883
  0
LINE
  8
0
 10
6.08672
 20
-11.883
 11
6.18335
 21
-12.0404
  0
LINE
  8
0
 10
6.18335
 20
-12.0404
 11
6.33966
 21
-12.138
  0
LINE
  8
0
 10
6.33966
 20
-12.138
 11
6.55092
 21
-12.1706
  0
LINE
  8
0
 10
6.55092
 20
-12.1706
 11
6.8045
 21
-12.14
  0
LINE
  8
0
 10
16.2639
 20
-12.4397
 11
15.8458
 21
-12.1488
  0
LINE
  8
0
 10
15.8458
 20
-12.1488
 11
15.5905
 21
-11.6667
  0
LINE
  8
0
 10
15.5905
 20
-11.6667
 11
15.5054
 21
-10.996
  0
LINE
  8
0
 10
15.5054
 20
-10.996
 11
15.5905
 21
-10.3539
  0
LINE
  8
0
 10
15.5905
 20
-10.3539
 11
15.8458
 21
-9.8812
  0
LINE
  8
0
 10
15.8458
 20
-9.8812
 11
16.2591
 21
-9.59029
  0
LINE
  8
0
 10
16.2591
 20
-9.59029
 11
16.8182
 21
-9.49332
  0
LINE
  8
0
 10
16.8182
 20
-9.49332
 11
17.7886
 21
-9.88324
  0
LINE
  8
0
 10
17.7886
 20
-9.88324
 11
18.1121
 21
-11.053
  0
LINE
  8
0
 10
18.1121
 20
-11.053
 11
18.1121
 21
-11.1181
  0
LINE
  8
0
 10
18.1121
 20
-11.1181
 11
16.018
 21
-11.1181
  0
LINE
  8
0
 10
16.018
 20
-11.1181
 11
16.0702
 21
-11.565
  0
LINE
  8
0
 10
16.0702
 20
-11.565
 11
16.2269
 21
-11.8966
  0
LINE
  8
0
 10
16.2269
 20
-11.8966
 11
16.4839
 21
-12.1021
  0
LINE
  8
0
 10
16.4839
 20
-12.1021
 11
16.8372
 21
-12.1706
  0
LINE
  8
0
 10
16.8372
 20
-12.1706
 11
17.123
 21
-12.1387
  0
LINE
  8
0
 10
17.123
 20
-12.1387
 11
17.3458
 21
-12.0431
  0
LINE
  8
0
 10
17.3458
 20
-12.0431
 11
17.5062
 21
-11.8986
  0
LINE
  8
0
 10
17.5062
 20
-11.8986
 11
17.6048
 21
-11.7203
  0
LINE
  8
0
 10
17.6048
 20
-11.7203
 11
18.0334
 21
-11.8423
  0
LINE
  8
0
 10
18.0334
 20
-11.8423
 11
17.6028
 21
-12.3631
  0
LINE
  8
0
 10
17.6028
 20
-12.3631
 11
16.8372
 21
-12.5367
  0
LINE
  8
0
 10
16.8372
 20
-12.5367
 11
16.2639
 21
-12.4397
  0
LINE
  8
0
 10
17.5282
 20
-10.3427
 11
17.3715
 21
-10.067
  0
LINE
  8
0
 10
17.3715
 20
-10.067
 11
17.1335
 21
-9.9073
  0
LINE
  8
0
 10
17.1335
 20
-9.9073
 11
16.8101
 21
-9.85408
  0
LINE
  8
0
 10
16.8101
 20
-9.85408
 11
16.4917
 21
-9.91342
  0
LINE
  8
0
 10
16.4917
 20
-9.91342
 11
16.2472
 21
-10.0914
  0
LINE
  8
0
 10
16.2472
 20
-10.0914
 11
16.0875
 21
-10.3732
  0
LINE
  8
0
 10
16.0875
 20
-10.3732
 11
16.0235
 21
-10.7438
  0
LINE
  8
0
 10
16.0235
 20
-10.7438
 11
17.6075
 21
-10.7438
  0
LINE
  8
0
 10
17.6075
 20
-10.7438
 11
17.5282
 21
-10.3427
  0
LINE
  8
0
 10
-15.7822
 20
-12.4397
 11
-16.2003
 21
-12.1488
  0
LINE
  8
0
 10
-16.2003
 20
-12.1488
 11
-16.4556
 21
-11.6667
  0
LINE
  8
0
 10
-16.4556
 20
-11.6667
 11
-16.5407
 21
-10.996
  0
LINE
  8
0
 10
-16.5407
 20
-10.996
 11
-16.4556
 21
-10.3539
  0
LINE
  8
0
 10
-16.4556
 20
-10.3539
 11
-16.2003
 21
-9.8812
  0
LINE
  8
0
 10
-16.2003
 20
-9.8812
 11
-15.787
 21
-9.59029
  0
LINE
  8
0
 10
-15.787
 20
-9.59029
 11
-15.2279
 21
-9.49332
  0
LINE
  8
0
 10
-15.2279
 20
-9.49332
 11
-14.2575
 21
-9.88324
  0
LINE
  8
0
 10
-14.2575
 20
-9.88324
 11
-13.934
 21
-11.053
  0
LINE
  8
0
 10
-13.934
 20
-11.053
 11
-13.934
 21
-11.1181
  0
LINE
  8
0
 10
-13.934
 20
-11.1181
 11
-16.0281
 21
-11.1181
  0
LINE
  8
0
 10
-16.0281
 20
-11.1181
 11
-15.9759
 21
-11.565
  0
LINE
  8
0
 10
-15.9759
 20
-11.565
 11
-15.8192
 21
-11.8966
  0
LINE
  8
0
 10
-15.8192
 20
-11.8966
 11
-15.5622
 21
-12.1021
  0
LINE
  8
0
 10
-15.5622
 20
-12.1021
 11
-15.2089
 21
-12.1706
  0
LINE
  8
0
 10
-15.2089
 20
-12.1706
 11
-14.923
 21
-12.1387
  0
LINE
  8
0
 10
-14.923
 20
-12.1387
 11
-14.7003
 21
-12.0431
  0
LINE
  8
0
 10
-14.7003
 20
-12.0431
 11
-14.5399
 21
-11.8986
  0
LINE
  8
0
 10
-14.5399
 20
-11.8986
 11
-14.4412
 21
-11.7203
  0
LINE
  8
0
 10
-14.4412
 20
-11.7203
 11
-14.0127
 21
-11.8423
  0
LINE
  8
0
 10
-14.0127
 20
-11.8423
 11
-14.4433
 21
-12.3631
  0
LINE
  8
0
 10
-14.4433
 20
-12.3631
 11
-15.2089
 21
-12.5367
  0
LINE
  8
0
 10
-15.2089
 20
-12.5367
 11
-15.7822
 21
-12.4397
  0
LINE
  8
0
 10
-14.5179
 20
-10.3427
 11
-14.6745
 21
-10.067
  0
LINE
  8
0
 10
-14.6745
 20
-10.067
 11
-14.9126
 21
-9.9073
  0
LINE
  8
0
 10
-14.9126
 20
-9.9073
 11
-15.236
 21
-9.85408
  0
LINE
  8
0
 10
-15.236
 20
-9.85408
 11
-15.5544
 21
-9.91342
  0
LINE
  8
0
 10
-15.5544
 20
-9.91342
 11
-15.7989
 21
-10.0914
  0
LINE
  8
0
 10
-15.7989
 20
-10.0914
 11
-15.9586
 21
-10.3732
  0
LINE
  8
0
 10
-15.9586
 20
-10.3732
 11
-16.0226
 21
-10.7438
  0
LINE
  8
0
 10
-16.0226
 20
-10.7438
 11
-14.4386
 21
-10.7438
  0
LINE
  8
0
 10
-14.4386
 20
-10.7438
 11
-14.5179
 21
-10.3427
  0
LINE
  8
0
 10
12.6372
 20
-12.4825
 11
12.6372
 21
-10.1742
  0
LINE
  8
0
 10
12.6372
 20
-10.1742
 11
12.6332
 21
-9.76117
  0
LINE
  8
0
 10
12.6332
 20
-9.76117
 11
12.621
 21
-9.54756
  0
LINE
  8
0
 10
12.621
 20
-9.54756
 11
13.0821
 21
-9.54756
  0
LINE
  8
0
 10
13.0821
 20
-9.54756
 11
13.0848
 21
-9.57265
  0
LINE
  8
0
 10
13.0848
 20
-9.57265
 11
13.0875
 21
-9.6208
  0
LINE
  8
0
 10
13.0875
 20
-9.6208
 11
13.0906
 21
-9.68489
  0
LINE
  8
0
 10
13.0906
 20
-9.68489
 11
13.0943
 21
-9.7578
  0
LINE
  8
0
 10
13.0943
 20
-9.7578
 11
13.0987
 21
-9.86932
  0
LINE
  8
0
 10
13.0987
 20
-9.86932
 11
13.1038
 21
-10.0494
  0
LINE
  8
0
 10
13.1038
 20
-10.0494
 11
13.1119
 21
-10.0494
  0
LINE
  8
0
 10
13.1119
 20
-10.0494
 11
13.2933
 21
-9.78998
  0
LINE
  8
0
 10
13.2933
 20
-9.78998
 11
13.5011
 21
-9.61945
  0
LINE
  8
0
 10
13.5011
 20
-9.61945
 11
13.749
 21
-9.52486
  0
LINE
  8
0
 10
13.749
 20
-9.52486
 11
14.0505
 21
-9.49332
  0
LINE
  8
0
 10
14.0505
 20
-9.49332
 11
14.4685
 21
-9.55333
  0
LINE
  8
0
 10
14.4685
 20
-9.55333
 11
14.757
 21
-9.73335
  0
LINE
  8
0
 10
14.757
 20
-9.73335
 11
14.9249
 21
-10.0517
  0
LINE
  8
0
 10
14.9249
 20
-10.0517
 11
14.9808
 21
-10.5268
  0
LINE
  8
0
 10
14.9808
 20
-10.5268
 11
14.9808
 21
-12.4825
  0
LINE
  8
0
 10
14.9808
 20
-12.4825
 11
14.4899
 21
-12.4825
  0
LINE
  8
0
 10
14.4899
 20
-12.4825
 11
14.4899
 21
-10.6217
  0
LINE
  8
0
 10
14.4899
 20
-10.6217
 11
14.4756
 21
-10.364
  0
LINE
  8
0
 10
14.4756
 20
-10.364
 11
14.4329
 21
-10.1714
  0
LINE
  8
0
 10
14.4329
 20
-10.1714
 11
14.359
 21
-10.0338
  0
LINE
  8
0
 10
14.359
 20
-10.0338
 11
14.2511
 21
-9.94089
  0
LINE
  8
0
 10
14.2511
 20
-9.94089
 11
14.0972
 21
-9.88799
  0
LINE
  8
0
 10
14.0972
 20
-9.88799
 11
13.885
 21
-9.87036
  0
LINE
  8
0
 10
13.885
 20
-9.87036
 11
13.5697
 21
-9.93071
  0
LINE
  8
0
 10
13.5697
 20
-9.93071
 11
13.3289
 21
-10.1118
  0
LINE
  8
0
 10
13.3289
 20
-10.1118
 11
13.1764
 21
-10.4
  0
LINE
  8
0
 10
13.1764
 20
-10.4
 11
13.1255
 21
-10.7818
  0
LINE
  8
0
 10
13.1255
 20
-10.7818
 11
13.1255
 21
-12.4825
  0
LINE
  8
0
 10
13.1255
 20
-12.4825
 11
12.6372
 21
-12.4825
  0
LINE
  8
0
 10
-19.4197
 20
-13.6353
 11
-19.4197
 21
-10.147
  0
LINE
  8
0
 10
-19.4197
 20
-10.147
 11
-19.4238
 21
-9.77066
  0
LINE
  8
0
 10
-19.4238
 20
-9.77066
 11
-19.436
 21
-9.54756
  0
LINE
  8
0
 10
-19.436
 20
-9.54756
 11
-18.964
 21
-9.54756
  0
LINE
  8
0
 10
-18.964
 20
-9.54756
 11
-18.9606
 21
-9.57231
  0
LINE
  8
0
 10
-18.9606
 20
-9.57231
 11
-18.9559
 21
-9.62488
  0
LINE
  8
0
 10
-18.9559
 20
-9.62488
 11
-18.9501
 21
-9.7093
  0
LINE
  8
0
 10
-18.9501
 20
-9.7093
 11
-18.9436
 21
-9.82968
  0
LINE
  8
0
 10
-18.9436
 20
-9.82968
 11
-18.9386
 21
-9.9463
  0
LINE
  8
0
 10
-18.9386
 20
-9.9463
 11
-18.9369
 21
-10.0195
  0
LINE
  8
0
 10
-18.9369
 20
-10.0195
 11
-18.926
 21
-10.0195
  0
LINE
  8
0
 10
-18.926
 20
-10.0195
 11
-18.7748
 21
-9.78456
  0
LINE
  8
0
 10
-18.7748
 20
-9.78456
 11
-18.5815
 21
-9.62216
  0
LINE
  8
0
 10
-18.5815
 20
-9.62216
 11
-18.3333
 21
-9.52754
  0
LINE
  8
0
 10
-18.3333
 20
-9.52754
 11
-18.0173
 21
-9.496
  0
LINE
  8
0
 10
-18.0173
 20
-9.496
 11
-17.5433
 21
-9.58687
  0
LINE
  8
0
 10
-17.5433
 20
-9.58687
 11
-17.2063
 21
-9.85948
  0
LINE
  8
0
 10
-17.2063
 20
-9.85948
 11
-17.0049
 21
-10.3267
  0
LINE
  8
0
 10
-17.0049
 20
-10.3267
 11
-16.9377
 21
-11.0014
  0
LINE
  8
0
 10
-16.9377
 20
-11.0014
 11
-17.2076
 21
-12.1529
  0
LINE
  8
0
 10
-17.2076
 20
-12.1529
 11
-18.0173
 21
-12.5367
  0
LINE
  8
0
 10
-18.0173
 20
-12.5367
 11
-18.5842
 21
-12.4092
  0
LINE
  8
0
 10
-18.5842
 20
-12.4092
 11
-18.9287
 21
-12.0268
  0
LINE
  8
0
 10
-18.9287
 20
-12.0268
 11
-18.9423
 21
-12.0268
  0
LINE
  8
0
 10
-18.9423
 20
-12.0268
 11
-18.9342
 21
-12.1529
  0
LINE
  8
0
 10
-18.9342
 20
-12.1529
 11
-18.9315
 21
-12.4879
  0
LINE
  8
0
 10
-18.9315
 20
-12.4879
 11
-18.9315
 21
-13.6353
  0
LINE
  8
0
 10
-18.9315
 20
-13.6353
 11
-19.4197
 21
-13.6353
  0
LINE
  8
0
 10
-17.8332
 20
-12.1092
 11
-17.6172
 21
-11.9088
  0
LINE
  8
0
 10
-17.6172
 20
-11.9088
 11
-17.4921
 21
-11.5511
  0
LINE
  8
0
 10
-17.4921
 20
-11.5511
 11
-17.4504
 21
-11.0123
  0
LINE
  8
0
 10
-17.4504
 20
-11.0123
 11
-17.4918
 21
-10.4868
  0
LINE
  8
0
 10
-17.4918
 20
-10.4868
 11
-17.6159
 21
-10.1362
  0
LINE
  8
0
 10
-17.6159
 20
-10.1362
 11
-17.8302
 21
-9.93883
  0
LINE
  8
0
 10
-17.8302
 20
-9.93883
 11
-18.1421
 21
-9.87305
  0
LINE
  8
0
 10
-18.1421
 20
-9.87305
 11
-18.4008
 21
-9.90356
  0
LINE
  8
0
 10
-18.4008
 20
-9.90356
 11
-18.5965
 21
-9.99512
  0
LINE
  8
0
 10
-18.5965
 20
-9.99512
 11
-18.7409
 21
-10.1514
  0
LINE
  8
0
 10
-18.7409
 20
-10.1514
 11
-18.846
 21
-10.3762
  0
LINE
  8
0
 10
-18.846
 20
-10.3762
 11
-18.9101
 21
-10.6743
  0
LINE
  8
0
 10
-18.9101
 20
-10.6743
 11
-18.9315
 21
-11.0503
  0
LINE
  8
0
 10
-18.9315
 20
-11.0503
 11
-18.8853
 21
-11.5521
  0
LINE
  8
0
 10
-18.8853
 20
-11.5521
 11
-18.747
 21
-11.902
  0
LINE
  8
0
 10
-18.747
 20
-11.902
 11
-18.5049
 21
-12.1075
  0
LINE
  8
0
 10
-18.5049
 20
-12.1075
 11
-18.1475
 21
-12.176
  0
LINE
  8
0
 10
-18.1475
 20
-12.176
 11
-17.8332
 21
-12.1092
  0
LINE
  8
0
 10
1.99756
 20
-12.4916
 11
1.63779
 21
-12.3564
  0
LINE
  8
0
 10
1.63779
 20
-12.3564
 11
1.39267
 21
-12.1255
  0
LINE
  8
0
 10
1.39267
 20
-12.1255
 11
1.25127
 21
-11.7935
  0
LINE
  8
0
 10
1.25127
 20
-11.7935
 11
1.68259
 21
-11.7094
  0
LINE
  8
0
 10
1.68259
 20
-11.7094
 11
1.77818
 21
-11.9139
  0
LINE
  8
0
 10
1.77818
 20
-11.9139
 11
1.94023
 21
-12.0553
  0
LINE
  8
0
 10
1.94023
 20
-12.0553
 11
2.17352
 21
-12.1377
  0
LINE
  8
0
 10
2.17352
 20
-12.1377
 11
2.48276
 21
-12.1651
  0
LINE
  8
0
 10
2.48276
 20
-12.1651
 11
2.80453
 21
-12.1366
  0
LINE
  8
0
 10
2.80453
 20
-12.1366
 11
3.02663
 21
-12.0512
  0
LINE
  8
0
 10
3.02663
 20
-12.0512
 11
3.15581
 21
-11.9088
  0
LINE
  8
0
 10
3.15581
 20
-11.9088
 11
3.19887
 21
-11.7094
  0
LINE
  8
0
 10
3.19887
 20
-11.7094
 11
3.16904
 21
-11.5521
  0
LINE
  8
0
 10
3.16904
 20
-11.5521
 11
3.07951
 21
-11.4273
  0
LINE
  8
0
 10
3.07951
 20
-11.4273
 11
2.92354
 21
-11.3283
  0
LINE
  8
0
 10
2.92354
 20
-11.3283
 11
2.69435
 21
-11.2483
  0
LINE
  8
0
 10
2.69435
 20
-11.2483
 11
2.34444
 21
-11.1561
  0
LINE
  8
0
 10
2.34444
 20
-11.1561
 11
1.98468
 21
-11.0486
  0
LINE
  8
0
 10
1.98468
 20
-11.0486
 11
1.74631
 21
-10.9432
  0
LINE
  8
0
 10
1.74631
 20
-10.9432
 11
1.58797
 21
-10.8275
  0
LINE
  8
0
 10
1.58797
 20
-10.8275
 11
1.46828
 21
-10.6895
  0
LINE
  8
0
 10
1.46828
 20
-10.6895
 11
1.39301
 21
-10.5234
  0
LINE
  8
0
 10
1.39301
 20
-10.5234
 11
1.3679
 21
-10.3233
  0
LINE
  8
0
 10
1.3679
 20
-10.3233
 11
1.43945
 21
-9.9697
  0
LINE
  8
0
 10
1.43945
 20
-9.9697
 11
1.65407
 21
-9.71169
  0
LINE
  8
0
 10
1.65407
 20
-9.71169
 11
2.00571
 21
-9.554
  0
LINE
  8
0
 10
2.00571
 20
-9.554
 11
2.48819
 21
-9.50143
  0
LINE
  8
0
 10
2.48819
 20
-9.50143
 11
2.92387
 21
-9.54416
  0
LINE
  8
0
 10
2.92387
 20
-9.54416
 11
3.25987
 21
-9.67232
  0
LINE
  8
0
 10
3.25987
 20
-9.67232
 11
3.4935
 21
-9.89474
  0
LINE
  8
0
 10
3.4935
 20
-9.89474
 11
3.62199
 21
-10.2202
  0
LINE
  8
0
 10
3.62199
 20
-10.2202
 11
3.18259
 21
-10.2745
  0
LINE
  8
0
 10
3.18259
 20
-10.2745
 11
3.10767
 21
-10.1019
  0
LINE
  8
0
 10
3.10767
 20
-10.1019
 11
2.96423
 21
-9.97481
  0
LINE
  8
0
 10
2.96423
 20
-9.97481
 11
2.75638
 21
-9.89647
  0
LINE
  8
0
 10
2.75638
 20
-9.89647
 11
2.48819
 21
-9.87036
  0
LINE
  8
0
 10
2.48819
 20
-9.87036
 11
2.20067
 21
-9.89545
  0
LINE
  8
0
 10
2.20067
 20
-9.89545
 11
1.99991
 21
-9.97072
  0
LINE
  8
0
 10
1.99991
 20
-9.97072
 11
1.88193
 21
-10.0968
  0
LINE
  8
0
 10
1.88193
 20
-10.0968
 11
1.84259
 21
-10.2745
  0
LINE
  8
0
 10
1.84259
 20
-10.2745
 11
1.85886
 21
-10.3884
  0
LINE
  8
0
 10
1.85886
 20
-10.3884
 11
1.90767
 21
-10.4807
  0
LINE
  8
0
 10
1.90767
 20
-10.4807
 11
1.98839
 21
-10.5559
  0
LINE
  8
0
 10
1.98839
 20
-10.5559
 11
2.10027
 21
-10.619
  0
LINE
  8
0
 10
2.10027
 20
-10.619
 11
2.29831
 21
-10.6868
  0
LINE
  8
0
 10
2.29831
 20
-10.6868
 11
2.63739
 21
-10.7763
  0
LINE
  8
0
 10
2.63739
 20
-10.7763
 11
2.97102
 21
-10.8702
  0
LINE
  8
0
 10
2.97102
 20
-10.8702
 11
3.19615
 21
-10.9567
  0
LINE
  8
0
 10
3.19615
 20
-10.9567
 11
3.34906
 21
-11.0439
  0
LINE
  8
0
 10
3.34906
 20
-11.0439
 11
3.46603
 21
-11.1398
  0
LINE
  8
0
 10
3.46603
 20
-11.1398
 11
3.55385
 21
-11.248
  0
LINE
  8
0
 10
3.55385
 20
-11.248
 11
3.61928
 21
-11.3717
  0
LINE
  8
0
 10
3.61928
 20
-11.3717
 11
3.65999
 21
-11.5124
  0
LINE
  8
0
 10
3.65999
 20
-11.5124
 11
3.67355
 21
-11.6714
  0
LINE
  8
0
 10
3.67355
 20
-11.6714
 11
3.59521
 21
-12.039
  0
LINE
  8
0
 10
3.59521
 20
-12.039
 11
3.36023
 21
-12.3116
  0
LINE
  8
0
 10
3.36023
 20
-12.3116
 11
2.98422
 21
-12.4804
  0
LINE
  8
0
 10
2.98422
 20
-12.4804
 11
2.48276
 21
-12.5367
  0
LINE
  8
0
 10
2.48276
 20
-12.5367
 11
1.99756
 21
-12.4916
  0
LINE
  8
0
 10
11.252
 20
-12.4825
 11
11.252
 21
-11.8884
  0
LINE
  8
0
 10
11.252
 20
-11.8884
 11
11.7809
 21
-11.8884
  0
LINE
  8
0
 10
11.7809
 20
-11.8884
 11
11.7809
 21
-12.4825
  0
LINE
  8
0
 10
11.7809
 20
-12.4825
 11
11.252
 21
-12.4825
  0
ENDSEC
  0
SECTION
  2
OBJECTS
  0
DICTIONARY
  0
ENDSEC
  0
EOF
