  0
SECTION
  2
BLOCKS
  0
ENDSEC
  0
SECTION
  2
ENTITIES
  0
LINE
  8
0
 10
31.75
 20
15
 11
-31.75
 21
15
  0
LINE
  8
0
 10
-31.75
 20
15
 11
-31.75
 21
-15
  0
LINE
  8
0
 10
-31.75
 20
-15
 11
31.75
 21
-15
  0
LINE
  8
0
 10
31.75
 20
-15
 11
31.75
 21
15
  0
LINE
  8
0
 10
4.17117
 20
6.11041
 11
3.7036
 21
6.28941
  0
LINE
  8
0
 10
3.7036
 20
6.28941
 11
3.3269
 21
6.58136
  0
LINE
  8
0
 10
3.3269
 20
6.58136
 11
3.05124
 21
6.97974
  0
LINE
  8
0
 10
3.05124
 20
6.97974
 11
2.8824
 21
7.46902
  0
LINE
  8
0
 10
2.8824
 20
7.46902
 11
2.82613
 21
8.03358
  0
LINE
  8
0
 10
2.82613
 20
8.03358
 11
2.95157
 21
8.85036
  0
LINE
  8
0
 10
2.95157
 20
8.85036
 11
3.32793
 21
9.4671
  0
LINE
  8
0
 10
3.32793
 20
9.4671
 11
3.92805
 21
9.85468
  0
LINE
  8
0
 10
3.92805
 20
9.85468
 11
4.72488
 21
9.98386
  0
LINE
  8
0
 10
4.72488
 20
9.98386
 11
5.26939
 21
9.92587
  0
LINE
  8
0
 10
5.26939
 20
9.92587
 11
5.7366
 21
9.75194
  0
LINE
  8
0
 10
5.7366
 20
9.75194
 11
6.11467
 21
9.46745
  0
LINE
  8
0
 10
6.11467
 20
9.46745
 11
6.39168
 21
9.07787
  0
LINE
  8
0
 10
6.39168
 20
9.07787
 11
6.56157
 21
8.59573
  0
LINE
  8
0
 10
6.56157
 20
8.59573
 11
6.61819
 21
8.03358
  0
LINE
  8
0
 10
6.61819
 20
8.03358
 11
6.56088
 21
7.47141
  0
LINE
  8
0
 10
6.56088
 20
7.47141
 11
6.38896
 21
6.98383
  0
LINE
  8
0
 10
6.38896
 20
6.98383
 11
6.10992
 21
6.58575
  0
LINE
  8
0
 10
6.10992
 20
6.58575
 11
5.7312
 21
6.29214
  0
LINE
  8
0
 10
5.7312
 20
6.29214
 11
5.26398
 21
6.11108
  0
LINE
  8
0
 10
5.26398
 20
6.11108
 11
4.71944
 21
6.05074
  0
LINE
  8
0
 10
4.71944
 20
6.05074
 11
4.17117
 21
6.11041
  0
LINE
  8
0
 10
5.30431
 20
6.57323
 11
5.73524
 21
6.87938
  0
LINE
  8
0
 10
5.73524
 20
6.87938
 11
6.00075
 21
7.37206
  0
LINE
  8
0
 10
6.00075
 20
7.37206
 11
6.08923
 21
8.03358
  0
LINE
  8
0
 10
6.08923
 20
8.03358
 11
6.00008
 21
8.67032
  0
LINE
  8
0
 10
6.00008
 20
8.67032
 11
5.73256
 21
9.15382
  0
LINE
  8
0
 10
5.73256
 20
9.15382
 11
5.30231
 21
9.45898
  0
LINE
  8
0
 10
5.30231
 20
9.45898
 11
4.72488
 21
9.5607
  0
LINE
  8
0
 10
4.72488
 20
9.5607
 11
4.14304
 21
9.46034
  0
LINE
  8
0
 10
4.14304
 20
9.46034
 11
3.71036
 21
9.15926
  0
LINE
  8
0
 10
3.71036
 20
9.15926
 11
3.44183
 21
8.67712
  0
LINE
  8
0
 10
3.44183
 20
8.67712
 11
3.35233
 21
8.03358
  0
LINE
  8
0
 10
3.35233
 20
8.03358
 11
3.44286
 21
7.38901
  0
LINE
  8
0
 10
3.44286
 20
7.38901
 11
3.71445
 21
6.89294
  0
LINE
  8
0
 10
3.71445
 20
6.89294
 11
4.14674
 21
6.57661
  0
LINE
  8
0
 10
4.14674
 20
6.57661
 11
4.71944
 21
6.47118
  0
LINE
  8
0
 10
4.71944
 20
6.47118
 11
5.30431
 21
6.57323
  0
LINE
  8
0
 10
-5.13583
 20
6.11041
 11
-5.61121
 21
6.28941
  0
LINE
  8
0
 10
-5.61121
 20
6.28941
 11
-5.994
 21
6.58069
  0
LINE
  8
0
 10
-5.994
 20
6.58069
 11
-6.2744
 21
6.97707
  0
LINE
  8
0
 10
-6.2744
 20
6.97707
 11
-6.4463
 21
7.46565
  0
LINE
  8
0
 10
-6.4463
 20
7.46565
 11
-6.5036
 21
8.03358
  0
LINE
  8
0
 10
-6.5036
 20
8.03358
 11
-6.37883
 21
8.85884
  0
LINE
  8
0
 10
-6.37883
 20
8.85884
 11
-6.00452
 21
9.47391
  0
LINE
  8
0
 10
-6.00452
 20
9.47391
 11
-5.40437
 21
9.85637
  0
LINE
  8
0
 10
-5.40437
 20
9.85637
 11
-4.60216
 21
9.98386
  0
LINE
  8
0
 10
-4.60216
 20
9.98386
 11
-4.02711
 21
9.93028
  0
LINE
  8
0
 10
-4.02711
 20
9.93028
 11
-3.5714
 21
9.76958
  0
LINE
  8
0
 10
-3.5714
 20
9.76958
 11
-3.22079
 21
9.49088
  0
LINE
  8
0
 10
-3.22079
 20
9.49088
 11
-2.96107
 21
9.0833
  0
LINE
  8
0
 10
-2.96107
 20
9.0833
 11
-3.45476
 21
8.93681
  0
LINE
  8
0
 10
-3.45476
 20
8.93681
 11
-3.64838
 21
9.21825
  0
LINE
  8
0
 10
-3.64838
 20
9.21825
 11
-3.90369
 21
9.4115
  0
LINE
  8
0
 10
-3.90369
 20
9.4115
 11
-4.22478
 21
9.52341
  0
LINE
  8
0
 10
-4.22478
 20
9.52341
 11
-4.61572
 21
9.5607
  0
LINE
  8
0
 10
-4.61572
 20
9.5607
 11
-5.19958
 21
9.46066
  0
LINE
  8
0
 10
-5.19958
 20
9.46066
 11
-5.62749
 21
9.16058
  0
LINE
  8
0
 10
-5.62749
 20
9.16058
 11
-5.88992
 21
8.67879
  0
LINE
  8
0
 10
-5.88992
 20
8.67879
 11
-5.9774
 21
8.03358
  0
LINE
  8
0
 10
-5.9774
 20
8.03358
 11
-5.88451
 21
7.38564
  0
LINE
  8
0
 10
-5.88451
 20
7.38564
 11
-5.6058
 21
6.89026
  0
LINE
  8
0
 10
-5.6058
 20
6.89026
 11
-5.16296
 21
6.57594
  0
LINE
  8
0
 10
-5.16296
 20
6.57594
 11
-4.57771
 21
6.47118
  0
LINE
  8
0
 10
-4.57771
 20
6.47118
 11
-4.21596
 21
6.49966
  0
LINE
  8
0
 10
-4.21596
 20
6.49966
 11
-3.87929
 21
6.5851
  0
LINE
  8
0
 10
-3.87929
 20
6.5851
 11
-3.58598
 21
6.71936
  0
LINE
  8
0
 10
-3.58598
 20
6.71936
 11
-3.3544
 21
6.8943
  0
LINE
  8
0
 10
-3.3544
 20
6.8943
 11
-3.3544
 21
7.5833
  0
LINE
  8
0
 10
-3.3544
 20
7.5833
 11
-4.49635
 21
7.5833
  0
LINE
  8
0
 10
-4.49635
 20
7.5833
 11
-4.49635
 21
8.0173
  0
LINE
  8
0
 10
-4.49635
 20
8.0173
 11
-2.877
 21
8.0173
  0
LINE
  8
0
 10
-2.877
 20
8.0173
 11
-2.877
 21
6.69902
  0
LINE
  8
0
 10
-2.877
 20
6.69902
 11
-3.21506
 21
6.42471
  0
LINE
  8
0
 10
-3.21506
 20
6.42471
 11
-3.6216
 21
6.22026
  0
LINE
  8
0
 10
-3.6216
 20
6.22026
 11
-4.08101
 21
6.09312
  0
LINE
  8
0
 10
-4.08101
 20
6.09312
 11
-4.57771
 21
6.05074
  0
LINE
  8
0
 10
-4.57771
 20
6.05074
 11
-5.13583
 21
6.11041
  0
LINE
  8
0
 10
1.56833
 20
6.10498
 11
1.56833
 21
9.9269
  0
LINE
  8
0
 10
1.56833
 20
9.9269
 11
2.08641
 21
9.9269
  0
LINE
  8
0
 10
2.08641
 20
9.9269
 11
2.08641
 21
6.10498
  0
LINE
  8
0
 10
2.08641
 20
6.10498
 11
1.56833
 21
6.10498
  0
LINE
  8
0
 10
-2.10728
 20
6.10498
 11
-2.10728
 21
9.9269
  0
LINE
  8
0
 10
-2.10728
 20
9.9269
 11
-0.498795
 21
9.9269
  0
LINE
  8
0
 10
-0.498795
 20
9.9269
 11
0.0714874
 21
9.85162
  0
LINE
  8
0
 10
0.0714874
 20
9.85162
 11
0.496658
 21
9.62578
  0
LINE
  8
0
 10
0.496658
 20
9.62578
 11
0.761139
 21
9.26299
  0
LINE
  8
0
 10
0.761139
 20
9.26299
 11
0.849304
 21
8.77678
  0
LINE
  8
0
 10
0.849304
 20
8.77678
 11
0.760803
 21
8.2899
  0
LINE
  8
0
 10
0.760803
 20
8.2899
 11
0.4953
 21
7.91422
  0
LINE
  8
0
 10
0.4953
 20
7.91422
 11
0.0779419
 21
7.67416
  0
LINE
  8
0
 10
0.0779419
 20
7.67416
 11
-0.466248
 21
7.59415
  0
LINE
  8
0
 10
-0.466248
 20
7.59415
 11
-1.5892
 21
7.59415
  0
LINE
  8
0
 10
-1.5892
 20
7.59415
 11
-1.5892
 21
6.10498
  0
LINE
  8
0
 10
-1.5892
 20
6.10498
 11
-2.10728
 21
6.10498
  0
LINE
  8
0
 10
0.111511
 20
8.19565
 11
0.328506
 21
8.77138
  0
LINE
  8
0
 10
0.328506
 20
8.77138
 11
0.106079
 21
9.32677
  0
LINE
  8
0
 10
0.106079
 20
9.32677
 11
-0.561157
 21
9.5119
  0
LINE
  8
0
 10
-0.561157
 20
9.5119
 11
-1.5892
 21
9.5119
  0
LINE
  8
0
 10
-1.5892
 20
9.5119
 11
-1.5892
 21
8.00374
  0
LINE
  8
0
 10
-1.5892
 20
8.00374
 11
-0.539474
 21
8.00374
  0
LINE
  8
0
 10
-0.539474
 20
8.00374
 11
0.111511
 21
8.19565
  0
LINE
  8
0
 10
-20.31
 20
-5.04999
 11
-20.31
 21
4.04999
  0
LINE
  8
0
 10
-20.31
 20
4.04999
 11
20.31
 21
4.04999
  0
LINE
  8
0
 10
20.31
 20
4.04999
 11
20.31
 21
-5.04999
  0
LINE
  8
0
 10
20.31
 20
-5.04999
 11
-20.31
 21
-5.04999
  0
LINE
  8
0
 10
9.91368
 20
-10.9825
 11
9.91368
 21
-6.95714
  0
LINE
  8
0
 10
9.91368
 20
-6.95714
 11
10.4019
 21
-6.95714
  0
LINE
  8
0
 10
10.4019
 20
-6.95714
 11
10.4019
 21
-10.9825
  0
LINE
  8
0
 10
10.4019
 20
-10.9825
 11
9.91368
 21
-10.9825
  0
LINE
  8
0
 10
8.70833
 20
-10.9825
 11
8.70833
 21
-6.95714
  0
LINE
  8
0
 10
8.70833
 20
-6.95714
 11
9.19658
 21
-6.95714
  0
LINE
  8
0
 10
9.19658
 20
-6.95714
 11
9.19658
 21
-10.9825
  0
LINE
  8
0
 10
9.19658
 20
-10.9825
 11
8.70833
 21
-10.9825
  0
LINE
  8
0
 10
-7.25974
 20
-11.6854
 11
-7.79036
 21
-11.4911
  0
LINE
  8
0
 10
-7.79036
 20
-11.4911
 11
-8.22232
 21
-11.1771
  0
LINE
  8
0
 10
-8.22232
 20
-11.1771
 11
-8.539
 21
-10.7533
  0
LINE
  8
0
 10
-8.539
 20
-10.7533
 11
-8.73328
 21
-10.2382
  0
LINE
  8
0
 10
-8.73328
 20
-10.2382
 11
-8.79803
 21
-9.65063
  0
LINE
  8
0
 10
-8.79803
 20
-9.65063
 11
-8.71362
 21
-8.92574
  0
LINE
  8
0
 10
-8.71362
 20
-8.92574
 11
-8.46036
 21
-8.27
  0
LINE
  8
0
 10
-8.46036
 20
-8.27
 11
-8.05721
 21
-7.71764
  0
LINE
  8
0
 10
-8.05721
 20
-7.71764
 11
-7.52319
 21
-7.30296
  0
LINE
  8
0
 10
-7.52319
 20
-7.30296
 11
-6.88777
 21
-7.04359
  0
LINE
  8
0
 10
-6.88777
 20
-7.04359
 11
-6.18048
 21
-6.95714
  0
LINE
  8
0
 10
-6.18048
 20
-6.95714
 11
-5.57152
 21
-7.01851
  0
LINE
  8
0
 10
-5.57152
 20
-7.01851
 11
-5.05208
 21
-7.20261
  0
LINE
  8
0
 10
-5.05208
 20
-7.20261
 11
-4.63335
 21
-7.4986
  0
LINE
  8
0
 10
-4.63335
 20
-7.4986
 11
-4.32652
 21
-7.89565
  0
LINE
  8
0
 10
-4.32652
 20
-7.89565
 11
-4.13832
 21
-8.37915
  0
LINE
  8
0
 10
-4.13832
 20
-8.37915
 11
-4.07559
 21
-8.93456
  0
LINE
  8
0
 10
-4.07559
 20
-8.93456
 11
-4.11459
 21
-9.41501
  0
LINE
  8
0
 10
-4.11459
 20
-9.41501
 11
-4.23155
 21
-9.84732
  0
LINE
  8
0
 10
-4.23155
 20
-9.84732
 11
-4.41805
 21
-10.2091
  0
LINE
  8
0
 10
-4.41805
 20
-10.2091
 11
-4.66556
 21
-10.478
  0
LINE
  8
0
 10
-4.66556
 20
-10.478
 11
-4.96021
 21
-10.6448
  0
LINE
  8
0
 10
-4.96021
 20
-10.6448
 11
-5.28807
 21
-10.7004
  0
LINE
  8
0
 10
-5.28807
 20
-10.7004
 11
-5.52609
 21
-10.6705
  0
LINE
  8
0
 10
-5.52609
 20
-10.6705
 11
-5.70308
 21
-10.581
  0
LINE
  8
0
 10
-5.70308
 20
-10.581
 11
-5.81294
 21
-10.4318
  0
LINE
  8
0
 10
-5.81294
 20
-10.4318
 11
-5.84956
 21
-10.223
  0
LINE
  8
0
 10
-5.84956
 20
-10.223
 11
-5.84143
 21
-10.0331
  0
LINE
  8
0
 10
-5.84143
 20
-10.0331
 11
-5.85768
 21
-10.0331
  0
LINE
  8
0
 10
-5.85768
 20
-10.0331
 11
-6.05807
 21
-10.325
  0
LINE
  8
0
 10
-6.05807
 20
-10.325
 11
-6.30119
 21
-10.5336
  0
LINE
  8
0
 10
-6.30119
 20
-10.5336
 11
-6.57616
 21
-10.6587
  0
LINE
  8
0
 10
-6.57616
 20
-10.6587
 11
-6.87216
 21
-10.7004
  0
LINE
  8
0
 10
-6.87216
 20
-10.7004
 11
-7.25023
 21
-10.6312
  0
LINE
  8
0
 10
-7.25023
 20
-10.6312
 11
-7.53268
 21
-10.4237
  0
LINE
  8
0
 10
-7.53268
 20
-10.4237
 11
-7.70863
 21
-10.0935
  0
LINE
  8
0
 10
-7.70863
 20
-10.0935
 11
-7.76727
 21
-9.65608
  0
LINE
  8
0
 10
-7.76727
 20
-9.65608
 11
-7.72354
 21
-9.22681
  0
LINE
  8
0
 10
-7.72354
 20
-9.22681
 11
-7.59236
 21
-8.82877
  0
LINE
  8
0
 10
-7.59236
 20
-8.82877
 11
-7.38248
 21
-8.48563
  0
LINE
  8
0
 10
-7.38248
 20
-8.48563
 11
-7.10275
 21
-8.22116
  0
LINE
  8
0
 10
-7.10275
 20
-8.22116
 11
-6.77113
 21
-8.05229
  0
LINE
  8
0
 10
-6.77113
 20
-8.05229
 11
-6.40564
 21
-7.996
  0
LINE
  8
0
 10
-6.40564
 20
-7.996
 11
-5.9045
 21
-8.11942
  0
LINE
  8
0
 10
-5.9045
 20
-8.11942
 11
-5.58916
 21
-8.48969
  0
LINE
  8
0
 10
-5.58916
 20
-8.48969
 11
-5.57288
 21
-8.48969
  0
LINE
  8
0
 10
-5.57288
 20
-8.48969
 11
-5.46707
 21
-8.05568
  0
LINE
  8
0
 10
-5.46707
 20
-8.05568
 11
-5.04396
 21
-8.05568
  0
LINE
  8
0
 10
-5.04396
 20
-8.05568
 11
-5.3586
 21
-9.42821
  0
LINE
  8
0
 10
-5.3586
 20
-9.42821
 11
-5.43387
 21
-9.8222
  0
LINE
  8
0
 10
-5.43387
 20
-9.8222
 11
-5.45895
 21
-10.1145
  0
LINE
  8
0
 10
-5.45895
 20
-10.1145
 11
-5.40402
 21
-10.3057
  0
LINE
  8
0
 10
-5.40402
 20
-10.3057
 11
-5.23924
 21
-10.3694
  0
LINE
  8
0
 10
-5.23924
 20
-10.3694
 11
-5.03072
 21
-10.3226
  0
LINE
  8
0
 10
-5.03072
 20
-10.3226
 11
-4.83916
 21
-10.1823
  0
LINE
  8
0
 10
-4.83916
 20
-10.1823
 11
-4.67538
 21
-9.95985
  0
LINE
  8
0
 10
-4.67538
 20
-9.95985
 11
-4.55028
 21
-9.66692
  0
LINE
  8
0
 10
-4.55028
 20
-9.66692
 11
-4.47093
 21
-9.32108
  0
LINE
  8
0
 10
-4.47093
 20
-9.32108
 11
-4.44447
 21
-8.93996
  0
LINE
  8
0
 10
-4.44447
 20
-8.93996
 11
-4.4967
 21
-8.4819
  0
LINE
  8
0
 10
-4.4967
 20
-8.4819
 11
-4.65335
 21
-8.07877
  0
LINE
  8
0
 10
-4.65335
 20
-8.07877
 11
-4.90833
 21
-7.74648
  0
LINE
  8
0
 10
-4.90833
 20
-7.74648
 11
-5.25552
 21
-7.50101
  0
LINE
  8
0
 10
-5.25552
 20
-7.50101
 11
-5.68205
 21
-7.34944
  0
LINE
  8
0
 10
-5.68205
 20
-7.34944
 11
-6.17503
 21
-7.29892
  0
LINE
  8
0
 10
-6.17503
 20
-7.29892
 11
-6.7935
 21
-7.37148
  0
LINE
  8
0
 10
-6.7935
 20
-7.37148
 11
-7.336
 21
-7.58916
  0
LINE
  8
0
 10
-7.336
 20
-7.58916
 11
-7.78629
 21
-7.94347
  0
LINE
  8
0
 10
-7.78629
 20
-7.94347
 11
-8.12808
 21
-8.42596
  0
LINE
  8
0
 10
-8.12808
 20
-8.42596
 11
-8.34372
 21
-9.00542
  0
LINE
  8
0
 10
-8.34372
 20
-9.00542
 11
-8.4156
 21
-9.65063
  0
LINE
  8
0
 10
-8.4156
 20
-9.65063
 11
-8.36237
 21
-10.1433
  0
LINE
  8
0
 10
-8.36237
 20
-10.1433
 11
-8.20268
 21
-10.5743
  0
LINE
  8
0
 10
-8.20268
 20
-10.5743
 11
-7.94226
 21
-10.9279
  0
LINE
  8
0
 10
-7.94226
 20
-10.9279
 11
-7.58691
 21
-11.1886
  0
LINE
  8
0
 10
-7.58691
 20
-11.1886
 11
-7.15054
 21
-11.3493
  0
LINE
  8
0
 10
-7.15054
 20
-11.3493
 11
-6.64703
 21
-11.4029
  0
LINE
  8
0
 10
-6.64703
 20
-11.4029
 11
-6.25101
 21
-11.3775
  0
LINE
  8
0
 10
-6.25101
 20
-11.3775
 11
-5.84956
 21
-11.3012
  0
LINE
  8
0
 10
-5.84956
 20
-11.3012
 11
-5.43794
 21
-11.1659
  0
LINE
  8
0
 10
-5.43794
 20
-11.1659
 11
-5.0114
 21
-10.9635
  0
LINE
  8
0
 10
-5.0114
 20
-10.9635
 11
-4.8622
 21
-11.2673
  0
LINE
  8
0
 10
-4.8622
 20
-11.2673
 11
-5.27213
 21
-11.4751
  0
LINE
  8
0
 10
-5.27213
 20
-11.4751
 11
-5.71527
 21
-11.6267
  0
LINE
  8
0
 10
-5.71527
 20
-11.6267
 11
-6.1781
 21
-11.7193
  0
LINE
  8
0
 10
-6.1781
 20
-11.7193
 11
-6.64703
 21
-11.7501
  0
LINE
  8
0
 10
-6.64703
 20
-11.7501
 11
-7.25974
 21
-11.6854
  0
LINE
  8
0
 10
-6.46869
 20
-10.2738
 11
-6.17236
 21
-10.0602
  0
LINE
  8
0
 10
-6.17236
 20
-10.0602
 11
-5.93365
 21
-9.74014
  0
LINE
  8
0
 10
-5.93365
 20
-9.74014
 11
-5.78175
 21
-9.34956
  0
LINE
  8
0
 10
-5.78175
 20
-9.34956
 11
-5.73495
 21
-9.12645
  0
LINE
  8
0
 10
-5.73495
 20
-9.12645
 11
-5.71936
 21
-8.95624
  0
LINE
  8
0
 10
-5.71936
 20
-8.95624
 11
-5.76411
 21
-8.70634
  0
LINE
  8
0
 10
-5.76411
 20
-8.70634
 11
-5.89839
 21
-8.51004
  0
LINE
  8
0
 10
-5.89839
 20
-8.51004
 11
-6.10725
 21
-8.3829
  0
LINE
  8
0
 10
-6.10725
 20
-8.3829
 11
-6.37579
 21
-8.34052
  0
LINE
  8
0
 10
-6.37579
 20
-8.34052
 11
-6.63449
 21
-8.38358
  0
LINE
  8
0
 10
-6.63449
 20
-8.38358
 11
-6.86267
 21
-8.51276
  0
LINE
  8
0
 10
-6.86267
 20
-8.51276
 11
-7.05289
 21
-8.71823
  0
LINE
  8
0
 10
-7.05289
 20
-8.71823
 11
-7.19768
 21
-8.99016
  0
LINE
  8
0
 10
-7.19768
 20
-8.99016
 11
-7.28922
 21
-9.30786
  0
LINE
  8
0
 10
-7.28922
 20
-9.30786
 11
-7.31972
 21
-9.65063
  0
LINE
  8
0
 10
-7.31972
 20
-9.65063
 11
-7.28751
 21
-9.94089
  0
LINE
  8
0
 10
-7.28751
 20
-9.94089
 11
-7.19087
 21
-10.1606
  0
LINE
  8
0
 10
-7.19087
 20
-10.1606
 11
-7.02711
 21
-10.2989
  0
LINE
  8
0
 10
-7.02711
 20
-10.2989
 11
-6.79352
 21
-10.345
  0
LINE
  8
0
 10
-6.79352
 20
-10.345
 11
-6.46869
 21
-10.2738
  0
LINE
  8
0
 10
18.8563
 20
-10.8597
 11
18.7098
 21
-10.3613
  0
LINE
  8
0
 10
18.7098
 20
-10.3613
 11
18.7098
 21
-8.40288
  0
LINE
  8
0
 10
18.7098
 20
-8.40288
 11
18.3708
 21
-8.40288
  0
LINE
  8
0
 10
18.3708
 20
-8.40288
 11
18.3708
 21
-8.04756
  0
LINE
  8
0
 10
18.3708
 20
-8.04756
 11
18.7288
 21
-8.04756
  0
LINE
  8
0
 10
18.7288
 20
-8.04756
 11
18.8726
 21
-7.39111
  0
LINE
  8
0
 10
18.8726
 20
-7.39111
 11
19.1981
 21
-7.39111
  0
LINE
  8
0
 10
19.1981
 20
-7.39111
 11
19.1981
 21
-8.04756
  0
LINE
  8
0
 10
19.1981
 20
-8.04756
 11
19.7406
 21
-8.04756
  0
LINE
  8
0
 10
19.7406
 20
-8.04756
 11
19.7406
 21
-8.40288
  0
LINE
  8
0
 10
19.7406
 20
-8.40288
 11
19.1981
 21
-8.40288
  0
LINE
  8
0
 10
19.1981
 20
-8.40288
 11
19.1981
 21
-10.2555
  0
LINE
  8
0
 10
19.1981
 20
-10.2555
 11
19.2154
 21
-10.4356
  0
LINE
  8
0
 10
19.2154
 20
-10.4356
 11
19.2672
 21
-10.5526
  0
LINE
  8
0
 10
19.2672
 20
-10.5526
 11
19.3618
 21
-10.6166
  0
LINE
  8
0
 10
19.3618
 20
-10.6166
 11
19.5073
 21
-10.638
  0
LINE
  8
0
 10
19.5073
 20
-10.638
 11
19.6266
 21
-10.6285
  0
LINE
  8
0
 10
19.6266
 20
-10.6285
 11
19.7894
 21
-10.6
  0
LINE
  8
0
 10
19.7894
 20
-10.6
 11
19.7894
 21
-10.9608
  0
LINE
  8
0
 10
19.7894
 20
-10.9608
 11
19.5453
 21
-11.0096
  0
LINE
  8
0
 10
19.5453
 20
-11.0096
 11
19.2957
 21
-11.0259
  0
LINE
  8
0
 10
19.2957
 20
-11.0259
 11
18.8563
 21
-10.8597
  0
LINE
  8
0
 10
4.379
 20
-10.8597
 11
4.23253
 21
-10.3613
  0
LINE
  8
0
 10
4.23253
 20
-10.3613
 11
4.23253
 21
-8.40288
  0
LINE
  8
0
 10
4.23253
 20
-8.40288
 11
3.89345
 21
-8.40288
  0
LINE
  8
0
 10
3.89345
 20
-8.40288
 11
3.89345
 21
-8.04756
  0
LINE
  8
0
 10
3.89345
 20
-8.04756
 11
4.25148
 21
-8.04756
  0
LINE
  8
0
 10
4.25148
 20
-8.04756
 11
4.39529
 21
-7.39111
  0
LINE
  8
0
 10
4.39529
 20
-7.39111
 11
4.72076
 21
-7.39111
  0
LINE
  8
0
 10
4.72076
 20
-7.39111
 11
4.72076
 21
-8.04756
  0
LINE
  8
0
 10
4.72076
 20
-8.04756
 11
5.26329
 21
-8.04756
  0
LINE
  8
0
 10
5.26329
 20
-8.04756
 11
5.26329
 21
-8.40288
  0
LINE
  8
0
 10
5.26329
 20
-8.40288
 11
4.72076
 21
-8.40288
  0
LINE
  8
0
 10
4.72076
 20
-8.40288
 11
4.72076
 21
-10.2555
  0
LINE
  8
0
 10
4.72076
 20
-10.2555
 11
4.73805
 21
-10.4356
  0
LINE
  8
0
 10
4.73805
 20
-10.4356
 11
4.78993
 21
-10.5526
  0
LINE
  8
0
 10
4.78993
 20
-10.5526
 11
4.88452
 21
-10.6166
  0
LINE
  8
0
 10
4.88452
 20
-10.6166
 11
5.03001
 21
-10.638
  0
LINE
  8
0
 10
5.03001
 20
-10.638
 11
5.14935
 21
-10.6285
  0
LINE
  8
0
 10
5.14935
 20
-10.6285
 11
5.31209
 21
-10.6
  0
LINE
  8
0
 10
5.31209
 20
-10.6
 11
5.31209
 21
-10.9608
  0
LINE
  8
0
 10
5.31209
 20
-10.9608
 11
5.06796
 21
-11.0096
  0
LINE
  8
0
 10
5.06796
 20
-11.0096
 11
4.81841
 21
-11.0259
  0
LINE
  8
0
 10
4.81841
 20
-11.0259
 11
4.379
 21
-10.8597
  0
LINE
  8
0
 10
-13.1898
 20
-10.8597
 11
-13.3362
 21
-10.3613
  0
LINE
  8
0
 10
-13.3362
 20
-10.3613
 11
-13.3362
 21
-8.40288
  0
LINE
  8
0
 10
-13.3362
 20
-8.40288
 11
-13.6753
 21
-8.40288
  0
LINE
  8
0
 10
-13.6753
 20
-8.40288
 11
-13.6753
 21
-8.04756
  0
LINE
  8
0
 10
-13.6753
 20
-8.04756
 11
-13.3173
 21
-8.04756
  0
LINE
  8
0
 10
-13.3173
 20
-8.04756
 11
-13.1735
 21
-7.39111
  0
LINE
  8
0
 10
-13.1735
 20
-7.39111
 11
-12.848
 21
-7.39111
  0
LINE
  8
0
 10
-12.848
 20
-7.39111
 11
-12.848
 21
-8.04756
  0
LINE
  8
0
 10
-12.848
 20
-8.04756
 11
-12.3055
 21
-8.04756
  0
LINE
  8
0
 10
-12.3055
 20
-8.04756
 11
-12.3055
 21
-8.40288
  0
LINE
  8
0
 10
-12.3055
 20
-8.40288
 11
-12.848
 21
-8.40288
  0
LINE
  8
0
 10
-12.848
 20
-8.40288
 11
-12.848
 21
-10.2555
  0
LINE
  8
0
 10
-12.848
 20
-10.2555
 11
-12.8307
 21
-10.4356
  0
LINE
  8
0
 10
-12.8307
 20
-10.4356
 11
-12.7788
 21
-10.5526
  0
LINE
  8
0
 10
-12.7788
 20
-10.5526
 11
-12.6842
 21
-10.6166
  0
LINE
  8
0
 10
-12.6842
 20
-10.6166
 11
-12.5388
 21
-10.638
  0
LINE
  8
0
 10
-12.5388
 20
-10.638
 11
-12.4194
 21
-10.6285
  0
LINE
  8
0
 10
-12.4194
 20
-10.6285
 11
-12.2567
 21
-10.6
  0
LINE
  8
0
 10
-12.2567
 20
-10.6
 11
-12.2567
 21
-10.9608
  0
LINE
  8
0
 10
-12.2567
 20
-10.9608
 11
-12.5008
 21
-11.0096
  0
LINE
  8
0
 10
-12.5008
 20
-11.0096
 11
-12.7504
 21
-11.0259
  0
LINE
  8
0
 10
-12.7504
 20
-11.0259
 11
-13.1898
 21
-10.8597
  0
LINE
  8
0
 10
-15.7822
 20
-10.9397
 11
-16.2003
 21
-10.6488
  0
LINE
  8
0
 10
-16.2003
 20
-10.6488
 11
-16.4556
 21
-10.1667
  0
LINE
  8
0
 10
-16.4556
 20
-10.1667
 11
-16.5407
 21
-9.49603
  0
LINE
  8
0
 10
-16.5407
 20
-9.49603
 11
-16.4556
 21
-8.85385
  0
LINE
  8
0
 10
-16.4556
 20
-8.85385
 11
-16.2003
 21
-8.3812
  0
LINE
  8
0
 10
-16.2003
 20
-8.3812
 11
-15.787
 21
-8.09029
  0
LINE
  8
0
 10
-15.787
 20
-8.09029
 11
-15.2279
 21
-7.99332
  0
LINE
  8
0
 10
-15.2279
 20
-7.99332
 11
-14.2575
 21
-8.38324
  0
LINE
  8
0
 10
-14.2575
 20
-8.38324
 11
-13.934
 21
-9.55299
  0
LINE
  8
0
 10
-13.934
 20
-9.55299
 11
-13.934
 21
-9.61809
  0
LINE
  8
0
 10
-13.934
 20
-9.61809
 11
-16.0281
 21
-9.61809
  0
LINE
  8
0
 10
-16.0281
 20
-9.61809
 11
-15.9759
 21
-10.065
  0
LINE
  8
0
 10
-15.9759
 20
-10.065
 11
-15.8192
 21
-10.3966
  0
LINE
  8
0
 10
-15.8192
 20
-10.3966
 11
-15.5622
 21
-10.6021
  0
LINE
  8
0
 10
-15.5622
 20
-10.6021
 11
-15.2089
 21
-10.6706
  0
LINE
  8
0
 10
-15.2089
 20
-10.6706
 11
-14.923
 21
-10.6387
  0
LINE
  8
0
 10
-14.923
 20
-10.6387
 11
-14.7003
 21
-10.5431
  0
LINE
  8
0
 10
-14.7003
 20
-10.5431
 11
-14.5399
 21
-10.3986
  0
LINE
  8
0
 10
-14.5399
 20
-10.3986
 11
-14.4412
 21
-10.2203
  0
LINE
  8
0
 10
-14.4412
 20
-10.2203
 11
-14.0127
 21
-10.3423
  0
LINE
  8
0
 10
-14.0127
 20
-10.3423
 11
-14.4433
 21
-10.8631
  0
LINE
  8
0
 10
-14.4433
 20
-10.8631
 11
-15.2089
 21
-11.0367
  0
LINE
  8
0
 10
-15.2089
 20
-11.0367
 11
-15.7822
 21
-10.9397
  0
LINE
  8
0
 10
-14.5179
 20
-8.84265
 11
-14.6745
 21
-8.567
  0
LINE
  8
0
 10
-14.6745
 20
-8.567
 11
-14.9126
 21
-8.4073
  0
LINE
  8
0
 10
-14.9126
 20
-8.4073
 11
-15.236
 21
-8.35408
  0
LINE
  8
0
 10
-15.236
 20
-8.35408
 11
-15.5544
 21
-8.41342
  0
LINE
  8
0
 10
-15.5544
 20
-8.41342
 11
-15.7989
 21
-8.59145
  0
LINE
  8
0
 10
-15.7989
 20
-8.59145
 11
-15.9586
 21
-8.87318
  0
LINE
  8
0
 10
-15.9586
 20
-8.87318
 11
-16.0226
 21
-9.24376
  0
LINE
  8
0
 10
-16.0226
 20
-9.24376
 11
-14.4386
 21
-9.24376
  0
LINE
  8
0
 10
-14.4386
 20
-9.24376
 11
-14.5179
 21
-8.84265
  0
LINE
  8
0
 10
-3.34213
 20
-10.9825
 11
-3.34213
 21
-8.73112
  0
LINE
  8
0
 10
-3.34213
 20
-8.73112
 11
-3.34619
 21
-8.40561
  0
LINE
  8
0
 10
-3.34619
 20
-8.40561
 11
-3.35838
 21
-8.04756
  0
LINE
  8
0
 10
-3.35838
 20
-8.04756
 11
-2.89726
 21
-8.04756
  0
LINE
  8
0
 10
-2.89726
 20
-8.04756
 11
-2.881
 21
-8.44696
  0
LINE
  8
0
 10
-2.881
 20
-8.44696
 11
-2.87558
 21
-8.647
  0
LINE
  8
0
 10
-2.87558
 20
-8.647
 11
-2.86473
 21
-8.647
  0
LINE
  8
0
 10
-2.86473
 20
-8.647
 11
-2.73929
 21
-8.32964
  0
LINE
  8
0
 10
-2.73929
 20
-8.32964
 11
-2.59622
 21
-8.13164
  0
LINE
  8
0
 10
-2.59622
 20
-8.13164
 11
-2.4131
 21
-8.02789
  0
LINE
  8
0
 10
-2.4131
 20
-8.02789
 11
-2.16762
 21
-7.99332
  0
LINE
  8
0
 10
-2.16762
 20
-7.99332
 11
-2.06929
 21
-8.00011
  0
LINE
  8
0
 10
-2.06929
 20
-8.00011
 11
-1.96957
 21
-8.02045
  0
LINE
  8
0
 10
-1.96957
 20
-8.02045
 11
-1.96957
 21
-8.468
  0
LINE
  8
0
 10
-1.96957
 20
-8.468
 11
-2.08351
 21
-8.44766
  0
LINE
  8
0
 10
-2.08351
 20
-8.44766
 11
-2.22998
 21
-8.44089
  0
LINE
  8
0
 10
-2.22998
 20
-8.44089
 11
-2.49783
 21
-8.50632
  0
LINE
  8
0
 10
-2.49783
 20
-8.50632
 11
-2.69382
 21
-8.70264
  0
LINE
  8
0
 10
-2.69382
 20
-8.70264
 11
-2.81384
 21
-9.021
  0
LINE
  8
0
 10
-2.81384
 20
-9.021
 11
-2.85385
 21
-9.45264
  0
LINE
  8
0
 10
-2.85385
 20
-9.45264
 11
-2.85385
 21
-10.9825
  0
LINE
  8
0
 10
-2.85385
 20
-10.9825
 11
-3.34213
 21
-10.9825
  0
LINE
  8
0
 10
12.6372
 20
-10.9825
 11
12.6372
 21
-8.67416
  0
LINE
  8
0
 10
12.6372
 20
-8.67416
 11
12.6332
 21
-8.26117
  0
LINE
  8
0
 10
12.6332
 20
-8.26117
 11
12.621
 21
-8.04756
  0
LINE
  8
0
 10
12.621
 20
-8.04756
 11
13.0821
 21
-8.04756
  0
LINE
  8
0
 10
13.0821
 20
-8.04756
 11
13.0848
 21
-8.07265
  0
LINE
  8
0
 10
13.0848
 20
-8.07265
 11
13.0875
 21
-8.1208
  0
LINE
  8
0
 10
13.0875
 20
-8.1208
 11
13.0906
 21
-8.18489
  0
LINE
  8
0
 10
13.0906
 20
-8.18489
 11
13.0943
 21
-8.2578
  0
LINE
  8
0
 10
13.0943
 20
-8.2578
 11
13.0987
 21
-8.36932
  0
LINE
  8
0
 10
13.0987
 20
-8.36932
 11
13.1038
 21
-8.54936
  0
LINE
  8
0
 10
13.1038
 20
-8.54936
 11
13.1119
 21
-8.54936
  0
LINE
  8
0
 10
13.1119
 20
-8.54936
 11
13.2933
 21
-8.28998
  0
LINE
  8
0
 10
13.2933
 20
-8.28998
 11
13.5011
 21
-8.11945
  0
LINE
  8
0
 10
13.5011
 20
-8.11945
 11
13.749
 21
-8.02486
  0
LINE
  8
0
 10
13.749
 20
-8.02486
 11
14.0505
 21
-7.99332
  0
LINE
  8
0
 10
14.0505
 20
-7.99332
 11
14.4685
 21
-8.05333
  0
LINE
  8
0
 10
14.4685
 20
-8.05333
 11
14.757
 21
-8.23335
  0
LINE
  8
0
 10
14.757
 20
-8.23335
 11
14.9249
 21
-8.55173
  0
LINE
  8
0
 10
14.9249
 20
-8.55173
 11
14.9808
 21
-9.02676
  0
LINE
  8
0
 10
14.9808
 20
-9.02676
 11
14.9808
 21
-10.9825
  0
LINE
  8
0
 10
14.9808
 20
-10.9825
 11
14.4899
 21
-10.9825
  0
LINE
  8
0
 10
14.4899
 20
-10.9825
 11
14.4899
 21
-9.12172
  0
LINE
  8
0
 10
14.4899
 20
-9.12172
 11
14.4756
 21
-8.86403
  0
LINE
  8
0
 10
14.4756
 20
-8.86403
 11
14.4329
 21
-8.67145
  0
LINE
  8
0
 10
14.4329
 20
-8.67145
 11
14.359
 21
-8.53378
  0
LINE
  8
0
 10
14.359
 20
-8.53378
 11
14.2511
 21
-8.44089
  0
LINE
  8
0
 10
14.2511
 20
-8.44089
 11
14.0972
 21
-8.38799
  0
LINE
  8
0
 10
14.0972
 20
-8.38799
 11
13.885
 21
-8.37036
  0
LINE
  8
0
 10
13.885
 20
-8.37036
 11
13.5697
 21
-8.43071
  0
LINE
  8
0
 10
13.5697
 20
-8.43071
 11
13.3289
 21
-8.61176
  0
LINE
  8
0
 10
13.3289
 20
-8.61176
 11
13.1764
 21
-8.89996
  0
LINE
  8
0
 10
13.1764
 20
-8.89996
 11
13.1255
 21
-9.28175
  0
LINE
  8
0
 10
13.1255
 20
-9.28175
 11
13.1255
 21
-10.9825
  0
LINE
  8
0
 10
13.1255
 20
-10.9825
 11
12.6372
 21
-10.9825
  0
LINE
  8
0
 10
-0.926132
 20
-10.9397
 11
-1.34422
 21
-10.6488
  0
LINE
  8
0
 10
-1.34422
 20
-10.6488
 11
-1.59952
 21
-10.1667
  0
LINE
  8
0
 10
-1.59952
 20
-10.1667
 11
-1.68462
 21
-9.49603
  0
LINE
  8
0
 10
-1.68462
 20
-9.49603
 11
-1.59952
 21
-8.85385
  0
LINE
  8
0
 10
-1.59952
 20
-8.85385
 11
-1.34422
 21
-8.3812
  0
LINE
  8
0
 10
-1.34422
 20
-8.3812
 11
-0.930893
 21
-8.09029
  0
LINE
  8
0
 10
-0.930893
 20
-8.09029
 11
-0.37178
 21
-7.99332
  0
LINE
  8
0
 10
-0.37178
 20
-7.99332
 11
0.598618
 21
-8.38324
  0
LINE
  8
0
 10
0.598618
 20
-8.38324
 11
0.922089
 21
-9.55299
  0
LINE
  8
0
 10
0.922089
 20
-9.55299
 11
0.922089
 21
-9.61809
  0
LINE
  8
0
 10
0.922089
 20
-9.61809
 11
-1.17198
 21
-9.61809
  0
LINE
  8
0
 10
-1.17198
 20
-9.61809
 11
-1.11977
 21
-10.065
  0
LINE
  8
0
 10
-1.11977
 20
-10.065
 11
-0.963135
 21
-10.3966
  0
LINE
  8
0
 10
-0.963135
 20
-10.3966
 11
-0.7061
 21
-10.6021
  0
LINE
  8
0
 10
-0.7061
 20
-10.6021
 11
-0.352783
 21
-10.6706
  0
LINE
  8
0
 10
-0.352783
 20
-10.6706
 11
-0.0669556
 21
-10.6387
  0
LINE
  8
0
 10
-0.0669556
 20
-10.6387
 11
0.155762
 21
-10.5431
  0
LINE
  8
0
 10
0.155762
 20
-10.5431
 11
0.316162
 21
-10.3986
  0
LINE
  8
0
 10
0.316162
 20
-10.3986
 11
0.414841
 21
-10.2203
  0
LINE
  8
0
 10
0.414841
 20
-10.2203
 11
0.843414
 21
-10.3423
  0
LINE
  8
0
 10
0.843414
 20
-10.3423
 11
0.412796
 21
-10.8631
  0
LINE
  8
0
 10
0.412796
 20
-10.8631
 11
-0.352783
 21
-11.0367
  0
LINE
  8
0
 10
-0.352783
 20
-11.0367
 11
-0.926132
 21
-10.9397
  0
LINE
  8
0
 10
0.338181
 20
-8.84265
 11
0.181534
 21
-8.567
  0
LINE
  8
0
 10
0.181534
 20
-8.567
 11
-0.0564575
 21
-8.4073
  0
LINE
  8
0
 10
-0.0564575
 20
-8.4073
 11
-0.379898
 21
-8.35408
  0
LINE
  8
0
 10
-0.379898
 20
-8.35408
 11
-0.698303
 21
-8.41342
  0
LINE
  8
0
 10
-0.698303
 20
-8.41342
 11
-0.94278
 21
-8.59145
  0
LINE
  8
0
 10
-0.94278
 20
-8.59145
 11
-1.10246
 21
-8.87318
  0
LINE
  8
0
 10
-1.10246
 20
-8.87318
 11
-1.16653
 21
-9.24376
  0
LINE
  8
0
 10
-1.16653
 20
-9.24376
 11
0.417526
 21
-9.24376
  0
LINE
  8
0
 10
0.417526
 20
-9.24376
 11
0.338181
 21
-8.84265
  0
LINE
  8
0
 10
6.05247
 20
-10.9784
 11
5.77512
 21
-10.8034
  0
LINE
  8
0
 10
5.77512
 20
-10.8034
 11
5.60831
 21
-10.5268
  0
LINE
  8
0
 10
5.60831
 20
-10.5268
 11
5.5527
 21
-10.1633
  0
LINE
  8
0
 10
5.5527
 20
-10.1633
 11
5.62764
 21
-9.7605
  0
LINE
  8
0
 10
5.62764
 20
-9.7605
 11
5.85243
 21
-9.46349
  0
LINE
  8
0
 10
5.85243
 20
-9.46349
 11
6.24403
 21
-9.27632
  0
LINE
  8
0
 10
6.24403
 20
-9.27632
 11
6.81943
 21
-9.20308
  0
LINE
  8
0
 10
6.81943
 20
-9.20308
 11
7.47859
 21
-9.19225
  0
LINE
  8
0
 10
7.47859
 20
-9.19225
 11
7.47859
 21
-9.0322
  0
LINE
  8
0
 10
7.47859
 20
-9.0322
 11
7.44061
 21
-8.72502
  0
LINE
  8
0
 10
7.44061
 20
-8.72502
 11
7.32668
 21
-8.51956
  0
LINE
  8
0
 10
7.32668
 20
-8.51956
 11
7.13138
 21
-8.40358
  0
LINE
  8
0
 10
7.13138
 20
-8.40358
 11
6.84927
 21
-8.36491
  0
LINE
  8
0
 10
6.84927
 20
-8.36491
 11
6.56583
 21
-8.39273
  0
LINE
  8
0
 10
6.56583
 20
-8.39273
 11
6.37187
 21
-8.47617
  0
LINE
  8
0
 10
6.37187
 20
-8.47617
 11
6.25252
 21
-8.62059
  0
LINE
  8
0
 10
6.25252
 20
-8.62059
 11
6.19283
 21
-8.83148
  0
LINE
  8
0
 10
6.19283
 20
-8.83148
 11
5.68291
 21
-8.78535
  0
LINE
  8
0
 10
5.68291
 20
-8.78535
 11
6.0396
 21
-8.19133
  0
LINE
  8
0
 10
6.0396
 20
-8.19133
 11
6.86011
 21
-7.99332
  0
LINE
  8
0
 10
6.86011
 20
-7.99332
 11
7.34497
 21
-8.05673
  0
LINE
  8
0
 10
7.34497
 20
-8.05673
 11
7.69283
 21
-8.24696
  0
LINE
  8
0
 10
7.69283
 20
-8.24696
 11
7.90237
 21
-8.55717
  0
LINE
  8
0
 10
7.90237
 20
-8.55717
 11
7.97223
 21
-8.98064
  0
LINE
  8
0
 10
7.97223
 20
-8.98064
 11
7.97223
 21
-10.2447
  0
LINE
  8
0
 10
7.97223
 20
-10.2447
 11
7.98647
 21
-10.4349
  0
LINE
  8
0
 10
7.98647
 20
-10.4349
 11
8.02919
 21
-10.5716
  0
LINE
  8
0
 10
8.02919
 20
-10.5716
 11
8.11195
 21
-10.6539
  0
LINE
  8
0
 10
8.11195
 20
-10.6539
 11
8.24623
 21
-10.6814
  0
LINE
  8
0
 10
8.24623
 20
-10.6814
 11
8.32149
 21
-10.6767
  0
LINE
  8
0
 10
8.32149
 20
-10.6767
 11
8.40623
 21
-10.6624
  0
LINE
  8
0
 10
8.40623
 20
-10.6624
 11
8.40623
 21
-10.9662
  0
LINE
  8
0
 10
8.40623
 20
-10.9662
 11
8.21976
 21
-10.9987
  0
LINE
  8
0
 10
8.21976
 20
-10.9987
 11
8.02924
 21
-11.0096
  0
LINE
  8
0
 10
8.02924
 20
-11.0096
 11
7.79491
 21
-10.974
  0
LINE
  8
0
 10
7.79491
 20
-10.974
 11
7.63451
 21
-10.8672
  0
LINE
  8
0
 10
7.63451
 20
-10.8672
 11
7.53789
 21
-10.6844
  0
LINE
  8
0
 10
7.53789
 20
-10.6844
 11
7.49483
 21
-10.421
  0
LINE
  8
0
 10
7.49483
 20
-10.421
 11
7.47859
 21
-10.421
  0
LINE
  8
0
 10
7.47859
 20
-10.421
 11
7.27617
 21
-10.7082
  0
LINE
  8
0
 10
7.27617
 20
-10.7082
 11
7.04323
 21
-10.897
  0
LINE
  8
0
 10
7.04323
 20
-10.897
 11
6.76823
 21
-11.0018
  0
LINE
  8
0
 10
6.76823
 20
-11.0018
 11
6.43967
 21
-11.0367
  0
LINE
  8
0
 10
6.43967
 20
-11.0367
 11
6.05247
 21
-10.9784
  0
LINE
  8
0
 10
6.8045
 20
-10.64
 11
7.02827
 21
-10.5485
  0
LINE
  8
0
 10
7.02827
 20
-10.5485
 11
7.21512
 21
-10.4037
  0
LINE
  8
0
 10
7.21512
 20
-10.4037
 11
7.35786
 21
-10.2135
  0
LINE
  8
0
 10
7.35786
 20
-10.2135
 11
7.44841
 21
-9.9975
  0
LINE
  8
0
 10
7.44841
 20
-9.9975
 11
7.47859
 21
-9.77541
  0
LINE
  8
0
 10
7.47859
 20
-9.77541
 11
7.47859
 21
-9.534
  0
LINE
  8
0
 10
7.47859
 20
-9.534
 11
6.94423
 21
-9.54485
  0
LINE
  8
0
 10
6.94423
 20
-9.54485
 11
6.64142
 21
-9.5652
  0
LINE
  8
0
 10
6.64142
 20
-9.5652
 11
6.42203
 21
-9.6154
  0
LINE
  8
0
 10
6.42203
 20
-9.6154
 11
6.26506
 21
-9.69812
  0
LINE
  8
0
 10
6.26506
 20
-9.69812
 11
6.14943
 21
-9.81612
  0
LINE
  8
0
 10
6.14943
 20
-9.81612
 11
6.07825
 21
-9.97275
  0
LINE
  8
0
 10
6.07825
 20
-9.97275
 11
6.0545
 21
-10.1714
  0
LINE
  8
0
 10
6.0545
 20
-10.1714
 11
6.08672
 21
-10.383
  0
LINE
  8
0
 10
6.08672
 20
-10.383
 11
6.18335
 21
-10.5404
  0
LINE
  8
0
 10
6.18335
 20
-10.5404
 11
6.33966
 21
-10.638
  0
LINE
  8
0
 10
6.33966
 20
-10.638
 11
6.55092
 21
-10.6706
  0
LINE
  8
0
 10
6.55092
 20
-10.6706
 11
6.8045
 21
-10.64
  0
LINE
  8
0
 10
16.2639
 20
-10.9397
 11
15.8458
 21
-10.6488
  0
LINE
  8
0
 10
15.8458
 20
-10.6488
 11
15.5905
 21
-10.1667
  0
LINE
  8
0
 10
15.5905
 20
-10.1667
 11
15.5054
 21
-9.49603
  0
LINE
  8
0
 10
15.5054
 20
-9.49603
 11
15.5905
 21
-8.85385
  0
LINE
  8
0
 10
15.5905
 20
-8.85385
 11
15.8458
 21
-8.3812
  0
LINE
  8
0
 10
15.8458
 20
-8.3812
 11
16.2591
 21
-8.09029
  0
LINE
  8
0
 10
16.2591
 20
-8.09029
 11
16.8182
 21
-7.99332
  0
LINE
  8
0
 10
16.8182
 20
-7.99332
 11
17.7886
 21
-8.38324
  0
LINE
  8
0
 10
17.7886
 20
-8.38324
 11
18.1121
 21
-9.55299
  0
LINE
  8
0
 10
18.1121
 20
-9.55299
 11
18.1121
 21
-9.61809
  0
LINE
  8
0
 10
18.1121
 20
-9.61809
 11
16.018
 21
-9.61809
  0
LINE
  8
0
 10
16.018
 20
-9.61809
 11
16.0702
 21
-10.065
  0
LINE
  8
0
 10
16.0702
 20
-10.065
 11
16.2269
 21
-10.3966
  0
LINE
  8
0
 10
16.2269
 20
-10.3966
 11
16.4839
 21
-10.6021
  0
LINE
  8
0
 10
16.4839
 20
-10.6021
 11
16.8372
 21
-10.6706
  0
LINE
  8
0
 10
16.8372
 20
-10.6706
 11
17.123
 21
-10.6387
  0
LINE
  8
0
 10
17.123
 20
-10.6387
 11
17.3458
 21
-10.5431
  0
LINE
  8
0
 10
17.3458
 20
-10.5431
 11
17.5062
 21
-10.3986
  0
LINE
  8
0
 10
17.5062
 20
-10.3986
 11
17.6048
 21
-10.2203
  0
LINE
  8
0
 10
17.6048
 20
-10.2203
 11
18.0334
 21
-10.3423
  0
LINE
  8
0
 10
18.0334
 20
-10.3423
 11
17.6028
 21
-10.8631
  0
LINE
  8
0
 10
17.6028
 20
-10.8631
 11
16.8372
 21
-11.0367
  0
LINE
  8
0
 10
16.8372
 20
-11.0367
 11
16.2639
 21
-10.9397
  0
LINE
  8
0
 10
17.5282
 20
-8.84265
 11
17.3715
 21
-8.567
  0
LINE
  8
0
 10
17.3715
 20
-8.567
 11
17.1335
 21
-8.4073
  0
LINE
  8
0
 10
17.1335
 20
-8.4073
 11
16.8101
 21
-8.35408
  0
LINE
  8
0
 10
16.8101
 20
-8.35408
 11
16.4917
 21
-8.41342
  0
LINE
  8
0
 10
16.4917
 20
-8.41342
 11
16.2472
 21
-8.59145
  0
LINE
  8
0
 10
16.2472
 20
-8.59145
 11
16.0875
 21
-8.87318
  0
LINE
  8
0
 10
16.0875
 20
-8.87318
 11
16.0235
 21
-9.24376
  0
LINE
  8
0
 10
16.0235
 20
-9.24376
 11
17.6075
 21
-9.24376
  0
LINE
  8
0
 10
17.6075
 20
-9.24376
 11
17.5282
 21
-8.84265
  0
LINE
  8
0
 10
-11.2576
 20
-10.9397
 11
-11.6757
 21
-10.6488
  0
LINE
  8
0
 10
-11.6757
 20
-10.6488
 11
-11.931
 21
-10.1667
  0
LINE
  8
0
 10
-11.931
 20
-10.1667
 11
-12.0161
 21
-9.49603
  0
LINE
  8
0
 10
-12.0161
 20
-9.49603
 11
-11.931
 21
-8.85385
  0
LINE
  8
0
 10
-11.931
 20
-8.85385
 11
-11.6757
 21
-8.3812
  0
LINE
  8
0
 10
-11.6757
 20
-8.3812
 11
-11.2623
 21
-8.09029
  0
LINE
  8
0
 10
-11.2623
 20
-8.09029
 11
-10.7032
 21
-7.99332
  0
LINE
  8
0
 10
-10.7032
 20
-7.99332
 11
-9.73282
 21
-8.38324
  0
LINE
  8
0
 10
-9.73282
 20
-8.38324
 11
-9.40935
 21
-9.55299
  0
LINE
  8
0
 10
-9.40935
 20
-9.55299
 11
-9.40935
 21
-9.61809
  0
LINE
  8
0
 10
-9.40935
 20
-9.61809
 11
-11.5034
 21
-9.61809
  0
LINE
  8
0
 10
-11.5034
 20
-9.61809
 11
-11.4512
 21
-10.065
  0
LINE
  8
0
 10
-11.4512
 20
-10.065
 11
-11.2946
 21
-10.3966
  0
LINE
  8
0
 10
-11.2946
 20
-10.3966
 11
-11.0376
 21
-10.6021
  0
LINE
  8
0
 10
-11.0376
 20
-10.6021
 11
-10.6842
 21
-10.6706
  0
LINE
  8
0
 10
-10.6842
 20
-10.6706
 11
-10.3984
 21
-10.6387
  0
LINE
  8
0
 10
-10.3984
 20
-10.6387
 11
-10.1757
 21
-10.5431
  0
LINE
  8
0
 10
-10.1757
 20
-10.5431
 11
-10.0153
 21
-10.3986
  0
LINE
  8
0
 10
-10.0153
 20
-10.3986
 11
-9.91658
 21
-10.2203
  0
LINE
  8
0
 10
-9.91658
 20
-10.2203
 11
-9.48802
 21
-10.3423
  0
LINE
  8
0
 10
-9.48802
 20
-10.3423
 11
-9.91864
 21
-10.8631
  0
LINE
  8
0
 10
-9.91864
 20
-10.8631
 11
-10.6842
 21
-11.0367
  0
LINE
  8
0
 10
-10.6842
 20
-11.0367
 11
-11.2576
 21
-10.9397
  0
LINE
  8
0
 10
-9.99324
 20
-8.84265
 11
-10.1499
 21
-8.567
  0
LINE
  8
0
 10
-10.1499
 20
-8.567
 11
-10.3879
 21
-8.4073
  0
LINE
  8
0
 10
-10.3879
 20
-8.4073
 11
-10.7113
 21
-8.35408
  0
LINE
  8
0
 10
-10.7113
 20
-8.35408
 11
-11.0297
 21
-8.41342
  0
LINE
  8
0
 10
-11.0297
 20
-8.41342
 11
-11.2742
 21
-8.59145
  0
LINE
  8
0
 10
-11.2742
 20
-8.59145
 11
-11.4339
 21
-8.87318
  0
LINE
  8
0
 10
-11.4339
 20
-8.87318
 11
-11.498
 21
-9.24376
  0
LINE
  8
0
 10
-11.498
 20
-9.24376
 11
-9.91391
 21
-9.24376
  0
LINE
  8
0
 10
-9.91391
 20
-9.24376
 11
-9.99324
 21
-8.84265
  0
LINE
  8
0
 10
-19.4197
 20
-12.1353
 11
-19.4197
 21
-8.647
  0
LINE
  8
0
 10
-19.4197
 20
-8.647
 11
-19.4238
 21
-8.27066
  0
LINE
  8
0
 10
-19.4238
 20
-8.27066
 11
-19.436
 21
-8.04756
  0
LINE
  8
0
 10
-19.436
 20
-8.04756
 11
-18.964
 21
-8.04756
  0
LINE
  8
0
 10
-18.964
 20
-8.04756
 11
-18.9606
 21
-8.07231
  0
LINE
  8
0
 10
-18.9606
 20
-8.07231
 11
-18.9559
 21
-8.12488
  0
LINE
  8
0
 10
-18.9559
 20
-8.12488
 11
-18.9501
 21
-8.2093
  0
LINE
  8
0
 10
-18.9501
 20
-8.2093
 11
-18.9436
 21
-8.32968
  0
LINE
  8
0
 10
-18.9436
 20
-8.32968
 11
-18.9386
 21
-8.4463
  0
LINE
  8
0
 10
-18.9386
 20
-8.4463
 11
-18.9369
 21
-8.51952
  0
LINE
  8
0
 10
-18.9369
 20
-8.51952
 11
-18.926
 21
-8.51952
  0
LINE
  8
0
 10
-18.926
 20
-8.51952
 11
-18.7748
 21
-8.28456
  0
LINE
  8
0
 10
-18.7748
 20
-8.28456
 11
-18.5815
 21
-8.12216
  0
LINE
  8
0
 10
-18.5815
 20
-8.12216
 11
-18.3333
 21
-8.02754
  0
LINE
  8
0
 10
-18.3333
 20
-8.02754
 11
-18.0173
 21
-7.996
  0
LINE
  8
0
 10
-18.0173
 20
-7.996
 11
-17.5433
 21
-8.08687
  0
LINE
  8
0
 10
-17.5433
 20
-8.08687
 11
-17.2063
 21
-8.35948
  0
LINE
  8
0
 10
-17.2063
 20
-8.35948
 11
-17.0049
 21
-8.82671
  0
LINE
  8
0
 10
-17.0049
 20
-8.82671
 11
-16.9377
 21
-9.50143
  0
LINE
  8
0
 10
-16.9377
 20
-9.50143
 11
-17.2076
 21
-10.6529
  0
LINE
  8
0
 10
-17.2076
 20
-10.6529
 11
-18.0173
 21
-11.0367
  0
LINE
  8
0
 10
-18.0173
 20
-11.0367
 11
-18.5842
 21
-10.9092
  0
LINE
  8
0
 10
-18.5842
 20
-10.9092
 11
-18.9287
 21
-10.5268
  0
LINE
  8
0
 10
-18.9287
 20
-10.5268
 11
-18.9423
 21
-10.5268
  0
LINE
  8
0
 10
-18.9423
 20
-10.5268
 11
-18.9342
 21
-10.6529
  0
LINE
  8
0
 10
-18.9342
 20
-10.6529
 11
-18.9315
 21
-10.9879
  0
LINE
  8
0
 10
-18.9315
 20
-10.9879
 11
-18.9315
 21
-12.1353
  0
LINE
  8
0
 10
-18.9315
 20
-12.1353
 11
-19.4197
 21
-12.1353
  0
LINE
  8
0
 10
-17.8332
 20
-10.6092
 11
-17.6172
 21
-10.4088
  0
LINE
  8
0
 10
-17.6172
 20
-10.4088
 11
-17.4921
 21
-10.0511
  0
LINE
  8
0
 10
-17.4921
 20
-10.0511
 11
-17.4504
 21
-9.51231
  0
LINE
  8
0
 10
-17.4504
 20
-9.51231
 11
-17.4918
 21
-8.98676
  0
LINE
  8
0
 10
-17.4918
 20
-8.98676
 11
-17.6159
 21
-8.63615
  0
LINE
  8
0
 10
-17.6159
 20
-8.63615
 11
-17.8302
 21
-8.43883
  0
LINE
  8
0
 10
-17.8302
 20
-8.43883
 11
-18.1421
 21
-8.37305
  0
LINE
  8
0
 10
-18.1421
 20
-8.37305
 11
-18.4008
 21
-8.40356
  0
LINE
  8
0
 10
-18.4008
 20
-8.40356
 11
-18.5965
 21
-8.49512
  0
LINE
  8
0
 10
-18.5965
 20
-8.49512
 11
-18.7409
 21
-8.65141
  0
LINE
  8
0
 10
-18.7409
 20
-8.65141
 11
-18.846
 21
-8.87624
  0
LINE
  8
0
 10
-18.846
 20
-8.87624
 11
-18.9101
 21
-9.17427
  0
LINE
  8
0
 10
-18.9101
 20
-9.17427
 11
-18.9315
 21
-9.55028
  0
LINE
  8
0
 10
-18.9315
 20
-9.55028
 11
-18.8853
 21
-10.0521
  0
LINE
  8
0
 10
-18.8853
 20
-10.0521
 11
-18.747
 21
-10.402
  0
LINE
  8
0
 10
-18.747
 20
-10.402
 11
-18.5049
 21
-10.6075
  0
LINE
  8
0
 10
-18.5049
 20
-10.6075
 11
-18.1475
 21
-10.676
  0
LINE
  8
0
 10
-18.1475
 20
-10.676
 11
-17.8332
 21
-10.6092
  0
LINE
  8
0
 10
1.99756
 20
-10.9916
 11
1.63779
 21
-10.8564
  0
LINE
  8
0
 10
1.63779
 20
-10.8564
 11
1.39267
 21
-10.6255
  0
LINE
  8
0
 10
1.39267
 20
-10.6255
 11
1.25127
 21
-10.2935
  0
LINE
  8
0
 10
1.25127
 20
-10.2935
 11
1.68259
 21
-10.2094
  0
LINE
  8
0
 10
1.68259
 20
-10.2094
 11
1.77818
 21
-10.4139
  0
LINE
  8
0
 10
1.77818
 20
-10.4139
 11
1.94023
 21
-10.5553
  0
LINE
  8
0
 10
1.94023
 20
-10.5553
 11
2.17352
 21
-10.6377
  0
LINE
  8
0
 10
2.17352
 20
-10.6377
 11
2.48276
 21
-10.6651
  0
LINE
  8
0
 10
2.48276
 20
-10.6651
 11
2.80453
 21
-10.6366
  0
LINE
  8
0
 10
2.80453
 20
-10.6366
 11
3.02663
 21
-10.5512
  0
LINE
  8
0
 10
3.02663
 20
-10.5512
 11
3.15581
 21
-10.4088
  0
LINE
  8
0
 10
3.15581
 20
-10.4088
 11
3.19887
 21
-10.2094
  0
LINE
  8
0
 10
3.19887
 20
-10.2094
 11
3.16904
 21
-10.0521
  0
LINE
  8
0
 10
3.16904
 20
-10.0521
 11
3.07951
 21
-9.92732
  0
LINE
  8
0
 10
3.07951
 20
-9.92732
 11
2.92354
 21
-9.82829
  0
LINE
  8
0
 10
2.92354
 20
-9.82829
 11
2.69435
 21
-9.74828
  0
LINE
  8
0
 10
2.69435
 20
-9.74828
 11
2.34444
 21
-9.65608
  0
LINE
  8
0
 10
2.34444
 20
-9.65608
 11
1.98468
 21
-9.54858
  0
LINE
  8
0
 10
1.98468
 20
-9.54858
 11
1.74631
 21
-9.44316
  0
LINE
  8
0
 10
1.74631
 20
-9.44316
 11
1.58797
 21
-9.32753
  0
LINE
  8
0
 10
1.58797
 20
-9.32753
 11
1.46828
 21
-9.18951
  0
LINE
  8
0
 10
1.46828
 20
-9.18951
 11
1.39301
 21
-9.02338
  0
LINE
  8
0
 10
1.39301
 20
-9.02338
 11
1.3679
 21
-8.82332
  0
LINE
  8
0
 10
1.3679
 20
-8.82332
 11
1.43945
 21
-8.4697
  0
LINE
  8
0
 10
1.43945
 20
-8.4697
 11
1.65407
 21
-8.21169
  0
LINE
  8
0
 10
1.65407
 20
-8.21169
 11
2.00571
 21
-8.054
  0
LINE
  8
0
 10
2.00571
 20
-8.054
 11
2.48819
 21
-8.00143
  0
LINE
  8
0
 10
2.48819
 20
-8.00143
 11
2.92387
 21
-8.04416
  0
LINE
  8
0
 10
2.92387
 20
-8.04416
 11
3.25987
 21
-8.17232
  0
LINE
  8
0
 10
3.25987
 20
-8.17232
 11
3.4935
 21
-8.39474
  0
LINE
  8
0
 10
3.4935
 20
-8.39474
 11
3.62199
 21
-8.72025
  0
LINE
  8
0
 10
3.62199
 20
-8.72025
 11
3.18259
 21
-8.77452
  0
LINE
  8
0
 10
3.18259
 20
-8.77452
 11
3.10767
 21
-8.60193
  0
LINE
  8
0
 10
3.10767
 20
-8.60193
 11
2.96423
 21
-8.47481
  0
LINE
  8
0
 10
2.96423
 20
-8.47481
 11
2.75638
 21
-8.39647
  0
LINE
  8
0
 10
2.75638
 20
-8.39647
 11
2.48819
 21
-8.37036
  0
LINE
  8
0
 10
2.48819
 20
-8.37036
 11
2.20067
 21
-8.39545
  0
LINE
  8
0
 10
2.20067
 20
-8.39545
 11
1.99991
 21
-8.47072
  0
LINE
  8
0
 10
1.99991
 20
-8.47072
 11
1.88193
 21
-8.59685
  0
LINE
  8
0
 10
1.88193
 20
-8.59685
 11
1.84259
 21
-8.77452
  0
LINE
  8
0
 10
1.84259
 20
-8.77452
 11
1.85886
 21
-8.88844
  0
LINE
  8
0
 10
1.85886
 20
-8.88844
 11
1.90767
 21
-8.98068
  0
LINE
  8
0
 10
1.90767
 20
-8.98068
 11
1.98839
 21
-9.05594
  0
LINE
  8
0
 10
1.98839
 20
-9.05594
 11
2.10027
 21
-9.119
  0
LINE
  8
0
 10
2.10027
 20
-9.119
 11
2.29831
 21
-9.18681
  0
LINE
  8
0
 10
2.29831
 20
-9.18681
 11
2.63739
 21
-9.27632
  0
LINE
  8
0
 10
2.63739
 20
-9.27632
 11
2.97102
 21
-9.37024
  0
LINE
  8
0
 10
2.97102
 20
-9.37024
 11
3.19615
 21
-9.45673
  0
LINE
  8
0
 10
3.19615
 20
-9.45673
 11
3.34906
 21
-9.54385
  0
LINE
  8
0
 10
3.34906
 20
-9.54385
 11
3.46603
 21
-9.6398
  0
LINE
  8
0
 10
3.46603
 20
-9.6398
 11
3.55385
 21
-9.74796
  0
LINE
  8
0
 10
3.55385
 20
-9.74796
 11
3.61928
 21
-9.87172
  0
LINE
  8
0
 10
3.61928
 20
-9.87172
 11
3.65999
 21
-10.0124
  0
LINE
  8
0
 10
3.65999
 20
-10.0124
 11
3.67355
 21
-10.1714
  0
LINE
  8
0
 10
3.67355
 20
-10.1714
 11
3.59521
 21
-10.539
  0
LINE
  8
0
 10
3.59521
 20
-10.539
 11
3.36023
 21
-10.8116
  0
LINE
  8
0
 10
3.36023
 20
-10.8116
 11
2.98422
 21
-10.9804
  0
LINE
  8
0
 10
2.98422
 20
-10.9804
 11
2.48276
 21
-11.0367
  0
LINE
  8
0
 10
2.48276
 20
-11.0367
 11
1.99756
 21
-10.9916
  0
LINE
  8
0
 10
11.252
 20
-10.9825
 11
11.252
 21
-10.3884
  0
LINE
  8
0
 10
11.252
 20
-10.3884
 11
11.7809
 21
-10.3884
  0
LINE
  8
0
 10
11.7809
 20
-10.3884
 11
11.7809
 21
-10.9825
  0
LINE
  8
0
 10
11.7809
 20
-10.9825
 11
11.252
 21
-10.9825
  0
ENDSEC
  0
SECTION
  2
OBJECTS
  0
DICTIONARY
  0
ENDSEC
  0
EOF
